<svg width="1187" height="672" viewBox="0 0 1187 672" fill="none" xmlns="http://www.w3.org/2000/svg">
<g opacity="0.2">
<path d="M117.637 201.853L29.4093 252.791V150.914L117.637 201.853Z" fill="#5585FF"/>
<path d="M560.841 183.952L472.614 234.89V133.014L560.841 183.952Z" fill="#5585FF"/>
<path d="M230.118 650.226L190.145 643.563L244.596 612.377L230.118 650.226Z" fill="#92BDFF"/>
<path d="M1128.54 196.312L1102.89 227.687V164.937L1128.54 196.312Z" fill="#92BDFF"/>
<path d="M83.5454 352.875L108.33 320.813L110.037 383.54L83.5454 352.875Z" fill="#92BDFF"/>
<path d="M707.561 147.723L681.913 179.098V116.348L707.561 147.723Z" fill="#4559DD"/>
<path d="M1024.44 612.8L1112.67 561.861V663.738L1024.44 612.8Z" fill="#92BDFF"/>
<path d="M1057.78 46.8732L1158.83 59.8085L1097.1 140.854L1057.78 46.8732Z" fill="#4559DD"/>
<path d="M626.316 388.645L727.368 401.58L665.639 482.626L626.316 388.645Z" fill="#4559DD"/>
<path d="M101.406 82.7293C101.406 90.7959 102.764 108.521 102.764 108.521C102.764 108.521 81.7924 108.521 75.6146 108.521C61.3701 108.521 49.8228 96.9737 49.8228 82.7293C49.8228 68.4849 61.3701 56.9375 75.6146 56.9375C89.859 56.9375 101.406 68.4849 101.406 82.7293Z" fill="#92BDFF"/>
<path d="M880.091 447.774C880.091 455.841 881.449 473.566 881.449 473.566C881.449 473.566 860.477 473.566 854.3 473.566C840.055 473.566 828.508 462.019 828.508 447.774C828.508 433.53 840.055 421.982 854.3 421.982C868.544 421.982 880.091 433.53 880.091 447.774Z" fill="#92BDFF"/>
<path d="M138.412 555.16V483.981H68.0853L103.248 519.571L138.412 555.16Z" fill="#5585FF"/>
<path d="M138.412 555.16L103.248 519.571L79.5932 541.947C112.412 567.521 138.412 555.16 138.412 555.16Z" fill="#4559DD"/>
<path d="M68.0853 483.981C68.0853 483.981 62.9706 525.751 79.5932 541.947L103.248 519.571L68.0853 483.981Z" fill="#92BDFF"/>
<path d="M842.665 668.603L900.397 626.967L859.26 569.927L850.963 619.265L842.665 668.603Z" fill="#5585FF"/>
<path d="M842.665 668.603L850.963 619.265L818.977 613.168C817.432 654.745 842.665 668.603 842.665 668.603Z" fill="#4559DD"/>
<path d="M859.26 569.927C859.26 569.927 822.39 590.211 818.977 613.168L850.963 619.265L859.26 569.927Z" fill="#92BDFF"/>
<circle cx="374.752" cy="460.752" r="96.752" fill="#4559DD"/>
<circle cx="952.409" cy="153.69" r="96.752" fill="#5585FF"/>
<circle cx="321.732" cy="125.56" r="27.7043" fill="#92BDFF"/>
<circle cx="683.167" cy="636.668" r="17.0488" fill="#92BDFF"/>
<circle cx="738.149" cy="82.5107" r="17.0488" fill="#92BDFF"/>
<path d="M1111.39 424.966C1111.39 414.78 1108.42 404.814 1102.85 396.287C1097.28 387.76 1089.34 381.042 1080.01 376.952C1070.68 372.862 1060.36 371.579 1050.32 373.259C1040.27 374.939 1030.93 379.509 1023.44 386.412C1015.95 393.314 1010.63 402.249 1008.14 412.125C1005.64 422.001 1006.08 432.39 1009.39 442.022C1012.7 451.654 1018.75 460.112 1026.8 466.362C1034.84 472.612 1044.53 476.384 1054.68 477.216L1058.96 424.966H1111.39Z" fill="#4559DD"/>
<path fill-rule="evenodd" clip-rule="evenodd" d="M187.46 142.744C185.754 136.72 185.84 130.329 187.708 124.352L218.466 133.964L232.24 163.098C226.579 165.774 220.261 166.743 214.059 165.887C207.856 165.031 202.037 162.386 197.314 158.276C192.59 154.166 189.166 148.769 187.46 142.744Z" fill="#4559DD"/>
<path d="M232.24 163.098C237.901 160.422 242.659 156.154 245.934 150.817C249.208 145.481 250.857 139.305 250.679 133.046C250.5 126.787 248.503 120.716 244.929 115.574C241.356 110.433 236.363 106.443 230.559 104.093L218.466 133.964L232.24 163.098Z" fill="#5585FF"/>
</g>
</svg>
