<svg width="47" height="47" viewBox="0 0 47 47" fill="none" xmlns="http://www.w3.org/2000/svg">
<g clip-path="url(#clip0_251_3282)">
<path d="M22.3544 0.616966C0.289754 2.25076 -5.57782 27.3012 7.89176 40.338C21.3613 53.3748 44.9356 44.6455 46.3413 26.4054C47.747 8.1653 35.1329 -0.329092 22.3544 0.616966Z" fill="#EAB818"/>
<path d="M22.4483 40.0801C13.595 39.0736 6.64717 34.5782 1.15869 27.8887C2.06764 32.6329 4.41908 36.9808 7.8918 40.3384C20.3046 52.362 41.3192 45.8738 45.62 30.4954C39.474 36.8997 31.7949 41.157 22.4483 40.0801Z" fill="#DC911D"/>
<path d="M18.5505 6.16517C16.6785 3.74299 10.9149 6.25911 11.6798 9.35224C11.7355 9.54728 11.8653 9.71272 12.0416 9.81308C12.2178 9.91343 12.4264 9.94069 12.6225 9.88901C14.0517 9.43276 14.9709 8.33573 16.5577 8.34244C17.7688 8.34915 19.7414 7.70838 18.5505 6.16517Z" fill="#241E46"/>
<path d="M33.9458 6.08993C32.8252 3.56711 27.5884 3.64763 26.6222 6.25096C26.5932 6.35727 26.6072 6.47071 26.6612 6.56676C26.7152 6.66281 26.8048 6.73375 26.9107 6.76425C27.8702 6.99238 28.8364 6.89509 29.8126 7.0427C30.8929 7.20708 31.7618 7.90153 32.8689 7.97534C33.9055 8.03237 34.2913 6.87831 33.9458 6.08993Z" fill="#241E46"/>
<path d="M19.2253 15.979C18.5543 14.4492 17.3264 13.4159 15.6524 13.9661C12.2104 15.0664 12.67 22.8798 16.6253 22.6886C19.7285 22.5611 20.329 18.5622 19.2253 15.979Z" fill="#241E46"/>
<path d="M33.8279 15.979C33.1569 14.4492 31.9291 13.4159 30.255 13.9661C26.813 15.0664 27.2692 22.8798 31.2447 22.6886C34.3311 22.5611 34.935 18.5622 33.8279 15.979Z" fill="#241E46"/>
<path d="M38.7664 9.83728C37.6358 8.92142 36.0054 10.0386 36.7133 11.4208C37.3406 12.6386 38.1256 13.7691 38.857 14.9165C39.4541 15.8625 39.7359 16.9294 40.4874 17.7915C40.7331 18.0342 41.0517 18.1894 41.3943 18.233C41.7368 18.2767 42.0842 18.2064 42.3829 18.0331C45.9491 15.5874 40.7088 11.4107 38.7664 9.83728Z" fill="#F4D66C"/>
<path d="M44.2146 21.4344C44.1127 20.9329 43.8236 20.4891 43.4061 20.1931C43.26 20.054 43.0769 19.96 42.8787 19.9225C42.6805 19.885 42.4757 19.9056 42.2889 19.9818C42.1018 20.0578 41.9411 20.1869 41.8266 20.3533C41.7122 20.5196 41.6489 20.7159 41.6448 20.9178C41.6448 20.9849 41.6247 21.1895 41.6448 21.1023C41.5881 21.3211 41.5665 21.5476 41.581 21.7732C41.596 21.8564 41.6173 21.9383 41.6448 22.0181V22.0416C41.6418 22.3202 41.7187 22.5937 41.8662 22.83C41.9603 22.9882 42.0892 23.123 42.2431 23.2241C42.3969 23.3252 42.5718 23.39 42.7544 23.4136C42.9369 23.4372 43.1225 23.419 43.297 23.3603C43.4715 23.3016 43.6304 23.204 43.7617 23.0749C43.9524 22.8511 44.0918 22.5883 44.17 22.3049C44.2483 22.0215 44.2635 21.7243 44.2146 21.4344Z" fill="#F4D66C"/>
<path d="M19.5402 14.841C19.4733 14.6057 19.3448 14.3926 19.1679 14.2237L18.8827 14.0057C18.6694 13.8795 18.426 13.8134 18.1782 13.8144C17.9907 13.8065 17.8043 13.8481 17.6381 13.9352C17.465 13.9891 17.3096 14.0888 17.1885 14.2237C17.0537 14.3469 16.9532 14.503 16.8966 14.6766C16.8095 14.8417 16.7679 15.0269 16.7759 15.2134L16.8262 15.5858C16.891 15.8206 17.0159 16.0345 17.1885 16.2064L17.4703 16.4245C17.6846 16.5511 17.9293 16.6172 18.1782 16.6157C18.3657 16.6233 18.5519 16.5817 18.7183 16.4949C18.8898 16.4375 19.0442 16.3384 19.1679 16.2064C19.3017 16.083 19.4011 15.9269 19.4564 15.7535C19.5434 15.5872 19.5851 15.4009 19.5771 15.2134L19.5402 14.841Z" fill="white"/>
<path d="M34.3178 14.841C34.2548 14.6072 34.1309 14.3942 33.9589 14.2237L33.6771 14.0057C33.4624 13.8798 33.218 13.8138 32.9692 13.8144C32.7817 13.8065 32.5954 13.8481 32.4291 13.9352C32.256 13.9891 32.1007 14.0888 31.9795 14.2237C31.8447 14.3469 31.7442 14.503 31.6877 14.6766C31.6006 14.8417 31.5589 15.0269 31.5669 15.2134L31.6172 15.5858C31.682 15.8206 31.8069 16.0345 31.9795 16.2064L32.2613 16.4245C32.4756 16.5511 32.7203 16.6172 32.9692 16.6157C33.1567 16.6233 33.3429 16.5817 33.5093 16.4949C33.6808 16.4375 33.8353 16.3384 33.9589 16.2064C34.0943 16.0844 34.194 15.9278 34.2474 15.7535C34.3373 15.5883 34.3792 15.4012 34.3682 15.2134L34.3178 14.841Z" fill="white"/>
</g>
<defs>
<clipPath id="clip0_251_3282">
<rect width="45.7261" height="46.028" fill="white" transform="translate(0.71582 0.547852)"/>
</clipPath>
</defs>
</svg>
