<svg width="46" height="47" viewBox="0 0 46 47" fill="none" xmlns="http://www.w3.org/2000/svg">
<g clip-path="url(#clip0_251_3255)">
<path d="M25.4881 0.660687C3.39663 -1.29181 -6.46318 22.5408 4.75532 37.6173C15.9738 52.6938 40.7089 47.8663 45.05 30.0489C49.3911 12.2314 38.28 1.7879 25.4881 0.660687Z" fill="#EAB818"/>
<path d="M28.4905 35.6653C23.5489 37.4266 11.8238 40.362 4.84912 37.7352C16.1079 52.6675 40.7188 47.8198 45.0499 30.0493C46.3515 24.6816 46.2609 20.0117 45.1471 16.043C44.664 17.3111 44.1396 18.5691 43.5737 19.8171C40.4169 26.7683 35.9013 33.025 28.4905 35.6653Z" fill="#DC911D"/>
<path d="M13.075 9.93932C12.297 10.112 11.5663 10.4532 10.9344 10.9389C10.3026 11.4247 9.78506 12.0431 9.41826 12.7507C9.05594 13.4216 8.09311 15.609 9.41826 15.931C10.7434 16.2531 11.5653 14.1966 12.29 13.4787C14.2324 11.5563 15.3731 14.2771 16.1581 15.7465C16.2315 15.8645 16.3307 15.9643 16.4481 16.0386C16.5656 16.1129 16.6983 16.1597 16.8363 16.1755C16.9744 16.1913 17.1142 16.1757 17.2454 16.1299C17.3766 16.0841 17.4957 16.0092 17.5939 15.9109C20.2811 13.3747 15.7958 9.44281 13.075 9.93932Z" fill="#241E46"/>
<path d="M34.3693 9.76145C30.5012 8.06056 26.9149 10.6639 25.6635 14.3743C25.1972 15.7599 27.1296 16.2731 27.8609 15.2633C29.2968 13.2907 31.4103 10.9021 33.8996 12.9586C35.473 14.2468 34.906 16.6489 36.3989 17.7828C36.5429 17.916 36.7256 17.9998 36.9204 18.0222C37.1153 18.0445 37.3122 18.0041 37.4825 17.9069C40.4314 15.7162 36.7344 10.8014 34.3693 9.76145Z" fill="#241E46"/>
<path d="M42.3957 22.6229C41.2752 20.5664 36.8435 18.3287 35.421 21.281C35.3647 21.3869 35.3366 21.5055 35.3393 21.6254C35.3419 21.7454 35.3753 21.8626 35.4363 21.9659C35.4972 22.0693 35.5836 22.1552 35.6872 22.2156C35.7909 22.276 35.9083 22.3088 36.0282 22.3109C36.4339 22.3323 36.8404 22.3323 37.246 22.3109C36.8166 23.3475 36.6455 24.5351 36.2396 25.5684C35.5783 27.2459 34.6164 28.7886 33.4014 30.1209C32.0733 31.5791 30.4612 32.7504 28.664 33.563C26.8669 34.3755 24.9226 34.8122 22.9505 34.8461C20.9785 34.8801 19.0203 34.5105 17.1962 33.7603C15.3722 33.01 13.7207 31.8948 12.3432 30.4832C11.1129 29.1885 10.1 27.7033 9.34404 26.085C8.64959 24.6123 8.57243 22.69 7.76728 21.291C8.30069 21.1501 8.8643 21.1971 9.44469 21.0394C10.0251 20.8817 10.4209 20.0665 10.0284 19.5432C9.02198 18.2012 7.17012 18.5367 5.92549 19.3955C4.68085 20.2544 3.57712 21.8311 3.48318 23.3509C3.4295 24.2802 4.63388 24.6156 5.23104 24.0487C5.59382 23.6607 5.90195 23.225 6.1469 22.7537C6.1469 24.1258 6.68703 25.6288 7.10974 26.7493C7.84703 28.7274 8.95108 30.5485 10.3639 32.117C11.9153 33.7976 13.7874 35.1507 15.8698 36.0965C17.9523 37.0424 20.203 37.5619 22.4893 37.6244C24.7757 37.687 27.0514 37.2912 29.1824 36.4606C31.3135 35.63 33.2567 34.3813 34.8977 32.788C36.4564 31.2228 37.7081 29.3794 38.588 27.3532C39.061 26.2629 39.6179 24.9109 39.7387 23.6025C40.0303 23.8948 40.3481 24.1598 40.6881 24.3942C41.7985 25.1491 42.9626 23.6662 42.3957 22.6229Z" fill="#241E46"/>
<path d="M6.99035 15.9582C6.94093 15.6195 6.79407 15.3024 6.56764 15.0457C6.53074 14.9786 6.49383 14.9115 6.45358 14.8478C6.09784 14.2862 5.541 13.8818 4.89694 13.7172C4.60703 13.6394 4.30458 13.6199 4.00707 13.6597C3.70956 13.6996 3.4229 13.798 3.16366 13.9493C2.90442 14.1006 2.67774 14.3018 2.49673 14.5412C2.31572 14.7807 2.18397 15.0536 2.10909 15.3443C2.00009 15.7395 2.00009 16.1568 2.10909 16.552C2.16605 16.7906 2.26365 17.0175 2.39761 17.223C2.61702 17.5587 2.90802 17.8417 3.24973 18.0516C3.84205 18.3797 4.53932 18.4628 5.19217 18.2831C5.85115 18.0746 6.41999 17.6488 6.80583 17.0754C7.00055 16.7376 7.06611 16.3407 6.99035 15.9582Z" fill="#D16B6F"/>
<path d="M44.4097 16.2033C44.2304 15.8956 43.9835 15.6328 43.6877 15.4346C43.3918 15.2364 43.0548 15.1081 42.7021 15.0593C42.2364 14.9529 41.7512 14.9679 41.2931 15.1029C40.8859 15.2441 40.5148 15.4732 40.2061 15.7739C40.0138 15.9685 39.8624 16.1997 39.761 16.4538C39.6596 16.7079 39.6102 16.9798 39.6156 17.2534C39.6362 17.8025 39.8611 18.3242 40.2463 18.7161C40.428 18.9043 40.6346 19.0669 40.8603 19.1992C41.1068 19.3396 41.3777 19.4318 41.6587 19.4709H41.5547C41.8601 19.5318 42.1696 19.5699 42.4807 19.585C43.1018 19.57 43.6917 19.3094 44.1212 18.8603C44.4526 18.5096 44.6603 18.0601 44.7124 17.5803C44.7645 17.1006 44.6582 16.617 44.4097 16.2033Z" fill="#D16B6F"/>
<path d="M17.5809 6.12986L17.5205 6.08289L17.3931 5.99902L17.5809 6.12986Z" fill="#F4D66C"/>
<path d="M23.0024 2.67798C22.0295 0.681868 19.1577 0.946898 17.7655 2.22508C16.6416 3.26172 16.1216 5.04984 17.5206 6.07641C17.6581 6.16459 17.8016 6.24306 17.95 6.31125C18.1621 6.40661 18.3891 6.4645 18.621 6.48234L19.2617 6.51589L18.9464 6.47228L19.718 6.56621C20.758 6.63331 21.9389 6.4555 22.6602 5.62351C23.0177 5.22977 23.2429 4.73397 23.3043 4.2057C23.3656 3.67743 23.2601 3.1432 23.0024 2.67798Z" fill="#F4D66C"/>
<path d="M26.9108 3.35379C26.6923 3.13585 26.4184 2.98164 26.1187 2.90775C25.819 2.83386 25.5048 2.84309 25.21 2.93444C24.9642 3.01076 24.7414 3.14747 24.5621 3.33208C24.3828 3.51669 24.2526 3.7433 24.1834 3.9912C24.1161 4.24626 24.118 4.51461 24.1887 4.76872C24.2595 5.02282 24.3966 5.25352 24.586 5.43713C24.8437 5.6831 25.1724 5.84158 25.5253 5.89003C25.7806 5.93935 26.0443 5.92084 26.2902 5.83635C26.5315 5.7578 26.7496 5.62083 26.9252 5.43764C27.1008 5.25444 27.2284 5.0307 27.2967 4.78629C27.3645 4.53471 27.3645 4.26965 27.2968 4.01805C27.229 3.76645 27.0959 3.53726 26.9108 3.35379Z" fill="#F4D66C"/>
</g>
<defs>
<clipPath id="clip0_251_3255">
<rect width="45.9039" height="46.0549" fill="white" transform="translate(0.0961914 0.547852)"/>
</clipPath>
</defs>
</svg>
