<svg width="47" height="47" viewBox="0 0 47 47" fill="none" xmlns="http://www.w3.org/2000/svg">
<g clip-path="url(#clip0_251_3243)">
<path d="M36.3022 5.49339C18.3439 -7.16768 -1.95606 8.33827 0.150761 26.8367C2.25758 45.3352 25.8486 53.5075 38.4258 40.4002C51.003 27.293 46.6988 12.827 36.3022 5.49339Z" fill="#EAB818"/>
<path d="M45.1352 17.1016C44.8374 18.7006 44.4053 20.2718 43.8436 21.7983C41.4952 27.7229 36.2517 34.9156 30.8068 38.2637C23.2786 42.8867 13.4188 41.5313 4.69629 37.9182C12.6304 47.9826 28.7738 50.4618 38.4289 40.4007C46.0008 32.5102 47.45 24.1265 45.1352 17.1016Z" fill="#DC911D"/>
<path d="M20.2867 16.9648C20.1626 16.0086 19.5654 15.4014 18.8844 14.8143C19.5721 14.0461 20.2263 13.1772 20.0653 12.2311C20.0529 12.187 20.0289 12.1469 19.9959 12.1151C19.9629 12.0832 19.922 12.0608 19.8774 12.05C18.871 11.8688 17.9887 12.6236 17.2271 13.3718C16.3404 12.6178 15.3883 11.9442 14.3822 11.3589C14.3122 11.323 14.2325 11.3105 14.1549 11.3231C14.0772 11.3358 14.0056 11.3729 13.9506 11.4291C13.8955 11.4853 13.8598 11.5576 13.8488 11.6355C13.8377 11.7134 13.8518 11.7928 13.8891 11.8621C14.4861 12.8402 15.1663 13.7651 15.9221 14.6265C14.8586 15.5826 13.51 16.8172 13.6878 18.2295C13.6947 18.3933 13.7644 18.5481 13.8825 18.6618C14.0006 18.7755 14.1579 18.8394 14.3218 18.8401C15.6873 18.8401 16.6702 17.5418 17.5123 16.4448C18.0558 17.0419 18.6663 17.5619 19.4346 17.6491C19.8204 17.686 20.3504 17.4546 20.2867 16.9648Z" fill="#241E46"/>
<path d="M34.2893 16.9566C33.7693 16.3897 33.199 15.863 32.6119 15.3463C32.9859 14.9769 33.3137 14.5634 33.5882 14.1151C33.667 13.9656 33.7009 13.7965 33.6857 13.6281C33.6706 13.4598 33.607 13.2994 33.5027 13.1664C33.3984 13.0334 33.2579 12.9334 33.098 12.8785C32.9382 12.8236 32.7658 12.8162 32.6018 12.8571C31.9834 13.0785 31.3986 13.3845 30.864 13.7662L30.703 13.632C29.8912 12.8403 29.1195 11.6191 27.8984 11.6191C27.8283 11.6229 27.7611 11.6485 27.7063 11.6925C27.6516 11.7364 27.612 11.7964 27.5931 11.864C27.3214 13.0986 28.4486 14.1151 29.1967 15.0041C28.3278 15.6751 27.2174 16.3696 27.2778 17.5773C27.2831 17.7399 27.3414 17.8964 27.4437 18.0229C27.546 18.1494 27.6868 18.2391 27.8447 18.2784C29.0088 18.6139 29.9415 17.6645 30.7802 16.9701L30.8741 16.8929C31.5148 17.5663 32.218 18.1774 32.9742 18.7179C34.031 19.4627 35.1045 17.8356 34.2893 16.9566Z" fill="#241E46"/>
<path d="M37.5228 22.3354C37.1672 21.6645 36.258 22.0603 36.2044 22.7045C36.2278 22.4092 35.8018 25.3447 35.3556 24.6838C35.2536 24.5143 35.1094 24.3741 34.9372 24.2767C34.765 24.1794 34.5705 24.1282 34.3726 24.1282C34.1748 24.1282 33.9803 24.1794 33.8081 24.2767C33.6358 24.3741 33.4917 24.5143 33.3897 24.6838C32.8126 25.5997 32.4268 28.0151 31.3466 28.3741C30.3737 28.7096 29.3773 27.5153 28.2971 27.8172C27.5087 28.0587 27.1262 28.6626 26.8713 29.4007C25.989 31.9973 23.9626 29.6657 23.342 28.1728C23.0065 27.3576 22.0571 26.9919 21.356 27.6595C20.2656 28.6995 17.9072 30.964 16.7733 28.77C16.2298 27.7166 16.364 26.4988 15.3408 25.6902C14.4249 24.969 13.4755 25.187 12.4456 25.4453C11.2647 25.7406 11.2144 25.5091 11.315 24.3383C11.4166 23.7153 11.4075 23.0793 11.2882 22.4596C11.2597 22.3627 11.2067 22.275 11.1342 22.2048C11.0618 22.1346 10.9724 22.0843 10.8747 22.059C10.777 22.0336 10.6745 22.034 10.577 22.0601C10.4796 22.0863 10.3905 22.1372 10.3186 22.2079C9.34572 23.3922 8.72173 25.7104 9.72817 27.0724C9.96711 27.3784 10.2782 27.6204 10.6336 27.7767C10.9889 27.933 11.3775 27.9988 11.7645 27.9682C12.1366 27.9064 12.505 27.8246 12.8683 27.7233C13.7741 27.5958 13.7741 27.6662 14.133 28.3942C14.5222 29.1759 14.4685 30.0716 15.0221 30.7963C15.3276 31.1865 15.7096 31.5103 16.1445 31.7479C16.5794 31.9855 17.0582 32.132 17.5516 32.1785C19.2927 32.3999 20.7387 31.5645 21.9598 30.4541C22.6543 31.4605 23.5768 32.3428 24.8282 32.4972C26.4821 32.7018 27.2135 31.531 28.1193 30.444C29.0251 29.3571 29.4209 30.34 30.4173 30.5547C31.0293 30.6852 31.6674 30.6061 32.2289 30.33C33.6614 29.659 34.1445 28.2399 34.7719 26.9147C35.1329 27.0249 35.5142 27.0519 35.8872 26.9938C36.2602 26.9357 36.6152 26.794 36.9256 26.5793C38.4856 25.546 38.2709 23.7713 37.5228 22.3354Z" fill="#241E46"/>
<path d="M10.688 19.3527C10.9933 18.5475 10.7752 17.8464 10.2519 17.1956C9.41989 16.1556 7.65526 15.7496 6.38378 15.7966C4.9858 15.8524 3.65058 16.392 2.60626 17.323C1.68369 18.1215 1.88498 20.0069 3.05245 20.5135C4.4447 21.1039 6.32675 21.6541 7.84312 21.218C8.28177 21.0934 8.69354 20.8887 9.05757 20.6141C9.4178 20.5703 9.7595 20.43 10.0465 20.208C10.3335 19.9859 10.5552 19.6904 10.688 19.3527Z" fill="#D16B6F"/>
<path d="M42.7903 16.9243C42.557 16.7797 42.3005 16.6764 42.0321 16.619C41.4706 16.4273 40.8717 16.3709 40.2843 16.4547C39.7583 16.5124 39.2553 16.7016 38.8216 17.0049C38.5274 17.1352 38.2466 17.2936 37.9829 17.4779C36.8187 18.3065 36.8892 19.7189 38.0097 20.5341C38.4657 20.8398 38.981 21.0462 39.522 21.1398C40.0629 21.2334 40.6176 21.2122 41.1498 21.0776C41.5945 20.9829 42.015 20.7975 42.385 20.5332C42.7549 20.2688 43.0665 19.9311 43.3002 19.5411C43.4487 19.3393 43.5538 19.1089 43.6087 18.8644C43.6636 18.62 43.6672 18.3668 43.6193 18.1209C43.5714 17.8749 43.4729 17.6416 43.3303 17.4357C43.1876 17.2297 43.0037 17.0556 42.7903 16.9243Z" fill="#D16B6F"/>
<path d="M19.3804 5.07866C19.4779 4.68765 19.4166 4.27392 19.2097 3.92808C19.0028 3.58224 18.6673 3.33248 18.2767 3.23351C18.0611 3.19821 17.8413 3.19821 17.6258 3.23351H17.5621C17.4196 3.24806 17.2783 3.27272 17.1394 3.30732C16.8474 3.39963 16.5825 3.56204 16.3678 3.78034C16.1979 3.94207 16.0522 4.12736 15.935 4.33053C15.7529 4.65523 15.7071 5.0389 15.8075 5.39737C15.9277 5.74686 16.1646 6.04424 16.4785 6.23942C16.7083 6.38399 16.9653 6.47973 17.2337 6.52071C17.5021 6.56168 17.776 6.54702 18.0385 6.47762C18.3591 6.37116 18.6488 6.18811 18.8827 5.94433C19.1165 5.70055 19.2874 5.4034 19.3804 5.07866Z" fill="#F4D66C"/>
<path d="M28.2907 4.19759C27.6197 3.02005 26.2342 2.79528 24.9929 2.67115C23.8355 2.55373 22.725 2.5336 21.6381 3.00663C20.6887 3.43605 20.692 5.10004 21.6616 5.51268C22.6311 5.92532 23.5939 5.98235 24.5735 6.21383C25.7075 6.48222 26.5864 6.79757 27.717 6.31783C28.5154 5.99913 28.6631 4.85849 28.2907 4.19759Z" fill="#F4D66C"/>
<path d="M33.6656 8.49339C33.6914 8.36493 33.6833 8.23197 33.6422 8.10758C33.6858 8.42293 33.6824 8.40616 33.6422 8.0472C33.6189 7.93582 33.5769 7.82919 33.518 7.73184L33.4342 7.62784C33.3553 7.49577 33.2631 7.37212 33.1591 7.25881C33.102 7.20849 33.0416 7.16152 32.9813 7.11791C32.9718 7.11188 32.9638 7.10387 32.9578 7.09443C32.8135 6.94728 32.6333 6.84044 32.4349 6.78453C32.2366 6.72862 32.0271 6.72558 31.8272 6.77572C32.1459 6.70191 31.7702 6.77572 31.6863 6.80591C31.5578 6.84209 31.4418 6.91288 31.3508 7.01056C31.2801 7.09095 31.2377 7.19229 31.23 7.29907C31.1132 7.50322 31.053 7.73484 31.0556 7.97003C31.0466 8.16804 31.0807 8.36563 31.1554 8.54922C31.2301 8.7328 31.3437 8.89802 31.4884 9.03351C31.6575 9.20318 31.8666 9.32771 32.0963 9.3957C32.3261 9.46368 32.5692 9.47296 32.8035 9.42267C33.023 9.37042 33.2221 9.25424 33.3755 9.08883C33.529 8.92341 33.63 8.71619 33.6656 8.49339Z" fill="#F4D66C"/>
</g>
<defs>
<clipPath id="clip0_251_3243">
<rect width="46.1455" height="45.9375" fill="white" transform="translate(0 0.884766)"/>
</clipPath>
</defs>
</svg>
