<svg width="46" height="47" viewBox="0 0 46 47" fill="none" xmlns="http://www.w3.org/2000/svg">
<g clip-path="url(#clip0_251_3227)">
<path d="M15.5633 1.76335C-5.17956 9.25801 -4.08924 34.8787 12.3426 43.779C28.7745 52.6794 49.0644 37.9685 45.5117 20.084C41.9589 2.19948 27.5735 -2.57442 15.5633 1.76335Z" fill="#EAB818"/>
<path d="M45.3334 29.0631C41.8377 32.3441 37.6408 35.132 33.2561 36.5813C27.2174 38.574 19.9107 36.1116 15.0663 32.163C10.2219 28.2143 8.21913 20.9545 8.78609 14.9092C9.08467 11.7489 9.48724 7.28366 11.0539 3.8584C-4.91162 13.1982 -2.79137 35.5815 12.3422 43.7807C25.9023 51.121 42.0826 42.3884 45.3334 29.0631Z" fill="#DC911D"/>
<path d="M19.1621 5.23603C17.6491 4.42417 15.7201 4.15578 14.1299 4.87707C12.7477 5.50106 11.1978 6.99395 11.7413 8.65123C11.7844 8.79777 11.8646 8.93071 11.9741 9.03723C12.0837 9.14375 12.2188 9.22026 12.3664 9.25937C12.5141 9.29848 12.6694 9.29887 12.8172 9.26052C12.9651 9.22216 13.1006 9.14635 13.2107 9.04039C14.0494 8.33923 14.5056 7.26569 15.7536 7.22208C17.0553 7.17176 17.8571 8.22852 19.1789 7.47034C19.3712 7.35336 19.5299 7.18851 19.6395 6.99187C19.7491 6.79523 19.8058 6.57353 19.8041 6.34843C19.8024 6.12332 19.7424 5.9025 19.6299 5.70753C19.5173 5.51256 19.3562 5.3501 19.1621 5.23603Z" fill="#241E46"/>
<path d="M29.3415 6.39671C28.9758 7.25554 29.5796 8.27876 30.5894 8.0305C31.4382 7.8225 32.0622 7.32599 32.9948 7.42328C33.9275 7.52057 34.4609 8.25527 35.3432 8.50018C36.3027 8.77527 36.9737 7.8896 36.8361 7.01735C36.3698 4.12885 30.4217 3.84369 29.3415 6.39671Z" fill="#241E46"/>
<path d="M36.8189 22.2343C34.6215 20.2381 31.4848 20.9091 29.0089 21.8988C27.5865 22.4859 26.1875 23.0763 24.6678 23.3447C23.3908 23.5718 22.087 23.6068 20.7997 23.4487C19.1223 23.0461 17.4784 22.1235 15.7675 21.7344C14.3819 21.3989 12.8957 21.3989 11.6444 22.1739C10.6284 22.8206 9.90593 23.8393 9.63151 25.012C9.02765 27.3872 9.84958 29.9403 11.1177 31.9565C12.5193 34.1594 14.5149 35.9213 16.8746 37.039C21.9068 39.4344 28.2809 38.9245 33.0515 36.0896C35.4401 34.6705 37.3792 32.547 38.2414 29.8732C39.0331 27.3906 38.8553 24.0828 36.8189 22.2343Z" fill="#8F1722"/>
<path d="M33.0484 36.0718C34.7417 35.0857 36.1713 33.7044 37.2151 32.046C35.793 30.6375 33.9297 29.761 31.9379 29.5634C30.5735 29.4257 29.1953 29.5638 27.8853 29.9694C27.1875 30.1774 26.5434 30.5196 25.8456 30.7309C25.1478 30.9423 24.6077 30.7108 23.9635 30.4625C21.8709 29.6868 19.619 29.4398 17.4079 29.7435C15.1969 30.0473 13.095 30.8923 11.2891 32.2037C12.6814 34.2835 14.6103 35.9481 16.8715 37.0212C21.9138 39.4165 28.2778 38.9066 33.0484 36.0718Z" fill="#D16B6F"/>
<path d="M16.921 11.399C14.3411 11.0434 11.8418 13.8279 11.7647 16.2736C11.7345 17.2565 13.1066 17.5853 13.5729 16.7667C14.1969 15.7033 15.002 13.4421 16.6191 13.7742C18.2965 14.1097 17.8771 16.4313 18.8936 17.4343C19.0389 17.579 19.2355 17.6602 19.4405 17.6602C19.6454 17.6602 19.8421 17.579 19.9873 17.4343C21.658 15.3007 19.3499 11.7345 16.921 11.399Z" fill="#241E46"/>
<path d="M37.359 14.0492C37.0734 13.4235 36.6507 12.8701 36.1222 12.4299C35.5938 11.9897 34.9731 11.674 34.3061 11.5062C31.6222 10.9325 29.0994 13.4185 28.67 15.9245C28.4821 17.0383 29.8844 17.7294 30.5286 16.7028C31.3102 15.4615 32.424 12.9823 34.3329 14.133C35.8325 15.0355 35.2689 17.2027 36.6176 18.2326C36.9832 18.5144 37.4932 18.2561 37.7213 17.9374C38.5097 16.8236 37.9092 15.173 37.359 14.0492Z" fill="#241E46"/>
<path d="M9.05811 16.5647C8.25411 16.1057 7.30692 15.9656 6.40445 16.1722H6.38096C6.02735 16.1711 5.67805 16.2499 5.35914 16.4027C5.04022 16.5555 4.75993 16.7783 4.53917 17.0545C3.9655 17.806 4.0024 18.6514 4.37479 19.4834C5.16988 21.2682 7.53167 21.7882 9.16881 20.9059C9.33012 20.8143 9.48382 20.71 9.62842 20.5939C9.85655 20.4161 9.86997 20.4094 9.66197 20.5737C9.80287 20.4731 9.94042 20.3658 10.0713 20.2383C10.2772 20.0577 10.4455 19.8381 10.5664 19.5923C10.6873 19.3465 10.7585 19.0792 10.7758 18.8058C10.816 17.7322 9.96055 17.0143 9.05811 16.5647Z" fill="#D16B6F"/>
<path d="M43.5551 17.7081C42.7483 17.2538 41.8019 17.114 40.8981 17.3156H40.8746C40.5207 17.3125 40.1707 17.3904 39.8515 17.5434C39.5323 17.6963 39.2522 17.9202 39.0328 18.1979C38.4592 18.946 38.4961 19.7948 38.8684 20.6268C39.6635 22.4082 42.0287 22.9282 43.6625 22.0492C43.823 21.9565 43.9767 21.8523 44.1221 21.7372C44.3502 21.5561 44.3636 21.5494 44.159 21.7138C44.2996 21.6144 44.435 21.508 44.5649 21.395C44.7743 21.2167 44.9462 20.9985 45.0706 20.7532C45.195 20.5078 45.2694 20.2402 45.2896 19.9659C45.2896 18.8689 44.4475 18.1509 43.5551 17.7081Z" fill="#D16B6F"/>
<path d="M35.7588 21.5123C33.6855 20.4555 31.109 21.0628 29.0089 21.9082C27.5865 22.4852 26.1875 23.0757 24.6678 23.344C23.3908 23.5711 22.087 23.6062 20.7997 23.448C19.1223 23.0455 17.4784 22.1229 15.7675 21.7337C15.0203 21.5458 14.2465 21.4868 13.4795 21.5593C13.6741 23.344 14.2511 25.206 15.9453 25.9709C18.4077 27.0779 21.4606 27.4235 24.131 27.447C26.8767 27.4884 29.6088 27.0537 32.2061 26.1621C33.8298 25.5817 34.6349 24.6289 35.1986 23.0153C35.3797 22.5255 35.5777 22.0222 35.7588 21.5123Z" fill="white"/>
<path d="M24.5368 2.35134C23.9363 1.89508 22.9835 2.01586 22.3461 2.37147C21.5812 2.80088 21.1149 4.00526 22.0106 4.55881C22.2667 4.70804 22.5679 4.76042 22.8594 4.70642C22.7721 4.70642 23.3358 4.62926 23.4062 4.60913C23.4767 4.589 23.5572 4.56552 23.6343 4.54874H23.7048C23.9977 4.5188 24.28 4.42242 24.5301 4.26694C24.6983 4.17141 24.8385 4.0335 24.9368 3.86692C25.0351 3.70035 25.088 3.51093 25.0903 3.31752C25.0858 3.12312 25.0328 2.93291 24.9362 2.76418C24.8395 2.59546 24.7022 2.45354 24.5368 2.35134Z" fill="#F4D66C"/>
<path d="M27.5627 4.56122C27.458 4.47901 27.3356 4.42227 27.2052 4.39549C27.0748 4.3687 26.9399 4.37261 26.8112 4.4069H26.7811C26.6901 4.41888 26.601 4.44256 26.516 4.47735C26.4389 4.50754 26.3718 4.5478 26.3013 4.58135C26.1818 4.62337 26.0689 4.6821 25.9658 4.7558C26.0262 4.70883 25.8216 4.8598 25.8283 4.87657H25.8115C25.723 4.94738 25.6503 5.03594 25.5981 5.13655C25.5459 5.23716 25.5153 5.34758 25.5084 5.46072C25.5014 5.57386 25.5182 5.68719 25.5577 5.79344C25.5972 5.89968 25.6585 5.99648 25.7377 6.07759C25.9028 6.26054 26.1216 6.38639 26.3628 6.43703C26.6039 6.48767 26.8549 6.46049 27.0796 6.3594C27.3069 6.28333 27.5096 6.14779 27.6667 5.96688C27.8141 5.75406 27.899 5.50419 27.9116 5.2456C27.9136 5.11173 27.8829 4.97941 27.8221 4.86014C27.7612 4.74087 27.6722 4.63825 27.5627 4.56122Z" fill="#F4D66C"/>
</g>
<defs>
<clipPath id="clip0_251_3227">
<rect width="45.9207" height="46.1891" fill="white" transform="translate(0 0.263672)"/>
</clipPath>
</defs>
</svg>
