<svg width="47" height="47" viewBox="0 0 47 47" fill="none" xmlns="http://www.w3.org/2000/svg">
<g clip-path="url(#clip0_251_3267)">
<path d="M46.469 20.9298C43.7851 -1.13146 18.3758 -5.83491 5.92941 8.29557C-6.51695 22.426 3.36298 45.6682 21.7272 46.2251C40.0915 46.782 48.0189 33.7049 46.469 20.9298Z" fill="#EAB818"/>
<path d="M37.9909 37.552C30.3754 39.9708 20.1432 38.3672 14.0543 32.9257C9.26694 28.6517 4.7413 21.1402 5.63032 14.5916C5.87522 12.78 6.30129 9.68355 7.15005 7.00977C6.73182 7.41905 6.32477 7.84735 5.9289 8.29466C-6.5141 22.4285 3.36247 45.6673 21.7267 46.2041C32.9553 46.5395 40.2788 41.7891 43.9255 35.1332C41.9986 36.06 40.0167 36.8678 37.9909 37.552Z" fill="#DC911D"/>
<path d="M17.97 8.15451C16.9636 7.06755 14.7595 7.74187 13.6088 8.30212C12.3608 8.92276 10.8411 10.2379 11.1832 11.7945C11.2437 12.0121 11.3874 12.1972 11.5834 12.3095C11.7793 12.4219 12.0116 12.4526 12.2299 12.395C13.6188 11.8918 14.3166 10.5029 15.9202 10.3452C16.6382 10.2748 17.3427 10.476 17.9331 9.92921C18.0558 9.81735 18.1545 9.6817 18.2231 9.53052C18.2918 9.37934 18.3289 9.21578 18.3324 9.04978C18.3358 8.88378 18.3055 8.71882 18.2432 8.56491C18.1809 8.41101 18.088 8.27138 17.97 8.15451Z" fill="#241E46"/>
<path d="M33.2074 9.47189C32.3989 8.02596 30.4464 7.39861 28.8763 7.34494C28.0779 7.31474 27.1989 7.40868 26.5279 7.90184C25.9677 8.31448 25.6758 9.11963 26.2126 9.71679C26.8835 10.4951 28.0141 10.0288 28.8964 10.1227C29.9029 10.2301 30.5202 10.8608 31.3824 11.2969C32.5364 11.884 33.8783 10.6628 33.2074 9.47189Z" fill="#241E46"/>
<path d="M32.9225 19.4684C33.0792 18.1493 33.0043 16.813 32.7011 15.5197C32.3958 14.2516 31.4028 13.319 30.0508 13.366C29.423 13.3848 28.8235 13.6315 28.3642 14.0599C27.905 14.4883 27.6173 15.0692 27.5548 15.6942C27.4777 16.9623 27.32 18.3244 27.6622 19.5657C27.6622 19.5925 27.6622 19.6193 27.6622 19.6462C27.7606 20.2872 28.0908 20.8699 28.59 21.2839C29.0893 21.6979 29.7231 21.9145 30.3713 21.8926C31.0195 21.8707 31.6372 21.6118 32.1074 21.165C32.5775 20.7183 32.8676 20.1146 32.9225 19.4684Z" fill="#241E46"/>
<path d="M18.2848 20.1939C18.4441 18.8751 18.3703 17.5386 18.0667 16.2453C17.758 14.9772 16.765 14.0446 15.413 14.0915C14.7849 14.1103 14.185 14.3569 13.7251 14.7852C13.2653 15.2136 12.9769 15.7945 12.9137 16.4198C12.8365 17.6879 12.6789 19.05 13.0244 20.2912C13.0244 20.3181 13.0244 20.3449 13.0244 20.3718C13.134 21.0019 13.4678 21.5711 13.9642 21.9744C14.4606 22.3777 15.086 22.5879 15.7253 22.5663C16.3645 22.5446 16.9743 22.2925 17.4422 21.8565C17.9101 21.4205 18.2046 20.83 18.2713 20.1939H18.2848Z" fill="#241E46"/>
<path d="M33.9013 30.4948C33.4685 28.5826 31.2174 27.254 29.54 26.469C27.6819 25.5724 25.6378 25.1286 23.5752 25.1741C20.0493 25.2747 15.0405 27.2775 13.5879 30.7934C13.1484 31.8602 14.2589 32.7593 15.1814 32.0246C16.4864 30.9947 17.4392 29.7534 18.9589 28.9482C20.4665 28.1228 22.1567 27.688 23.8754 27.6833C25.5941 27.6786 27.2866 28.1042 28.7986 28.9214C30.2378 29.6997 31.2443 31.0517 32.7506 31.6556C33.4551 31.9407 34.0422 31.1289 33.9013 30.4948Z" fill="#241E46"/>
<path d="M18.1244 15.1153V15.1354C18.1201 15.0339 18.1021 14.9334 18.0707 14.8368C18.0289 14.7213 17.9664 14.6144 17.8862 14.5215C17.8526 14.4845 17.8224 14.4476 17.7889 14.4141C17.7553 14.3805 17.6647 14.3235 17.6044 14.2833L17.5406 14.2497C17.4726 14.2216 17.4031 14.197 17.3326 14.1759H17.2622C17.1863 14.1692 17.1099 14.1692 17.034 14.1759H16.9871H16.92C16.7387 14.1858 16.563 14.2425 16.41 14.3403C16.3358 14.3897 16.2672 14.4471 16.2054 14.5114C16.1618 14.5785 16.1148 14.6422 16.0712 14.706C16.0462 14.753 16.026 14.8025 16.0108 14.8536C15.989 14.9032 15.9722 14.9549 15.9605 15.0079C15.9605 15.075 15.9404 15.1958 15.937 15.2662V15.2897C15.9402 15.3887 15.9607 15.4863 15.9974 15.5782C16.0276 15.6453 16.0712 15.7392 16.1048 15.803C16.1048 15.803 16.1048 15.803 16.1048 15.8198C16.1555 15.895 16.214 15.9647 16.2792 16.0278C16.3551 16.101 16.4409 16.1631 16.5342 16.2123C16.5488 16.2221 16.5645 16.23 16.5811 16.2358C16.6598 16.2698 16.7404 16.2989 16.8227 16.323C16.9262 16.3454 17.0322 16.3544 17.138 16.3498C17.4041 16.3254 17.6505 16.1992 17.8258 15.9976C17.9259 15.8816 18.0022 15.7471 18.0505 15.6017C18.0766 15.5417 18.0946 15.4785 18.1042 15.4138C18.1258 15.3159 18.1326 15.2152 18.1244 15.1153Z" fill="white"/>
<path d="M32.8348 14.3869C32.8306 14.2865 32.8125 14.1872 32.7811 14.0917C32.7405 13.9757 32.6779 13.8686 32.5966 13.7763C32.5678 13.7375 32.5352 13.7015 32.4993 13.669C32.4414 13.6205 32.3797 13.5768 32.3148 13.5381L32.2511 13.5046C32.1836 13.475 32.1141 13.4504 32.0431 13.4308H31.9726C31.8967 13.4241 31.8204 13.4241 31.7445 13.4308H31.6975H31.6271C31.4458 13.4435 31.2705 13.5011 31.1171 13.5985C31.043 13.6468 30.9744 13.7031 30.9125 13.7663L30.7783 13.9608C30.7541 14.0083 30.734 14.0577 30.7179 14.1085C30.6976 14.1575 30.6808 14.208 30.6676 14.2594C30.6559 14.3451 30.6492 14.4313 30.6475 14.5177V14.5446C30.6479 14.6424 30.6673 14.7393 30.7045 14.8297C30.7374 14.9066 30.7743 14.9816 30.8152 15.0545V15.0713C30.867 15.1468 30.9253 15.2175 30.9897 15.2826C31.0655 15.3558 31.1514 15.418 31.2446 15.4672L31.2916 15.4906C31.3697 15.5251 31.4505 15.5531 31.5331 15.5745C31.6364 15.5986 31.7426 15.6076 31.8485 15.6014C31.9844 15.593 32.1172 15.5572 32.2389 15.4961C32.3605 15.435 32.4686 15.3498 32.5564 15.2457C32.6565 15.1298 32.7328 14.9953 32.7811 14.8499C32.8071 14.791 32.8252 14.729 32.8348 14.6654C32.8491 14.5731 32.8491 14.4792 32.8348 14.3869Z" fill="white"/>
<path d="M11.4178 23.4132C10.6954 22.8474 9.80909 22.5308 8.89165 22.5107C8.77087 22.5107 8.65346 22.5107 8.55617 22.5107C7.6772 22.5309 6.66405 23.1213 5.9696 23.6346C5.04703 24.3056 4.49349 25.5167 5.15774 26.5936C5.71799 27.5027 6.79153 27.6 7.74766 27.4893C9.29422 27.3115 11.0622 26.7814 11.7063 25.2013C11.9177 24.631 11.9747 23.8091 11.4178 23.4132Z" fill="#D16B6F"/>
<path d="M40.9738 21.7687C40.1748 21.1082 39.1844 20.7223 38.149 20.6684C37.2231 20.6281 36.0322 20.9502 35.6061 21.8526C35.5306 22.003 35.4912 22.169 35.4912 22.3374C35.4912 22.5057 35.5306 22.6717 35.6061 22.8221C35.5658 23.8554 36.4918 24.7881 37.5921 24.9156C38.6894 25.014 39.7885 24.7475 40.7188 24.1574C41.4971 23.7078 41.7186 22.3625 40.9738 21.7687Z" fill="#D16B6F"/>
<path d="M41.2455 11.7098C41.3394 10.5188 40.1551 9.3413 39.3299 8.6066C38.7293 8.07318 37.0352 7.08687 36.646 8.39524C36.4112 9.21382 37.015 10.0727 37.3841 10.7604C37.8437 11.6024 38.159 12.5753 39.0615 13.0618C40.1317 13.6522 41.1582 12.7934 41.2455 11.7098Z" fill="#F4D66C"/>
<path d="M41.2652 14.1924C41.2115 14.1924 41.1612 14.1924 41.1075 14.1924C41.0518 14.1952 40.9974 14.2106 40.9484 14.2375C40.8995 14.2643 40.8573 14.302 40.825 14.3475C40.7927 14.393 40.7711 14.4453 40.762 14.5004C40.7528 14.5555 40.7562 14.6119 40.772 14.6655C40.7233 14.7624 40.6969 14.869 40.6949 14.9774V15.0211C40.688 15.0442 40.6824 15.0677 40.6781 15.0915C40.6443 15.2389 40.6285 15.3899 40.6311 15.5411C40.6479 15.6417 40.6613 15.739 40.6781 15.8396C40.6781 15.8732 40.6781 15.9034 40.6781 15.9101C40.7011 16.2134 40.7966 16.5068 40.9566 16.7656C41.4329 17.5808 42.53 17.4365 42.9929 16.7152C43.7176 15.5981 42.5803 13.7295 41.2652 14.1924Z" fill="#F4D66C"/>
</g>
<defs>
<clipPath id="clip0_251_3267">
<rect width="46.2797" height="45.9643" fill="white" transform="translate(0.380371 0.263672)"/>
</clipPath>
</defs>
</svg>
