<svg xmlns="http://www.w3.org/2000/svg" xmlns:xlink="http://www.w3.org/1999/xlink" viewBox="0 0 2377.85 1839.81"><defs><style>.cls-1,.cls-34,.cls-35{fill:none;}.cls-2{isolation:isolate;}.cls-3{fill:#d9f0ff;}.cls-4{fill:#76a7ff;}.cls-5{fill:#428efc;}.cls-6{fill:#c2e1ff;}.cls-7{fill:#9dc9fc;}.cls-8{fill:#fff;}.cls-9{fill:#e6f5ff;}.cls-10{fill:#94caff;}.cls-11{fill:#7bb1ff;}.cls-12{fill:#2e35af;}.cls-13{fill:#a4d4ff;}.cls-14{fill:#202263;}.cls-15{fill:#92cbff;}.cls-16{fill:#b6dcff;}.cls-17{fill:#4171f9;}.cls-18{fill:#246bfd;}.cls-19{clip-path:url(#clip-path);}.cls-20{fill:#fb3f68;}.cls-21{fill:#feb2a3;}.cls-22{fill:#fdc943;}.cls-23{fill:#e5f1fe;}.cls-24{clip-path:url(#clip-path-2);}.cls-25{clip-path:url(#clip-path-3);}.cls-26{fill:#151842;}.cls-27,.cls-29{fill:#d398aa;}.cls-27,.cls-28{mix-blend-mode:multiply;opacity:0.45;}.cls-30{fill:#171b51;}.cls-31{fill:#fca60d;}.cls-32{fill:#7c4032;}.cls-33{fill:#bdd9f4;}.cls-34,.cls-35{stroke:#76a7ff;}.cls-34{stroke-miterlimit:10;}.cls-35{stroke-linecap:round;stroke-linejoin:round;}</style><clipPath id="clip-path"><circle class="cls-1" cx="1119" cy="509.35" r="99.34" transform="translate(-32.42 940.44) rotate(-45)"/></clipPath><clipPath id="clip-path-2"><circle class="cls-1" cx="906.83" cy="821.59" r="99.34" transform="translate(-102.25 1513.76) rotate(-76.62)"/></clipPath><clipPath id="clip-path-3"><circle class="cls-1" cx="1119" cy="1133.82" r="99.34"/></clipPath></defs><g class="cls-2"><g id="Layer_1" data-name="Layer 1"><path class="cls-3" d="M2342.3,1263.65c-26.14-49.68-63.89-95-100.74-135.88-69.34-76.92-136.7-163.07-164.64-264.48-48.25-175,16.15-451.25-209.19-519.66-117.64-35.71-201.22-126.83-270.25-214.29C1505.09,12.28,1331.75-32.57,1194.18,25c-103.65,43.35-180,134.81-235.24,232.64-28.58,50.62-53.62,105-96.64,144.14-61.25,55.65-194.56,103-256.95,157.42-204.54,178.31-13.13,386.63-205.08,497.08C6.38,1282.87-72.46,1517.82,58.32,1587.06c63,33.35,273.48,17.68,342.18,35.86,67.29,17.81,171,22.23,221.16,73.69,36.71,37.7,26.44,134.48,201.13,142.08,203.24,8.84,228.09-36.18,416.88-85.59,157.92-41.33,284.7-15.32,463.51-15.32,238.42,0,264.77-60.61,356.71-110.27,74.88-40.44,168.38-43.59,242.5-88.33C2400.79,1479.79,2390.4,1355.08,2342.3,1263.65Z"/><path class="cls-4" d="M569.58,1325.37c52.13-373.31-103.39-616.55-134.13-742.82-7.67-31.49-14.63-64.16-9.85-96.29s23.85-63.85,53.08-73.16c29.76-9.47,61.59,6,86.32,26,69.45,56.26,106.88,148.46,118.65,240.63,28.26,221.42,33.52,479.69-67.82,677.65"/><path class="cls-5" d="M511.68,514.9A1405.51,1405.51,0,0,1,576,671a1205.34,1205.34,0,0,1,42.44,158.36,1108.71,1108.71,0,0,1,19.55,164.55,1100.74,1100.74,0,0,1-5.63,167.17,1200.31,1200.31,0,0,1-32.5,173.83q-2.85,10.86-5.86,21.67a.17.17,0,0,0,.32.09,1180.53,1180.53,0,0,0,36.11-173.88,1107,1107,0,0,0,8.87-169.25A1102,1102,0,0,0,622.92,850.4a1189.51,1189.51,0,0,0-40.25-160.92A1373.07,1373.07,0,0,0,521,533.59q-4.42-9.5-9-18.91c-.13-.27-.52,0-.39.22Z"/><path class="cls-6" d="M559.85,1328.47c-44-279.54-189.67-423.66-241.47-506.63-12.91-20.69-25.55-42.4-29.12-66.53s3.88-51.39,24.09-65c20.58-13.9,48.34-10.44,71.71-2C450.68,711.87,499.93,768.87,529.59,832c71.25,151.63,105.18,337,72.28,502.83"/><path class="cls-7" d="M361.34,755.23a792.9,792.9,0,0,1,81.28,96.28,714,714,0,0,1,61.19,103.18,736,736,0,0,1,43.13,111.93,856.62,856.62,0,0,1,26,120.56,1124,1124,0,0,1,10.73,132.15q.22,8.45.36,16.89a.17.17,0,0,0,.33,0,1100.59,1100.59,0,0,0-8.65-133.58,881,881,0,0,0-24.22-122.27,743.88,743.88,0,0,0-41-112.76,710.84,710.84,0,0,0-59.43-104.82A776.52,776.52,0,0,0,373,766.6q-5.61-5.9-11.33-11.69a.23.23,0,0,0-.32.32Z"/><path class="cls-6" d="M734.66,1290c40-281,205.78-428.31,263.37-512.48,14.36-21,28.36-43,31.53-67.24s-6.76-51.43-31.21-64.71c-24.89-13.53-57.51-9.53-84.74-.64-76.44,25-132.14,83.06-164.46,146.9-77.62,153.36-109.74,339.76-63.81,505.35"/><path class="cls-7" d="M944.13,711.32A810.44,810.44,0,0,0,852,809.68,677.37,677.37,0,0,0,784.31,913.9,654.4,654.4,0,0,0,738.09,1027a736.9,736.9,0,0,0-25.66,121.36,926.48,926.48,0,0,0-6.86,133.1c.1,5.61.27,11.21.46,16.82a.17.17,0,0,0,.33,0c-1.1-44.42,0-88.9,4.77-133.1a754.1,754.1,0,0,1,23.39-123.66,659.16,659.16,0,0,1,43.57-114A668.74,668.74,0,0,1,843.17,822,785.7,785.7,0,0,1,932,723.18q6.16-5.83,12.44-11.54c.22-.2-.11-.52-.32-.32Z"/><path class="cls-8" d="M421.17,1177.58s-16.68,399.18,154.11,452h191.6c170.79-52.84,154.11-452,154.11-452Z"/><path class="cls-9" d="M428.05,1338.79H914.1a1210.35,1210.35,0,0,0,7.29-142.09H420.77A1209.81,1209.81,0,0,0,428.05,1338.79Z"/><polygon class="cls-8" points="933.25 1317.13 406.7 1317.13 400.27 1175.04 939.67 1175.04 933.25 1317.13"/><path class="cls-4" d="M1663.44,1426.9c-44.66-372.66-213.38-570.32-272.53-682.68-14.74-28-29.14-57.37-32.72-89.53s6-68,30.26-85.15c24.75-17.51,57.54-11.68,85,.53,77.09,34.29,153.2,105.66,186.65,190.7,80.36,204.27,96.33,458,52.93,676.44"/><path class="cls-5" d="M1443.59,657.79a893.17,893.17,0,0,1,91,131.45,945.43,945.43,0,0,1,64.77,140.85c18,49,32.19,99.27,43.7,150.14,12,53.26,21.12,107.17,28.41,161.28,7.82,58,13.59,116.29,18.59,174.6q.95,11.09,1.9,22.16c0,.21.34.21.32,0-4.51-59.07-10.09-118.1-17.55-176.88-6.92-54.56-15.51-109-27-162.75-11-51.59-24.64-102.66-42-152.49a966.1,966.1,0,0,0-61.77-141,889.2,889.2,0,0,0-87-131.63q-6.43-8.07-13.06-16c-.18-.23-.5.1-.32.32Z"/><path class="cls-4" d="M1799.36,1450.82c-44.54-305.41,81.59-505.35,106.14-608.89,6.12-25.82,11.66-52.61,7.59-78.89s-19.85-52.17-43.83-59.64c-24.41-7.6-50.4,5.23-70.55,21.75-56.59,46.42-86.78,122.1-96,197.63-22,181.43-26.43,373.67,30.19,559.7"/><path class="cls-5" d="M1842.39,786.71a1152.92,1152.92,0,0,0-51.62,127.16,987.38,987.38,0,0,0-34.52,131.67,897.47,897.47,0,0,0-9.63,271.47,960.49,960.49,0,0,0,27.59,141.78c1.62,5.94,3.32,11.86,5,17.77.06.2.38.11.32-.09a1024.11,1024.11,0,0,1-30-141.69,897.79,897.79,0,0,1,4.49-273.34,974.49,974.49,0,0,1,31.7-130.35,1123.53,1123.53,0,0,1,49.78-128.53q3.59-7.84,7.28-15.62c.13-.26-.26-.49-.39-.23Z"/><path class="cls-4" d="M1778.45,1478.26c83.3-187.17,225-254.65,275.45-304,12.59-12.32,25.2-25.39,32.23-41.58s7.36-36.31-3.45-49c-11-12.92-30.13-14.94-47.3-12.81-48.21,6-92,37.75-123.91,76.88-76.7,94-147.32,200.31-181.51,324.78"/><path class="cls-5" d="M2038,1120.79a765.69,765.69,0,0,0-74.36,53.29,655.1,655.1,0,0,0-65.83,61.46,596,596,0,0,0-101.63,148.9,632.44,632.44,0,0,0-34.76,89.34c-1.2,3.91-2.33,7.84-3.44,11.78a.16.16,0,0,0,.31.09,687.72,687.72,0,0,1,33.79-90.92,595.57,595.57,0,0,1,99.08-151,646,646,0,0,1,64.28-62.15,745.52,745.52,0,0,1,73.16-54.2q4.8-3.12,9.63-6.19a.23.23,0,0,0-.23-.39Z"/><path class="cls-10" d="M1778.85,1447.73c34.05-194.53,137.43-293.34,174.57-350.62,9.26-14.28,18.35-29.28,21.12-46.07s-2.08-35.91-16-45.67c-14.2-10-33.61-7.87-50-2.28-46.07,15.7-81.12,54.88-102.57,98.57-51.54,104.95-77.44,233.86-56.47,350"/><path class="cls-11" d="M1924,1049.85a553.5,553.5,0,0,0-57.72,65.88,498.37,498.37,0,0,0-44.26,71.58,512.16,512.16,0,0,0-31.47,77.55,599.2,599.2,0,0,0-19.79,84.56,753.37,753.37,0,0,0-8.84,91.45c-.15,4-.25,8-.33,12,0,.21.32.21.33,0a856.54,856.54,0,0,1,7.89-92.86,615.42,615.42,0,0,1,18.28-84.83,519.92,519.92,0,0,1,30-78.48,496.71,496.71,0,0,1,42.27-71.85,539.28,539.28,0,0,1,56-66.72q3.93-4,7.94-7.93a.23.23,0,0,0-.32-.32Z"/><path class="cls-8" d="M1857.78,1398.72s8.52,203.89-78.71,230.88h-97.86c-87.24-27-78.72-230.88-78.72-230.88Z"/><rect class="cls-12" x="879.95" y="248.44" width="786.08" height="1381.16" rx="14.21"/><rect class="cls-13" x="934.13" y="343.63" width="677.73" height="1190.77"/><path class="cls-14" d="M1339.66,304.67H1206.32a6.43,6.43,0,0,1,0-12.85h133.34a6.43,6.43,0,0,1,0,12.85Z"/><circle class="cls-14" cx="1272.99" cy="1584.8" r="27.19"/><path class="cls-15" d="M1066.72,1284.1h545.14a0,0,0,0,1,0,0V1534.4a0,0,0,0,1,0,0H1048.25a0,0,0,0,1,0,0V1302.57A18.47,18.47,0,0,1,1066.72,1284.1Z"/><path class="cls-16" d="M1080.86,1299.69h531a0,0,0,0,1,0,0V1534.4a0,0,0,0,1,0,0H1065a0,0,0,0,1,0,0V1315.52A15.84,15.84,0,0,1,1080.86,1299.69Z"/><rect class="cls-13" x="1143.98" y="1354.81" width="467.87" height="43.8"/><rect class="cls-13" x="1143.98" y="1414.82" width="467.87" height="43.8"/><rect class="cls-13" x="1143.98" y="1474.83" width="467.87" height="43.8"/><path class="cls-15" d="M952.2,343.63h546.11a0,0,0,0,1,0,0V734.12a0,0,0,0,1,0,0H934.13a0,0,0,0,1,0,0V361.7A18.07,18.07,0,0,1,952.2,343.63Z" transform="translate(2432.44 1077.75) rotate(180)"/><path class="cls-16" d="M950,343.63h531a0,0,0,0,1,0,0V719.8a0,0,0,0,1,0,0H934.13a0,0,0,0,1,0,0V359.47A15.84,15.84,0,0,1,950,343.63Z" transform="translate(2415.09 1063.43) rotate(180)"/><rect class="cls-13" x="934.13" y="620.88" width="467.87" height="43.8" transform="translate(2336.13 1285.56) rotate(180)"/><rect class="cls-13" x="934.13" y="560.87" width="467.87" height="43.8" transform="translate(2336.13 1165.54) rotate(180)"/><rect class="cls-13" x="934.13" y="500.86" width="467.87" height="43.8" transform="translate(2336.13 1045.52) rotate(180)"/><rect class="cls-13" x="934.13" y="440.85" width="467.87" height="43.8" transform="translate(2336.13 925.51) rotate(180)"/><rect class="cls-13" x="934.13" y="380.84" width="467.87" height="43.8" transform="translate(2336.13 805.49) rotate(180)"/><rect class="cls-17" x="501.19" y="1629.47" width="1539.89" height="6.43"/><rect class="cls-17" x="468.75" y="1629.47" width="25.98" height="6.43"/><circle class="cls-8" cx="1119" cy="509.35" r="111.52" transform="translate(-32.42 940.44) rotate(-45)"/><circle class="cls-18" cx="1119" cy="509.35" r="99.34" transform="translate(-32.42 940.44) rotate(-45)"/><g class="cls-19"><path class="cls-14" d="M1055.59,545.2c20.27-23.2,50.49-22.7,50.49-22.7l29.84-.5s26.57,3.5,42.54,16.58c47.82,39.16,53.79,101.36,53.79,101.36s-207.83-35.39-208.1-36.75S1042.05,560.69,1055.59,545.2Z"/><path class="cls-20" d="M1101.39,457.2a37.49,37.49,0,0,0-7.87,14.31,26.82,26.82,0,0,0,6.72,25,13.65,13.65,0,0,0,2.73,2.23,14.63,14.63,0,0,0,4.85,1.63,58.16,58.16,0,0,0,13,.5c14.34-.66,25.59-9.47,26-24.41.13-4.64-.15-9.64-3-13.33-3-3.89-8.25-5.55-11.06-9.56"/><path class="cls-21" d="M1139.35,465.37c6,24.35-4.93,42.53-14.33,43.95-13.46,2-21-4.6-24.94-16.59-1.75-5.3-4.34-25.37,1.25-31.26C1110.62,451.69,1134.21,444.63,1139.35,465.37Z"/><path class="cls-21" d="M1107.63,498l-1.36,22.39s-3.14,10.16,15.27,10.16,14-10.16,14-10.16l-3-24.81"/><path class="cls-20" d="M1151.25,457.91c-1.15-3-4.2-5.27-7.14-4.65-1,.23-2.31.71-3.06-.13a3.15,3.15,0,0,1-.54-1.79c-.67-6.52-4.44-12.87-10.09-15-6.63-2.57-13.31,4.55-20.57,2.12-4.48-1.49-9.9-2.79-13.4.63-2.17,2.12-3.1,5.72-5.73,7.09a11,11,0,0,1-3.67.86c-5.76.83-11.75,5.08-12.32,11.41-.37,4.07,1.62,8.05,4.35,10.83,4.12,4.2,9.78,6.13,15.35,7,4.75.74,9.85.72,14-1.9,2.23-1.41,4-3.48,6.06-5.24,4.77-4.18,12.09-6.4,16.8-2.14,1.83,1.66,3,4.09,4.93,5.62,4.6,3.67,11.62.36,14.27-5.15A12.43,12.43,0,0,0,1151.25,457.91Z"/></g><path class="cls-8" d="M1863.57,608.69H1238l54.54-46.14V414.19A29.2,29.2,0,0,1,1321.7,385h541.87a29.21,29.21,0,0,1,29.2,29.21v165.3A29.2,29.2,0,0,1,1863.57,608.69Z"/><path class="cls-22" d="M1359.22,413.78l5.39,14.1,15.08.78a3.28,3.28,0,0,1,1.9,5.83L1369.85,444l3.92,14.58a3.29,3.29,0,0,1-5,3.61l-12.65-8.23-12.66,8.23a3.29,3.29,0,0,1-5-3.61l3.92-14.58-11.74-9.49a3.28,3.28,0,0,1,1.89-5.83l15.08-.78,5.4-14.1A3.29,3.29,0,0,1,1359.22,413.78Z"/><path class="cls-22" d="M1452.64,413.78l5.4,14.1,15.08.78a3.28,3.28,0,0,1,1.89,5.83L1463.27,444l3.92,14.58a3.29,3.29,0,0,1-5,3.61l-12.66-8.23-12.65,8.23a3.29,3.29,0,0,1-5-3.61l3.92-14.58-11.74-9.49a3.28,3.28,0,0,1,1.9-5.83l15.08-.78,5.39-14.1A3.29,3.29,0,0,1,1452.64,413.78Z"/><path class="cls-22" d="M1546.06,413.78l5.4,14.1,15.08.78a3.28,3.28,0,0,1,1.9,5.83L1556.69,444l3.92,14.58a3.28,3.28,0,0,1-5,3.61L1543,453.94l-12.66,8.23a3.29,3.29,0,0,1-5-3.61L1529.3,444l-11.74-9.49a3.28,3.28,0,0,1,1.89-5.83l15.08-.78,5.4-14.1A3.28,3.28,0,0,1,1546.06,413.78Z"/><path class="cls-22" d="M1639.49,413.78l5.4,14.1,15.07.78a3.28,3.28,0,0,1,1.9,5.83L1650.12,444l3.92,14.58a3.29,3.29,0,0,1-5,3.61l-12.66-8.23-12.65,8.23a3.29,3.29,0,0,1-5-3.61l3.92-14.58L1611,434.49a3.28,3.28,0,0,1,1.9-5.83l15.08-.78,5.39-14.1A3.29,3.29,0,0,1,1639.49,413.78Z"/><path class="cls-22" d="M1729.84,412.42a2.49,2.49,0,0,1,2.37,1.63l5.4,14.1.17.46.49,0,15.08.78a2.53,2.53,0,0,1,1.46,4.5l-11.74,9.49-.38.31.13.47,3.92,14.58a2.45,2.45,0,0,1-.42,2.18,2.58,2.58,0,0,1-2,1,2.48,2.48,0,0,1-1.38-.42l-12.66-8.23-.41-.27-.4.27-12.66,8.23a2.48,2.48,0,0,1-1.38.42,2.58,2.58,0,0,1-2-1,2.45,2.45,0,0,1-.42-2.18l3.92-14.58.13-.47-.38-.31-11.74-9.49a2.53,2.53,0,0,1,1.46-4.5l15.08-.78.48,0,.18-.46,5.4-14.1a2.49,2.49,0,0,1,2.36-1.63m0-.75a3.24,3.24,0,0,0-3.06,2.11l-5.4,14.1-15.08.78a3.28,3.28,0,0,0-1.89,5.83l11.74,9.49-3.92,14.58a3.29,3.29,0,0,0,3.17,4.15,3.22,3.22,0,0,0,1.79-.54l12.65-8.23,12.66,8.23a3.22,3.22,0,0,0,1.79.54,3.29,3.29,0,0,0,3.17-4.15L1743.54,444l11.74-9.49a3.28,3.28,0,0,0-1.89-5.83l-15.08-.78-5.4-14.1a3.24,3.24,0,0,0-3.07-2.11Z"/><rect class="cls-13" x="1329.48" y="483.94" width="524.76" height="15.75"/><rect class="cls-13" x="1329.48" y="517.81" width="524.76" height="15.75"/><rect class="cls-13" x="1329.48" y="551.68" width="337.66" height="15.75"/><path class="cls-23" d="M1742.74,564a13.86,13.86,0,0,1-1.07,5.36l3.71,7.38-8.06-1.81a12.62,12.62,0,0,1-7.58,2.52,13.46,13.46,0,1,1,13-13.45Z"/><path class="cls-23" d="M1798.32,559.15a16.2,16.2,0,0,1-22-7.58,7.45,7.45,0,0,0-7.33,7.58,7.68,7.68,0,0,0,2.15,5.37h0l12.52,13,12.52-13A7.73,7.73,0,0,0,1798.32,559.15Z"/><rect class="cls-23" x="1818.22" y="551.57" width="36.02" height="5.5"/><rect class="cls-23" x="1818.22" y="562.91" width="36.02" height="5.5"/><rect class="cls-23" x="1818.22" y="574.26" width="36.02" height="5.5"/><circle class="cls-8" cx="906.83" cy="821.59" r="111.52"/><circle class="cls-18" cx="906.83" cy="821.59" r="99.34" transform="translate(-102.25 1513.76) rotate(-76.62)"/><g class="cls-24"><path class="cls-14" d="M966.56,821.46a120.94,120.94,0,0,0-11-11.74c-6.25-6-8.57-10.2-9-18.54s-2.29-18.53-5.68-26c-2.79-6.22-9.3-11.3-15.65-12-7.43-8.49-18.92-11-30.41-7C882.6,750.39,875.56,762,872,773.81a109.14,109.14,0,0,0-3.55,18.28c-1,7.9-4.14,14.59-7.36,21.84-3.88,8.73-6.59,19.45-1.25,27.38,3.52,5.23,9.72,7.89,14.47,12,10.29,9,14.39,25.24,27.3,29.64,5,1.7,10.49,1.19,15.73.39A153.44,153.44,0,0,0,952,873.8c8.64-3.52,17.51-8.36,21.72-16.7,4.1-8.11,2.86-18.12-1.16-26.28A53,53,0,0,0,966.56,821.46Z"/><path class="cls-20" d="M843.42,857.44c20.28-23.2,50.5-22.7,50.5-22.7l29.84-.5s26.57,3.49,42.54,16.58c47.81,39.16,53.78,101.36,53.78,101.36S812.25,916.79,812,915.42,829.89,872.93,843.42,857.44Z"/><path class="cls-21" d="M927.19,777.6c6,24.35-4.94,42.54-14.34,43.95-13.45,2-21-4.59-24.93-16.59-1.76-5.3-4.35-25.36,1.25-31.25C898.45,763.93,922.05,756.87,927.19,777.6Z"/><path class="cls-14" d="M888.77,762.36a24.15,24.15,0,0,0-5.9,6.83c-2,3.35-2.76,8.26.32,10.6a7.14,7.14,0,0,0,5.63,1c6.32-1.19,11.16-6.86,17.53-7.74,1.6-.21,3.23-.12,4.81-.4a10.25,10.25,0,0,0,5.53-3.08c2.66-2.79,6.85,8.59,8.3,10.11a11.41,11.41,0,0,0,7.8,3.71,2.66,2.66,0,0,0,2.2-.74,2.84,2.84,0,0,0,.47-1.46c1-8.63-4.54-17.31-11.79-21.58s-16.52-4.89-24.74-2.67c-4.68,1.26-9.75,4.2-10.27,9"/><path class="cls-21" d="M895.47,810.2l-1.37,22.39s-3.14,10.17,15.27,10.17,14-10.17,14-10.17l-3-24.8"/></g><path class="cls-8" d="M1651.4,920.93H1025.79l54.54-46.14V726.42a29.2,29.2,0,0,1,29.21-29.2H1651.4a29.2,29.2,0,0,1,29.2,29.2V891.73A29.2,29.2,0,0,1,1651.4,920.93Z"/><path class="cls-22" d="M1147.05,726l5.4,14.1,15.07.77a3.29,3.29,0,0,1,1.9,5.84l-11.74,9.49,3.92,14.58a3.29,3.29,0,0,1-5,3.61L1144,766.17l-12.65,8.24a3.29,3.29,0,0,1-5-3.61l3.92-14.58-11.74-9.49a3.29,3.29,0,0,1,1.9-5.84l15.08-.77,5.39-14.1A3.29,3.29,0,0,1,1147.05,726Z"/><path class="cls-22" d="M1240.47,726l5.4,14.1,15.08.77a3.29,3.29,0,0,1,1.9,5.84l-11.75,9.49L1255,770.8a3.28,3.28,0,0,1-5,3.61l-12.65-8.24-12.66,8.24a3.29,3.29,0,0,1-5-3.61l3.92-14.58L1212,746.73a3.29,3.29,0,0,1,1.89-5.84l15.08-.77,5.4-14.1A3.28,3.28,0,0,1,1240.47,726Z"/><path class="cls-22" d="M1333.9,726l5.4,14.1,15.07.77a3.29,3.29,0,0,1,1.9,5.84l-11.74,9.49,3.92,14.58a3.29,3.29,0,0,1-5,3.61l-12.66-8.24-12.65,8.24a3.29,3.29,0,0,1-5-3.61l3.92-14.58-11.74-9.49a3.29,3.29,0,0,1,1.9-5.84l15.07-.77,5.4-14.1A3.29,3.29,0,0,1,1333.9,726Z"/><path class="cls-22" d="M1424.25,724.66a2.48,2.48,0,0,1,2.37,1.63l5.4,14.09.17.46.49,0,15.08.77a2.54,2.54,0,0,1,1.46,4.51l-11.74,9.49-.38.3.13.47,3.92,14.58a2.47,2.47,0,0,1-.42,2.19,2.59,2.59,0,0,1-2,1,2.48,2.48,0,0,1-1.37-.42l-12.66-8.24-.41-.26-.4.26-12.66,8.24a2.48,2.48,0,0,1-1.38.42,2.58,2.58,0,0,1-2-1,2.47,2.47,0,0,1-.42-2.19l3.92-14.58.13-.47-.38-.3-11.74-9.49a2.54,2.54,0,0,1,1.46-4.51l15.08-.77.48,0,.18-.46,5.4-14.09a2.47,2.47,0,0,1,2.36-1.63m0-.75a3.22,3.22,0,0,0-3.06,2.11l-5.4,14.1-15.08.77a3.29,3.29,0,0,0-1.89,5.84l11.74,9.49-3.92,14.58a3.28,3.28,0,0,0,5,3.61l12.65-8.24,12.66,8.24a3.28,3.28,0,0,0,5-3.61L1438,756.22l11.74-9.49a3.29,3.29,0,0,0-1.89-5.84l-15.08-.77-5.4-14.1a3.23,3.23,0,0,0-3.07-2.11Z"/><path class="cls-22" d="M1517.68,724.66a2.48,2.48,0,0,1,2.37,1.63l5.39,14.09.18.46.49,0,15.07.77a2.54,2.54,0,0,1,1.47,4.51l-11.74,9.49-.38.3.12.47,3.92,14.58a2.47,2.47,0,0,1-.41,2.19,2.6,2.6,0,0,1-2,1,2.51,2.51,0,0,1-1.38-.42l-12.65-8.24-.41-.26-.41.26-12.65,8.24a2.51,2.51,0,0,1-1.38.42,2.59,2.59,0,0,1-2-1,2.47,2.47,0,0,1-.42-2.19l3.93-14.58.12-.47-.38-.3-11.74-9.49a2.54,2.54,0,0,1,1.46-4.51l15.08-.77.49,0,.17-.46,5.4-14.09a2.48,2.48,0,0,1,2.37-1.63m0-.75a3.23,3.23,0,0,0-3.07,2.11l-5.4,14.1-15.07.77a3.29,3.29,0,0,0-1.9,5.84l11.74,9.49-3.92,14.58a3.28,3.28,0,0,0,5,3.61l12.66-8.24,12.65,8.24a3.28,3.28,0,0,0,5-3.61l-3.92-14.58,11.74-9.49a3.29,3.29,0,0,0-1.9-5.84l-15.08-.77-5.39-14.1a3.24,3.24,0,0,0-3.07-2.11Z"/><rect class="cls-13" x="1117.32" y="796.17" width="524.76" height="15.75"/><rect class="cls-13" x="1117.32" y="830.05" width="524.76" height="15.75"/><rect class="cls-13" x="1117.32" y="863.92" width="337.66" height="15.75"/><path class="cls-23" d="M1530.57,876.26a13.77,13.77,0,0,1-1.07,5.35l3.72,7.38-8.06-1.8a12.74,12.74,0,0,1-7.59,2.52,13.46,13.46,0,1,1,13-13.45Z"/><path class="cls-23" d="M1586.15,871.39a16.18,16.18,0,0,1-22-7.59,7.47,7.47,0,0,0-7.34,7.59,7.7,7.7,0,0,0,2.15,5.37h0l12.52,13,12.52-13A7.7,7.7,0,0,0,1586.15,871.39Z"/><rect class="cls-23" x="1606.06" y="863.8" width="36.02" height="5.49"/><rect class="cls-23" x="1606.06" y="875.15" width="36.02" height="5.49"/><rect class="cls-23" x="1606.06" y="886.49" width="36.02" height="5.49"/><circle class="cls-8" cx="1119" cy="1133.82" r="111.52"/><circle class="cls-18" cx="1119" cy="1133.82" r="99.34"/><g class="cls-25"><path class="cls-8" d="M1093.35,1082.84c-3,1.57-4.68,4.75-6,7.84-1.21,2.8-2.25,5.87-1.63,8.86s3.53,5.69,6.51,5c-1.07,1.82-.46,4.26.9,5.87a14.12,14.12,0,0,0,5.23,3.46,126.8,126.8,0,0,0,14.32,5.54,39.27,39.27,0,0,0,12,2.3,23.26,23.26,0,0,0,21.74-14.19c.82-2,0-5,.86-7a6.59,6.59,0,0,0,4.25-7.46c-.26-2-1.68-3.69-3-5.22-3.24-3.64-6.55-7.35-10.75-9.83s-9.52-3.56-14-1.63"/><path class="cls-14" d="M1055.59,1169.67c20.27-23.2,50.49-22.7,50.49-22.7l29.84-.5s26.57,3.5,42.54,16.58c47.82,39.17,53.79,101.36,53.79,101.36s-207.83-35.39-208.1-36.75S1042.05,1185.16,1055.59,1169.67Z"/><path class="cls-21" d="M1139.35,1089.84c6,24.35,5.29,41.49-14.33,44-13.5,1.68-23.11-.48-27.07-12.48-1.75-5.3-2.21-29.47,3.38-35.37C1110.62,1076.16,1134.21,1069.1,1139.35,1089.84Z"/><path class="cls-21" d="M1105.62,1121.31l.65,23.52s-3.14,10.16,15.27,10.16,14-10.16,14-10.16l-.79-27.25"/><path class="cls-8" d="M1116,1065.73c-7.36-2.94-16.43-2.3-22.41,2.9s-7.59,15.26-2.46,21.29a6.86,6.86,0,0,0,4.62,2.69,8.19,8.19,0,0,0,3.58-.82,39.12,39.12,0,0,0,11-6.87c.44,2.87,3.82,4.49,6.69,4.06s5.27-2.3,7.54-4.1l4.36,4.15c2.22,2.11,4.75,4.36,7.81,4.39s5.53-2.06,7.1-4.55c4.64-7.35,1.45-18-5.77-22.86s-17.17-4.38-24.82-.24c-.48.26-.51,1.33-.09,1"/></g><path class="cls-8" d="M1863.57,1233.16H1238L1292.5,1187V1038.66a29.2,29.2,0,0,1,29.2-29.2h541.87a29.2,29.2,0,0,1,29.2,29.2V1204A29.2,29.2,0,0,1,1863.57,1233.16Z"/><path class="cls-22" d="M1359.22,1038.25l5.39,14.1,15.08.78a3.28,3.28,0,0,1,1.9,5.83l-11.74,9.5,3.92,14.57a3.29,3.29,0,0,1-5,3.61l-12.65-8.23-12.66,8.23a3.29,3.29,0,0,1-5-3.61l3.92-14.57-11.74-9.5a3.28,3.28,0,0,1,1.89-5.83l15.08-.78,5.4-14.1A3.29,3.29,0,0,1,1359.22,1038.25Z"/><path class="cls-22" d="M1452.64,1038.25l5.4,14.1,15.08.78A3.28,3.28,0,0,1,1475,1059l-11.74,9.5,3.92,14.57a3.29,3.29,0,0,1-5,3.61l-12.66-8.23-12.65,8.23a3.29,3.29,0,0,1-5-3.61l3.92-14.57-11.74-9.5a3.28,3.28,0,0,1,1.9-5.83l15.08-.78,5.39-14.1A3.29,3.29,0,0,1,1452.64,1038.25Z"/><path class="cls-22" d="M1546.06,1038.25l5.4,14.1,15.08.78a3.28,3.28,0,0,1,1.9,5.83l-11.75,9.5,3.92,14.57a3.28,3.28,0,0,1-5,3.61l-12.65-8.23-12.66,8.23a3.29,3.29,0,0,1-5-3.61l3.92-14.57-11.74-9.5a3.28,3.28,0,0,1,1.89-5.83l15.08-.78,5.4-14.1A3.28,3.28,0,0,1,1546.06,1038.25Z"/><path class="cls-22" d="M1636.42,1036.89a2.5,2.5,0,0,1,2.37,1.63l5.4,14.1.17.46.49,0,15.07.78a2.53,2.53,0,0,1,1.47,4.5l-11.74,9.49-.38.31.12.47,3.92,14.58a2.42,2.42,0,0,1-.41,2.18,2.59,2.59,0,0,1-2,1,2.51,2.51,0,0,1-1.38-.42l-12.65-8.23-.41-.27-.41.27-12.65,8.23a2.51,2.51,0,0,1-1.38.42,2.6,2.6,0,0,1-2-1,2.45,2.45,0,0,1-.41-2.18l3.92-14.58.12-.47-.38-.31-11.74-9.49a2.54,2.54,0,0,1,1.47-4.5l15.07-.78.49,0,.18-.46,5.39-14.1a2.5,2.5,0,0,1,2.37-1.63m0-.75a3.25,3.25,0,0,0-3.07,2.11l-5.39,14.1-15.08.78a3.28,3.28,0,0,0-1.9,5.83l11.74,9.5L1618.8,1083a3.3,3.3,0,0,0,3.18,4.15,3.24,3.24,0,0,0,1.79-.54l12.65-8.23,12.66,8.23a3.19,3.19,0,0,0,1.78.54A3.3,3.3,0,0,0,1654,1083l-3.92-14.57,11.74-9.5a3.28,3.28,0,0,0-1.9-5.83l-15.07-.78-5.4-14.1a3.24,3.24,0,0,0-3.07-2.11Z"/><path class="cls-22" d="M1636.42,1036.14a3.25,3.25,0,0,0-3.07,2.11l-5.4,14.1-15.07.78a3.28,3.28,0,0,0-1.9,5.83l11.74,9.5L1618.8,1083a3.29,3.29,0,0,0,5,3.61l12.65-8.23Z"/><path class="cls-22" d="M1729.84,1036.89a2.49,2.49,0,0,1,2.37,1.63l5.4,14.1.17.46.49,0,15.08.78a2.53,2.53,0,0,1,1.46,4.5l-11.74,9.49-.38.31.13.47,3.92,14.58a2.45,2.45,0,0,1-.42,2.18,2.59,2.59,0,0,1-2,1,2.48,2.48,0,0,1-1.37-.42l-12.66-8.23-.41-.27-.4.27-12.66,8.23a2.48,2.48,0,0,1-1.37.42,2.59,2.59,0,0,1-2-1,2.45,2.45,0,0,1-.42-2.18l3.92-14.58.13-.47-.38-.31-11.74-9.49a2.53,2.53,0,0,1,1.46-4.5l15.08-.78.48,0,.18-.46,5.4-14.1a2.49,2.49,0,0,1,2.36-1.63m0-.75a3.24,3.24,0,0,0-3.06,2.11l-5.4,14.1-15.08.78a3.28,3.28,0,0,0-1.89,5.83l11.74,9.5-3.92,14.57a3.29,3.29,0,0,0,3.18,4.15,3.21,3.21,0,0,0,1.78-.54l12.65-8.23,12.66,8.23a3.21,3.21,0,0,0,1.78.54,3.29,3.29,0,0,0,3.18-4.15l-3.92-14.57,11.74-9.5a3.28,3.28,0,0,0-1.89-5.83l-15.08-.78-5.4-14.1a3.24,3.24,0,0,0-3.07-2.11Z"/><rect class="cls-13" x="1329.48" y="1108.41" width="524.76" height="15.75"/><rect class="cls-13" x="1329.48" y="1142.28" width="524.76" height="15.75"/><rect class="cls-13" x="1329.48" y="1176.15" width="337.66" height="15.75"/><path class="cls-23" d="M1742.74,1188.49a13.78,13.78,0,0,1-1.07,5.36l3.71,7.38-8.06-1.81a12.63,12.63,0,0,1-7.58,2.53,13.46,13.46,0,1,1,13-13.46Z"/><path class="cls-23" d="M1798.32,1183.63a16.19,16.19,0,0,1-22-7.59,7.46,7.46,0,0,0-7.33,7.59,7.68,7.68,0,0,0,2.15,5.36h0l12.52,13,12.52-13A7.72,7.72,0,0,0,1798.32,1183.63Z"/><rect class="cls-23" x="1818.22" y="1176.04" width="36.02" height="5.49"/><rect class="cls-23" x="1818.22" y="1187.38" width="36.02" height="5.49"/><rect class="cls-23" x="1818.22" y="1198.73" width="36.02" height="5.49"/><path class="cls-20" d="M1900,1651s-47.43,23.65-47.43,32.71,75.63-2.59,75.19-10.56c-.71-12.7-9.74-22.15-9.74-22.15"/><path class="cls-20" d="M1924,1599.07s32.24,38.62,29.16,49-60.4-25.71-57.3-34.74c5-14.41,14.84-19.45,14.84-19.45"/><path class="cls-14" d="M2160.12,1093c3.22,88.13.5,162-22.27,253.28-17.32,69.45-213.22,255.58-213.22,255.58s-19.24,5.36-18,0,78-188.82,130.1-251.33c-5.64-30.42-55.46-149.79-62.77-235"/><path class="cls-26" d="M2000.39,1235.69c15.78,51.9,33.13,97.63,36.32,114.85-52.12,62.51-128.88,246-130.1,251.32s18,0,18,0,2.48-2.35,6.71-6.44c2.08-26.24,11.05-51.68,23.29-75.05,13.21-25.2,96.77-134.37,96.77-159.65S2030,1293.87,2000.39,1235.69Z"/><path class="cls-14" d="M1813.75,1093c-3.22,88.13,27.1,211.46,35.14,291.86C1864,1536.4,1900,1651,1900,1651s19.24,5.36,18,0,32.34-248.2,38.46-281.21c5.63-30.42,36.16-169.08,43.48-254.31"/><path class="cls-26" d="M1848.88,1384.87c12.55,125.53,39.36,225.66,48.19,256.36,1,1.62,2,3.26,2.91,4.88-30.27-164.55-49.81-315-56-470-.27-6.68,0-14.45,5.31-18.5,3.81-2.9,9-2.87,13.8-2.92a163.84,163.84,0,0,0,58.91-11.65l-35.22-41.25-73-8.82C1810.53,1181.14,1840.85,1304.47,1848.88,1384.87Z"/><path class="cls-20" d="M1941.62,711C1848,754.44,1823.4,864.81,1814.51,983.51a1014.18,1014.18,0,0,0,0,146s82.94,33.65,183.82,26,163.12-52.78,163.12-52.78-6.82-230.45-48.3-315.52c-21.46-44-85.59-73.5-85.59-73.5"/><path class="cls-27" d="M2113.15,787.12c-21.46-44-85.58-73.49-85.59-73.5h0l-19.79-.61,65.32,79.82c-32.8,50.81-22.69,157.45-22.69,157.45-44.74-2.77-65.78,1-91.18,5.21,18.53-45,26.23-92.57,26.23-92.57l-11.51-8.58-67.22,63.45s4.68-95.26-18.93-130.67l61-75.94h0l-7.21-.22c-93.66,43.48-118.22,153.85-127.1,272.55a1012.46,1012.46,0,0,0,0,146s4.16,1.68,11.72,4.21c.14-26.82-4.59-70.48,2.77-152.29,18.55,31.5,40.11,54.17,54.88,53.16,19.15-1.3,35.14-13.28,48.36-30.31,61.62,14.91,116.59,20.16,159.78,20.16,16,0,39.9-40.51,56.83-83.16C2141.59,882.73,2130.36,822.42,2113.15,787.12Z"/><path class="cls-12" d="M1989.07,783.91l-8.3,50.28a3.24,3.24,0,0,0,2.63,3.74l19.76,3.56a3.24,3.24,0,0,0,3.75-2.58l9.19-49.67a3.26,3.26,0,0,0-2.57-3.8l-20.64-4.17A3.24,3.24,0,0,0,1989.07,783.91Z"/><path class="cls-14" d="M1991.26,784.44l-8.3,50.28a3.25,3.25,0,0,0,2.63,3.74l19.76,3.56a3.25,3.25,0,0,0,3.76-2.58l9.18-49.67a3.25,3.25,0,0,0-2.56-3.8l-20.64-4.17A3.25,3.25,0,0,0,1991.26,784.44Z"/><path class="cls-21" d="M1968.24,862.92l11.82-15.54s-3.79-14.11-2.84-21.85c1.42-11.57,7.18-12.76,7.18-12.76s-2,9.23-.68,9.53c2.19.51,8.4-2.4,12-8.19,1.76-2.82,9.07-13.62,11.58-13.24,3.36.51,3.22,12.16.93,22.14-1.79,7.84-5.25,16.67-16,27.67-3.37,3.34-11.45,21.27-11.45,21.27"/><path class="cls-20" d="M2004.63,708.59s83.06,15.21,108.82,41.35c25.09,25.47,33.14,47.95,31.12,96.2-3.22,76.8-33.7,161.56-66.93,161.56-54.21,0-103.3-4.26-184.48-29.54l6.82-15.69c67.66-4,83.73-10.93,156.3-6.43,0,0-13.24-124.67,10.37-160.09"/><g class="cls-28"><path class="cls-29" d="M1941.86,991.78c2.78-4.89,5.83-9.63,8.33-14.67a117.51,117.51,0,0,0,8.08-19.56c-10.1,1-19.77,2-32.36,3.07-1.66,3.77-3.26,7.56-4.75,11.35a56.17,56.17,0,0,0-3.94,13.31Q1930.06,988.9,1941.86,991.78Z"/></g><path class="cls-20" d="M1952.2,707s-80.51,16.8-106.26,42.94c-25.1,25.47-33.15,47.95-31.13,96.2,3.22,76.8,40.91,169.33,74.14,169.33,57.87,0,96.5-152.55,96.5-152.55l-11.51-8.58-74,85.75s11.42-117.56-12.19-153"/><path class="cls-14" d="M1968.24,605.74a46,46,0,0,0-22,14.93c-4.7,5.72-12.39,17.42-6,24.45,3.51,3.85,9.73,3.46,14.62,1.63a34.55,34.55,0,0,0,15-11"/><path class="cls-21" d="M1959.54,616.37c-24.86,21.41-32.58,54.84-23.15,66s42,10.29,48.87,5.14,32.41-24.5,30.86-36.87C2013.55,630.08,1984.4,595,1959.54,616.37Z"/><path class="cls-21" d="M1960.72,673.55l-3.82,31.69-15.28,4.2s8.81,26.84,32.72,27.3c43,.83,53.22-23.12,53.22-23.12l-19.1-8.3L1997,653.65"/><path class="cls-14" d="M2017.34,619.39c1.67-19.53-26.11-26.42-40.27-26.95-4.16-.15-8.46.41-12.07,2.48s-6.41,5.86-6.49,10c-.12,6.71,6.23,11.51,11.9,15.11L1995.48,636c2.08,1.32,4.43,3.12,4.28,5.59-.12,1.94-1.76,3.38-3.15,4.74a28.74,28.74,0,0,0-7,10.88c-.43,1.24-.75,2.75.07,3.77,1.23,1.54,3.69.69,5.32-.41s3.73-2.34,5.37-1.27c2.26,1.47.92,8.11-.7,10.26-3.6,4.78-4.84,6.26-10.49,6.46-.51,1.68-.2,9.29,2.48,11.28a6,6,0,0,0,3.85,1c14.57-.54,25.13-9.39,33.69-21.2,18.44-25.4-5.32-47.12-11.89-47.67"/><path class="cls-30" d="M811,1513.87c-28.56,22-32.13,58.18-15.08,86.18,6,9.92,7,27.77,18.15,34.68,14.49,8.92,40.47,4.92,59,6.73,49,4.79,97.37-8.87,145.71-16.63,19-3.07,40.27-5.52,56.64-14.07,17.93-9.36,20.88-16.92,10.18-29.51-6.28-17.2-59.48-42.6-92.58-49.92-45.43-10-80.77-10-121.73-10"/><path class="cls-30" d="M834.54,1513.87c28.56,22,32.13,58.18,15.08,86.18-6,9.92-.12,32.32-11.33,39.22-14.48,8.92-47.29.38-65.83,2.19-49,4.79-97.37-8.87-145.71-16.63-19-3.07-71.21-10.9-65.73-37.72,17.86-29.41,53.75-42.55,86.94-49.49,46.76-9.78,101.1-19.27,139.84-15.93"/><path class="cls-22" d="M782.31,1232s-57.93,6.75-103.08,47.93c-56.37,51.4-77.11,152-68.54,186.24S755,1574.76,755,1574.76l5.41-8.56-81.17-119.34s39-67.4,59.23-107.72"/><path class="cls-22" d="M845.74,1235.35s49.08,11.24,81.21,44.44c69,71.31,77.85,159.3,69.28,193.58s-121.76,101.39-121.76,101.39l-5.41-8.56,71.5-112.11s-42.68-74.63-62.91-114.95"/><path class="cls-31" d="M934.93,1369.8c-4.11-13.48-15.31-51.87-38.54-68.17l-24.13,20,5.39,17.53c20.23,40.32,62.91,114.95,62.91,114.95l-42.72,67c1.38-.44,2.73-1,4-1.53,22.65-9.88,40.59-27.94,57.39-46.07,2.62-2.82,5.28-5.76,6.65-9.36,2.94-7.73-.74-16.24-4.19-23.76A563.35,563.35,0,0,1,934.93,1369.8Z"/><path class="cls-31" d="M713.87,1290.38s-30.89,23.38-40.23,61.83c-2.33,9.59-2.3,19.6-3.89,29.33-3.45,21.21-12.6,42.4-8.2,63.44,5,23.9,26,40.66,45.88,54.8a118.19,118.19,0,0,0,13.72,8.72l-41.92-61.64s39-67.4,59.22-107.72l13.75-33.59Z"/><path class="cls-22" d="M714.89,1521.29c-9.8-42.73-6.07-67.47-17.26-108.69-14.91-13.39-18-33.11-18.39-53.14-.51-28.57,18.43-52.7,33.46-75.24,12.86-19.29,28.24-42.15,54.13-42.7,39.1-.82,78.91-6.17,78.91-6.17a236.31,236.31,0,0,1,30.56,25.83c21.38,21.44,45.88,60.56,46.11,91.5.28,38.73-14.7,48-19.14,72.85-4.13,23.12-9,95.76-9,95.76"/><path class="cls-14" d="M797.32,1196.38c-9,3.31-19,4.61-28.33,2.5a34.16,34.16,0,0,1-18.76-11.07c-3.09-3.71-5.54-8.24-8.37-12.28-4.19-6-11.13-9.74-14.57-16.26-4.11-7.79-1.76-16.3-.38-24.4,1.48-8.7,1.25-17.21,5.89-25.1,4.92-8.39,14.6-13.62,22.07-19.48,8.42-6.61,17.42-12.9,27.8-15.94,9.23-2.71,19.1-2.7,28.59-1.18,10.06,1.61,18.75,5.14,26.49,11.75s16.74,11.39,22.39,20.25a34,34,0,0,1,4.33,10c1.27,5,.81,9.76,3.39,14.35,4.91,8.74,8.08,17.61,6.7,27.81a41.67,41.67,0,0,1-13.11,24.58c-11.05,10-28.88,12.52-42.78,12.37"/><path class="cls-32" d="M832.93,1150.87c6.46,28.22-9.18,56.57-21.72,59.56s-26.09-4-33.79-22.48c-2.9-7-10.2-34.37-2.63-42.36C787.38,1132.33,826.46,1122.65,832.93,1150.87Z"/><path class="cls-32" d="M793.79,1197.05s-.58,26.68-3.31,29.87-29.88,9.76-29.88,9.76,10.1,25.63,43.9,25.63,39.59-20,41.24-27c-9.36-2.85-24.55-3.95-26.08-9-1.75-5.75-5.63-33.74-5.63-33.74"/><path class="cls-18" d="M772.17,1168.24a75.09,75.09,0,0,1,43-32.27,3,3,0,0,1,1.38-.15,3.06,3.06,0,0,1,1.52,1.11,125,125,0,0,1,16.38,23.22c.39.72,1.11,1.56,1.83,1.2a1.52,1.52,0,0,0,.52-.52c3.37-4.78,2.93-11.7-.09-16.71s-8.2-8.29-13.62-10.14a16.64,16.64,0,0,1-3.8-1.57,22.17,22.17,0,0,1-2.69-2.36c-6.07-5.64-15.17-7-23-4.61s-14.43,8.14-19.21,15a34.65,34.65,0,0,0-5.22,10.61c-1.35,4.91-3.22,14.33,3,17.19"/><path class="cls-18" d="M817.48,1134.63c-4.93-7-4.92-16.16-4.6-24.69.08-2.14.25-4.49,1.72-6.06a20.11,20.11,0,0,1,5.82,30.11"/><path class="cls-18" d="M821.54,1133.93s2.87-3.7,4.13-4.52c6.43-4.19,19-11,25.09-10.85a10.08,10.08,0,0,1-3,9.12,15.48,15.48,0,0,1-5.79,3.55,71.82,71.82,0,0,1-21.52,5"/><path class="cls-18" d="M744.07,1704.14s-21.23,34.72-44.91,42c-9,2.76-.35-53.72,17.71-56.19a69,69,0,0,1,24.51,1.3"/><path class="cls-14" d="M739.49,1690.48c45.22-28.9,90.19-64.23,135.41-93.13,23.17-14.81,46.65-29.77,73.35-39.38s57.4-13.47,84.52-5.39c10.88,3.24,20.87,8.28,30.34,13.8,10.54,6.14,20.92,13.3,26.07,23.2,6.83,13.11,3,29-6.53,41.09s-23.91,20.84-38.89,27.94c-31.89,15.1-67.47,23.77-103.26,29.61-43.23,7-197.34,18.58-197.34,18.58"/><path class="cls-26" d="M1077.88,1636c-28.79,10.92-58.34,20.06-88.8,24.29-35.24,4.91-71.94,3-105.13-9.77-12.39-4.78-25.72-13.11-27.15-26.31-.74-6.82,1.94-13.13,5.9-18.87-41.11,27.26-82.06,58.83-123.21,85.13l3.67,16.32s154.11-11.53,197.34-18.58c35.79-5.84,71.37-14.51,103.26-29.61C1056.43,1652.61,1068.65,1645.39,1077.88,1636Z"/><path class="cls-18" d="M904.07,1700.34s47.35,34.3,56.23,37.32-12.23-51.65-25.75-55c-12.8-3.13-27.75,4.76-27.75,4.76"/><path class="cls-14" d="M908.69,1686.7,773.3,1599.56c-23.12-14.89-46.55-29.92-73.22-39.62s-57.36-13.65-84.5-5.66c-10.9,3.21-20.9,8.23-30.4,13.72-10.55,6.1-21,13.23-26.14,23.11-6.86,13.09-3,29,6.41,41.11s23.84,20.92,38.8,28.06c31.84,15.2,67.39,24,103.16,29.94C750.62,1697.41,905,1703,905,1703"/><path class="cls-33" d="M927,1587.06H709.54l-12.86-31.75a4.11,4.11,0,0,1,4.12-4.12H935.68a4.12,4.12,0,0,1,4.13,4.12Z"/><path class="cls-23" d="M927,1587.06H709.54l-12.86-150a10.9,10.9,0,0,1,10.9-10.89H928.91a10.9,10.9,0,0,1,10.9,10.89Z"/><circle class="cls-33" cx="818.24" cy="1506.6" r="24.63"/><path class="cls-13" d="M1849.57,178.24H1711.9l25.18-21.3V88.45A13.48,13.48,0,0,1,1750.56,75h99a13.47,13.47,0,0,1,13.48,13.48v76.31A13.47,13.47,0,0,1,1849.57,178.24Z"/><path class="cls-22" d="M1797.93,96.63,1791,114.68l-19.3,1a4.21,4.21,0,0,0-2.43,7.47l15,12.15-5,18.66a4.2,4.2,0,0,0,6.35,4.62l16.2-10.54,16.2,10.54a4.21,4.21,0,0,0,6.36-4.62l-5-18.66,15-12.15a4.2,4.2,0,0,0-2.42-7.47l-19.31-1-6.91-18.05A4.2,4.2,0,0,0,1797.93,96.63Z"/><path class="cls-13" d="M621.79,376.08H809.13l-34.26-29V253.89a18.36,18.36,0,0,0-18.35-18.35H621.79a18.35,18.35,0,0,0-18.34,18.35V357.74A18.34,18.34,0,0,0,621.79,376.08Z"/><path class="cls-20" d="M647.1,290.6c0-11.88,9.31-21.51,20.79-21.51s20.8,9.63,20.8,21.51c0-11.88,9.31-21.51,20.79-21.51s20.79,9.63,20.79,21.51a21.83,21.83,0,0,1-6.09,15.21h0l-35.49,36.73-35.5-36.73A21.83,21.83,0,0,1,647.1,290.6Z"/><path class="cls-13" d="M2133,435.72H1937.35l35.78-30.27V308.12A19.15,19.15,0,0,1,1992.28,289H2133a19.15,19.15,0,0,1,19.16,19.15V416.56A19.16,19.16,0,0,1,2133,435.72Z"/><path class="cls-23" d="M2084.92,353h8c4.24,0,8.47,0,12.71,0a14.34,14.34,0,0,1,8.45,2.63,9.69,9.69,0,0,1,.3,15.6l-.54.42a8.58,8.58,0,0,1,3.5,8c-.37,3.18-1.72,5.77-4.69,7.28,3.16,5.31,2.18,10-2.56,13a24.76,24.76,0,0,1,1,3.79,7.14,7.14,0,0,1-6.56,8.2,23.56,23.56,0,0,1-2.91.18c-15.92,0-31.83,0-47.75,0-2.91,0-5-1.41-6.89-3.3a1.11,1.11,0,0,1-.19-.72q0-23.43,0-46.88a5.6,5.6,0,0,1,2.2-4c2.49-2.27,5-4.49,7.54-6.71,4.37-3.84,8.66-7.76,12.7-11.95,5.57-5.77,8.95-12.72,11.35-20.24.18-.55.35-1.1.54-1.65,1.3-3.81,4.36-4.72,7.57-4.17a8.39,8.39,0,0,1,6,4.25,16.32,16.32,0,0,1,1.78,11.06c-.79,5.15-2.9,9.81-5.36,14.33-1.8,3.3-3.73,6.53-5.6,9.79Z"/><path class="cls-23" d="M2015.36,385.41V362.13c0-2.4,1.24-3.66,3.63-3.66h17.68c2.39,0,3.65,1.26,3.65,3.65v46.55a3.23,3.23,0,0,1-3.6,3.6H2019c-2.36,0-3.61-1.24-3.61-3.58Z"/><path class="cls-34" d="M1495.62,157.93a13,13,0,1,1-13-13A13,13,0,0,1,1495.62,157.93Z"/><path class="cls-34" d="M833.39,589.09a13,13,0,1,1-13-13A13,13,0,0,1,833.39,589.09Z"/><circle class="cls-34" cx="2174.58" cy="602.08" r="12.99"/><circle class="cls-34" cx="274.4" cy="1438.27" r="12.99"/><path class="cls-34" d="M720,982.86a13,13,0,1,1-13-13A13,13,0,0,1,720,982.86Z"/><circle class="cls-34" cx="1754.1" cy="1478.26" r="12.99"/><line class="cls-35" x1="1768.98" y1="274.09" x2="1768.98" y2="303.85"/><line class="cls-35" x1="1783.86" y1="288.97" x2="1754.1" y2="288.97"/><line class="cls-35" x1="986.08" y1="93.93" x2="986.08" y2="123.69"/><line class="cls-35" x1="1000.97" y1="108.81" x2="971.2" y2="108.81"/><line class="cls-35" x1="457.6" y1="924.13" x2="457.6" y2="953.9"/><line class="cls-35" x1="472.48" y1="939.02" x2="442.71" y2="939.02"/><line class="cls-35" x1="2253.99" y1="1140.5" x2="2253.99" y2="1170.26"/><line class="cls-35" x1="2268.87" y1="1155.38" x2="2239.1" y2="1155.38"/></g></g></svg>