<svg width="133" height="124" viewBox="0 0 133 124" fill="none" xmlns="http://www.w3.org/2000/svg">
<mask id="mask0_243_3051" style="mask-type:luminance" maskUnits="userSpaceOnUse" x="0" y="0" width="133" height="124">
<path d="M132.869 0.700195H0V123.317H132.869V0.700195Z" fill="white"/>
</mask>
<g mask="url(#mask0_243_3051)">
<path opacity="0.4" d="M126.189 76.9022C126.301 74.9821 126.25 73.0559 126.034 71.1445C125.018 62.1721 120.415 53.7113 113.64 47.7416C111.222 45.6119 108.472 43.7039 106.899 40.8927C104.25 36.1581 104.451 30.7168 101.161 26.0422C97.8717 21.3677 93.0742 17.7126 87.6657 15.8381C71.5384 10.2495 48.9563 19.3482 50.9896 38.7815C50.997 38.8512 51.0048 38.9526 51.0134 39.0796C51.2835 43.1163 48.1158 46.5098 44.0832 46.606C29.2026 46.9599 16.3947 58.4332 13.6525 72.9643C11.8901 82.3107 14.7762 92.5548 21.6133 99.1668C26.7178 104.102 33.5638 106.814 40.4146 108.676C54.1503 112.412 68.6046 113.195 82.7676 111.767C96.0248 110.43 110.009 106.619 118.583 96.419C123.157 90.9795 125.777 84.0023 126.189 76.9022Z" fill="#2E44D0"/>
<path opacity="0.31" d="M61.4473 11.5333C61.7511 9.64549 60.4669 7.8689 58.5791 7.56517C56.6913 7.26144 54.9147 8.54559 54.611 10.4334C54.3073 12.3212 55.5914 14.0978 57.4792 14.4015C59.367 14.7052 61.1436 13.4211 61.4473 11.5333Z" fill="#2E44D0"/>
<path opacity="0.31" d="M104.814 10.6593C105.801 10.6593 106.6 9.85962 106.6 8.87312C106.6 7.88663 105.801 7.08691 104.814 7.08691C103.828 7.08691 103.028 7.88663 103.028 8.87312C103.028 9.85962 103.828 10.6593 104.814 10.6593Z" fill="#2E44D0"/>
<path opacity="0.31" d="M44.0797 19.3133C44.3984 18.0302 43.6166 16.7317 42.3335 16.4129C41.0504 16.0942 39.7518 16.876 39.4331 18.1591C39.1143 19.4422 39.8961 20.7408 41.1793 21.0595C42.4624 21.3783 43.7609 20.5965 44.0797 19.3133Z" fill="#2E44D0"/>
<path opacity="0.31" d="M14.1519 111.002C17.162 111.002 19.6022 108.562 19.6022 105.552C19.6022 102.542 17.162 100.102 14.1519 100.102C11.1418 100.102 8.70166 102.542 8.70166 105.552C8.70166 108.562 11.1418 111.002 14.1519 111.002Z" fill="#2E44D0"/>
<path opacity="0.47" d="M124.708 20.5069C125.077 19.7873 125.301 19.002 125.367 18.1957C125.433 17.3895 125.34 16.5782 125.092 15.8081C124.844 15.038 124.447 14.3242 123.924 13.7075C123.401 13.0908 122.761 12.5832 122.041 12.2138C119.014 10.6601 113.199 10.7745 111.646 13.801C110.093 16.8276 114.75 19.4246 116.649 22.2469C119.297 26.1834 123.153 23.5335 124.708 20.5069Z" fill="#ECF1F7"/>
<path opacity="0.47" d="M111.473 113.527C111.993 113.864 112.575 114.094 113.185 114.205C113.794 114.317 114.42 114.307 115.026 114.177C115.632 114.046 116.206 113.798 116.716 113.446C117.225 113.093 117.661 112.644 117.997 112.123C119.411 109.934 119.764 105.491 117.574 104.078C115.385 102.664 113.052 106.019 110.756 107.253C107.554 108.973 109.282 112.114 111.473 113.527Z" fill="#2E44D0"/>
<path opacity="0.47" d="M22.0963 6.62174C21.5236 6.08989 20.8518 5.67605 20.1192 5.40386C19.3865 5.13166 18.6075 5.00643 17.8264 5.03532C17.0454 5.06421 16.2777 5.24665 15.5672 5.57223C14.8567 5.89781 14.2173 6.36015 13.6854 6.93285C11.4499 9.34129 10.034 14.7808 12.4424 17.0174C14.8509 19.2541 18.4852 15.6016 21.6082 14.5729C25.9605 13.1384 24.5044 8.85841 22.0963 6.62174Z" fill="#2E44D0"/>
<path opacity="0.47" d="M8.81864 32.6233C6.67027 37.2848 6.0853 42.6591 7.11738 47.6831C8.32868 53.5898 12.0058 58.1272 10.7297 64.4285C9.95244 68.2662 9.75794 71.8218 9.36374 75.6193C8.55298 83.4173 13.6158 90.2883 19.8973 93.9985C24.9988 97.0117 30.9793 98.1425 36.8447 98.062C42.1232 97.9897 47.3927 97.0147 52.5077 95.7043C57.4374 94.4412 62.2569 92.7768 67.424 93.3018C71.7211 93.7385 75.5916 95.5962 79.5936 96.9815C89.1484 100.289 100.723 100.755 109.46 95.7207C115.067 92.4892 118.992 87.2416 120.732 81.5994C122.123 77.091 122.3 72.874 121.257 68.2707C120.186 63.5447 118.379 58.78 118.941 53.8554C119.331 50.4239 120.901 47.1115 120.613 43.6699C120.423 41.3829 119.416 39.236 118.184 37.3008C113.688 30.2294 106.159 25.4975 98.1968 22.8893C90.7029 20.4343 82.9742 18.6567 75.1725 19.2472C59.0392 20.4686 55.7526 17.9059 39.2672 14.38C28.6245 12.1039 16.7195 20.2182 10.4916 29.6191C9.85796 30.5762 9.29868 31.5806 8.81864 32.6233Z" fill="#2E44D0"/>
<path opacity="0.5" d="M19.918 39.8872C19.5871 43.6098 20.8424 47.4457 19.7932 51.1321C18.5368 55.5454 14.8999 58.8511 13.4174 63.1843C11.2269 69.5873 11.3309 76.762 13.9923 83.001C15.2744 86.0082 17.1474 88.8026 19.7053 90.7349C23.648 93.7156 28.8144 94.3677 33.673 93.9899C40.9043 93.4273 48.5346 90.2971 55.805 91.1507C59.817 91.6217 61.0421 95.9642 63.1141 98.8283C65.4577 102.068 68.6493 104.613 72.1774 106.307C78.6762 109.426 86.4756 109.721 93.1171 106.893C100.208 103.873 106.389 96.4974 105.983 88.1566C105.796 84.298 104.25 80.4655 104.965 76.674C105.863 71.916 109.448 67.5798 112.044 63.703C114.913 59.4215 116.65 54.3136 116.991 49.1067L117.002 48.9293C117.535 39.9431 111.867 31.7476 103.315 28.9349L85.1198 22.9511C66.6586 16.8789 48.213 17.0798 31.2377 25.9907C27.5643 27.9192 21.5835 33.6661 20.3513 37.6264C20.1266 38.3624 19.9814 39.1203 19.918 39.8872Z" fill="#2E44D0"/>
<path opacity="0.58" d="M123.179 99.7184C123.827 99.7184 124.352 99.1936 124.352 98.5462C124.352 97.8988 123.827 97.374 123.179 97.374C122.532 97.374 122.007 97.8988 122.007 98.5462C122.007 99.1936 122.532 99.7184 123.179 99.7184Z" fill="#3E479B"/>
<path opacity="0.58" d="M69.0384 8.37365C69.6858 8.37365 70.2106 7.84885 70.2106 7.20147C70.2106 6.5541 69.6858 6.0293 69.0384 6.0293C68.391 6.0293 67.8662 6.5541 67.8662 7.20147C67.8662 7.84885 68.391 8.37365 69.0384 8.37365Z" fill="#3E479B"/>
<path opacity="0.58" d="M26.6985 110.527C27.3459 110.527 27.8707 110.002 27.8707 109.355C27.8707 108.707 27.3459 108.183 26.6985 108.183C26.0512 108.183 25.5264 108.707 25.5264 109.355C25.5264 110.002 26.0512 110.527 26.6985 110.527Z" fill="#3E479B"/>
<path opacity="0.58" d="M100.674 115.197C101.178 115.197 101.586 114.788 101.586 114.285C101.586 113.781 101.178 113.373 100.674 113.373C100.171 113.373 99.7627 113.781 99.7627 114.285C99.7627 114.788 100.171 115.197 100.674 115.197Z" fill="#EF929C"/>
<path opacity="0.58" d="M21.5246 27.5532C21.7405 27.5532 21.9155 27.3782 21.9155 27.1623C21.9155 26.9465 21.7405 26.7715 21.5246 26.7715C21.3088 26.7715 21.1338 26.9465 21.1338 27.1623C21.1338 27.3782 21.3088 27.5532 21.5246 27.5532Z" fill="#3E479B"/>
<path opacity="0.58" d="M104.743 15.5113C104.685 15.7835 104.547 16.0324 104.347 16.2263C104.148 16.4203 103.895 16.5507 103.621 16.601C103.347 16.6513 103.065 16.6192 102.809 16.5089C102.553 16.3986 102.336 16.215 102.185 15.9812C102.034 15.7475 101.955 15.4741 101.96 15.1958C101.964 14.9174 102.05 14.6466 102.209 14.4175C102.367 14.1883 102.589 14.0113 102.848 13.9087C103.107 13.8061 103.39 13.7825 103.662 13.841C104.027 13.9192 104.346 14.1392 104.548 14.4524C104.751 14.7656 104.821 15.1465 104.743 15.5113Z" fill="#EF929C"/>
<path opacity="0.58" d="M29.5279 9.04121C29.5051 9.14793 29.4512 9.24548 29.3729 9.32154C29.2947 9.3976 29.1956 9.44875 29.0883 9.46851C28.981 9.48828 28.8702 9.47578 28.77 9.43259C28.6697 9.3894 28.5846 9.31746 28.5252 9.22588C28.4659 9.13429 28.435 9.02716 28.4366 8.91804C28.4381 8.80892 28.472 8.70271 28.5339 8.61283C28.5958 8.52295 28.6829 8.45345 28.7843 8.41311C28.8857 8.37277 28.9968 8.3634 29.1036 8.38619C29.1744 8.40132 29.2416 8.43027 29.3013 8.47138C29.361 8.5125 29.412 8.56496 29.4514 8.62579C29.4908 8.68661 29.5179 8.75461 29.531 8.82589C29.5441 8.89716 29.5431 8.97033 29.5279 9.04121Z" fill="#EF929C"/>
<path opacity="0.58" d="M117.497 6.72132C117.477 6.81206 117.431 6.89502 117.365 6.9597C117.298 7.02439 117.214 7.06789 117.123 7.08471C117.032 7.10153 116.938 7.09092 116.852 7.0542C116.767 7.01749 116.695 6.95633 116.644 6.87847C116.594 6.8006 116.568 6.70952 116.569 6.61674C116.57 6.52397 116.599 6.43366 116.652 6.35726C116.704 6.28085 116.778 6.22177 116.865 6.18749C116.951 6.15321 117.045 6.14527 117.136 6.16467C117.196 6.1775 117.253 6.20208 117.304 6.23701C117.355 6.27194 117.398 6.31653 117.432 6.36823C117.465 6.41993 117.488 6.47773 117.499 6.53831C117.511 6.5989 117.51 6.66109 117.497 6.72132Z" fill="#3E479B"/>
<path opacity="0.58" d="M18.2511 118.616C18.2318 118.707 18.1859 118.789 18.1194 118.854C18.0529 118.919 17.9688 118.962 17.8775 118.979C17.7863 118.996 17.6921 118.985 17.6069 118.949C17.5217 118.912 17.4493 118.851 17.3988 118.773C17.3483 118.695 17.322 118.604 17.3233 118.512C17.3246 118.419 17.3533 118.328 17.4059 118.252C17.4585 118.176 17.5325 118.116 17.6187 118.082C17.7049 118.048 17.7993 118.04 17.8901 118.059C18.0117 118.085 18.1181 118.158 18.1858 118.263C18.2535 118.367 18.277 118.494 18.2511 118.616Z" fill="#3E479B"/>
<path d="M52.0153 48.5873L49.9426 48.4294C49.7872 46.8995 49.3031 45.4212 48.5234 44.0957L50.1009 42.7421C50.4823 42.4121 50.7173 41.9445 50.7546 41.4416C50.792 40.9387 50.6285 40.4415 50.3001 40.0588C49.9717 39.6761 49.505 39.4391 49.0023 39.3997C48.4995 39.3603 48.0016 39.5217 47.6176 39.8486L46.0404 41.2022C44.8486 40.2305 43.461 39.5276 41.9725 39.1418L42.1308 37.069C42.1499 36.8194 42.1196 36.5685 42.0417 36.3306C41.9638 36.0927 41.8398 35.8724 41.6768 35.6824C41.5137 35.4925 41.3149 35.3364 41.0915 35.2233C40.8682 35.1102 40.6248 35.0422 40.3752 35.0231C39.871 34.9846 39.3722 35.1479 38.9884 35.4772C38.6047 35.8064 38.3674 36.2746 38.3289 36.7788L38.1709 38.8515C36.641 39.0069 35.1627 39.491 33.8373 40.2707L32.4837 38.6932C32.3217 38.4997 32.1229 38.3404 31.8989 38.2243C31.6749 38.1083 31.43 38.0379 31.1786 38.0171C30.9271 37.9964 30.6741 38.0258 30.4341 38.1036C30.1941 38.1814 29.9719 38.3061 29.7804 38.4704C29.589 38.6347 29.432 38.8354 29.3187 39.0608C29.2053 39.2862 29.1378 39.5318 29.1201 39.7835C29.1024 40.0352 29.1349 40.2879 29.2155 40.5269C29.2962 40.766 29.4235 40.9866 29.5901 41.1761L30.9437 42.7537C29.9717 43.9453 29.2689 45.333 28.8833 46.8216L26.8106 46.6618C26.3064 46.6234 25.8077 46.7867 25.4239 47.1159C25.0402 47.4452 24.803 47.9133 24.7643 48.4174C24.7259 48.9216 24.8893 49.4205 25.2186 49.8042C25.5479 50.1879 26.0161 50.4252 26.5203 50.4637L28.5931 50.6217C28.7481 52.1517 29.2322 53.63 30.0123 54.9553L28.4347 56.3119C28.2413 56.4739 28.0819 56.6727 27.9659 56.8967C27.8498 57.1207 27.7794 57.3656 27.7587 57.617C27.738 57.8685 27.7674 58.1215 27.8452 58.3615C27.923 58.6015 28.0476 58.8237 28.2119 59.0152C28.3762 59.2066 28.5769 59.3636 28.8023 59.4769C29.0277 59.5903 29.2734 59.6578 29.5251 59.6755C29.7767 59.6932 30.0294 59.6607 30.2685 59.5801C30.5075 59.4994 30.7282 59.3721 30.9177 59.2055L32.4952 57.8518C33.6867 58.8238 35.0743 59.5266 36.5628 59.9123L36.4048 61.985C36.3858 62.2346 36.416 62.4856 36.4939 62.7235C36.5719 62.9614 36.6959 63.1816 36.8589 63.3716C37.0219 63.5616 37.2208 63.7176 37.4441 63.8307C37.6674 63.9438 37.9109 64.0119 38.1605 64.0309C38.4101 64.05 38.6611 64.0198 38.899 63.9419C39.1369 63.864 39.3572 63.74 39.5472 63.577C39.7372 63.4139 39.8932 63.2151 40.0063 62.9917C40.1194 62.7683 40.1874 62.5249 40.2064 62.2753L40.3647 60.2025C41.8946 60.0473 43.3728 59.5632 44.698 58.7833L46.052 60.3609C46.214 60.5543 46.4127 60.7137 46.6368 60.8297C46.8608 60.9458 47.1056 61.0162 47.3571 61.0369C47.6085 61.0576 47.8616 61.0282 48.1016 60.9504C48.3416 60.8726 48.5638 60.748 48.7552 60.5837C48.9467 60.4194 49.1037 60.2187 49.217 59.9933C49.3304 59.7679 49.3978 59.5222 49.4155 59.2705C49.4332 59.0189 49.4008 58.7662 49.3201 58.5271C49.2394 58.2881 49.1121 58.0674 48.9455 57.8779L47.5915 56.3004C48.5636 55.1087 49.2666 53.7211 49.6523 52.2324L51.7251 52.3908C51.9747 52.4098 52.2256 52.3796 52.4635 52.3017C52.7014 52.2237 52.9217 52.0997 53.1117 51.9367C53.3017 51.7737 53.4577 51.5748 53.5708 51.3515C53.6839 51.1282 53.7519 50.8847 53.771 50.6351C53.7902 50.3854 53.76 50.1343 53.6822 49.8962C53.6044 49.6581 53.4804 49.4377 53.3174 49.2475C53.1543 49.0574 52.9554 48.9012 52.732 48.7879C52.5086 48.6746 52.2651 48.6065 52.0153 48.5873ZM38.6765 57.2687C34.3992 56.9453 31.1967 53.2123 31.5228 48.9346C31.8488 44.6569 35.5814 41.4548 39.8588 41.7808C44.1361 42.1068 47.3385 45.8395 47.0125 50.1165C46.6865 54.3934 42.9535 57.5974 38.6765 57.2706V57.2687Z" fill="white"/>
<path d="M96.3003 107.033C95.9633 107.032 95.6353 106.925 95.3636 106.725C95.0919 106.526 94.8906 106.245 94.7887 105.924L94.4161 104.746C93.4595 104.845 92.4929 104.762 91.5673 104.501L90.9991 105.596C90.903 105.781 90.7714 105.945 90.6117 106.079C90.4521 106.214 90.2676 106.315 90.0687 106.378C89.8698 106.441 89.6605 106.464 89.4527 106.446C89.2448 106.428 89.0426 106.37 88.8574 106.274C88.6723 106.178 88.5079 106.046 88.3736 105.886C88.2393 105.727 88.1378 105.542 88.0748 105.343C88.0118 105.144 87.9887 104.935 88.0066 104.727C88.0245 104.519 88.0832 104.317 88.1793 104.132L88.7471 103.037C88.0013 102.43 87.3769 101.688 86.9065 100.849L85.7306 101.222C85.5318 101.285 85.3224 101.308 85.1146 101.29C84.9068 101.272 84.7045 101.213 84.5193 101.117C84.3342 101.021 84.1698 100.889 84.0355 100.73C83.9012 100.57 83.7997 100.386 83.7367 100.187C83.6737 99.988 83.6505 99.7786 83.6685 99.5708C83.6864 99.363 83.7451 99.1607 83.8412 98.9755C83.9373 98.7904 84.0689 98.626 84.2285 98.4917C84.3882 98.3574 84.5727 98.2559 84.7716 98.1929L85.9475 97.8203C85.849 96.8636 85.9323 95.8969 86.193 94.9711L85.0983 94.4029C84.7289 94.2063 84.452 93.8718 84.3277 93.4722C84.2034 93.0726 84.2418 92.6401 84.4346 92.2686C84.6274 91.8971 84.9589 91.6167 85.3572 91.4883C85.7555 91.3599 86.1884 91.3938 86.5619 91.5827L87.6566 92.1509C88.2636 91.4051 89.006 90.7807 89.8448 90.3103L89.4722 89.1344C89.4092 88.9356 89.386 88.7262 89.404 88.5184C89.4219 88.3106 89.4806 88.1083 89.5767 87.9231C89.7708 87.5492 90.1054 87.2677 90.5071 87.1405C90.9087 87.0133 91.3444 87.0509 91.7184 87.245C92.0923 87.4391 92.3738 87.7737 92.501 88.1754L92.8736 89.3513C93.8303 89.2526 94.7971 89.3359 95.7228 89.5968L96.291 88.5021C96.4876 88.1327 96.8221 87.8558 97.2217 87.7315C97.6213 87.6072 98.0538 87.6456 98.4253 87.8384C98.7968 88.0312 99.0772 88.3627 99.2056 88.761C99.334 89.1594 99.3001 89.5923 99.1112 89.9657L98.543 91.0604C99.2889 91.6674 99.9134 92.41 100.384 93.249L101.559 92.8764C101.961 92.7492 102.397 92.7868 102.771 92.9809C103.145 93.1749 103.426 93.5096 103.553 93.9113C103.681 94.3129 103.643 94.7486 103.449 95.1225C103.255 95.4965 102.92 95.778 102.519 95.9052L101.343 96.2778C101.441 97.2344 101.358 98.201 101.097 99.1266L102.192 99.6948C102.377 99.7909 102.541 99.9225 102.676 100.082C102.81 100.242 102.911 100.426 102.974 100.625C103.037 100.824 103.061 101.033 103.043 101.241C103.025 101.449 102.966 101.651 102.87 101.836C102.774 102.022 102.642 102.186 102.483 102.32C102.323 102.455 102.138 102.556 101.939 102.619C101.741 102.682 101.531 102.705 101.323 102.687C101.116 102.669 100.913 102.611 100.728 102.515L99.6324 101.948C99.0253 102.694 98.2827 103.319 97.4438 103.789L97.8164 104.965C97.8914 105.203 97.9092 105.456 97.8685 105.702C97.8278 105.948 97.7296 106.182 97.582 106.383C97.4343 106.584 97.2413 106.748 97.0186 106.861C96.7959 106.974 96.5497 107.033 96.3 107.033H96.3003ZM94.7816 104.178L95.2843 105.767C95.325 105.902 95.3922 106.028 95.4821 106.138C95.572 106.247 95.6828 106.338 95.808 106.404C95.9331 106.47 96.0702 106.511 96.2113 106.523C96.3523 106.536 96.4944 106.521 96.6294 106.478C96.7644 106.435 96.8896 106.366 96.9976 106.274C97.1056 106.183 97.1943 106.071 97.2586 105.945C97.3229 105.818 97.3614 105.681 97.372 105.539C97.3825 105.398 97.3649 105.256 97.3201 105.122L96.8171 103.534L97.0097 103.432C97.9261 102.952 98.727 102.278 99.3571 101.458L99.4897 101.285L100.969 102.052C101.22 102.183 101.513 102.208 101.783 102.122C102.053 102.037 102.277 101.848 102.408 101.597C102.538 101.345 102.564 101.052 102.478 100.782C102.393 100.513 102.203 100.288 101.952 100.157L100.473 99.3897L100.538 99.1818C100.846 98.1945 100.936 97.152 100.802 96.1265L100.773 95.9104L102.362 95.4078C102.497 95.3671 102.623 95.2998 102.733 95.2099C102.842 95.12 102.933 95.0093 102.999 94.8841C103.065 94.7589 103.106 94.6218 103.118 94.4808C103.131 94.3398 103.116 94.1976 103.073 94.0626C103.03 93.9276 102.961 93.8025 102.869 93.6945C102.778 93.5864 102.666 93.4977 102.54 93.4334C102.413 93.3692 102.276 93.3306 102.135 93.3201C101.993 93.3095 101.851 93.3271 101.717 93.3719L100.129 93.8749L100.027 93.6823C99.5473 92.7658 98.8734 91.9648 98.0526 91.335L97.8797 91.2023L98.6477 89.7235C98.7727 89.4727 98.7941 89.1829 98.7074 88.9164C98.6206 88.65 98.4326 88.4283 98.1839 88.2993C97.9352 88.1702 97.6457 88.144 97.3779 88.2265C97.1101 88.3089 96.8854 88.4933 96.7523 88.7399L95.9847 90.2187L95.7768 90.1539C94.7895 89.8461 93.7471 89.7562 92.7216 89.8904L92.5055 89.9187L92.0025 88.3304C91.9602 88.1966 91.8919 88.0724 91.8016 87.965C91.7113 87.8576 91.6006 87.769 91.4761 87.7044C91.3515 87.6398 91.2154 87.6004 91.0755 87.5884C90.9357 87.5765 90.7949 87.5922 90.6611 87.6348C90.3912 87.7206 90.1663 87.91 90.0359 88.1615C89.9054 88.413 89.8801 88.706 89.9655 88.9761L90.4685 90.5637L90.2755 90.6654C89.3592 91.1457 88.5582 91.8195 87.9282 92.6402L87.7955 92.813L86.3167 92.0451C86.192 91.9778 86.0552 91.936 85.9142 91.9221C85.7732 91.9082 85.6308 91.9225 85.4954 91.9642C85.36 92.0059 85.2342 92.0741 85.1254 92.1649C85.0166 92.2557 84.927 92.3672 84.8617 92.4929C84.7964 92.6187 84.7569 92.7562 84.7453 92.8974C84.7337 93.0386 84.7503 93.1807 84.7941 93.3155C84.838 93.4502 84.9083 93.5748 85.0008 93.6822C85.0933 93.7895 85.2063 93.8773 85.3331 93.9405L86.8119 94.708L86.7471 94.9159C86.4388 95.9032 86.3489 96.9457 86.4836 97.9712L86.512 98.1873L84.9236 98.6903C84.7898 98.7326 84.6656 98.8009 84.5582 98.8912C84.4508 98.9815 84.3622 99.0921 84.2976 99.2167C84.233 99.3413 84.1936 99.4774 84.1817 99.6173C84.1697 99.7571 84.1854 99.8979 84.228 100.032C84.3137 100.302 84.5032 100.527 84.7547 100.657C85.0062 100.787 85.2992 100.813 85.5693 100.727L87.1577 100.224L87.259 100.417C87.7393 101.334 88.4131 102.135 89.2337 102.765L89.4063 102.897L88.641 104.374C88.5105 104.625 88.4852 104.918 88.5707 105.188C88.6562 105.458 88.8453 105.683 89.0966 105.813C89.3479 105.944 89.6407 105.969 89.9107 105.883C90.1806 105.798 90.4055 105.609 90.536 105.357L91.3035 103.879L91.5118 103.943C92.4991 104.251 93.5416 104.341 94.567 104.207L94.7816 104.178ZM93.6378 102.725C92.2048 102.726 90.8242 102.187 89.772 101.214C88.7197 100.241 88.0734 98.9073 87.9622 97.4787C87.8511 96.0501 88.2833 94.6321 89.1724 93.5084C90.0616 92.3846 91.3421 91.6379 92.758 91.4175C94.1739 91.1972 95.6208 91.5193 96.8094 92.3197C97.998 93.12 98.8407 94.3395 99.1691 95.7344C99.4974 97.1292 99.2871 98.5966 98.5802 99.8431C97.8734 101.09 96.7221 102.023 95.3566 102.458C94.8009 102.635 94.2211 102.725 93.6378 102.724V102.725ZM93.6501 91.8983C92.3882 91.8952 91.169 92.3547 90.223 93.1898C89.2771 94.025 88.6701 95.1779 88.5168 96.4304C88.3636 97.6829 88.6748 98.9482 89.3915 99.9868C90.1082 101.025 91.1807 101.765 92.4061 102.066C93.6315 102.367 94.9248 102.209 96.0413 101.621C97.1577 101.033 98.0199 100.056 98.4647 98.8751C98.9094 97.6942 98.906 96.3913 98.4549 95.2128C98.0038 94.0343 97.1364 93.062 96.0168 92.4799C95.2857 92.0995 94.4742 91.8998 93.6501 91.8976V91.8983Z" fill="white"/>
<path d="M109.977 97.3117C109.684 97.3113 109.394 97.2478 109.127 97.1257C108.861 97.0035 108.623 96.8255 108.431 96.6037C108.239 96.3818 108.097 96.1213 108.014 95.8398C107.932 95.5583 107.91 95.2623 107.952 94.9719L108.201 93.2579C106.947 92.8121 105.793 92.1252 104.804 91.2359L103.417 92.2709C102.982 92.5954 102.436 92.7338 101.9 92.6557C101.363 92.5777 100.879 92.2896 100.555 91.8548C100.23 91.42 100.092 90.8741 100.17 90.3373C100.248 89.8004 100.536 89.3165 100.971 88.9921L102.357 87.9571C101.786 86.7564 101.455 85.4554 101.384 84.1276L99.67 83.8787C99.1332 83.8008 98.6493 83.5128 98.3248 83.0781C98.0003 82.6434 97.8618 82.0976 97.9397 81.5608C98.0176 81.024 98.3056 80.5401 98.7403 80.2156C99.1749 79.8911 99.7207 79.7525 100.258 79.8305L101.971 80.079C102.417 78.8256 103.104 77.6716 103.993 76.6824L102.958 75.2956C102.797 75.0804 102.681 74.8355 102.615 74.5751C102.549 74.3148 102.535 74.0439 102.573 73.7781C102.612 73.5122 102.702 73.2566 102.84 73.0258C102.977 72.795 103.159 72.5935 103.374 72.4328C103.589 72.2722 103.834 72.1555 104.095 72.0894C104.355 72.0234 104.626 72.0093 104.892 72.0479C105.158 72.0866 105.413 72.1772 105.644 72.3146C105.875 72.452 106.076 72.6335 106.237 72.8488L107.272 74.2356C108.474 73.664 109.776 73.3336 111.105 73.2632L111.354 71.5492C111.432 71.0124 111.72 70.5285 112.155 70.2041C112.59 69.8796 113.135 69.7411 113.672 69.8191C114.209 69.8971 114.693 70.1851 115.017 70.6198C115.342 71.0545 115.48 71.6004 115.402 72.1372L115.154 73.8511C116.407 74.2967 117.561 74.9836 118.55 75.8732L119.938 74.8377C120.153 74.6771 120.398 74.5604 120.658 74.4944C120.918 74.4284 121.189 74.4143 121.455 74.453C121.721 74.4916 121.976 74.5822 122.207 74.7197C122.438 74.8571 122.64 75.0386 122.8 75.2539C122.961 75.4692 123.077 75.714 123.143 75.9744C123.209 76.2348 123.224 76.5056 123.185 76.7714C123.146 77.0372 123.056 77.2928 122.918 77.5236C122.781 77.7544 122.599 77.9559 122.384 78.1165L120.997 79.152C121.568 80.3532 121.898 81.6547 121.969 82.983L123.683 83.2322C124.22 83.3102 124.703 83.5982 125.028 84.0329C125.352 84.4676 125.491 85.0134 125.413 85.5501C125.335 86.0869 125.047 86.5707 124.612 86.8952C124.177 87.2196 123.632 87.358 123.095 87.2801L121.381 87.0316C120.935 88.2851 120.249 89.4391 119.359 90.4285L120.394 91.8153C120.558 92.0304 120.677 92.2757 120.745 92.537C120.813 92.7983 120.828 93.0705 120.79 93.3379C120.753 93.6053 120.662 93.8625 120.525 94.0948C120.387 94.3271 120.205 94.5299 119.988 94.6913C119.772 94.8528 119.525 94.9698 119.264 95.0357C119.002 95.1015 118.729 95.1148 118.462 95.0749C118.195 95.035 117.939 94.9425 117.708 94.803C117.476 94.6634 117.275 94.4794 117.116 94.2617L116.081 92.8749C114.879 93.4462 113.578 93.7765 112.249 93.847L112 95.5609C111.929 96.0467 111.685 96.4906 111.314 96.812C110.943 97.1333 110.468 97.3106 109.977 97.3117ZM104.84 90.5607L104.999 90.7098C106.022 91.6694 107.241 92.3952 108.572 92.8369L108.778 92.9058L108.467 95.0471C108.409 95.4473 108.512 95.8543 108.754 96.1784C108.996 96.5025 109.357 96.7172 109.757 96.7754C110.157 96.8335 110.564 96.7303 110.888 96.4885C111.212 96.2466 111.427 95.8859 111.485 95.4857L111.796 93.344L112.014 93.3366C113.416 93.292 114.791 92.9431 116.044 92.3142L116.239 92.2169L117.534 93.9513C117.777 94.27 118.137 94.4797 118.534 94.535C118.932 94.5903 119.335 94.4867 119.656 94.2467C119.978 94.0067 120.192 93.6497 120.252 93.2529C120.312 92.8562 120.213 92.4519 119.977 92.1275L118.683 90.3931L118.832 90.234C119.791 89.2112 120.517 87.9922 120.959 86.6612L121.028 86.4548L123.169 86.7655C123.367 86.7943 123.569 86.7838 123.763 86.7346C123.957 86.6853 124.14 86.5984 124.3 86.4786C124.461 86.3588 124.596 86.2086 124.698 86.0366C124.801 85.8645 124.868 85.674 124.897 85.4758C124.926 85.2776 124.916 85.0757 124.866 84.8816C124.817 84.6875 124.73 84.505 124.61 84.3446C124.491 84.1841 124.34 84.0487 124.168 83.9463C123.996 83.8439 123.806 83.7763 123.608 83.7475L121.466 83.4364L121.458 83.2184C121.414 81.8165 121.065 80.4411 120.436 79.1874L120.338 78.9925L122.072 77.6981C122.396 77.456 122.611 77.0951 122.669 76.6948C122.727 76.2945 122.623 75.8876 122.381 75.5635C122.139 75.2395 121.778 75.0249 121.378 74.967C120.978 74.9091 120.571 75.0126 120.247 75.2547L118.512 76.549L118.353 76.4C117.331 75.4403 116.112 74.7145 114.78 74.2729L114.574 74.2039L114.885 72.0623C114.914 71.8641 114.903 71.6622 114.854 71.4681C114.805 71.2741 114.718 71.0916 114.598 70.9311C114.478 70.7706 114.328 70.6353 114.156 70.5329C113.984 70.4305 113.793 70.363 113.595 70.3342C113.397 70.3054 113.195 70.316 113.001 70.3652C112.807 70.4145 112.624 70.5015 112.464 70.6213C112.303 70.741 112.168 70.8913 112.066 71.0633C111.963 71.2354 111.896 71.426 111.867 71.6241L111.556 73.7658L111.338 73.7729C109.937 73.8175 108.561 74.1664 107.308 74.7953L107.113 74.8925L105.819 73.1585C105.699 72.998 105.548 72.8628 105.376 72.7605C105.204 72.6582 105.013 72.5907 104.815 72.5621C104.617 72.5334 104.415 72.5441 104.221 72.5934C104.027 72.6428 103.845 72.7299 103.684 72.8498C103.524 72.9696 103.388 73.1199 103.286 73.2921C103.184 73.4642 103.116 73.6548 103.088 73.853C103.059 74.0512 103.07 74.2531 103.119 74.4472C103.168 74.6413 103.256 74.8237 103.375 74.9842L104.67 76.7182L104.521 76.8773C103.561 77.9 102.836 79.1191 102.394 80.4501L102.325 80.6569L100.183 80.3458C99.7832 80.2877 99.3763 80.3909 99.0522 80.6328C98.7282 80.8747 98.5134 81.2355 98.4553 81.6357C98.3972 82.0359 98.5005 82.4428 98.7424 82.7669C98.9843 83.0909 99.345 83.3057 99.7453 83.3638L101.887 83.6749L101.894 83.8928C101.938 85.2945 102.287 86.6697 102.916 87.9232L103.014 88.118L101.279 89.4124C101.119 89.5322 100.984 89.6823 100.881 89.8544C100.779 90.0264 100.711 90.2169 100.683 90.415C100.654 90.6131 100.664 90.815 100.714 91.009C100.763 91.203 100.85 91.3855 100.97 91.5459C101.089 91.7063 101.24 91.8416 101.412 91.9439C101.584 92.0463 101.774 92.1138 101.972 92.1425C102.17 92.1713 102.372 92.1607 102.566 92.1115C102.76 92.0622 102.943 91.9753 103.103 91.8555L104.84 90.5607ZM111.687 91.085C110.513 91.0873 109.355 90.8151 108.305 90.29C107.255 89.7649 106.343 89.0016 105.641 88.061C103.157 84.7319 103.844 80.003 107.172 77.5189C108.774 76.3482 110.774 75.857 112.736 76.1522C114.699 76.4474 116.465 77.505 117.652 79.0953C118.839 80.6856 119.351 82.68 119.075 84.6453C118.8 86.6105 117.761 88.3878 116.183 89.5909C114.885 90.562 113.308 91.0863 111.687 91.085ZM111.663 76.5427C110.155 76.5426 108.689 77.0317 107.484 77.9366C104.386 80.2489 103.746 84.6511 106.058 87.7495C108.37 90.848 112.773 91.4863 115.871 89.1743C116.982 88.3448 117.822 87.2045 118.285 85.8976C118.748 84.5908 118.813 83.176 118.472 81.8321C118.131 80.4883 117.399 79.2756 116.369 78.3476C115.339 77.4195 114.057 76.8176 112.685 76.618C112.347 76.5681 112.005 76.5427 111.663 76.542V76.5427Z" fill="white"/>
<path d="M76.3018 98.3585H70.9517C70.8826 98.3585 70.8162 98.3311 70.7673 98.2822C70.7184 98.2332 70.6909 98.1669 70.6909 98.0977C70.6909 98.0286 70.7184 97.9622 70.7673 97.9133C70.8162 97.8644 70.8826 97.8369 70.9517 97.8369H76.3018C76.371 97.8369 76.4373 97.8644 76.4862 97.9133C76.5351 97.9622 76.5626 98.0286 76.5626 98.0977C76.5626 98.1669 76.5351 98.2332 76.4862 98.2822C76.4373 98.3311 76.371 98.3585 76.3018 98.3585Z" fill="white"/>
<path d="M76.3018 103.922H70.9517C70.8826 103.922 70.8162 103.895 70.7673 103.846C70.7184 103.797 70.6909 103.73 70.6909 103.661C70.6909 103.592 70.7184 103.526 70.7673 103.477C70.8162 103.428 70.8826 103.4 70.9517 103.4H76.3018C76.371 103.4 76.4373 103.428 76.4862 103.477C76.5351 103.526 76.5626 103.592 76.5626 103.661C76.5626 103.73 76.5351 103.797 76.4862 103.846C76.4373 103.895 76.371 103.922 76.3018 103.922Z" fill="white"/>
<path d="M80.3403 109.537H47.2973C47.1095 109.537 46.9295 109.462 46.7967 109.329C46.6639 109.197 46.5894 109.017 46.5894 108.829V91.6806C46.5894 91.4928 46.6639 91.3128 46.7967 91.18C46.9295 91.0472 47.1095 90.9727 47.2973 90.9727H80.3403C80.528 90.9727 80.7081 91.0472 80.8408 91.18C80.9736 91.3128 81.0482 91.4928 81.0482 91.6806V108.831C81.0477 109.018 80.9729 109.198 80.8402 109.33C80.7075 109.462 80.5277 109.537 80.3403 109.537ZM47.2973 91.495C47.2479 91.495 47.2005 91.5147 47.1655 91.5496C47.1306 91.5845 47.111 91.6319 47.111 91.6813V108.831C47.111 108.881 47.1306 108.928 47.1655 108.963C47.2005 108.998 47.2479 109.018 47.2973 109.018H80.3403C80.3897 109.018 80.437 108.998 80.472 108.963C80.5069 108.928 80.5265 108.881 80.5265 108.831V91.6806C80.5265 91.6312 80.5069 91.5838 80.472 91.5488C80.437 91.5139 80.3897 91.4943 80.3403 91.4943L47.2973 91.495Z" fill="white"/>
<path opacity="0.66" d="M80.3403 109.537H47.2973C47.1095 109.537 46.9295 109.462 46.7967 109.329C46.6639 109.197 46.5894 109.017 46.5894 108.829V91.6806C46.5894 91.4928 46.6639 91.3128 46.7967 91.18C46.9295 91.0472 47.1095 90.9727 47.2973 90.9727H80.3403C80.528 90.9727 80.7081 91.0472 80.8408 91.18C80.9736 91.3128 81.0482 91.4928 81.0482 91.6806V108.831C81.0477 109.018 80.9729 109.198 80.8402 109.33C80.7075 109.462 80.5277 109.537 80.3403 109.537ZM47.2973 91.495C47.2479 91.495 47.2005 91.5147 47.1655 91.5496C47.1306 91.5845 47.111 91.6319 47.111 91.6813V108.831C47.111 108.881 47.1306 108.928 47.1655 108.963C47.2005 108.998 47.2479 109.018 47.2973 109.018H80.3403C80.3897 109.018 80.437 108.998 80.472 108.963C80.5069 108.928 80.5265 108.881 80.5265 108.831V91.6806C80.5265 91.6312 80.5069 91.5838 80.472 91.5488C80.437 91.5139 80.3897 91.4943 80.3403 91.4943L47.2973 91.495Z" fill="white"/>
<path d="M76.3012 95.6623H50.8062C50.7371 95.6623 50.6707 95.6348 50.6218 95.5859C50.5729 95.537 50.5454 95.4706 50.5454 95.4014C50.5454 95.3323 50.5729 95.2659 50.6218 95.217C50.6707 95.1681 50.7371 95.1406 50.8062 95.1406H76.3012C76.3704 95.1406 76.4367 95.1681 76.4856 95.217C76.5346 95.2659 76.562 95.3323 76.562 95.4014C76.562 95.4706 76.5346 95.537 76.4856 95.5859C76.4367 95.6348 76.3704 95.6623 76.3012 95.6623Z" fill="white"/>
<path d="M76.3012 101.057H50.8062C50.7371 101.057 50.6707 101.029 50.6218 100.98C50.5729 100.931 50.5454 100.865 50.5454 100.796C50.5454 100.727 50.5729 100.66 50.6218 100.612C50.6707 100.563 50.7371 100.535 50.8062 100.535H76.3012C76.3704 100.535 76.4367 100.563 76.4856 100.612C76.5346 100.66 76.562 100.727 76.562 100.796C76.562 100.865 76.5346 100.931 76.4856 100.98C76.4367 101.029 76.3704 101.057 76.3012 101.057Z" fill="white"/>
<path d="M64.5515 98.3585H50.8062C50.7371 98.3585 50.6707 98.3311 50.6218 98.2822C50.5729 98.2332 50.5454 98.1669 50.5454 98.0977C50.5454 98.0286 50.5729 97.9622 50.6218 97.9133C50.6707 97.8644 50.7371 97.8369 50.8062 97.8369H64.5515C64.6207 97.8369 64.687 97.8644 64.7359 97.9133C64.7849 97.9622 64.8123 98.0286 64.8123 98.0977C64.8123 98.1669 64.7849 98.2332 64.7359 98.2822C64.687 98.3311 64.6207 98.3585 64.5515 98.3585Z" fill="white"/>
<path d="M64.5515 103.922H50.8062C50.7371 103.922 50.6707 103.895 50.6218 103.846C50.5729 103.797 50.5454 103.73 50.5454 103.661C50.5454 103.592 50.5729 103.526 50.6218 103.477C50.6707 103.428 50.7371 103.4 50.8062 103.4H64.5515C64.6207 103.4 64.687 103.428 64.7359 103.477C64.7849 103.526 64.8123 103.592 64.8123 103.661C64.8123 103.73 64.7849 103.797 64.7359 103.846C64.687 103.895 64.6207 103.922 64.5515 103.922Z" fill="white"/>
<path d="M60.0759 106.497H50.8062C50.7371 106.497 50.6707 106.47 50.6218 106.421C50.5729 106.372 50.5454 106.306 50.5454 106.236C50.5454 106.167 50.5729 106.101 50.6218 106.052C50.6707 106.003 50.7371 105.976 50.8062 105.976H60.0759C60.1451 105.976 60.2115 106.003 60.2604 106.052C60.3093 106.101 60.3368 106.167 60.3368 106.236C60.3368 106.306 60.3093 106.372 60.2604 106.421C60.2115 106.47 60.1451 106.497 60.0759 106.497Z" fill="white"/>
<path d="M25.1143 81.6847H19.0992C19.03 81.6847 18.9637 81.6572 18.9148 81.6083C18.8659 81.5594 18.8384 81.4931 18.8384 81.4239C18.8384 81.3547 18.8659 81.2884 18.9148 81.2395C18.9637 81.1906 19.03 81.1631 19.0992 81.1631H25.1143C25.1835 81.1631 25.2498 81.1906 25.2987 81.2395C25.3477 81.2884 25.3751 81.3547 25.3751 81.4239C25.3751 81.4931 25.3477 81.5594 25.2987 81.6083C25.2498 81.6572 25.1835 81.6847 25.1143 81.6847Z" fill="white"/>
<path d="M25.1143 75.4347H19.0992C19.03 75.4347 18.9637 75.4072 18.9148 75.3583C18.8659 75.3094 18.8384 75.2431 18.8384 75.1739C18.8384 75.1047 18.8659 75.0384 18.9148 74.9895C18.9637 74.9406 19.03 74.9131 19.0992 74.9131H25.1143C25.1835 74.9131 25.2498 74.9406 25.2987 74.9895C25.3477 75.0384 25.3751 75.1047 25.3751 75.1739C25.3751 75.2431 25.3477 75.3094 25.2987 75.3583C25.2498 75.4072 25.1835 75.4347 25.1143 75.4347Z" fill="white"/>
<path d="M51.7542 89.4003H14.5039C14.3165 89.3998 14.1369 89.325 14.0045 89.1923C13.8722 89.0596 13.7979 88.8798 13.7979 88.6924V69.3075C13.7979 69.1201 13.8722 68.9403 14.0045 68.8076C14.1369 68.6749 14.3165 68.6001 14.5039 68.5996H51.7542C51.9419 68.5996 52.122 68.6742 52.2548 68.807C52.3875 68.9397 52.4621 69.1198 52.4621 69.3075V88.6939C52.4617 88.8814 52.387 89.0611 52.2542 89.1935C52.1215 89.3259 51.9417 89.4003 51.7542 89.4003ZM14.5039 69.1224C14.4545 69.1224 14.4071 69.142 14.3722 69.1769C14.3372 69.2119 14.3176 69.2592 14.3176 69.3087V88.695C14.3176 88.7444 14.3372 88.7918 14.3722 88.8267C14.4071 88.8617 14.4545 88.8813 14.5039 88.8813H51.7542C51.8036 88.8813 51.851 88.8617 51.8859 88.8267C51.9209 88.7918 51.9405 88.7444 51.9405 88.695V69.3075C51.9405 69.2581 51.9209 69.2107 51.8859 69.1758C51.851 69.1409 51.8036 69.1212 51.7542 69.1212L14.5039 69.1224Z" fill="white"/>
<path opacity="0.66" d="M51.7542 89.4003H14.5039C14.3165 89.3998 14.1369 89.325 14.0045 89.1923C13.8722 89.0596 13.7979 88.8798 13.7979 88.6924V69.3075C13.7979 69.1201 13.8722 68.9403 14.0045 68.8076C14.1369 68.6749 14.3165 68.6001 14.5039 68.5996H51.7542C51.9419 68.5996 52.122 68.6742 52.2548 68.807C52.3875 68.9397 52.4621 69.1198 52.4621 69.3075V88.6939C52.4617 88.8814 52.387 89.0611 52.2542 89.1935C52.1215 89.3259 51.9417 89.4003 51.7542 89.4003ZM14.5039 69.1224C14.4545 69.1224 14.4071 69.142 14.3722 69.1769C14.3372 69.2119 14.3176 69.2592 14.3176 69.3087V88.695C14.3176 88.7444 14.3372 88.7918 14.3722 88.8267C14.4071 88.8617 14.4545 88.8813 14.5039 88.8813H51.7542C51.8036 88.8813 51.851 88.8617 51.8859 88.8267C51.9209 88.7918 51.9405 88.7444 51.9405 88.695V69.3075C51.9405 69.2581 51.9209 69.2107 51.8859 69.1758C51.851 69.1409 51.8036 69.1212 51.7542 69.1212L14.5039 69.1224Z" fill="white"/>
<path d="M47.7541 84.7179H19.0992C19.03 84.7179 18.9637 84.6904 18.9148 84.6415C18.8659 84.5926 18.8384 84.5263 18.8384 84.4571C18.8384 84.3879 18.8659 84.3216 18.9148 84.2727C18.9637 84.2238 19.03 84.1963 19.0992 84.1963H47.7541C47.8233 84.1963 47.8897 84.2238 47.9386 84.2727C47.9875 84.3216 48.015 84.3879 48.015 84.4571C48.015 84.5263 47.9875 84.5926 47.9386 84.6415C47.8897 84.6904 47.8233 84.7179 47.7541 84.7179Z" fill="white"/>
<path d="M47.7541 78.6525H19.0992C19.03 78.6525 18.9637 78.625 18.9148 78.5761C18.8659 78.5272 18.8384 78.4608 18.8384 78.3917C18.8384 78.3225 18.8659 78.2562 18.9148 78.2072C18.9637 78.1583 19.03 78.1309 19.0992 78.1309H47.7541C47.8233 78.1309 47.8897 78.1583 47.9386 78.2072C47.9875 78.2562 48.015 78.3225 48.015 78.3917C48.015 78.4608 47.9875 78.5272 47.9386 78.5761C47.8897 78.625 47.8233 78.6525 47.7541 78.6525Z" fill="white"/>
<path d="M47.7536 81.6847H32.3048C32.2356 81.6847 32.1692 81.6572 32.1203 81.6083C32.0714 81.5594 32.0439 81.4931 32.0439 81.4239C32.0439 81.3547 32.0714 81.2884 32.1203 81.2395C32.1692 81.1906 32.2356 81.1631 32.3048 81.1631H47.7539C47.8231 81.1631 47.8894 81.1906 47.9383 81.2395C47.9873 81.2884 48.0147 81.3547 48.0147 81.4239C48.0147 81.4931 47.9873 81.5594 47.9383 81.6083C47.8894 81.6572 47.8231 81.6847 47.7539 81.6847H47.7536Z" fill="white"/>
<path d="M47.7536 75.4347H32.3048C32.2356 75.4347 32.1692 75.4072 32.1203 75.3583C32.0714 75.3094 32.0439 75.2431 32.0439 75.1739C32.0439 75.1047 32.0714 75.0384 32.1203 74.9895C32.1692 74.9406 32.2356 74.9131 32.3048 74.9131H47.7539C47.8231 74.9131 47.8894 74.9406 47.9383 74.9895C47.9873 75.0384 48.0147 75.1047 48.0147 75.1739C48.0147 75.2431 47.9873 75.3094 47.9383 75.3583C47.8894 75.4072 47.8231 75.4347 47.7539 75.4347H47.7536Z" fill="white"/>
<path d="M47.7543 72.5382H37.3355C37.2663 72.5382 37.2 72.5108 37.1511 72.4618C37.1022 72.4129 37.0747 72.3466 37.0747 72.2774C37.0747 72.2082 37.1022 72.1419 37.1511 72.093C37.2 72.0441 37.2663 72.0166 37.3355 72.0166H47.7543C47.8235 72.0166 47.8898 72.0441 47.9387 72.093C47.9877 72.1419 48.0151 72.2082 48.0151 72.2774C48.0151 72.3466 47.9877 72.4129 47.9387 72.4618C47.8898 72.5108 47.8235 72.5382 47.7543 72.5382Z" fill="white"/>
<path opacity="0.14" d="M95.1387 99.924L66.6406 83.028C66.5309 82.9625 66.4516 82.8562 66.4199 82.7324C66.3882 82.6086 66.4068 82.4773 66.4715 82.3671L89.4768 43.5649C89.5424 43.4552 89.6486 43.3759 89.7724 43.3442C89.8962 43.3125 90.0276 43.3311 90.1378 43.3958L118.635 60.2921C118.744 60.3577 118.823 60.464 118.855 60.5877C118.887 60.7114 118.868 60.8426 118.804 60.9527L95.7993 99.7544C95.7671 99.809 95.7244 99.8566 95.6738 99.8946C95.6231 99.9327 95.5655 99.9603 95.5041 99.9761C95.4428 99.9918 95.3789 99.9953 95.3162 99.9864C95.2535 99.9774 95.1932 99.9562 95.1387 99.924Z" fill="#2E44D0"/>
<path d="M94.3984 98.3688L65.9003 81.4729C65.7903 81.4077 65.7107 81.3014 65.6791 81.1775C65.6474 81.0536 65.6663 80.9223 65.7315 80.8123L88.7368 42.0098C88.7691 41.9553 88.8118 41.9077 88.8624 41.8697C88.9131 41.8317 88.9708 41.8041 89.0321 41.7884C89.0935 41.7728 89.1573 41.7693 89.22 41.7784C89.2827 41.7874 89.343 41.8087 89.3974 41.841L117.896 58.7369C117.95 58.7692 117.998 58.8119 118.036 58.8626C118.074 58.9132 118.101 58.9709 118.117 59.0322C118.133 59.0936 118.136 59.1574 118.127 59.2201C118.118 59.2828 118.097 59.3431 118.064 59.3975L95.059 98.2C95.0267 98.2545 94.984 98.3021 94.9333 98.3401C94.8827 98.3781 94.825 98.4057 94.7637 98.4214C94.7023 98.4371 94.6385 98.4405 94.5758 98.4315C94.5131 98.4225 94.4528 98.4012 94.3984 98.3688Z" fill="#F7A9B4"/>
<path opacity="0.14" d="M102.584 97.8924L70.0026 91.8865C69.8769 91.8634 69.7655 91.7912 69.693 91.6859C69.6205 91.5806 69.5927 91.4508 69.6159 91.325L77.7932 46.9627C77.8169 46.8373 77.8892 46.7263 77.9943 46.6538C78.0995 46.5814 78.229 46.5534 78.3547 46.576L110.936 52.5829C111.062 52.6066 111.173 52.6789 111.245 52.7841C111.318 52.8892 111.346 53.0187 111.323 53.1444L103.146 97.5056C103.123 97.6313 103.05 97.7427 102.945 97.8153C102.84 97.8878 102.71 97.9155 102.584 97.8924Z" fill="#2E44D0"/>
<path d="M77.1765 45.2376L68.8276 90.5488L102.358 96.727L110.707 51.4157L77.1765 45.2376Z" fill="white"/>
<path opacity="0.39" d="M101.887 96.6463L69.3059 90.6404C69.2436 90.629 69.1842 90.6054 69.1311 90.571C69.0779 90.5366 69.0321 90.492 68.9961 90.4399C68.9602 90.3877 68.9349 90.329 68.9217 90.2671C68.9085 90.2051 68.9077 90.1412 68.9192 90.079L77.0965 45.7166C77.1202 45.5912 77.1925 45.4802 77.2976 45.4077C77.4028 45.3353 77.5323 45.3073 77.658 45.3299L110.24 51.3357C110.365 51.3594 110.476 51.4317 110.549 51.5369C110.621 51.642 110.649 51.7715 110.626 51.8972L102.449 96.2595C102.425 96.385 102.353 96.4961 102.248 96.5686C102.143 96.641 102.013 96.6689 101.887 96.6463Z" fill="#F7A9B4"/>
<path d="M105.64 56.7583C105.624 56.7582 105.608 56.7568 105.592 56.7542L97.4367 55.2508C97.4017 55.2461 97.368 55.2343 97.3376 55.2162C97.3073 55.1981 97.2809 55.174 97.2602 55.1454C97.2394 55.1168 97.2247 55.0843 97.2169 55.0498C97.2091 55.0153 97.2084 54.9796 97.2148 54.9449C97.2212 54.9101 97.2346 54.877 97.2542 54.8476C97.2738 54.8182 97.2992 54.7931 97.3288 54.7738C97.3584 54.7545 97.3916 54.7414 97.4264 54.7353C97.4613 54.7293 97.497 54.7303 97.5314 54.7385L105.687 56.2419C105.75 56.2546 105.806 56.2902 105.844 56.3417C105.883 56.3932 105.901 56.4571 105.895 56.5211C105.889 56.5851 105.86 56.6447 105.813 56.6885C105.766 56.7323 105.704 56.7571 105.64 56.7583Z" fill="white"/>
<path d="M105.16 59.3653C105.144 59.3652 105.128 59.3637 105.112 59.3608L96.9566 57.8574C96.8915 57.842 96.8348 57.8021 96.7982 57.746C96.7617 57.69 96.748 57.622 96.7602 57.5562C96.7724 57.4904 96.8093 57.4318 96.8635 57.3925C96.9177 57.3532 96.9849 57.3362 97.0512 57.3451L105.207 58.8485C105.27 58.8608 105.327 58.8963 105.366 58.9479C105.404 58.9996 105.423 59.0638 105.417 59.1281C105.411 59.1924 105.381 59.2522 105.334 59.296C105.287 59.3399 105.225 59.3645 105.16 59.3653Z" fill="white"/>
<path d="M104.637 62.195C104.622 62.1949 104.606 62.1935 104.59 62.1909L96.4341 60.6875C96.369 60.672 96.3123 60.6322 96.2757 60.5761C96.2392 60.5201 96.2256 60.4521 96.2377 60.3863C96.2499 60.3205 96.2869 60.2619 96.3411 60.2226C96.3952 60.1833 96.4624 60.1663 96.5288 60.1752L104.685 61.6786C104.748 61.6913 104.804 61.7269 104.842 61.7785C104.881 61.83 104.899 61.894 104.893 61.958C104.887 62.022 104.858 62.0816 104.811 62.1254C104.763 62.1691 104.702 62.1939 104.637 62.195Z" fill="white"/>
<path opacity="0.14" d="M92.0203 64.6039L78.0481 62.0281C77.9807 62.0158 77.9163 61.9902 77.8588 61.9529C77.8012 61.9157 77.7515 61.8674 77.7126 61.8109C77.6737 61.7545 77.6464 61.6909 77.6321 61.6238C77.6178 61.5567 77.6168 61.4875 77.6293 61.4201L80.3996 46.3923C80.4119 46.3249 80.4375 46.2606 80.4747 46.203C80.512 46.1455 80.5602 46.0959 80.6166 46.057C80.6731 46.0181 80.7366 45.9907 80.8036 45.9764C80.8707 45.962 80.9399 45.9611 81.0073 45.9735L94.9813 48.5492C95.0487 48.5616 95.1131 48.5872 95.1706 48.6245C95.2281 48.6618 95.2777 48.7101 95.3166 48.7665C95.3554 48.823 95.3828 48.8866 95.3971 48.9536C95.4113 49.0207 95.4122 49.0899 95.3997 49.1573L92.6284 64.1851C92.616 64.2525 92.5905 64.3169 92.5532 64.3744C92.5159 64.432 92.4677 64.4817 92.4112 64.5206C92.3547 64.5594 92.2911 64.5868 92.2241 64.6011C92.157 64.6154 92.0878 64.6163 92.0203 64.6039Z" fill="#2E44D0"/>
<path d="M91.506 63.7338L78.1844 61.278C78.1169 61.2657 78.0526 61.2401 77.995 61.2028C77.9374 61.1656 77.8878 61.1173 77.8489 61.0608C77.81 61.0044 77.7826 60.9408 77.7683 60.8737C77.754 60.8066 77.7531 60.7374 77.7656 60.67L80.3882 46.4422C80.4006 46.3747 80.4262 46.3104 80.4634 46.2528C80.5007 46.1952 80.549 46.1456 80.6054 46.1067C80.6619 46.0678 80.7255 46.0404 80.7926 46.0261C80.8596 46.0118 80.9289 46.0109 80.9963 46.0234L94.318 48.4791C94.3854 48.4915 94.4497 48.5171 94.5072 48.5544C94.5647 48.5917 94.6144 48.64 94.6532 48.6964C94.6921 48.7529 94.7194 48.8165 94.7337 48.8835C94.748 48.9506 94.7489 49.0198 94.7364 49.0872L92.1141 63.3154C92.1017 63.3828 92.0761 63.4471 92.0388 63.5046C92.0015 63.5622 91.9533 63.6118 91.8968 63.6506C91.8403 63.6895 91.7767 63.7168 91.7097 63.7311C91.6426 63.7454 91.5734 63.7463 91.506 63.7338Z" fill="#599AF2"/>
<path opacity="0.07" d="M94.4898 50.4277L80.1416 47.7823L80.3916 46.4246C80.4161 46.2925 80.4919 46.1755 80.6026 46.0992C80.7133 46.023 80.8496 45.9938 80.9818 46.0181L94.35 48.4843C94.4131 48.4959 94.4733 48.5198 94.5272 48.5547C94.581 48.5896 94.6275 48.6347 94.6639 48.6876C94.7003 48.7404 94.7259 48.7999 94.7393 48.8626C94.7527 48.9254 94.7536 48.9901 94.742 49.0532L94.4898 50.4277Z" fill="#ECF1F7"/>
<path d="M84.155 54.8593C84.0523 54.8592 83.9498 54.8497 83.8487 54.831L83.6502 54.7937C83.1431 54.6995 82.694 54.408 82.4014 53.9832C82.1089 53.5585 81.9967 53.035 82.0894 52.5276L82.5905 49.8077C82.6108 49.7072 82.6697 49.6187 82.7546 49.5612C82.8395 49.5038 82.9436 49.482 83.0444 49.5006C83.1453 49.5191 83.2348 49.5766 83.2936 49.6605C83.3525 49.7445 83.376 49.8482 83.3592 49.9493L82.858 52.6692C82.8024 52.9728 82.8695 53.2861 83.0445 53.5403C83.2196 53.7946 83.4883 53.969 83.7917 54.0254L83.9903 54.0627C84.2264 54.1061 84.4699 54.054 84.6675 53.9178C84.8651 53.7816 85.0006 53.5725 85.044 53.3365L86.3127 46.4551C86.3574 46.2116 86.3037 45.9602 86.1633 45.7562C86.0229 45.5523 85.8073 45.4123 85.5638 45.3671L85.224 45.3046C84.9653 45.257 84.6984 45.3141 84.4818 45.4633C84.2653 45.6124 84.1168 45.8415 84.069 46.1L84.038 46.2696C84.0174 46.3697 83.9584 46.4578 83.8736 46.5149C83.7889 46.572 83.6851 46.5937 83.5846 46.5752C83.484 46.5567 83.3947 46.4996 83.3358 46.4161C83.2769 46.3326 83.253 46.2293 83.2694 46.1284L83.3007 45.9585C83.3862 45.4961 83.6516 45.0865 84.0387 44.8196C84.4258 44.5527 84.903 44.4503 85.3656 44.5348L85.7054 44.5974C86.1524 44.6803 86.5484 44.9372 86.8063 45.3116C87.0643 45.6861 87.1632 46.1476 87.0814 46.5948L85.8127 53.477C85.741 53.8646 85.536 54.2149 85.2333 54.4673C84.9306 54.7197 84.5492 54.8584 84.155 54.8593Z" fill="#2E44D0"/>
<path d="M85.5099 49.0822C85.502 49.0829 85.494 49.0829 85.4861 49.0822L80.2798 48.1224C80.263 48.1193 80.247 48.1129 80.2327 48.1036C80.2183 48.0943 80.2059 48.0823 80.1963 48.0682C80.1866 48.0541 80.1798 48.0382 80.1762 48.0215C80.1726 48.0048 80.1724 47.9876 80.1755 47.9708C80.1786 47.9539 80.185 47.9379 80.1943 47.9236C80.2036 47.9092 80.2156 47.8969 80.2297 47.8872C80.2438 47.8775 80.2597 47.8707 80.2764 47.8671C80.2931 47.8636 80.3103 47.8633 80.3271 47.8664L85.5334 48.8259C85.5656 48.8314 85.5946 48.8488 85.6146 48.8748C85.6345 48.9007 85.644 48.9332 85.641 48.9658C85.638 48.9984 85.6229 49.0287 85.5986 49.0506C85.5743 49.0725 85.5426 49.0845 85.5099 49.0841V49.0822Z" fill="white"/>
<path d="M101.431 75.9945C101.415 75.9946 101.399 75.9931 101.384 75.99L76.4631 71.3963C76.428 71.3916 76.3943 71.3798 76.364 71.3617C76.3336 71.3436 76.3073 71.3195 76.2865 71.2909C76.2658 71.2623 76.251 71.2298 76.2432 71.1953C76.2354 71.1608 76.2347 71.1252 76.2412 71.0904C76.2476 71.0556 76.261 71.0225 76.2806 70.9931C76.3002 70.9637 76.3256 70.9386 76.3552 70.9193C76.3848 70.9 76.418 70.8869 76.4528 70.8808C76.4876 70.8748 76.5233 70.8758 76.5577 70.884L101.479 75.478C101.542 75.4908 101.598 75.5264 101.636 75.5779C101.674 75.6295 101.692 75.6934 101.687 75.7575C101.681 75.8215 101.651 75.8811 101.604 75.9248C101.557 75.9686 101.496 75.9934 101.431 75.9945Z" fill="white"/>
<path d="M99.6492 85.6622C99.6333 85.6622 99.6175 85.6607 99.6019 85.6577L74.6807 81.0644C74.6156 81.049 74.5589 81.0091 74.5223 80.9531C74.4858 80.897 74.4722 80.8291 74.4843 80.7632C74.4965 80.6974 74.5335 80.6388 74.5876 80.5995C74.6418 80.5602 74.709 80.5432 74.7753 80.5521L99.6965 85.1454C99.7599 85.1578 99.8165 85.1933 99.8553 85.2449C99.894 85.2966 99.9122 85.3609 99.9063 85.4252C99.9004 85.4895 99.8709 85.5494 99.8234 85.5932C99.7759 85.6369 99.7138 85.6616 99.6492 85.6622Z" fill="white"/>
<path d="M87.3993 78.4072C87.3833 78.4072 87.3673 78.4057 87.3516 78.4027L75.571 76.2312C75.536 76.2266 75.5022 76.2148 75.4719 76.1967C75.4415 76.1786 75.4152 76.1545 75.3944 76.1259C75.3737 76.0973 75.359 76.0648 75.3512 76.0303C75.3434 75.9958 75.3426 75.9601 75.3491 75.9254C75.3555 75.8906 75.3689 75.8575 75.3885 75.8281C75.4081 75.7987 75.4335 75.7736 75.4631 75.7543C75.4927 75.735 75.5259 75.7219 75.5607 75.7158C75.5955 75.7097 75.6312 75.7108 75.6656 75.7189L87.4481 77.8904C87.5115 77.9028 87.568 77.9382 87.6068 77.9898C87.6455 78.0415 87.6638 78.1057 87.6579 78.17C87.6521 78.2343 87.6226 78.2941 87.5752 78.338C87.5277 78.3818 87.4657 78.4064 87.4012 78.4072H87.3993Z" fill="white"/>
<path d="M89.0232 69.6007C89.0073 69.6007 88.9915 69.5992 88.9759 69.5962L77.1949 67.4248C77.1297 67.4094 77.073 67.3695 77.0365 67.3134C76.9999 67.2574 76.9863 67.1894 76.9985 67.1236C77.0106 67.0578 77.0476 66.9992 77.1018 66.9599C77.156 66.9206 77.2232 66.9036 77.2895 66.9125L89.0701 69.0839C89.1335 69.0963 89.19 69.1317 89.2288 69.1834C89.2676 69.235 89.2858 69.2992 89.2799 69.3635C89.2741 69.4278 89.2446 69.4877 89.1972 69.5315C89.1497 69.5753 89.0877 69.6 89.0232 69.6007Z" fill="white"/>
<path d="M100.547 80.7899C100.531 80.79 100.515 80.7886 100.5 80.7858L89.2749 78.7168C89.2098 78.7013 89.1531 78.6615 89.1166 78.6054C89.08 78.5494 89.0664 78.4814 89.0786 78.4156C89.0907 78.3498 89.1277 78.2912 89.1819 78.2519C89.236 78.2126 89.3032 78.1956 89.3696 78.2044L100.594 80.2735C100.657 80.2862 100.713 80.3217 100.751 80.3733C100.79 80.4248 100.808 80.4887 100.802 80.5527C100.796 80.6167 100.767 80.6763 100.72 80.7201C100.673 80.7638 100.611 80.7887 100.547 80.7899H100.547Z" fill="white"/>
<path d="M97.9078 23.2295H84.0571C83.5776 23.2295 83.189 23.6182 83.189 24.0976V28.7301C83.189 29.2095 83.5776 29.5982 84.0571 29.5982H97.9078C98.3873 29.5982 98.776 29.2095 98.776 28.7301V24.0976C98.776 23.6182 98.3873 23.2295 97.9078 23.2295Z" fill="#2E44D0"/>
<path d="M108.342 27.9141H88.9673C88.4878 27.9141 88.0991 28.3027 88.0991 28.7822V35.6718C88.0991 36.1513 88.4878 36.5399 88.9673 36.5399H108.342C108.821 36.5399 109.21 36.1513 109.21 35.6718V28.7822C109.21 28.3027 108.821 27.9141 108.342 27.9141Z" fill="#F7A9B4"/>
<path d="M114.713 34.7178H93.2581C92.6072 34.7178 92.0796 35.2454 92.0796 35.8963V42.4684C92.0796 43.1193 92.6072 43.6469 93.2581 43.6469H114.713C115.364 43.6469 115.891 43.1193 115.891 42.4684V35.8963C115.891 35.2454 115.364 34.7178 114.713 34.7178Z" fill="white"/>
<path opacity="0.74" d="M114.713 34.7178H93.2581C92.6072 34.7178 92.0796 35.2454 92.0796 35.8963V42.4684C92.0796 43.1193 92.6072 43.6469 93.2581 43.6469H114.713C115.364 43.6469 115.891 43.1193 115.891 42.4684V35.8963C115.891 35.2454 115.364 34.7178 114.713 34.7178Z" fill="#6D6CD4"/>
<path d="M108.334 40.2268C108.129 40.2268 107.929 40.1662 107.759 40.0525C107.589 39.9389 107.456 39.7773 107.378 39.5883C107.3 39.3993 107.279 39.1914 107.319 38.9907C107.359 38.7901 107.458 38.6058 107.602 38.4611C107.747 38.3165 107.931 38.218 108.132 38.1781C108.332 38.1382 108.54 38.1587 108.729 38.2369C108.918 38.3152 109.08 38.4478 109.194 38.6179C109.307 38.788 109.368 38.9879 109.368 39.1925C109.368 39.4667 109.258 39.7296 109.065 39.9235C108.871 40.1173 108.608 40.2264 108.334 40.2268ZM108.334 38.4186C108.181 38.4186 108.031 38.464 107.904 38.5491C107.776 38.6341 107.677 38.755 107.619 38.8964C107.56 39.0378 107.545 39.1934 107.575 39.3435C107.604 39.4936 107.678 39.6315 107.786 39.7397C107.895 39.848 108.033 39.9217 108.183 39.9515C108.333 39.9814 108.488 39.9661 108.63 39.9075C108.771 39.8489 108.892 39.7497 108.977 39.6225C109.062 39.4952 109.108 39.3456 109.108 39.1925C109.107 38.9874 109.026 38.7907 108.881 38.6456C108.735 38.5006 108.539 38.4189 108.334 38.4186Z" fill="white"/>
<path d="M104.066 40.2268C103.861 40.2268 103.662 40.1662 103.491 40.0525C103.321 39.9389 103.189 39.7773 103.11 39.5883C103.032 39.3993 103.012 39.1914 103.052 38.9907C103.092 38.7901 103.19 38.6058 103.335 38.4611C103.479 38.3165 103.664 38.218 103.864 38.1781C104.065 38.1382 104.273 38.1587 104.462 38.2369C104.651 38.3152 104.812 38.4478 104.926 38.6179C105.04 38.788 105.1 38.9879 105.1 39.1925C105.1 39.4667 104.991 39.7296 104.797 39.9235C104.603 40.1173 104.34 40.2264 104.066 40.2268ZM104.066 38.4186C103.913 38.4186 103.763 38.464 103.636 38.5491C103.509 38.6341 103.41 38.755 103.351 38.8964C103.293 39.0378 103.277 39.1934 103.307 39.3435C103.337 39.4936 103.411 39.6315 103.519 39.7397C103.627 39.848 103.765 39.9217 103.915 39.9515C104.065 39.9814 104.221 39.9661 104.362 39.9075C104.504 39.8489 104.624 39.7497 104.71 39.6225C104.795 39.4952 104.84 39.3456 104.84 39.1925C104.84 38.9874 104.758 38.7907 104.613 38.6456C104.468 38.5006 104.271 38.4189 104.066 38.4186Z" fill="white"/>
<path d="M100.087 40.2268C99.882 40.2268 99.682 40.1662 99.5119 40.0525C99.3418 39.9389 99.2093 39.7773 99.131 39.5883C99.0527 39.3993 99.0322 39.1914 99.0721 38.9907C99.112 38.7901 99.2105 38.6058 99.3552 38.4611C99.4998 38.3165 99.6841 38.218 99.8848 38.1781C100.085 38.1382 100.293 38.1587 100.482 38.2369C100.671 38.3152 100.833 38.4478 100.947 38.6179C101.06 38.788 101.121 38.9879 101.121 39.1925C101.121 39.4667 101.012 39.7297 100.818 39.9236C100.624 40.1175 100.361 40.2265 100.087 40.2268ZM100.087 38.4186C99.9335 38.4186 99.7839 38.464 99.6566 38.5491C99.5294 38.6341 99.4302 38.755 99.3716 38.8964C99.313 39.0378 99.2977 39.1934 99.3276 39.3435C99.3574 39.4936 99.4311 39.6315 99.5394 39.7397C99.6476 39.848 99.7855 39.9217 99.9356 39.9515C100.086 39.9814 100.241 39.9661 100.383 39.9075C100.524 39.8489 100.645 39.7497 100.73 39.6225C100.815 39.4952 100.86 39.3456 100.86 39.1925C100.86 38.9873 100.779 38.7906 100.634 38.6455C100.488 38.5004 100.292 38.4188 100.087 38.4186Z" fill="white"/>
<path d="M41.0667 23.8535H74.3109C74.6324 23.8535 74.9408 23.9813 75.1682 24.2086C75.3956 24.436 75.5233 24.7444 75.5233 25.0659V74.0316C75.5232 75.1408 75.0825 76.2046 74.2982 76.9889C73.5139 77.7732 72.4501 78.2139 71.3409 78.214H48.2581C43.3358 78.214 39.3457 74.2239 39.3457 69.3016V25.5745C39.3457 25.1181 39.527 24.6803 39.8498 24.3576C40.1725 24.0348 40.6103 23.8535 41.0667 23.8535Z" fill="white"/>
<path opacity="0.39" d="M39.7688 23.8535H74.8734C74.9587 23.8535 75.0432 23.8703 75.1221 23.903C75.201 23.9357 75.2726 23.9836 75.333 24.044C75.3933 24.1044 75.4412 24.176 75.4738 24.2549C75.5064 24.3338 75.5232 24.4183 75.5231 24.5037V74.2265C75.5231 75.2838 75.1031 76.2979 74.3555 77.0455C73.6078 77.7932 72.5938 78.2132 71.5364 78.2132H47.467C42.9821 78.2132 39.3467 74.5778 39.3467 70.093V24.2768C39.3467 24.1647 39.3911 24.0572 39.4703 23.9779C39.5494 23.8985 39.6568 23.8538 39.7688 23.8535Z" fill="#6D6CD4"/>
<path opacity="0.39" d="M42.8465 23.8535H75.0097C75.0772 23.8535 75.1441 23.8668 75.2065 23.8927C75.2688 23.9185 75.3255 23.9564 75.3732 24.0041C75.4209 24.0519 75.4587 24.1086 75.4845 24.171C75.5103 24.2333 75.5236 24.3002 75.5235 24.3677V74.3621C75.5236 74.868 75.424 75.3689 75.2304 75.8362C75.0369 76.3036 74.7532 76.7282 74.3955 77.0859C74.0378 77.4436 73.6131 77.7273 73.1458 77.9209C72.6784 78.1144 72.1775 78.214 71.6717 78.214H50.5435C46.1342 78.214 42.5596 74.6393 42.5596 70.2297V24.14C42.5598 24.064 42.5901 23.9912 42.6438 23.9375C42.6976 23.8838 42.7705 23.8536 42.8465 23.8535Z" fill="#2E44D0"/>
<path d="M47.6079 78.2052V78.2142H76.666C77.4613 78.2142 78.2487 78.0575 78.9834 77.7532C79.7182 77.4489 80.3857 77.0028 80.9481 76.4405C81.5104 75.8781 81.9564 75.2106 82.2608 74.4758C82.5651 73.7411 82.7217 72.9537 82.7217 72.1584V69.8584H53.335V72.1584C53.3349 73.7076 52.7412 75.1978 51.6759 76.3226C50.6106 77.4473 49.1548 78.1211 47.6079 78.2052Z" fill="#6161B5"/>
<path d="M51.46 78.2052V78.2142H77.3298C80.3075 78.2142 82.7212 75.5032 82.7212 72.1584V69.8584H56.5604V72.1584C56.5604 75.3929 54.3013 78.0342 51.46 78.2052Z" fill="#2E44D0"/>
<path d="M70.0328 63.591H49.1397C49.0705 63.591 49.0042 63.5635 48.9553 63.5146C48.9064 63.4657 48.8789 63.3993 48.8789 63.3302C48.8789 63.261 48.9064 63.1946 48.9553 63.1457C49.0042 63.0968 49.0705 63.0693 49.1397 63.0693H70.0328C70.102 63.0693 70.1683 63.0968 70.2173 63.1457C70.2662 63.1946 70.2936 63.261 70.2936 63.3302C70.2936 63.3993 70.2662 63.4657 70.2173 63.5146C70.1683 63.5635 70.102 63.591 70.0328 63.591Z" fill="white"/>
<path d="M70.4702 54.796H48.7481C48.6789 54.796 48.6126 54.7686 48.5637 54.7197C48.5148 54.6707 48.4873 54.6044 48.4873 54.5352C48.4873 54.4661 48.5148 54.3997 48.5637 54.3508C48.6126 54.3019 48.6789 54.2744 48.7481 54.2744H70.4702C70.5394 54.2744 70.6058 54.3019 70.6547 54.3508C70.7036 54.3997 70.7311 54.4661 70.7311 54.5352C70.7311 54.6044 70.7036 54.6707 70.6547 54.7197C70.6058 54.7686 70.5394 54.796 70.4702 54.796Z" fill="white"/>
<path d="M59.586 59.1896H48.4869C48.4177 59.1896 48.3514 59.1621 48.3025 59.1132C48.2535 59.0643 48.2261 58.998 48.2261 58.9288C48.2261 58.8596 48.2535 58.7933 48.3025 58.7444C48.3514 58.6954 48.4177 58.668 48.4869 58.668H59.586C59.6552 58.668 59.7215 58.6954 59.7705 58.7444C59.8194 58.7933 59.8468 58.8596 59.8468 58.9288C59.8468 58.998 59.8194 59.0643 59.7705 59.1132C59.7215 59.1621 59.6552 59.1896 59.586 59.1896Z" fill="white"/>
<path d="M58.7449 59.1896H49.3272C49.258 59.1896 49.1917 59.1621 49.1428 59.1132C49.0939 59.0643 49.0664 58.998 49.0664 58.9288C49.0664 58.8596 49.0939 58.7933 49.1428 58.7444C49.1917 58.6954 49.258 58.668 49.3272 58.668H58.7449C58.814 58.668 58.8804 58.6954 58.9293 58.7444C58.9782 58.7933 59.0057 58.8596 59.0057 58.9288C59.0057 58.998 58.9782 59.0643 58.9293 59.1132C58.8804 59.1621 58.814 59.1896 58.7449 59.1896Z" fill="white"/>
<path d="M63.1994 45.3898H48.9005C48.8313 45.3898 48.765 45.3623 48.716 45.3134C48.6671 45.2645 48.6396 45.1982 48.6396 45.129C48.6396 45.0598 48.6671 44.9935 48.716 44.9446C48.765 44.8956 48.8313 44.8682 48.9005 44.8682H63.1994C63.2686 44.8682 63.3349 44.8956 63.3839 44.9446C63.4328 44.9935 63.4602 45.0598 63.4602 45.129C63.4602 45.1982 63.4328 45.2645 63.3839 45.3134C63.3349 45.3623 63.2686 45.3898 63.1994 45.3898Z" fill="white"/>
<path d="M69.8269 45.3898H65.4713C65.4021 45.3898 65.3357 45.3623 65.2868 45.3134C65.2379 45.2645 65.2104 45.1982 65.2104 45.129C65.2104 45.0598 65.2379 44.9935 65.2868 44.9446C65.3357 44.8956 65.4021 44.8682 65.4713 44.8682H69.8269C69.896 44.8682 69.9624 44.8956 70.0113 44.9446C70.0602 44.9935 70.0877 45.0598 70.0877 45.129C70.0877 45.1982 70.0602 45.2645 70.0113 45.3134C69.9624 45.3623 69.896 45.3898 69.8269 45.3898Z" fill="white"/>
<path d="M70.4717 49.7833H54.9879C54.9187 49.7833 54.8524 49.7559 54.8034 49.707C54.7545 49.658 54.7271 49.5917 54.7271 49.5225C54.7271 49.4534 54.7545 49.387 54.8034 49.3381C54.8524 49.2892 54.9187 49.2617 54.9879 49.2617H70.4717C70.5409 49.2617 70.6072 49.2892 70.6561 49.3381C70.705 49.387 70.7325 49.4534 70.7325 49.5225C70.7325 49.5917 70.705 49.658 70.6561 49.707C70.6072 49.7559 70.5409 49.7833 70.4717 49.7833Z" fill="white"/>
<path d="M53.4569 49.7833H48.7481C48.6789 49.7833 48.6126 49.7559 48.5637 49.707C48.5148 49.658 48.4873 49.5917 48.4873 49.5225C48.4873 49.4534 48.5148 49.387 48.5637 49.3381C48.6126 49.2892 48.6789 49.2617 48.7481 49.2617H53.4569C53.5261 49.2617 53.5925 49.2892 53.6414 49.3381C53.6903 49.387 53.7178 49.4534 53.7178 49.5225C53.7178 49.5917 53.6903 49.658 53.6414 49.707C53.5925 49.7559 53.5261 49.7833 53.4569 49.7833Z" fill="white"/>
<path d="M70.0328 41.6671H49.1397C49.0705 41.6671 49.0042 41.6397 48.9553 41.5907C48.9064 41.5418 48.8789 41.4755 48.8789 41.4063C48.8789 41.3372 48.9064 41.2708 48.9553 41.2219C49.0042 41.173 49.0705 41.1455 49.1397 41.1455H70.0328C70.102 41.1455 70.1683 41.173 70.2173 41.2219C70.2662 41.2708 70.2936 41.3372 70.2936 41.4063C70.2936 41.4755 70.2662 41.5418 70.2173 41.5907C70.1683 41.6397 70.102 41.6671 70.0328 41.6671Z" fill="white"/>
<path d="M70.0328 32.8751H49.1397C49.0705 32.8751 49.0042 32.8477 48.9553 32.7988C48.9064 32.7498 48.8789 32.6835 48.8789 32.6143C48.8789 32.5452 48.9064 32.4788 48.9553 32.4299C49.0042 32.381 49.0705 32.3535 49.1397 32.3535H70.0328C70.102 32.3535 70.1683 32.381 70.2173 32.4299C70.2662 32.4788 70.2936 32.5452 70.2936 32.6143C70.2936 32.6835 70.2662 32.7498 70.2173 32.7988C70.1683 32.8477 70.102 32.8751 70.0328 32.8751Z" fill="white"/>
<path d="M56.808 37.2677H48.9005C48.8313 37.2677 48.765 37.2402 48.716 37.1913C48.6671 37.1424 48.6396 37.0761 48.6396 37.0069C48.6396 36.9377 48.6671 36.8714 48.716 36.8225C48.765 36.7736 48.8313 36.7461 48.9005 36.7461H56.808C56.8772 36.7461 56.9435 36.7736 56.9924 36.8225C57.0413 36.8714 57.0688 36.9377 57.0688 37.0069C57.0688 37.0761 57.0413 37.1424 56.9924 37.1913C56.9435 37.2402 56.8772 37.2677 56.808 37.2677Z" fill="white"/>
<path d="M69.8733 37.2677H60.4556C60.3865 37.2677 60.3201 37.2402 60.2712 37.1913C60.2223 37.1424 60.1948 37.0761 60.1948 37.0069C60.1948 36.9377 60.2223 36.8714 60.2712 36.8225C60.3201 36.7736 60.3865 36.7461 60.4556 36.7461H69.8733C69.9425 36.7461 70.0088 36.7736 70.0577 36.8225C70.1066 36.8714 70.1341 36.9377 70.1341 37.0069C70.1341 37.0761 70.1066 37.1424 70.0577 37.1913C70.0088 37.2402 69.9425 37.2677 69.8733 37.2677Z" fill="white"/>
<path opacity="0.21" d="M97.9678 67.701C104.405 61.2635 104.405 50.8263 97.9678 44.3888C91.5303 37.9513 81.0931 37.9513 74.6556 44.3888C68.2181 50.8263 68.2181 61.2635 74.6556 67.701C81.0931 74.1385 91.5303 74.1385 97.9678 67.701Z" fill="white"/>
<path opacity="0.76" d="M73.3943 57.2307C73.1176 57.2307 72.8523 57.1208 72.6566 56.9252C72.461 56.7295 72.3511 56.4642 72.3511 56.1875C72.3511 47.8716 79.1162 41.1064 87.4321 41.1064C87.6988 41.1207 87.9498 41.2367 88.1335 41.4305C88.3172 41.6243 88.4196 41.8812 88.4196 42.1482C88.4196 42.4153 88.3172 42.6721 88.1335 42.8659C87.9498 43.0597 87.6988 43.1757 87.4321 43.19C80.2653 43.19 74.4346 49.0207 74.4346 56.1875C74.4346 56.4637 74.3251 56.7286 74.1301 56.9241C73.9351 57.1197 73.6705 57.23 73.3943 57.2307Z" fill="white"/>
<path opacity="0.58" d="M86.3121 73.0487C76.9355 73.0487 69.3066 65.4202 69.3066 56.0436C69.3066 46.6669 76.9355 39.0381 86.3121 39.0381C95.6888 39.0381 103.317 46.6669 103.317 56.0436C103.317 65.4202 95.6888 73.0487 86.3121 73.0487ZM86.3121 40.0799C77.5096 40.0799 70.3484 47.2411 70.3484 56.0436C70.3484 64.8461 77.5096 72.0069 86.3121 72.0069C95.1146 72.0069 102.275 64.8457 102.275 56.0436C102.275 47.2414 95.1142 40.0799 86.3121 40.0799Z" fill="#2E44D0"/>
<path d="M101.464 67.855C101.488 67.832 101.514 67.8107 101.542 67.7913C104.144 64.4291 105.554 60.2961 105.548 56.0442C105.548 45.4201 96.936 36.8076 86.3122 36.8076C75.6885 36.8076 67.0757 45.4201 67.0757 56.0442C67.0757 66.6683 75.6882 75.2804 86.3122 75.2804C90.5462 75.2851 94.6623 73.8861 98.0165 71.3022L100.242 69.0767L101.464 67.855ZM86.3122 72.5284C77.208 72.5284 69.8276 65.1481 69.8276 56.0442C69.8276 46.9403 77.208 39.5596 86.3122 39.5596C95.4165 39.5596 102.796 46.9399 102.796 56.0442C102.796 65.1485 95.4162 72.5284 86.3122 72.5284Z" fill="#2E44D0"/>
<path d="M86.3115 75.5405C75.5607 75.5405 66.8145 66.7943 66.8145 56.0439C66.8145 45.2935 75.5622 36.5469 86.3115 36.5469C97.0607 36.5469 105.808 45.2931 105.808 56.0439C105.808 60.3939 104.404 64.511 101.747 67.9501L101.698 67.9985C101.68 68.0107 101.664 68.024 101.648 68.0384L98.1744 71.5102C94.741 74.1463 90.6387 75.5405 86.3115 75.5405ZM86.3115 37.0678C75.848 37.0678 67.3353 45.5804 67.3353 56.0439C67.3353 66.5074 75.848 75.0196 86.3115 75.0196C90.5173 75.0196 94.5048 73.6664 97.8436 71.1055L101.279 67.6706C101.303 67.6467 101.329 67.6244 101.356 67.6039C103.927 64.2625 105.287 60.2639 105.287 56.0439C105.287 45.5804 96.7746 37.0678 86.3115 37.0678ZM86.3115 72.7886C77.0783 72.7886 69.5664 65.2767 69.5664 56.0439C69.5664 46.811 77.0783 39.2988 86.3115 39.2988C95.5447 39.2988 103.056 46.8107 103.056 56.0439C103.056 65.2771 95.5447 72.7886 86.3115 72.7886ZM86.3115 39.8197C77.3655 39.8197 70.0873 47.0979 70.0873 56.0439C70.0873 64.9898 77.3655 72.2677 86.3115 72.2677C95.2574 72.2677 102.535 64.9898 102.535 56.0439C102.535 47.0979 95.257 39.8197 86.3115 39.8197Z" fill="#2E44D0"/>
<path d="M100.988 70.8632L100.243 70.118C100.175 70.0498 100.12 69.9687 100.083 69.8795C100.046 69.7903 100.027 69.6947 100.027 69.5981C100.027 69.5015 100.046 69.4059 100.083 69.3167C100.12 69.2275 100.175 69.1464 100.243 69.0781L98.0174 71.3036L97.9801 71.3409C97.9118 71.4091 97.8576 71.4902 97.8206 71.5794C97.7837 71.6686 97.7646 71.7643 97.7646 71.8608C97.7646 71.9574 97.7837 72.053 97.8206 72.1422C97.8576 72.2315 97.9118 72.3125 97.9801 72.3808L98.8855 73.2862C99.1854 72.7839 100.058 71.804 100.988 70.8632Z" fill="#4C65BA"/>
<path d="M100.242 69.0791C100.174 69.1474 100.119 69.2284 100.082 69.3176C100.045 69.4069 100.026 69.5025 100.026 69.599C100.026 69.6956 100.045 69.7912 100.082 69.8805C100.119 69.9697 100.174 70.0507 100.242 70.119L100.987 70.8642C101.887 69.9543 102.837 69.0847 103.37 68.7236L102.503 67.8566C102.362 67.7247 102.176 67.6514 101.983 67.6514C101.79 67.6514 101.604 67.7247 101.463 67.8566L100.242 69.0791Z" fill="#4C65BA"/>
<path opacity="0.43" d="M100.242 69.0791C100.174 69.1474 100.119 69.2284 100.082 69.3176C100.045 69.4069 100.026 69.5025 100.026 69.599C100.026 69.6956 100.045 69.7912 100.082 69.8805C100.119 69.9697 100.174 70.0507 100.242 70.119L100.987 70.8642C101.887 69.9543 102.837 69.0847 103.37 68.7236L102.503 67.8566C102.362 67.7247 102.176 67.6514 101.983 67.6514C101.79 67.6514 101.604 67.7247 101.463 67.8566L100.242 69.0791Z" fill="#2E44D0"/>
<path d="M117.327 82.2571L103.781 68.5633C103.732 68.5137 103.584 68.5793 103.371 68.7238C102.838 69.0849 101.888 69.9534 100.988 70.8644C100.057 71.8052 99.1847 72.7851 98.8859 73.2862C98.7887 73.4494 98.751 73.5623 98.7939 73.6055L112.34 87.2994C112.666 87.6301 113.054 87.8927 113.482 88.0719C113.91 88.2512 114.37 88.3435 114.834 88.3435C115.298 88.3435 115.757 88.2512 116.185 88.0719C116.614 87.8927 117.002 87.6301 117.327 87.2994C117.989 86.6273 118.36 85.7217 118.36 84.7782C118.36 83.8348 117.989 82.9292 117.327 82.2571Z" fill="#599AF2"/>
<path opacity="0.14" d="M117.327 82.2574L103.781 68.5635C103.598 68.3791 102.054 69.7621 100.729 71.1284C99.6016 72.2913 115.95 88.6909 117.327 87.2989C117.989 86.6268 118.36 85.7214 118.36 84.7781C118.36 83.8349 117.989 82.9294 117.327 82.2574Z" fill="#2E44D0"/>
<path d="M67.3048 55.832H22.7767C20.1753 55.832 18.0664 57.9409 18.0664 60.5423C18.0664 63.1438 20.1753 65.2527 22.7767 65.2527H67.3048C69.9063 65.2527 72.0152 63.1438 72.0152 60.5423C72.0152 57.9409 69.9063 55.832 67.3048 55.832Z" fill="white"/>
<path d="M67.3047 65.2527H60.063L60.0283 55.832H67.3054C68.5547 55.832 69.7528 56.3283 70.6361 57.2117C71.5195 58.095 72.0157 59.2931 72.0157 60.5423C72.0157 61.161 71.8939 61.7735 71.6571 62.3451C71.4203 62.9166 71.0733 63.4359 70.6359 63.8733C70.1984 64.3107 69.679 64.6576 69.1075 64.8943C68.5359 65.131 67.9233 65.2528 67.3047 65.2527Z" fill="#599AF2"/>
<path d="M65.4724 62.1934C64.9958 62.1933 64.5339 62.028 64.1655 61.7256C63.7972 61.4232 63.545 61.0024 63.4521 60.5349C63.3592 60.0675 63.4313 59.5823 63.656 59.162C63.8807 58.7417 64.2442 58.4123 64.6845 58.23C65.1249 58.0476 65.6148 58.0236 66.0709 58.162C66.527 58.3004 66.9209 58.5927 67.1857 58.989C67.4504 59.3853 67.5695 59.8612 67.5228 60.3355C67.476 60.8098 67.2662 61.2532 66.9292 61.5901C66.5426 61.9762 66.0187 62.1932 65.4724 62.1934ZM65.4724 58.5938C65.1679 58.5938 64.8702 58.684 64.617 58.8532C64.3639 59.0224 64.1665 59.2628 64.05 59.5441C63.9335 59.8255 63.903 60.135 63.9624 60.4337C64.0218 60.7323 64.1684 61.0066 64.3837 61.2219C64.599 61.4372 64.8734 61.5839 65.172 61.6433C65.4707 61.7027 65.7802 61.6722 66.0615 61.5557C66.3428 61.4391 66.5833 61.2418 66.7524 60.9886C66.9216 60.7355 67.0119 60.4378 67.0119 60.1333C67.0114 59.7251 66.8491 59.3338 66.5604 59.0452C66.2718 58.7566 65.8805 58.5942 65.4724 58.5938Z" fill="white"/>
<path d="M68.3726 63.3111C68.3035 63.311 68.2373 63.2835 68.1885 63.2347L66.5524 61.6009C66.5079 61.5512 66.4841 61.4863 66.4859 61.4196C66.4878 61.3529 66.5151 61.2895 66.5623 61.2423C66.6095 61.1952 66.673 61.1679 66.7397 61.1661C66.8064 61.1643 66.8713 61.1882 66.9209 61.2328L68.5555 62.8674C68.5918 62.904 68.6165 62.9506 68.6263 63.0012C68.6362 63.0518 68.6308 63.1043 68.6109 63.1519C68.5909 63.1994 68.5573 63.24 68.5143 63.2685C68.4713 63.297 68.4208 63.3121 68.3692 63.3119L68.3726 63.3111Z" fill="white"/>
<path d="M67.9399 74.9854H45.7759C45.4071 74.9854 45.0418 74.9127 44.701 74.7715C44.3603 74.6304 44.0506 74.4234 43.7898 74.1626C43.529 73.9018 43.3221 73.5921 43.181 73.2513C43.0399 72.9105 42.9673 72.5452 42.9673 72.1764V70.3347C42.9673 69.5871 42.6704 68.8701 42.1418 68.3414C41.6132 67.8128 40.8963 67.5157 40.1487 67.5156H29.9113C29.1637 67.5156 28.4466 67.8126 27.918 68.3413C27.3893 68.87 27.0923 69.587 27.0923 70.3347V99.5917C27.0924 100.288 27.3691 100.956 27.8615 101.448C28.3539 101.94 29.0216 102.217 29.7179 102.217H67.9399C68.6362 102.217 69.304 101.94 69.7964 101.448C70.2888 100.956 70.5655 100.288 70.5656 99.5917V77.6088C70.5651 76.9128 70.2882 76.2454 69.7959 75.7535C69.3035 75.2615 68.636 74.9853 67.9399 74.9854Z" fill="#F28393"/>
<path d="M65.4971 74.9854H43.3331C42.9642 74.9854 42.5989 74.9127 42.2582 74.7715C41.9174 74.6304 41.6077 74.4234 41.3469 74.1626C41.0861 73.9018 40.8793 73.5921 40.7381 73.2513C40.597 72.9105 40.5244 72.5452 40.5245 72.1764V70.3347C40.5245 69.5873 40.2277 68.8705 39.6993 68.3418C39.171 67.8132 38.4543 67.516 37.7069 67.5156H27.4684C27.0982 67.5156 26.7317 67.5885 26.3896 67.7302C26.0476 67.8719 25.7369 68.0795 25.4751 68.3413C25.2133 68.6031 25.0057 68.9138 24.864 69.2559C24.7223 69.5979 24.6494 69.9645 24.6494 70.3347V99.5913C24.6494 100.288 24.9259 100.955 25.4182 101.448C25.9104 101.94 26.5781 102.217 27.2743 102.217H65.4971C65.8419 102.217 66.1833 102.149 66.5019 102.017C66.8204 101.885 67.1099 101.692 67.3537 101.448C67.5975 101.204 67.7909 100.915 67.9229 100.596C68.0548 100.278 68.1227 99.9361 68.1227 99.5913V77.6106C68.1227 77.2658 68.0548 76.9244 67.9229 76.6059C67.7909 76.2874 67.5975 75.9979 67.3537 75.7542C67.1098 75.5104 66.8204 75.317 66.5018 75.1851C66.1833 75.0532 65.8419 74.9853 65.4971 74.9854Z" fill="#F28393"/>
<path opacity="0.12" d="M65.4971 74.9854H43.3331C42.9642 74.9854 42.5989 74.9127 42.2582 74.7715C41.9174 74.6304 41.6077 74.4234 41.3469 74.1626C41.0861 73.9018 40.8793 73.5921 40.7381 73.2513C40.597 72.9105 40.5244 72.5452 40.5245 72.1764V70.3347C40.5245 69.5873 40.2277 68.8705 39.6993 68.3418C39.171 67.8132 38.4543 67.516 37.7069 67.5156H27.4684C27.0982 67.5156 26.7317 67.5885 26.3896 67.7302C26.0476 67.8719 25.7369 68.0795 25.4751 68.3413C25.2133 68.6031 25.0057 68.9138 24.864 69.2559C24.7223 69.5979 24.6494 69.9645 24.6494 70.3347V99.5917C24.6495 100.288 24.9261 100.956 25.4183 101.448C25.9106 101.94 26.5782 102.217 27.2743 102.217H65.4971C66.1934 102.217 66.8612 101.94 67.3536 101.448C67.846 100.956 68.1226 100.288 68.1227 99.5917V77.6088C68.1222 76.9128 67.8454 76.2454 67.353 75.7535C66.8606 75.2615 66.1931 74.9853 65.4971 74.9854Z" fill="white"/>
<path opacity="0.12" d="M59.8773 74.9854H40.7633C39.4257 74.9854 38.3414 73.7278 38.3414 72.1764V70.3347C38.3414 68.778 37.2531 67.5156 35.9106 67.5156H27.0802C25.7389 67.5156 24.6494 68.778 24.6494 70.3347V99.5917C24.6494 101.041 25.6632 102.217 26.9137 102.217H59.8773C61.1277 102.217 62.1415 101.041 62.1415 99.5917V77.6088C62.1408 76.1605 61.1269 74.9854 59.8773 74.9854Z" fill="white"/>
<path d="M26.6978 77.9129C26.6287 77.9129 26.5623 77.8854 26.5134 77.8365C26.4645 77.7876 26.437 77.7212 26.437 77.652V71.261C26.4375 70.7851 26.6267 70.3288 26.9632 69.9923C27.2997 69.6557 27.7559 69.4664 28.2318 69.4658H35.7757C35.8448 69.4658 35.9112 69.4933 35.9601 69.5422C36.009 69.5911 36.0365 69.6575 36.0365 69.7266C36.0365 69.7958 36.009 69.8621 35.9601 69.9111C35.9112 69.96 35.8448 69.9874 35.7757 69.9874H28.2322C27.8944 69.9878 27.5705 70.1222 27.3317 70.3611C27.0929 70.6 26.9586 70.9239 26.9583 71.2617V77.6524C26.9582 77.7215 26.9307 77.7876 26.8819 77.8365C26.8331 77.8853 26.7669 77.9128 26.6978 77.9129Z" fill="white"/>
</g>
</svg>
