<svg width="134" height="124" viewBox="0 0 134 124" fill="none" xmlns="http://www.w3.org/2000/svg">
<mask id="mask0_243_3049" style="mask-type:luminance" maskUnits="userSpaceOnUse" x="0" y="0" width="134" height="124">
<path d="M133.247 0.700195H0.378418V123.317H133.247V0.700195Z" fill="white"/>
</mask>
<g mask="url(#mask0_243_3049)">
<path opacity="0.4" d="M126.569 76.9022C126.681 74.9821 126.629 73.0559 126.414 71.1445C125.397 62.1721 120.794 53.7113 114.019 47.7416C111.602 45.6119 108.852 43.7039 107.279 40.8927C104.63 36.1581 104.83 30.7168 101.541 26.0422C98.2511 21.3677 93.4536 17.7126 88.0451 15.8381C71.9178 10.2495 49.3357 19.3482 51.369 38.7815C51.3764 38.8512 51.3842 38.9526 51.3928 39.0796C51.6629 43.1163 48.4951 46.5098 44.4626 46.606C29.582 46.9599 16.7741 58.4332 14.0319 72.9643C12.2695 82.3107 15.1556 92.5548 21.9927 99.1668C27.0972 104.102 33.9432 106.814 40.794 108.676C54.5297 112.412 68.984 113.195 83.147 111.767C96.4042 110.43 110.388 106.619 118.962 96.419C123.536 90.9795 126.156 84.0023 126.569 76.9022Z" fill="#2E44D0"/>
<path opacity="0.31" d="M61.8257 11.5333C62.1295 9.64549 60.8453 7.8689 58.9575 7.56517C57.0697 7.26144 55.2931 8.54559 54.9894 10.4334C54.6857 12.3212 55.9698 14.0978 57.8576 14.4015C59.7454 14.7052 61.522 13.4211 61.8257 11.5333Z" fill="#2E44D0"/>
<path opacity="0.31" d="M105.194 10.6593C106.181 10.6593 106.981 9.85962 106.981 8.87312C106.981 7.88663 106.181 7.08691 105.194 7.08691C104.208 7.08691 103.408 7.88663 103.408 8.87312C103.408 9.85962 104.208 10.6593 105.194 10.6593Z" fill="#2E44D0"/>
<path opacity="0.31" d="M44.4581 19.3133C44.7768 18.0302 43.995 16.7317 42.7119 16.4129C41.4288 16.0942 40.1302 16.876 39.8115 18.1591C39.4928 19.4422 40.2746 20.7408 41.5577 21.0595C42.8408 21.3783 44.1394 20.5965 44.4581 19.3133Z" fill="#2E44D0"/>
<path opacity="0.31" d="M14.5304 111.002C17.5405 111.002 19.9806 108.562 19.9806 105.552C19.9806 102.542 17.5405 100.102 14.5304 100.102C11.5203 100.102 9.08008 102.542 9.08008 105.552C9.08008 108.562 11.5203 111.002 14.5304 111.002Z" fill="#2E44D0"/>
<path opacity="0.47" d="M125.088 20.5069C125.457 19.7873 125.681 19.002 125.747 18.1957C125.813 17.3895 125.719 16.5782 125.472 15.8081C125.224 15.038 124.827 14.3242 124.304 13.7075C123.78 13.0908 123.141 12.5832 122.421 12.2138C119.394 10.6601 113.579 10.7745 112.026 13.801C110.473 16.8276 115.13 19.4246 117.029 22.2469C119.676 26.1834 123.533 23.5335 125.088 20.5069Z" fill="#ECF1F7"/>
<path opacity="0.47" d="M111.852 113.527C112.373 113.864 112.954 114.094 113.564 114.205C114.174 114.317 114.799 114.307 115.405 114.177C116.011 114.046 116.585 113.798 117.095 113.446C117.605 113.093 118.04 112.644 118.377 112.123C119.791 109.934 120.143 105.491 117.954 104.078C115.764 102.664 113.431 106.019 111.135 107.253C107.934 108.973 109.662 112.114 111.852 113.527Z" fill="#2E44D0"/>
<path opacity="0.47" d="M22.4757 6.62174C21.903 6.08989 21.2312 5.67605 20.4985 5.40386C19.7659 5.13166 18.9869 5.00643 18.2058 5.03532C17.4248 5.06421 16.6571 5.24665 15.9466 5.57223C15.2361 5.89781 14.5966 6.36015 14.0648 6.93285C11.8293 9.34129 10.4134 14.7808 12.8218 17.0174C15.2303 19.2541 18.8645 15.6016 21.9876 14.5729C26.3399 13.1384 24.8838 8.85841 22.4757 6.62174Z" fill="#2E44D0"/>
<path opacity="0.47" d="M9.19901 32.6233C7.05064 37.2848 6.46567 42.6591 7.49775 47.6831C8.70905 53.5898 12.3862 58.1272 11.11 64.4285C10.3328 68.2662 10.1383 71.8218 9.74411 75.6193C8.93335 83.4173 13.9961 90.2883 20.2777 93.9985C25.3792 97.0117 31.3597 98.1425 37.225 98.062C42.5035 97.9897 47.7731 97.0147 52.8881 95.7043C57.8178 94.4412 62.6373 92.7768 67.8044 93.3018C72.1015 93.7385 75.972 95.5962 79.974 96.9815C89.5288 100.289 101.103 100.755 109.84 95.7207C115.447 92.4892 119.372 87.2416 121.113 81.5994C122.504 77.091 122.68 72.874 121.637 68.2707C120.567 63.5447 118.759 58.78 119.321 53.8554C119.712 50.4239 121.281 47.1115 120.994 43.6699C120.803 41.3829 119.796 39.236 118.565 37.3008C114.068 30.2294 106.54 25.4975 98.5772 22.8893C91.0832 20.4343 83.3545 18.6567 75.5528 19.2472C59.4196 20.4686 56.133 17.9059 39.6476 14.38C29.0049 12.1039 17.0998 20.2182 10.8719 29.6191C10.2383 30.5762 9.67905 31.5806 9.19901 32.6233Z" fill="#2E44D0"/>
<path opacity="0.5" d="M20.2969 39.8872C19.966 43.6098 21.2213 47.4457 20.1721 51.1321C18.9157 55.5454 15.2788 58.8511 13.7963 63.1843C11.6058 69.5873 11.7098 76.762 14.3712 83.001C15.6533 86.0082 17.5263 88.8026 20.0842 90.7349C24.0269 93.7156 29.1933 94.3677 34.0519 93.9899C41.2832 93.4273 48.9135 90.2971 56.1839 91.1507C60.1959 91.6217 61.421 95.9642 63.493 98.8283C65.8366 102.068 69.0282 104.613 72.5563 106.307C79.0551 109.426 86.8546 109.721 93.496 106.893C100.587 103.873 106.768 96.4974 106.362 88.1566C106.175 84.298 104.629 80.4655 105.344 76.674C106.242 71.916 109.827 67.5798 112.423 63.703C115.292 59.4215 117.029 54.3136 117.37 49.1067L117.381 48.9293C117.913 39.9431 112.246 31.7476 103.694 28.9349L85.4987 22.9511C67.0375 16.8789 48.5919 17.0798 31.6166 25.9907C27.9432 27.9192 21.9624 33.6661 20.7302 37.6264C20.5055 38.3624 20.3603 39.1203 20.2969 39.8872Z" fill="#2E44D0"/>
<path opacity="0.58" d="M123.558 99.7184C124.205 99.7184 124.73 99.1936 124.73 98.5462C124.73 97.8988 124.205 97.374 123.558 97.374C122.911 97.374 122.386 97.8988 122.386 98.5462C122.386 99.1936 122.911 99.7184 123.558 99.7184Z" fill="#3E479B"/>
<path opacity="0.58" d="M69.4178 8.37365C70.0652 8.37365 70.59 7.84885 70.59 7.20147C70.59 6.5541 70.0652 6.0293 69.4178 6.0293C68.7704 6.0293 68.2456 6.5541 68.2456 7.20147C68.2456 7.84885 68.7704 8.37365 69.4178 8.37365Z" fill="#3E479B"/>
<path opacity="0.58" d="M27.0784 110.527C27.7258 110.527 28.2506 110.002 28.2506 109.355C28.2506 108.707 27.7258 108.183 27.0784 108.183C26.4311 108.183 25.9062 108.707 25.9062 109.355C25.9062 110.002 26.4311 110.527 27.0784 110.527Z" fill="#3E479B"/>
<path opacity="0.58" d="M101.053 115.197C101.556 115.197 101.965 114.788 101.965 114.285C101.965 113.781 101.556 113.373 101.053 113.373C100.549 113.373 100.141 113.781 100.141 114.285C100.141 114.788 100.549 115.197 101.053 115.197Z" fill="#EF929C"/>
<path opacity="0.58" d="M21.9035 27.5532C22.1194 27.5532 22.2944 27.3782 22.2944 27.1623C22.2944 26.9465 22.1194 26.7715 21.9035 26.7715C21.6877 26.7715 21.5127 26.9465 21.5127 27.1623C21.5127 27.3782 21.6877 27.5532 21.9035 27.5532Z" fill="#3E479B"/>
<path opacity="0.58" d="M105.122 15.5113C105.064 15.7835 104.926 16.0324 104.727 16.2263C104.527 16.4203 104.274 16.5507 104 16.601C103.727 16.6513 103.444 16.6192 103.188 16.5089C102.933 16.3986 102.716 16.215 102.565 15.9812C102.413 15.7475 102.335 15.4741 102.339 15.1958C102.343 14.9174 102.43 14.6466 102.588 14.4175C102.746 14.1883 102.969 14.0113 103.227 13.9087C103.486 13.8061 103.77 13.7825 104.042 13.841C104.407 13.9192 104.725 14.1392 104.928 14.4524C105.131 14.7656 105.2 15.1465 105.122 15.5113Z" fill="#EF929C"/>
<path opacity="0.58" d="M29.9064 9.04121C29.8835 9.14793 29.8296 9.24548 29.7513 9.32154C29.6731 9.3976 29.574 9.44875 29.4667 9.46851C29.3594 9.48828 29.2486 9.47578 29.1484 9.43259C29.0481 9.3894 28.963 9.31746 28.9036 9.22588C28.8443 9.13429 28.8135 9.02716 28.815 8.91804C28.8165 8.80892 28.8504 8.70271 28.9123 8.61283C28.9742 8.52295 29.0614 8.45345 29.1628 8.41311C29.2642 8.37277 29.3753 8.3634 29.482 8.38619C29.5529 8.40132 29.6201 8.43027 29.6798 8.47138C29.7394 8.5125 29.7904 8.56496 29.8299 8.62579C29.8693 8.68661 29.8963 8.75461 29.9094 8.82589C29.9226 8.89716 29.9215 8.97033 29.9064 9.04121Z" fill="#EF929C"/>
<path opacity="0.58" d="M117.877 6.72132C117.857 6.81206 117.811 6.89502 117.745 6.9597C117.678 7.02439 117.594 7.06789 117.503 7.08471C117.412 7.10153 117.317 7.09092 117.232 7.0542C117.147 7.01749 117.075 6.95633 117.024 6.87847C116.974 6.8006 116.947 6.70952 116.949 6.61674C116.95 6.52397 116.979 6.43366 117.032 6.35726C117.084 6.28085 117.158 6.22177 117.245 6.18749C117.331 6.15321 117.425 6.14527 117.516 6.16467C117.576 6.1775 117.633 6.20208 117.684 6.23701C117.735 6.27194 117.778 6.31653 117.812 6.36823C117.845 6.41993 117.868 6.47773 117.879 6.53831C117.89 6.5989 117.889 6.66109 117.877 6.72132Z" fill="#3E479B"/>
<path opacity="0.58" d="M18.6315 118.616C18.6121 118.707 18.5663 118.789 18.4998 118.854C18.4333 118.919 18.3491 118.962 18.2579 118.979C18.1667 118.996 18.0725 118.985 17.9873 118.949C17.9021 118.912 17.8296 118.851 17.7791 118.773C17.7287 118.695 17.7024 118.604 17.7037 118.512C17.7049 118.419 17.7337 118.328 17.7862 118.252C17.8388 118.176 17.9129 118.116 17.9991 118.082C18.0853 118.048 18.1797 118.04 18.2704 118.059C18.3921 118.085 18.4984 118.158 18.5661 118.263C18.6338 118.367 18.6573 118.494 18.6315 118.616Z" fill="#3E479B"/>
<path d="M93.4903 25.5723H40.1358C38.6065 25.5723 37.3667 26.812 37.3667 28.3414V103.589C37.3667 105.118 38.6065 106.358 40.1358 106.358H93.4903C95.0196 106.358 96.2594 105.118 96.2594 103.589V28.3414C96.2594 26.812 95.0196 25.5723 93.4903 25.5723Z" fill="#2E44D0"/>
<path d="M91.1636 28.8291H42.6904V99.2419H91.1636V28.8291Z" fill="#F6F5F5"/>
<path d="M91.1625 28.8291C91.1777 56.2865 92.0641 89.4014 88.9798 96.7333C75.3951 98.0567 59.4884 98.4815 42.689 98.559L49.0748 29.0415L91.1625 28.8291Z" fill="#E4E4E4"/>
<path d="M86.8095 94.5141C65.6355 97.9028 51.4841 98.0813 40.0063 97.2292C41.4937 81.3958 42.0899 55.0927 42.689 28.832L68.2045 28.8879L91.297 30.4122C91.6335 57.6688 91.67 82.846 86.8095 94.5141Z" fill="white"/>
<path d="M79.328 35.9242L53.8281 35.3232L53.7366 39.2072L79.2364 39.8081L79.328 35.9242Z" fill="#2E44D0"/>
<path d="M84.2421 45.4288L61.2417 44.8867L61.1998 46.6646L84.2002 47.2066L84.2421 45.4288Z" fill="#2E44D0"/>
<path d="M76.7855 49.1321L61.1514 48.7637L61.1095 50.5416L76.7436 50.91L76.7855 49.1321Z" fill="#D3DFFF"/>
<path d="M53.9944 44.8207L48.5493 44.6924L48.421 50.1374L53.866 50.2657L53.9944 44.8207Z" fill="white" stroke="#708CD5" stroke-width="0.223555" stroke-miterlimit="10"/>
<path d="M49.4376 46.124C49.6057 46.7674 49.916 49.4635 51.2659 48.7098C51.5774 48.5358 51.8412 48.0764 52.0741 47.8118L53.3297 46.3859L55.8417 43.5341C56.0563 43.2904 55.1088 42.6794 54.8395 42.9852L52.6065 45.5189L51.4887 46.7857C51.2305 47.0789 50.6318 48.0246 50.2502 48.1088L50.8751 48.3103C51.0241 48.4314 50.7488 47.5748 50.7428 47.5517C50.639 47.1543 50.5351 46.7569 50.4313 46.3594C50.3456 46.0308 49.3087 45.6362 49.4361 46.1228L49.4376 46.124Z" fill="#EE6F57"/>
<path d="M79.9485 55.2335L61.0078 54.7871L60.9659 56.565L79.9066 57.0114L79.9485 55.2335Z" fill="#2E44D0"/>
<path d="M83.9174 59.2041L60.917 58.6621L60.8751 60.44L83.8755 60.982L83.9174 59.2041Z" fill="#D3DFFF"/>
<path d="M53.7605 54.7191L48.3154 54.5908L48.1871 60.0359L53.6322 60.1642L53.7605 54.7191Z" fill="white" stroke="#708CD5" stroke-width="0.223555" stroke-miterlimit="10"/>
<path d="M49.2013 56.1757C49.3693 56.8196 49.6797 59.5153 51.0296 58.7615C51.3411 58.5875 51.6049 58.1281 51.8378 57.8636L53.0934 56.4377L55.6054 53.5858C55.82 53.3422 54.8725 52.7311 54.6031 53.037L52.3702 55.5706L51.2524 56.8374C50.9942 57.1307 50.3954 58.0763 50.0139 58.1602L50.6388 58.3621C50.7878 58.4828 50.5124 57.6262 50.5065 57.6031C50.4026 57.2057 50.2988 56.8083 50.195 56.4108C50.1093 56.0826 49.0724 55.6876 49.1998 56.1742L49.2013 56.1757Z" fill="#EE6F57"/>
<path d="M83.7753 65.2276L60.7749 64.6855L60.733 66.4634L83.7334 67.0055L83.7753 65.2276Z" fill="#2E44D0"/>
<path d="M70.9699 68.8059L60.6836 68.5635L60.6417 70.3414L70.928 70.5838L70.9699 68.8059Z" fill="#D3DFFF"/>
<path d="M53.5266 64.6205L48.0815 64.4922L47.9532 69.9372L53.3983 70.0655L53.5266 64.6205Z" fill="white" stroke="#708CD5" stroke-width="0.223555" stroke-miterlimit="10"/>
<path d="M49.0416 66.1454C49.2097 66.7889 49.52 69.485 50.8699 68.7312C51.1814 68.5572 51.4452 68.0978 51.6781 67.8333L52.9337 66.4074C53.7713 65.4568 54.6086 64.5062 55.4457 63.5556C55.6604 63.3119 54.7128 62.7008 54.4435 63.0067L52.2105 65.5404L51.0927 66.8072C50.8345 67.1004 50.2358 68.046 49.8542 68.1302L50.4791 68.3318C50.6281 68.4529 50.3528 67.5963 50.3468 67.5732C50.243 67.1758 50.1392 66.7784 50.0353 66.3809C49.9496 66.0523 48.9127 65.6577 49.0401 66.1443L49.0416 66.1454Z" fill="#EE6F57"/>
<path d="M83.5419 75.126L60.5415 74.584L60.4996 76.3619L83.5 76.9039L83.5419 75.126Z" fill="#2E44D0"/>
<path d="M78.6193 78.8882L60.4497 78.46L60.4078 80.2378L78.5774 80.666L78.6193 78.8882Z" fill="#D3DFFF"/>
<path d="M53.2932 74.5189L47.8481 74.3906L47.7198 79.8357L53.1649 79.964L53.2932 74.5189Z" fill="white" stroke="#708CD5" stroke-width="0.223555" stroke-miterlimit="10"/>
<path d="M48.8111 75.9855C48.9791 76.629 49.2899 79.3247 50.6398 78.5709C50.9513 78.3973 51.2147 77.9375 51.4476 77.6733L52.7036 76.2474L55.2156 73.3952C55.4302 73.1519 54.4827 72.5409 54.2133 72.8464L51.9804 75.38L50.8626 76.6468C50.6044 76.9401 50.0056 77.8857 49.6241 77.9695L50.2489 78.1715C50.398 78.2922 50.1226 77.436 50.1167 77.4125C50.0126 77.0151 49.9088 76.6177 49.8052 76.2202C49.7191 75.8916 48.6826 75.4966 48.8096 75.9836L48.8111 75.9855Z" fill="#EE6F57"/>
<path d="M69.4275 84.625L60.3101 84.4102L60.2682 86.188L69.3856 86.4029L69.4275 84.625Z" fill="#2E44D0"/>
<path d="M83.2219 88.8236L60.2214 88.2822L60.1797 90.0602C69.0783 90.2689 80.4088 90.6858 82.7215 90.3311C83.0714 89.9321 83.2607 89.4421 83.2219 88.8236Z" fill="#D3DFFF"/>
<path d="M53.1389 84.3451L47.6938 84.2168L47.5655 89.6618L53.0106 89.7902L53.1389 84.3451Z" fill="white" stroke="#708CD5" stroke-width="0.223555" stroke-miterlimit="10"/>
<path d="M48.5812 85.7285C48.7492 86.3723 49.0596 89.068 50.4095 88.3142C50.721 88.1402 50.9848 87.6808 51.2176 87.4163L52.4733 85.9904C53.3109 85.0398 54.1482 84.0892 54.9853 83.1386C55.1999 82.8949 54.2524 82.2838 53.983 82.5897L51.7501 85.1234L50.6323 86.3902C50.3741 86.6834 49.7753 87.6291 49.3938 87.7129L50.0186 87.9148C50.1677 88.0355 49.8923 87.179 49.8864 87.1559C49.7825 86.7584 49.6787 86.361 49.5749 85.9636C49.4892 85.6353 48.4523 85.2404 48.5797 85.727L48.5812 85.7285Z" fill="#EE6F57"/>
<path d="M77.7304 26.0606V31.4948H55.8965V26.0606C55.8963 25.6483 55.9774 25.24 56.1351 24.8591C56.2928 24.4782 56.5241 24.1321 56.8157 23.8407C56.8857 23.7702 56.9597 23.7037 57.0374 23.6417C57.5985 23.175 58.3057 22.9201 59.0356 22.9215C59.5913 22.9217 60.14 22.7966 60.6407 22.5556C60.8526 22.4533 61.0547 22.3317 61.2443 22.1923C61.8843 21.7198 62.3547 21.0534 62.5856 20.2921C62.8172 19.5314 63.2871 18.8653 63.9261 18.392C64.565 17.9186 65.3391 17.6631 66.1342 17.6631H67.4968C68.2919 17.6632 69.0659 17.9187 69.7047 18.3921C70.3435 18.8654 70.8134 19.5315 71.045 20.2921C71.2761 21.0533 71.7464 21.7197 72.3863 22.1923C72.576 22.3315 72.7781 22.4531 72.9899 22.5556C73.4906 22.7966 74.0393 22.9217 74.595 22.9215C75.4266 22.9235 76.2234 23.2551 76.8111 23.8434C77.3987 24.4318 77.7293 25.229 77.7304 26.0606Z" fill="#EE6F57"/>
<path d="M79.5033 28.8291V32.8691H54.1245V28.8291H55.8966V31.4972H77.7312V28.8291H79.5033Z" fill="#E4E4E4"/>
<path d="M66.8132 22.7603C67.8828 22.7603 68.7499 21.9362 68.7499 20.9197C68.7499 19.9032 67.8828 19.0791 66.8132 19.0791C65.7436 19.0791 64.8765 19.9032 64.8765 20.9197C64.8765 21.9362 65.7436 22.7603 66.8132 22.7603Z" fill="white"/>
</g>
</svg>
