<svg width="133" height="124" viewBox="0 0 133 124" fill="none" xmlns="http://www.w3.org/2000/svg">
<mask id="mask0_243_3159" style="mask-type:luminance" maskUnits="userSpaceOnUse" x="0" y="0" width="133" height="124">
<path d="M133 0.700195H0.131348V123.317H133V0.700195Z" fill="white"/>
</mask>
<g mask="url(#mask0_243_3159)">
<path opacity="0.4" d="M126.322 76.9002C126.434 74.9801 126.383 73.0539 126.167 71.1426C125.151 62.1702 120.547 53.7094 113.773 47.7397C111.355 45.61 108.605 43.7019 107.032 40.8907C104.383 36.1562 104.584 30.7148 101.294 26.0403C98.0045 21.3657 93.207 17.7106 87.7985 15.8361C71.6712 10.2476 49.0891 19.3463 51.1224 38.7796C51.1298 38.8493 51.1376 38.9506 51.1462 39.0777C51.4163 43.1143 48.2486 46.5079 44.216 46.604C29.3354 46.958 16.5276 58.4312 13.7853 72.9623C12.0229 82.3088 14.909 92.5528 21.7461 99.1649C26.8506 104.1 33.6966 106.812 40.5475 108.675C54.2831 112.41 68.7374 113.193 82.9004 111.765C96.1576 110.428 110.142 106.617 118.716 96.417C123.289 90.9775 125.909 84.0004 126.322 76.9002Z" fill="#2E44D0"/>
<path opacity="0.31" d="M61.5837 11.5355C61.8888 9.64793 60.6058 7.87044 58.7183 7.5654C56.8307 7.26035 55.0532 8.54326 54.7481 10.4308C54.4431 12.3184 55.726 14.0959 57.6136 14.401C59.5012 14.706 61.2787 13.4231 61.5837 11.5355Z" fill="#2E44D0"/>
<path opacity="0.31" d="M104.947 10.6564C105.933 10.6564 106.733 9.85669 106.733 8.87019C106.733 7.8837 105.933 7.08398 104.947 7.08398C103.96 7.08398 103.161 7.8837 103.161 8.87019C103.161 9.85669 103.96 10.6564 104.947 10.6564Z" fill="#2E44D0"/>
<path opacity="0.31" d="M44.2072 19.3111C44.527 18.0282 43.7463 16.729 42.4635 16.4091C41.1806 16.0893 39.8814 16.8699 39.5616 18.1528C39.2417 19.4356 40.0224 20.7349 41.3052 21.0547C42.5881 21.3746 43.8873 20.5939 44.2072 19.3111Z" fill="#2E44D0"/>
<path opacity="0.31" d="M14.2828 110.999C17.2929 110.999 19.7331 108.559 19.7331 105.549C19.7331 102.539 17.2929 100.099 14.2828 100.099C11.2727 100.099 8.83252 102.539 8.83252 105.549C8.83252 108.559 11.2727 110.999 14.2828 110.999Z" fill="#2E44D0"/>
<path opacity="0.47" d="M124.84 20.5069C125.209 19.7873 125.434 19.002 125.499 18.1957C125.565 17.3895 125.472 16.5782 125.224 15.8081C124.977 15.038 124.58 14.3242 124.056 13.7075C123.533 13.0908 122.893 12.5832 122.173 12.2138C119.147 10.6601 113.331 10.7745 111.778 13.801C110.225 16.8276 114.882 19.4246 116.782 22.2469C119.429 26.1834 123.285 23.5335 124.84 20.5069Z" fill="#ECF1F7"/>
<path opacity="0.47" d="M111.605 113.527C112.126 113.864 112.708 114.094 113.317 114.205C113.927 114.317 114.553 114.307 115.158 114.177C115.764 114.046 116.339 113.798 116.848 113.446C117.358 113.093 117.794 112.644 118.13 112.123C119.544 109.934 119.897 105.491 117.707 104.078C115.517 102.664 113.185 106.019 110.889 107.253C107.687 108.973 109.415 112.114 111.605 113.527Z" fill="#2E44D0"/>
<path opacity="0.47" d="M22.2277 6.61881C21.655 6.08696 20.9831 5.67312 20.2505 5.40093C19.5179 5.12873 18.7388 5.0035 17.9578 5.03239C17.1768 5.06128 16.4091 5.24372 15.6985 5.5693C14.988 5.89488 14.3486 6.35722 13.8168 6.92992C11.5812 9.33836 10.1654 14.7778 12.5738 17.0145C14.9822 19.2512 18.6165 15.5987 21.7396 14.5699C26.0918 13.1354 24.6357 8.85548 22.2277 6.61881Z" fill="#2E44D0"/>
<path opacity="0.47" d="M8.95145 32.6184C6.80308 37.2799 6.21811 42.6542 7.2502 47.6782C8.46149 53.5849 12.1386 58.1223 10.8625 64.4236C10.0852 68.2613 9.89076 71.817 9.49655 75.6144C8.68579 83.4124 13.7486 90.2834 20.0301 93.9937C25.1316 97.0068 31.1121 98.1376 36.9775 98.0571C42.256 97.9849 47.5255 97.0098 52.6405 95.6994C57.5703 94.4363 62.3897 92.7719 67.5568 93.2969C71.854 93.7336 75.7244 95.5913 79.7265 96.9766C89.2812 100.284 100.855 100.751 109.592 95.7158C115.199 92.4843 119.124 87.2367 120.865 81.5945C122.256 77.0862 122.433 72.8692 121.39 68.2658C120.319 63.5398 118.512 58.7751 119.073 53.8506C119.464 50.419 121.034 47.1066 120.746 43.665C120.555 41.378 119.548 39.2312 118.317 37.2959C113.821 30.2245 106.292 25.4926 98.3296 22.8844C90.8357 20.4294 83.107 18.6518 75.3053 19.2423C59.172 20.4637 55.8854 17.901 39.4001 14.3752C28.7573 12.099 16.8523 20.2133 10.6244 29.6142C9.99077 30.5714 9.43149 31.5757 8.95145 32.6184Z" fill="#2E44D0"/>
<path opacity="0.5" d="M20.0494 39.8872C19.7185 43.6098 20.9738 47.4457 19.9245 51.1321C18.6682 55.5454 15.0313 58.8511 13.5487 63.1843C11.3583 69.5873 11.4622 76.762 14.1236 83.001C15.4057 86.0082 17.2788 88.8026 19.8366 90.7349C23.7794 93.7156 28.9457 94.3677 33.8043 93.9899C41.0356 93.4273 48.6659 90.2971 55.9363 91.1507C59.9484 91.6217 61.1735 95.9642 63.2455 98.8283C65.5891 102.068 68.7807 104.613 72.3088 106.307C78.8075 109.426 86.607 109.721 93.2485 106.893C100.34 103.873 106.52 96.4974 106.114 88.1566C105.928 84.298 104.382 80.4655 105.097 76.674C105.994 71.916 109.579 67.5798 112.176 63.703C115.045 59.4215 116.782 54.3136 117.122 49.1067L117.133 48.9293C117.666 39.9431 111.998 31.7476 103.447 28.9349L85.2511 22.9511C66.7899 16.8789 48.3444 17.0798 31.3691 25.9907C27.6957 27.9192 21.7148 33.6661 20.4827 37.6264C20.258 38.3624 20.1127 39.1203 20.0494 39.8872Z" fill="#2E44D0"/>
<path opacity="0.58" d="M123.312 99.7155C123.96 99.7155 124.484 99.1907 124.484 98.5433C124.484 97.8959 123.96 97.3711 123.312 97.3711C122.665 97.3711 122.14 97.8959 122.14 98.5433C122.14 99.1907 122.665 99.7155 123.312 99.7155Z" fill="#3E479B"/>
<path opacity="0.58" d="M69.1702 8.37072C69.8176 8.37072 70.3424 7.84592 70.3424 7.19854C70.3424 6.55117 69.8176 6.02637 69.1702 6.02637C68.5228 6.02637 67.998 6.55117 67.998 7.19854C67.998 7.84592 68.5228 8.37072 69.1702 8.37072Z" fill="#3E479B"/>
<path opacity="0.58" d="M26.8314 110.525C27.4787 110.525 28.0035 110 28.0035 109.353C28.0035 108.705 27.4787 108.181 26.8314 108.181C26.184 108.181 25.6592 108.705 25.6592 109.353C25.6592 110 26.184 110.525 26.8314 110.525Z" fill="#3E479B"/>
<path opacity="0.58" d="M100.806 115.194C101.309 115.194 101.718 114.785 101.718 114.282C101.718 113.778 101.309 113.37 100.806 113.37C100.302 113.37 99.894 113.778 99.894 114.282C99.894 114.785 100.302 115.194 100.806 115.194Z" fill="#EF929C"/>
<path opacity="0.58" d="M21.656 27.5503C21.8718 27.5503 22.0468 27.3753 22.0468 27.1594C22.0468 26.9435 21.8718 26.7686 21.656 26.7686C21.4401 26.7686 21.2651 26.9435 21.2651 27.1594C21.2651 27.3753 21.4401 27.5503 21.656 27.5503Z" fill="#3E479B"/>
<path opacity="0.58" d="M104.875 15.5093C104.816 15.7816 104.679 16.0304 104.479 16.2244C104.279 16.4183 104.027 16.5487 103.753 16.599C103.479 16.6493 103.197 16.6173 102.941 16.507C102.685 16.3966 102.468 16.213 102.317 15.9793C102.166 15.7455 102.087 15.4722 102.091 15.1938C102.096 14.9155 102.182 14.6446 102.34 14.4155C102.499 14.1864 102.721 14.0093 102.98 13.9067C103.239 13.8041 103.522 13.7805 103.794 13.839C104.159 13.9173 104.478 14.1372 104.68 14.4505C104.883 14.7637 104.953 15.1446 104.875 15.5093Z" fill="#EF929C"/>
<path opacity="0.58" d="M29.6593 9.03925C29.6365 9.14597 29.5825 9.24353 29.5043 9.31959C29.426 9.39565 29.327 9.4468 29.2196 9.46656C29.1123 9.48633 29.0015 9.47383 28.9013 9.43064C28.8011 9.38745 28.7159 9.31551 28.6566 9.22392C28.5972 9.13233 28.5664 9.02521 28.5679 8.91609C28.5695 8.80697 28.6033 8.70075 28.6652 8.61088C28.7271 8.521 28.8143 8.4515 28.9157 8.41116C29.0171 8.37082 29.1282 8.36145 29.2349 8.38424C29.3058 8.39937 29.373 8.42832 29.4327 8.46943C29.4924 8.51054 29.5434 8.56301 29.5828 8.62384C29.6222 8.68466 29.6492 8.75265 29.6624 8.82393C29.6755 8.89521 29.6744 8.96838 29.6593 9.03925Z" fill="#EF929C"/>
<path opacity="0.58" d="M117.629 6.71937C117.609 6.81011 117.563 6.89307 117.497 6.95775C117.43 7.02243 117.346 7.06594 117.255 7.08276C117.164 7.09958 117.069 7.08896 116.984 7.05225C116.899 7.01554 116.827 6.95438 116.776 6.87651C116.726 6.79864 116.699 6.70756 116.701 6.61479C116.702 6.52201 116.731 6.43171 116.783 6.3553C116.836 6.2789 116.91 6.21982 116.996 6.18553C117.083 6.15125 117.177 6.14331 117.268 6.16271C117.328 6.17555 117.385 6.20013 117.436 6.23506C117.487 6.26999 117.53 6.31458 117.564 6.36628C117.597 6.41798 117.62 6.47577 117.631 6.53636C117.642 6.59694 117.641 6.65913 117.629 6.71937Z" fill="#3E479B"/>
<path opacity="0.58" d="M18.3839 118.616C18.3646 118.707 18.3187 118.789 18.2523 118.854C18.1858 118.919 18.1016 118.962 18.0103 118.979C17.9191 118.996 17.8249 118.985 17.7397 118.949C17.6545 118.912 17.5821 118.851 17.5316 118.773C17.4811 118.695 17.4548 118.604 17.4561 118.512C17.4574 118.419 17.4861 118.328 17.5387 118.252C17.5913 118.176 17.6653 118.116 17.7515 118.082C17.8377 118.048 17.9321 118.04 18.0229 118.059C18.1445 118.085 18.2509 118.158 18.3186 118.263C18.3863 118.367 18.4098 118.494 18.3839 118.616Z" fill="#3E479B"/>
<path d="M112.192 21.2116C111.988 20.6527 111.169 20.7411 111.09 21.3301C110.321 27.0215 107.838 41.8831 102.005 50.4024C92.5073 64.2732 87.8395 85.2904 96.4769 94.6261C96.4769 94.6272 134.481 81.9814 112.192 21.2116Z" fill="#BDD0FB"/>
<path opacity="0.43" d="M112.206 29.1751C112.217 29.3562 112.212 29.5064 112.213 29.6681L112.208 30.1454L112.186 31.0981C112.167 31.7315 112.138 32.3675 112.111 33.002C112.049 34.2706 111.972 35.5384 111.882 36.8054C111.698 39.3391 111.446 41.8675 111.155 44.3914C110.865 46.9154 110.511 49.433 110.101 51.9409C109.691 54.4488 109.238 56.9511 108.706 59.4367C107.655 64.4112 106.332 69.3331 104.668 74.1422C103.811 76.5372 102.889 78.9113 101.833 81.2266C100.76 83.5337 99.5889 85.7961 98.2561 87.9631C98.2419 87.9843 98.2201 87.9992 98.1952 88.0048C98.1703 88.0105 98.1442 88.0065 98.1222 87.9935C98.1002 87.9806 98.084 87.9598 98.0768 87.9353C98.0696 87.9108 98.0721 87.8845 98.0836 87.8617C99.3221 85.6534 100.446 83.383 101.452 81.0593C102.465 78.7399 103.342 76.3647 104.157 73.9682C104.971 71.5716 105.686 69.1427 106.348 66.6996C107.009 64.2565 107.567 61.7848 108.112 59.3122C109.181 54.3605 109.985 49.3536 110.651 44.3299C110.978 41.8172 111.257 39.2982 111.488 36.773C111.606 35.5109 111.711 34.2478 111.803 32.9838L111.924 31.0869L111.975 30.1379L111.995 29.664C112 29.5086 112.007 29.3417 112.005 29.2053V29.1822C112.004 29.1559 112.013 29.1303 112.031 29.111C112.049 29.0917 112.074 29.0802 112.1 29.0792C112.126 29.0781 112.152 29.0876 112.171 29.1054C112.191 29.1233 112.202 29.1481 112.203 29.1744L112.206 29.1751Z" fill="white"/>
<path d="M87.3832 10.6314C87.0434 10.1757 86.3168 10.479 86.4048 11.0413C87.2524 16.4707 89.0293 30.7767 86.0042 40.1806C81.0789 55.4919 82.5313 76.0392 92.9993 82.2462C92.9993 82.2436 124.401 60.2789 87.3832 10.6314Z" fill="#91B3FA"/>
<path opacity="0.43" d="M89.5719 17.9313C89.6319 18.0945 89.6681 18.2335 89.7139 18.3814L89.8387 18.8203L90.0787 19.7C90.2348 20.2876 90.3816 20.8774 90.5284 21.4669C90.8175 22.6472 91.0935 23.8307 91.3563 25.0173C91.8779 27.3911 92.3381 29.7787 92.7606 32.1711C93.1831 34.5635 93.5456 36.9697 93.8534 39.3818C94.1611 41.794 94.4309 44.2118 94.6228 46.637C95.0162 51.4855 95.1444 56.3616 94.9305 61.2247C94.7968 63.6551 94.6001 66.0833 94.2625 68.4951C93.9074 70.9035 93.4499 73.2978 92.8198 75.6489C92.8136 75.674 92.7977 75.6957 92.7756 75.7091C92.7534 75.7225 92.7268 75.7266 92.7017 75.7204C92.6765 75.7142 92.6549 75.6983 92.6415 75.6762C92.6281 75.654 92.624 75.6274 92.6302 75.6023C93.1631 73.2391 93.5741 70.8502 93.8616 68.4448C94.1574 66.0416 94.3135 63.6231 94.4067 61.2046C94.4998 58.7861 94.4927 56.3609 94.4324 53.9413C94.372 51.5216 94.2088 49.102 94.0348 46.6858C93.6645 41.8533 93.0359 37.0427 92.2766 32.2542C91.8921 29.8601 91.4611 27.4739 90.9837 25.0955C90.748 23.9062 90.4996 22.7193 90.2385 21.5347L89.8327 19.7619L89.6207 18.8777L89.509 18.4373C89.4717 18.2939 89.4315 18.1393 89.3923 18.0148L89.386 17.9939C89.3819 17.9819 89.3802 17.9692 89.3811 17.9566C89.3819 17.9439 89.3852 17.9315 89.3908 17.9201C89.3964 17.9088 89.4042 17.8986 89.4137 17.8902C89.4233 17.8819 89.4344 17.8754 89.4464 17.8714C89.4584 17.8673 89.4711 17.8656 89.4837 17.8664C89.4964 17.8672 89.5088 17.8705 89.5202 17.8761C89.5315 17.8818 89.5417 17.8895 89.5501 17.8991C89.5584 17.9086 89.5649 17.9197 89.569 17.9317L89.5719 17.9313Z" fill="white"/>
<path d="M85.2936 90.6723C101.516 74.4498 101.516 48.1479 85.2936 31.9254C69.0711 15.7029 42.7693 15.7029 26.5468 31.9254C10.3243 48.1479 10.3243 74.4498 26.5468 90.6723C42.7693 106.895 69.0711 106.895 85.2936 90.6723Z" fill="#2E44D0"/>
<path d="M88.0764 90.6723C104.299 74.4498 104.299 48.1479 88.0764 31.9254C71.8539 15.7029 45.552 15.7029 29.3295 31.9254C13.107 48.1479 13.107 74.4498 29.3295 90.6723C45.552 106.895 71.8539 106.895 88.0764 90.6723Z" fill="white"/>
<path d="M58.7024 96.7505C78.2825 96.7505 94.1553 80.8777 94.1553 61.2976C94.1553 41.7175 78.2825 25.8447 58.7024 25.8447C39.1223 25.8447 23.2495 41.7175 23.2495 61.2976C23.2495 80.8777 39.1223 96.7505 58.7024 96.7505Z" fill="#2E44D0"/>
<path d="M58.7023 98.5261C38.1743 98.5261 21.4736 81.8254 21.4736 61.2974C21.4736 40.7694 38.1747 24.0684 58.7023 24.0684C79.2299 24.0684 95.931 40.7691 95.931 61.2974C95.931 81.8257 79.2303 98.5261 58.7023 98.5261ZM58.7023 25.8441C39.1535 25.8441 23.2494 41.7482 23.2494 61.2974C23.2494 80.8466 39.1535 96.7503 58.7023 96.7503C78.2511 96.7503 94.1552 80.8462 94.1552 61.2974C94.1552 41.7486 78.2511 25.8441 58.7023 25.8441Z" fill="white"/>
<path d="M73.9868 76.582C82.4275 68.1414 82.4275 54.4563 73.9868 46.0156C65.5461 37.575 51.8611 37.575 43.4204 46.0156C34.9797 54.4563 34.9797 68.1414 43.4204 76.582C51.8611 85.0227 65.5461 85.0227 73.9868 76.582Z" fill="#2E44D0"/>
<path d="M58.7034 84.6881C45.8065 84.6881 35.314 74.1956 35.314 61.2987C35.314 48.4017 45.8065 37.9092 58.7034 37.9092C71.6003 37.9092 82.0929 48.4014 82.0929 61.2987C82.0929 74.1959 71.6003 84.6881 58.7034 84.6881ZM58.7034 41.4604C47.7645 41.4604 38.8651 50.3597 38.8651 61.2987C38.8651 72.2376 47.7645 81.137 58.7034 81.137C69.6424 81.137 78.5417 72.2372 78.5417 61.2987C78.5417 50.3601 69.6424 41.4604 58.7034 41.4604Z" fill="white"/>
<path d="M64.6233 67.2201C67.8936 63.9499 67.8936 58.6478 64.6233 55.3775C61.3531 52.1073 56.0509 52.1073 52.7807 55.3775C49.5104 58.6478 49.5104 63.9499 52.7807 67.2201C56.0509 70.4904 61.3531 70.4904 64.6233 67.2201Z" fill="url(#paint0_linear_243_3159)"/>
<path d="M58.7017 71.4467C53.1053 71.4467 48.5522 66.8936 48.5522 61.2972C48.5522 55.7009 53.1053 51.1475 58.7017 51.1475C64.298 51.1475 68.8511 55.7005 68.8511 61.2972C68.8511 66.894 64.298 71.4467 58.7017 71.4467ZM58.7017 54.699C55.0633 54.699 52.1034 57.6589 52.1034 61.2972C52.1034 64.9356 55.0633 67.8951 58.7017 67.8951C62.34 67.8951 65.2988 64.9356 65.2988 61.2972C65.2988 57.6589 62.34 54.699 58.7017 54.699Z" fill="white"/>
<path d="M116.555 73.7816L118.329 77.3615L110.807 75.6296C109.59 75.3495 108.45 74.8027 107.47 74.0286C106.49 73.2545 105.694 72.2724 105.14 71.1533L116.555 73.7816Z" fill="#2E44D0"/>
<path d="M116.803 72.7082L119.964 70.2644L112.442 68.5326C111.225 68.2523 109.961 68.2457 108.741 68.5133C107.521 68.7809 106.376 69.316 105.388 70.08L116.803 72.7082Z" fill="#2E44D0"/>
<path d="M68.1454 61.3151L67.8486 62.6045L116.671 73.8402L116.968 72.5508L68.1454 61.3151Z" fill="url(#paint1_linear_243_3159)"/>
<path d="M70.4168 60.6843C71.1564 60.8546 70.3535 64.3417 69.6139 64.1714L58.3821 60.1291C57.967 59.9801 58.1097 59.3609 58.5483 59.4078L70.4168 60.6843Z" fill="url(#paint2_linear_243_3159)"/>
<path d="M82.3333 110.986C82.3333 110.986 82.9328 111.85 82.963 113.064C82.9648 113.202 82.9124 113.335 82.8169 113.435C82.7215 113.534 82.5908 113.592 82.4529 113.596L77.8376 113.757C77.7906 113.759 77.7442 113.746 77.7052 113.719C77.6663 113.693 77.6368 113.655 77.6211 113.61C77.6054 113.566 77.6042 113.518 77.6178 113.473C77.6315 113.428 77.6591 113.388 77.6968 113.36C78.5485 112.716 80.2252 111.511 81.451 111.017L82.3333 110.986Z" fill="url(#paint3_linear_243_3159)"/>
<path d="M82.4486 109.515L82.3304 111.289C82.3277 111.336 82.3157 111.383 82.295 111.425C82.2742 111.468 82.2453 111.506 82.2097 111.538C82.1742 111.569 82.1327 111.593 82.0879 111.608C82.043 111.624 81.9955 111.63 81.9482 111.627C81.801 111.614 81.6571 111.576 81.5227 111.515C81.4484 111.481 81.3859 111.425 81.3432 111.356C81.3006 111.286 81.2796 111.205 81.2831 111.123L81.3632 108.982L82.4486 109.515Z" fill="url(#paint4_linear_243_3159)"/>
<path d="M108.045 103.246C108.045 103.246 109.008 102.822 110.206 103.023C110.342 103.047 110.463 103.124 110.542 103.237C110.622 103.349 110.654 103.489 110.632 103.625L109.914 108.187C109.907 108.233 109.885 108.276 109.852 108.309C109.818 108.342 109.775 108.364 109.729 108.371C109.682 108.378 109.635 108.37 109.593 108.348C109.551 108.326 109.518 108.292 109.497 108.25C109.027 107.291 108.161 105.416 107.909 104.119L108.045 103.246Z" fill="url(#paint5_linear_243_3159)"/>
<path d="M106.62 102.853L108.339 103.305C108.385 103.317 108.429 103.337 108.467 103.366C108.505 103.394 108.537 103.43 108.561 103.471C108.586 103.512 108.601 103.557 108.608 103.604C108.615 103.651 108.612 103.699 108.6 103.745C108.559 103.887 108.494 104.021 108.408 104.141C108.361 104.207 108.294 104.258 108.218 104.287C108.141 104.316 108.058 104.321 107.978 104.302L105.892 103.818L106.62 102.853Z" fill="url(#paint6_linear_243_3159)"/>
<path d="M83.0718 66.9604C83.0718 66.9604 82.9172 66.6031 82.9422 66.3918C82.9671 66.1806 82.9731 65.5203 82.577 65.2416C82.577 65.2416 82.3624 65.2521 82.3583 65.4927C82.1061 65.2219 82.0934 64.9883 81.8326 65.1541C81.5718 65.3199 80.5915 65.9149 81.0814 66.3072C81.5714 66.6996 82.3408 67.4462 82.3408 67.4462L83.0718 66.9604Z" fill="url(#paint7_linear_243_3159)"/>
<path d="M91.5674 95.5023C91.5674 95.5023 92.4411 102.473 94.942 102.739C97.4428 103.005 107.021 104.389 107.021 104.389L107.287 102.952C107.287 102.952 101.753 99.5986 98.454 99.653C96.8045 97.2051 97.2069 90.4414 97.2069 90.4414L91.5674 95.5023Z" fill="url(#paint8_linear_243_3159)"/>
<path d="M101.858 71.1626C101.564 78.9341 97.4867 79.6204 97.4867 79.6204V89.5608H91.7383C91.7383 89.5608 88.951 82.7729 89.0233 80.5038C84.8774 78.7526 82.779 68.7269 82.3408 67.4434C82.545 67.288 82.6545 67.2943 83.0718 66.959C88.7226 75.9526 90.1015 77.3349 90.1015 77.3349H93.2943C99.4294 76.7839 100.938 70.9521 100.938 70.9521L101.858 71.1626Z" fill="url(#paint9_linear_243_3159)"/>
<path d="M97.3058 89.5436C97.3058 89.5436 97.7626 94.4142 88.1687 98.2101C85.8299 102.572 82.7579 110.707 82.7579 110.707H80.7358C80.7358 110.707 82.1193 98.4221 84.5668 95.9742C87.0144 93.5263 89.6851 90.7721 91.7377 89.5656C96.4861 89.0686 97.3058 89.5436 97.3058 89.5436Z" fill="url(#paint10_linear_243_3159)"/>
<path d="M93.2155 73.7109L94.2737 77.4369C94.2737 77.4369 92.4655 78.409 91.1286 78.1448L90.7612 74.8596L93.2155 73.7109Z" fill="url(#paint11_linear_243_3159)"/>
<path d="M91.0245 71.0069C90.9872 71.0505 89.5464 74.6292 89.5464 74.6292L91.6076 75.4076L93.4754 72.2182C93.4754 72.2182 91.6735 70.277 91.0245 71.0069Z" fill="url(#paint12_linear_243_3159)"/>
<path d="M92.6187 72.6369L91.7669 74.3929C91.7561 74.4153 91.7423 74.4361 91.7259 74.4548C91.6242 74.5692 91.2457 74.9391 90.8921 74.5293C90.5713 74.1567 90.2728 73.8214 89.9725 73.7334C89.9075 73.7141 89.8377 73.7198 89.7766 73.7493C89.7156 73.7788 89.6677 73.83 89.6424 73.8929C89.5116 74.2182 89.2326 74.9563 89.0835 75.6351C89.0695 75.7016 89.0808 75.7708 89.1153 75.8293C89.1498 75.8878 89.2049 75.9312 89.2698 75.9511C89.6756 76.0767 90.5366 76.3173 91.2777 76.3483C91.3267 76.3505 91.3755 76.3394 91.4187 76.3163C91.462 76.2931 91.4982 76.2587 91.5236 76.2168C91.7755 75.7976 92.546 74.5274 92.8154 74.2048C93.0684 73.9037 93.5978 73.9723 93.8177 74.0185C93.8532 74.0257 93.8899 74.0256 93.9255 74.0183C93.961 74.0109 93.9947 73.9964 94.0245 73.9756C94.2383 73.8266 94.6579 73.4335 94.1955 72.8537C94.1726 72.8251 94.1557 72.7921 94.1458 72.7568C94.1359 72.7215 94.1332 72.6846 94.1379 72.6482C94.1426 72.6118 94.1546 72.5768 94.1731 72.5451C94.1916 72.5135 94.2164 72.4859 94.2458 72.464C94.4932 72.2777 94.7741 71.9331 94.4537 71.4286C94.128 70.9159 93.6198 70.9345 93.3013 71.0116C93.239 71.0262 93.1736 71.0185 93.1164 70.9898C93.0593 70.961 93.014 70.9131 92.9887 70.8544C92.9574 70.7855 92.8963 70.7292 92.7793 70.7262C92.7419 70.7246 92.7052 70.7151 92.6717 70.6985C92.6381 70.6818 92.6084 70.6583 92.5845 70.6295C92.5606 70.6007 92.5429 70.5672 92.5327 70.5312C92.5225 70.4952 92.5199 70.4574 92.5251 70.4203C92.5646 70.1197 92.4998 69.7273 91.9957 69.5056C91.1015 69.1129 90.4222 69.943 90.29 70.6048C90.1577 71.2665 91.151 71.6376 91.7576 71.6603C92.2185 71.6775 92.5069 72.1689 92.6187 72.4036C92.6361 72.44 92.6452 72.4799 92.6452 72.5203C92.6452 72.5606 92.6361 72.6005 92.6187 72.6369Z" fill="url(#paint13_linear_243_3159)"/>
<path d="M92.498 74.8416C92.498 74.8416 92.7786 73.6985 93.2674 73.6963C93.7563 73.6941 94.1814 74.1434 93.6281 74.7396C92.9418 75.4829 92.498 74.8416 92.498 74.8416Z" fill="url(#paint14_linear_243_3159)"/>
<path d="M102.05 69.1138C102.05 69.1138 100.808 68.5639 100.969 69.4864C101.13 70.409 100.795 71.0826 101.503 71.1538C102.211 71.2249 102.29 69.7513 102.05 69.1138Z" fill="url(#paint15_linear_243_3159)"/>
<path d="M28.5398 28.427C28.4422 28.4315 28.3463 28.3998 28.2706 28.3379C28.1949 28.276 28.1448 28.1883 28.13 28.0917C28.0607 27.6502 28.01 27.1975 27.9783 26.7503C27.9747 26.6985 27.9813 26.6463 27.9978 26.597C28.0143 26.5477 28.0403 26.5021 28.0744 26.4628C28.1085 26.4235 28.15 26.3914 28.1966 26.3681C28.2431 26.3449 28.2938 26.3311 28.3457 26.3274H28.3531C28.4567 26.3222 28.5582 26.3578 28.6358 26.4266C28.7134 26.4953 28.7609 26.5918 28.7682 26.6952C28.798 27.1211 28.8465 27.5499 28.912 27.9695C28.9202 28.0208 28.9181 28.0733 28.9059 28.1238C28.8937 28.1744 28.8716 28.222 28.841 28.264C28.8104 28.3061 28.7718 28.3416 28.7274 28.3687C28.683 28.3958 28.6337 28.4138 28.5823 28.4218C28.5682 28.4243 28.5541 28.426 28.5398 28.427ZM28.3908 24.9816C28.3349 24.9845 28.2791 24.9755 28.2269 24.9552C28.1748 24.935 28.1275 24.9039 28.0882 24.864C28.049 24.8242 28.0186 24.7765 27.9991 24.7241C27.9795 24.6717 27.9713 24.6157 27.975 24.5599C28.0051 24.1128 28.0547 23.6604 28.1221 23.2185C28.1415 23.118 28.1991 23.0289 28.2828 22.9699C28.3664 22.9109 28.4697 22.8866 28.5709 22.902C28.6721 22.9175 28.7634 22.9716 28.8256 23.0529C28.8878 23.1342 28.9161 23.2364 28.9046 23.3381C28.8401 23.7581 28.7928 24.1869 28.7649 24.6128C28.7583 24.7095 28.7165 24.8005 28.6474 24.8685C28.5782 24.9365 28.4865 24.9768 28.3897 24.9816H28.3908ZM29.0029 21.5888C28.9396 21.5919 28.8765 21.5797 28.8189 21.5534C28.7613 21.527 28.7108 21.4872 28.6717 21.4373C28.6326 21.3875 28.6061 21.3289 28.5943 21.2667C28.5825 21.2044 28.5858 21.1402 28.6039 21.0795C28.7324 20.6503 28.8815 20.2225 29.0465 19.8045C29.0868 19.7091 29.1628 19.6333 29.2583 19.5932C29.3537 19.5532 29.4611 19.5521 29.5573 19.5903C29.6536 19.6284 29.7311 19.7027 29.7732 19.7973C29.8153 19.8918 29.8188 19.9992 29.7828 20.0962C29.6259 20.4919 29.4847 20.8992 29.3621 21.3071C29.3386 21.3856 29.2913 21.4548 29.2267 21.5052C29.1622 21.5557 29.0836 21.5849 29.0018 21.5888H29.0029ZM30.3592 18.4173C30.284 18.4214 30.2092 18.4036 30.1438 18.3663C30.0986 18.3406 30.0588 18.3063 30.0268 18.2653C29.9948 18.2243 29.9712 18.1774 29.9574 18.1272C29.9435 18.0771 29.9397 18.0247 29.9461 17.9731C29.9525 17.9215 29.9691 17.8716 29.9948 17.8264C30.2183 17.4367 30.4575 17.0518 30.7113 16.6822C30.7722 16.5996 30.8627 16.5439 30.9639 16.5268C31.065 16.5097 31.1688 16.5326 31.2535 16.5906C31.3381 16.6486 31.3969 16.7371 31.4174 16.8376C31.438 16.9381 31.4187 17.0427 31.3637 17.1293C31.1226 17.4802 30.8935 17.8458 30.683 18.2161C30.6503 18.2745 30.6034 18.3235 30.5465 18.3587C30.4897 18.3939 30.4248 18.4141 30.3581 18.4173H30.3592ZM32.3879 15.6281C32.3095 15.6322 32.2317 15.6128 32.1643 15.5725C32.0969 15.5321 32.043 15.4727 32.0095 15.4016C31.9761 15.3306 31.9645 15.2512 31.9763 15.1736C31.988 15.0959 32.0227 15.0235 32.0757 14.9656C32.3775 14.6355 32.6979 14.3136 33.0277 14.0092C33.0659 13.9739 33.1106 13.9465 33.1594 13.9286C33.2082 13.9106 33.26 13.9025 33.3119 13.9045C33.3639 13.9066 33.4149 13.9189 33.4621 13.9407C33.5093 13.9625 33.5517 13.9933 33.5869 14.0315C33.6222 14.0697 33.6496 14.1145 33.6675 14.1633C33.6855 14.212 33.6937 14.2639 33.6916 14.3158C33.6895 14.3677 33.6772 14.4187 33.6554 14.4659C33.6337 14.5131 33.6028 14.5555 33.5646 14.5908C33.2512 14.8803 32.9468 15.1869 32.6599 15.4999C32.6251 15.5383 32.5831 15.5693 32.5362 15.5913C32.4893 15.6133 32.4386 15.6258 32.3868 15.6281H32.3879ZM34.9834 13.3575C34.8975 13.3619 34.8124 13.3382 34.7411 13.29C34.6699 13.2418 34.6162 13.1717 34.5883 13.0902C34.5605 13.0088 34.5599 12.9205 34.5867 12.8387C34.6134 12.7569 34.6661 12.6861 34.7368 12.6369C35.1049 12.3813 35.4883 12.1384 35.8769 11.9148C35.9219 11.8889 35.9716 11.8721 36.0232 11.8654C36.0747 11.8587 36.1271 11.8621 36.1773 11.8757C36.2274 11.8892 36.2745 11.9124 36.3157 11.9441C36.3569 11.9758 36.3914 12.0153 36.4173 12.0603C36.4433 12.1054 36.4601 12.1551 36.4668 12.2066C36.4735 12.2582 36.47 12.3105 36.4565 12.3607C36.443 12.4109 36.4198 12.4579 36.3881 12.4991C36.3564 12.5403 36.3169 12.5748 36.2719 12.6008C35.9026 12.8135 35.5382 13.0442 35.1887 13.2871C35.1279 13.3296 35.0564 13.354 34.9823 13.3575H34.9834ZM49.4225 11.6779C49.3661 11.6809 49.3098 11.6717 49.2574 11.6507C48.8617 11.4946 48.4538 11.3526 48.0454 11.2322C47.9956 11.2174 47.9492 11.1929 47.9088 11.1602C47.8685 11.1274 47.835 11.087 47.8103 11.0413C47.7855 10.9956 47.77 10.9455 47.7647 10.8938C47.7593 10.8421 47.7642 10.7899 47.779 10.7401C47.7938 10.6902 47.8183 10.6438 47.8511 10.6035C47.8838 10.5632 47.9242 10.5297 47.9699 10.5049C48.0156 10.4802 48.0657 10.4647 48.1174 10.4593C48.1691 10.454 48.2214 10.4588 48.2712 10.4737C48.7015 10.6015 49.1311 10.7497 49.5477 10.9141C49.6318 10.9473 49.7019 11.0083 49.7465 11.087C49.7911 11.1656 49.8074 11.2572 49.7928 11.3464C49.7782 11.4356 49.7335 11.5171 49.6661 11.5774C49.5987 11.6377 49.5128 11.6732 49.4225 11.6779ZM38.0156 11.7192C37.9221 11.7239 37.83 11.6953 37.7555 11.6385C37.6811 11.5818 37.6292 11.5005 37.609 11.4091C37.5889 11.3176 37.6017 11.2221 37.6453 11.1392C37.6889 11.0564 37.7604 10.9917 37.8472 10.9565C38.263 10.7892 38.6911 10.6376 39.1196 10.5064C39.1698 10.4894 39.2229 10.4827 39.2757 10.4866C39.3286 10.4904 39.3801 10.5049 39.4273 10.5291C39.4745 10.5532 39.5163 10.5866 39.5503 10.6273C39.5843 10.6679 39.6099 10.715 39.6254 10.7656C39.6409 10.8163 39.6461 10.8696 39.6406 10.9223C39.6352 10.975 39.6192 11.0261 39.5936 11.0725C39.5681 11.119 39.5335 11.1598 39.4918 11.1926C39.4502 11.2254 39.4024 11.2495 39.3513 11.2635C38.9441 11.388 38.538 11.5318 38.143 11.6909C38.102 11.7074 38.0586 11.717 38.0145 11.7192H38.0156ZM46.0923 10.7825C46.0656 10.7841 46.0389 10.7828 46.0125 10.7788C45.5919 10.7155 45.1626 10.6693 44.7371 10.6413C44.6853 10.6379 44.6346 10.6244 44.588 10.6014C44.5413 10.5784 44.4997 10.5465 44.4654 10.5075C44.4311 10.4684 44.4049 10.423 44.3881 10.3738C44.3714 10.3245 44.3645 10.2725 44.3679 10.2207C44.3713 10.1688 44.3848 10.1181 44.4078 10.0715C44.4308 10.0249 44.4627 9.98321 44.5018 9.94892C44.5408 9.91463 44.5863 9.88838 44.6355 9.87165C44.6847 9.85492 44.7367 9.84805 44.7886 9.85142C45.2357 9.88048 45.688 9.92929 46.1299 9.99599C46.2269 10.0104 46.3151 10.0603 46.3774 10.1361C46.4397 10.2119 46.4717 10.3081 46.467 10.4061C46.4624 10.5041 46.4215 10.5969 46.3523 10.6664C46.2831 10.736 46.1906 10.7774 46.0926 10.7825H46.0923ZM41.3372 10.7997C41.2363 10.8042 41.1375 10.7699 41.061 10.704C40.9845 10.638 40.9361 10.5453 40.9256 10.4449C40.9152 10.3444 40.9436 10.2437 41.0049 10.1635C41.0663 10.0832 41.156 10.0294 41.2556 10.0131C41.6979 9.94308 42.1499 9.89129 42.597 9.85887H42.6052C42.708 9.85576 42.8081 9.89282 42.8841 9.96219C42.9601 10.0316 43.0062 10.1278 43.0125 10.2305C43.0188 10.3333 42.9848 10.4344 42.9178 10.5125C42.8509 10.5907 42.7561 10.6397 42.6536 10.6491C42.2285 10.6797 41.8 10.7289 41.3801 10.7956C41.3655 10.7977 41.3508 10.7991 41.3361 10.7997H41.3372Z" fill="#91B3FA"/>
<path d="M51.904 12.9279C51.8235 12.932 51.7437 12.9113 51.6752 12.8687C51.502 12.7606 51.3235 12.6548 51.145 12.5531C51.0988 12.528 51.058 12.494 51.0251 12.453C50.9922 12.4119 50.9678 12.3648 50.9533 12.3142C50.9388 12.2636 50.9345 12.2107 50.9408 12.1584C50.947 12.1062 50.9636 12.0557 50.9895 12.01C51.0155 11.9642 51.0503 11.9241 51.092 11.892C51.1336 11.8599 51.1812 11.8363 51.2321 11.8228C51.2829 11.8093 51.3359 11.8061 51.388 11.8133C51.4401 11.8205 51.4903 11.8381 51.5355 11.8649C51.7218 11.9711 51.9111 12.0829 52.0944 12.1962C52.166 12.2407 52.2215 12.307 52.2528 12.3853C52.2841 12.4636 52.2896 12.5499 52.2685 12.6316C52.2474 12.7132 52.2008 12.786 52.1354 12.8393C52.07 12.8926 51.9894 12.9237 51.9051 12.9279H51.904Z" fill="#91B3FA"/>
<path d="M58.8463 22.8004C58.7523 22.8051 58.6598 22.7761 58.5852 22.7188C58.5106 22.6614 58.4589 22.5794 58.4394 22.4874C58.3969 22.2877 58.3496 22.0857 58.2986 21.8868C58.2725 21.7851 58.2878 21.6772 58.3413 21.5868C58.3947 21.4965 58.4819 21.4311 58.5836 21.405C58.6853 21.3789 58.7931 21.3943 58.8835 21.4477C58.9738 21.5012 59.0393 21.5883 59.0653 21.69C59.119 21.8994 59.1689 22.1122 59.2144 22.3234C59.2363 22.4262 59.2164 22.5334 59.1593 22.6215C59.1021 22.7096 59.0123 22.7714 58.9096 22.7933C58.8887 22.7973 58.8675 22.7997 58.8463 22.8004Z" fill="#91B3FA"/>
<path d="M44.5694 41.4196C44.3876 41.4291 44.2049 41.4353 44.0214 41.4383C43.918 41.4374 43.8191 41.3963 43.7457 41.3236C43.6723 41.2509 43.6303 41.1524 43.6285 41.0491C43.6267 40.9458 43.6653 40.8459 43.7361 40.7707C43.8069 40.6955 43.9044 40.6509 44.0076 40.6465C44.4312 40.639 44.8537 40.6148 45.2677 40.572C45.3194 40.5668 45.3716 40.5718 45.4214 40.5868C45.4712 40.6018 45.5175 40.6265 45.5577 40.6594C45.598 40.6923 45.6313 40.7328 45.6559 40.7786C45.6805 40.8244 45.6958 40.8746 45.701 40.9263C45.7062 40.978 45.7011 41.0303 45.6861 41.08C45.6711 41.1298 45.6465 41.1761 45.6136 41.2164C45.5807 41.2566 45.5402 41.29 45.4944 41.3145C45.4486 41.3391 45.3984 41.3545 45.3467 41.3596C45.0907 41.3865 44.8291 41.4062 44.5694 41.4196ZM41.9341 41.3313C41.9116 41.3324 41.889 41.3317 41.8667 41.3291C41.4281 41.2769 40.987 41.2058 40.5551 41.1171C40.4523 41.096 40.3621 41.0349 40.3043 40.9473C40.2465 40.8597 40.2259 40.7527 40.247 40.6499C40.2681 40.547 40.3292 40.4568 40.4168 40.399C40.5044 40.3412 40.6114 40.3206 40.7142 40.3417C41.1241 40.4255 41.5436 40.4934 41.9602 40.5429C42.059 40.5542 42.1499 40.6022 42.2149 40.6775C42.2799 40.7528 42.3142 40.8498 42.3109 40.9492C42.3076 41.0485 42.267 41.1431 42.1972 41.2139C42.1274 41.2847 42.0334 41.3266 41.9341 41.3313ZM47.4004 41.0098C47.3023 41.0139 47.2061 40.9815 47.1306 40.9187C47.055 40.856 47.0055 40.7674 46.9916 40.6702C46.9777 40.573 47.0003 40.4741 47.0552 40.3927C47.1101 40.3113 47.1933 40.2531 47.2886 40.2296C47.6951 40.1316 48.1031 40.0146 48.501 39.8819C48.5508 39.8637 48.6037 39.8556 48.6567 39.8582C48.7096 39.8607 48.7615 39.8739 48.8093 39.8969C48.857 39.9199 48.8997 39.9523 48.9347 39.992C48.9697 40.0318 48.9964 40.0782 49.0132 40.1285C49.03 40.1788 49.0365 40.2319 49.0323 40.2848C49.0281 40.3376 49.0134 40.3891 48.989 40.4362C48.9646 40.4832 48.931 40.5249 48.8902 40.5587C48.8494 40.5925 48.8022 40.6178 48.7514 40.6331C48.3322 40.7728 47.9026 40.8939 47.4745 40.9993C47.4502 41.0052 47.4254 41.0087 47.4004 41.0098ZM38.6281 40.5627C38.5765 40.5653 38.5248 40.5578 38.4761 40.5407C38.0603 40.3916 37.6452 40.2266 37.2435 40.0451C37.1962 40.0237 37.1535 39.9932 37.1179 39.9553C37.0824 39.9174 37.0546 39.8729 37.0362 39.8242C37.0179 39.7756 37.0093 39.7238 37.0109 39.6719C37.0126 39.6199 37.0245 39.5688 37.0459 39.5215C37.0673 39.4741 37.0978 39.4314 37.1357 39.3958C37.1736 39.3603 37.2181 39.3325 37.2668 39.3142C37.3154 39.2958 37.3672 39.2872 37.4191 39.2889C37.4711 39.2905 37.5222 39.3024 37.5695 39.3238C37.9511 39.4963 38.3449 39.6543 38.7399 39.794C38.8265 39.8244 38.8999 39.8839 38.9474 39.9624C38.995 40.0409 39.0138 40.1335 39.0006 40.2244C38.9874 40.3152 38.943 40.3986 38.875 40.4604C38.8071 40.5221 38.7198 40.5582 38.6281 40.5627ZM50.5883 39.8547C50.4974 39.8593 50.4077 39.8323 50.3343 39.7785C50.261 39.7246 50.2084 39.6471 50.1854 39.5591C50.1624 39.471 50.1705 39.3777 50.2083 39.2949C50.246 39.2121 50.3111 39.1448 50.3927 39.1043C50.7675 38.918 51.1379 38.7154 51.4989 38.4985C51.5888 38.4442 51.6966 38.4277 51.7986 38.4529C51.9005 38.478 51.9884 38.5426 52.0427 38.6324C52.0971 38.7223 52.1135 38.8301 52.0884 38.9321C52.0632 39.0341 51.9986 39.1219 51.9088 39.1762C51.5306 39.4046 51.139 39.6193 50.7444 39.8141C50.6957 39.8377 50.6427 39.851 50.5887 39.8532L50.5883 39.8547ZM53.4457 38.0264C53.3622 38.0308 53.2795 38.0085 53.2094 37.9629C53.1393 37.9174 53.0855 37.8507 53.0556 37.7727C53.0258 37.6946 53.0214 37.6091 53.0431 37.5283C53.0649 37.4476 53.1116 37.3759 53.1767 37.3233C53.5027 37.0599 53.8217 36.7797 54.1246 36.4906C54.2005 36.4181 54.3021 36.3787 54.407 36.381C54.512 36.3834 54.6117 36.4274 54.6842 36.5033C54.7567 36.5792 54.7961 36.6808 54.7938 36.7857C54.7914 36.8907 54.7474 36.9904 54.6715 37.0629C54.3526 37.3673 54.0173 37.662 53.6737 37.9392C53.6088 37.9911 53.5291 38.0211 53.4461 38.0249L53.4457 38.0264ZM55.8363 35.6176C55.7602 35.6214 55.6846 35.6032 55.6187 35.5651C55.5527 35.527 55.4991 35.4708 55.4643 35.403C55.4295 35.3352 55.415 35.2589 55.4225 35.1831C55.4299 35.1073 55.4591 35.0353 55.5065 34.9756C55.7673 34.6474 56.0181 34.305 56.2517 33.9562C56.2806 33.913 56.3177 33.8759 56.3609 33.847C56.4041 33.8181 56.4526 33.798 56.5036 33.7879C56.5545 33.7777 56.607 33.7777 56.658 33.7878C56.709 33.7979 56.7575 33.818 56.8007 33.8469C56.8439 33.8757 56.8811 33.9128 56.9099 33.9561C56.9388 33.9993 56.9589 34.0478 56.9691 34.0987C56.9792 34.1497 56.9793 34.2022 56.9691 34.2532C56.959 34.3042 56.9389 34.3527 56.9101 34.3959C56.6656 34.7622 56.4022 35.1232 56.1276 35.4686C56.0925 35.5128 56.0483 35.5489 55.9981 35.5746C55.9478 35.6003 55.8926 35.615 55.8363 35.6176ZM57.6452 32.7461C57.5765 32.7494 57.5082 32.7349 57.4469 32.7038C57.3855 32.6728 57.3333 32.6263 57.2954 32.569C57.2575 32.5117 57.2351 32.4455 57.2305 32.3769C57.2259 32.3083 57.2393 32.2397 57.2692 32.1778C57.4522 31.8004 57.6213 31.4111 57.7715 31.0202C57.7902 30.9717 57.8182 30.9273 57.854 30.8897C57.8898 30.852 57.9327 30.8217 57.9802 30.8006C58.0277 30.7795 58.0789 30.768 58.1309 30.7667C58.1828 30.7653 58.2346 30.7743 58.2831 30.7929C58.3316 30.8116 58.3759 30.8396 58.4136 30.8754C58.4513 30.9113 58.4816 30.9541 58.5027 31.0016C58.5238 31.0491 58.5353 31.1003 58.5366 31.1523C58.5379 31.2043 58.529 31.256 58.5103 31.3045C58.3524 31.7143 58.175 32.1242 57.9816 32.5232C57.9507 32.587 57.9033 32.6413 57.8442 32.6805C57.7852 32.7197 57.7167 32.7423 57.6459 32.7461H57.6452ZM58.7797 29.5462C58.7186 29.5492 58.6576 29.538 58.6015 29.5135C58.5455 29.4889 58.4958 29.4518 58.4565 29.4048C58.4172 29.3579 58.3893 29.3025 58.375 29.243C58.3607 29.1835 58.3603 29.1215 58.374 29.0619C58.469 28.6542 58.5484 28.2377 58.6087 27.8226C58.6134 27.7688 58.629 27.7166 58.6545 27.6691C58.6801 27.6215 58.7151 27.5797 58.7575 27.5462C58.7998 27.5127 58.8485 27.4882 58.9006 27.4742C58.9528 27.4603 59.0072 27.4571 59.0606 27.4649C59.114 27.4727 59.1652 27.4913 59.2112 27.5196C59.2571 27.548 59.2968 27.5854 59.3278 27.6296C59.3587 27.6738 59.3803 27.7239 59.3912 27.7768C59.4021 27.8296 59.4021 27.8842 59.3912 27.937C59.3271 28.3741 59.2421 28.813 59.1438 29.2411C59.1241 29.3244 59.0781 29.3991 59.0124 29.4541C58.9468 29.5091 58.8652 29.5414 58.7797 29.5462ZM59.1836 26.1773C59.1754 26.1773 59.1672 26.1773 59.159 26.1773C59.0541 26.1762 58.9538 26.1335 58.8803 26.0585C58.8068 25.9835 58.7661 25.8824 58.7671 25.7775C58.7704 25.4686 58.7641 25.1563 58.7484 24.849C58.7425 24.7372 58.7358 24.6254 58.7276 24.5159C58.7238 24.464 58.7302 24.4119 58.7466 24.3625C58.7629 24.3131 58.7889 24.2675 58.8229 24.2281C58.8569 24.1888 58.8983 24.1565 58.9448 24.1332C58.9913 24.1099 59.042 24.096 59.0938 24.0922C59.1458 24.0878 59.1981 24.0938 59.2477 24.1099C59.2973 24.126 59.3431 24.1519 59.3826 24.186C59.422 24.2201 59.4542 24.2617 59.4773 24.3085C59.5004 24.3552 59.514 24.4061 59.5171 24.4581C59.5257 24.5747 59.5331 24.6914 59.5391 24.8087C59.5555 25.1321 59.5622 25.4608 59.5588 25.7853C59.5581 25.886 59.519 25.9827 59.4494 26.0556C59.3798 26.1284 59.285 26.1719 59.1844 26.1773H59.1836Z" fill="#91B3FA"/>
<path d="M35.5643 39.0767C35.4831 39.0809 35.4026 39.0599 35.3337 39.0167C35.1523 38.9023 34.9701 38.7823 34.7916 38.6594C34.7462 38.6311 34.707 38.594 34.6764 38.5502C34.6458 38.5064 34.6243 38.4569 34.6134 38.4046C34.6024 38.3523 34.6022 38.2983 34.6127 38.2459C34.6231 38.1935 34.6441 38.1437 34.6743 38.0996C34.7046 38.0556 34.7434 38.0181 34.7885 37.9894C34.8336 37.9608 34.8841 37.9416 34.9368 37.9329C34.9895 37.9243 35.0435 37.9264 35.0954 37.9392C35.1473 37.952 35.196 37.9752 35.2387 38.0073C35.4082 38.124 35.5815 38.238 35.7536 38.3464C35.8249 38.3912 35.8801 38.4575 35.911 38.5358C35.942 38.6141 35.9472 38.7002 35.9259 38.7816C35.9046 38.8631 35.8579 38.9356 35.7925 38.9887C35.7272 39.0417 35.6466 39.0726 35.5625 39.0767H35.5643Z" fill="#91B3FA"/>
<path d="M35.865 34.4637C35.8909 34.4921 35.925 34.5118 35.9626 34.5201C36.0001 34.5283 36.0393 34.5248 36.0748 34.5099L38.146 33.6261C39.0226 34.2334 39.9924 34.6936 41.0172 34.9887L41.6435 37.1497C41.6544 37.1866 41.6764 37.2192 41.7066 37.2431C41.7367 37.267 41.7736 37.281 41.812 37.2831L44.5095 37.418C44.5479 37.4198 44.586 37.4096 44.6184 37.3889C44.6508 37.3683 44.676 37.338 44.6906 37.3025L45.5297 35.2159C46.5787 35.0248 47.5895 34.6639 48.5223 34.1473L50.4949 35.2335C50.5287 35.2519 50.5673 35.2593 50.6056 35.2549C50.6438 35.2504 50.6797 35.2342 50.7083 35.2085L52.7114 33.3966C52.7398 33.3707 52.7595 33.3366 52.7678 33.299C52.776 33.2615 52.7725 33.2223 52.7576 33.1868L51.8738 31.1156C52.481 30.2389 52.9412 29.2691 53.2364 28.2444L55.3974 27.618C55.4343 27.6072 55.467 27.5852 55.4908 27.555C55.5147 27.5248 55.5287 27.488 55.5308 27.4496L55.6657 24.7521C55.6674 24.7136 55.6572 24.6755 55.6365 24.6431C55.6157 24.6107 55.5855 24.5855 55.5498 24.571L53.4633 23.7319C53.2721 22.6828 52.9112 21.6718 52.3947 20.7389L53.4808 18.7664C53.4991 18.7326 53.5066 18.694 53.5021 18.6559C53.4976 18.6177 53.4815 18.5819 53.4558 18.5532L51.6439 16.5502C51.618 16.5218 51.5839 16.5021 51.5464 16.4938C51.5088 16.4855 51.4696 16.4891 51.4342 16.504L49.3629 17.3878C48.4863 16.7805 47.5165 16.3203 46.4917 16.0252L45.8654 13.8642C45.8545 13.8273 45.8325 13.7946 45.8023 13.7708C45.7722 13.7469 45.7354 13.7329 45.697 13.7308L42.9994 13.5959C42.961 13.5941 42.923 13.6043 42.8906 13.6249C42.8581 13.6456 42.8329 13.6758 42.8183 13.7114L41.9793 15.7979C40.9301 15.9891 39.9192 16.3501 38.9862 16.8665L37.0137 15.7804C36.98 15.7621 36.9414 15.7547 36.9032 15.7591C36.8651 15.7636 36.8292 15.7798 36.8006 15.8054L34.7975 17.6173C34.7691 17.6432 34.7494 17.6773 34.7412 17.7148C34.7329 17.7524 34.7364 17.7916 34.7513 17.8271L35.6351 19.8983C35.0279 20.7749 34.5676 21.7447 34.2726 22.7695L32.1115 23.3958C32.0746 23.4067 32.042 23.4287 32.0181 23.4589C31.9942 23.489 31.9803 23.5258 31.9781 23.5642L31.841 26.2618C31.8392 26.3002 31.8494 26.3382 31.8701 26.3707C31.8907 26.4031 31.9209 26.4283 31.9565 26.4429L34.043 27.282C34.2342 28.331 34.5951 29.3418 35.1116 30.2746L34.0255 32.2471C34.0071 32.2809 33.9996 32.3196 34.0041 32.3578C34.0086 32.3961 34.0248 32.432 34.0505 32.4606L35.865 34.4637Z" fill="#91B3FA"/>
<path d="M43.8893 28.2178C43.1874 28.253 42.4991 28.0147 41.9693 27.5529C41.4395 27.0912 41.1093 26.4419 41.0483 25.7418C40.9873 25.0416 41.2002 24.3451 41.6422 23.7986C42.0842 23.2522 42.7208 22.8984 43.4183 22.8118C44.1157 22.7251 44.8196 22.9122 45.3819 23.3338C45.9442 23.7554 46.3211 24.3787 46.4334 25.0725C46.5456 25.7662 46.3845 26.4765 45.9838 27.0539C45.5832 27.6314 44.9742 28.0309 44.285 28.1686C44.1545 28.1944 44.0222 28.2109 43.8893 28.2178ZM43.652 23.4266C43.2275 23.4473 42.8195 23.5974 42.4829 23.8568C42.1462 24.1161 41.897 24.4723 41.7686 24.8774C41.6403 25.2825 41.639 25.7172 41.7649 26.1231C41.8908 26.529 42.1379 26.8866 42.473 27.148C42.8081 27.4093 43.2152 27.5618 43.6395 27.5851C44.0639 27.6084 44.4851 27.5012 44.8468 27.278C45.2085 27.0549 45.4932 26.7264 45.6627 26.3367C45.8322 25.947 45.8784 25.5148 45.7951 25.0981C45.6973 24.609 45.4271 24.1712 45.0338 23.8645C44.6405 23.5578 44.1502 23.4024 43.652 23.4266Z" fill="#BDD0FB"/>
<path d="M44.1444 32.1335C43.9173 32.1449 43.6887 32.1449 43.4584 32.1335C43.3861 32.1297 43.3135 32.1249 43.2412 32.1189C42.8855 32.0895 42.5326 32.032 42.186 31.9468L42.1722 31.9434L42.132 31.933L42.0545 31.9129C42.0222 31.9042 41.9935 31.8856 41.9724 31.8596C41.9513 31.8337 41.939 31.8017 41.9371 31.7683C41.9365 31.7516 41.9382 31.7349 41.9423 31.7188C41.9533 31.6782 41.9799 31.6437 42.0163 31.6228C42.0527 31.6018 42.0959 31.5962 42.1365 31.607C43.3927 31.9438 44.722 31.8879 45.9456 31.4467C47.1691 31.0054 48.2281 30.2001 48.9802 29.1389C49.6801 28.1552 50.0834 26.9915 50.1424 25.7856C50.1535 25.5675 50.1535 25.349 50.1424 25.131C50.0589 23.5597 49.3962 22.0752 48.2822 20.9641C47.1682 19.8529 45.6819 19.1941 44.1105 19.1147C40.6081 18.9396 37.6166 21.6461 37.4411 25.1481C37.4303 25.3633 37.4303 25.5789 37.4411 25.7942C37.4883 26.7242 37.7397 27.6325 38.1773 28.4545C38.1885 28.4749 38.1948 28.4976 38.1959 28.5208C38.1978 28.5568 38.1873 28.5924 38.1662 28.6216C38.1452 28.6509 38.1147 28.6721 38.08 28.6817C38.0452 28.6913 38.0082 28.6887 37.9751 28.6744C37.942 28.6602 37.9147 28.635 37.8979 28.6031C37.438 27.7397 37.1741 26.7857 37.1247 25.8087C37.1134 25.5828 37.1134 25.3565 37.1247 25.1306C37.3088 21.4538 40.4509 18.6128 44.1265 18.7965C45.7764 18.8791 47.3371 19.5703 48.507 20.7367C49.6769 21.903 50.3729 23.4616 50.4606 25.1112C50.472 25.3385 50.472 25.5674 50.4606 25.7979C50.3778 27.4479 49.6863 29.0087 48.5198 30.1786C47.3533 31.3485 45.7945 32.0444 44.1447 32.132L44.1444 32.1335Z" fill="#BDD0FB"/>
<path d="M15.5793 39.5339C15.5266 39.5367 15.4744 39.5222 15.4306 39.4927C15.3868 39.4632 15.3537 39.4203 15.3364 39.3704C15.2679 39.1747 15.2041 38.9739 15.1475 38.7742C15.1387 38.7433 15.1361 38.711 15.1398 38.6791C15.1435 38.6473 15.1535 38.6164 15.1691 38.5884C15.1847 38.5603 15.2057 38.5356 15.2309 38.5157C15.256 38.4958 15.2849 38.481 15.3157 38.4722C15.3466 38.4634 15.3789 38.4608 15.4108 38.4645C15.4427 38.4682 15.4735 38.4782 15.5016 38.4938C15.5296 38.5094 15.5543 38.5304 15.5742 38.5556C15.5942 38.5807 15.6089 38.6096 15.6177 38.6404C15.6717 38.8312 15.7325 39.0223 15.7977 39.2094C15.8192 39.2705 15.8155 39.3376 15.7876 39.396C15.7596 39.4544 15.7097 39.4993 15.6486 39.5209C15.6263 39.5285 15.603 39.5329 15.5793 39.5339Z" fill="#91B3FA"/>
<path d="M15.1237 37.7095C15.0633 37.7125 15.0039 37.693 14.957 37.6547C14.9101 37.6164 14.8791 37.5622 14.87 37.5023C14.8153 37.1477 14.7789 36.7906 14.7608 36.4323C14.7567 36.3577 14.7537 36.2832 14.7515 36.2061C14.7517 36.1419 14.7763 36.0802 14.8203 36.0334C14.8643 35.9867 14.9244 35.9584 14.9884 35.9542C15.0205 35.9532 15.0525 35.9586 15.0826 35.9699C15.1126 35.9813 15.1401 35.9985 15.1635 36.0205C15.1869 36.0425 15.2057 36.0689 15.2189 36.0982C15.2321 36.1275 15.2393 36.1591 15.2403 36.1912C15.2425 36.2635 15.2451 36.3358 15.2489 36.4073C15.2665 36.7491 15.3013 37.0899 15.3532 37.4282C15.3581 37.4599 15.3566 37.4923 15.349 37.5235C15.3414 37.5547 15.3277 37.584 15.3087 37.6099C15.2897 37.6358 15.2658 37.6577 15.2383 37.6743C15.2108 37.691 15.1804 37.702 15.1486 37.7069C15.1401 37.708 15.1319 37.7091 15.1237 37.7095ZM15.0492 35.1718C15.0375 35.1725 15.0258 35.1725 15.0141 35.1718C14.9822 35.1688 14.9511 35.1596 14.9227 35.1446C14.8942 35.1297 14.8691 35.1093 14.8485 35.0846C14.828 35.0598 14.8126 35.0313 14.8031 35.0007C14.7936 34.97 14.7902 34.9377 14.7932 34.9057C14.8329 34.4733 14.8993 34.0438 14.9918 33.6196C14.9986 33.5882 15.0116 33.5585 15.0299 33.5321C15.0483 33.5058 15.0716 33.4833 15.0986 33.466C15.1256 33.4486 15.1558 33.4368 15.1874 33.4311C15.219 33.4254 15.2514 33.426 15.2828 33.4329C15.3141 33.4397 15.3439 33.4527 15.3702 33.471C15.3966 33.4894 15.419 33.5127 15.4364 33.5397C15.4537 33.5667 15.4656 33.5969 15.4712 33.6285C15.4769 33.6601 15.4763 33.6925 15.4695 33.7239C15.3812 34.1285 15.3179 34.5381 15.2798 34.9505C15.2744 35.0091 15.2479 35.0638 15.2053 35.1045C15.1627 35.1452 15.1069 35.1691 15.048 35.1718H15.0492ZM15.5913 32.6918C15.5594 32.6932 15.5275 32.6886 15.4974 32.678C15.4363 32.6563 15.3864 32.6113 15.3584 32.5529C15.3305 32.4944 15.3269 32.4273 15.3484 32.3662C15.4931 31.9565 15.6629 31.5562 15.8569 31.1675C15.8859 31.1095 15.9368 31.0654 15.9983 31.0449C16.0599 31.0244 16.127 31.0292 16.185 31.0582C16.243 31.0872 16.2871 31.138 16.3076 31.1996C16.3281 31.2611 16.3234 31.3282 16.2944 31.3862C16.1095 31.7568 15.9477 32.1384 15.81 32.529C15.7937 32.5749 15.7641 32.615 15.725 32.644C15.6858 32.673 15.6389 32.6896 15.5902 32.6918H15.5913ZM16.7266 30.419C16.6814 30.4213 16.6365 30.4111 16.5968 30.3895C16.5571 30.3679 16.5242 30.3356 16.5017 30.2964C16.4793 30.2572 16.4681 30.2125 16.4695 30.1673C16.4709 30.1221 16.4849 30.0782 16.5097 30.0404C16.7506 29.679 17.0132 29.3326 17.2963 29.0031C17.3386 28.9537 17.3988 28.9232 17.4637 28.9182C17.5286 28.9132 17.5928 28.9342 17.6422 28.9765C17.6916 29.0188 17.7222 29.0791 17.7272 29.144C17.7322 29.2088 17.7112 29.273 17.6689 29.3225C17.3987 29.6363 17.1482 29.9666 16.9188 30.3113C16.8976 30.3436 16.869 30.3703 16.8353 30.3894C16.8017 30.4084 16.7641 30.4192 16.7255 30.4209L16.7266 30.419ZM18.382 28.4942C18.332 28.4965 18.2824 28.4834 18.2401 28.4567C18.1977 28.4299 18.1646 28.3908 18.1452 28.3447C18.1258 28.2985 18.1211 28.2475 18.1317 28.1985C18.1422 28.1495 18.1676 28.105 18.2043 28.0709C18.5256 27.7791 18.8644 27.5071 19.2188 27.2564C19.2718 27.219 19.3375 27.2042 19.4014 27.2152C19.4653 27.2262 19.5222 27.2621 19.5596 27.3151C19.597 27.3681 19.6118 27.4337 19.6008 27.4976C19.5898 27.5615 19.5539 27.6184 19.5009 27.6558C19.1625 27.895 18.839 28.1546 18.5322 28.4331C18.4905 28.4709 18.4371 28.4931 18.3809 28.496L18.382 28.4942ZM20.4544 27.0295C20.3989 27.0324 20.3442 27.0162 20.2991 26.9838C20.2541 26.9514 20.2214 26.9046 20.2065 26.8511C20.1915 26.7976 20.1953 26.7407 20.217 26.6896C20.2388 26.6385 20.2773 26.5964 20.3262 26.5701C20.7087 26.365 21.1035 26.1838 21.5084 26.0276C21.5385 26.0155 21.5706 26.0095 21.603 26.0099C21.6355 26.0104 21.6674 26.0172 21.6972 26.0302C21.7269 26.0431 21.7537 26.0618 21.7762 26.0852C21.7986 26.1085 21.8162 26.1362 21.8278 26.1664C21.8395 26.1966 21.845 26.2289 21.8441 26.2613C21.8432 26.2937 21.8358 26.3255 21.8225 26.3551C21.8091 26.3846 21.79 26.4112 21.7663 26.4332C21.7426 26.4553 21.7147 26.4725 21.6843 26.4837C21.2983 26.6328 20.9219 26.8055 20.5572 27.0008C20.5254 27.0189 20.4898 27.0294 20.4532 27.0314L20.4544 27.0295ZM22.8211 26.1167C22.7618 26.1174 22.7044 26.0967 22.6593 26.0582C22.6142 26.0198 22.5846 25.9664 22.5759 25.9078C22.5672 25.8492 22.58 25.7895 22.612 25.7396C22.644 25.6898 22.693 25.6533 22.7499 25.6368C23.1715 25.5323 23.599 25.4535 24.0301 25.4009C24.0915 25.3985 24.1516 25.4193 24.1984 25.4592C24.2451 25.499 24.2752 25.555 24.2826 25.616C24.29 25.677 24.2742 25.7385 24.2384 25.7884C24.2025 25.8383 24.1492 25.8729 24.089 25.8853C23.6778 25.9346 23.27 26.0092 22.868 26.1088C22.8523 26.1136 22.8362 26.1168 22.8199 26.1185L22.8211 26.1167ZM26.6103 25.8931C26.5961 25.8944 26.5817 25.8944 26.5675 25.8931C26.2101 25.8482 25.8505 25.8226 25.4903 25.8164C25.4355 25.8164 25.3819 25.8164 25.3282 25.8164C25.265 25.8139 25.2052 25.787 25.1613 25.7414C25.1175 25.6958 25.093 25.635 25.093 25.5718C25.093 25.5085 25.1175 25.4477 25.1613 25.4021C25.2052 25.3565 25.265 25.3296 25.3282 25.3271C25.3852 25.3271 25.4423 25.3271 25.4996 25.3294C25.8767 25.3361 26.2532 25.363 26.6275 25.4099C26.6881 25.4175 26.7436 25.4475 26.7832 25.4941C26.8228 25.5406 26.8435 25.6003 26.8412 25.6614C26.839 25.7224 26.814 25.7804 26.7711 25.8239C26.7282 25.8674 26.6706 25.8933 26.6096 25.8965L26.6103 25.8931Z" fill="#91B3FA"/>
<path d="M25.9876 46.4235C25.9242 46.4248 25.8628 46.4015 25.8162 46.3585C25.7697 46.3154 25.7417 46.256 25.7381 46.1927C25.7344 46.1294 25.7555 46.0672 25.7968 46.0191C25.8382 45.9711 25.8965 45.9409 25.9597 45.935C26.3661 45.9091 26.7706 45.8586 27.1709 45.7837C27.2347 45.7718 27.3006 45.7856 27.3541 45.8222C27.4076 45.8589 27.4444 45.9152 27.4564 45.979C27.4683 46.0427 27.4545 46.1086 27.4178 46.1621C27.3812 46.2156 27.3249 46.2524 27.2611 46.2644C26.8413 46.3427 26.4171 46.3957 25.9909 46.4231L25.9876 46.4235ZM24.7368 46.4279H24.7103C24.2839 46.4037 23.8592 46.3539 23.4387 46.2789C23.4071 46.2733 23.3769 46.2615 23.3498 46.2442C23.3228 46.2269 23.2994 46.2044 23.281 46.1781C23.2627 46.1518 23.2497 46.1221 23.2428 46.0907C23.2359 46.0594 23.2352 46.027 23.2408 45.9954C23.2465 45.9637 23.2583 45.9336 23.2756 45.9065C23.2929 45.8795 23.3153 45.8561 23.3416 45.8377C23.368 45.8193 23.3977 45.8063 23.429 45.7994C23.4604 45.7925 23.4928 45.7919 23.5244 45.7975C23.9257 45.8687 24.331 45.916 24.7379 45.9391C24.8003 45.9425 24.859 45.9698 24.902 46.0152C24.9449 46.0605 24.9689 46.1207 24.9689 46.1831C24.9689 46.2456 24.9449 46.3057 24.902 46.3511C24.859 46.3965 24.8003 46.4237 24.7379 46.4272L24.7368 46.4279ZM28.4415 45.9637C28.382 45.9669 28.3234 45.9484 28.2766 45.9114C28.2299 45.8745 28.1982 45.8218 28.1876 45.7632C28.177 45.7046 28.1882 45.6441 28.219 45.5931C28.2498 45.5422 28.2982 45.5042 28.355 45.4864C28.7432 45.3628 29.1236 45.2159 29.4941 45.0464C29.5531 45.0194 29.6203 45.017 29.6811 45.0396C29.7419 45.0622 29.7912 45.1081 29.8182 45.1671C29.8452 45.2261 29.8476 45.2934 29.825 45.3542C29.8024 45.415 29.7565 45.4643 29.6975 45.4912C29.3089 45.6687 28.91 45.8226 28.503 45.9521C28.4831 45.9586 28.4624 45.9625 28.4415 45.9637ZM22.2781 45.9887C22.2495 45.9901 22.2209 45.9866 22.1935 45.9782C21.785 45.8522 21.3846 45.7014 20.9945 45.5266C20.9352 45.5001 20.8889 45.4511 20.8657 45.3904C20.8425 45.3297 20.8444 45.2623 20.871 45.203C20.8975 45.1437 20.9465 45.0974 21.0072 45.0743C21.0679 45.0511 21.1353 45.053 21.1946 45.0795C21.5665 45.2459 21.9483 45.3895 22.3377 45.5095C22.3928 45.5262 22.4403 45.5619 22.4717 45.6103C22.5031 45.6586 22.5164 45.7164 22.5092 45.7736C22.5021 45.8308 22.475 45.8836 22.4327 45.9228C22.3904 45.9619 22.3356 45.9848 22.2781 45.9875V45.9887ZM30.7113 44.9242C30.6571 44.927 30.6034 44.9117 30.5588 44.8807C30.5142 44.8496 30.4812 44.8046 30.4651 44.7527C30.4489 44.7009 30.4505 44.6451 30.4696 44.5942C30.4887 44.5433 30.5242 44.5003 30.5705 44.4718C30.9176 44.2587 31.2514 44.0247 31.5701 43.771C31.6209 43.7306 31.6856 43.712 31.7501 43.7193C31.8145 43.7266 31.8734 43.7592 31.9139 43.8099C31.9543 43.8607 31.9729 43.9254 31.9656 43.9898C31.9583 44.0543 31.9257 44.1132 31.8749 44.1536C31.5405 44.4194 31.1904 44.6648 30.8265 44.8884C30.7918 44.9099 30.7521 44.9223 30.7113 44.9242ZM32.6656 43.3708C32.6164 43.3733 32.5676 43.3609 32.5256 43.3351C32.4836 43.3094 32.4503 43.2716 32.4302 43.2266C32.41 43.1817 32.4039 43.1317 32.4127 43.0832C32.4215 43.0348 32.4447 42.9901 32.4793 42.955C32.7654 42.6649 33.0337 42.3578 33.283 42.0354C33.3233 41.9865 33.3811 41.9551 33.4441 41.9479C33.5072 41.9408 33.5705 41.9584 33.6208 41.9971C33.671 42.0358 33.7043 42.0926 33.7135 42.1553C33.7227 42.2181 33.7071 42.282 33.6701 42.3335C33.4088 42.6717 33.1275 42.9938 32.8276 43.2982C32.7847 43.342 32.7268 43.3679 32.6656 43.3708ZM34.1932 41.3938C34.1451 41.3966 34.0973 41.3848 34.0561 41.3599C34.0003 41.3268 33.96 41.2728 33.944 41.2099C33.928 41.1471 33.9376 41.0804 33.9708 41.0246C34.1789 40.6744 34.3656 40.3118 34.5296 39.9389C34.5583 39.8836 34.6069 39.8413 34.6656 39.8206C34.7244 39.7999 34.7888 39.8023 34.8458 39.8274C34.9027 39.8526 34.948 39.8984 34.9724 39.9558C34.9967 40.0131 34.9983 40.0775 34.9768 40.136C34.8044 40.5272 34.6085 40.9076 34.3899 41.275C34.3692 41.3097 34.3402 41.3387 34.3056 41.3594C34.2709 41.3802 34.2317 41.392 34.1913 41.3938H34.1932Z" fill="#91B3FA"/>
<path d="M19.9881 44.9596C19.9393 44.9623 19.8908 44.9501 19.8491 44.9246C19.6703 44.8165 19.4937 44.701 19.3241 44.5855C19.2977 44.5673 19.2751 44.5441 19.2576 44.5171C19.2401 44.4902 19.2282 44.4601 19.2223 44.4285C19.2165 44.3969 19.2169 44.3645 19.2236 44.3331C19.2303 44.3017 19.2431 44.272 19.2613 44.2455C19.2796 44.2191 19.3028 44.1965 19.3297 44.179C19.3567 44.1615 19.3868 44.1495 19.4183 44.1437C19.4499 44.1379 19.4823 44.1383 19.5137 44.145C19.5451 44.1517 19.5749 44.1645 19.6013 44.1827C19.763 44.2945 19.9315 44.4029 20.1025 44.5061C20.1471 44.5334 20.1818 44.5741 20.2016 44.6225C20.2214 44.6709 20.2252 44.7243 20.2124 44.775C20.1996 44.8257 20.1709 44.871 20.1306 44.9042C20.0902 44.9374 20.0403 44.9568 19.9881 44.9596Z" fill="#91B3FA"/>
<path d="M20.0295 41.7963C20.0468 41.8155 20.0696 41.8287 20.0948 41.8343C20.12 41.8398 20.1463 41.8374 20.17 41.8272L21.5572 41.2359C22.1435 41.6424 22.7921 41.9507 23.4775 42.1488L23.8967 43.5952C23.9037 43.6198 23.9183 43.6416 23.9383 43.6576C23.9584 43.6735 23.9829 43.6828 24.0084 43.6842L25.8136 43.7748C25.8394 43.776 25.8649 43.7692 25.8866 43.7554C25.9083 43.7415 25.9251 43.7212 25.9347 43.6973L26.4962 42.3001C27.1982 42.1719 27.8746 41.9303 28.4989 41.5847L29.819 42.3116C29.8416 42.324 29.8675 42.329 29.893 42.326C29.9186 42.323 29.9426 42.3121 29.9617 42.2948L31.303 41.0824C31.3222 41.0652 31.3356 41.0424 31.3411 41.0172C31.3467 40.992 31.3442 40.9657 31.334 40.942L30.7427 39.5559C31.1492 38.9691 31.4571 38.3198 31.6544 37.6337L33.1008 37.2146C33.1254 37.2075 33.1472 37.1929 33.1632 37.1729C33.1791 37.1528 33.1885 37.1283 33.1899 37.1028L33.2804 35.2976C33.2817 35.2718 33.2749 35.2463 33.261 35.2246C33.2471 35.2029 33.2268 35.1861 33.2029 35.1765L31.8057 34.615C31.6778 33.9129 31.4362 33.2365 31.0903 32.6123L31.8172 31.2922C31.8297 31.2697 31.8349 31.2438 31.8319 31.2182C31.829 31.1926 31.8181 31.1686 31.8008 31.1495L30.588 29.8082C30.5708 29.7889 30.548 29.7756 30.5228 29.77C30.4976 29.7645 30.4713 29.767 30.4476 29.7772L29.0619 30.3685C28.4753 29.9621 27.8263 29.6541 27.1404 29.4568L26.7213 28.0108C26.7141 27.9862 26.6995 27.9645 26.6795 27.9485C26.6595 27.9326 26.635 27.9232 26.6095 27.9217L24.8043 27.8312C24.7786 27.83 24.7531 27.8368 24.7314 27.8507C24.7097 27.8646 24.6929 27.8848 24.6832 27.9087L24.1217 29.3059C23.4197 29.4338 22.7432 29.6755 22.119 30.0213L20.7982 29.2944C20.7756 29.2818 20.7496 29.2767 20.7239 29.2797C20.6983 29.2827 20.6742 29.2937 20.6551 29.3111L19.3138 30.5235C19.2947 30.5409 19.2815 30.5637 19.276 30.5889C19.2704 30.614 19.2728 30.6403 19.2829 30.664L19.8753 32.0515C19.4691 32.6383 19.1612 33.2873 18.9635 33.973L17.5171 34.3922C17.4925 34.3992 17.4707 34.4137 17.4547 34.4338C17.4387 34.4538 17.4294 34.4784 17.4281 34.5039L17.3375 36.3092C17.3363 36.3349 17.3431 36.3604 17.357 36.3821C17.3709 36.4038 17.3912 36.4206 17.415 36.4302L18.8126 36.9917C18.9406 37.6937 19.1821 38.3701 19.5276 38.9944L18.8 40.3134C18.7876 40.336 18.7826 40.3619 18.7856 40.3874C18.7886 40.413 18.7995 40.437 18.8167 40.4561L20.0295 41.7963Z" fill="#91B3FA"/>
<path d="M25.3995 37.6486C24.9205 37.6724 24.4508 37.5096 24.0894 37.1944C23.7279 36.8792 23.5027 36.4361 23.4611 35.9583C23.4195 35.4804 23.5648 35.0051 23.8664 34.6322C24.168 34.2593 24.6025 34.0178 25.0784 33.9585C25.5544 33.8993 26.0348 34.0269 26.4186 34.3145C26.8025 34.6021 27.0599 35.0273 27.1367 35.5007C27.2136 35.9741 27.1039 36.4589 26.8307 36.8531C26.5575 37.2474 26.1421 37.5204 25.6719 37.6147C25.5821 37.6328 25.491 37.6441 25.3995 37.6486ZM25.2408 34.4443C25.1742 34.4478 25.108 34.456 25.0426 34.4689C24.6888 34.5396 24.3775 34.7481 24.1774 35.0483C23.9772 35.3485 23.9045 35.7159 23.9753 36.0697C24.046 36.4236 24.2544 36.7348 24.5547 36.9349C24.8549 37.1351 25.2223 37.2078 25.5761 37.137C25.9132 37.07 26.2125 36.8778 26.4137 36.5991C26.6148 36.3204 26.7031 35.9758 26.6606 35.6347C26.6181 35.2936 26.4481 34.9813 26.1847 34.7604C25.9213 34.5396 25.5841 34.4266 25.2408 34.4443Z" fill="#BDD0FB"/>
<path d="M25.5737 40.3735C25.4194 40.3815 25.2633 40.3815 25.1054 40.3735C24.7921 40.3578 24.4813 40.3103 24.1776 40.2319L24.137 40.2211C24.0871 40.2078 24.0426 40.179 24.0102 40.1388C23.9777 40.0986 23.9588 40.0492 23.9563 39.9976C23.9549 39.9725 23.9577 39.9473 23.9645 39.9231C23.9813 39.8608 24.0221 39.8077 24.078 39.7754C24.1338 39.7431 24.2002 39.7341 24.2626 39.7505C24.5456 39.8264 24.8358 39.872 25.1285 39.8865H25.1765C25.8592 39.9153 26.5382 39.7722 27.1513 39.4704C27.484 39.3059 27.7932 39.0975 28.0704 38.8507L28.0771 38.8448L28.098 38.8261C28.5 38.4643 28.8263 38.0263 29.058 37.5376C29.2897 37.0489 29.4222 36.5191 29.4479 35.9788C29.455 35.8377 29.455 35.6963 29.4479 35.5552C29.3915 34.5018 28.9329 33.5104 28.1668 32.7853C27.4007 32.0602 26.3855 31.6568 25.3307 31.6583C24.2759 31.6599 23.2619 32.0662 22.4979 32.7935C21.7339 33.5208 21.2782 34.5136 21.2248 35.5671C21.2175 35.7063 21.2175 35.8459 21.2248 35.9851C21.2554 36.5872 21.4181 37.1751 21.7013 37.7072C21.7165 37.7356 21.7259 37.7666 21.729 37.7986C21.7321 37.8305 21.7289 37.8628 21.7196 37.8935C21.7102 37.9242 21.6949 37.9528 21.6745 37.9776C21.6542 38.0024 21.6291 38.023 21.6008 38.0381C21.5724 38.0532 21.5414 38.0626 21.5094 38.0657C21.4775 38.0689 21.4452 38.0657 21.4145 38.0563C21.3838 38.047 21.3552 38.0317 21.3304 38.0113C21.3056 37.9909 21.285 37.9658 21.2699 37.9375C20.9528 37.3421 20.7707 36.6842 20.7363 36.0105C20.7285 35.8547 20.7285 35.6986 20.7363 35.5429C20.7956 34.3639 21.3052 33.2527 22.1599 32.4386C23.0147 31.6245 24.1494 31.1697 25.3298 31.168C26.5102 31.1663 27.6462 31.6178 28.5034 32.4294C29.3605 33.241 29.8733 34.3507 29.936 35.5294C29.944 35.6873 29.944 35.8455 29.936 36.0034C29.8168 38.3828 27.9031 40.2547 25.5737 40.3735Z" fill="#BDD0FB"/>
</g>
<defs>
<linearGradient id="paint0_linear_243_3159" x1="116.141" y1="-61.2892" x2="40.802" y2="99.5019" gradientUnits="userSpaceOnUse">
<stop stop-color="#FF928E"/>
<stop offset="1" stop-color="#FE7062"/>
</linearGradient>
<linearGradient id="paint1_linear_243_3159" x1="56.1025" y1="49.2297" x2="95.6307" y2="69.1869" gradientUnits="userSpaceOnUse">
<stop stop-color="#09005D"/>
<stop offset="1" stop-color="#1A0F91"/>
</linearGradient>
<linearGradient id="paint2_linear_243_3159" x1="62.8876" y1="60.0841" x2="95.9705" y2="71.0224" gradientUnits="userSpaceOnUse">
<stop stop-color="#09005D"/>
<stop offset="1" stop-color="#1A0F91"/>
</linearGradient>
<linearGradient id="paint3_linear_243_3159" x1="82.45" y1="111.935" x2="77.0821" y2="112.096" gradientUnits="userSpaceOnUse">
<stop stop-color="#09005D"/>
<stop offset="1" stop-color="#1A0F91"/>
</linearGradient>
<linearGradient id="paint4_linear_243_3159" x1="82.8481" y1="110.44" x2="81.4822" y2="110.633" gradientUnits="userSpaceOnUse">
<stop stop-color="#FEBBBA"/>
<stop offset="1" stop-color="#FF928E"/>
</linearGradient>
<linearGradient id="paint5_linear_243_3159" x1="109.358" y1="102.475" x2="108.499" y2="107.789" gradientUnits="userSpaceOnUse">
<stop stop-color="#09005D"/>
<stop offset="1" stop-color="#1A0F91"/>
</linearGradient>
<linearGradient id="paint6_linear_243_3159" x1="106.992" y1="103.217" x2="106.923" y2="104.597" gradientUnits="userSpaceOnUse">
<stop stop-color="#FEBBBA"/>
<stop offset="1" stop-color="#FF928E"/>
</linearGradient>
<linearGradient id="paint7_linear_243_3159" x1="80.9927" y1="65.861" x2="83.1935" y2="66.5851" gradientUnits="userSpaceOnUse">
<stop stop-color="#FEBBBA"/>
<stop offset="1" stop-color="#FF928E"/>
</linearGradient>
<linearGradient id="paint8_linear_243_3159" x1="97.1391" y1="96.0966" x2="107.356" y2="115.821" gradientUnits="userSpaceOnUse">
<stop stop-color="#09005D"/>
<stop offset="1" stop-color="#1A0F91"/>
</linearGradient>
<linearGradient id="paint9_linear_243_3159" x1="69.5933" y1="103.631" x2="86.411" y2="82.834" gradientUnits="userSpaceOnUse">
<stop stop-color="#FF928E"/>
<stop offset="1" stop-color="#FE7062"/>
</linearGradient>
<linearGradient id="paint10_linear_243_3159" x1="82.8328" y1="98.8484" x2="94.9916" y2="101.329" gradientUnits="userSpaceOnUse">
<stop stop-color="#09005D"/>
<stop offset="1" stop-color="#1A0F91"/>
</linearGradient>
<linearGradient id="paint11_linear_243_3159" x1="89.3394" y1="67.7212" x2="97.2285" y2="87.0365" gradientUnits="userSpaceOnUse">
<stop stop-color="#FEBBBA"/>
<stop offset="1" stop-color="#FF928E"/>
</linearGradient>
<linearGradient id="paint12_linear_243_3159" x1="92.4598" y1="72.3384" x2="91.9147" y2="79.65" gradientUnits="userSpaceOnUse">
<stop stop-color="#FEBBBA"/>
<stop offset="1" stop-color="#FF928E"/>
</linearGradient>
<linearGradient id="paint13_linear_243_3159" x1="94.062" y1="75.627" x2="90.0975" y2="72.1382" gradientUnits="userSpaceOnUse">
<stop stop-color="#09005D"/>
<stop offset="1" stop-color="#1A0F91"/>
</linearGradient>
<linearGradient id="paint14_linear_243_3159" x1="94.2597" y1="80.0928" x2="94.0013" y2="75.019" gradientUnits="userSpaceOnUse">
<stop stop-color="#FEBBBA"/>
<stop offset="1" stop-color="#FF928E"/>
</linearGradient>
<linearGradient id="paint15_linear_243_3159" x1="100.822" y1="69.9183" x2="102.174" y2="70.1936" gradientUnits="userSpaceOnUse">
<stop stop-color="#FEBBBA"/>
<stop offset="1" stop-color="#FF928E"/>
</linearGradient>
</defs>
</svg>
