<svg width="3015" height="1550" viewBox="0 0 3015 1550" fill="none" xmlns="http://www.w3.org/2000/svg">
<mask id="mask0_301_2868" style="mask-type:luminance" maskUnits="userSpaceOnUse" x="0" y="0" width="3015" height="1550">
<path d="M3015 0.262695H0V1549.47H3015V0.262695Z" fill="white"/>
</mask>
<g mask="url(#mask0_301_2868)">
<path d="M468.627 228.526C468.627 228.526 408.926 228.198 383.239 276.206C357.553 324.213 398.544 394.419 454.471 433.523L468.627 228.526Z" fill="#EF86C0"/>
<path d="M446.102 252.858C446.102 252.858 451.805 190.653 504.409 190.489C546.426 190.489 550.324 228.772 593.448 227.87C635.178 226.967 672.066 242.436 667.306 287.571C662.547 332.707 616.139 345.55 553.524 348.34L446.102 252.858Z" fill="#EF86C0"/>
<path d="M569.854 374.436C569.255 382.788 571.987 391.039 577.455 397.382C582.922 403.726 590.678 407.647 599.028 408.287C616.139 409.354 634.152 395.977 635.136 378.087C635.725 369.737 632.988 361.493 627.523 355.151C622.058 348.81 614.308 344.887 605.962 344.236C588.852 343.21 570.839 356.792 569.854 374.436Z" fill="#D69C79"/>
<path d="M554.263 458.06L555.042 534.585C555.37 561.461 539.491 575.986 514.01 575.986C492.14 575.986 467.972 561.133 468.875 537.457L473.265 421.459L554.263 458.06Z" fill="#EDB994"/>
<path d="M555.042 505.41L480.692 463.558C482.62 440.703 554.304 450.222 554.304 450.222L555.042 505.41Z" fill="#D69C79"/>
<path d="M531.53 480.585C575.229 480.257 610.927 444.312 611.789 407.425L613.266 330.325C614.374 284.123 579.825 245.307 535.305 242.598C489.554 239.808 429.73 275.711 427.062 322.939L439.372 382.723C438.634 436.845 479.173 477.425 531.53 480.585Z" fill="#EDB994"/>
<path d="M457.057 385.39L466.084 364.258C474.003 343.742 462.883 327.329 459.108 319.123C456.425 311.996 456.178 304.182 458.405 296.899C460.632 289.617 465.208 283.278 471.418 278.871C494.93 261.391 538.424 253.266 580.974 270.418C593.021 275.236 602.68 284.614 607.85 296.514C610.194 301.694 611.584 307.254 611.953 312.927L611.748 301.356C610.968 257.616 574.819 226.226 531.038 227.252C515.692 227.621 498.212 226.021 478.804 229.468C429.812 238.167 392.308 284 407.121 331.515L422.508 363.356L457.057 385.39Z" fill="#EF86C0"/>
<path d="M392.39 381.781C391.405 399.26 407.695 414.196 424.641 415.222C428.735 415.409 432.825 414.784 436.675 413.384C440.526 411.983 444.062 409.835 447.079 407.062C450.095 404.289 452.534 400.947 454.253 397.228C455.973 393.509 456.94 389.486 457.098 385.391C458.083 367.912 438.469 353.099 421.523 352.073C404.577 351.048 393.375 364.301 392.39 381.781Z" fill="#EDB994"/>
<path d="M436.542 394.91C436.542 394.91 432.89 370.578 409.707 374.394" stroke="black" stroke-width="3.36463" stroke-linecap="round" stroke-linejoin="round"/>
<path d="M583.437 362.619C583.818 364.104 584.631 365.444 585.774 366.468C586.916 367.491 588.337 368.153 589.856 368.369C591.374 368.586 592.923 368.347 594.306 367.683C595.689 367.019 596.844 365.959 597.624 364.639C598.405 363.319 598.777 361.796 598.692 360.265C598.608 358.733 598.071 357.261 597.149 356.034C596.228 354.808 594.964 353.882 593.516 353.374C592.069 352.866 590.503 352.799 589.017 353.181C587.026 353.693 585.32 354.975 584.274 356.745C583.227 358.514 582.926 360.627 583.437 362.619Z" fill="#221914"/>
<path d="M515.487 363.562C515.875 365.044 516.693 366.378 517.838 367.395C518.984 368.412 520.405 369.068 521.922 369.278C523.439 369.489 524.985 369.246 526.364 368.579C527.743 367.912 528.894 366.851 529.671 365.531C530.449 364.211 530.817 362.691 530.731 361.161C530.645 359.632 530.108 358.162 529.188 356.937C528.267 355.713 527.005 354.788 525.56 354.28C524.114 353.773 522.551 353.704 521.067 354.084C520.077 354.337 519.146 354.784 518.329 355.398C517.512 356.012 516.824 356.781 516.306 357.662C515.787 358.543 515.448 359.518 515.307 360.53C515.166 361.543 515.228 362.573 515.487 363.562Z" fill="#221914"/>
<path d="M564.357 375.749L571.25 389.043C571.544 389.547 571.733 390.104 571.805 390.682C571.877 391.261 571.832 391.848 571.67 392.408C571.509 392.968 571.236 393.489 570.868 393.941C570.499 394.392 570.043 394.764 569.527 395.034L562.1 398.891" stroke="black" stroke-width="3.36463" stroke-linecap="round" stroke-linejoin="round"/>
<path d="M516.514 311.574C516.514 311.574 540.928 307.184 541.872 320.273C541.872 320.273 542.323 329.177 520.986 332.583C499.65 335.988 491.197 335.004 488.776 326.797C486.355 318.591 504.984 312.436 516.514 311.574Z" fill="#221914"/>
<path d="M602.681 312.231C602.681 312.231 579.949 308.127 578.308 320.929C578.308 320.929 577.364 329.751 597.265 332.829C611.79 335.044 616.714 331.926 617.452 326.017C618.314 319.001 611.216 313.01 602.681 312.231Z" fill="#221914"/>
<path d="M530.916 410.708C530.916 410.708 541.256 423.51 562.265 416.863" stroke="black" stroke-width="3.36463" stroke-linecap="round" stroke-linejoin="round"/>
<path d="M468.588 253.76C468.588 253.76 555.576 352.237 651.673 270.173C651.673 270.173 577.241 239.809 535.142 242.928L468.588 253.76Z" fill="#EF86C0"/>
<path d="M365.391 1080.03L373.556 1549.47H502.849L524.226 1181.58H544.743L571.578 1549.47H692.622L684.908 1070.79L365.391 1080.03Z" fill="#0A257E"/>
<path d="M524.226 1181.58H594.924" stroke="#071D5B" stroke-width="6.48308" stroke-miterlimit="10"/>
<path d="M662.422 692.107C662.422 692.107 730.577 631.174 867.049 467.702C890.561 439.554 874.353 414.36 849.939 387.074C827.535 362.003 811.164 371.523 783.303 390.356L608.137 524.08L662.422 692.107Z" fill="#8096FF"/>
<path d="M808.949 240.178L810.713 181.051L791.387 112.938C788.801 105.959 787.038 98.7016 786.135 91.3139L778.708 29.5195C778.357 26.7517 779.055 23.9528 780.665 21.6743C782.275 19.3959 784.68 17.8031 787.407 17.2098C790.29 16.6001 793.297 17.1553 795.772 18.7541C798.247 20.353 799.989 22.8659 800.619 25.7445L815.883 89.1391L841.077 132.264L847.19 82.6971C847.886 79.9524 849.526 77.5399 851.821 75.882C854.116 74.2242 856.922 73.4266 859.746 73.629C865.819 74.0393 867.953 78.5118 869.184 85.5283L875.872 125.617C877.356 137.912 876.983 150.361 874.764 162.546L860.69 239.194L808.949 240.178Z" fill="#EDB994"/>
<path d="M792.331 203.003L883.627 203.66L885.556 429.87C884.62 438.804 881.731 447.424 877.095 455.118C872.459 462.812 866.189 469.394 858.728 474.397C851.266 479.4 842.797 482.701 833.918 484.069C825.04 485.436 815.969 484.835 807.349 482.309C791.764 477.756 778.622 467.207 770.806 452.976C762.991 438.744 761.14 421.994 765.66 406.4L792.331 203.003Z" fill="#8096FF"/>
<path d="M413.809 548.575C385.89 560.309 358.943 574.235 333.222 590.222C329.722 592.453 326.905 595.606 325.08 599.334C323.256 603.062 322.495 607.221 322.882 611.354L355.707 1094.34C355.707 1094.34 519.508 1147.68 695.618 1089.99L683.513 576.599C683.513 572.127 691.473 563.879 684.457 558.627C669.849 547.754 650.482 536.634 608.137 524.283L413.809 548.575Z" fill="#8096FF"/>
<path d="M685.771 672.164L683.925 593.752" stroke="#607FEF" stroke-width="6.48308" stroke-linecap="round" stroke-linejoin="round"/>
<path d="M493.986 521.617L413.728 548.575C413.728 548.575 430.633 586.53 499.238 589.156C563.043 591.577 605.922 542.748 608.056 524.448L540.722 521.617H493.986Z" fill="#EDB994"/>
<path d="M334.741 589.444C334.741 589.444 235.484 658.419 106.602 847.947C86.0862 878.269 111.157 896.693 139.879 919.466C166.222 940.392 180.706 928.247 204.997 904.94L407.819 726.451L334.741 589.444Z" fill="#8096FF"/>
<path d="M334.864 788.039L407.942 726.45" stroke="#607FEF" stroke-width="6.48308" stroke-linecap="round" stroke-linejoin="round"/>
<path d="M462.596 1016.71L408.065 979.209L415.532 967.146C416.869 964.976 417.444 962.423 417.166 959.89C416.888 957.357 415.772 954.99 413.997 953.162C412.221 951.335 409.886 950.152 407.363 949.801C404.839 949.45 402.27 949.952 400.063 951.225L339.131 986.308L296.047 1026.23C306.182 1052.7 344.711 1059.88 357.308 1056.23C358.621 1056.88 359.934 1057.58 361.411 1058.16L408.147 1078.67C410.167 1079.83 412.549 1080.2 414.826 1079.7C417.103 1079.2 419.111 1077.87 420.456 1075.96C422.467 1072.97 423.698 1067.76 414.999 1061.97L423.698 1067.96C425.852 1069.26 428.427 1069.67 430.878 1069.1C433.328 1068.54 435.462 1067.04 436.828 1064.93C439.495 1061.07 437.649 1055.28 432.725 1050.97L439.495 1054.75C440.672 1055.45 441.979 1055.89 443.336 1056.06C444.693 1056.23 446.071 1056.12 447.383 1055.74C448.695 1055.35 449.914 1054.7 450.965 1053.83C452.015 1052.95 452.873 1051.87 453.487 1050.65C454.536 1048.4 454.739 1045.84 454.061 1043.46C453.383 1041.07 451.869 1039 449.794 1037.64L440.152 1031.03L452.01 1035.67C453.309 1036.33 454.727 1036.72 456.18 1036.81C457.633 1036.91 459.09 1036.71 460.465 1036.24C461.84 1035.76 463.105 1035.01 464.183 1034.03C465.261 1033.05 466.131 1031.86 466.741 1030.54C467.791 1028.12 467.951 1025.4 467.193 1022.87C466.434 1020.34 464.806 1018.16 462.596 1016.71Z" fill="#EDB994"/>
<path d="M296.048 1026.23L264.7 1005.92L296.048 949.666L365.393 1002.02L296.048 1026.23Z" fill="#EDB994"/>
<path d="M339.87 958.814L303.475 1041.58L129.047 943.427C120.84 939.822 113.524 934.462 107.613 927.723C101.702 920.984 97.3414 913.031 94.8376 904.424C92.3337 895.817 91.7479 886.766 93.1213 877.908C94.4947 869.05 97.794 860.601 102.787 853.157C111.846 839.68 125.881 830.349 141.813 827.211C157.745 824.072 174.271 827.382 187.764 836.415L339.87 958.814Z" fill="#8096FF"/>
<path d="M239.546 875.766L201.879 847.043" stroke="#607FEF" stroke-width="6.48308" stroke-linecap="round" stroke-linejoin="round"/>
<path d="M1171.02 935.715C1171.02 935.715 1082.02 1130.12 1135.24 1549.47H1242.41L1285.04 1156.47H1293.25L1341.05 1549.6H1458.41L1476.3 1246.74C1476.3 1246.74 1507.81 1005.31 1404.41 931.324L1171.02 935.715Z" fill="#8096FF"/>
<path d="M1300.68 1154.91H1236.63" stroke="#607FEF" stroke-width="6.48308" stroke-linecap="round" stroke-linejoin="round"/>
<path d="M1509.15 368.417C1511.85 328.761 1486.17 294.713 1451.78 292.368C1417.39 290.024 1387.32 320.271 1384.62 359.927C1381.92 399.583 1407.6 433.631 1441.99 435.976C1476.38 438.32 1506.45 408.073 1509.15 368.417Z" fill="#3F1E14"/>
<path d="M1204.29 262.788C1204.29 262.788 1357.88 253.761 1393.94 326.88C1422.67 384.94 1386.52 474.595 1311.88 497.368C1240.69 518.951 1278.85 296.024 1278.85 296.024L1204.29 262.788Z" fill="#562F21"/>
<path d="M1277.37 271.404C1277.37 271.404 1144.92 235.665 1128.06 308.661C1115.34 363.972 1217.1 386.622 1217.1 386.622L1277.37 271.404Z" fill="#562F21"/>
<path d="M1203.44 430.101C1216.65 416.898 1216.65 395.49 1203.44 382.286C1190.24 369.082 1168.83 369.082 1155.63 382.286C1142.42 395.49 1142.42 416.898 1155.63 430.101C1168.83 443.305 1190.24 443.305 1203.44 430.101Z" fill="#D69C79"/>
<path d="M1220.71 501.552L1219.6 586.899C1219.6 612.749 1235.27 626.7 1260.63 626.659C1282.34 626.659 1302.77 615.375 1305.44 593.834L1301.33 466.224L1220.71 501.552Z" fill="#EDB994"/>
<path d="M1220.01 544.022L1311.22 484.812L1220.58 494.004L1220.01 544.022Z" fill="#D69C79"/>
<path d="M1242.21 514.93C1198.88 512.099 1165.39 475.539 1166.54 440.046L1169.66 356.382C1170.33 334.988 1179.29 314.692 1194.65 299.785C1210.01 284.877 1230.57 276.524 1251.97 276.492C1297.52 276.492 1342.24 313.421 1342.53 358.844L1339.25 426.095C1336.74 478.124 1294.32 514.848 1242.21 514.93Z" fill="#EDB994"/>
<path d="M1290.79 332.09C1272.65 390.191 1321.93 414.688 1321.93 414.688L1371.17 364.546C1371.17 364.546 1296.82 312.641 1290.79 332.09Z" fill="#562F21"/>
<path d="M1380.28 419.284C1380.3 425.973 1378.33 432.516 1374.62 438.086C1370.92 443.656 1365.65 448.003 1359.47 450.575C1353.3 453.148 1346.5 453.832 1339.94 452.54C1333.38 451.248 1327.34 448.038 1322.61 443.317C1317.87 438.596 1314.64 432.576 1313.32 426.018C1312 419.46 1312.66 412.658 1315.21 406.475C1317.76 400.291 1322.09 395.003 1327.65 391.28C1333.2 387.556 1339.74 385.564 1346.43 385.556C1355.39 385.545 1363.99 389.091 1370.33 395.415C1376.68 401.739 1380.26 410.324 1380.28 419.284Z" fill="#EDB994"/>
<path d="M1334.77 429.417C1334.77 429.417 1334.77 404.798 1358.2 408.901" stroke="#3E2216" stroke-width="4.30837" stroke-linecap="round" stroke-linejoin="round"/>
<path d="M1305.31 339.64C1305.31 339.64 1242.29 286.585 1166.91 323.514C1166.91 323.514 1187.43 243.871 1314.05 282.769C1440.68 321.668 1354.02 369.142 1354.02 369.142L1305.31 339.64Z" fill="#562F21"/>
<path d="M1191.94 400.45C1191.49 401.83 1190.64 403.044 1189.49 403.938C1188.35 404.833 1186.96 405.369 1185.51 405.477C1184.06 405.585 1182.62 405.261 1181.35 404.546C1180.09 403.831 1179.06 402.757 1178.41 401.46C1177.75 400.163 1177.5 398.701 1177.68 397.259C1177.85 395.817 1178.45 394.46 1179.4 393.359C1180.35 392.259 1181.6 391.464 1183 391.075C1184.4 390.687 1185.89 390.722 1187.27 391.177C1189.12 391.786 1190.65 393.105 1191.52 394.845C1192.4 396.584 1192.55 398.6 1191.94 400.45Z" fill="#221914"/>
<path d="M1256.77 405.949C1256.26 407.489 1255.3 408.842 1254.02 409.838C1252.74 410.834 1251.2 411.428 1249.58 411.545C1247.96 411.662 1246.34 411.296 1244.93 410.495C1243.52 409.693 1242.38 408.491 1241.65 407.041C1240.92 405.591 1240.64 403.958 1240.84 402.348C1241.04 400.738 1241.72 399.223 1242.78 397.995C1243.84 396.768 1245.24 395.882 1246.8 395.45C1248.37 395.018 1250.02 395.059 1251.56 395.568C1252.59 395.907 1253.53 396.444 1254.35 397.149C1255.17 397.855 1255.84 398.714 1256.32 399.678C1256.8 400.642 1257.09 401.693 1257.17 402.769C1257.25 403.845 1257.11 404.925 1256.77 405.949Z" fill="#221914"/>
<path d="M1202.36 414.072L1197.85 427.489C1197.66 428.003 1197.57 428.551 1197.59 429.1C1197.61 429.649 1197.74 430.189 1197.97 430.686C1198.21 431.184 1198.54 431.629 1198.95 431.996C1199.36 432.363 1199.83 432.645 1200.35 432.823L1207.82 435.326" stroke="black" stroke-width="3.20051" stroke-linecap="round" stroke-linejoin="round"/>
<path d="M1258 360.895C1258 360.895 1235.27 355.192 1233.38 367.501C1233.38 367.501 1232.4 375.708 1252.26 380.345C1272.12 384.981 1280.2 384.448 1282.99 376.939C1285.78 369.43 1268.79 362.496 1258 360.895Z" fill="#221914"/>
<path d="M1176.72 356.012C1176.72 356.012 1198.42 353.509 1199.16 365.778C1199.16 365.778 1199.49 373.984 1180.49 375.748C1166.71 376.897 1162.23 373.656 1161.91 368.034C1161.54 361.387 1168.64 356.34 1176.72 356.012Z" fill="#221914"/>
<path d="M1241.47 444.313C1241.47 444.313 1229.16 461.26 1204.25 453.053" stroke="black" stroke-width="3.20051" stroke-linecap="round" stroke-linejoin="round"/>
<path d="M1167.36 707.289C1167.36 707.289 1029.78 640.119 940.826 546.484C915.55 519.936 920.023 501.677 947.309 477.181C972.298 454.695 987.521 465.897 1013.17 487.685L1168.72 567.328L1167.36 707.289Z" fill="#FD5393"/>
<path d="M983.13 306.404L987.849 247.441L1014.48 181.79C1017.8 175.148 1020.34 168.138 1022.03 160.905L1036.14 100.259C1036.78 97.5649 1036.38 94.7317 1035.02 92.3169C1033.67 89.9021 1031.47 88.0806 1028.84 87.2108C1026.04 86.2893 1022.99 86.5149 1020.36 87.8379C1017.73 89.161 1015.73 91.4736 1014.81 94.2683L992.731 155.817L962.942 195.946L962.286 146.01C961.909 143.196 960.55 140.606 958.447 138.698C956.344 136.79 953.634 135.689 950.797 135.588C944.683 135.588 942.098 139.691 940.087 146.42L928.926 185.401C926.076 197.489 925.094 209.943 926.013 222.33L931.635 300.003L983.13 306.404Z" fill="#EDB994"/>
<path d="M996.917 262.829L914.402 284.206L924.209 513.986C924.209 513.986 960.276 576.519 998.066 569.831L979.356 576.437C995.353 573.614 1009.58 564.557 1018.9 551.255C1028.23 537.953 1031.89 521.494 1029.09 505.493L996.917 262.829Z" fill="#FD5393"/>
<path d="M1168.72 567.327L1249.96 579.144H1414.34L1449.42 750.495C1449.42 750.495 1381.39 843.925 1404.28 931.036L1171.02 935.714L1165.93 799.692C1165.93 799.692 1136.1 769.492 1121.33 712.253C1121.41 712.253 1101.88 630.27 1168.72 567.327Z" fill="#FD5393"/>
<path d="M1168.72 567.327L1249.96 579.144H1356.65C1356.65 579.144 1336.46 649.186 1251.56 648.407C1166.67 647.627 1168.72 567.327 1168.72 567.327Z" fill="#EDB994"/>
<path d="M1120.75 696.539C1120.75 696.539 1115.25 654.85 1135.81 621.491" stroke="#DD2A73" stroke-width="6.48308" stroke-linecap="round" stroke-linejoin="round"/>
<path d="M1473.92 618.413C1500.54 689.85 1569.48 790.461 1594.14 871.787C1595.99 877.866 1596.6 884.257 1595.93 890.577C1595.27 896.898 1593.33 903.019 1590.25 908.578C1587.17 914.136 1583 919.018 1578 922.933C1572.99 926.848 1567.25 929.715 1561.11 931.365L1557.62 932.309C1525.16 941.131 1516.59 924.103 1503.5 893.288L1364.2 664.082C1357.74 650.082 1356.98 634.119 1362.08 619.57C1367.18 605.02 1377.74 593.025 1391.52 586.121C1398.98 582.358 1407.15 580.211 1415.49 579.819C1423.83 579.428 1432.16 580.8 1439.94 583.848C1447.71 586.896 1454.76 591.55 1460.61 597.506C1466.47 603.462 1471 610.586 1473.92 618.413Z" fill="#FD5393"/>
<path d="M1434.98 780.49L1383.28 702.57" stroke="#DD2A73" stroke-width="6.48308" stroke-linecap="round" stroke-linejoin="round"/>
<path d="M1346.59 1076.45C1359.5 1048.49 1347.29 1015.36 1319.32 1002.45C1291.36 989.551 1258.23 1001.76 1245.33 1029.72C1232.42 1057.69 1244.63 1090.82 1272.6 1103.72C1300.56 1116.62 1333.69 1104.41 1346.59 1076.45Z" fill="#EDB994"/>
<path d="M1240.53 1047.12C1240.53 1047.12 1219.11 1033.45 1239.87 1012.85C1260.63 992.256 1298.91 977.115 1338.35 1016.96L1240.53 1047.12Z" fill="#EDB994"/>
<path d="M1382.95 952.251C1380.12 954.549 1290.87 1012.81 1290.87 1012.81L1338.26 1053.11L1449.42 981.014L1382.95 952.251Z" fill="#EDB994"/>
<path d="M1313.69 985.405L1370.02 1049.37L1565.71 935.1C1565.71 935.1 1620.44 903.669 1582.12 844.091C1561.6 817.051 1537.8 825.257 1510.72 845.486L1313.69 985.405Z" fill="#FD5393"/>
<path d="M1485.16 863.703L1510.85 845.485" stroke="#DD2A73" stroke-width="6.48308" stroke-linecap="round" stroke-linejoin="round"/>
<path d="M2780.34 1031.61L2821.41 1549.47H2679.4L2621.54 1133.16H2600.99L2561.14 1549.47H2427.13L2452.66 1022.37L2780.34 1031.61Z" fill="#312220"/>
<path d="M2621.54 1133.16H2550.8" stroke="black" stroke-width="6.48308" stroke-linecap="round" stroke-linejoin="round"/>
<path d="M2571.77 335.825C2571.64 344.568 2568.05 352.904 2561.8 359.009C2555.54 365.114 2547.11 368.493 2538.37 368.405C2520.48 367.953 2502.96 351.992 2503.53 333.733C2503.68 324.993 2507.27 316.664 2513.52 310.561C2519.78 304.458 2528.19 301.076 2536.93 301.153C2554.82 301.728 2572.35 317.443 2571.77 335.825Z" fill="#A96448"/>
<path d="M2580.43 424.331L2572.67 504.057C2569.88 531.958 2584.98 548.494 2611.74 550.792C2634.51 552.803 2660.97 539.549 2662.33 514.848L2668.28 393.803L2580.43 424.331Z" fill="#D08864"/>
<path d="M2575.3 473.487C2575.3 473.487 2655.39 440.662 2655.39 430.321C2655.39 406.359 2581.04 416.165 2581.04 416.165L2575.3 473.487Z" fill="#A96448"/>
<path d="M2602.01 449.811C2556.59 445.461 2522.74 404.88 2525.12 366.433L2530.62 286.092C2533.61 237.921 2577.56 200.705 2624.25 201.894C2672.09 203.166 2726.59 245.922 2725.07 295.284L2707.01 356.339C2702.58 412.677 2656.75 451.247 2602.01 449.811Z" fill="#D08864"/>
<path d="M2694.05 360.033L2685.35 335.127C2678.95 312.887 2691.99 296.844 2696.63 288.76C2701.97 279.528 2702.79 264.141 2687.19 250.519C2664.3 230.249 2615.47 212.687 2569.64 226.679C2563.37 228.629 2557.56 231.812 2552.54 236.04C2547.53 240.267 2543.41 245.455 2540.42 251.298C2536.72 258.116 2533.96 265.404 2532.22 272.963L2534.64 255.648C2539.36 210.225 2584.33 180.846 2629.75 185.893C2645.67 187.657 2664.01 187.575 2683.83 192.909C2734.01 206.409 2764.42 257.453 2744.72 305.543L2726.13 337.466L2694.05 360.033Z" fill="#221914"/>
<path d="M2755.64 359.622C2755.1 377.882 2736.8 391.915 2719.12 391.463C2714.85 391.289 2710.65 390.272 2706.77 388.47C2702.89 386.667 2699.41 384.116 2696.52 380.961C2693.64 377.807 2691.4 374.113 2689.95 370.092C2688.5 366.07 2687.85 361.801 2688.06 357.53C2688.63 339.229 2710.34 325.607 2728.06 326.058C2745.79 326.509 2756.21 341.322 2755.64 359.622Z" fill="#D08864"/>
<path d="M2708.53 369.266C2708.53 369.266 2714.56 344.277 2738.32 350.432" stroke="black" stroke-width="3.52876" stroke-linecap="round" stroke-linejoin="round"/>
<path d="M2687.2 250.518C2687.2 250.518 2672.14 238.208 2640.42 246.086C2578.87 261.596 2548.1 245.183 2556.84 223.231L2617.69 210.306L2685.47 225.037L2687.2 250.518Z" fill="#221914"/>
<path d="M2558.72 322.405C2558.2 323.951 2557.23 325.305 2555.93 326.296C2554.64 327.286 2553.08 327.868 2551.45 327.967C2549.82 328.066 2548.2 327.678 2546.79 326.852C2545.39 326.025 2544.26 324.799 2543.55 323.328C2542.85 321.858 2542.59 320.21 2542.83 318.596C2543.06 316.982 2543.77 315.474 2544.87 314.265C2545.96 313.057 2547.39 312.202 2548.98 311.81C2550.56 311.418 2552.23 311.507 2553.76 312.065C2555.77 312.799 2557.42 314.292 2558.35 316.224C2559.27 318.156 2559.41 320.375 2558.72 322.405Z" fill="#221914"/>
<path d="M2629.3 329.506C2628.78 331.051 2627.8 332.406 2626.51 333.396C2625.21 334.387 2623.65 334.969 2622.02 335.068C2620.39 335.167 2618.77 334.778 2617.37 333.952C2615.96 333.126 2614.83 331.899 2614.13 330.429C2613.42 328.958 2613.17 327.311 2613.4 325.697C2613.64 324.082 2614.35 322.575 2615.44 321.366C2616.54 320.157 2617.97 319.302 2619.55 318.91C2621.14 318.519 2622.8 318.608 2624.33 319.166C2626.35 319.9 2627.99 321.392 2628.92 323.324C2629.85 325.257 2629.99 327.475 2629.3 329.506Z" fill="#221914"/>
<path d="M2569.92 337.67L2564.67 352.237C2564.44 352.798 2564.32 353.401 2564.32 354.01C2564.33 354.619 2564.46 355.22 2564.7 355.777C2564.95 356.334 2565.3 356.835 2565.75 357.25C2566.2 357.664 2566.72 357.983 2567.3 358.186L2575.5 361.141" stroke="black" stroke-width="3.52876" stroke-linecap="round" stroke-linejoin="round"/>
<path d="M2632.5 280.102C2632.5 280.102 2607.51 273.331 2605.34 286.872C2605.34 286.872 2604.06 296.104 2625.85 301.438C2647.64 306.773 2656.63 306.65 2659.87 298.32C2663.11 289.99 2644.4 282.071 2632.5 280.102Z" fill="#221914"/>
<path d="M2542.8 273.004C2542.8 273.004 2566.85 270.706 2567.42 284.288C2567.42 284.288 2567.63 293.52 2546.62 294.874C2531.36 295.9 2526.47 292.207 2526.1 286.011C2525.94 278.626 2533.9 273.045 2542.8 273.004Z" fill="#221914"/>
<path d="M2562.25 377.758H2615.59C2614.25 383.082 2611.27 387.851 2607.08 391.393C2602.88 394.934 2597.68 397.068 2592.21 397.495C2585.65 398.508 2578.96 397.05 2573.42 393.402C2567.89 389.754 2563.91 384.178 2562.25 377.758Z" fill="white"/>
<path opacity="0.26" d="M2588.39 324.377C2587.97 332.071 2589.84 339.716 2593.75 346.354C2597.66 352.992 2603.45 358.328 2610.38 361.693C2617.31 365.058 2625.08 366.303 2632.72 365.272C2640.35 364.24 2647.51 360.978 2653.3 355.894C2659.09 350.811 2663.26 344.131 2665.27 336.693C2667.28 329.255 2667.05 321.389 2664.61 314.08C2662.17 306.772 2657.62 300.346 2651.55 295.609C2645.47 290.871 2638.13 288.032 2630.45 287.448C2619.98 286.784 2609.67 290.298 2601.79 297.22C2593.9 304.143 2589.08 313.908 2588.39 324.377Z" fill="white"/>
<path opacity="0.26" d="M2498.04 317.237C2496.44 338.368 2510.35 356.669 2528.61 358.064C2546.86 359.459 2563.36 343.415 2564.96 322.284C2566.56 301.152 2552.65 282.811 2534.39 281.252C2516.13 279.692 2499.64 296.064 2498.04 317.237Z" fill="white"/>
<path d="M2588.39 324.377C2587.97 332.071 2589.84 339.716 2593.75 346.354C2597.66 352.992 2603.45 358.328 2610.38 361.693C2617.31 365.058 2625.08 366.303 2632.72 365.272C2640.35 364.24 2647.51 360.978 2653.3 355.894C2659.09 350.811 2663.26 344.131 2665.27 336.693C2667.28 329.255 2667.05 321.389 2664.61 314.08C2662.17 306.772 2657.62 300.346 2651.55 295.609C2645.47 290.871 2638.13 288.032 2630.45 287.448C2619.98 286.784 2609.67 290.298 2601.79 297.22C2593.9 304.143 2589.08 313.908 2588.39 324.377Z" stroke="#FCCA44" stroke-width="4.4725" stroke-linecap="round" stroke-linejoin="round"/>
<path d="M2498.04 317.237C2496.44 338.368 2510.35 356.669 2528.61 358.064C2546.86 359.459 2563.36 343.415 2564.96 322.284C2566.56 301.152 2552.65 282.811 2534.39 281.252C2516.13 279.692 2499.64 296.064 2498.04 317.237Z" stroke="#FCCA44" stroke-width="4.4725" stroke-linecap="round" stroke-linejoin="round"/>
<path d="M2588.39 324.377C2588.39 324.377 2577.39 313.462 2564.96 322.284" stroke="#FCCA44" stroke-width="4.4725" stroke-linecap="round" stroke-linejoin="round"/>
<path d="M2666.47 330.243L2689.33 346.574" stroke="#FCCA44" stroke-width="4.4725" stroke-linecap="round" stroke-linejoin="round"/>
<path d="M2334.4 260.899C2334.4 260.899 2369.69 240.383 2390.33 189.134C2391.11 187.356 2391.33 185.377 2390.94 183.473C2390.55 181.568 2389.57 179.832 2388.15 178.507C2386.15 176.83 2383.57 175.992 2380.97 176.168C2378.36 176.344 2375.92 177.52 2374.16 179.45L2364.48 189.175L2387.41 124.754C2388.35 122.563 2388.39 120.094 2387.53 117.872C2386.67 115.65 2384.98 113.85 2382.82 112.855C2380.79 111.972 2378.54 111.767 2376.38 112.27C2374.23 112.773 2372.3 113.956 2370.88 115.645L2367.06 119.749L2369.97 110.188C2370.62 108.103 2370.44 105.848 2369.47 103.892C2368.5 101.936 2366.82 100.429 2364.76 99.6839C2362.72 99.0322 2360.51 99.082 2358.5 99.8253C2356.48 100.569 2354.78 101.963 2353.64 103.787L2349.91 109.532L2350.11 106.577C2350.22 105.194 2349.88 103.814 2349.14 102.639C2348.4 101.465 2347.3 100.559 2346.01 100.053C2344.54 99.5771 2342.96 99.5744 2341.49 100.045C2340.01 100.517 2338.73 101.438 2337.8 102.679L2331.61 110.886L2331.08 108.834C2330.75 107.581 2330.06 106.451 2329.1 105.584C2328.13 104.716 2326.94 104.149 2325.66 103.951C2324.11 103.714 2322.53 103.952 2321.13 104.634C2319.72 105.315 2318.55 106.408 2317.78 107.767L2280.85 187.411C2267.31 212.03 2276.13 243.748 2287.83 262.91C2288.44 263.935 2293.78 270.665 2294.56 271.608L2334.4 260.899Z" fill="#D08864"/>
<path d="M2367.06 119.953L2347.94 167.099" stroke="#A96448" stroke-width="3.89805" stroke-linecap="round" stroke-linejoin="round"/>
<path d="M2349.91 109.572L2330.5 158.975" stroke="#A96448" stroke-width="3.89805" stroke-linecap="round" stroke-linejoin="round"/>
<path d="M2332.27 110.312L2314.95 154.381" stroke="#A96448" stroke-width="3.89805" stroke-linecap="round" stroke-linejoin="round"/>
<path d="M2364.48 189.175C2364.48 189.175 2332.23 184.005 2314.29 204.726" stroke="#A96448" stroke-width="3.89805" stroke-linecap="round" stroke-linejoin="round"/>
<path d="M2338.59 228.608L2323.61 437.215C2323.61 465.568 2314.46 482.35 2286.11 481.53C2268.83 480.854 2251.6 483.774 2235.51 490.106L2292.14 219.293L2338.59 228.608Z" fill="#D08864"/>
<path d="M2545.96 678.688C2545.96 678.688 2287.09 565.603 2247.29 523.751C2221.97 497.203 2239.94 470.409 2264.4 443.122C2286.8 418.052 2280.52 426.422 2308.39 445.297L2535.66 523.258L2545.96 678.688Z" fill="#D08864"/>
<path d="M2536.85 512.262L2393.24 474.431C2350.69 580.417 2380.36 651.895 2380.36 651.895L2489.99 710.201L2567.13 548.33" fill="#FCCA44"/>
<path d="M2725.68 547.796C2753.61 559.583 2780.55 573.564 2806.27 589.608C2809.77 591.842 2812.58 594.995 2814.4 598.723C2816.23 602.45 2816.99 606.607 2816.61 610.739L2783.78 1028.98C2783.78 1028.98 2615.55 1091.06 2439.52 1033.29L2443.01 567.327C2443.01 562.896 2448.02 563.224 2455.08 558.013C2469.68 547.139 2489.05 536.02 2531.4 523.669L2725.68 547.796Z" fill="#FCCA44"/>
<path d="M2636.89 506.066L2725.68 547.795C2725.68 547.795 2695.73 570.65 2626.47 573.646C2608.41 574.425 2593.39 573.646 2567.83 560.474C2548.87 550.668 2533.28 530.89 2532.54 512.303L2589.78 508.199L2636.89 506.066Z" fill="#D08864"/>
<path d="M2442.52 684.884L2442.85 580.909" stroke="#DBA11D" stroke-width="6.48308" stroke-linecap="round" stroke-linejoin="round"/>
<path d="M2917.22 961.318L2886.82 764.446L2765.12 755.418L2814.19 936.124L2917.22 961.318Z" fill="#D08864"/>
<path d="M2761.3 568.764C2761.3 568.764 2884.84 585.464 2922.68 810.402L2744.31 853.732L2732 680.946L2761.3 568.764Z" fill="#FCCA44"/>
<path d="M2788.87 842.9L2752.97 853.732L2730.03 768.919" stroke="#DBA11D" stroke-width="6.48308" stroke-linecap="round" stroke-linejoin="round"/>
<path d="M2600 1028.49L2851.04 907.484C2873.07 899.031 2906.43 927.671 2914.59 949.87C2916.73 955.668 2917.57 961.862 2917.06 968.02C2916.54 974.177 2914.69 980.147 2911.62 985.511C2908.56 990.876 2904.36 995.504 2899.31 999.073C2894.27 1002.64 2888.5 1005.06 2882.43 1006.17L2618.79 1077.97L2600 1028.49Z" fill="#D08864"/>
<path d="M2619.93 1100.29C2646.19 1084.21 2654.45 1049.88 2638.36 1023.62C2622.28 997.352 2587.95 989.098 2561.69 1005.18C2535.42 1021.26 2527.17 1055.59 2543.25 1081.85C2559.33 1108.12 2593.66 1116.37 2619.93 1100.29Z" fill="#D08864"/>
<path d="M2535.42 1047.03C2535.42 1047.03 2514 1033.37 2534.76 1012.77C2555.52 992.175 2593.81 977.034 2633.24 1016.88L2535.42 1047.03Z" fill="#D08864"/>
<path d="M2022.93 535.159L2265.51 621.655C2265.56 631.041 2263.68 640.339 2259.99 648.968C2256.29 657.598 2250.87 665.375 2244.04 671.818C2237.21 678.26 2229.13 683.229 2220.3 686.416C2211.47 689.603 2202.08 690.939 2192.72 690.343L2014.92 678.566L2022.93 535.159Z" fill="#F0F4FF"/>
<path d="M2156.16 346.41C2156.16 346.41 2121.16 325.894 2100.68 275.178C2099.91 273.42 2099.7 271.468 2100.09 269.588C2100.47 267.708 2101.42 265.992 2102.82 264.674C2104.79 263 2107.35 262.158 2109.93 262.327C2112.52 262.495 2114.94 263.66 2116.68 265.576L2126.33 275.219L2103.55 211.332C2102.63 209.156 2102.59 206.707 2103.44 204.502C2104.29 202.297 2105.96 200.509 2108.11 199.515C2110.13 198.65 2112.37 198.451 2114.51 198.945C2116.65 199.439 2118.57 200.602 2120.01 202.264L2123.78 206.367L2120.87 196.848C2120.18 194.785 2120.34 192.534 2121.31 190.587C2122.28 188.641 2123.98 187.159 2126.04 186.466C2128.05 185.794 2130.23 185.812 2132.23 186.518C2134.23 187.225 2135.93 188.578 2137.08 190.364L2140.77 196.027L2140.56 193.114C2140.47 191.741 2140.81 190.374 2141.55 189.214C2142.29 188.053 2143.38 187.162 2144.67 186.672C2146.13 186.165 2147.72 186.143 2149.2 186.609C2150.68 187.074 2151.96 188.002 2152.87 189.257L2158.99 197.463L2159.52 195.411C2159.85 194.167 2160.53 193.044 2161.48 192.183C2162.44 191.323 2163.63 190.761 2164.9 190.57C2166.44 190.33 2168.01 190.567 2169.41 191.249C2170.82 191.931 2171.97 193.026 2172.73 194.386L2209.13 273.537C2222.59 298.156 2213.85 329.463 2202.24 348.461C2201.62 349.487 2196.37 356.134 2195.55 357.078L2156.16 346.41Z" fill="#EDB892"/>
<path d="M2123.78 206.574L2142.74 253.35" stroke="#D89C73" stroke-width="4.18528" stroke-linecap="round" stroke-linejoin="round"/>
<path d="M2140.77 196.233L2160.01 245.266" stroke="#D89C73" stroke-width="4.18528" stroke-linecap="round" stroke-linejoin="round"/>
<path d="M2158.29 196.971L2175.48 240.711" stroke="#D89C73" stroke-width="4.18528" stroke-linecap="round" stroke-linejoin="round"/>
<path d="M2126.33 275.22C2126.33 275.22 2158.33 270.173 2176.3 290.689" stroke="#D89C73" stroke-width="4.18528" stroke-linecap="round" stroke-linejoin="round"/>
<path d="M2152.01 314.364L2166.87 504.055C2166.87 532.203 2175.98 548.739 2204.08 548.042C2233.91 547.262 2259.81 590.018 2255.66 560.351L2198.22 304.844L2152.01 314.364Z" fill="#EDB892"/>
<path d="M2176.96 630.189L2142.86 360.444L2234.2 371.646L2265.51 621.531C2266.43 627.937 2265.94 634.466 2264.08 640.665C2262.22 646.863 2259.03 652.581 2254.73 657.42C2250.44 662.26 2245.14 666.104 2239.2 668.686C2233.27 671.268 2226.84 672.525 2220.37 672.37C2209.15 672.116 2198.44 667.626 2190.39 659.803C2182.33 651.98 2177.54 641.401 2176.96 630.189Z" fill="#F0F4FF"/>
<path d="M2014.8 576.764C2014.8 576.764 2095.27 648.365 2014.8 720.377V576.764Z" fill="#F0F4FF"/>
<path d="M1723.97 541.231C1723.97 541.231 1675.63 555.51 1682.61 605.528C1689.58 655.547 1799.55 881.264 1799.55 881.264L2003.97 876.915L2047.34 591.249C2047.34 591.249 2048.49 535.856 1998.1 522.438C1947.71 509.021 1723.97 541.231 1723.97 541.231Z" fill="#F0F4FF"/>
<path d="M2034.62 598.059C2034.62 598.059 2071.55 643.933 2032.69 707.287" stroke="#DBE2FF" stroke-width="6.27792" stroke-linecap="round" stroke-linejoin="round"/>
<path d="M1560.82 1233.98C1563.67 1223.41 1569.6 1213.92 1577.84 1206.72C1586.09 1199.52 1596.28 1194.92 1607.14 1193.51C1617.99 1192.1 1629.02 1193.94 1638.83 1198.8C1648.64 1203.66 1656.79 1211.32 1662.25 1220.81C1667.7 1230.3 1670.22 1241.2 1669.49 1252.12C1668.75 1263.04 1664.8 1273.5 1658.12 1282.17C1651.44 1290.85 1642.34 1297.35 1631.96 1300.85C1621.59 1304.35 1610.41 1304.69 1599.84 1301.84C1592.82 1299.95 1586.25 1296.69 1580.49 1292.26C1574.73 1287.82 1569.9 1282.29 1566.28 1275.99C1562.65 1269.69 1560.31 1262.74 1559.37 1255.53C1558.43 1248.32 1558.93 1240.99 1560.82 1233.98Z" fill="#EDB994"/>
<path d="M1642.89 1295.65C1642.89 1295.65 1664.27 1309.11 1673.95 1281.74C1683.63 1254.37 1681.01 1213.62 1628.53 1194.95L1642.89 1295.65Z" fill="#EDB994"/>
<path d="M1666.97 1140.05C1666.15 1143.58 1651.59 1248.3 1651.59 1248.3L1595.37 1222.86L1613.02 1092.54L1666.97 1140.05Z" fill="#EDB994"/>
<path d="M1707.96 941.293L1670.22 1204.56L1582.37 1179.65L1616.42 908.878L1707.96 941.293Z" fill="#F0F4FF"/>
<path d="M1683.38 582.797L1616.42 908.879L1707.96 941.295L1782.03 673.109L1683.38 582.797Z" fill="#F0F4FF"/>
<path d="M1753.1 786.234L1782.03 673.108" stroke="#DBE2FF" stroke-width="6.27792" stroke-linecap="round" stroke-linejoin="round"/>
<path d="M1799.55 881.265C1799.55 881.265 1700.82 995.375 1707.96 1204.56C1715.1 1413.74 1776 1549.47 1776 1549.47H1873.82L1900.08 1106.65H1913.95L2020.63 1549.47H2146.06C2146.06 1549.47 2123.33 1342.84 2096.09 1194.96C2070.69 1056.72 2065.15 992.052 2003.85 876.916L1799.55 881.265Z" fill="#FD5393"/>
<path d="M1900.08 1106.66L1967.24 1100.38" stroke="#DD2A73" stroke-width="6.48308" stroke-linecap="round" stroke-linejoin="round"/>
<path d="M1981.61 346.287C1981.61 346.287 2014.88 206.778 1872.34 206.572C1748.71 206.244 1745.96 329.669 1747.11 378.005C1747.76 404.019 1764.96 494.946 1719.78 540.615C1733.86 536.793 1748.78 537.357 1762.53 542.232C1776.28 547.108 1788.22 556.063 1796.76 567.901C1827.82 609.713 1962.28 656.859 1980.83 556.453C1989.03 512.836 2012.46 528.1 2012.46 528.1C1996.44 503.295 1986.95 474.838 1984.89 445.379C1982.26 404.922 1981.61 346.287 1981.61 346.287Z" fill="#8096FF"/>
<path d="M1924.74 523.792C1924.74 523.792 1965.77 516.94 1967.24 428.023L1917.47 446.611L1924.74 523.792Z" fill="#221914"/>
<path d="M1901.27 341.404L1801.75 343.28L1805.09 520.302L1904.61 518.426L1901.27 341.404Z" fill="#221914"/>
<path d="M1924.16 464.706V535.61C1924.16 560.516 1908.86 573.852 1884.36 573.647C1863.44 573.647 1843.86 562.609 1841.44 541.806L1846.82 430.198L1924.16 464.706Z" fill="#EDB994"/>
<path d="M1924.73 523.792L1837.13 448.17L1924.28 457.443L1924.73 523.792Z" fill="#D69C79"/>
<path d="M1902.99 471.888C1944.72 469.426 1974.67 426.137 1973.77 391.998L1974.01 325.321C1973.47 304.734 1964.95 285.164 1950.25 270.74C1935.55 256.317 1915.83 248.169 1895.23 248.016C1851.41 247.729 1807.96 282.976 1807.67 326.798L1810.46 391.547C1812.59 441.606 1852.85 471.559 1902.99 471.888Z" fill="#EDB994"/>
<path d="M1946.53 367.173C1946.89 368.589 1947.66 369.865 1948.75 370.84C1949.84 371.814 1951.2 372.444 1952.65 372.648C1954.09 372.853 1955.57 372.623 1956.88 371.989C1958.2 371.354 1959.3 370.343 1960.04 369.084C1960.78 367.824 1961.14 366.373 1961.05 364.913C1960.97 363.454 1960.45 362.052 1959.57 360.886C1958.69 359.719 1957.49 358.84 1956.11 358.359C1954.72 357.879 1953.23 357.819 1951.82 358.187C1950.88 358.421 1949.99 358.841 1949.21 359.422C1948.43 360.002 1947.78 360.732 1947.29 361.569C1946.79 362.406 1946.47 363.332 1946.34 364.295C1946.21 365.257 1946.27 366.236 1946.53 367.173Z" fill="#221914"/>
<path d="M1881.82 368.035C1882.17 369.454 1882.94 370.736 1884.02 371.718C1885.1 372.7 1886.46 373.338 1887.9 373.552C1889.35 373.765 1890.83 373.544 1892.15 372.917C1893.47 372.289 1894.58 371.284 1895.32 370.028C1896.07 368.772 1896.43 367.321 1896.36 365.861C1896.28 364.4 1895.77 362.995 1894.9 361.823C1894.02 360.652 1892.82 359.767 1891.44 359.28C1890.06 358.793 1888.57 358.727 1887.15 359.09C1885.26 359.583 1883.65 360.797 1882.65 362.471C1881.65 364.144 1881.35 366.142 1881.82 368.035Z" fill="#221914"/>
<path d="M1934.95 375.749L1938.52 389.495C1938.69 390.023 1938.75 390.579 1938.7 391.131C1938.65 391.683 1938.48 392.218 1938.22 392.705C1937.95 393.192 1937.59 393.621 1937.16 393.964C1936.72 394.308 1936.22 394.561 1935.69 394.706L1928.02 396.716" stroke="black" stroke-width="3.20051" stroke-linecap="round" stroke-linejoin="round"/>
<path d="M1882.84 323.063C1882.84 323.063 1905.98 318.96 1906.89 331.27C1906.89 331.27 1907.3 339.681 1887.07 342.8C1866.84 345.918 1858.8 345.098 1856.5 337.301C1854.2 329.505 1871.89 323.884 1882.84 323.063Z" fill="#221914"/>
<path d="M1964.58 323.514C1964.58 323.514 1942.99 319.411 1941.44 331.721C1941.44 331.721 1940.53 339.927 1959.45 342.963C1973.19 345.056 1977.91 342.143 1978.61 336.521C1979.35 330.12 1972.66 324.417 1964.58 323.514Z" fill="#221914"/>
<path d="M1936.76 410.42L1888.5 406.317C1889.31 411.242 1891.64 415.79 1895.17 419.323C1898.69 422.855 1903.24 425.195 1908.16 426.012C1914.01 427.427 1920.18 426.615 1925.47 423.733C1930.75 420.851 1934.78 416.106 1936.76 410.42Z" fill="white"/>
<path d="M1802.01 358.227C1802.01 358.227 1821.25 302.998 1894.37 289.58C1933.35 282.4 1963.43 289.58 1973.77 321.052C1973.77 321.052 1987.76 245.84 1906.68 224.832C1796.59 196.314 1805.99 332.541 1802.01 358.227Z" fill="#8096FF"/>
<path d="M1842.92 292.945C1842.92 292.945 1793.68 316.498 1829.54 492.403C1829.54 492.403 1873.61 534.625 1924.74 523.792L1956.33 524.859L1942.99 572.579L1869.71 592.357L1773.86 540.123L1752.61 409.271L1769.67 318.59L1780.92 300.372L1842.92 292.945Z" fill="#8096FF"/>
<path d="M1821.42 325.77C1821.42 325.77 1820.6 272.798 1887.07 262.868C1953.54 252.938 1973.73 305.706 1973.73 305.706" stroke="#607FEF" stroke-width="6.11379" stroke-linecap="round" stroke-linejoin="round"/>
<path d="M1828.06 497.819C1828.06 497.819 1856.79 609.057 1973.77 565.809" stroke="#607FEF" stroke-width="6.11379" stroke-linecap="round" stroke-linejoin="round"/>
</g>
</svg>
