<svg width="1187" height="772" viewBox="0 0 1187 772" fill="none" xmlns="http://www.w3.org/2000/svg">
<g clip-path="url(#clip0_342_3104)">
<circle cx="1191.43" cy="21.0465" r="114.298" transform="rotate(33.9163 1191.43 21.0465)" stroke="#E39F26" stroke-opacity="0.3" stroke-width="0.462745"/>
<circle cx="1127.4" cy="116.281" r="6.01569" transform="rotate(33.9163 1127.4 116.281)" stroke="#E39F26" stroke-opacity="0.3" stroke-width="1.38824"/>
<path d="M145.5 112C182.3 -8.8 325.5 -91.3333 392.5 -117.5L-84 -164L-106 461C-44 461.833 93.1 453.7 145.5 414.5C211 365.5 99.5 263 145.5 112Z" fill="#2E44D0" fill-opacity="0.2"/>
<path d="M1027 112C939 112 878 12.6667 858.5 -37V-98H1462C1458.67 2 1436.4 206.9 1374 226.5C1296 251 1227.5 217 1222.5 170.5C1217.5 124 1137 112 1027 112Z" fill="#2E44D0" fill-opacity="0.2"/>
<path d="M282.5 781C169.3 781 170.333 865.667 185 908L1359.5 974V756.5V622C1229.17 613.167 961.2 614 932 688C895.5 780.5 424 781 282.5 781Z" fill="#2E44D0" fill-opacity="0.2"/>
<circle cx="1214.5" cy="569.5" r="247" stroke="#2E44D0" stroke-opacity="0.3"/>
<circle cx="969.5" cy="548.5" r="13" stroke="#2E44D0" stroke-opacity="0.3" stroke-width="3"/>
<circle cx="1083.5" cy="360.5" r="13" stroke="#2E44D0" stroke-opacity="0.3" stroke-width="3"/>
<circle cx="129.968" cy="62.972" r="166.528" transform="rotate(33.9163 129.968 62.972)" stroke="#C53350" stroke-opacity="0.3" stroke-width="0.674201"/>
<circle cx="36.672" cy="201.725" r="8.76462" transform="rotate(33.9163 36.672 201.725)" stroke="#C53350" stroke-opacity="0.3" stroke-width="2.0226"/>
<circle cx="174.961" cy="223.214" r="8.76462" transform="rotate(33.9163 174.961 223.214)" stroke="#C53350" stroke-opacity="0.3" stroke-width="2.0226"/>
<circle cx="292.043" cy="27.3354" r="8.76462" transform="rotate(33.9163 292.043 27.3354)" stroke="#C53350" stroke-opacity="0.3" stroke-width="2.0226"/>
<circle cx="19.8701" cy="644.263" r="114.298" transform="rotate(-16.4328 19.8701 644.263)" stroke="#C53350" stroke-opacity="0.3" stroke-width="0.462745"/>
<circle cx="52.3348" cy="754.336" r="6.01569" transform="rotate(-16.4328 52.3348 754.336)" stroke="#C53350" stroke-opacity="0.3" stroke-width="1.38824"/>
<circle cx="124.257" cy="690.667" r="6.01569" transform="rotate(-16.4328 124.257 690.667)" stroke="#C53350" stroke-opacity="0.3" stroke-width="1.38824"/>
<circle cx="72.0219" cy="543.004" r="6.01569" transform="rotate(-16.4328 72.0219 543.004)" stroke="#C53350" stroke-opacity="0.3" stroke-width="1.38824"/>
<circle cx="91.4289" cy="783.047" r="114.298" transform="rotate(33.9163 91.4289 783.047)" stroke="#E39F26" stroke-opacity="0.3" stroke-width="0.462745"/>
<circle cx="2.76855" cy="711.722" r="6.01569" transform="rotate(33.9163 2.76855 711.722)" stroke="#E39F26" stroke-opacity="0.3" stroke-width="1.38824"/>
<circle cx="95.0884" cy="668.963" r="6.01569" transform="rotate(33.9163 95.0884 668.963)" stroke="#E39F26" stroke-opacity="0.3" stroke-width="1.38824"/>
<circle cx="202.671" cy="758.587" r="6.01569" transform="rotate(33.9163 202.671 758.587)" stroke="#E39F26" stroke-opacity="0.3" stroke-width="1.38824"/>
<circle cx="644.864" cy="418.065" r="150.335" transform="rotate(73.1948 644.864 418.065)" stroke="#E39F26" stroke-opacity="0.3" stroke-width="0.608644"/>
<circle cx="613.987" cy="271.62" r="7.91237" transform="rotate(73.1948 613.987 271.62)" stroke="#E39F26" stroke-opacity="0.3" stroke-width="1.82593"/>
<circle cx="743.586" cy="304.96" r="7.91237" transform="rotate(73.1948 743.586 304.96)" stroke="#E39F26" stroke-opacity="0.3" stroke-width="1.82593"/>
<circle cx="500.367" cy="461.705" r="7.91237" transform="rotate(73.1948 500.367 461.705)" stroke="#E39F26" stroke-opacity="0.3" stroke-width="1.82593"/>
<circle cx="584.722" cy="555.758" r="7.91237" transform="rotate(73.1948 584.722 555.758)" stroke="#E39F26" stroke-opacity="0.3" stroke-width="1.82593"/>
<circle cx="778.49" cy="485.792" r="7.91237" transform="rotate(73.1948 778.49 485.792)" stroke="#E39F26" stroke-opacity="0.3" stroke-width="1.82593"/>
<path d="M244.524 699.486H244.344C243.506 695.571 241.348 692.062 238.23 689.549C235.113 687.036 231.226 685.671 227.222 685.683C223.218 685.695 219.339 687.083 216.237 689.615C213.135 692.147 210.998 695.668 210.183 699.589C208.547 699.81 206.978 700.385 205.587 701.275C204.196 702.166 203.016 703.349 202.13 704.743C201.244 706.137 200.674 707.707 200.458 709.344C200.242 710.982 200.387 712.646 200.882 714.222C201.377 715.798 202.21 717.246 203.323 718.466C204.436 719.686 205.802 720.648 207.326 721.285C208.849 721.922 210.494 722.219 212.144 722.154C213.794 722.089 215.41 721.664 216.879 720.91C217.794 723.001 219.317 724.768 221.252 725.98C223.186 727.192 225.441 727.792 227.722 727.702C230.003 727.611 232.203 726.835 234.036 725.475C235.869 724.114 237.248 722.232 237.995 720.075C239.451 721.103 241.13 721.773 242.894 722.03C244.658 722.287 246.458 722.125 248.148 721.556C249.838 720.987 251.37 720.028 252.619 718.756C253.868 717.484 254.8 715.936 255.339 714.236C255.877 712.537 256.008 710.734 255.719 708.975C255.43 707.215 254.731 705.549 253.677 704.111C252.623 702.673 251.245 701.503 249.655 700.697C248.065 699.892 246.307 699.472 244.524 699.473V699.486Z" fill="#BAC4FF"/>
<path d="M182.076 532.085H181.909C181.138 528.464 179.145 525.218 176.264 522.893C173.382 520.568 169.789 519.305 166.087 519.316C162.384 519.328 158.799 520.613 155.932 522.955C153.065 525.298 151.091 528.556 150.342 532.181C148.833 532.39 147.388 532.925 146.108 533.749C144.827 534.574 143.741 535.667 142.926 536.954C142.111 538.24 141.587 539.689 141.389 541.199C141.191 542.71 141.325 544.245 141.781 545.698C142.237 547.151 143.005 548.487 144.03 549.613C145.055 550.74 146.314 551.629 147.718 552.219C149.122 552.809 150.638 553.086 152.16 553.03C153.682 552.975 155.174 552.588 156.531 551.897C157.376 553.829 158.785 555.461 160.572 556.58C162.359 557.699 164.442 558.253 166.549 558.17C168.656 558.087 170.689 557.37 172.382 556.113C174.076 554.857 175.351 553.119 176.041 551.127C177.388 552.078 178.941 552.698 180.572 552.936C182.204 553.175 183.869 553.025 185.432 552.499C186.995 551.973 188.411 551.086 189.567 549.909C190.723 548.733 191.584 547.301 192.082 545.729C192.581 544.157 192.701 542.49 192.433 540.862C192.166 539.235 191.518 537.694 190.544 536.364C189.569 535.034 188.294 533.953 186.823 533.208C185.351 532.464 183.725 532.077 182.076 532.079V532.085Z" fill="#BAC4FF"/>
<path d="M160.987 644.236H160.769C159.758 639.538 157.164 635.329 153.421 632.315C149.678 629.3 145.013 627.663 140.207 627.677C135.401 627.692 130.746 629.356 127.021 632.393C123.296 635.43 120.727 639.654 119.745 644.358C117.784 644.629 115.906 645.324 114.241 646.396C112.576 647.467 111.165 648.888 110.106 650.56C109.046 652.233 108.364 654.116 108.107 656.079C107.85 658.042 108.024 660.037 108.617 661.926C109.21 663.814 110.208 665.551 111.541 667.015C112.874 668.478 114.51 669.634 116.335 670.401C118.16 671.167 120.13 671.527 122.108 671.454C124.086 671.382 126.025 670.879 127.789 669.98C128.886 672.493 130.716 674.616 133.039 676.072C135.362 677.527 138.07 678.248 140.81 678.139C143.549 678.03 146.192 677.097 148.392 675.461C150.592 673.826 152.248 671.564 153.142 668.972C154.891 670.207 156.907 671.011 159.026 671.321C161.144 671.63 163.306 671.435 165.336 670.752C167.365 670.069 169.205 668.917 170.705 667.39C172.206 665.863 173.325 664.003 173.972 661.962C174.619 659.921 174.776 657.756 174.43 655.643C174.083 653.53 173.243 651.529 171.978 649.801C170.713 648.074 169.059 646.669 167.149 645.701C165.239 644.733 163.128 644.229 160.987 644.23V644.236Z" fill="#E6E6FF"/>
<path d="M340.381 659.085H340.143C339.042 653.944 336.206 649.337 332.113 646.037C328.019 642.738 322.915 640.946 317.657 640.962C312.399 640.977 307.306 642.8 303.232 646.124C299.158 649.448 296.351 654.072 295.28 659.22C293.142 659.526 291.096 660.293 289.285 661.468C287.473 662.644 285.939 664.199 284.788 666.027C283.638 667.855 282.899 669.911 282.622 672.053C282.346 674.195 282.539 676.371 283.188 678.431C283.837 680.491 284.926 682.385 286.38 683.982C287.834 685.579 289.618 686.84 291.608 687.678C293.599 688.517 295.748 688.912 297.906 688.837C300.064 688.762 302.18 688.218 304.108 687.243C305.306 689.991 307.306 692.314 309.846 693.906C312.386 695.499 315.348 696.287 318.344 696.169C321.339 696.05 324.229 695.03 326.635 693.241C329.042 691.453 330.852 688.98 331.829 686.145C333.743 687.493 335.948 688.371 338.265 688.707C340.582 689.043 342.945 688.828 345.163 688.079C347.382 687.33 349.392 686.069 351.031 684.397C352.67 682.726 353.892 680.692 354.598 678.459C355.303 676.227 355.472 673.86 355.091 671.55C354.71 669.24 353.79 667.053 352.405 665.165C351.019 663.278 349.209 661.744 347.12 660.687C345.031 659.631 342.722 659.082 340.381 659.085Z" fill="#E6E6FF"/>
<path d="M336.599 532.919H336.362C335.28 527.837 332.483 523.282 328.44 520.019C324.397 516.756 319.354 514.983 314.158 514.999C308.962 515.015 303.93 516.818 299.907 520.106C295.884 523.394 293.114 527.966 292.064 533.054C289.945 533.345 287.915 534.094 286.115 535.25C284.316 536.406 282.79 537.94 281.645 539.747C280.499 541.553 279.762 543.587 279.484 545.708C279.206 547.828 279.394 549.984 280.034 552.025C280.675 554.065 281.754 555.941 283.194 557.522C284.635 559.103 286.403 560.351 288.375 561.178C290.348 562.005 292.477 562.391 294.614 562.311C296.752 562.23 298.845 561.685 300.75 560.711C301.935 563.423 303.91 565.714 306.417 567.285C308.925 568.856 311.848 569.634 314.805 569.516C317.762 569.399 320.614 568.392 322.989 566.628C325.365 564.863 327.152 562.423 328.119 559.626C330.007 560.959 332.184 561.828 334.472 562.162C336.759 562.496 339.094 562.286 341.285 561.548C343.476 560.811 345.462 559.567 347.083 557.918C348.703 556.269 349.911 554.261 350.61 552.057C351.309 549.853 351.478 547.516 351.103 545.234C350.729 542.953 349.822 540.792 348.456 538.927C347.089 537.062 345.303 535.545 343.24 534.5C341.178 533.455 338.898 532.911 336.586 532.913L336.599 532.919Z" fill="#BAC4FF"/>
<g opacity="0.35">
<path d="M94.9633 708.776C96.5412 708.776 97.8202 707.497 97.8202 705.919C97.8202 704.341 96.5412 703.062 94.9633 703.062C93.3855 703.062 92.1064 704.341 92.1064 705.919C92.1064 707.497 93.3855 708.776 94.9633 708.776Z" stroke="white" stroke-width="0.642" stroke-miterlimit="10"/>
<path d="M107.989 715.735C109.911 715.735 111.469 714.177 111.469 712.256C111.469 710.334 109.911 708.776 107.989 708.776C106.068 708.776 104.51 710.334 104.51 712.256C104.51 714.177 106.068 715.735 107.989 715.735Z" stroke="white" stroke-width="0.642" stroke-miterlimit="10"/>
<path d="M80.9614 715.729L85.1601 731.394L96.6198 719.928L80.9614 715.729Z" stroke="white" stroke-width="0.642" stroke-miterlimit="10"/>
</g>
<g opacity="0.35">
<path d="M354.017 593.788C355.594 593.788 356.873 592.508 356.873 590.931C356.873 589.353 355.594 588.074 354.017 588.074C352.439 588.074 351.16 589.353 351.16 590.931C351.16 592.508 352.439 593.788 354.017 593.788Z" stroke="white" stroke-width="0.642" stroke-miterlimit="10"/>
<path d="M367.049 600.741C368.971 600.741 370.529 599.183 370.529 597.261C370.529 595.339 368.971 593.781 367.049 593.781C365.127 593.781 363.569 595.339 363.569 597.261C363.569 599.183 365.127 600.741 367.049 600.741Z" stroke="white" stroke-width="0.642" stroke-miterlimit="10"/>
<path d="M340.021 600.74L344.213 616.405L355.679 604.939L340.021 600.74Z" stroke="white" stroke-width="0.642" stroke-miterlimit="10"/>
</g>
<g opacity="0.35">
<path d="M101.929 539.43C101.929 539.995 101.762 540.547 101.448 541.017C101.134 541.487 100.688 541.853 100.166 542.069C99.6435 542.285 99.0691 542.342 98.5149 542.232C97.9607 542.121 97.4516 541.849 97.0521 541.45C96.6526 541.05 96.3805 540.541 96.2702 539.987C96.16 539.433 96.2166 538.858 96.4328 538.336C96.649 537.814 97.0152 537.368 97.485 537.054C97.9548 536.74 98.5072 536.573 99.0722 536.573C99.8299 536.573 100.557 536.874 101.092 537.41C101.628 537.945 101.929 538.672 101.929 539.43Z" stroke="white" stroke-width="0.642" stroke-miterlimit="10"/>
<path d="M86.0397 536.579C87.9615 536.579 89.5193 535.021 89.5193 533.099C89.5193 531.178 87.9615 529.62 86.0397 529.62C84.1179 529.62 82.5601 531.178 82.5601 533.099C82.5601 535.021 84.1179 536.579 86.0397 536.579Z" stroke="white" stroke-width="0.642" stroke-miterlimit="10"/>
<path d="M113.074 529.62L108.876 513.961L97.4097 525.428L113.074 529.62Z" stroke="white" stroke-width="0.642" stroke-miterlimit="10"/>
</g>
<path d="M256.189 560.756L319.664 545.971L275.045 570.618L256.189 560.756Z" fill="url(#paint0_linear_342_3104)"/>
<path d="M319.663 545.971L305.462 589.165L282.549 574.572L319.663 545.971Z" fill="url(#paint1_linear_342_3104)"/>
<path d="M275.044 570.618L277.683 589.165L282.549 574.572L319.663 545.971L275.044 570.618Z" fill="#2B2388"/>
<path d="M277.683 589.165L291.467 580.248L282.549 574.573L277.683 589.165Z" fill="#FF7A85"/>
<path d="M168.139 751.777C134.19 751.283 85.4427 679.95 155.941 662.083C226.439 644.216 172.954 722.56 143.993 684.258C115.032 645.956 162.033 617.079 209.907 622.812C257.781 628.545 272.579 591.951 272.579 591.951" stroke="#2E44D0" stroke-width="0.642" stroke-miterlimit="10" stroke-dasharray="7.7 7.7"/>
<path d="M260.773 627.884L294.26 620.083L270.724 633.084L260.773 627.884Z" fill="url(#paint2_linear_342_3104)"/>
<path d="M294.26 620.083L286.774 642.868L274.685 635.17L294.26 620.083Z" fill="url(#paint3_linear_342_3104)"/>
<path d="M270.724 633.084L272.117 642.868L274.685 635.17L294.259 620.083L270.724 633.084Z" fill="#2B2388"/>
<path d="M272.117 642.868L279.384 638.169L274.685 635.171L272.117 642.868Z" fill="#FF7A85"/>
<path d="M240.98 697.355L274.467 689.561L250.931 702.562L240.98 697.355Z" fill="url(#paint4_linear_342_3104)"/>
<path d="M274.467 689.561L266.975 712.346L254.886 704.648L274.467 689.561Z" fill="url(#paint5_linear_342_3104)"/>
<path d="M250.931 702.562L252.317 712.346L254.885 704.648L274.466 689.561L250.931 702.562Z" fill="#2B2388"/>
<path d="M252.317 712.346L259.591 707.64L254.885 704.648L252.317 712.346Z" fill="#FF7A85"/>
<path d="M105.107 608.04L138.594 600.24L115.058 613.24L105.107 608.04Z" fill="url(#paint6_linear_342_3104)"/>
<path d="M138.594 600.24L131.108 623.024L119.019 615.327L138.594 600.24Z" fill="url(#paint7_linear_342_3104)"/>
<path d="M115.058 613.24L116.451 623.024L119.019 615.327L138.594 600.24L115.058 613.24Z" fill="#2B2388"/>
<path d="M116.451 623.024L123.719 618.325L119.019 615.327L116.451 623.024Z" fill="#FF7A85"/>
<path d="M192.888 580.389L226.374 572.588L202.839 585.589L192.888 580.389Z" fill="url(#paint8_linear_342_3104)"/>
<path d="M226.374 572.588L218.882 595.373L206.793 587.675L226.374 572.588Z" fill="url(#paint9_linear_342_3104)"/>
<path d="M202.839 585.589L204.226 595.373L206.794 587.675L226.375 572.588L202.839 585.589Z" fill="#2B2388"/>
<path d="M204.226 595.373L211.499 590.674L206.794 587.676L204.226 595.373Z" fill="#FF7A85"/>
<path d="M1032.48 486.486H1032.66C1033.49 482.571 1035.65 479.062 1038.77 476.549C1041.89 474.036 1045.77 472.671 1049.78 472.683C1053.78 472.695 1057.66 474.083 1060.76 476.615C1063.87 479.147 1066 482.668 1066.82 486.589C1068.45 486.81 1070.02 487.385 1071.41 488.275C1072.8 489.166 1073.98 490.349 1074.87 491.743C1075.76 493.137 1076.33 494.707 1076.54 496.344C1076.76 497.982 1076.61 499.646 1076.12 501.222C1075.62 502.798 1074.79 504.246 1073.68 505.466C1072.56 506.686 1071.2 507.648 1069.67 508.285C1068.15 508.922 1066.51 509.219 1064.86 509.154C1063.21 509.089 1061.59 508.664 1060.12 507.91C1059.21 510.001 1057.68 511.768 1055.75 512.98C1053.81 514.192 1051.56 514.792 1049.28 514.702C1047 514.611 1044.8 513.835 1042.96 512.475C1041.13 511.114 1039.75 509.232 1039.01 507.075C1037.55 508.103 1035.87 508.773 1034.11 509.03C1032.34 509.287 1030.54 509.125 1028.85 508.556C1027.16 507.987 1025.63 507.028 1024.38 505.756C1023.13 504.484 1022.2 502.936 1021.66 501.236C1021.12 499.537 1020.99 497.734 1021.28 495.975C1021.57 494.215 1022.27 492.549 1023.32 491.111C1024.38 489.673 1025.75 488.503 1027.34 487.697C1028.94 486.892 1030.69 486.472 1032.48 486.473V486.486Z" fill="#BAC4FF"/>
<path d="M1094.92 319.085H1095.09C1095.86 315.464 1097.86 312.218 1100.74 309.893C1103.62 307.568 1107.21 306.305 1110.91 306.316C1114.62 306.328 1118.2 307.613 1121.07 309.955C1123.94 312.298 1125.91 315.556 1126.66 319.181C1128.17 319.39 1129.61 319.925 1130.89 320.749C1132.17 321.574 1133.26 322.667 1134.07 323.954C1134.89 325.24 1135.41 326.689 1135.61 328.199C1135.81 329.71 1135.67 331.245 1135.22 332.698C1134.76 334.151 1134 335.487 1132.97 336.613C1131.94 337.74 1130.69 338.629 1129.28 339.219C1127.88 339.809 1126.36 340.086 1124.84 340.03C1123.32 339.975 1121.83 339.588 1120.47 338.897C1119.62 340.829 1118.22 342.461 1116.43 343.58C1114.64 344.699 1112.56 345.253 1110.45 345.17C1108.34 345.087 1106.31 344.37 1104.62 343.113C1102.92 341.857 1101.65 340.119 1100.96 338.127C1099.61 339.078 1098.06 339.698 1096.43 339.936C1094.8 340.175 1093.13 340.025 1091.57 339.499C1090.01 338.973 1088.59 338.086 1087.43 336.909C1086.28 335.733 1085.42 334.301 1084.92 332.729C1084.42 331.157 1084.3 329.49 1084.57 327.862C1084.83 326.235 1085.48 324.694 1086.46 323.364C1087.43 322.034 1088.71 320.953 1090.18 320.208C1091.65 319.464 1093.27 319.077 1094.92 319.079V319.085Z" fill="#BAC4FF"/>
<path d="M1116.01 431.236H1116.23C1117.24 426.538 1119.84 422.329 1123.58 419.315C1127.32 416.3 1131.99 414.663 1136.79 414.677C1141.6 414.692 1146.25 416.356 1149.98 419.393C1153.7 422.43 1156.27 426.654 1157.26 431.358C1159.22 431.629 1161.09 432.324 1162.76 433.396C1164.42 434.467 1165.84 435.888 1166.89 437.56C1167.95 439.233 1168.64 441.116 1168.89 443.079C1169.15 445.042 1168.98 447.037 1168.38 448.926C1167.79 450.814 1166.79 452.551 1165.46 454.015C1164.13 455.478 1162.49 456.634 1160.67 457.401C1158.84 458.167 1156.87 458.527 1154.89 458.454C1152.91 458.382 1150.97 457.879 1149.21 456.98C1148.11 459.493 1146.28 461.616 1143.96 463.072C1141.64 464.527 1138.93 465.248 1136.19 465.139C1133.45 465.03 1130.81 464.097 1128.61 462.461C1126.41 460.826 1124.75 458.564 1123.86 455.972C1122.11 457.207 1120.09 458.011 1117.97 458.321C1115.86 458.63 1113.69 458.435 1111.66 457.752C1109.64 457.069 1107.8 455.917 1106.29 454.39C1104.79 452.863 1103.67 451.003 1103.03 448.962C1102.38 446.921 1102.22 444.756 1102.57 442.643C1102.92 440.53 1103.76 438.529 1105.02 436.801C1106.29 435.074 1107.94 433.669 1109.85 432.701C1111.76 431.733 1113.87 431.229 1116.01 431.23V431.236Z" fill="#E6E6FF"/>
<path d="M936.619 446.085H936.857C937.958 440.944 940.794 436.337 944.887 433.037C948.981 429.738 954.085 427.946 959.343 427.962C964.601 427.977 969.694 429.8 973.768 433.124C977.842 436.448 980.649 441.072 981.72 446.22C983.858 446.526 985.904 447.293 987.715 448.468C989.527 449.644 991.061 451.199 992.212 453.027C993.362 454.855 994.101 456.911 994.378 459.053C994.654 461.195 994.461 463.371 993.812 465.431C993.163 467.491 992.074 469.385 990.62 470.982C989.166 472.579 987.382 473.84 985.392 474.678C983.401 475.517 981.252 475.912 979.094 475.837C976.936 475.762 974.82 475.218 972.892 474.243C971.694 476.991 969.694 479.314 967.154 480.906C964.614 482.499 961.652 483.287 958.656 483.169C955.661 483.05 952.771 482.03 950.365 480.241C947.958 478.453 946.148 475.98 945.171 473.145C943.257 474.493 941.052 475.371 938.735 475.707C936.418 476.043 934.055 475.828 931.837 475.079C929.618 474.33 927.608 473.069 925.969 471.397C924.33 469.726 923.108 467.692 922.402 465.459C921.697 463.227 921.528 460.86 921.909 458.55C922.29 456.24 923.21 454.053 924.595 452.165C925.981 450.278 927.791 448.744 929.88 447.687C931.969 446.631 934.278 446.082 936.619 446.085Z" fill="#E6E6FF"/>
<path d="M940.401 319.919H940.638C941.72 314.837 944.517 310.282 948.56 307.019C952.603 303.756 957.646 301.983 962.842 301.999C968.038 302.015 973.07 303.818 977.093 307.106C981.116 310.394 983.886 314.966 984.936 320.054C987.055 320.345 989.085 321.094 990.885 322.25C992.684 323.406 994.21 324.94 995.355 326.747C996.501 328.553 997.238 330.587 997.516 332.708C997.794 334.828 997.606 336.984 996.966 339.025C996.325 341.065 995.246 342.941 993.806 344.522C992.365 346.103 990.597 347.351 988.625 348.178C986.652 349.005 984.523 349.391 982.386 349.311C980.248 349.23 978.155 348.685 976.25 347.711C975.065 350.423 973.09 352.714 970.583 354.285C968.075 355.856 965.152 356.634 962.195 356.516C959.238 356.399 956.386 355.392 954.011 353.628C951.635 351.863 949.848 349.423 948.881 346.626C946.993 347.959 944.816 348.828 942.528 349.162C940.241 349.496 937.906 349.286 935.715 348.548C933.524 347.811 931.538 346.567 929.917 344.918C928.297 343.269 927.089 341.261 926.39 339.057C925.691 336.853 925.522 334.516 925.897 332.234C926.271 329.953 927.178 327.792 928.544 325.927C929.911 324.062 931.697 322.545 933.76 321.5C935.822 320.455 938.102 319.911 940.414 319.913L940.401 319.919Z" fill="#BAC4FF"/>
<g opacity="0.35">
<path d="M1182.04 495.776C1180.46 495.776 1179.18 494.497 1179.18 492.919C1179.18 491.341 1180.46 490.062 1182.04 490.062C1183.61 490.062 1184.89 491.341 1184.89 492.919C1184.89 494.497 1183.61 495.776 1182.04 495.776Z" stroke="white" stroke-width="0.642" stroke-miterlimit="10"/>
<path d="M1169.01 502.735C1167.09 502.735 1165.53 501.177 1165.53 499.256C1165.53 497.334 1167.09 495.776 1169.01 495.776C1170.93 495.776 1172.49 497.334 1172.49 499.256C1172.49 501.177 1170.93 502.735 1169.01 502.735Z" stroke="white" stroke-width="0.642" stroke-miterlimit="10"/>
<path d="M1196.04 502.729L1191.84 518.394L1180.38 506.928L1196.04 502.729Z" stroke="white" stroke-width="0.642" stroke-miterlimit="10"/>
</g>
<g opacity="0.35">
<path d="M922.983 380.788C921.406 380.788 920.127 379.508 920.127 377.931C920.127 376.353 921.406 375.074 922.983 375.074C924.561 375.074 925.84 376.353 925.84 377.931C925.84 379.508 924.561 380.788 922.983 380.788Z" stroke="white" stroke-width="0.642" stroke-miterlimit="10"/>
<path d="M909.951 387.741C908.029 387.741 906.471 386.183 906.471 384.261C906.471 382.339 908.029 380.781 909.951 380.781C911.873 380.781 913.431 382.339 913.431 384.261C913.431 386.183 911.873 387.741 909.951 387.741Z" stroke="white" stroke-width="0.642" stroke-miterlimit="10"/>
<path d="M936.979 387.74L932.787 403.405L921.321 391.939L936.979 387.74Z" stroke="white" stroke-width="0.642" stroke-miterlimit="10"/>
</g>
<g opacity="0.35">
<path d="M1175.07 326.43C1175.07 326.995 1175.24 327.547 1175.55 328.017C1175.87 328.487 1176.31 328.853 1176.83 329.069C1177.36 329.285 1177.93 329.342 1178.49 329.232C1179.04 329.121 1179.55 328.849 1179.95 328.45C1180.35 328.05 1180.62 327.541 1180.73 326.987C1180.84 326.433 1180.78 325.858 1180.57 325.336C1180.35 324.814 1179.98 324.368 1179.51 324.054C1179.05 323.74 1178.49 323.573 1177.93 323.573C1177.17 323.573 1176.44 323.874 1175.91 324.41C1175.37 324.945 1175.07 325.672 1175.07 326.43Z" stroke="white" stroke-width="0.642" stroke-miterlimit="10"/>
<path d="M1163.93 316.62L1168.12 300.961L1179.59 312.428L1163.93 316.62Z" stroke="white" stroke-width="0.642" stroke-miterlimit="10"/>
</g>
<path d="M1020.81 347.756L957.336 332.971L1001.96 357.618L1020.81 347.756Z" fill="url(#paint10_linear_342_3104)"/>
<path d="M957.337 332.971L971.538 376.165L994.451 361.572L957.337 332.971Z" fill="url(#paint11_linear_342_3104)"/>
<path d="M1001.96 357.618L999.317 376.165L994.451 361.572L957.337 332.971L1001.96 357.618Z" fill="#2B2388"/>
<path d="M999.317 376.165L985.533 367.248L994.451 361.573L999.317 376.165Z" fill="#FF7A85"/>
<path d="M1108.86 538.777C1142.81 538.283 1191.56 466.95 1121.06 449.083C1050.56 431.216 1104.05 509.56 1133.01 471.258C1161.97 432.956 1114.97 404.079 1067.09 409.812C1019.22 415.545 1004.42 378.951 1004.42 378.951" stroke="#2E44D0" stroke-width="0.642" stroke-miterlimit="10" stroke-dasharray="7.7 7.7"/>
<path d="M1016.23 414.884L982.74 407.083L1006.28 420.084L1016.23 414.884Z" fill="url(#paint12_linear_342_3104)"/>
<path d="M982.74 407.083L990.226 429.868L1002.31 422.17L982.74 407.083Z" fill="url(#paint13_linear_342_3104)"/>
<path d="M1006.28 420.084L1004.88 429.868L1002.32 422.17L982.741 407.083L1006.28 420.084Z" fill="#2B2388"/>
<path d="M1004.88 429.868L997.616 425.169L1002.32 422.171L1004.88 429.868Z" fill="#FF7A85"/>
<path d="M1036.02 484.355L1002.53 476.561L1026.07 489.562L1036.02 484.355Z" fill="url(#paint14_linear_342_3104)"/>
<path d="M1002.53 476.561L1010.03 499.346L1022.11 491.648L1002.53 476.561Z" fill="url(#paint15_linear_342_3104)"/>
<path d="M1026.07 489.562L1024.68 499.346L1022.11 491.648L1002.53 476.561L1026.07 489.562Z" fill="#2B2388"/>
<path d="M1024.68 499.346L1017.41 494.64L1022.11 491.648L1024.68 499.346Z" fill="#FF7A85"/>
<path d="M1171.89 395.04L1138.41 387.24L1161.94 400.24L1171.89 395.04Z" fill="url(#paint16_linear_342_3104)"/>
<path d="M1138.41 387.24L1145.89 410.024L1157.98 402.327L1138.41 387.24Z" fill="url(#paint17_linear_342_3104)"/>
<path d="M1161.94 400.24L1160.55 410.024L1157.98 402.327L1138.41 387.24L1161.94 400.24Z" fill="#2B2388"/>
<path d="M1160.55 410.024L1153.28 405.325L1157.98 402.327L1160.55 410.024Z" fill="#FF7A85"/>
<path d="M1084.11 367.389L1050.63 359.588L1074.16 372.589L1084.11 367.389Z" fill="url(#paint18_linear_342_3104)"/>
<path d="M1050.63 359.588L1058.12 382.373L1070.21 374.675L1050.63 359.588Z" fill="url(#paint19_linear_342_3104)"/>
<path d="M1074.16 372.589L1072.77 382.373L1070.21 374.675L1050.63 359.588L1074.16 372.589Z" fill="#2B2388"/>
<path d="M1072.77 382.373L1065.5 377.674L1070.21 374.676L1072.77 382.373Z" fill="#FF7A85"/>
</g>
<defs>
<linearGradient id="paint0_linear_342_3104" x1="319.664" y1="558.291" x2="256.189" y2="558.291" gradientUnits="userSpaceOnUse">
<stop stop-color="#6578F3"/>
<stop offset="0.27" stop-color="#6374DE"/>
<stop offset="0.67" stop-color="#4A60EE"/>
<stop offset="1" stop-color="#2E44D0"/>
</linearGradient>
<linearGradient id="paint1_linear_342_3104" x1="319.663" y1="567.568" x2="282.549" y2="567.568" gradientUnits="userSpaceOnUse">
<stop stop-color="#6578F3"/>
<stop offset="0.27" stop-color="#546AF4"/>
<stop offset="0.67" stop-color="#4158EF"/>
<stop offset="1" stop-color="#2E44D0"/>
</linearGradient>
<linearGradient id="paint2_linear_342_3104" x1="294.26" y1="626.587" x2="260.779" y2="626.587" gradientUnits="userSpaceOnUse">
<stop stop-color="#787CFF"/>
<stop offset="0.27" stop-color="#7175FA"/>
<stop offset="0.67" stop-color="#5F61EE"/>
<stop offset="1" stop-color="#2E44D0"/>
</linearGradient>
<linearGradient id="paint3_linear_342_3104" x1="294.26" y1="631.479" x2="274.685" y2="631.479" gradientUnits="userSpaceOnUse">
<stop stop-color="#4C5FD6"/>
<stop offset="0.27" stop-color="#4257DC"/>
<stop offset="0.67" stop-color="#2E44D0"/>
<stop offset="1" stop-color="#2E44D0"/>
</linearGradient>
<linearGradient id="paint4_linear_342_3104" x1="274.467" y1="696.058" x2="240.98" y2="696.058" gradientUnits="userSpaceOnUse">
<stop stop-color="#2E44D0"/>
<stop offset="0.27" stop-color="#7175FA"/>
<stop offset="0.67" stop-color="#5F61EE"/>
<stop offset="1" stop-color="#2E44D0"/>
</linearGradient>
<linearGradient id="paint5_linear_342_3104" x1="274.467" y1="700.95" x2="254.892" y2="700.95" gradientUnits="userSpaceOnUse">
<stop stop-color="#586AE2"/>
<stop offset="0.27" stop-color="#4C5FDC"/>
<stop offset="0.67" stop-color="#5164DC"/>
<stop offset="1" stop-color="#2E44D0"/>
</linearGradient>
<linearGradient id="paint6_linear_342_3104" x1="138.594" y1="606.743" x2="105.113" y2="606.743" gradientUnits="userSpaceOnUse">
<stop stop-color="#787CFF"/>
<stop offset="0.27" stop-color="#7175FA"/>
<stop offset="0.67" stop-color="#5868D1"/>
<stop offset="1" stop-color="#2E44D0"/>
</linearGradient>
<linearGradient id="paint7_linear_342_3104" x1="138.594" y1="611.635" x2="119.019" y2="611.635" gradientUnits="userSpaceOnUse">
<stop stop-color="#6375E9"/>
<stop offset="0.27" stop-color="#4F63E0"/>
<stop offset="0.67" stop-color="#2E44D0"/>
<stop offset="1" stop-color="#2E44D0"/>
</linearGradient>
<linearGradient id="paint8_linear_342_3104" x1="226.374" y1="579.092" x2="192.888" y2="579.092" gradientUnits="userSpaceOnUse">
<stop stop-color="#2E44D0"/>
<stop offset="0.27" stop-color="#7175FA"/>
<stop offset="0.67" stop-color="#5F61EE"/>
<stop offset="1" stop-color="#2E44D0"/>
</linearGradient>
<linearGradient id="paint9_linear_342_3104" x1="226.374" y1="583.984" x2="206.8" y2="583.984" gradientUnits="userSpaceOnUse">
<stop stop-color="#7175FA"/>
<stop offset="0.333333" stop-color="#5666CE"/>
<stop offset="0.67" stop-color="#5166E8"/>
<stop offset="1" stop-color="#2E44D0"/>
</linearGradient>
<linearGradient id="paint10_linear_342_3104" x1="957.336" y1="345.291" x2="1020.81" y2="345.291" gradientUnits="userSpaceOnUse">
<stop stop-color="#6578F3"/>
<stop offset="0.27" stop-color="#6374DE"/>
<stop offset="0.67" stop-color="#4A60EE"/>
<stop offset="1" stop-color="#2E44D0"/>
</linearGradient>
<linearGradient id="paint11_linear_342_3104" x1="957.337" y1="354.568" x2="994.451" y2="354.568" gradientUnits="userSpaceOnUse">
<stop stop-color="#6578F3"/>
<stop offset="0.27" stop-color="#546AF4"/>
<stop offset="0.67" stop-color="#4158EF"/>
<stop offset="1" stop-color="#2E44D0"/>
</linearGradient>
<linearGradient id="paint12_linear_342_3104" x1="982.74" y1="413.587" x2="1016.22" y2="413.587" gradientUnits="userSpaceOnUse">
<stop stop-color="#787CFF"/>
<stop offset="0.27" stop-color="#7175FA"/>
<stop offset="0.67" stop-color="#5F61EE"/>
<stop offset="1" stop-color="#2E44D0"/>
</linearGradient>
<linearGradient id="paint13_linear_342_3104" x1="982.74" y1="418.479" x2="1002.31" y2="418.479" gradientUnits="userSpaceOnUse">
<stop stop-color="#4C5FD6"/>
<stop offset="0.27" stop-color="#4257DC"/>
<stop offset="0.67" stop-color="#2E44D0"/>
<stop offset="1" stop-color="#2E44D0"/>
</linearGradient>
<linearGradient id="paint14_linear_342_3104" x1="1002.53" y1="483.058" x2="1036.02" y2="483.058" gradientUnits="userSpaceOnUse">
<stop stop-color="#2E44D0"/>
<stop offset="0.27" stop-color="#7175FA"/>
<stop offset="0.67" stop-color="#5F61EE"/>
<stop offset="1" stop-color="#2E44D0"/>
</linearGradient>
<linearGradient id="paint15_linear_342_3104" x1="1002.53" y1="487.95" x2="1022.11" y2="487.95" gradientUnits="userSpaceOnUse">
<stop stop-color="#586AE2"/>
<stop offset="0.27" stop-color="#4C5FDC"/>
<stop offset="0.67" stop-color="#5164DC"/>
<stop offset="1" stop-color="#2E44D0"/>
</linearGradient>
<linearGradient id="paint16_linear_342_3104" x1="1138.41" y1="393.743" x2="1171.89" y2="393.743" gradientUnits="userSpaceOnUse">
<stop stop-color="#787CFF"/>
<stop offset="0.27" stop-color="#7175FA"/>
<stop offset="0.67" stop-color="#5868D1"/>
<stop offset="1" stop-color="#2E44D0"/>
</linearGradient>
<linearGradient id="paint17_linear_342_3104" x1="1138.41" y1="398.635" x2="1157.98" y2="398.635" gradientUnits="userSpaceOnUse">
<stop stop-color="#6375E9"/>
<stop offset="0.27" stop-color="#4F63E0"/>
<stop offset="0.67" stop-color="#2E44D0"/>
<stop offset="1" stop-color="#2E44D0"/>
</linearGradient>
<linearGradient id="paint18_linear_342_3104" x1="1050.63" y1="366.092" x2="1084.11" y2="366.092" gradientUnits="userSpaceOnUse">
<stop stop-color="#2E44D0"/>
<stop offset="0.27" stop-color="#7175FA"/>
<stop offset="0.67" stop-color="#5F61EE"/>
<stop offset="1" stop-color="#2E44D0"/>
</linearGradient>
<linearGradient id="paint19_linear_342_3104" x1="1050.63" y1="370.984" x2="1070.2" y2="370.984" gradientUnits="userSpaceOnUse">
<stop stop-color="#7175FA"/>
<stop offset="0.333333" stop-color="#5666CE"/>
<stop offset="0.67" stop-color="#5166E8"/>
<stop offset="1" stop-color="#2E44D0"/>
</linearGradient>
<clipPath id="clip0_342_3104">
<rect width="1187" height="771.55" fill="white"/>
</clipPath>
</defs>
</svg>
