<svg width="274" height="273" viewBox="0 0 274 273" fill="none" xmlns="http://www.w3.org/2000/svg">
<g clip-path="url(#clip0_342_2867)">
<path d="M224.636 27.3765H57.527C44.6845 27.3765 34.2737 37.7873 34.2737 50.6298V231.102C34.2737 243.944 44.6845 254.355 57.527 254.355H224.636C237.478 254.355 247.889 243.944 247.889 231.102V50.6298C247.889 37.7873 237.478 27.3765 224.636 27.3765Z" fill="#D1D8FF"/>
<path d="M12.8069 74.1965C12.5425 73.9307 12.2281 73.7198 11.882 73.5759C11.5358 73.432 11.1646 73.3579 10.7897 73.3579C10.4148 73.3579 10.0436 73.432 9.69747 73.5759C9.3513 73.7198 9.03698 73.9307 8.77258 74.1965L7.58951 75.3796L6.40644 74.1965C6.14153 73.9306 5.82672 73.7195 5.48006 73.5755C5.1334 73.4315 4.76172 73.3574 4.38634 73.3574C4.01096 73.3574 3.63928 73.4315 3.29262 73.5755C2.94596 73.7195 2.63115 73.9306 2.36624 74.1965C1.25415 75.3086 1.4257 77.799 2.39582 79.0412C4.02846 81.1293 7.58359 83.4481 7.58359 83.4481C7.58359 83.4481 11.1328 81.1293 12.7714 79.0412C13.7533 77.799 13.9249 75.3086 12.8069 74.1965Z" fill="#96A4FF"/>
<path d="M258.288 256.289C258.023 256.023 257.709 255.812 257.362 255.668C257.015 255.524 256.644 255.45 256.268 255.45C255.893 255.45 255.521 255.524 255.175 255.668C254.828 255.812 254.513 256.023 254.248 256.289L253.065 257.472L251.882 256.289C251.618 256.024 251.303 255.813 250.957 255.669C250.611 255.525 250.24 255.451 249.865 255.451C249.49 255.451 249.119 255.525 248.773 255.669C248.426 255.813 248.112 256.024 247.848 256.289C246.73 257.401 246.901 259.886 247.848 261.128C249.486 263.222 253.041 265.541 253.041 265.541C253.041 265.541 256.591 263.222 258.229 261.128C259.229 259.886 259.4 257.401 258.288 256.289Z" fill="#96A4FF"/>
<path d="M16.6459 20.1656L13.5758 18.6986L10.5057 20.1656L10.9553 16.7938L8.61279 14.3271L11.955 13.7119L13.5758 10.7188L15.1966 13.7119L18.5447 14.3271L16.1963 16.7938L16.6459 20.1656Z" fill="#96A4FF"/>
<path d="M265.316 106.477L262.246 105.004L259.176 106.477L259.625 103.099L257.283 100.638L260.631 100.017L262.246 97.0298L263.867 100.017L267.215 100.638L264.866 103.099L265.316 106.477Z" fill="#96A4FF"/>
<path d="M271.882 240.382L268.812 238.915L265.742 240.382L266.191 237.011L263.843 234.544L267.191 233.929L268.812 230.936L270.432 233.929L273.775 234.544L271.432 237.011L271.882 240.382Z" fill="#96A4FF"/>
<path d="M15.1728 46.3408C16.0549 46.3408 16.77 45.6257 16.77 44.7436C16.77 43.8616 16.0549 43.1465 15.1728 43.1465C14.2908 43.1465 13.5757 43.8616 13.5757 44.7436C13.5757 45.6257 14.2908 46.3408 15.1728 46.3408Z" fill="#96A4FF"/>
<path d="M3.19432 32.6054C4.0764 32.6054 4.79147 31.8904 4.79147 31.0083C4.79147 30.1262 4.0764 29.4111 3.19432 29.4111C2.31224 29.4111 1.59717 30.1262 1.59717 31.0083C1.59717 31.8904 2.31224 32.6054 3.19432 32.6054Z" fill="#96A4FF"/>
<path d="M1.59715 108.63C2.47923 108.63 3.1943 107.915 3.1943 107.033C3.1943 106.151 2.47923 105.436 1.59715 105.436C0.715068 105.436 0 106.151 0 107.033C0 107.915 0.715068 108.63 1.59715 108.63Z" fill="#96A4FF"/>
<path d="M34.2737 4.79147C35.1557 4.79147 35.8708 4.0764 35.8708 3.19432C35.8708 2.31224 35.1557 1.59717 34.2737 1.59717C33.3916 1.59717 32.6765 2.31224 32.6765 3.19432C32.6765 4.0764 33.3916 4.79147 34.2737 4.79147Z" fill="#96A4FF"/>
<path d="M63.4245 10.7246C64.3066 10.7246 65.0217 10.0095 65.0217 9.12742C65.0217 8.24534 64.3066 7.53027 63.4245 7.53027C62.5425 7.53027 61.8274 8.24534 61.8274 9.12742C61.8274 10.0095 62.5425 10.7246 63.4245 10.7246Z" fill="#96A4FF"/>
<path d="M13.5757 141.212C14.4577 141.212 15.1728 140.497 15.1728 139.615C15.1728 138.733 14.4577 138.018 13.5757 138.018C12.6936 138.018 11.9785 138.733 11.9785 139.615C11.9785 140.497 12.6936 141.212 13.5757 141.212Z" fill="#96A4FF"/>
<path d="M103.052 3.1943C103.934 3.1943 104.649 2.47923 104.649 1.59715C104.649 0.715068 103.934 0 103.052 0C102.169 0 101.454 0.715068 101.454 1.59715C101.454 2.47923 102.169 3.1943 103.052 3.1943Z" fill="#96A4FF"/>
<path d="M267.215 154.036C268.097 154.036 268.812 153.321 268.812 152.439C268.812 151.557 268.097 150.842 267.215 150.842C266.333 150.842 265.618 151.557 265.618 152.439C265.618 153.321 266.333 154.036 267.215 154.036Z" fill="#96A4FF"/>
<path d="M259.058 180.75C259.94 180.75 260.655 180.035 260.655 179.153C260.655 178.271 259.94 177.556 259.058 177.556C258.176 177.556 257.46 178.271 257.46 179.153C257.46 180.035 258.176 180.75 259.058 180.75Z" fill="#96A4FF"/>
<path d="M171.959 273C172.842 273 173.557 272.285 173.557 271.403C173.557 270.521 172.842 269.806 171.959 269.806C171.077 269.806 170.362 270.521 170.362 271.403C170.362 272.285 171.077 273 171.959 273Z" fill="#96A4FF"/>
<path d="M215.047 268.28C215.929 268.28 216.644 267.565 216.644 266.683C216.644 265.801 215.929 265.085 215.047 265.085C214.165 265.085 213.45 265.801 213.45 266.683C213.45 267.565 214.165 268.28 215.047 268.28Z" fill="#96A4FF"/>
<path d="M260.655 209.818C261.537 209.818 262.252 209.103 262.252 208.221C262.252 207.339 261.537 206.624 260.655 206.624C259.773 206.624 259.058 207.339 259.058 208.221C259.058 209.103 259.773 209.818 260.655 209.818Z" fill="#96A4FF"/>
<path d="M82.0109 120.709C103.429 120.709 120.792 103.346 120.792 81.9276C120.792 60.5094 103.429 43.1465 82.0109 43.1465C60.5926 43.1465 43.2297 60.5094 43.2297 81.9276C43.2297 103.346 60.5926 120.709 82.0109 120.709Z" fill="#FAEADE"/>
<path d="M190.232 143.495C210.912 143.495 227.677 126.731 227.677 106.051C227.677 85.3708 210.912 68.6064 190.232 68.6064C169.552 68.6064 152.788 85.3708 152.788 106.051C152.788 126.731 169.552 143.495 190.232 143.495Z" fill="#FAEADE"/>
<path d="M55.6991 127.458C62.7982 127.458 68.5531 121.703 68.5531 114.604C68.5531 107.505 62.7982 101.75 55.6991 101.75C48.5999 101.75 42.845 107.505 42.845 114.604C42.845 121.703 48.5999 127.458 55.6991 127.458Z" fill="#FAEADE"/>
<path d="M183.713 85.8913C193.263 85.8913 201.004 78.15 201.004 68.6007C201.004 59.0513 193.263 51.3101 183.713 51.3101C174.164 51.3101 166.423 59.0513 166.423 68.6007C166.423 78.15 174.164 85.8913 183.713 85.8913Z" fill="#FAEADE"/>
<path d="M207.192 162.791C218.44 162.791 227.558 153.672 227.558 142.424C227.558 131.176 218.44 122.058 207.192 122.058C195.944 122.058 186.825 131.176 186.825 142.424C186.825 153.672 195.944 162.791 207.192 162.791Z" fill="#FAEADE"/>
<path d="M70.9667 155.71C82.2149 155.71 91.3333 146.592 91.3333 135.344C91.3333 124.095 82.2149 114.977 70.9667 114.977C59.7185 114.977 50.6001 124.095 50.6001 135.344C50.6001 146.592 59.7185 155.71 70.9667 155.71Z" fill="#FAEADE"/>
<path d="M141.898 117.101C164.558 117.101 182.927 98.7316 182.927 76.0719C182.927 53.4123 164.558 35.043 141.898 35.043C119.238 35.043 100.869 53.4123 100.869 76.0719C100.869 98.7316 119.238 117.101 141.898 117.101Z" fill="#FAEADE"/>
<path d="M214.302 69.3574C218.049 69.3574 221.087 66.3197 221.087 62.5725C221.087 58.8253 218.049 55.7876 214.302 55.7876C210.555 55.7876 207.517 58.8253 207.517 62.5725C207.517 66.3197 210.555 69.3574 214.302 69.3574Z" fill="#FAEADE"/>
<path d="M46.5718 166.015C50.319 166.015 53.3567 162.977 53.3567 159.23C53.3567 155.483 50.319 152.445 46.5718 152.445C42.8246 152.445 39.7869 155.483 39.7869 159.23C39.7869 162.977 42.8246 166.015 46.5718 166.015Z" fill="#FAEADE"/>
<path d="M204.068 54.1019C210.445 54.1019 215.615 48.9322 215.615 42.5551C215.615 36.178 210.445 31.0083 204.068 31.0083C197.691 31.0083 192.521 36.178 192.521 42.5551C192.521 48.9322 197.691 54.1019 204.068 54.1019Z" fill="#FAEADE"/>
<path d="M221.264 19.686H44.3595C34.2221 19.686 26.0042 27.904 26.0042 38.0414V228.309C26.0042 238.447 34.2221 246.664 44.3595 246.664H221.264C231.402 246.664 239.62 238.447 239.62 228.309V38.0414C239.62 27.904 231.402 19.686 221.264 19.686Z" fill="white"/>
<path d="M221.264 19.686H44.3595C34.2221 19.686 26.0042 27.904 26.0042 38.0414V228.309C26.0042 238.447 34.2221 246.664 44.3595 246.664H221.264C231.402 246.664 239.62 238.447 239.62 228.309V38.0414C239.62 27.904 231.402 19.686 221.264 19.686Z" stroke="#2E44D0" stroke-width="1.18307" stroke-miterlimit="10"/>
<path d="M161.176 82.2471C161.087 83.6904 160.466 85.1456 160.827 86.5416C161.354 88.5529 163.714 89.5348 165.79 89.4993C167.866 89.4638 169.848 88.6357 171.907 88.4109C173.965 88.1861 176.379 88.7303 177.361 90.5523C178.49 92.6522 177.254 95.4561 178.408 97.5442C179.2 98.9757 180.892 99.6442 182.501 99.9577C184.11 100.271 185.802 100.354 187.233 101.093C190.191 102.608 191.315 106.577 190.363 109.771C189.41 112.966 186.849 115.456 184.063 117.302C180.066 119.943 175.47 121.54 170.697 121.947C165.923 122.355 161.124 121.559 156.737 119.634C152.35 117.708 148.516 114.713 145.585 110.924C142.654 107.134 140.719 102.671 139.958 97.9405C139.118 92.6877 139.833 87.0326 142.785 82.602C144.012 80.7721 145.617 79.2261 147.491 78.0681C149.366 76.91 151.466 76.1667 153.652 75.8881C157.325 75.4326 161.425 78.2187 161.176 82.2471Z" fill="#111055"/>
<path d="M105.004 87.8487C103.537 88.1031 102.046 87.618 100.585 87.3577C99.1239 87.0975 97.4203 87.1389 96.3792 88.2036C94.6992 89.9073 95.7876 92.9359 94.717 95.0418C93.8474 96.7809 91.7593 97.5262 89.8427 97.7865C87.9261 98.0468 85.8972 97.9995 84.1403 98.8276C81.3068 100.164 79.8694 103.655 80.4195 106.731C80.9697 109.807 83.1998 112.415 85.9149 113.977C88.6301 115.539 91.777 116.166 94.9003 116.42C102.088 117.011 109.523 115.657 115.746 111.995C121.969 108.334 126.861 102.276 128.529 95.2547C130.168 88.3219 127.867 77.2188 119.916 74.8527C110.807 72.1493 112.025 86.6065 105.004 87.8487Z" fill="#111055"/>
<path d="M151.629 72.4458L151.954 72.15C152.442 71.5978 152.981 71.0928 153.563 70.6416C154.08 70.3435 154.53 69.9405 154.882 69.4585C155.752 68.2931 156.187 66.8598 156.11 65.4074C156.033 63.9551 155.45 62.5755 154.462 61.5083C154.059 61.0374 153.602 60.6146 153.102 60.2483C152.546 59.8815 151.8 59.9762 151.357 59.4024C150.765 58.6571 151.286 57.6278 151.51 56.6872C151.673 56.033 151.674 55.3492 151.514 54.6943C151.354 54.0395 151.038 53.4331 150.593 52.9272C150.147 52.4213 149.586 52.0309 148.957 51.7895C148.327 51.548 147.649 51.4627 146.979 51.5409C145.891 51.6651 144.879 52.2152 143.779 52.2803C142.549 52.2681 141.352 51.88 140.348 51.1682C139.352 50.461 138.304 49.8302 137.213 49.2812C135.325 48.5391 133.227 48.5391 131.339 49.2812C130.134 49.7672 129.071 50.5508 128.251 51.5586C128.05 51.8011 126.477 54.2915 126.506 54.2974C126.004 54.0991 125.48 53.964 124.944 53.8952C124.422 53.7254 123.873 53.6513 123.324 53.6763C122.788 53.7216 122.268 53.8832 121.802 54.1499C121.335 54.4165 120.932 54.7818 120.62 55.2202C120.153 55.9123 119.916 56.7701 119.289 57.3202C118.443 58.0596 117.16 57.9945 116.154 58.5033C114.486 59.361 114.001 61.739 114.445 63.4367C114.735 64.5724 115.373 65.5425 115.586 66.7256C115.876 68.3523 115.924 70.0678 114.829 71.381C116.178 71.6649 117.787 72.15 119.13 72.3452C124.431 73.2167 129.777 73.7914 135.143 74.0666C140.508 74.25 147.594 75.9891 151.629 72.4458Z" fill="#111055"/>
<path d="M150.185 80.3247L135.911 81.7326L121.632 80.3247C121.632 80.3247 122.85 87.9851 119.218 97.3314C119.218 97.3314 135.781 112.995 135.911 112.711C135.858 113.025 152.516 97.3314 152.516 97.3314C148.907 87.9851 150.185 80.3247 150.185 80.3247Z" fill="#E6A09F"/>
<path d="M150.422 74.3857C150.422 79.118 150.215 83.9035 148.482 87.3522C146.115 92.0845 141.46 94.705 135.888 94.705C130.316 94.705 125.719 92.0135 123.341 87.2812C121.608 83.8207 121.354 79.118 121.354 74.3857C121.354 72.9423 121.354 71.3984 121.407 69.8782C121.397 67.6216 121.726 65.3763 122.383 63.2175C124.566 57.243 129.481 54.0664 135.87 54.0664C142.259 54.0664 147.328 57.4086 149.475 63.531C150.088 65.6008 150.393 67.7493 150.38 69.9078C150.446 71.3925 150.422 72.9364 150.422 74.3857Z" fill="#E6A09F"/>
<path d="M159.762 75.6045C159.762 74.0858 159.159 72.6294 158.085 71.5555C157.011 70.4817 155.555 69.8784 154.036 69.8784C150.872 69.8784 146.542 72.4457 146.542 75.6045C146.542 78.7633 150.872 81.3365 154.036 81.3365C154.789 81.3365 155.534 81.1882 156.229 80.9C156.924 80.6119 157.556 80.1896 158.087 79.6573C158.619 79.1249 159.041 78.493 159.328 77.7976C159.616 77.1022 159.763 76.357 159.762 75.6045Z" fill="#E6A09F"/>
<path d="M112.019 75.6045C112.019 74.0858 112.623 72.6294 113.696 71.5555C114.77 70.4817 116.227 69.8784 117.745 69.8784C120.91 69.8784 125.24 72.4457 125.24 75.6045C125.24 78.7633 120.91 81.3365 117.745 81.3365C116.993 81.3365 116.248 81.1882 115.553 80.9C114.858 80.6119 114.226 80.1896 113.694 79.6573C113.163 79.1249 112.741 78.493 112.453 77.7976C112.166 77.1022 112.019 76.357 112.019 75.6045Z" fill="#E6A09F"/>
<path d="M154.036 74.3267C154.75 75.0235 155.317 75.8562 155.704 76.7756" stroke="#050902" stroke-width="0.591536" stroke-miterlimit="10" stroke-linecap="round"/>
<path d="M156.231 74.2256C155.246 74.9608 154.382 75.8449 153.669 76.8461" stroke="#050902" stroke-width="0.591536" stroke-miterlimit="10" stroke-linecap="round"/>
<path d="M117.745 74.3267C117.031 75.0235 116.464 75.8562 116.077 76.7756" stroke="#050902" stroke-width="0.591536" stroke-miterlimit="10" stroke-linecap="round"/>
<path d="M115.551 74.2256C116.535 74.9608 117.4 75.8449 118.112 76.8461" stroke="#050902" stroke-width="0.591536" stroke-miterlimit="10" stroke-linecap="round"/>
<path d="M129.842 74.4154C130.28 74.4154 130.635 74.0605 130.635 73.6227C130.635 73.185 130.28 72.8301 129.842 72.8301C129.404 72.8301 129.05 73.185 129.05 73.6227C129.05 74.0605 129.404 74.4154 129.842 74.4154Z" fill="#050902"/>
<path d="M143.134 73.6223C143.134 73.4644 143.087 73.31 143 73.1786C142.912 73.0473 142.787 72.945 142.641 72.8845C142.495 72.8241 142.335 72.8083 142.18 72.8391C142.025 72.8699 141.883 72.9459 141.771 73.0576C141.659 73.1693 141.583 73.3116 141.552 73.4665C141.522 73.6214 141.537 73.782 141.598 73.9279C141.658 74.0738 141.761 74.1985 141.892 74.2863C142.023 74.374 142.178 74.4209 142.336 74.4209C142.547 74.4209 142.751 74.3367 142.9 74.187C143.05 74.0372 143.134 73.8341 143.134 73.6223Z" fill="#050902"/>
<path d="M147.038 89.6416C145.635 91.2155 143.918 92.4789 141.998 93.3508C140.078 94.2228 137.997 94.6841 135.888 94.7052C133.857 94.7339 131.843 94.3263 129.982 93.5099C128.122 92.6935 126.458 91.4873 125.104 89.9729" stroke="#050902" stroke-width="0.591536" stroke-miterlimit="10" stroke-linecap="round"/>
<g style="mix-blend-mode:overlay" opacity="0.3">
<path d="M146.405 81.638C148.01 81.638 149.31 80.3376 149.31 78.7335C149.31 77.1295 148.01 75.8291 146.405 75.8291C144.801 75.8291 143.501 77.1295 143.501 78.7335C143.501 80.3376 144.801 81.638 146.405 81.638Z" fill="#222221"/>
</g>
<g style="mix-blend-mode:overlay" opacity="0.3">
<path d="M125.453 81.638C127.057 81.638 128.357 80.3376 128.357 78.7335C128.357 77.1295 127.057 75.8291 125.453 75.8291C123.849 75.8291 122.549 77.1295 122.549 78.7335C122.549 80.3376 123.849 81.638 125.453 81.638Z" fill="#222221"/>
</g>
<path d="M138.644 81.8684C137.791 82.4941 136.754 82.816 135.696 82.7827C134.639 82.7495 133.624 82.3631 132.812 81.6851" stroke="#050902" stroke-width="0.591536" stroke-miterlimit="10" stroke-linecap="round"/>
<path d="M140.254 67.8493C141.204 67.6998 142.177 67.7663 143.098 68.0438C144.02 68.3213 144.867 68.8027 145.577 69.4524C145.708 69.5614 145.789 69.7177 145.804 69.8869C145.819 70.056 145.766 70.2242 145.657 70.3545C145.548 70.4847 145.392 70.5662 145.223 70.5812C145.054 70.5962 144.885 70.5433 144.755 70.4343C144.172 69.992 143.498 69.6863 142.781 69.5399C142.064 69.3935 141.324 69.41 140.614 69.5884C140.499 69.6153 140.379 69.6187 140.262 69.5984C140.145 69.5781 140.033 69.5345 139.933 69.4701C139.833 69.4058 139.747 69.3221 139.68 69.2239C139.613 69.1258 139.567 69.0152 139.543 68.8987C139.52 68.7823 139.52 68.6623 139.544 68.5459C139.568 68.4296 139.615 68.3192 139.682 68.2213C139.75 68.1234 139.836 68.0401 139.936 67.9762C140.036 67.9123 140.148 67.8691 140.265 67.8493H140.254Z" fill="#050902"/>
<path d="M130.895 69.5587C130.189 69.3925 129.454 69.3865 128.744 69.5411C128.035 69.6956 127.369 70.0068 126.796 70.4519C126.733 70.5075 126.66 70.5501 126.58 70.5773C126.501 70.6045 126.417 70.6159 126.333 70.6107C126.249 70.6054 126.168 70.5838 126.092 70.5469C126.017 70.51 125.949 70.4587 125.894 70.3957C125.838 70.3328 125.796 70.2596 125.768 70.1802C125.741 70.1008 125.73 70.0168 125.735 69.9331C125.74 69.8493 125.762 69.7674 125.799 69.692C125.836 69.6166 125.887 69.5492 125.95 69.4936C126.651 68.8326 127.492 68.3382 128.411 68.0473C129.33 67.7565 130.302 67.6766 131.256 67.8137C131.373 67.8358 131.484 67.8807 131.583 67.9457C131.682 68.0108 131.767 68.0947 131.834 68.1928C131.901 68.2908 131.948 68.4011 131.972 68.5172C131.996 68.6333 131.997 68.753 131.975 68.8696C131.953 68.9861 131.908 69.0971 131.843 69.1963C131.778 69.2955 131.694 69.3809 131.596 69.4476C131.498 69.5144 131.387 69.5611 131.271 69.5853C131.155 69.6094 131.035 69.6104 130.919 69.5883L130.895 69.5587Z" fill="#050902"/>
<path d="M134.651 83.6318C135.422 83.9088 136.271 83.8749 137.018 83.5371" stroke="#050902" stroke-width="0.591536" stroke-miterlimit="10" stroke-linecap="round"/>
<path d="M136.633 72.1084C136.538 72.5311 136.537 72.9696 136.63 73.3927C136.723 73.8159 136.908 74.2135 137.171 74.5574C137.522 74.9103 137.824 75.3081 138.071 75.7404C138.19 76.0928 138.191 76.4747 138.072 76.8274C137.953 77.1801 137.722 77.4841 137.414 77.6925C137.101 77.8917 136.748 78.0199 136.38 78.0679C136.012 78.1159 135.638 78.0827 135.284 77.9705" stroke="#050902" stroke-width="0.591536" stroke-miterlimit="10" stroke-linecap="round"/>
<path d="M216.739 170.451C216.674 171.481 216.574 172.504 216.438 173.527C216.438 173.64 216.408 173.746 216.39 173.859C215.97 176.898 214.361 179.647 211.915 181.501C209.469 183.354 206.387 184.161 203.347 183.743C201.873 183.615 200.448 183.152 199.181 182.39C197.914 181.627 196.838 180.584 196.035 179.342C194.574 177.242 193.604 174.639 192.681 172.072C190.54 166.127 188.754 160.206 185.411 154.776C185.015 154.131 184.607 153.504 184.193 152.894C180.786 147.914 176.734 144.075 172.155 140.514C170.469 139.2 168.706 137.917 166.879 136.633L166.287 136.201C165.236 135.397 164.271 134.487 163.406 133.486C160.86 130.569 159.397 126.862 159.266 122.992C159.224 121.481 159.397 119.971 159.78 118.508C159.898 118.065 160.035 117.621 160.194 117.183C164.128 106.11 178.899 102.691 187.31 110.824L189.818 113.191C193.562 116.818 197.116 120.637 200.466 124.631C202.744 127.315 204.803 130.178 206.624 133.19C206.659 133.255 206.701 133.321 206.742 133.386C210.907 140.226 213.894 147.716 215.58 155.545C216.621 160.441 217.011 165.453 216.739 170.451Z" fill="#E6A09F"/>
<path d="M112.605 123.063C112.63 126.202 111.753 129.281 110.079 131.936C108.765 134.056 107.032 135.886 104.986 137.313C103.211 138.538 101.561 139.75 99.946 141.01C95.2669 144.619 91.138 148.499 87.6775 153.574C87.2575 154.166 86.8553 154.805 86.4589 155.45C83.1168 160.921 81.3244 166.837 79.2008 172.752C78.4615 175.031 77.4923 177.229 76.3082 179.312C74.6519 181.992 72.3331 184.045 68.5354 184.423C67.0279 184.632 65.4941 184.541 64.0216 184.156C62.5492 183.772 61.1669 183.101 59.954 182.182C58.741 181.263 57.721 180.113 56.9523 178.8C56.1837 177.486 55.6814 176.034 55.4743 174.527C55.4269 174.184 55.3855 173.835 55.3441 173.492C55.2258 172.504 55.143 171.516 55.0957 170.534C54.8974 165.738 55.3068 160.936 56.3142 156.242C58.0131 148.336 61.0414 140.775 65.2701 133.882L65.4239 133.628C67.2056 130.715 69.2131 127.946 71.428 125.346C74.7748 121.348 78.3289 117.527 82.0757 113.9L84.5779 111.534C92.9895 103.4 107.76 106.802 111.7 117.887C111.753 118.047 111.812 118.207 111.86 118.366C112.343 119.885 112.594 121.469 112.605 123.063Z" fill="#E6A09F"/>
<path d="M206.973 133.214L184.808 148.003L181.566 173.113L167.683 175.959C147.248 180.142 126.184 180.216 105.719 176.177L90.1798 173.113L86.9382 148.003L64.8384 133.256C70.4628 123.898 77.6844 115.599 86.1751 108.736C87.0032 108.08 87.8491 107.459 88.701 106.879C96.2667 101.727 104.921 99.3487 111.073 98.2543C113.765 97.7562 116.489 97.4479 119.224 97.3315C127.571 105.731 144.175 105.731 152.516 97.3315C152.516 97.3315 167.547 97.6273 180.584 105.317C182.325 106.338 183.991 107.481 185.571 108.736C190.405 112.631 194.784 117.058 198.626 121.934C203.82 128.452 206.973 133.214 206.973 133.214Z" fill="#2E44D0"/>
<path d="M115.977 98.2544C115.977 98.2544 134.652 119.496 156.367 98.2544" stroke="#050902" stroke-width="0.591536" stroke-miterlimit="10" stroke-linecap="round"/>
<path d="M216.438 174.42C215.898 177.697 214.347 180.723 212.001 183.074C209.882 185.272 207.182 186.821 204.216 187.541C200.461 188.532 196.539 188.722 192.705 188.097C184.554 186.825 176.887 182.128 172.889 174.882C172.628 174.432 172.398 173.971 172.179 173.503C170.085 169.039 167.995 164.573 165.909 160.105L163.288 154.503L163.211 154.349L155.704 138.301C153.599 135.219 153.108 132.22 153.717 129.635C154.261 127.43 155.558 125.484 157.384 124.134C157.969 123.675 158.599 123.279 159.266 122.951C161.602 121.815 164.245 121.468 166.796 121.963C169.359 122.486 171.716 123.737 173.587 125.565L177.727 131.658L187.529 146.133L198.325 162.104L201.466 166.736C203.447 168.718 207.659 169.38 211.12 170.285C213.853 170.983 216.118 171.817 216.443 173.539C216.493 173.831 216.491 174.129 216.438 174.42Z" fill="#E6A09F"/>
<path d="M163.282 154.516C163.051 154.013 160.194 148.801 155.74 148.334C151.286 147.867 138.704 156.095 137.367 154.516C135.001 151.735 137.331 148.405 140.496 145.79C143.661 143.176 151.398 140.123 151.635 134.498C151.871 128.872 148.493 126.287 141.679 128.985C134.864 131.682 135.557 124.542 138.603 123.134C141.649 121.727 145.891 119.414 151.167 120.975C151.167 120.975 150.463 115.971 154.332 115.616C158.201 115.261 159.259 119.165 159.259 119.165C159.259 119.165 161.135 116.208 163.944 117.982C166.754 119.757 166.79 122.034 166.79 122.034C166.79 122.034 170.629 119.857 173.208 123.14C175.787 126.423 177.733 131.73 177.733 131.73L163.282 154.516Z" fill="#E6A09F"/>
<path d="M166.789 122.016C166.789 122.016 159.993 132.575 165.11 135.781C167.393 137.213 169.617 134.835 171.38 131.759" stroke="#050902" stroke-width="0.591536" stroke-miterlimit="10" stroke-linecap="round"/>
<path d="M159.26 119.135C159.26 119.135 155.202 128.369 156.728 130.629C158.254 132.888 160.478 132.806 161.874 131.812" stroke="#050902" stroke-width="0.591536" stroke-miterlimit="10" stroke-linecap="round"/>
<path d="M151.167 120.975C151.167 120.975 151.167 129.7 154.433 129.848C154.942 129.873 155.453 129.821 155.947 129.694" stroke="#050902" stroke-width="0.591536" stroke-miterlimit="10" stroke-linecap="round"/>
<path d="M187.535 146.192L198.324 162.111" stroke="#050902" stroke-width="0.591536" stroke-miterlimit="10" stroke-linecap="round"/>
<path d="M116.077 138.313C113.569 143.661 111.067 149.01 108.571 154.362C108.54 154.41 108.514 154.462 108.494 154.515L105.873 160.117L99.603 173.515C99.39 173.959 99.1711 174.403 98.9227 174.835C95.0245 181.933 87.5889 186.618 79.6209 188.02C75.6166 188.748 71.5012 188.589 67.5653 187.553C64.5974 186.831 61.897 185.277 59.7807 183.075C57.4312 180.726 55.8775 177.699 55.3383 174.421C55.2788 174.122 55.2788 173.814 55.3383 173.515C55.6695 171.741 58.0061 170.936 60.8041 170.238C64.2291 169.375 68.358 168.694 70.3101 166.748L73.4511 162.117L84.2348 146.192L94.0425 131.718L98.1833 125.625C100.052 123.797 102.407 122.546 104.968 122.022C107.559 121.522 110.243 121.888 112.605 123.063C113.23 123.377 113.825 123.749 114.38 124.175C116.209 125.522 117.507 127.47 118.047 129.677C118.668 132.232 118.177 135.231 116.077 138.313Z" fill="#E6A09F"/>
<path d="M108.494 154.516C108.73 154.013 111.581 148.801 116.042 148.334C120.502 147.867 133.871 156.438 135.012 154.705C137.52 150.901 134.45 148.405 131.286 145.79C128.121 143.176 120.378 140.123 120.147 134.498C119.916 128.872 123.282 126.287 130.097 128.985C136.911 131.682 136.314 124.667 133.267 123.259C130.221 121.851 125.891 119.414 120.614 120.975C120.614 120.975 121.318 115.971 117.45 115.616C113.581 115.261 112.522 119.165 112.522 119.165C112.522 119.165 110.647 116.208 107.831 117.982C105.015 119.757 104.986 122.034 104.986 122.034C104.986 122.034 101.147 119.857 98.5677 123.14C95.9886 126.423 94.0483 131.73 94.0483 131.73L108.494 154.516Z" fill="#E6A09F"/>
<path d="M104.986 122.016C104.986 122.016 111.789 132.575 106.666 135.781C104.383 137.213 102.164 134.835 100.402 131.759" stroke="#050902" stroke-width="0.591536" stroke-miterlimit="10" stroke-linecap="round"/>
<path d="M112.522 119.135C112.522 119.135 116.574 128.369 115.048 130.629C113.522 132.888 111.298 132.806 109.902 131.812" stroke="#050902" stroke-width="0.591536" stroke-miterlimit="10" stroke-linecap="round"/>
<path d="M120.608 120.975C120.608 120.975 120.608 129.7 117.337 129.848C116.83 129.874 116.321 129.822 115.829 129.694" stroke="#050902" stroke-width="0.591536" stroke-miterlimit="10" stroke-linecap="round"/>
<path d="M84.2408 146.192L73.4512 162.111" stroke="#050902" stroke-width="0.591536" stroke-miterlimit="10" stroke-linecap="round"/>
<path d="M125.69 61.8212C126.21 61.3598 126.914 60.9102 127.565 61.1587C128.215 61.4071 128.405 62.0519 128.689 62.608C129.037 63.2904 129.523 63.8928 130.117 64.3765C130.711 64.8603 131.399 65.2149 132.138 65.4175C132.877 65.6201 133.65 65.6664 134.408 65.5534C135.165 65.4404 135.891 65.1706 136.538 64.7611C137.361 64.2465 138.136 63.4775 139.106 63.4834C140.839 63.4834 141.945 65.9383 143.666 65.6899C144.85 65.5183 145.749 64.0336 146.932 64.2997C147.677 64.4713 148.115 65.2994 148.18 66.0744C148.184 66.8392 148.228 67.6032 148.31 68.3636C148.482 69.1148 149.659 70.8717 150.422 70.8007C150.936 70.7534 150.8 69.3219 151.013 68.8427C151.178 68.3499 151.235 67.8273 151.179 67.3107C150.994 64.0514 149.698 60.9539 147.506 58.5342C145.315 56.1146 142.36 54.5189 139.135 54.0129C137.442 53.7763 135.724 53.7763 134.03 54.0129C129.842 54.5335 125.625 56.2253 122.957 59.4965C120.856 62.1649 119.795 65.5045 119.969 68.896C120.063 69.2961 120.238 69.6726 120.483 70.0023C120.728 70.332 121.039 70.6078 121.395 70.8126C121.651 70.5413 121.888 70.2528 122.105 69.9489C122.37 69.4833 122.542 68.9712 122.614 68.4405C122.868 67.1859 123.235 65.9565 123.708 64.7671C123.899 64.1615 124.159 63.58 124.483 63.0339C124.842 62.5893 125.247 62.1829 125.69 61.8212Z" fill="#111055"/>
<g style="mix-blend-mode:overlay" opacity="0.3">
<path d="M216.438 173.527C216.491 173.822 216.491 174.125 216.438 174.42C215.898 177.697 214.347 180.723 212.001 183.075C209.882 185.272 207.182 186.821 204.216 187.541C200.461 188.532 196.539 188.722 192.705 188.097C193.333 183.493 195.488 179.233 198.827 176.001C202.165 172.769 206.492 170.752 211.114 170.274L211.445 170.244C213.209 170.087 214.987 170.156 216.733 170.451C216.674 171.48 216.574 172.504 216.438 173.527Z" fill="#222221"/>
</g>
<g style="mix-blend-mode:overlay" opacity="0.3">
<path d="M79.6209 188.02C75.6166 188.749 71.5012 188.589 67.5654 187.553C64.5974 186.831 61.897 185.277 59.7807 183.075C57.4312 180.726 55.8775 177.699 55.3383 174.421C55.2788 174.122 55.2788 173.814 55.3383 173.516C55.22 172.528 55.1372 171.54 55.0898 170.558C56.9713 170.192 58.8946 170.091 60.8041 170.256H60.8869C65.5606 170.659 69.959 172.637 73.3615 175.867C76.7639 179.096 78.9688 183.386 79.6149 188.032L79.6209 188.02Z" fill="#222221"/>
</g>
<path d="M162.057 105.157L163.95 108.535" stroke="white" stroke-width="0.591536" stroke-miterlimit="10" stroke-linecap="round"/>
<path d="M73.4512 128.547L75.35 131.925" stroke="white" stroke-width="0.591536" stroke-miterlimit="10" stroke-linecap="round"/>
<path d="M186.742 131.824L183.193 130.239" stroke="white" stroke-width="0.591536" stroke-miterlimit="10" stroke-linecap="round"/>
<path d="M111.67 172.161L108.121 170.575" stroke="white" stroke-width="0.591536" stroke-miterlimit="10" stroke-linecap="round"/>
<path d="M128.139 141.206L124.589 139.615" stroke="white" stroke-width="0.591536" stroke-miterlimit="10" stroke-linecap="round"/>
<path d="M145.891 114.995L144.37 118.544" stroke="white" stroke-width="0.591536" stroke-miterlimit="10" stroke-linecap="round"/>
<path d="M115.752 157.964L114.232 161.513" stroke="white" stroke-width="0.591536" stroke-miterlimit="10" stroke-linecap="round"/>
<path d="M145.01 159.028L142.146 161.637" stroke="white" stroke-width="0.591536" stroke-miterlimit="10" stroke-linecap="round"/>
<path d="M130.173 115.267L126.553 116.645" stroke="white" stroke-width="0.591536" stroke-miterlimit="10" stroke-linecap="round"/>
<path d="M85.6309 137.852L82.0107 139.224" stroke="white" stroke-width="0.591536" stroke-miterlimit="10" stroke-linecap="round"/>
<path d="M109.009 104.134L112.321 106.145" stroke="white" stroke-width="0.591536" stroke-miterlimit="10" stroke-linecap="round"/>
<path d="M87.376 123.282L91.2387 123.051" stroke="white" stroke-width="0.591536" stroke-miterlimit="10" stroke-linecap="round"/>
<path d="M198.543 135.024L198.75 131.156" stroke="white" stroke-width="0.591536" stroke-miterlimit="10" stroke-linecap="round"/>
<path d="M127.163 164.915L127.021 168.783" stroke="white" stroke-width="0.591536" stroke-miterlimit="10" stroke-linecap="round"/>
<path d="M178.105 116.97L181.229 114.681" stroke="white" stroke-width="0.591536" stroke-miterlimit="10" stroke-linecap="round"/>
<path d="M142.821 140.413L141.856 136.668" stroke="white" stroke-width="0.591536" stroke-miterlimit="10" stroke-linecap="round"/>
<path d="M142.336 175.887L141.371 172.161" stroke="white" stroke-width="0.591536" stroke-miterlimit="10" stroke-linecap="round"/>
<path d="M99.3131 114.575L98.3489 110.824" stroke="white" stroke-width="0.591536" stroke-miterlimit="10" stroke-linecap="round"/>
<path d="M156.976 165.944L158.112 162.241" stroke="white" stroke-width="0.591536" stroke-miterlimit="10" stroke-linecap="round"/>
<path d="M75.6872 68.0801C75.574 67.9663 75.4394 67.8761 75.2912 67.8145C75.143 67.7529 74.9841 67.7212 74.8236 67.7212C74.6631 67.7212 74.5041 67.7529 74.3559 67.8145C74.2077 67.8761 74.0731 67.9663 73.9599 68.0801L73.4571 68.5829L72.9543 68.0801C72.8411 67.9663 72.7065 67.8761 72.5583 67.8145C72.4101 67.7529 72.2512 67.7212 72.0907 67.7212C71.9302 67.7212 71.7712 67.7529 71.623 67.8145C71.4748 67.8761 71.3402 67.9663 71.227 68.0801C71.0103 68.3818 70.8938 68.7439 70.8938 69.1153C70.8938 69.4867 71.0103 69.8488 71.227 70.1505C71.883 70.8715 72.6285 71.5056 73.4453 72.0375C74.2621 71.5056 75.0076 70.8715 75.6635 70.1505C75.8837 69.8513 76.0044 69.4905 76.0086 69.1191C76.0129 68.7477 75.9004 68.3843 75.6872 68.0801Z" fill="#C53350"/>
<path d="M214.509 111.593C214.398 111.476 214.265 111.382 214.117 111.318C213.969 111.255 213.809 111.222 213.648 111.222C213.487 111.222 213.327 111.255 213.179 111.318C213.031 111.382 212.898 111.476 212.787 111.593L212.279 112.096L211.77 111.593C211.659 111.476 211.526 111.382 211.378 111.318C211.23 111.255 211.07 111.222 210.909 111.222C210.748 111.222 210.589 111.255 210.441 111.318C210.293 111.382 210.159 111.476 210.049 111.593C209.832 111.895 209.715 112.257 209.715 112.628C209.715 113 209.832 113.362 210.049 113.663C210.704 114.383 211.45 115.016 212.267 115.545C213.084 115.016 213.83 114.383 214.485 113.663C214.705 113.364 214.826 113.003 214.83 112.632C214.834 112.261 214.722 111.897 214.509 111.593Z" fill="#C53350"/>
<path d="M126.175 30.7837C125.945 30.5569 125.635 30.4297 125.311 30.4297C124.988 30.4297 124.678 30.5569 124.448 30.7837L123.939 31.2925L123.436 30.7837C123.206 30.5569 122.896 30.4297 122.573 30.4297C122.249 30.4297 121.939 30.5569 121.709 30.7837C121.491 31.086 121.374 31.4492 121.374 31.8219C121.374 32.1945 121.491 32.5578 121.709 32.86C122.364 33.5799 123.11 34.2121 123.927 34.7411C124.744 34.2121 125.49 33.5799 126.145 32.86C126.368 32.5609 126.49 32.1993 126.496 31.8267C126.501 31.454 126.389 31.0891 126.175 30.7837Z" stroke="#050902" stroke-width="0.591536" stroke-miterlimit="10" stroke-linecap="round"/>
<path d="M186.286 74.0544L184.973 73.4273L183.66 74.0544L183.855 72.611L182.85 71.5581L184.281 71.2978L184.973 70.0142L185.665 71.2978L187.097 71.5581L186.097 72.611L186.286 74.0544Z" fill="#E39F26"/>
<path d="M42.514 141.247L41.2008 140.62L39.8935 141.247L40.0828 139.804L39.0771 138.751L40.5087 138.491L41.2008 137.207L41.8988 138.491L43.3244 138.751L42.3247 139.804L42.514 141.247Z" fill="#E39F26"/>
<path d="M59.0177 106.346C59.3934 106.346 59.6979 106.042 59.6979 105.666C59.6979 105.29 59.3934 104.986 59.0177 104.986C58.642 104.986 58.3374 105.29 58.3374 105.666C58.3374 106.042 58.642 106.346 59.0177 106.346Z" fill="#E39F26"/>
<path d="M231.202 125.684C231.578 125.684 231.882 125.379 231.882 125.004C231.882 124.628 231.578 124.323 231.202 124.323C230.827 124.323 230.522 124.628 230.522 125.004C230.522 125.379 230.827 125.684 231.202 125.684Z" fill="#E39F26"/>
<g style="mix-blend-mode:overlay" opacity="0.8">
<path d="M51.2981 115.06C51.8371 115.06 52.2741 114.623 52.2741 114.084C52.2741 113.545 51.8371 113.108 51.2981 113.108C50.759 113.108 50.322 113.545 50.322 114.084C50.322 114.623 50.759 115.06 51.2981 115.06Z" fill="#222221"/>
</g>
<g style="mix-blend-mode:overlay" opacity="0.8">
<path d="M181.685 83.436C182.224 83.436 182.661 82.999 182.661 82.4599C182.661 81.9209 182.224 81.4839 181.685 81.4839C181.145 81.4839 180.708 81.9209 180.708 82.4599C180.708 82.999 181.145 83.436 181.685 83.436Z" fill="#222221"/>
</g>
<g style="mix-blend-mode:overlay" opacity="0.8">
<path d="M87.3701 73.8061C87.9091 73.8061 88.3461 73.3691 88.3461 72.83C88.3461 72.291 87.9091 71.854 87.3701 71.854C86.831 71.854 86.394 72.291 86.394 72.83C86.394 73.3691 86.831 73.8061 87.3701 73.8061Z" fill="#222221"/>
</g>
<path d="M98.1598 63.6667C98.5355 63.6667 98.84 63.3621 98.84 62.9864C98.84 62.6107 98.5355 62.3062 98.1598 62.3062C97.7841 62.3062 97.4795 62.6107 97.4795 62.9864C97.4795 63.3621 97.7841 63.6667 98.1598 63.6667Z" stroke="#050902" stroke-width="0.591536" stroke-miterlimit="10" stroke-linecap="round"/>
<path d="M211.592 84.5012C211.968 84.5012 212.273 84.1966 212.273 83.8209C212.273 83.4452 211.968 83.1406 211.592 83.1406C211.217 83.1406 210.912 83.4452 210.912 83.8209C210.912 84.1966 211.217 84.5012 211.592 84.5012Z" stroke="#050902" stroke-width="0.591536" stroke-miterlimit="10" stroke-linecap="round"/>
<path d="M77.6295 201.517H73.2055C73.0282 201.517 72.8975 201.479 72.8135 201.405C72.7389 201.321 72.7015 201.19 72.7015 201.013V199.375C72.7015 199.197 72.7389 199.071 72.8135 198.997C72.8975 198.913 73.0282 198.871 73.2055 198.871H76.9715C77.0929 198.871 77.1815 198.833 77.2375 198.759C77.3029 198.675 77.3355 198.577 77.3355 198.465C77.3355 198.306 77.3029 198.189 77.2375 198.115C77.1815 198.04 77.0929 197.998 76.9715 197.989L74.8715 197.695C74.2182 197.601 73.6909 197.387 73.2895 197.051C72.8975 196.715 72.7015 196.155 72.7015 195.371V193.901C72.7015 193.107 72.9582 192.501 73.4715 192.081C73.9849 191.651 74.6942 191.437 75.5995 191.437H79.5195C79.6969 191.437 79.8229 191.479 79.8975 191.563C79.9815 191.637 80.0235 191.763 80.0235 191.941V193.607C80.0235 193.784 79.9815 193.915 79.8975 193.999C79.8229 194.073 79.6969 194.111 79.5195 194.111H76.2575C76.1362 194.111 76.0429 194.153 75.9775 194.237C75.9122 194.311 75.8795 194.409 75.8795 194.531C75.8795 194.652 75.9122 194.755 75.9775 194.839C76.0429 194.923 76.1362 194.969 76.2575 194.979L78.3435 195.259C78.9969 195.352 79.5242 195.567 79.9255 195.903C80.3269 196.239 80.5275 196.799 80.5275 197.583V199.053C80.5275 199.846 80.2662 200.457 79.7435 200.887C79.2302 201.307 78.5255 201.517 77.6295 201.517ZM78.7635 192.697H75.6555C75.2262 192.697 74.8809 192.818 74.6195 193.061C74.3582 193.294 74.2275 193.597 74.2275 193.971V195.119C74.2275 195.501 74.3022 195.767 74.4515 195.917C74.6102 196.057 74.8109 196.15 75.0535 196.197L78.0075 196.799C78.2689 196.855 78.4742 196.967 78.6235 197.135C78.7822 197.293 78.8615 197.592 78.8615 198.031V198.843C78.8615 199.216 78.7309 199.524 78.4695 199.767C78.2175 200 77.8769 200.117 77.4475 200.117H73.9615V200.257H77.4475C77.9235 200.257 78.3015 200.126 78.5815 199.865C78.8615 199.594 79.0015 199.253 79.0015 198.843V198.031C79.0015 197.545 78.9082 197.209 78.7215 197.023C78.5442 196.836 78.3155 196.715 78.0355 196.659L75.0815 196.057C74.8669 196.019 74.6942 195.935 74.5635 195.805C74.4329 195.674 74.3675 195.445 74.3675 195.119V193.971C74.3675 193.644 74.4842 193.373 74.7175 193.159C74.9509 192.944 75.2635 192.837 75.6555 192.837H78.7635V192.697ZM89.059 201.517H82.563C82.3857 201.517 82.255 201.479 82.171 201.405C82.0964 201.321 82.059 201.19 82.059 201.013V191.941C82.059 191.763 82.0964 191.637 82.171 191.563C82.255 191.479 82.3857 191.437 82.563 191.437H89.059C89.2364 191.437 89.3624 191.479 89.437 191.563C89.521 191.637 89.563 191.763 89.563 191.941V193.579C89.563 193.756 89.521 193.887 89.437 193.971C89.3624 194.045 89.2364 194.083 89.059 194.083H85.195V195.161H87.925C88.1024 195.161 88.2284 195.203 88.303 195.287C88.387 195.361 88.429 195.487 88.429 195.665V197.163C88.429 197.34 88.387 197.471 88.303 197.555C88.2284 197.629 88.1024 197.667 87.925 197.667H85.195V198.871H89.059C89.2364 198.871 89.3624 198.913 89.437 198.997C89.521 199.071 89.563 199.197 89.563 199.375V201.013C89.563 201.19 89.521 201.321 89.437 201.405C89.3624 201.479 89.2364 201.517 89.059 201.517ZM88.303 200.117H83.725V196.491H87.169V196.351H83.725V192.837H88.303V192.697H83.585V200.257H88.303V200.117ZM96.1472 196.127C95.9792 196.127 95.8578 196.089 95.7832 196.015C95.7085 195.94 95.5918 195.781 95.4332 195.539L93.7252 192.935C93.6692 192.841 93.6038 192.781 93.5292 192.753C93.4545 192.715 93.3798 192.697 93.3052 192.697H93.0672C92.9458 192.697 92.8525 192.734 92.7872 192.809C92.7312 192.874 92.7032 192.981 92.7032 193.131V200.257H92.8432V193.131C92.8432 193.056 92.8572 192.991 92.8852 192.935C92.9132 192.869 92.9738 192.837 93.0672 192.837H93.2772C93.3425 192.837 93.3985 192.846 93.4452 192.865C93.5012 192.883 93.5572 192.939 93.6132 193.033L95.3212 195.609C95.4892 195.861 95.6152 196.033 95.6992 196.127C95.7925 196.22 95.9418 196.267 96.1472 196.267C96.3525 196.267 96.4972 196.22 96.5812 196.127C96.6745 196.033 96.8052 195.861 96.9732 195.609L98.6812 193.033C98.7372 192.939 98.7885 192.883 98.8352 192.865C98.8818 192.846 98.9378 192.837 99.0032 192.837H99.2132C99.3065 192.837 99.3672 192.869 99.3952 192.935C99.4325 192.991 99.4512 193.056 99.4512 193.131V200.257H99.5912V193.131C99.5912 192.981 99.5585 192.874 99.4932 192.809C99.4372 192.734 99.3438 192.697 99.2132 192.697H98.9752C98.9005 192.697 98.8258 192.715 98.7512 192.753C98.6858 192.781 98.6252 192.841 98.5692 192.935L96.8612 195.539C96.7025 195.781 96.5858 195.94 96.5112 196.015C96.4365 196.089 96.3152 196.127 96.1472 196.127ZM93.8092 201.517H91.7232C91.5458 201.517 91.4152 201.479 91.3312 201.405C91.2565 201.321 91.2192 201.19 91.2192 201.013V191.941C91.2192 191.763 91.2565 191.637 91.3312 191.563C91.4152 191.479 91.5458 191.437 91.7232 191.437H93.9772C94.1265 191.437 94.2478 191.469 94.3412 191.535C94.4438 191.6 94.5372 191.707 94.6212 191.857L95.8812 194.139C95.9278 194.223 95.9652 194.283 95.9932 194.321C96.0305 194.358 96.0772 194.377 96.1332 194.377H96.2592C96.3152 194.377 96.3572 194.358 96.3852 194.321C96.4225 194.283 96.4645 194.223 96.5112 194.139L97.7572 191.857C97.8412 191.707 97.9298 191.6 98.0232 191.535C98.1258 191.469 98.2518 191.437 98.4012 191.437H100.669C100.847 191.437 100.973 191.479 101.047 191.563C101.131 191.637 101.173 191.763 101.173 191.941V201.013C101.173 201.19 101.131 201.321 101.047 201.405C100.973 201.479 100.847 201.517 100.669 201.517H98.5132C98.3358 201.517 98.2052 201.479 98.1212 201.405C98.0465 201.321 98.0092 201.19 98.0092 201.013V196.085L97.1832 197.611C97.0992 197.769 96.9965 197.886 96.8752 197.961C96.7632 198.026 96.6185 198.059 96.4412 198.059H95.8812C95.7038 198.059 95.5545 198.026 95.4332 197.961C95.3212 197.886 95.2232 197.769 95.1392 197.611L94.3132 196.085V201.013C94.3132 201.19 94.2712 201.321 94.1872 201.405C94.1125 201.479 93.9865 201.517 93.8092 201.517ZM111.64 198.871C111.64 199.3 111.575 199.692 111.444 200.047C111.323 200.392 111.099 200.691 110.772 200.943C110.455 201.185 110.011 201.377 109.442 201.517C108.882 201.657 108.168 201.727 107.3 201.727C106.432 201.727 105.713 201.657 105.144 201.517C104.575 201.377 104.127 201.185 103.8 200.943C103.483 200.691 103.259 200.392 103.128 200.047C103.007 199.692 102.946 199.3 102.946 198.871V194.097C102.946 193.667 103.007 193.28 103.128 192.935C103.259 192.58 103.483 192.277 103.8 192.025C104.127 191.773 104.575 191.577 105.144 191.437C105.713 191.297 106.432 191.227 107.3 191.227C108.168 191.227 108.882 191.297 109.442 191.437C110.011 191.577 110.455 191.773 110.772 192.025C111.099 192.277 111.323 192.58 111.444 192.935C111.575 193.28 111.64 193.667 111.64 194.097V198.871ZM110.114 198.549V194.419C110.114 193.859 109.913 193.406 109.512 193.061C109.111 192.706 108.364 192.529 107.272 192.529C106.18 192.529 105.438 192.706 105.046 193.061C104.654 193.406 104.458 193.859 104.458 194.419V198.549C104.458 199.109 104.654 199.566 105.046 199.921C105.438 200.266 106.18 200.439 107.272 200.439C108.364 200.439 109.111 200.266 109.512 199.921C109.913 199.566 110.114 199.109 110.114 198.549ZM104.598 198.549V194.419C104.598 193.896 104.785 193.476 105.158 193.159C105.531 192.832 106.236 192.669 107.272 192.669C108.308 192.669 109.017 192.832 109.4 193.159C109.783 193.476 109.974 193.896 109.974 194.419V198.549C109.974 199.071 109.783 199.496 109.4 199.823C109.017 200.14 108.308 200.299 107.272 200.299C106.236 200.299 105.531 200.14 105.158 199.823C104.785 199.496 104.598 199.071 104.598 198.549ZM106.124 198.367C106.124 198.553 106.194 198.712 106.334 198.843C106.474 198.964 106.796 199.025 107.3 199.025C107.804 199.025 108.126 198.964 108.266 198.843C108.406 198.712 108.476 198.553 108.476 198.367V194.601C108.476 194.423 108.406 194.274 108.266 194.153C108.126 194.022 107.804 193.957 107.3 193.957C106.796 193.957 106.474 194.022 106.334 194.153C106.194 194.274 106.124 194.423 106.124 194.601V198.367ZM121.122 201.517H116.712C115.546 201.517 114.678 201.283 114.108 200.817C113.548 200.35 113.268 199.631 113.268 198.661V194.293C113.268 193.322 113.548 192.603 114.108 192.137C114.678 191.67 115.546 191.437 116.712 191.437H120.212C120.39 191.437 120.516 191.479 120.59 191.563C120.674 191.637 120.716 191.763 120.716 191.941V193.635C120.716 193.812 120.674 193.943 120.59 194.027C120.516 194.101 120.39 194.139 120.212 194.139H117.3C117.011 194.139 116.796 194.199 116.656 194.321C116.516 194.433 116.446 194.605 116.446 194.839V198.185C116.446 198.418 116.498 198.591 116.6 198.703C116.712 198.815 116.876 198.871 117.09 198.871H118.448V196.687C118.448 196.509 118.486 196.383 118.56 196.309C118.644 196.225 118.775 196.183 118.952 196.183H121.122C121.3 196.183 121.426 196.225 121.5 196.309C121.584 196.383 121.626 196.509 121.626 196.687V201.013C121.626 201.19 121.584 201.321 121.5 201.405C121.426 201.479 121.3 201.517 121.122 201.517ZM117.314 200.257H120.1V197.443H119.96V200.117H117.314C116.372 200.117 115.737 199.991 115.41 199.739C115.093 199.487 114.934 199.057 114.934 198.451V194.531C114.934 193.915 115.079 193.481 115.368 193.229C115.658 192.967 116.213 192.837 117.034 192.837H119.456V192.697H117.034C116.138 192.697 115.541 192.837 115.242 193.117C114.944 193.397 114.794 193.868 114.794 194.531V198.451C114.794 198.777 114.827 199.057 114.892 199.291C114.967 199.515 115.098 199.701 115.284 199.851C115.471 199.991 115.728 200.093 116.054 200.159C116.381 200.224 116.801 200.257 117.314 200.257ZM124.748 197.275C124.748 197.023 124.767 196.789 124.804 196.575C124.851 196.36 124.907 196.159 124.972 195.973L125.868 193.677C125.962 193.443 126.064 193.247 126.176 193.089C126.288 192.921 126.484 192.837 126.764 192.837H128.136C128.398 192.837 128.584 192.921 128.696 193.089C128.808 193.247 128.916 193.448 129.018 193.691L129.984 195.973C130.05 196.159 130.101 196.36 130.138 196.575C130.185 196.789 130.208 197.023 130.208 197.275V197.709H124.748V197.275ZM126.988 194.377L126.33 196.505H128.528L127.87 194.377C127.833 194.293 127.791 194.232 127.744 194.195C127.707 194.157 127.66 194.139 127.604 194.139H127.254C127.198 194.139 127.147 194.157 127.1 194.195C127.063 194.232 127.026 194.293 126.988 194.377ZM130.208 200.257H130.348V197.275C130.348 197.013 130.325 196.775 130.278 196.561C130.241 196.337 130.185 196.122 130.11 195.917L129.144 193.635C129.032 193.364 128.911 193.14 128.78 192.963C128.659 192.785 128.444 192.697 128.136 192.697H126.764C126.447 192.697 126.223 192.785 126.092 192.963C125.962 193.14 125.845 193.359 125.742 193.621L124.846 195.917C124.772 196.122 124.711 196.337 124.664 196.561C124.627 196.775 124.608 197.013 124.608 197.275V200.257H124.748V197.849H130.208V200.257ZM126.19 201.013C126.19 201.19 126.148 201.321 126.064 201.405C125.99 201.479 125.864 201.517 125.686 201.517H123.628C123.451 201.517 123.32 201.479 123.236 201.405C123.162 201.321 123.124 201.19 123.124 201.013V197.317C123.124 197.037 123.166 196.715 123.25 196.351C123.344 195.987 123.484 195.562 123.67 195.077L124.888 191.899C124.944 191.74 125.028 191.623 125.14 191.549C125.262 191.474 125.416 191.437 125.602 191.437H129.368C129.546 191.437 129.69 191.474 129.802 191.549C129.924 191.623 130.012 191.74 130.068 191.899L131.286 195.077C131.473 195.562 131.608 195.987 131.692 196.351C131.786 196.715 131.832 197.037 131.832 197.317V201.013C131.832 201.19 131.79 201.321 131.706 201.405C131.632 201.479 131.506 201.517 131.328 201.517H129.214C129.028 201.517 128.888 201.479 128.794 201.405C128.71 201.321 128.668 201.19 128.668 201.013V199.053H126.19V201.013ZM138.149 200.257H138.289V196.547H143.665V200.257H143.805V192.697H143.665V196.407H138.289V192.697H138.149V200.257ZM139.311 201.517H137.141C136.964 201.517 136.833 201.479 136.749 201.405C136.674 201.321 136.637 201.19 136.637 201.013V191.941C136.637 191.763 136.674 191.637 136.749 191.563C136.833 191.479 136.964 191.437 137.141 191.437H139.311C139.488 191.437 139.614 191.479 139.689 191.563C139.773 191.637 139.815 191.763 139.815 191.941V194.979H142.153V191.941C142.153 191.763 142.19 191.637 142.265 191.563C142.349 191.479 142.48 191.437 142.657 191.437H144.827C145.004 191.437 145.13 191.479 145.205 191.563C145.289 191.637 145.331 191.763 145.331 191.941V201.013C145.331 201.19 145.289 201.321 145.205 201.405C145.13 201.479 145.004 201.517 144.827 201.517H142.657C142.48 201.517 142.349 201.479 142.265 201.405C142.19 201.321 142.153 201.19 142.153 201.013V197.905H139.815V201.013C139.815 201.19 139.773 201.321 139.689 201.405C139.614 201.479 139.488 201.517 139.311 201.517ZM148.674 197.275C148.674 197.023 148.693 196.789 148.73 196.575C148.777 196.36 148.833 196.159 148.898 195.973L149.794 193.677C149.888 193.443 149.99 193.247 150.102 193.089C150.214 192.921 150.41 192.837 150.69 192.837H152.062C152.324 192.837 152.51 192.921 152.622 193.089C152.734 193.247 152.842 193.448 152.944 193.691L153.91 195.973C153.976 196.159 154.027 196.36 154.064 196.575C154.111 196.789 154.134 197.023 154.134 197.275V197.709H148.674V197.275ZM150.914 194.377L150.256 196.505H152.454L151.796 194.377C151.759 194.293 151.717 194.232 151.67 194.195C151.633 194.157 151.586 194.139 151.53 194.139H151.18C151.124 194.139 151.073 194.157 151.026 194.195C150.989 194.232 150.952 194.293 150.914 194.377ZM154.134 200.257H154.274V197.275C154.274 197.013 154.251 196.775 154.204 196.561C154.167 196.337 154.111 196.122 154.036 195.917L153.07 193.635C152.958 193.364 152.837 193.14 152.706 192.963C152.585 192.785 152.37 192.697 152.062 192.697H150.69C150.373 192.697 150.149 192.785 150.018 192.963C149.888 193.14 149.771 193.359 149.668 193.621L148.772 195.917C148.698 196.122 148.637 196.337 148.59 196.561C148.553 196.775 148.534 197.013 148.534 197.275V200.257H148.674V197.849H154.134V200.257ZM150.116 201.013C150.116 201.19 150.074 201.321 149.99 201.405C149.916 201.479 149.79 201.517 149.612 201.517H147.554C147.377 201.517 147.246 201.479 147.162 201.405C147.088 201.321 147.05 201.19 147.05 201.013V197.317C147.05 197.037 147.092 196.715 147.176 196.351C147.27 195.987 147.41 195.562 147.596 195.077L148.814 191.899C148.87 191.74 148.954 191.623 149.066 191.549C149.188 191.474 149.342 191.437 149.528 191.437H153.294C153.472 191.437 153.616 191.474 153.728 191.549C153.85 191.623 153.938 191.74 153.994 191.899L155.212 195.077C155.399 195.562 155.534 195.987 155.618 196.351C155.712 196.715 155.758 197.037 155.758 197.317V201.013C155.758 201.19 155.716 201.321 155.632 201.405C155.558 201.479 155.432 201.517 155.254 201.517H153.14C152.954 201.517 152.814 201.479 152.72 201.405C152.636 201.321 152.594 201.19 152.594 201.013V199.053H150.116V201.013ZM162.191 192.837C162.685 192.837 163.049 192.972 163.283 193.243C163.525 193.513 163.647 193.863 163.647 194.293V195.273C163.647 195.786 163.549 196.183 163.353 196.463C163.157 196.743 162.769 196.883 162.191 196.883H159.139V192.837H162.191ZM160.651 193.957V195.749H161.701C161.943 195.749 162.107 195.688 162.191 195.567C162.275 195.436 162.317 195.277 162.317 195.091V194.615C162.317 194.428 162.275 194.274 162.191 194.153C162.107 194.022 161.943 193.957 161.701 193.957H160.651ZM159.139 200.257V197.009H163.101C163.633 197.009 164.025 197.125 164.277 197.359C164.529 197.583 164.655 197.923 164.655 198.381V200.257H164.795V198.381C164.795 197.895 164.655 197.527 164.375 197.275C164.095 197.013 163.67 196.883 163.101 196.883H162.947C163.283 196.78 163.507 196.593 163.619 196.323C163.731 196.043 163.787 195.688 163.787 195.259V194.293C163.787 193.835 163.656 193.457 163.395 193.159C163.133 192.851 162.732 192.697 162.191 192.697H158.999V200.257H159.139ZM160.147 201.517H157.991C157.813 201.517 157.683 201.479 157.599 201.405C157.524 201.321 157.487 201.19 157.487 201.013V191.941C157.487 191.763 157.524 191.637 157.599 191.563C157.683 191.479 157.813 191.437 157.991 191.437H162.653C163.698 191.437 164.417 191.656 164.809 192.095C165.21 192.524 165.411 193.084 165.411 193.775V194.419C165.411 194.811 165.35 195.147 165.229 195.427C165.117 195.697 164.916 195.893 164.627 196.015C165.131 196.071 165.537 196.276 165.845 196.631C166.162 196.985 166.321 197.457 166.321 198.045V201.013C166.321 201.19 166.279 201.321 166.195 201.405C166.12 201.479 165.994 201.517 165.817 201.517H163.647C163.469 201.517 163.339 201.479 163.255 201.405C163.18 201.321 163.143 201.19 163.143 201.013V198.871C163.143 198.665 163.101 198.516 163.017 198.423C162.942 198.32 162.807 198.269 162.611 198.269H160.651V201.013C160.651 201.19 160.609 201.321 160.525 201.405C160.45 201.479 160.324 201.517 160.147 201.517ZM168.171 201.517C167.994 201.517 167.863 201.479 167.779 201.405C167.704 201.321 167.667 201.19 167.667 201.013V199.347C167.667 199.169 167.704 199.043 167.779 198.969C167.863 198.885 167.994 198.843 168.171 198.843H169.557V194.139H168.171C167.994 194.139 167.863 194.101 167.779 194.027C167.704 193.943 167.667 193.812 167.667 193.635V191.941C167.667 191.763 167.704 191.637 167.779 191.563C167.863 191.479 167.994 191.437 168.171 191.437H174.135C174.312 191.437 174.438 191.479 174.513 191.563C174.597 191.637 174.639 191.763 174.639 191.941V193.635C174.639 193.812 174.597 193.943 174.513 194.027C174.438 194.101 174.312 194.139 174.135 194.139H172.777V198.843H174.135C174.312 198.843 174.438 198.885 174.513 198.969C174.597 199.043 174.639 199.169 174.639 199.347V201.013C174.639 201.19 174.597 201.321 174.513 201.405C174.438 201.479 174.312 201.517 174.135 201.517H168.171ZM173.379 200.257V200.117H171.237V192.837H173.379V192.697H168.927V192.837H171.097V200.117H168.927V200.257H173.379ZM181.296 196.127C181.128 196.127 181.006 196.089 180.932 196.015C180.857 195.94 180.74 195.781 180.582 195.539L178.874 192.935C178.818 192.841 178.752 192.781 178.678 192.753C178.603 192.715 178.528 192.697 178.454 192.697H178.216C178.094 192.697 178.001 192.734 177.936 192.809C177.88 192.874 177.852 192.981 177.852 193.131V200.257H177.992V193.131C177.992 193.056 178.006 192.991 178.034 192.935C178.062 192.869 178.122 192.837 178.216 192.837H178.426C178.491 192.837 178.547 192.846 178.594 192.865C178.65 192.883 178.706 192.939 178.762 193.033L180.47 195.609C180.638 195.861 180.764 196.033 180.848 196.127C180.941 196.22 181.09 196.267 181.296 196.267C181.501 196.267 181.646 196.22 181.73 196.127C181.823 196.033 181.954 195.861 182.122 195.609L183.83 193.033C183.886 192.939 183.937 192.883 183.984 192.865C184.03 192.846 184.086 192.837 184.152 192.837H184.362C184.455 192.837 184.516 192.869 184.544 192.935C184.581 192.991 184.6 193.056 184.6 193.131V200.257H184.74V193.131C184.74 192.981 184.707 192.874 184.642 192.809C184.586 192.734 184.492 192.697 184.362 192.697H184.124C184.049 192.697 183.974 192.715 183.9 192.753C183.834 192.781 183.774 192.841 183.718 192.935L182.01 195.539C181.851 195.781 181.734 195.94 181.66 196.015C181.585 196.089 181.464 196.127 181.296 196.127ZM178.958 201.517H176.872C176.694 201.517 176.564 201.479 176.48 201.405C176.405 201.321 176.368 201.19 176.368 201.013V191.941C176.368 191.763 176.405 191.637 176.48 191.563C176.564 191.479 176.694 191.437 176.872 191.437H179.126C179.275 191.437 179.396 191.469 179.49 191.535C179.592 191.6 179.686 191.707 179.77 191.857L181.03 194.139C181.076 194.223 181.114 194.283 181.142 194.321C181.179 194.358 181.226 194.377 181.282 194.377H181.408C181.464 194.377 181.506 194.358 181.534 194.321C181.571 194.283 181.613 194.223 181.66 194.139L182.906 191.857C182.99 191.707 183.078 191.6 183.172 191.535C183.274 191.469 183.4 191.437 183.55 191.437H185.818C185.995 191.437 186.121 191.479 186.196 191.563C186.28 191.637 186.322 191.763 186.322 191.941V201.013C186.322 201.19 186.28 201.321 186.196 201.405C186.121 201.479 185.995 201.517 185.818 201.517H183.662C183.484 201.517 183.354 201.479 183.27 201.405C183.195 201.321 183.158 201.19 183.158 201.013V196.085L182.332 197.611C182.248 197.769 182.145 197.886 182.024 197.961C181.912 198.026 181.767 198.059 181.59 198.059H181.03C180.852 198.059 180.703 198.026 180.582 197.961C180.47 197.886 180.372 197.769 180.288 197.611L179.462 196.085V201.013C179.462 201.19 179.42 201.321 179.336 201.405C179.261 201.479 179.135 201.517 178.958 201.517ZM196.83 198.871C196.83 199.3 196.765 199.692 196.634 200.047C196.513 200.392 196.289 200.691 195.962 200.943C195.645 201.185 195.206 201.377 194.646 201.517C194.086 201.657 193.372 201.727 192.504 201.727C191.636 201.727 190.922 201.657 190.362 201.517C189.802 201.377 189.359 201.185 189.032 200.943C188.715 200.691 188.491 200.392 188.36 200.047C188.239 199.692 188.178 199.3 188.178 198.871V191.941C188.178 191.763 188.216 191.637 188.29 191.563C188.374 191.479 188.505 191.437 188.682 191.437H190.88C191.058 191.437 191.184 191.479 191.258 191.563C191.342 191.637 191.384 191.763 191.384 191.941V198.325C191.384 198.511 191.454 198.67 191.594 198.801C191.734 198.922 192.047 198.983 192.532 198.983C193.027 198.983 193.344 198.922 193.484 198.801C193.624 198.67 193.694 198.511 193.694 198.325V191.941C193.694 191.763 193.732 191.637 193.806 191.563C193.89 191.479 194.021 191.437 194.198 191.437H196.326C196.504 191.437 196.63 191.479 196.704 191.563C196.788 191.637 196.83 191.763 196.83 191.941V198.871ZM189.718 192.697V198.535C189.718 199.095 189.91 199.552 190.292 199.907C190.684 200.252 191.426 200.425 192.518 200.425C193.61 200.425 194.352 200.252 194.744 199.907C195.136 199.552 195.332 199.095 195.332 198.535V192.697H195.192V198.535C195.192 199.057 195.006 199.482 194.632 199.809C194.259 200.126 193.554 200.285 192.518 200.285C191.482 200.285 190.778 200.126 190.404 199.809C190.04 199.482 189.858 199.057 189.858 198.535V192.697H189.718Z" fill="#3A335C"/>
<path d="M53.6141 222.812H51.4441C51.2668 222.812 51.1361 222.775 51.0521 222.7C50.9775 222.616 50.9401 222.485 50.9401 222.308V213.236C50.9401 213.059 50.9775 212.933 51.0521 212.858C51.1361 212.774 51.2668 212.732 51.4441 212.732H55.7281C56.9975 212.732 57.8655 212.984 58.3321 213.488C58.7988 213.992 59.0321 214.65 59.0321 215.462V217.254C59.0321 218.066 58.7988 218.724 58.3321 219.228C57.8655 219.732 56.9975 219.984 55.7281 219.984H54.1181V222.308C54.1181 222.485 54.0761 222.616 53.9921 222.7C53.9175 222.775 53.7915 222.812 53.6141 222.812ZM55.5321 218.794C55.9708 218.794 56.3255 218.747 56.5961 218.654C56.8761 218.561 57.0908 218.435 57.2401 218.276C57.3895 218.108 57.4921 217.912 57.5481 217.688C57.6041 217.455 57.6321 217.203 57.6321 216.932V215.896C57.6321 215.625 57.6041 215.373 57.5481 215.14C57.4921 214.907 57.3895 214.706 57.2401 214.538C57.0908 214.37 56.8761 214.239 56.5961 214.146C56.3255 214.043 55.9708 213.992 55.5321 213.992H52.5081V221.552H52.6481V218.794H55.5321ZM52.6481 218.654V214.132H55.5321C55.9428 214.132 56.2741 214.179 56.5261 214.272C56.7875 214.356 56.9881 214.477 57.1281 214.636C57.2681 214.795 57.3615 214.981 57.4081 215.196C57.4641 215.411 57.4921 215.644 57.4921 215.896V216.932C57.4921 217.184 57.4641 217.417 57.4081 217.632C57.3615 217.837 57.2681 218.019 57.1281 218.178C56.9881 218.327 56.7875 218.444 56.5261 218.528C56.2741 218.612 55.9428 218.654 55.5321 218.654H52.6481ZM54.0901 215.35V217.464H55.3501C55.6208 217.464 55.7981 217.394 55.8821 217.254C55.9661 217.114 56.0081 216.955 56.0081 216.778V216.036C56.0081 215.859 55.9661 215.7 55.8821 215.56C55.7981 215.42 55.6208 215.35 55.3501 215.35H54.0901ZM67.4831 222.812H60.9871C60.8098 222.812 60.6791 222.775 60.5951 222.7C60.5204 222.616 60.4831 222.485 60.4831 222.308V213.236C60.4831 213.059 60.5204 212.933 60.5951 212.858C60.6791 212.774 60.8098 212.732 60.9871 212.732H67.4831C67.6604 212.732 67.7864 212.774 67.8611 212.858C67.9451 212.933 67.9871 213.059 67.9871 213.236V214.874C67.9871 215.051 67.9451 215.182 67.8611 215.266C67.7864 215.341 67.6604 215.378 67.4831 215.378H63.6191V216.456H66.3491C66.5264 216.456 66.6524 216.498 66.7271 216.582C66.8111 216.657 66.8531 216.783 66.8531 216.96V218.458C66.8531 218.635 66.8111 218.766 66.7271 218.85C66.6524 218.925 66.5264 218.962 66.3491 218.962H63.6191V220.166H67.4831C67.6604 220.166 67.7864 220.208 67.8611 220.292C67.9451 220.367 67.9871 220.493 67.9871 220.67V222.308C67.9871 222.485 67.9451 222.616 67.8611 222.7C67.7864 222.775 67.6604 222.812 67.4831 222.812ZM66.7271 221.412H62.1491V217.786H65.5931V217.646H62.1491V214.132H66.7271V213.992H62.0091V221.552H66.7271V221.412ZM71.4912 214.104C71.4446 214.057 71.4072 214.025 71.3792 214.006C71.3512 213.987 71.3186 213.978 71.2812 213.978C71.2439 213.978 71.2066 213.992 71.1692 214.02C71.1319 214.048 71.1132 214.09 71.1132 214.146V221.552H71.2532V214.174C71.2532 214.165 71.2532 214.155 71.2532 214.146C71.2626 214.137 71.2719 214.132 71.2812 214.132C71.2906 214.132 71.2999 214.137 71.3092 214.146C71.3279 214.155 71.3419 214.165 71.3512 214.174L76.6432 220.11V221.552H76.7832V213.992H76.6432V219.9L71.4912 214.104ZM72.2472 222.812H70.1472C69.9699 222.812 69.8392 222.775 69.7552 222.7C69.6806 222.616 69.6432 222.485 69.6432 222.308V213.236C69.6432 213.059 69.6806 212.933 69.7552 212.858C69.8392 212.774 69.9699 212.732 70.1472 212.732H71.6032C71.7806 212.732 71.9299 212.76 72.0512 212.816C72.1819 212.872 72.3079 212.97 72.4292 213.11L75.1452 216.218V213.236C75.1452 213.059 75.1826 212.933 75.2572 212.858C75.3412 212.774 75.4719 212.732 75.6492 212.732H77.7492C77.9266 212.732 78.0526 212.774 78.1272 212.858C78.2112 212.933 78.2532 213.059 78.2532 213.236V222.308C78.2532 222.485 78.2112 222.616 78.1272 222.7C78.0526 222.775 77.9266 222.812 77.7492 222.812H75.6492C75.4719 222.812 75.3412 222.775 75.2572 222.7C75.1826 222.616 75.1452 222.485 75.1452 222.308V220.586L72.7512 217.688V222.308C72.7512 222.485 72.7092 222.616 72.6252 222.7C72.5506 222.775 72.4246 222.812 72.2472 222.812ZM88.7663 220.166C88.7663 220.595 88.7009 220.987 88.5703 221.342C88.4489 221.687 88.2249 221.986 87.8983 222.238C87.5809 222.481 87.1423 222.672 86.5823 222.812C86.0223 222.952 85.3083 223.022 84.4403 223.022C83.5723 223.022 82.8583 222.952 82.2983 222.812C81.7383 222.672 81.2949 222.481 80.9683 222.238C80.6509 221.986 80.4269 221.687 80.2963 221.342C80.1749 220.987 80.1143 220.595 80.1143 220.166V213.236C80.1143 213.059 80.1516 212.933 80.2263 212.858C80.3103 212.774 80.4409 212.732 80.6183 212.732H82.8163C82.9936 212.732 83.1196 212.774 83.1943 212.858C83.2783 212.933 83.3203 213.059 83.3203 213.236V219.62C83.3203 219.807 83.3903 219.965 83.5303 220.096C83.6703 220.217 83.9829 220.278 84.4683 220.278C84.9629 220.278 85.2803 220.217 85.4203 220.096C85.5603 219.965 85.6303 219.807 85.6303 219.62V213.236C85.6303 213.059 85.6676 212.933 85.7423 212.858C85.8263 212.774 85.9569 212.732 86.1343 212.732H88.2623C88.4396 212.732 88.5656 212.774 88.6403 212.858C88.7243 212.933 88.7663 213.059 88.7663 213.236V220.166ZM81.6543 213.992V219.83C81.6543 220.39 81.8456 220.847 82.2283 221.202C82.6203 221.547 83.3623 221.72 84.4543 221.72C85.5463 221.72 86.2883 221.547 86.6803 221.202C87.0723 220.847 87.2683 220.39 87.2683 219.83V213.992H87.1283V219.83C87.1283 220.353 86.9416 220.777 86.5683 221.104C86.1949 221.421 85.4903 221.58 84.4543 221.58C83.4183 221.58 82.7136 221.421 82.3403 221.104C81.9763 220.777 81.7943 220.353 81.7943 219.83V213.992H81.6543ZM92.1416 221.552H92.2816V217.842H97.6576V221.552H97.7976V213.992H97.6576V217.702H92.2816V213.992H92.1416V221.552ZM93.3036 222.812H91.1336C90.9562 222.812 90.8256 222.775 90.7416 222.7C90.6669 222.616 90.6296 222.485 90.6296 222.308V213.236C90.6296 213.059 90.6669 212.933 90.7416 212.858C90.8256 212.774 90.9562 212.732 91.1336 212.732H93.3036C93.4809 212.732 93.6069 212.774 93.6816 212.858C93.7656 212.933 93.8076 213.059 93.8076 213.236V216.274H96.1456V213.236C96.1456 213.059 96.1829 212.933 96.2576 212.858C96.3416 212.774 96.4722 212.732 96.6496 212.732H98.8196C98.9969 212.732 99.1229 212.774 99.1976 212.858C99.2816 212.933 99.3236 213.059 99.3236 213.236V222.308C99.3236 222.485 99.2816 222.616 99.1976 222.7C99.1229 222.775 98.9969 222.812 98.8196 222.812H96.6496C96.4722 222.812 96.3416 222.775 96.2576 222.7C96.1829 222.616 96.1456 222.485 96.1456 222.308V219.2H93.8076V222.308C93.8076 222.485 93.7656 222.616 93.6816 222.7C93.6069 222.775 93.4809 222.812 93.3036 222.812ZM106.063 221.552V217.856H109.829C110.342 217.856 110.73 217.949 110.991 218.136C111.252 218.323 111.383 218.64 111.383 219.088V221.552H111.523V219.088C111.523 218.603 111.383 218.253 111.103 218.038C110.823 217.823 110.398 217.716 109.829 217.716H109.255L110.865 213.992H110.711L109.101 217.716H106.063V213.992H105.923V221.552H106.063ZM107.071 222.812H104.901C104.724 222.812 104.593 222.775 104.509 222.7C104.434 222.616 104.397 222.485 104.397 222.308V213.236C104.397 213.059 104.434 212.933 104.509 212.858C104.593 212.774 104.724 212.732 104.901 212.732H107.071C107.248 212.732 107.374 212.774 107.449 212.858C107.533 212.933 107.575 213.059 107.575 213.236V216.456H108.135L109.577 213.194C109.642 213.026 109.731 212.909 109.843 212.844C109.955 212.769 110.1 212.732 110.277 212.732H112.433C112.592 212.732 112.699 212.774 112.755 212.858C112.811 212.933 112.806 213.045 112.741 213.194L111.313 216.456C111.836 216.484 112.251 216.671 112.559 217.016C112.876 217.352 113.035 217.8 113.035 218.36V222.308C113.035 222.485 112.993 222.616 112.909 222.7C112.834 222.775 112.708 222.812 112.531 222.812H110.375C110.198 222.812 110.067 222.775 109.983 222.7C109.908 222.616 109.871 222.485 109.871 222.308V219.578C109.871 219.429 109.834 219.312 109.759 219.228C109.684 219.144 109.572 219.102 109.423 219.102H107.575V222.308C107.575 222.485 107.533 222.616 107.449 222.7C107.374 222.775 107.248 222.812 107.071 222.812ZM121.842 222.812H115.346C115.169 222.812 115.038 222.775 114.954 222.7C114.88 222.616 114.842 222.485 114.842 222.308V213.236C114.842 213.059 114.88 212.933 114.954 212.858C115.038 212.774 115.169 212.732 115.346 212.732H121.842C122.02 212.732 122.146 212.774 122.22 212.858C122.304 212.933 122.346 213.059 122.346 213.236V214.874C122.346 215.051 122.304 215.182 122.22 215.266C122.146 215.341 122.02 215.378 121.842 215.378H117.978V216.456H120.708C120.886 216.456 121.012 216.498 121.086 216.582C121.17 216.657 121.212 216.783 121.212 216.96V218.458C121.212 218.635 121.17 218.766 121.086 218.85C121.012 218.925 120.886 218.962 120.708 218.962H117.978V220.166H121.842C122.02 220.166 122.146 220.208 122.22 220.292C122.304 220.367 122.346 220.493 122.346 220.67V222.308C122.346 222.485 122.304 222.616 122.22 222.7C122.146 222.775 122.02 222.812 121.842 222.812ZM121.086 221.412H116.508V217.786H119.952V217.646H116.508V214.132H121.086V213.992H116.368V221.552H121.086V221.412ZM129.883 222.812H124.507C124.329 222.812 124.199 222.775 124.115 222.7C124.04 222.616 124.003 222.485 124.003 222.308V213.236C124.003 213.059 124.04 212.933 124.115 212.858C124.199 212.774 124.329 212.732 124.507 212.732H128.973C129.887 212.732 130.564 212.909 131.003 213.264C131.441 213.609 131.661 214.146 131.661 214.874V215.546C131.661 215.938 131.591 216.26 131.451 216.512C131.32 216.755 131.115 216.937 130.835 217.058C131.432 217.114 131.875 217.319 132.165 217.674C132.454 218.029 132.599 218.547 132.599 219.228V220.516C132.599 221.3 132.375 221.879 131.927 222.252C131.488 222.625 130.807 222.812 129.883 222.812ZM125.557 221.552H129.323C129.715 221.552 130.032 221.519 130.275 221.454C130.517 221.379 130.699 221.281 130.821 221.16C130.951 221.039 131.04 220.894 131.087 220.726C131.133 220.549 131.157 220.357 131.157 220.152V219.256C131.157 219.023 131.133 218.808 131.087 218.612C131.049 218.416 130.965 218.248 130.835 218.108C130.704 217.959 130.517 217.847 130.275 217.772C130.032 217.688 129.719 217.646 129.337 217.646C129.738 217.543 129.985 217.375 130.079 217.142C130.181 216.909 130.233 216.652 130.233 216.372V215.476C130.233 215.271 130.209 215.079 130.163 214.902C130.116 214.725 130.027 214.571 129.897 214.44C129.766 214.3 129.579 214.193 129.337 214.118C129.094 214.034 128.781 213.992 128.399 213.992H125.557V221.552ZM128.399 214.132C129.099 214.132 129.556 214.263 129.771 214.524C129.985 214.785 130.093 215.103 130.093 215.476V216.372C130.093 216.54 130.074 216.703 130.037 216.862C130.009 217.011 129.934 217.147 129.813 217.268C129.701 217.38 129.533 217.473 129.309 217.548C129.085 217.613 128.781 217.646 128.399 217.646H125.697V214.132H128.399ZM127.153 215.112V216.624H128.343C128.52 216.624 128.651 216.577 128.735 216.484C128.828 216.391 128.875 216.251 128.875 216.064V215.672C128.875 215.485 128.828 215.345 128.735 215.252C128.651 215.159 128.52 215.112 128.343 215.112H127.153ZM129.337 217.786C130.037 217.786 130.489 217.926 130.695 218.206C130.909 218.486 131.017 218.836 131.017 219.256V220.152C131.017 220.535 130.909 220.843 130.695 221.076C130.48 221.3 130.023 221.412 129.323 221.412H125.697V217.786H129.337ZM127.153 218.78V220.432H128.973C129.15 220.432 129.281 220.385 129.365 220.292C129.458 220.199 129.505 220.059 129.505 219.872V219.326C129.505 219.139 129.458 219.004 129.365 218.92C129.281 218.827 129.15 218.78 128.973 218.78H127.153ZM135.561 218.57C135.561 218.318 135.58 218.085 135.617 217.87C135.664 217.655 135.72 217.455 135.785 217.268L136.681 214.972C136.774 214.739 136.877 214.543 136.989 214.384C137.101 214.216 137.297 214.132 137.577 214.132H138.949C139.21 214.132 139.397 214.216 139.509 214.384C139.621 214.543 139.728 214.743 139.831 214.986L140.797 217.268C140.862 217.455 140.914 217.655 140.951 217.87C140.998 218.085 141.021 218.318 141.021 218.57V219.004H135.561V218.57ZM137.801 215.672L137.143 217.8H139.341L138.683 215.672C138.646 215.588 138.604 215.527 138.557 215.49C138.52 215.453 138.473 215.434 138.417 215.434H138.067C138.011 215.434 137.96 215.453 137.913 215.49C137.876 215.527 137.838 215.588 137.801 215.672ZM141.021 221.552H141.161V218.57C141.161 218.309 141.138 218.071 141.091 217.856C141.054 217.632 140.998 217.417 140.923 217.212L139.957 214.93C139.845 214.659 139.724 214.435 139.593 214.258C139.472 214.081 139.257 213.992 138.949 213.992H137.577C137.26 213.992 137.036 214.081 136.905 214.258C136.774 214.435 136.658 214.655 136.555 214.916L135.659 217.212C135.584 217.417 135.524 217.632 135.477 217.856C135.44 218.071 135.421 218.309 135.421 218.57V221.552H135.561V219.144H141.021V221.552ZM137.003 222.308C137.003 222.485 136.961 222.616 136.877 222.7C136.802 222.775 136.676 222.812 136.499 222.812H134.441C134.264 222.812 134.133 222.775 134.049 222.7C133.974 222.616 133.937 222.485 133.937 222.308V218.612C133.937 218.332 133.979 218.01 134.063 217.646C134.156 217.282 134.296 216.857 134.483 216.372L135.701 213.194C135.757 213.035 135.841 212.919 135.953 212.844C136.074 212.769 136.228 212.732 136.415 212.732H140.181C140.358 212.732 140.503 212.769 140.615 212.844C140.736 212.919 140.825 213.035 140.881 213.194L142.099 216.372C142.286 216.857 142.421 217.282 142.505 217.646C142.598 218.01 142.645 218.332 142.645 218.612V222.308C142.645 222.485 142.603 222.616 142.519 222.7C142.444 222.775 142.318 222.812 142.141 222.812H140.027C139.84 222.812 139.7 222.775 139.607 222.7C139.523 222.616 139.481 222.485 139.481 222.308V220.348H137.003V222.308ZM145.886 221.552H146.026V217.842H151.402V221.552H151.542V213.992H151.402V217.702H146.026V213.992H145.886V221.552ZM147.048 222.812H144.878C144.7 222.812 144.57 222.775 144.486 222.7C144.411 222.616 144.374 222.485 144.374 222.308V213.236C144.374 213.059 144.411 212.933 144.486 212.858C144.57 212.774 144.7 212.732 144.878 212.732H147.048C147.225 212.732 147.351 212.774 147.426 212.858C147.51 212.933 147.552 213.059 147.552 213.236V216.274H149.89V213.236C149.89 213.059 149.927 212.933 150.002 212.858C150.086 212.774 150.216 212.732 150.394 212.732H152.564C152.741 212.732 152.867 212.774 152.942 212.858C153.026 212.933 153.068 213.059 153.068 213.236V222.308C153.068 222.485 153.026 222.616 152.942 222.7C152.867 222.775 152.741 222.812 152.564 222.812H150.394C150.216 222.812 150.086 222.775 150.002 222.7C149.927 222.616 149.89 222.485 149.89 222.308V219.2H147.552V222.308C147.552 222.485 147.51 222.616 147.426 222.7C147.351 222.775 147.225 222.812 147.048 222.812ZM156.411 218.57C156.411 218.318 156.429 218.085 156.467 217.87C156.513 217.655 156.569 217.455 156.635 217.268L157.531 214.972C157.624 214.739 157.727 214.543 157.839 214.384C157.951 214.216 158.147 214.132 158.427 214.132H159.799C160.06 214.132 160.247 214.216 160.359 214.384C160.471 214.543 160.578 214.743 160.681 214.986L161.647 217.268C161.712 217.455 161.763 217.655 161.801 217.87C161.847 218.085 161.871 218.318 161.871 218.57V219.004H156.411V218.57ZM158.651 215.672L157.993 217.8H160.191L159.533 215.672C159.495 215.588 159.453 215.527 159.407 215.49C159.369 215.453 159.323 215.434 159.267 215.434H158.917C158.861 215.434 158.809 215.453 158.763 215.49C158.725 215.527 158.688 215.588 158.651 215.672ZM161.871 221.552H162.011V218.57C162.011 218.309 161.987 218.071 161.941 217.856C161.903 217.632 161.847 217.417 161.773 217.212L160.807 214.93C160.695 214.659 160.573 214.435 160.443 214.258C160.321 214.081 160.107 213.992 159.799 213.992H158.427C158.109 213.992 157.885 214.081 157.755 214.258C157.624 214.435 157.507 214.655 157.405 214.916L156.509 217.212C156.434 217.417 156.373 217.632 156.327 217.856C156.289 218.071 156.271 218.309 156.271 218.57V221.552H156.411V219.144H161.871V221.552ZM157.853 222.308C157.853 222.485 157.811 222.616 157.727 222.7C157.652 222.775 157.526 222.812 157.349 222.812H155.291C155.113 222.812 154.983 222.775 154.899 222.7C154.824 222.616 154.787 222.485 154.787 222.308V218.612C154.787 218.332 154.829 218.01 154.913 217.646C155.006 217.282 155.146 216.857 155.333 216.372L156.551 213.194C156.607 213.035 156.691 212.919 156.803 212.844C156.924 212.769 157.078 212.732 157.265 212.732H161.031C161.208 212.732 161.353 212.769 161.465 212.844C161.586 212.919 161.675 213.035 161.731 213.194L162.949 216.372C163.135 216.857 163.271 217.282 163.355 217.646C163.448 218.01 163.495 218.332 163.495 218.612V222.308C163.495 222.485 163.453 222.616 163.369 222.7C163.294 222.775 163.168 222.812 162.991 222.812H160.877C160.69 222.812 160.55 222.775 160.457 222.7C160.373 222.616 160.331 222.485 160.331 222.308V220.348H157.853V222.308ZM172.923 222.812H168.513C167.347 222.812 166.479 222.579 165.909 222.112C165.349 221.645 165.069 220.927 165.069 219.956V215.588C165.069 214.617 165.349 213.899 165.909 213.432C166.479 212.965 167.347 212.732 168.513 212.732H172.013C172.191 212.732 172.317 212.774 172.391 212.858C172.475 212.933 172.517 213.059 172.517 213.236V214.93C172.517 215.107 172.475 215.238 172.391 215.322C172.317 215.397 172.191 215.434 172.013 215.434H169.101C168.812 215.434 168.597 215.495 168.457 215.616C168.317 215.728 168.247 215.901 168.247 216.134V219.48C168.247 219.713 168.299 219.886 168.401 219.998C168.513 220.11 168.677 220.166 168.891 220.166H170.249V217.982C170.249 217.805 170.287 217.679 170.361 217.604C170.445 217.52 170.576 217.478 170.753 217.478H172.923C173.101 217.478 173.227 217.52 173.301 217.604C173.385 217.679 173.427 217.805 173.427 217.982V222.308C173.427 222.485 173.385 222.616 173.301 222.7C173.227 222.775 173.101 222.812 172.923 222.812ZM169.115 221.552H171.901V218.738H171.761V221.412H169.115C168.173 221.412 167.538 221.286 167.211 221.034C166.894 220.782 166.735 220.353 166.735 219.746V215.826C166.735 215.21 166.88 214.776 167.169 214.524C167.459 214.263 168.014 214.132 168.835 214.132H171.257V213.992H168.835C167.939 213.992 167.342 214.132 167.043 214.412C166.745 214.692 166.595 215.163 166.595 215.826V219.746C166.595 220.073 166.628 220.353 166.693 220.586C166.768 220.81 166.899 220.997 167.085 221.146C167.272 221.286 167.529 221.389 167.855 221.454C168.182 221.519 168.602 221.552 169.115 221.552ZM175.415 222.812C175.238 222.812 175.107 222.775 175.023 222.7C174.949 222.616 174.911 222.485 174.911 222.308V220.642C174.911 220.465 174.949 220.339 175.023 220.264C175.107 220.18 175.238 220.138 175.415 220.138H176.801V215.434H175.415C175.238 215.434 175.107 215.397 175.023 215.322C174.949 215.238 174.911 215.107 174.911 214.93V213.236C174.911 213.059 174.949 212.933 175.023 212.858C175.107 212.774 175.238 212.732 175.415 212.732H181.379C181.557 212.732 181.683 212.774 181.757 212.858C181.841 212.933 181.883 213.059 181.883 213.236V214.93C181.883 215.107 181.841 215.238 181.757 215.322C181.683 215.397 181.557 215.434 181.379 215.434H180.021V220.138H181.379C181.557 220.138 181.683 220.18 181.757 220.264C181.841 220.339 181.883 220.465 181.883 220.642V222.308C181.883 222.485 181.841 222.616 181.757 222.7C181.683 222.775 181.557 222.812 181.379 222.812H175.415ZM180.623 221.552V221.412H178.481V214.132H180.623V213.992H176.171V214.132H178.341V221.412H176.171V221.552H180.623ZM185.026 218.57C185.026 218.318 185.045 218.085 185.082 217.87C185.129 217.655 185.185 217.455 185.25 217.268L186.146 214.972C186.239 214.739 186.342 214.543 186.454 214.384C186.566 214.216 186.762 214.132 187.042 214.132H188.414C188.675 214.132 188.862 214.216 188.974 214.384C189.086 214.543 189.193 214.743 189.296 214.986L190.262 217.268C190.327 217.455 190.379 217.655 190.416 217.87C190.463 218.085 190.486 218.318 190.486 218.57V219.004H185.026V218.57ZM187.266 215.672L186.608 217.8H188.806L188.148 215.672C188.111 215.588 188.069 215.527 188.022 215.49C187.985 215.453 187.938 215.434 187.882 215.434H187.532C187.476 215.434 187.425 215.453 187.378 215.49C187.341 215.527 187.303 215.588 187.266 215.672ZM190.486 221.552H190.626V218.57C190.626 218.309 190.603 218.071 190.556 217.856C190.519 217.632 190.463 217.417 190.388 217.212L189.422 214.93C189.31 214.659 189.189 214.435 189.058 214.258C188.937 214.081 188.722 213.992 188.414 213.992H187.042C186.725 213.992 186.501 214.081 186.37 214.258C186.239 214.435 186.123 214.655 186.02 214.916L185.124 217.212C185.049 217.417 184.989 217.632 184.942 217.856C184.905 218.071 184.886 218.309 184.886 218.57V221.552H185.026V219.144H190.486V221.552ZM186.468 222.308C186.468 222.485 186.426 222.616 186.342 222.7C186.267 222.775 186.141 222.812 185.964 222.812H183.906C183.729 222.812 183.598 222.775 183.514 222.7C183.439 222.616 183.402 222.485 183.402 222.308V218.612C183.402 218.332 183.444 218.01 183.528 217.646C183.621 217.282 183.761 216.857 183.948 216.372L185.166 213.194C185.222 213.035 185.306 212.919 185.418 212.844C185.539 212.769 185.693 212.732 185.88 212.732H189.646C189.823 212.732 189.968 212.769 190.08 212.844C190.201 212.919 190.29 213.035 190.346 213.194L191.564 216.372C191.751 216.857 191.886 217.282 191.97 217.646C192.063 218.01 192.11 218.332 192.11 218.612V222.308C192.11 222.485 192.068 222.616 191.984 222.7C191.909 222.775 191.783 222.812 191.606 222.812H189.492C189.305 222.812 189.165 222.775 189.072 222.7C188.988 222.616 188.946 222.485 188.946 222.308V220.348H186.468V222.308ZM195.253 218.57C195.253 218.318 195.271 218.085 195.309 217.87C195.355 217.655 195.411 217.455 195.477 217.268L196.373 214.972C196.466 214.739 196.569 214.543 196.681 214.384C196.793 214.216 196.989 214.132 197.269 214.132H198.641C198.902 214.132 199.089 214.216 199.201 214.384C199.313 214.543 199.42 214.743 199.523 214.986L200.489 217.268C200.554 217.455 200.605 217.655 200.643 217.87C200.689 218.085 200.713 218.318 200.713 218.57V219.004H195.253V218.57ZM197.493 215.672L196.835 217.8H199.033L198.375 215.672C198.337 215.588 198.295 215.527 198.249 215.49C198.211 215.453 198.165 215.434 198.109 215.434H197.759C197.703 215.434 197.651 215.453 197.605 215.49C197.567 215.527 197.53 215.588 197.493 215.672ZM200.713 221.552H200.853V218.57C200.853 218.309 200.829 218.071 200.783 217.856C200.745 217.632 200.689 217.417 200.615 217.212L199.649 214.93C199.537 214.659 199.415 214.435 199.285 214.258C199.163 214.081 198.949 213.992 198.641 213.992H197.269C196.951 213.992 196.727 214.081 196.597 214.258C196.466 214.435 196.349 214.655 196.247 214.916L195.351 217.212C195.276 217.417 195.215 217.632 195.169 217.856C195.131 218.071 195.113 218.309 195.113 218.57V221.552H195.253V219.144H200.713V221.552ZM196.695 222.308C196.695 222.485 196.653 222.616 196.569 222.7C196.494 222.775 196.368 222.812 196.191 222.812H194.133C193.955 222.812 193.825 222.775 193.741 222.7C193.666 222.616 193.629 222.485 193.629 222.308V218.612C193.629 218.332 193.671 218.01 193.755 217.646C193.848 217.282 193.988 216.857 194.175 216.372L195.393 213.194C195.449 213.035 195.533 212.919 195.645 212.844C195.766 212.769 195.92 212.732 196.107 212.732H199.873C200.05 212.732 200.195 212.769 200.307 212.844C200.428 212.919 200.517 213.035 200.573 213.194L201.791 216.372C201.977 216.857 202.113 217.282 202.197 217.646C202.29 218.01 202.337 218.332 202.337 218.612V222.308C202.337 222.485 202.295 222.616 202.211 222.7C202.136 222.775 202.01 222.812 201.833 222.812H199.719C199.532 222.812 199.392 222.775 199.299 222.7C199.215 222.616 199.173 222.485 199.173 222.308V220.348H196.695V222.308ZM205.913 214.104C205.866 214.057 205.829 214.025 205.801 214.006C205.773 213.987 205.74 213.978 205.703 213.978C205.666 213.978 205.628 213.992 205.591 214.02C205.554 214.048 205.535 214.09 205.535 214.146V221.552H205.675V214.174C205.675 214.165 205.675 214.155 205.675 214.146C205.684 214.137 205.694 214.132 205.703 214.132C205.712 214.132 205.722 214.137 205.731 214.146C205.75 214.155 205.764 214.165 205.773 214.174L211.065 220.11V221.552H211.205V213.992H211.065V219.9L205.913 214.104ZM206.669 222.812H204.569C204.392 222.812 204.261 222.775 204.177 222.7C204.102 222.616 204.065 222.485 204.065 222.308V213.236C204.065 213.059 204.102 212.933 204.177 212.858C204.261 212.774 204.392 212.732 204.569 212.732H206.025C206.202 212.732 206.352 212.76 206.473 212.816C206.604 212.872 206.73 212.97 206.851 213.11L209.567 216.218V213.236C209.567 213.059 209.604 212.933 209.679 212.858C209.763 212.774 209.894 212.732 210.071 212.732H212.171C212.348 212.732 212.474 212.774 212.549 212.858C212.633 212.933 212.675 213.059 212.675 213.236V222.308C212.675 222.485 212.633 222.616 212.549 222.7C212.474 222.775 212.348 222.812 212.171 222.812H210.071C209.894 222.812 209.763 222.775 209.679 222.7C209.604 222.616 209.567 222.485 209.567 222.308V220.586L207.173 217.688V222.308C207.173 222.485 207.131 222.616 207.047 222.7C206.972 222.775 206.846 222.812 206.669 222.812ZM217.7 219.144H215.53C215.353 219.144 215.222 219.107 215.138 219.032C215.063 218.948 215.021 218.817 215.012 218.64L214.802 213.236C214.793 213.059 214.825 212.933 214.9 212.858C214.975 212.774 215.101 212.732 215.278 212.732H217.952C218.129 212.732 218.255 212.774 218.33 212.858C218.405 212.933 218.437 213.059 218.428 213.236L218.232 218.64C218.223 218.817 218.176 218.948 218.092 219.032C218.008 219.107 217.877 219.144 217.7 219.144ZM216.552 213.992V217.884H216.692V213.992H216.552ZM217.91 222.812H215.334C215.157 222.812 215.026 222.775 214.942 222.7C214.867 222.616 214.83 222.485 214.83 222.308V220.474C214.83 220.297 214.867 220.171 214.942 220.096C215.026 220.012 215.157 219.97 215.334 219.97H217.91C218.087 219.97 218.213 220.012 218.288 220.096C218.372 220.171 218.414 220.297 218.414 220.474V222.308C218.414 222.485 218.372 222.616 218.288 222.7C218.213 222.775 218.087 222.812 217.91 222.812ZM216.692 221.692V221.09H216.552V221.692H216.692Z" fill="#3A335C"/>
</g>
<defs>
<clipPath id="clip0_342_2867">
<rect width="273.775" height="273" fill="white"/>
</clipPath>
</defs>
</svg>
