<svg width="100" height="100" viewBox="0 0 100 100" fill="none" xmlns="http://www.w3.org/2000/svg">
<g clip-path="url(#clip0_78_3305)">
<rect width="100" height="100" rx="50" fill="#FFE8D7"/>
<path d="M97.2726 88.7561C97.6936 88.8314 98.1039 88.9576 98.4945 89.1319C99.6432 89.6512 100.175 90.5035 99.9487 91.4659C99.8308 91.8958 99.6263 92.2972 99.3479 92.6455C99.0695 92.9938 98.723 93.2816 98.3296 93.4913C97.4693 93.9799 96.4535 94.1172 95.4943 93.8747C94.5351 93.6322 93.7067 93.0286 93.182 92.1899C92.6718 91.3681 92.6718 90.5555 93.182 89.8406C93.9457 88.7867 95.7176 88.4659 97.2726 88.7561ZM95.8184 93.6257C96.6296 93.7731 97.4667 93.6269 98.1799 93.2133C98.5358 93.0265 98.8497 92.7689 99.1024 92.4563C99.3551 92.1437 99.5412 91.7828 99.6493 91.3956C99.9059 90.2958 98.9619 89.6879 98.3754 89.4221C96.8082 88.7133 94.3153 88.8264 93.4477 90.0331C93.0139 90.6441 93.017 91.3131 93.4477 92.028C93.7086 92.4446 94.0547 92.8013 94.4633 93.0745C94.8719 93.3478 95.3337 93.5315 95.8184 93.6135V93.6257Z" fill="#CCCCCC"/>
<path d="M9.99203 110.312C9.99203 110.312 9.34132 112.823 13.4655 112.499C17.5897 112.175 19.716 106.019 26.4766 107.257C33.2373 108.494 38.2932 105.793 43.062 107.486C47.8308 109.178 48.4388 106.847 48.0264 105.922C47.6139 104.996 46.7158 99.552 39.3441 98.718C31.9725 97.884 14.437 98.3269 9.99203 110.312Z" fill="#97722F"/>
<path d="M39.986 97.6162H28.3008C29.3883 100.741 30.2743 103.311 30.6164 104.365C31.6521 107.536 34.3374 131.407 34.3374 131.407L43.2884 130.521C43.2884 130.521 42.5919 106.555 40.8659 100.784C40.6367 99.9716 40.3312 98.884 39.986 97.6162Z" fill="#464C54"/>
<path d="M30.8241 97.9551C30.818 97.9371 30.808 97.9206 30.7948 97.9068C30.7816 97.893 30.7656 97.8823 30.7479 97.8753C30.7302 97.8684 30.7112 97.8653 30.6921 97.8664C30.6731 97.8676 30.6546 97.8728 30.6378 97.8818C30.5998 97.8969 30.5687 97.9255 30.5507 97.9622C30.5326 97.9989 30.5288 98.041 30.54 98.0804L30.8455 98.9602C30.855 98.9856 30.8721 99.0075 30.8945 99.0229C30.917 99.0382 30.9436 99.0462 30.9708 99.0457C30.993 99.045 31.0148 99.0398 31.0349 99.0305C31.0721 99.0143 31.1023 98.9855 31.1202 98.9491C31.1381 98.9127 31.1426 98.8712 31.1327 98.8319L30.8241 97.9551Z" fill="#747D86"/>
<path d="M31.4167 99.7092C31.4095 99.6917 31.3987 99.6758 31.3851 99.6626C31.3714 99.6494 31.3552 99.6392 31.3374 99.6326C31.3196 99.626 31.3007 99.6232 31.2817 99.6243C31.2628 99.6253 31.2442 99.6303 31.2273 99.6389C31.1899 99.6546 31.1595 99.6835 31.142 99.7201C31.1246 99.7568 31.1212 99.7986 31.1326 99.8375C31.2334 100.143 31.3312 100.43 31.4381 100.714C31.4466 100.74 31.4631 100.762 31.4851 100.777C31.5071 100.793 31.5335 100.801 31.5603 100.8C31.5837 100.801 31.6068 100.795 31.6275 100.785C31.665 100.769 31.6953 100.74 31.7128 100.703C31.7303 100.667 31.7336 100.625 31.7222 100.586C31.6184 100.302 31.5176 100.009 31.4167 99.7092Z" fill="#747D86"/>
<path d="M14.8828 96.8818C16.0407 99.8971 16.9419 102.381 17.2107 103.484C17.5682 104.95 13.4653 131.33 13.4653 131.33L22.6302 133.095C22.6302 133.095 28.6455 106.377 28.34 102.411C28.2697 101.477 27.8206 99.445 27.1791 96.8818H14.8828Z" fill="#464C54"/>
<path d="M18.088 100.515C18.0996 100.547 18.1207 100.575 18.1485 100.595C18.1763 100.616 18.2095 100.627 18.2438 100.628H18.2804C18.299 100.622 18.3161 100.613 18.3306 100.6C18.345 100.587 18.3566 100.571 18.3644 100.554C18.3723 100.536 18.3762 100.517 18.3759 100.497C18.3757 100.478 18.3712 100.459 18.3629 100.442C18.2499 100.136 18.1277 99.8306 17.9994 99.4885C17.9855 99.4505 17.9585 99.4187 17.9231 99.3991C17.8878 99.3794 17.8465 99.3732 17.8069 99.3815C17.7884 99.3871 17.7713 99.3967 17.7568 99.4095C17.7423 99.4223 17.7308 99.4381 17.7229 99.4558C17.7151 99.4735 17.7112 99.4926 17.7114 99.512C17.7117 99.5313 17.7161 99.5504 17.7244 99.5679C17.8497 99.8948 17.9719 100.212 18.088 100.515Z" fill="#747D86"/>
<path d="M17.6327 98.5319C17.5135 98.2264 17.3913 97.9057 17.263 97.5818C17.2491 97.5432 17.2216 97.511 17.1856 97.4913C17.1495 97.4716 17.1075 97.4658 17.0675 97.4749C17.0492 97.4812 17.0323 97.4913 17.0182 97.5046C17.004 97.5178 16.9928 97.5339 16.9853 97.5518C16.9778 97.5697 16.9742 97.589 16.9747 97.6084C16.9751 97.6278 16.9797 97.6468 16.9881 97.6643C17.1133 97.9882 17.2355 98.3059 17.3577 98.6144C17.3695 98.6464 17.3907 98.674 17.4185 98.6937C17.4463 98.7133 17.4795 98.724 17.5135 98.7244C17.5256 98.7274 17.5382 98.7274 17.5502 98.7244C17.5695 98.719 17.5874 98.7093 17.6025 98.6961C17.6176 98.6828 17.6296 98.6664 17.6375 98.6479C17.6454 98.6294 17.6491 98.6094 17.6483 98.5894C17.6474 98.5693 17.6421 98.5497 17.6327 98.5319Z" fill="#747D86"/>
<path d="M22.1173 36.6292C22.1173 36.6292 19.0624 39.2228 15.0237 39.8338C10.9851 40.4448 9.83027 45.1036 10.1541 47.7004C10.4779 50.2971 11.6083 61.0811 12.2376 65.2878C12.8822 69.6014 13.5359 74.6268 11.425 94.5849C10.649 101.917 9.99219 110.312 9.99219 110.312C9.99219 110.312 14.8801 101.327 27.3322 104.281C38.9777 107.031 42.2679 96.644 48.0265 105.922C40.3494 88.9485 38.7577 74.9904 36.9859 65.5383C35.8952 59.7339 34.3342 47.9356 34.3861 44.1016C34.438 40.2676 29.3057 40.5762 26.3699 38.511C23.434 36.4459 22.1173 36.6292 22.1173 36.6292Z" fill="#2B2F36"/>
<path d="M19.6246 78.7907C20.0243 80.3336 19.893 81.9661 19.2518 83.4253C18.6106 84.8845 17.4969 86.0853 16.09 86.8344C15.9923 86.8863 16.09 87.036 16.1786 86.981C17.6196 86.2116 18.7595 84.9794 19.4146 83.4831C20.0697 81.9867 20.2018 80.3133 19.7896 78.7326C19.7835 78.7107 19.769 78.6922 19.7492 78.681C19.7295 78.6698 19.7061 78.667 19.6842 78.673C19.6623 78.6791 19.6438 78.6936 19.6326 78.7134C19.6214 78.7332 19.6186 78.7566 19.6246 78.7784V78.7907Z" fill="#747D86"/>
<path d="M36.2129 77.854C36.2481 78.8545 36.5791 79.8222 37.1643 80.6346C37.7494 81.447 38.5622 82.0677 39.5001 82.4181C39.6039 82.4547 39.6498 82.2898 39.5459 82.2531C38.6444 81.9129 37.8635 81.3137 37.3015 80.531C36.7395 79.7483 36.4213 78.8169 36.3871 77.854C36.3871 77.744 36.2099 77.744 36.2129 77.854Z" fill="#747D86"/>
<path d="M10.4659 105.831C12.1555 104.26 14.1595 103.067 16.3452 102.33C18.5309 101.592 20.8483 101.328 23.144 101.554C25.646 101.78 28.0991 102.394 30.6103 102.531C31.8089 102.611 33.0128 102.532 34.1907 102.296C35.3917 102.005 36.57 101.628 37.7162 101.166C40.2029 100.249 43.1021 99.3022 45.6285 100.634C45.7263 100.686 45.8118 100.539 45.7141 100.488C43.655 99.3999 41.2416 99.7849 39.1245 100.488C37.9025 100.891 36.7202 101.404 35.4952 101.774C34.2317 102.172 32.9156 102.378 31.5909 102.385C28.982 102.385 26.4311 101.755 23.8527 101.453C21.507 101.142 19.1224 101.318 16.8477 101.969C14.4179 102.695 12.1908 103.977 10.3437 105.715C10.2642 105.791 10.3864 105.91 10.4659 105.834V105.831Z" fill="#747D86"/>
<path d="M25.362 45.4946C25.8538 53.2664 27.0116 60.968 28.2825 68.6451C29.4597 75.7612 30.7744 82.8497 32.2265 89.9107C33.0483 93.9341 33.8792 97.9575 34.6705 101.987C34.6918 102.097 34.8599 102.051 34.8385 101.941C33.4698 94.9942 31.979 88.0747 30.6501 81.1216C29.2296 73.6858 27.9617 66.2073 26.9169 58.7104C26.306 54.3234 25.8141 49.9182 25.5361 45.4946C25.5361 45.3846 25.3559 45.3846 25.362 45.4946Z" fill="#747D86"/>
<path d="M32.0096 40.8517C32.0096 40.8517 30.7051 48.0431 24.4516 47.371C18.1981 46.6989 14.416 39.7825 14.416 39.7825C15.3325 39.2631 18.4669 38.0289 20.5259 37.2407C21.5982 36.8283 22.3589 36.5381 22.3589 36.5381L26.2968 37.6318L26.4495 37.7173L32.0096 40.8517Z" fill="#97722F"/>
<path d="M15.0297 39.5986C16.6702 41.9815 18.7385 44.1505 21.3932 45.403C22.6664 46.0233 24.0561 46.3679 25.4716 46.4142C26.1474 46.4328 26.8196 46.3109 27.4459 46.0564C28.0721 45.8019 28.6388 45.4203 29.1101 44.9356C30.2618 43.7625 30.8545 42.1862 31.4227 40.6953C31.4746 40.5548 31.2547 40.4968 31.2027 40.6342C30.7017 41.957 30.1915 43.3226 29.2689 44.4193C28.8439 44.9508 28.3085 45.3836 27.6999 45.688C27.0912 45.9923 26.4237 46.1609 25.7435 46.1821C22.994 46.2615 20.3057 44.8501 18.3016 43.0629C17.1388 42.0001 16.1071 40.8022 15.2283 39.4947C15.1428 39.3756 14.9442 39.4947 15.0297 39.6108V39.5986Z" fill="#745423"/>
<path d="M30.6042 40.2127C29.6571 42.5925 28.3068 45.2503 25.4107 45.3756C24.0115 45.4367 22.6612 44.9265 21.4393 44.2758C20.3949 43.7183 19.424 43.0328 18.5493 42.235C17.5647 41.32 16.7023 40.282 15.9831 39.1465C15.9037 39.0243 15.7051 39.1465 15.7845 39.2626C17.1352 41.408 19.0029 43.18 21.2162 44.4163C22.4382 45.0823 23.7794 45.6138 25.1877 45.6108C25.8316 45.6092 26.4686 45.4774 27.0603 45.2233C27.652 44.9692 28.1861 44.5981 28.6307 44.1322C29.6846 43.0538 30.2712 41.6546 30.818 40.2738C30.873 40.1363 30.653 40.0782 30.5981 40.2127H30.6042Z" fill="#745423"/>
<path d="M26.449 37.7173C26.6659 39.81 26.1282 42.2417 25.2575 44.4566L20.5132 37.2407C21.5855 36.8283 22.3462 36.5381 22.3462 36.5381L26.284 37.6318L26.449 37.7173Z" fill="#F1F1F1"/>
<path d="M19.4904 25.9033C18.968 27.4308 19.2063 29.0896 18.8794 30.666C18.635 31.8697 17.9966 33.058 16.8021 33.5346C16.6676 33.5865 16.5668 33.3819 16.7043 33.3269C18.0729 32.78 18.6014 31.3167 18.7603 29.9664C18.9192 28.6161 18.8122 27.1742 19.2705 25.8361C19.2806 25.8077 19.3016 25.7846 19.3288 25.7717C19.356 25.7588 19.3872 25.7572 19.4156 25.7674C19.4439 25.7775 19.4671 25.7985 19.48 25.8257C19.4929 25.8529 19.4945 25.8841 19.4843 25.9125L19.4904 25.9033Z" fill="#97722F"/>
<path d="M16.3954 33.2178C16.3654 33.3034 16.3615 33.3959 16.3841 33.4837C16.4067 33.5715 16.4549 33.6506 16.5225 33.711C16.59 33.7714 16.674 33.8104 16.7638 33.8231C16.8536 33.8358 16.9451 33.8216 17.0267 33.7822C17.1084 33.7429 17.1766 33.6802 17.2226 33.6021C17.2687 33.524 17.2905 33.434 17.2854 33.3435C17.2803 33.253 17.2484 33.166 17.1939 33.0936C17.1393 33.0212 17.0645 32.9666 16.9789 32.9367C16.8643 32.8967 16.7384 32.9038 16.629 32.9565C16.5196 33.0092 16.4356 33.1032 16.3954 33.2178Z" fill="#97722F"/>
<path d="M16.8901 33.3154C16.8901 33.3154 16.664 34.736 16.0377 35.1881L14.8799 33.9111C14.8799 33.9111 15.4389 33.3276 16.8901 33.3154Z" fill="#97722F"/>
<path d="M34.0563 28.7905L28.2763 22.0635L17.645 25.7753L26.4586 29.6398L34.0563 28.7905Z" fill="#2B2F36"/>
<path d="M22.0687 28.6473C21.9422 28.6404 21.8158 28.661 21.6982 28.7078C21.5805 28.7546 21.4745 28.8263 21.3873 28.9182C21.3001 29.01 21.2339 29.1196 21.1934 29.2396C21.1528 29.3595 21.1387 29.4868 21.1522 29.6127C21.198 30.6055 19.8721 30.5292 19.6614 31.6839C19.4506 32.8387 20.9292 32.8876 20.4159 33.746C19.9027 34.6045 21.1858 35.6829 22.0351 35.1024C22.8843 34.522 23.6603 33.7247 24.366 34.2929C25.0717 34.8611 27.8181 36.0831 28.5605 35.2552C29.3028 34.4273 28.5208 33.3306 29.4159 32.5057C30.311 31.6809 29.7214 30.7094 30.1216 29.7226C30.5218 28.7359 29.2051 27.355 27.6776 26.9732C26.1501 26.5913 23.0401 26.8876 22.0687 28.6473Z" fill="#5D341E"/>
<path d="M27.65 31.7479C27.65 31.696 28.9361 30.6939 29.483 31.6685C30.0298 32.643 28.927 34.1827 27.3262 33.2906L27.65 31.7479Z" fill="#A3562C"/>
<path d="M21.1123 37.4889C21.1123 37.4889 22.0044 39.0164 23.6663 39.3647C25.3282 39.7129 25.9483 39.0225 25.9483 39.0225C25.8583 38.4329 25.847 37.834 25.9147 37.2415C25.9789 36.4258 26.0675 35.8331 26.0675 35.8331L23.2416 33.9849L22.5268 33.5205C22.209 35.4512 21.9799 36.1875 21.1123 37.4889Z" fill="#DE7E49"/>
<path d="M22.6577 33.7666C22.6577 33.7666 22.8502 35.9662 25.5935 37.1271C25.698 37.1723 25.8051 37.211 25.9143 37.2432C25.9785 36.4275 26.0671 35.8348 26.0671 35.8348L23.2412 33.9866L22.6577 33.7666Z" fill="#2B2F36"/>
<path d="M22.2029 28.3839L22.1021 28.8788C22.1021 28.8788 21.7355 31.219 22.0715 32.8228C22.4412 34.5886 24.7629 36.9226 26.7731 35.8778C28.3006 35.0865 29.6081 30.6293 29.6081 30.6293L29.7486 29.942C30.0969 28.2404 28.8322 26.8137 27.2711 26.0377C25.0165 24.9318 22.7069 25.9277 22.2029 28.3839Z" fill="#DE7E49"/>
<path d="M25.6155 31.5734C25.6199 31.6155 25.6368 31.6553 25.6639 31.6878C25.691 31.7203 25.7272 31.744 25.7678 31.7559C25.8084 31.7679 25.8516 31.7675 25.892 31.7548C25.9324 31.7422 25.9681 31.7178 25.9947 31.6849C26.0212 31.6519 26.0374 31.6118 26.0411 31.5697C26.0449 31.5275 26.036 31.4852 26.0157 31.4481C25.9954 31.4109 25.9645 31.3807 25.927 31.3611C25.8894 31.3416 25.8469 31.3336 25.8049 31.3382C25.7486 31.3443 25.697 31.3725 25.6615 31.4166C25.626 31.4607 25.6095 31.5171 25.6155 31.5734Z" fill="#2B2F36"/>
<path d="M27.6531 32.008C27.6582 32.0492 27.6753 32.0881 27.7024 32.1196C27.7295 32.1511 27.7653 32.174 27.8053 32.1852C27.8453 32.1965 27.8878 32.1956 27.9273 32.1828C27.9669 32.17 28.0017 32.1458 28.0275 32.1132C28.0534 32.0806 28.069 32.0411 28.0724 31.9997C28.0758 31.9582 28.0669 31.9167 28.0468 31.8803C28.0267 31.844 27.9963 31.8143 27.9594 31.7952C27.9225 31.776 27.8808 31.7682 27.8395 31.7727C27.7837 31.7796 27.7329 31.8082 27.6981 31.8522C27.6632 31.8962 27.6471 31.9521 27.6531 32.008Z" fill="#2B2F36"/>
<path d="M22.0011 29.8633C22.0011 29.8633 21.9278 30.4743 22.7893 30.4407C23.6508 30.4071 23.6233 31.8521 24.1579 31.7054C24.6925 31.5588 24.0113 30.4559 24.0357 29.68C24.0601 28.904 24.665 29.8663 25.1416 29.68C25.6182 29.4936 24.6711 28.5924 25.2455 28.348C25.8198 28.1036 27.6192 29.7625 28.2546 29.6953C28.89 29.628 28.6609 29.2065 28.6609 29.2065C28.6609 29.2065 29.0031 29.9091 29.3086 29.8938C29.3086 29.8938 28.7556 31.6749 29.6293 31.5618C29.6293 31.5618 30.3106 29.3928 29.6293 28.345C28.9481 27.2971 27.3962 26.6189 25.554 26.5731C23.7119 26.5273 21.8025 27.3521 22.0011 29.8633Z" fill="#5D341E"/>
<path d="M26.7672 33.116C26.6825 33.1161 26.5983 33.1048 26.5166 33.0824C26.5066 33.0807 26.4971 33.0769 26.4887 33.0711C26.4803 33.0654 26.4732 33.0579 26.468 33.0492C26.4628 33.0405 26.4595 33.0308 26.4584 33.0207C26.4573 33.0106 26.4584 33.0004 26.4617 32.9907C26.4667 32.9714 26.4791 32.9548 26.4963 32.9445C26.5134 32.9343 26.5339 32.9311 26.5533 32.9357C26.7916 32.9938 26.9871 32.9602 27.0635 32.8471C27.1399 32.7341 27.1001 32.5416 26.9474 32.3156C26.6602 31.9032 26.8588 30.7056 26.8649 30.6537C26.8693 30.6342 26.8809 30.6172 26.8973 30.6058C26.9137 30.5945 26.9338 30.5898 26.9535 30.5926C26.9636 30.5941 26.9733 30.5975 26.982 30.6028C26.9907 30.6081 26.9983 30.6151 27.0043 30.6233C27.0102 30.6316 27.0145 30.641 27.0168 30.6509C27.0191 30.6608 27.0194 30.6711 27.0177 30.6812C26.9627 31.0081 26.8649 31.9307 27.0727 32.23C27.3354 32.6089 27.259 32.841 27.1887 32.9327C27.1389 32.9955 27.0744 33.045 27.0008 33.077C26.9273 33.109 26.8471 33.1223 26.7672 33.116Z" fill="#2B2F36"/>
<path d="M28.4868 31.5549C28.442 31.384 28.3448 31.2315 28.209 31.1186C28.0731 31.0058 27.9053 30.9382 27.7291 30.9255C27.4236 30.895 27.4664 30.4367 27.7597 30.4673C28.0358 30.4893 28.2979 30.5977 28.509 30.777C28.7201 30.9562 28.8694 31.1974 28.9359 31.4663C29.0153 31.7534 28.5632 31.839 28.4868 31.5549Z" fill="#2B2F36"/>
<path d="M25.3615 30.8458C25.4791 30.7136 25.6352 30.6216 25.8078 30.5827C25.9804 30.5438 26.1609 30.5599 26.3238 30.6289C26.5988 30.7359 26.779 30.3234 26.5041 30.2073C26.2474 30.1018 25.9642 30.0792 25.6941 30.1427C25.424 30.2063 25.1806 30.3528 24.998 30.5617C24.7994 30.7817 25.1629 31.0627 25.3615 30.8458Z" fill="#2B2F36"/>
<path d="M25.3037 33.0029C25.9781 33.2637 26.6729 33.4681 27.3811 33.6139C27.3811 33.6139 27.0512 34.4724 26.2019 34.341C25.3526 34.2096 25.3037 33.0029 25.3037 33.0029Z" fill="#F1F1F1"/>
<path d="M23.2231 30.841C23.2231 30.7891 22.4594 29.3685 21.5796 30.0498C20.6997 30.731 21.0969 32.5793 22.9207 32.3899L23.2231 30.841Z" fill="#DE7E49"/>
<path d="M22.0013 32.4405C22.2761 32.5746 22.5911 32.6007 22.8842 32.5139C22.985 32.4741 22.9392 32.3061 22.8384 32.3489C22.5747 32.4242 22.2924 32.3981 22.0471 32.2756C21.9463 32.2328 21.9005 32.3978 22.0013 32.4405Z" fill="#2B2F36"/>
<path d="M21.6375 30.6357C21.9939 30.925 22.2477 31.3213 22.3615 31.766C22.3705 31.7846 22.3857 31.7995 22.4046 31.808C22.4234 31.8166 22.4446 31.8183 22.4645 31.8128C22.4845 31.8074 22.5019 31.7952 22.5137 31.7783C22.5256 31.7613 22.5312 31.7408 22.5295 31.7202C22.408 31.2471 22.1382 30.8253 21.7597 30.5165C21.6741 30.4463 21.5519 30.5654 21.6375 30.6357Z" fill="#2B2F36"/>
<path d="M25.5115 34.583C25.633 34.7495 25.8069 34.8701 26.0053 34.9256C26.2038 34.981 26.4151 34.968 26.6052 34.8885C26.6907 34.8427 26.6266 34.7052 26.541 34.7511C26.3801 34.8188 26.2006 34.8285 26.0334 34.7783C25.8661 34.7281 25.7216 34.6213 25.6246 34.4761C25.5635 34.4028 25.4474 34.5006 25.5085 34.5769L25.5115 34.583Z" fill="#A3562C"/>
<path d="M29.9441 28.6616C29.9441 28.6616 30.3993 27.3815 29.9441 26.3337C29.9441 26.3337 26.211 23.6697 22.2517 26.0282C21.7538 26.7827 21.7018 27.6901 21.9462 28.6493C21.9432 28.6463 26.7212 25.3316 29.9441 28.6616Z" fill="#464C54"/>
<path d="M31.7588 54.9382C31.7588 54.9382 37.5632 69.544 41.8188 69.5379C46.0744 69.5318 46.8289 58.6225 49.6548 55.0848C52.4806 51.5472 48.4328 50.9973 44.5255 49.4515C40.6182 47.9057 39.5306 54.0003 37.7343 50.8171C35.938 47.6338 34.1447 42.752 34.1447 42.752L31.7588 54.9382Z" fill="#2B2F36"/>
<path d="M34.4134 53.4259C35.4642 57.1387 36.2805 60.9139 36.8574 64.7292C36.8757 64.8392 37.0406 64.7934 37.0254 64.6834C36.4455 60.8686 35.6293 57.0936 34.5814 53.38C34.5724 53.3614 34.5571 53.3466 34.5383 53.338C34.5195 53.3295 34.4983 53.3278 34.4784 53.3332C34.4584 53.3386 34.441 53.3509 34.4292 53.3678C34.4173 53.3847 34.4117 53.4053 34.4134 53.4259Z" fill="#747D86"/>
<path d="M56.0119 44.8022C56.9467 44.2278 54.0445 39.4865 53.1066 40.0609C53.1066 40.0609 48.1423 44.0109 43.9417 46.9865C39.7412 49.962 34.2819 51.5689 34.2056 51.5689C34.5672 53.526 35.6415 55.2795 37.2208 56.4905C37.2605 56.4477 38.0487 55.6167 39.3104 54.4986C41.2629 52.7262 43.416 51.1883 45.7258 49.9162C50.293 47.515 56.0119 44.8022 56.0119 44.8022Z" fill="#B49346"/>
<path d="M37.2119 56.5016C37.2394 56.4558 37.6579 55.7104 36.4665 53.7674C35.2751 51.8245 34.2303 51.5862 34.1997 51.5801C34.5613 53.5371 35.6356 55.2906 37.215 56.5016H37.2119Z" fill="#97722F"/>
<path d="M36.7414 54.8464C36.9125 55.2222 36.885 55.323 36.833 55.3719C36.8176 55.386 36.799 55.3962 36.7788 55.4016C36.7585 55.4069 36.7373 55.4072 36.7169 55.4024C36.4114 55.3383 35.6446 54.214 35.1895 53.1326C35.1833 53.1163 35.1838 53.0984 35.1906 53.0824C35.1974 53.0665 35.2101 53.0538 35.2261 53.047C35.2419 53.0411 35.2595 53.0415 35.2749 53.0484C35.2903 53.0553 35.3025 53.068 35.3086 53.0837C35.8493 54.3485 36.5703 55.2436 36.7444 55.2741C36.8086 55.0541 35.773 53.3189 35.1589 52.7232C34.9756 52.543 34.9176 52.5582 34.9176 52.5613C34.9161 52.5694 34.9161 52.5777 34.9176 52.5857C34.7831 53.1112 35.9318 54.9594 36.4084 55.268C36.4161 55.2723 36.4229 55.2781 36.4282 55.2851C36.4336 55.2921 36.4375 55.3002 36.4396 55.3088C36.4417 55.3173 36.442 55.3263 36.4405 55.335C36.439 55.3437 36.4358 55.352 36.4309 55.3593C36.4261 55.3667 36.4197 55.373 36.4123 55.3778C36.4049 55.3827 36.3966 55.3859 36.3879 55.3874C36.3792 55.3888 36.3703 55.3885 36.3617 55.3863C36.3531 55.3842 36.3451 55.3803 36.3381 55.3749C35.9261 55.0049 35.5836 54.5642 35.3269 54.0735C35.1345 53.7436 34.6946 52.934 34.7923 52.546C34.7969 52.5142 34.8121 52.4849 34.8354 52.4628C34.8586 52.4406 34.8886 52.4269 34.9206 52.4238H34.9603C35.3605 52.5185 36.4389 54.1988 36.7414 54.8464Z" fill="#745423"/>
<path d="M42.9556 47.6423C43.2778 47.1581 43.7284 46.773 44.257 46.5303C45.0971 46.2248 46.8842 49.1209 46.3221 49.7472C45.76 50.3735 44.7213 50.4804 44.7213 50.4804C45.0268 50.3124 45.2804 50.1443 45.5095 50.0344C45.5095 50.0344 45.6256 49.4814 44.9474 48.3755C44.2692 47.2696 43.6674 47.178 43.6674 47.178L42.9556 47.6423Z" fill="#D0BC70"/>
<path d="M44.5014 46.9279L44.6389 47.2792L44.2601 47.2395C43.7887 47.1797 43.3207 47.0961 42.8578 46.989C41.8039 46.7324 41.2998 46.4147 41.2754 45.987C41.2665 45.8798 41.2989 45.7734 41.3659 45.6894C41.4329 45.6053 41.5294 45.55 41.6358 45.5348C42.1155 45.431 42.98 45.825 43.2367 45.9472C43.4933 46.0694 44.2234 46.4574 44.4586 46.8332C44.4758 46.8634 44.4901 46.8951 44.5014 46.9279ZM42.9739 46.543C43.1939 46.5949 43.4138 46.6407 43.6124 46.6743C43.2574 46.4485 42.8783 46.263 42.4821 46.1214C42.2518 46.0186 42.0009 45.9705 41.7489 45.9809C41.7642 46.0481 41.923 46.2925 42.9617 46.543H42.9739Z" fill="#D0BC70"/>
<path d="M44.5807 45.5011C44.5807 45.8647 44.6021 46.7475 44.318 47.0805L44.0736 47.3677L43.9331 47.0164C43.7579 46.5745 43.6089 46.1225 43.487 45.663C43.2121 44.6121 43.2518 44.0195 43.6154 43.7965C43.7054 43.7369 43.8148 43.7142 43.9211 43.733C44.0274 43.7517 44.1224 43.8105 44.1866 43.8973C44.2125 43.9291 44.236 43.9628 44.2569 43.9981C44.5166 44.4166 44.5716 45.2414 44.5807 45.5011ZM43.93 45.5439C43.985 45.7608 44.0522 45.9777 44.1133 46.1549C44.1445 45.7348 44.1281 45.3126 44.0644 44.8962C44.0462 44.6459 43.9698 44.4032 43.8414 44.1875C43.7956 44.2516 43.6581 44.5083 43.93 45.5439Z" fill="#D0BC70"/>
<path d="M45.3319 51.2377C45.3319 51.2377 44.2383 49.0992 43.3676 48.5127C42.4969 47.9261 41.7485 47.2326 42.0753 47.0463C42.322 46.9392 42.5976 46.9188 42.8574 46.9882C42.8574 46.9882 43.0071 46.4139 43.2301 46.3161C43.4856 46.2777 43.7467 46.3018 43.9908 46.3864C43.9908 46.3864 43.9664 45.5829 44.2719 45.5432C44.5665 45.518 44.8625 45.5129 45.1578 45.528C45.1936 45.4126 45.2585 45.3085 45.3462 45.2255C45.434 45.1426 45.5417 45.0837 45.6588 45.0544C46.0896 44.917 47.8798 44.0952 48.3319 49.0595C48.4297 50.1348 45.3319 51.2377 45.3319 51.2377Z" fill="#DE7E49"/>
<path d="M48.0263 53.4015L48.3104 49.0635L44.7422 50.2855L45.7656 53.3893C45.9978 53.93 48.2554 53.93 48.0263 53.4015Z" fill="#DE7E49"/>
<path d="M48.2218 49.6103C48.2218 49.6103 49.3949 48.6602 49.4438 47.7773L47.6108 48.813L48.2218 49.6103Z" fill="#DE7E49"/>
<path d="M11.6696 41.8506C8.85374 45.2439 6.21187 48.778 3.75419 52.4391C-0.571644 58.8331 -1.21624 60.5225 -0.947405 62.7893C-0.828261 63.8616 2.74605 74.554 7.13603 77.3951C11.468 80.1965 15.6899 76.6069 15.6899 71.2638C15.6899 65.9207 11.6696 41.8506 11.6696 41.8506Z" fill="#2B2F36"/>
<path d="M11.2664 74.4658C10.4293 74.9516 10.469 75.6512 10.9273 76.5035C11.1686 76.9556 11.1136 77.863 11.1717 78.309C11.3091 79.3843 11.1717 80.6888 11.3977 81.2112C11.7277 81.981 12.0943 81.1562 12.1248 81.0493C12.2656 80.4887 12.3677 79.9192 12.4303 79.3446C12.4303 79.3446 12.6778 81.1776 12.4853 81.865C12.2928 82.5523 12.6716 83.0869 13.2246 82.5432C13.7775 81.9994 13.9211 79.9312 13.805 79.3477C14.0601 79.9948 14.1341 80.6993 14.0189 81.3853C13.7898 82.3415 13.8356 82.7142 13.9486 83.0931C14.0617 83.4719 14.801 83.1755 15.0851 81.8344C15.3062 80.9855 15.2635 80.0893 14.9629 79.2652C15.2404 79.6531 15.4789 80.0675 15.6747 80.5024C16.0535 81.3059 15.6991 82.3904 16.1146 82.7234C16.5301 83.0564 16.8906 81.8069 16.7714 81.0157C16.6523 80.2244 16.637 79.6532 16.1146 78.7825C15.6944 78.0213 15.198 77.3048 14.6329 76.644C14.1961 76.198 12.8549 74.4078 11.9659 74.2734C11.7176 74.2553 11.4705 74.3233 11.2664 74.4658Z" fill="#DE7E49"/>
<path d="M8.55932 73.283L11.1469 77.5233L13.878 76.2799L12.045 71.896C11.819 71.3248 8.33936 72.7117 8.55932 73.283Z" fill="#DE7E49"/>
<path d="M13.4629 75.3906C13.4629 75.3906 15.1767 76.2216 15.5372 76.7531C15.8977 77.2847 16.7256 77.8988 16.3895 78.1706C16.0535 78.4425 15.0545 77.6635 15.0545 77.6635L13.4629 75.3906Z" fill="#DE7E49"/>
<path d="M11.138 62.609C8.97318 61.9265 6.72288 61.5532 4.4537 61.5C4.43102 61.5 4.40926 61.509 4.39322 61.5251C4.37718 61.5411 4.36816 61.5629 4.36816 61.5855C4.36816 61.6082 4.37718 61.63 4.39322 61.646C4.40926 61.6621 4.43102 61.6711 4.4537 61.6711C6.70807 61.7299 8.94288 62.1063 11.0921 62.7892C11.114 62.7953 11.1374 62.7924 11.1572 62.7812C11.1769 62.7701 11.1915 62.7515 11.1975 62.7296C11.2036 62.7077 11.2008 62.6844 11.1896 62.6646C11.1784 62.6448 11.1598 62.6303 11.138 62.6242V62.609Z" fill="#747D86"/>
<path d="M16.5021 55.1674C14.4644 57.5564 12.7781 60.1745 11.0917 62.8049C11.0337 62.8996 11.1834 62.9851 11.2414 62.8904C12.9186 60.2631 14.6019 57.6603 16.6243 55.2805C16.6946 55.198 16.5724 55.0758 16.5021 55.1583V55.1674Z" fill="#747D86"/>
<path d="M11.1076 62.8844C12.4732 66.1257 14.2298 69.2112 15.0791 72.6603C15.1035 72.7672 15.2715 72.7214 15.244 72.6145C14.3917 69.1746 12.6321 66.0891 11.2726 62.8386C11.2298 62.7378 11.0618 62.7805 11.1046 62.8844H11.1076Z" fill="#747D86"/>
<path d="M71.5833 43.7627C71.5833 43.7627 68.2839 64.622 65.2718 59.1597C62.898 54.8614 61.4836 56.3369 60.2127 56.8654C56.8523 58.2646 58.337 68.4041 62.3054 71.0038C65.7697 73.2737 69.5304 70.7503 69.5304 70.7503L71.5833 43.7627Z" fill="#2B2F36"/>
<path d="M66.888 60.1561C67.5693 60.7487 67.8656 61.653 68.0397 62.5114C68.0642 62.6184 68.2291 62.5725 68.2077 62.4656C68.0275 61.5797 67.7098 60.6326 67.0071 60.0216C66.9247 59.9483 66.8025 60.0705 66.888 60.1438V60.1561Z" fill="#747D86"/>
<path d="M82.8926 29.8138C83.5433 31.3047 83.4425 32.9666 83.8916 34.5093C84.2368 35.6885 84.973 36.8189 86.2011 37.1946C86.3417 37.2374 86.4242 37.0236 86.2836 36.9808C84.8722 36.55 84.2215 35.1478 83.9527 33.7945C83.6838 32.4411 83.6686 31.0175 83.1003 29.7191C83.0878 29.6916 83.0648 29.6702 83.0364 29.6596C83.0081 29.649 82.9767 29.6501 82.9491 29.6626C82.9216 29.6752 82.9001 29.6982 82.8895 29.7265C82.8789 29.7549 82.8801 29.7863 82.8926 29.8138Z" fill="#97722F"/>
<path d="M86.1006 36.9837C86.1006 36.9837 86.4458 38.3767 87.1087 38.78L88.1535 37.4083C88.1535 37.4083 87.5486 36.8737 86.1006 36.9837Z" fill="#97722F"/>
<path d="M85.85 37.4937C85.896 37.5326 85.9492 37.5619 86.0066 37.58C86.064 37.5981 86.1245 37.6046 86.1844 37.5992C86.2444 37.5938 86.3027 37.5766 86.3559 37.5485C86.4091 37.5205 86.4563 37.4821 86.4946 37.4357C86.5724 37.3421 86.6098 37.2215 86.5986 37.1003C86.5875 36.9791 86.5286 36.8673 86.435 36.7896C86.3415 36.7118 86.2208 36.6744 86.0996 36.6855C85.9785 36.6967 85.8667 36.7556 85.7889 36.8491C85.7116 36.9428 85.6747 37.0632 85.6861 37.1841C85.6976 37.3049 85.7565 37.4163 85.85 37.4937Z" fill="#97722F"/>
<path d="M68.0303 30.8219L74.6137 24.877L84.6921 29.8993L75.463 32.6213L68.0303 30.8219Z" fill="#2B2F36"/>
<path d="M91.0439 109.509C91.0439 109.594 91.0439 109.665 91.0286 109.717C90.7384 111.669 62.6816 112.585 57.873 100.885C57.9341 100.805 59.9749 98.1352 64.0441 101.92C68.1744 105.757 79.7985 110.871 87.9003 109.558C89.3056 109.338 90.329 109.341 91.0439 109.509Z" fill="#97722F"/>
<path d="M66.0571 87.498C66.0571 87.498 67.215 101.676 69.0724 113.117C69.0724 113.117 71.9135 131.325 71.8218 135.95C71.8218 135.95 72.6559 137.877 74.4216 135.925C74.4216 135.925 75.1182 130.863 75.1793 129.107C75.2556 126.928 76.557 116.887 74.9654 112.833C75.7259 109.969 76.2259 107.043 76.4593 104.09C76.9847 96.6721 75.3015 88.2862 75.3015 88.2862L66.0571 87.498Z" fill="#9E5536"/>
<path d="M73.7861 89.1683C73.7861 89.1683 74.8767 104.749 76.0712 107.553C77.2657 110.358 87.1547 135.289 87.1547 135.289C87.4876 137.046 90.1302 137.003 89.7972 135.249L89.4917 131.95C89.4917 131.95 87.8665 118.386 87.1577 115.383C86.449 112.38 83.4918 104.969 83.4918 104.969C83.4918 104.969 84.2372 90.7507 83.6964 86.4249C83.1557 82.0991 73.7861 89.1683 73.7861 89.1683Z" fill="#9E5536"/>
<path d="M74.241 92.8592C74.1198 94.6718 74.1423 96.4911 74.3082 98.3001C74.4725 100.336 74.7581 102.36 75.1636 104.361C75.3836 105.433 75.6371 106.5 75.9426 107.547C75.9487 107.578 75.943 107.609 75.9268 107.636C75.9105 107.662 75.8848 107.681 75.855 107.689C75.8251 107.698 75.7933 107.694 75.7659 107.68C75.7385 107.665 75.7176 107.641 75.7074 107.612C74.6126 103.773 74.016 99.81 73.9325 95.8195C73.9034 94.8323 73.9248 93.8442 73.9966 92.8592C73.9966 92.7034 74.2532 92.7004 74.241 92.8592Z" fill="#AB572A"/>
<path d="M80.5162 33.2816C80.5162 33.2816 82.7616 40.1644 85.6822 42.0188C85.6822 42.0188 80.0335 43.8518 76.0315 44.5605C75.2342 44.701 72.2403 44.8843 72.2403 44.8843C72.723 38.3803 72.6894 36.4526 71.5957 32.1543L80.5162 33.2816Z" fill="#2B2F36"/>
<path d="M91.0434 109.509C90.3163 109.34 89.2929 109.337 87.8876 109.564C79.7858 110.871 68.1617 105.757 64.0314 101.926C59.9622 98.1471 57.9215 100.811 57.8604 100.89C57.9337 100.637 67.1475 68.3001 68.9377 62.7034C70.7279 57.1067 68.0823 53.2483 68.5588 50.731C68.9224 48.7941 71.0273 48.6719 71.0273 45.8216C71.0273 42.9714 73.0221 42.7667 74.6046 41.9938C77.8979 40.3807 80.2166 40.0264 80.2166 40.0264C80.2166 40.0264 82.1259 41.4622 85.7155 41.7585C89.3051 42.0549 89.5373 48.3512 88.6422 52.5517C87.7471 56.7523 82.8775 60.7329 86.1005 72.5098C88.0434 79.5026 91.1686 106.301 91.0434 109.509Z" fill="#2B2F36"/>
<path d="M79.5845 78.5162C79.4114 79.3289 79.4344 80.1711 79.6516 80.9731C79.8688 81.7751 80.274 82.5138 80.8336 83.1281C81.3932 83.7423 82.0911 84.2144 82.8694 84.5051C83.6478 84.7959 84.4843 84.8971 85.3095 84.8002C85.4195 84.8002 85.4195 84.617 85.3095 84.6261C84.5101 84.7253 83.6986 84.6321 82.9426 84.3542C82.1865 84.0763 81.5078 83.6218 80.9629 83.0286C80.4181 82.4353 80.0228 81.7204 79.8102 80.9435C79.5975 80.1666 79.5735 79.3501 79.7403 78.562C79.7617 78.452 79.5967 78.4062 79.5753 78.5162H79.5845Z" fill="#747D86"/>
<path d="M65.9071 77.6206C65.9372 78.4335 65.7449 79.2393 65.3508 79.951C64.9567 80.6627 64.3759 81.2533 63.6709 81.6592C63.651 81.6706 63.6365 81.6893 63.6305 81.7114C63.6245 81.7335 63.6275 81.757 63.6388 81.7769C63.6501 81.7967 63.6689 81.8112 63.691 81.8172C63.713 81.8233 63.7366 81.8203 63.7564 81.8089C64.4874 81.3876 65.0898 80.7751 65.4989 80.0371C65.9079 79.2992 66.1082 78.4638 66.0782 77.6206C66.0782 77.5106 65.901 77.5106 65.9071 77.6206Z" fill="#747D86"/>
<path d="M58.7066 98.3095C59.8217 97.6343 61.2178 97.8115 62.342 98.3767C63.4663 98.9418 64.288 99.8492 65.1679 100.671C66.6738 102.024 68.3739 103.143 70.2116 103.992C74.1564 105.941 78.4179 107.169 82.795 107.618C85.5139 107.875 88.2176 107.633 90.9151 107.279C91.0251 107.264 91.0251 107.092 90.9151 107.108C88.502 107.477 86.0589 107.612 83.6199 107.511C81.2997 107.349 79.0035 106.94 76.7706 106.289C74.5825 105.671 72.4515 104.867 70.401 103.885C68.4645 102.991 66.6777 101.804 65.1037 100.365C64.1872 99.4948 63.2707 98.5325 62.0732 98.0528C60.9642 97.5946 59.672 97.5121 58.618 98.1506C58.5986 98.1624 58.5846 98.1813 58.5792 98.2034C58.5737 98.2255 58.5773 98.2488 58.589 98.2682C58.6008 98.2877 58.6197 98.3016 58.6418 98.3071C58.6639 98.3125 58.6872 98.309 58.7066 98.2972V98.3095Z" fill="#747D86"/>
<path d="M69.2222 55.5249C69.7721 60.923 68.1988 66.3456 66.2589 71.3282C66.2161 71.429 66.3841 71.4748 66.4238 71.374C68.3668 66.3792 69.9462 60.9383 69.3933 55.5249C69.3933 55.4149 69.21 55.4149 69.2222 55.5249Z" fill="#747D86"/>
<path d="M76.722 48.3511C73.7403 50.2115 74.3483 54.4152 74.1955 57.3999C73.9827 61.0167 73.4976 64.6124 72.7444 68.1564C71.2994 75.2317 69.1548 82.142 67.6121 89.1929C66.7179 93.1131 66.1266 97.0963 65.8433 101.107C65.8433 101.217 66.0082 101.217 66.0143 101.107C66.4543 94.0014 68.2078 87.0727 69.9858 80.2082C71.7516 73.4262 73.5784 66.6075 74.2047 59.6055C74.3849 57.5862 74.3574 55.5699 74.4705 53.5475C74.5744 51.6565 75.0815 49.5761 76.7984 48.5038C76.8931 48.4458 76.7984 48.2961 76.7128 48.3572L76.722 48.3511Z" fill="#747D86"/>
<path d="M71.4614 43.7599C71.4614 43.7599 73.0439 49.8301 78.3504 48.8495C83.6569 47.8688 86.4613 41.71 86.4613 41.71C85.6426 41.3251 82.8778 40.4697 81.0754 39.929C80.1314 39.6449 79.4502 39.4463 79.4502 39.4463L76.1508 40.6377L76.0255 40.7233C74.3894 41.5514 72.8574 42.5708 71.4614 43.7599Z" fill="#97722F"/>
<path d="M85.7251 41.4835C84.5398 43.5181 83.0184 45.403 80.9777 46.628C79.9675 47.2568 78.8396 47.6727 77.6631 47.85C77.0575 47.9486 76.4374 47.9086 75.8495 47.7329C75.2616 47.5572 74.7212 47.2505 74.269 46.8358C73.2792 45.9193 72.7018 44.6973 72.1305 43.4936C72.0694 43.3592 71.8708 43.4753 71.9319 43.6097C72.9095 45.7085 74.2262 48.0883 76.8535 48.1311C79.2975 48.1708 81.6895 46.7197 83.3606 45.0272C84.351 43.9993 85.208 42.8508 85.9115 41.6087C85.9222 41.5828 85.9232 41.5539 85.9142 41.5273C85.9053 41.5007 85.887 41.4783 85.8628 41.4641C85.8386 41.45 85.8101 41.445 85.7825 41.4503C85.7549 41.4555 85.7302 41.4706 85.7129 41.4926L85.7251 41.4835Z" fill="#745423"/>
<path d="M72.4296 43.2126C73.3919 45.1861 74.7116 47.3613 77.177 47.4163C79.4377 47.4652 81.625 45.8888 83.125 44.3185C83.9681 43.4338 84.6874 42.4391 85.2635 41.3613C85.3338 41.233 85.1382 41.1169 85.068 41.2452C83.8154 43.5487 81.9214 45.5711 79.5079 46.6648C78.0935 47.3032 76.453 47.4346 75.1363 46.5212C73.9387 45.6963 73.2605 44.3674 72.6404 43.0965C72.5762 42.9652 72.3776 43.0966 72.4418 43.2126H72.4296Z" fill="#745423"/>
<path d="M76.0162 40.7174C75.9643 42.5198 76.5844 44.5667 77.4734 46.4058L81.0661 39.9231C80.1221 39.639 79.4408 39.4404 79.4408 39.4404L76.1415 40.6319L76.0162 40.7174Z" fill="#F1F1F1"/>
<path d="M76.1352 41.3188C77.0334 43.4115 78.683 42.8463 80.6932 40.2099C79.2513 37.5643 79.2329 36.9747 78.5792 34.7109L75.3745 37.1549L75.4478 37.5368L75.9519 40.1091L76.1352 41.3188Z" fill="#9E5536"/>
<path d="M75.9517 40.1059C78.1268 39.2719 78.469 36.2383 78.469 36.2383L75.4629 37.5336L75.9517 40.1059Z" fill="#2B2F36"/>
<path d="M74.2412 34.8246C74.2412 34.7726 73.0589 33.6698 72.4388 34.5893C71.8186 35.5089 72.7748 37.1341 74.4367 36.3826L74.2412 34.8246Z" fill="#5D341E"/>
<path d="M79.4773 31.7665L79.5323 32.2522C79.5323 32.2522 79.6973 34.6046 79.2268 36.1656C78.7105 37.8886 74.9499 40.0271 73.569 37.7451C73.0038 36.8286 72.2584 33.3184 72.2584 33.3184L71.8613 32.6524C71.6597 30.9355 72.9061 29.7685 74.513 29.1301C74.5374 29.1301 74.513 29.1301 74.5405 29.1301C76.7767 28.7054 79.1871 29.2859 79.4773 31.7665Z" fill="#9E5536"/>
<path d="M72.0723 30.2384C72.7334 30.9491 73.5388 31.5102 74.4345 31.8843C75.3302 32.2584 76.2955 32.4368 77.2657 32.4074L78.2127 33.5531L79.725 33.5775C82.2942 33.5775 80.5345 27.4676 75.558 28.2924L72.0723 30.2384Z" fill="#2B2F36"/>
<path d="M75.5335 37.2412C75.4273 37.3682 75.2807 37.4549 75.1183 37.4866C74.9559 37.5183 74.7875 37.4931 74.6414 37.4154C74.5772 37.3726 74.6414 37.2687 74.7025 37.3115C74.826 37.3737 74.967 37.3922 75.1024 37.3639C75.2379 37.3356 75.3597 37.2622 75.4479 37.1557C75.5029 37.0976 75.5884 37.1862 75.5335 37.2412Z" fill="#5D341E"/>
<path d="M75.7016 35.79C75.1037 36.0309 74.4915 36.2349 73.8687 36.401C73.8687 36.401 74.2536 37.3175 75.0693 37.0731C75.9338 36.8226 75.7016 35.79 75.7016 35.79Z" fill="#F1F1F1"/>
<path d="M78.5332 35.6515C78.7638 35.7411 79.0157 35.7603 79.2572 35.7065C79.3458 35.7065 79.355 35.8287 79.2572 35.8409C78.9919 35.8981 78.7156 35.8758 78.4629 35.7768C78.4496 35.7673 78.4401 35.7534 78.4359 35.7376C78.4317 35.7217 78.4332 35.705 78.4401 35.6901C78.447 35.6753 78.4588 35.6633 78.4736 35.6563C78.4883 35.6492 78.5051 35.6475 78.521 35.6515H78.5332Z" fill="#2B2F36"/>
<path d="M77.1069 32.4228C77.1069 32.4228 77.4277 34.1458 78.6344 33.8373C79.8411 33.5287 78.2739 31.4116 77.1069 32.4228Z" fill="#2B2F36"/>
<path d="M74.8858 34.989C74.8203 34.807 74.8104 34.6097 74.8571 34.422C74.9038 34.2344 75.0052 34.0648 75.1483 33.9347C75.2915 33.8046 75.47 33.72 75.6613 33.6914C75.8525 33.6628 76.048 33.6916 76.2229 33.7742C76.3978 33.8567 76.5443 33.9893 76.6439 34.1551C76.7434 34.3209 76.7915 34.5125 76.7822 34.7057C76.7728 34.8989 76.7063 35.0849 76.5912 35.2403C76.476 35.3957 76.3173 35.5134 76.1353 35.5786C76.0145 35.6223 75.8864 35.6417 75.7581 35.6356C75.6299 35.6296 75.5041 35.5983 75.388 35.5435C75.2719 35.4887 75.1677 35.4115 75.0816 35.3164C74.9954 35.2212 74.9288 35.11 74.8858 34.989ZM75.0049 34.9462C75.0618 35.1042 75.1642 35.2417 75.2993 35.3415C75.4343 35.4413 75.5959 35.4988 75.7635 35.5067C75.9312 35.5147 76.0975 35.4728 76.2414 35.3864C76.3853 35.2999 76.5004 35.1727 76.572 35.0209C76.6436 34.8691 76.6687 34.6994 76.644 34.5334C76.6192 34.3673 76.5459 34.2123 76.4331 34.0879C76.3203 33.9636 76.1732 33.8754 76.0104 33.8346C75.8475 33.7938 75.6762 33.8022 75.5182 33.8587C75.3093 33.9347 75.1386 34.0896 75.0426 34.2901C74.9467 34.4905 74.9332 34.7206 75.0049 34.931V34.9462Z" fill="#F1F1F1"/>
<path d="M72.4449 35.4902C72.38 35.3081 72.3706 35.1108 72.4178 34.9234C72.465 34.7359 72.5668 34.5666 72.7102 34.437C72.8536 34.3073 73.0322 34.2231 73.2235 34.195C73.4147 34.1668 73.6101 34.196 73.7847 34.2789C73.9594 34.3617 74.1056 34.4945 74.2048 34.6605C74.304 34.8264 74.3518 35.018 74.3421 35.2111C74.3325 35.4042 74.2658 35.59 74.1505 35.7452C74.0352 35.9004 73.8764 36.0179 73.6944 36.0829C73.45 36.1692 73.1815 36.1553 72.9474 36.0443C72.7132 35.9332 72.5326 35.734 72.4449 35.4902ZM72.564 35.4474C72.6175 35.6084 72.7178 35.7498 72.8521 35.8535C72.9864 35.9571 73.1486 36.0184 73.3179 36.0293C73.4872 36.0403 73.6559 36.0004 73.8025 35.9149C73.949 35.8294 74.0667 35.7021 74.1404 35.5494C74.2142 35.3966 74.2407 35.2253 74.2165 35.0573C74.1924 34.8894 74.1186 34.7325 74.0048 34.6068C73.8909 34.481 73.7421 34.392 73.5774 34.3513C73.4127 34.3106 73.2397 34.32 73.0803 34.3782C72.8716 34.4537 72.7007 34.6078 72.6043 34.8076C72.5078 35.0074 72.4933 35.2371 72.564 35.4474Z" fill="#F1F1F1"/>
<path d="M76.6148 34.192H76.6392C77.2716 33.5291 78.4355 33.4314 78.4478 33.4314C78.4645 33.4291 78.4798 33.4206 78.4905 33.4076C78.5013 33.3945 78.5067 33.378 78.5058 33.3611C78.505 33.3527 78.5026 33.3445 78.4987 33.337C78.4947 33.3295 78.4893 33.3228 78.4828 33.3174C78.4762 33.312 78.4687 33.308 78.4606 33.3055C78.4525 33.303 78.444 33.3022 78.4355 33.3031C78.3867 33.3031 77.2136 33.4069 76.5476 34.1035C76.5415 34.1094 76.5366 34.1166 76.5333 34.1244C76.53 34.1323 76.5283 34.1407 76.5283 34.1493C76.5283 34.1578 76.53 34.1663 76.5333 34.1741C76.5366 34.182 76.5415 34.1891 76.5476 34.1951C76.5578 34.2012 76.5697 34.2042 76.5816 34.2037C76.5936 34.2031 76.6051 34.1991 76.6148 34.192Z" fill="#F1F1F1"/>
<path d="M73.5752 33.548C73.4577 33.5526 73.3422 33.5806 73.2355 33.6303C73.1288 33.68 73.033 33.7503 72.9537 33.8373C72.8745 33.9242 72.8132 34.0261 72.7736 34.1369C72.734 34.2477 72.7167 34.3653 72.7229 34.4828C72.7229 34.4828 73.1873 33.9573 73.5477 33.9848C73.5924 33.9926 73.6383 33.9888 73.6811 33.9738C73.7238 33.9589 73.7621 33.9332 73.7921 33.8993C73.8182 33.8635 73.8331 33.8207 73.8348 33.7765C73.8364 33.7322 73.8249 33.6885 73.8017 33.6508C73.7784 33.6131 73.7444 33.5832 73.7041 33.5649C73.6638 33.5466 73.6189 33.5407 73.5752 33.548Z" fill="#2B2F36"/>
<path d="M75.4143 33.208C75.524 33.1653 75.641 33.1448 75.7586 33.1477C75.8763 33.1506 75.9922 33.1769 76.0996 33.2249C76.207 33.2729 76.3038 33.3418 76.3844 33.4275C76.465 33.5132 76.5278 33.6141 76.5691 33.7243C76.5691 33.7243 75.9306 33.4188 75.6129 33.596C75.5756 33.6213 75.5323 33.6365 75.4874 33.6402C75.4425 33.644 75.3973 33.6361 75.3563 33.6173C75.3179 33.5951 75.287 33.5618 75.2675 33.5219C75.2481 33.4819 75.2411 33.4371 75.2473 33.3931C75.2536 33.3491 75.2728 33.308 75.3025 33.275C75.3323 33.242 75.3712 33.2187 75.4143 33.208Z" fill="#2B2F36"/>
<path d="M74.7148 35.8375C74.5376 35.7092 74.3696 35.5687 74.1954 35.4373C74.1872 35.4311 74.1805 35.423 74.1759 35.4137C74.1713 35.4044 74.1689 35.3942 74.1689 35.3839C74.1689 35.3735 74.1713 35.3633 74.1759 35.354C74.1805 35.3448 74.1872 35.3367 74.1954 35.3304C74.3085 35.2357 74.5406 35.0829 74.5773 34.9455C74.594 34.8146 74.594 34.6822 74.5773 34.5514L74.559 33.7143C74.559 33.6288 74.6903 33.6166 74.6934 33.7143C74.6934 34.0443 74.7087 34.3772 74.7178 34.7102C74.7311 34.8116 74.7311 34.9143 74.7178 35.0157C74.6628 35.1868 74.4123 35.3548 74.281 35.4648V35.3548C74.4551 35.4862 74.6201 35.6267 74.7973 35.755C74.8706 35.8039 74.782 35.9078 74.7117 35.8589L74.7148 35.8375Z" fill="#2B2F36"/>
<path d="M74.9228 34.8918C74.9306 34.8894 74.9379 34.8855 74.9442 34.8803C74.9505 34.875 74.9557 34.8686 74.9594 34.8613C74.9635 34.8537 74.9659 34.8454 74.9666 34.8369C74.9672 34.8283 74.9661 34.8198 74.9632 34.8117C74.9603 34.8036 74.9558 34.7963 74.9499 34.7901C74.944 34.7839 74.9368 34.779 74.9289 34.7757C74.8715 34.7374 74.8068 34.7114 74.7389 34.6992C74.6709 34.6871 74.6012 34.6891 74.5341 34.7052C74.467 34.7212 74.4039 34.751 74.3488 34.7926C74.2937 34.8341 74.2478 34.8867 74.214 34.9468C74.2089 34.9614 74.2093 34.9774 74.215 34.9917C74.2208 35.0061 74.2315 35.0179 74.2453 35.025C74.2591 35.032 74.2749 35.0339 74.2899 35.0302C74.305 35.0265 74.3181 35.0175 74.327 35.0049C74.3423 34.9712 74.492 34.6994 74.8739 34.8888C74.8812 34.893 74.8895 34.8955 74.898 34.896C74.9065 34.8966 74.9149 34.8951 74.9228 34.8918Z" fill="#F1F1F1"/>
<path d="M75.604 34.5283C75.6109 34.584 75.6395 34.6348 75.6835 34.6696C75.7275 34.7045 75.7835 34.7206 75.8393 34.7146C75.8953 34.707 75.946 34.6778 75.9809 34.6333C76.0157 34.5888 76.0317 34.5325 76.0256 34.4763C76.0222 34.4485 76.0134 34.4217 75.9995 34.3974C75.9856 34.3731 75.9671 34.3518 75.9449 34.3347C75.9227 34.3177 75.8974 34.3052 75.8703 34.298C75.8433 34.2909 75.8151 34.2892 75.7873 34.293C75.7597 34.296 75.7329 34.3046 75.7086 34.3181C75.6843 34.3316 75.663 34.3499 75.6459 34.3719C75.6288 34.3938 75.6163 34.4189 75.6091 34.4458C75.6019 34.4727 75.6002 34.5007 75.604 34.5283Z" fill="#2B2F36"/>
<path d="M73.5724 34.9124C73.5754 34.9402 73.5839 34.9671 73.5974 34.9915C73.6109 35.0159 73.6291 35.0374 73.651 35.0548C73.6729 35.0721 73.698 35.0849 73.7249 35.0925C73.7518 35.1 73.7799 35.1022 73.8076 35.0988C73.8635 35.0923 73.9145 35.0639 73.9495 35.0198C73.9844 34.9756 74.0004 34.9195 73.994 34.8635C73.9875 34.8076 73.959 34.7566 73.9149 34.7217C73.8708 34.6867 73.8146 34.6707 73.7587 34.6772C73.731 34.6802 73.7041 34.6887 73.6797 34.7022C73.6552 34.7157 73.6337 34.734 73.6164 34.7558C73.599 34.7777 73.5862 34.8028 73.5787 34.8297C73.5711 34.8566 73.569 34.8847 73.5724 34.9124Z" fill="#2B2F36"/>
<path d="M78.1577 34.0483C78.1577 33.9964 79.0162 32.7744 79.8318 33.5259C80.6475 34.2774 80.2107 36.0218 78.4174 35.6644L78.1577 34.0483Z" fill="#9E5536"/>
<path d="M79.8256 34.0388C79.4473 34.2985 79.1616 34.672 79.0099 35.105C78.9793 35.1875 78.8571 35.1294 78.8877 35.0469C79.0491 34.5915 79.3507 34.199 79.7492 33.9258C79.7642 33.9156 79.7826 33.9119 79.8003 33.9153C79.8181 33.9187 79.8338 33.9291 79.8439 33.9441C79.854 33.9591 79.8578 33.9775 79.8543 33.9952C79.8509 34.013 79.8405 34.0287 79.8256 34.0388Z" fill="#2B2F36"/>
<path d="M75.4967 29.5847C75.4967 29.5847 73.8073 32.6885 72.5028 34.051C72.5028 34.051 71.1372 32.7282 71.7146 30.8708C72.6311 27.9747 75.7258 28.2282 76.5751 28.3963L75.4967 29.5847Z" fill="#2B2F36"/>
<path d="M71.5928 31.4666C71.6668 30.6313 71.9012 29.8181 72.2832 29.0715C72.2832 29.0715 76.4716 26.7406 80.1009 29.5664C80.5591 29.988 81.1945 31.0511 80.9563 31.8302C80.9624 31.8302 75.1915 28.5736 71.5928 31.4666Z" fill="#464C54"/>
<path d="M88.1565 43.4639C88.1565 43.4639 91.6025 49.0422 92.1432 55.4057C92.684 61.7692 95.1982 67.7478 97.1228 68.6612C99.0474 69.5747 95.3693 76.32 90.7074 77.8445C86.0455 79.3689 82.459 66.8466 82.459 66.8466L88.1565 43.4639Z" fill="#2B2F36"/>
<path d="M86.9868 76.6951C84.7536 71.6299 85.5143 65.9813 85.4105 60.6137C85.3922 59.0569 85.2574 57.5037 85.0072 55.9671C84.9889 55.8602 84.8239 55.906 84.8422 56.0129C85.774 61.4874 84.6651 67.078 85.5968 72.5556C85.8358 74.0107 86.2534 75.4308 86.8402 76.7836C86.883 76.8845 87.0326 76.7836 86.9868 76.6951Z" fill="#747D86"/>
<path d="M98.4579 79.625C98.4579 79.625 99.3744 81.0272 99.4324 81.626C99.4905 82.2248 99.8663 83.459 99.6249 83.7156C99.3836 83.9722 98.3174 81.0822 98.3174 81.0822L98.4579 79.625Z" fill="#5D341E"/>
<path d="M93.7534 77.0962C93.8112 77.8946 94.0098 78.6765 94.34 79.4058C94.8349 80.3223 95.1404 82.1094 95.9591 82.4821C96.7778 82.8548 96.2157 81.7153 96.0935 81.2601C95.9713 80.8049 95.9774 80.1053 96.2218 80.0779C96.4662 80.0504 97.01 80.6033 97.5507 81.4495C98.0915 82.2958 98.8674 84.2907 99.3684 84.5656C99.8695 84.8405 99.399 83.4841 99.2646 82.7051C99.1302 81.9261 98.9591 81.422 98.675 80.0259C98.4642 78.9933 96.4937 77.087 95.5009 76.2011C95.5009 76.2042 94.7402 75.6695 93.7534 77.0962Z" fill="#9E5536"/>
<path d="M93.9394 71.976C93.5361 71.2825 90.8844 72.8131 91.2907 73.5035L93.7744 77.3069C94.9781 78.0615 95.4058 76.4301 95.4058 76.4301L93.9394 71.976Z" fill="#9E5536"/>
<path d="M65.2721 68.0835C65.4676 69.1008 60.32 70.0998 60.1214 69.0825C60.1214 69.0825 59.709 63.11 59.1041 58.2862C58.4992 53.4624 56.1347 48.6478 56.1011 48.5806C57.6933 47.585 59.5984 47.216 61.4473 47.545C61.4473 47.5969 61.3678 48.6753 61.3892 50.267C61.3981 52.76 61.6995 55.2433 62.2874 57.6661C63.5277 62.3707 65.2721 68.0835 65.2721 68.0835Z" fill="#B49346"/>
<path d="M61.4473 47.545C61.432 47.5908 61.1784 48.3576 59.0705 48.767C56.9626 49.1763 56.1255 48.5989 56.1011 48.5806C57.6933 47.585 59.5984 47.216 61.4473 47.545Z" fill="#97722F"/>
<path d="M57.1759 48.5532C57.1646 48.5465 57.1551 48.537 57.1484 48.5257C57.1301 48.5021 57.1201 48.4731 57.1201 48.4432C57.1201 48.4134 57.1301 48.3843 57.1484 48.3607C57.3531 48.0553 58.1963 47.8383 58.5506 47.7498C59.0556 47.6174 59.5799 47.575 60.0995 47.6245C60.1074 47.6266 60.1148 47.6303 60.1212 47.6353C60.1276 47.6403 60.133 47.6465 60.137 47.6537C60.141 47.6608 60.1435 47.6686 60.1444 47.6767C60.1453 47.6848 60.1446 47.6931 60.1423 47.7009C60.1405 47.7086 60.1372 47.716 60.1325 47.7224C60.1278 47.7288 60.1218 47.7342 60.1149 47.7382C60.108 47.7422 60.1004 47.7448 60.0925 47.7457C60.0846 47.7466 60.0766 47.7459 60.0689 47.7436C59.5496 47.6092 57.5333 47.985 57.2523 48.4157C57.2497 48.4237 57.2497 48.4322 57.2523 48.4402C57.2523 48.4402 57.2767 48.4891 57.5181 48.5013C58.3246 48.5502 60.1911 48.1652 60.3042 47.9819C60.1698 47.8811 59.0822 47.9514 57.8602 48.3821C57.8448 48.3869 57.8281 48.3854 57.8138 48.378C57.7995 48.3706 57.7887 48.3578 57.7838 48.3424C57.781 48.335 57.7796 48.3271 57.7799 48.3192C57.7802 48.3112 57.7822 48.3034 57.7856 48.2963C57.789 48.2891 57.7939 48.2827 57.7999 48.2775C57.8059 48.2723 57.8129 48.2684 57.8205 48.266C58.8683 47.8964 60.1331 47.71 60.3775 47.8872C60.3945 47.8977 60.4083 47.9127 60.4175 47.9304C60.4266 47.9482 60.4308 47.9681 60.4294 47.988C60.4294 48.0522 60.3775 48.1377 60.0048 48.2569C59.351 48.4738 57.4936 48.7915 57.1759 48.5532Z" fill="#745423"/>
<path d="M58.9361 57.1838C58.8044 57.7172 58.8234 58.2767 58.9911 58.7999C59.2966 59.585 62.4676 58.9802 62.547 58.1889C62.6265 57.3977 62.0369 56.6064 62.0369 56.6064C62.1132 56.9119 62.1591 57.2174 62.2293 57.4405C62.2293 57.4405 61.9238 57.8743 60.7018 58.1064C59.4799 58.3386 59.0522 57.9781 59.0522 57.9781L58.9361 57.1838Z" fill="#D0BC70"/>
<path d="M62.1098 58.2069C62.1098 58.2069 62.9713 57.9228 62.9621 57.2904C62.953 56.6581 62.6292 56.2426 62.4672 55.6499C62.3053 55.0573 61.6699 55.5919 61.7554 56.209C61.841 56.8261 62.1098 58.2069 62.1098 58.2069Z" fill="#9E5536"/>
<path d="M59.4247 61.0912C60.2984 61.5036 62.5713 60.7643 62.7668 60.3947C62.8559 60.2619 62.8964 60.1023 62.8813 59.9431C62.8663 59.7839 62.7967 59.6347 62.6843 59.521C62.7436 59.5001 62.7982 59.4677 62.845 59.4256C62.8917 59.3836 62.9296 59.3327 62.9566 59.2759C62.9836 59.2191 62.9991 59.1575 63.0021 59.0947C63.0052 59.0319 62.9958 58.9691 62.9745 58.91C62.9626 58.7812 62.9054 58.6608 62.8131 58.5702C62.7208 58.4796 62.5994 58.4246 62.4705 58.4151C62.4705 58.4151 62.7973 58.0423 62.7301 57.8041C62.6171 57.4161 62.1191 57.2481 62.1191 57.2481C62.1191 57.2481 62.4246 56.8845 62.2138 56.6859C61.8503 56.3468 60.9247 56.9914 60.2251 56.8387C59.5255 56.6859 59.1955 56.689 58.8748 56.7776C58.554 56.8662 58.6548 57.6513 58.9145 57.7827C58.9756 57.8132 58.6548 58.134 58.7006 58.4426C58.7177 58.5588 58.7592 58.67 58.8224 58.769C58.8856 58.868 58.969 58.9525 59.0672 59.0169C59.0672 59.0169 58.7404 59.4935 58.8412 59.8387C58.8703 59.9388 58.9206 60.0314 58.9886 60.1105C59.0565 60.1895 59.1407 60.2531 59.2353 60.2969C59.2353 60.2969 58.8717 60.6666 59.4247 61.0912Z" fill="#9E5536"/>
<path d="M62.7181 59.5148C61.9559 59.859 61.1388 60.0659 60.3047 60.1258C60.1947 60.1258 60.1947 60.303 60.3047 60.2969C61.154 60.2398 61.9866 60.033 62.7639 59.6859C62.8647 59.6431 62.8219 59.4781 62.7181 59.5178V59.5148Z" fill="#5D341E"/>
<path d="M62.4428 58.4237C61.6058 58.8133 60.6896 59.0026 59.7667 58.9767C59.744 58.9767 59.7222 58.9857 59.7062 59.0017C59.6902 59.0178 59.6812 59.0395 59.6812 59.0622C59.6812 59.0849 59.6902 59.1067 59.7062 59.1227C59.7222 59.1388 59.744 59.1478 59.7667 59.1478C60.7203 59.1727 61.6667 58.9761 62.5314 58.5734C62.6323 58.5246 62.5314 58.3749 62.4428 58.4237Z" fill="#5D341E"/>
<path d="M62.1406 57.2073C61.4174 57.4943 60.6535 57.6654 59.8769 57.7144C59.7669 57.7144 59.7669 57.8947 59.8769 57.8855C60.669 57.8374 61.4485 57.6642 62.1865 57.3723C62.2873 57.3326 62.2415 57.1676 62.1406 57.2073Z" fill="#5D341E"/>
</g>
<defs>
<clipPath id="clip0_78_3305">
<rect width="100" height="100" rx="50" fill="white"/>
</clipPath>
</defs>
</svg>
