<svg width="76" height="76" viewBox="0 0 76 76" fill="none" xmlns="http://www.w3.org/2000/svg">
<g clip-path="url(#clip0_8_4666)">
<rect width="76" height="76" rx="38" fill="#5CEF62"/>
<path d="M35.1038 77.5555C40.0764 77.5608 45.0043 76.6158 49.6222 74.7712C49.0772 69.9923 47.5275 63.6822 43.4604 58.0283C38.0145 59.9512 32.0744 59.9512 26.6285 58.0283C26.102 58.9329 21.401 67.1598 20.1553 74.5784C24.8938 76.5442 29.9736 77.5558 35.1038 77.5555Z" fill="#676F7B"/>
<path d="M16.1104 72.6353C17.4197 73.3644 18.7702 74.0168 20.1552 74.5892C21.4009 67.1742 26.0871 58.9437 26.6284 58.0391L26.7953 58.0984C26.3652 57.9501 25.9425 57.7907 25.5273 57.6201C24.4855 58.7731 18.0716 66.0361 16.1104 72.6353Z" fill="#555A60"/>
<path d="M45.1738 57.4648L44.9439 57.4463L43.4609 58.0284C47.5391 63.6822 49.0778 69.9923 49.6228 74.7713C51.3513 74.0811 53.0277 73.2671 54.6389 72.3355C52.3885 65.2208 45.1738 57.4648 45.1738 57.4648Z" fill="#555A60"/>
<path d="M30.1542 59.0066C29.5412 58.888 28.9369 58.7471 28.3412 58.584L25.2529 62.4509L28.8603 64.3639L25.746 67.0407L32.5529 77.455C33.0868 77.4883 33.6244 77.5143 34.1657 77.5254L30.1542 59.0066Z" fill="#555A60"/>
<path d="M41.5658 58.6182C40.9615 58.7813 40.3423 58.9222 39.7121 59.0408L35.708 77.5448C36.2419 77.5448 36.7758 77.5188 37.3059 77.4892L44.1128 67.0415L40.9986 64.3647L44.6059 62.4517L41.5658 58.6182Z" fill="#555A60"/>
<path d="M39.3083 60.9757L37.8846 60.2342L36.4943 59.4482C36 59.4779 35.5056 59.4927 35.0113 59.4927C34.3959 59.4927 33.7879 59.4705 33.1835 59.4297L31.6338 60.1934L30.6143 61.1425L34.1512 77.5406C34.4626 77.5406 34.774 77.5406 35.0892 77.5406C35.4043 77.5406 35.6712 77.5406 35.9604 77.5406H35.7083L39.3083 60.9757Z" fill="#FBFEFD"/>
<path d="M37.8328 60.2862V59.3223C36.9009 59.4266 35.9639 59.4786 35.0262 59.478C34.147 59.4773 33.2684 59.4315 32.3939 59.3408V60.2862L33.6544 63.2522L30.6885 72.8286L35.0818 76.4693L39.4752 72.8286L36.5463 63.2522L37.8328 60.2862Z" fill="#AA1E1B"/>
<path d="M30.1542 59.0066C29.5412 58.888 28.9369 58.7471 28.3412 58.584L25.2529 62.4509L28.8603 64.3639L25.746 67.0407L32.5529 77.455C33.0868 77.4883 33.6244 77.5143 34.1657 77.5254L30.1542 59.0066Z" fill="#555A60"/>
<path d="M41.5658 58.6182C40.9615 58.7813 40.3423 58.9222 39.7121 59.0408L35.708 77.5448C36.2419 77.5448 36.7758 77.5188 37.3059 77.4892L44.1128 67.0415L40.9986 64.3647L44.6059 62.4517L41.5658 58.6182Z" fill="#555A60"/>
<path d="M30.125 59.0029H30.1547L30.974 62.7808L35.0226 59.4738C33.3786 59.4759 31.7384 59.3182 30.125 59.0029Z" fill="#E5E6E7"/>
<path d="M39.7121 59.04H39.7492C38.1871 59.3355 36.6009 59.4844 35.0111 59.4849H34.9629L38.915 62.7216L39.7121 59.04Z" fill="#E5E6E7"/>
<path d="M46.5375 66.0137H40.0939C39.7336 66.0137 39.4414 66.3058 39.4414 66.6662V70.3885C39.4414 70.7488 39.7336 71.041 40.0939 71.041H46.5375C46.8979 71.041 47.19 70.7488 47.19 70.3885V66.6662C47.19 66.3058 46.8979 66.0137 46.5375 66.0137Z" fill="#D5DADB"/>
<path d="M46.5341 66.1846H40.0943C39.8281 66.1846 39.6123 66.4004 39.6123 66.6665V70.3851C39.6123 70.6513 39.8281 70.8671 40.0943 70.8671H46.5341C46.8003 70.8671 47.0161 70.6513 47.0161 70.3851V66.6665C47.0161 66.4004 46.8003 66.1846 46.5341 66.1846Z" fill="#F9F9F9"/>
<path d="M43.5236 65.376H43.1047C43.0526 65.376 43.0026 65.3967 42.9658 65.4335C42.9289 65.4704 42.9082 65.5204 42.9082 65.5725V66.314C42.9082 66.3661 42.9289 66.4161 42.9658 66.4529C43.0026 66.4898 43.0526 66.5105 43.1047 66.5105H43.5236C43.5758 66.5105 43.6257 66.4898 43.6626 66.4529C43.6994 66.4161 43.7201 66.3661 43.7201 66.314V65.5725C43.7201 65.5204 43.6994 65.4704 43.6626 65.4335C43.6257 65.3967 43.5758 65.376 43.5236 65.376ZM43.3123 66.314C43.2896 66.314 43.2674 66.3072 43.2485 66.2946C43.2296 66.282 43.2148 66.264 43.2061 66.243C43.1974 66.222 43.1952 66.1989 43.1996 66.1766C43.204 66.1543 43.215 66.1338 43.231 66.1178C43.2471 66.1017 43.2676 66.0907 43.2899 66.0863C43.3122 66.0819 43.3353 66.0842 43.3563 66.0928C43.3773 66.1015 43.3952 66.1163 43.4079 66.1352C43.4205 66.1541 43.4272 66.1763 43.4272 66.199C43.43 66.2156 43.429 66.2326 43.4245 66.2487C43.4199 66.2649 43.4119 66.2798 43.4009 66.2926C43.39 66.3053 43.3764 66.3155 43.361 66.3224C43.3457 66.3293 43.3291 66.3327 43.3123 66.3325V66.314Z" fill="#FFCD50"/>
<path d="M43.1753 69.0138C43.1525 69.0138 43.1308 69.0099 43.1105 69.0019C43.0906 68.994 43.074 68.9835 43.0605 68.9706L43.0948 68.9162C43.1048 68.9266 43.1167 68.9353 43.1306 68.9423C43.1445 68.9492 43.1587 68.9527 43.1731 68.9527C43.1969 68.9527 43.2158 68.9443 43.2297 68.9274C43.2436 68.91 43.2506 68.8809 43.2506 68.8402V68.4832H43.3214V68.8327C43.3214 68.8958 43.308 68.9418 43.2811 68.9706C43.2543 68.9994 43.219 69.0138 43.1753 69.0138ZM43.6639 69.0138C43.6252 69.0138 43.5906 69.0069 43.5603 68.993C43.53 68.9786 43.5042 68.9592 43.4828 68.9348C43.462 68.91 43.4458 68.8812 43.4344 68.8484C43.4235 68.8156 43.418 68.7806 43.418 68.7433C43.418 68.6921 43.4277 68.6464 43.4471 68.6062C43.4669 68.5655 43.4953 68.5334 43.532 68.5101C43.5688 68.4862 43.6128 68.4743 43.6639 68.4743C43.7022 68.4743 43.7365 68.4813 43.7668 68.4952C43.7976 68.5091 43.8236 68.5285 43.845 68.5533C43.8664 68.5781 43.8825 68.6067 43.8934 68.639C43.9049 68.6713 43.9106 68.7061 43.9106 68.7433C43.9106 68.7806 43.9049 68.8156 43.8934 68.8484C43.8825 68.8812 43.8664 68.91 43.845 68.9348C43.8236 68.9592 43.7978 68.9786 43.7675 68.993C43.7372 69.0069 43.7027 69.0138 43.6639 69.0138ZM43.6639 68.9527C43.7022 68.9527 43.7342 68.9435 43.7601 68.9251C43.7859 68.9068 43.8053 68.8819 43.8182 68.8506C43.8316 68.8188 43.8383 68.7831 43.8383 68.7433C43.8383 68.7165 43.8343 68.6907 43.8264 68.6658C43.8184 68.641 43.807 68.6189 43.7921 68.5995C43.7772 68.5796 43.7588 68.564 43.737 68.5525C43.7156 68.5411 43.6913 68.5354 43.6639 68.5354C43.6277 68.5354 43.5964 68.5446 43.57 68.563C43.5442 68.5814 43.5243 68.6062 43.5104 68.6375C43.497 68.6688 43.4903 68.7041 43.4903 68.7433C43.4903 68.7701 43.494 68.7962 43.5015 68.8216C43.5094 68.8464 43.5208 68.8688 43.5358 68.8886C43.5507 68.9085 43.5688 68.9242 43.5902 68.9356C43.612 68.947 43.6366 68.9527 43.6639 68.9527ZM44.0147 69.0049V68.4832H44.0855V68.7061H44.3426V68.4832H44.4134V69.0049H44.3426V68.7672H44.0855V69.0049H44.0147ZM44.5474 69.0049V68.4832H44.6413L44.8716 68.9169V68.4832H44.9387V69.0049H44.8462L44.6145 68.5742V69.0049H44.5474ZM45.4334 69.0108C45.4051 69.0108 45.3802 69.0101 45.3589 69.0086C45.338 69.0071 45.3171 69.0054 45.2963 69.0034V68.4847C45.3196 68.4822 45.3425 68.4805 45.3648 68.4795C45.3872 68.478 45.4128 68.4773 45.4416 68.4773C45.4863 68.4773 45.5248 68.4842 45.5571 68.4981C45.5899 68.5121 45.6167 68.5312 45.6376 68.5555C45.6589 68.5799 45.6746 68.6082 45.6845 68.6405C45.6949 68.6723 45.7002 68.7066 45.7002 68.7433C45.7002 68.7796 45.6949 68.8139 45.6845 68.8462C45.6741 68.8784 45.6579 68.907 45.6361 68.9319C45.6147 68.9562 45.5871 68.9756 45.5534 68.99C45.5201 69.0039 45.4801 69.0108 45.4334 69.0108ZM45.4356 68.949C45.4803 68.949 45.5168 68.9403 45.5452 68.9229C45.5735 68.9055 45.5943 68.8814 45.6078 68.8506C45.6212 68.8193 45.6279 68.7836 45.6279 68.7433C45.6279 68.7075 45.6212 68.674 45.6078 68.6427C45.5943 68.6114 45.5737 68.5863 45.5459 68.5675C45.5181 68.5481 45.4826 68.5384 45.4393 68.5384C45.4249 68.5384 45.4118 68.5389 45.3998 68.5399C45.3879 68.5404 45.377 68.5411 45.3671 68.5421V68.9453C45.3775 68.9468 45.3884 68.9478 45.3998 68.9482C45.4113 68.9487 45.4232 68.949 45.4356 68.949ZM46.0203 69.0138C45.9816 69.0138 45.9471 69.0069 45.9167 68.993C45.8864 68.9786 45.8606 68.9592 45.8392 68.9348C45.8184 68.91 45.8022 68.8812 45.7908 68.8484C45.7799 68.8156 45.7744 68.7806 45.7744 68.7433C45.7744 68.6921 45.7841 68.6464 45.8035 68.6062C45.8233 68.5655 45.8517 68.5334 45.8884 68.5101C45.9252 68.4862 45.9692 68.4743 46.0203 68.4743C46.0586 68.4743 46.0929 68.4813 46.1232 68.4952C46.154 68.5091 46.1801 68.5285 46.2014 68.5533C46.2228 68.5781 46.2389 68.6067 46.2499 68.639C46.2613 68.6713 46.267 68.7061 46.267 68.7433C46.267 68.7806 46.2613 68.8156 46.2499 68.8484C46.2389 68.8812 46.2228 68.91 46.2014 68.9348C46.1801 68.9592 46.1542 68.9786 46.1239 68.993C46.0936 69.0069 46.0591 69.0138 46.0203 69.0138ZM46.0203 68.9527C46.0586 68.9527 46.0906 68.9435 46.1165 68.9251C46.1423 68.9068 46.1617 68.8819 46.1746 68.8506C46.188 68.8188 46.1947 68.7831 46.1947 68.7433C46.1947 68.7165 46.1907 68.6907 46.1828 68.6658C46.1748 68.641 46.1634 68.6189 46.1485 68.5995C46.1336 68.5796 46.1152 68.564 46.0934 68.5525C46.072 68.5411 46.0477 68.5354 46.0203 68.5354C45.9841 68.5354 45.9528 68.5446 45.9264 68.563C45.9006 68.5814 45.8807 68.6062 45.8668 68.6375C45.8534 68.6688 45.8467 68.7041 45.8467 68.7433C45.8467 68.7701 45.8504 68.7962 45.8579 68.8216C45.8658 68.8464 45.8773 68.8688 45.8922 68.8886C45.9071 68.9085 45.9252 68.9242 45.9466 68.9356C45.9684 68.947 45.993 68.9527 46.0203 68.9527ZM46.3711 69.0049V68.4832H46.6841V68.5443H46.4419V68.7031H46.6506V68.7627H46.4419V68.9438H46.6841V69.0049H46.3711Z" fill="#3C4B51"/>
<path d="M43.1105 69.0019L43.0933 69.0449L43.0936 69.0451L43.1105 69.0019ZM43.0605 68.9706L43.0213 68.9459L43.0012 68.9778L43.0284 69.004L43.0605 68.9706ZM43.0948 68.9162L43.1284 68.8842L43.0873 68.8411L43.0556 68.8915L43.0948 68.9162ZM43.1306 68.9423L43.1513 68.9008L43.1513 68.9008L43.1306 68.9423ZM43.2297 68.9274L43.2655 68.9568L43.2659 68.9563L43.2297 68.9274ZM43.2506 68.4832V68.4369H43.2042V68.4832H43.2506ZM43.3214 68.4832H43.3677V68.4369H43.3214V68.4832ZM43.2811 68.9706L43.2472 68.939L43.2811 68.9706ZM43.1753 68.9675C43.158 68.9675 43.1421 68.9645 43.1273 68.9587L43.0936 69.0451C43.1196 69.0552 43.147 69.0602 43.1753 69.0602V68.9675ZM43.1277 68.9589C43.1125 68.9528 43.1012 68.9454 43.0927 68.9372L43.0284 69.004C43.0467 69.0216 43.0687 69.0351 43.0933 69.0449L43.1277 68.9589ZM43.0998 68.9953L43.134 68.9409L43.0556 68.8915L43.0213 68.9459L43.0998 68.9953ZM43.0613 68.9482C43.0752 68.9628 43.0915 68.9746 43.1099 68.9837L43.1513 68.9008C43.1418 68.8961 43.1343 68.8905 43.1284 68.8842L43.0613 68.9482ZM43.1099 68.9837C43.1297 68.9936 43.1509 68.9991 43.1731 68.9991V68.9064C43.1664 68.9064 43.1593 68.9048 43.1513 68.9008L43.1099 68.9837ZM43.1731 68.9991C43.2094 68.9991 43.2419 68.9855 43.2655 68.9568L43.1939 68.8979C43.1897 68.9031 43.1845 68.9064 43.1731 68.9064V68.9991ZM43.2659 68.9563C43.29 68.9263 43.2969 68.8838 43.2969 68.8402H43.2042C43.2042 68.8781 43.1973 68.8937 43.1935 68.8984L43.2659 68.9563ZM43.2969 68.8402V68.4832H43.2042V68.8402H43.2969ZM43.2506 68.5296H43.3214V68.4369H43.2506V68.5296ZM43.275 68.4832V68.8327H43.3677V68.4832H43.275ZM43.275 68.8327C43.275 68.8908 43.2624 68.9227 43.2472 68.939L43.315 69.0022C43.3535 68.9609 43.3677 68.9008 43.3677 68.8327H43.275ZM43.2472 68.939C43.2302 68.9573 43.2077 68.9675 43.1753 68.9675V69.0602C43.2303 69.0602 43.2784 69.0415 43.315 69.0022L43.2472 68.939ZM43.5603 68.993L43.5404 69.0348L43.541 69.0351L43.5603 68.993ZM43.4828 68.9348L43.4473 68.9646L43.448 68.9654L43.4828 68.9348ZM43.4344 68.8484L43.3904 68.863L43.3906 68.8636L43.4344 68.8484ZM43.4471 68.6062L43.4054 68.5859L43.4053 68.5861L43.4471 68.6062ZM43.532 68.5101L43.5569 68.5492L43.5572 68.549L43.532 68.5101ZM43.7668 68.4952L43.7474 68.5373L43.7477 68.5374L43.7668 68.4952ZM43.845 68.5533L43.8099 68.5835V68.5835L43.845 68.5533ZM43.8934 68.639L43.8495 68.6538L43.8498 68.6544L43.8934 68.639ZM43.8934 68.8484L43.8497 68.8331L43.8495 68.8337L43.8934 68.8484ZM43.845 68.9348L43.8798 68.9654L43.8801 68.9651L43.845 68.9348ZM43.7675 68.993L43.7868 69.0351L43.7874 69.0348L43.7675 68.993ZM43.7601 68.9251L43.7332 68.8874L43.7601 68.9251ZM43.8182 68.8506L43.7755 68.8326L43.7753 68.8329L43.8182 68.8506ZM43.8264 68.6658L43.8705 68.6517V68.6517L43.8264 68.6658ZM43.7921 68.5995L43.755 68.6273L43.7554 68.6277L43.7921 68.5995ZM43.737 68.5525L43.7151 68.5934L43.7155 68.5936L43.737 68.5525ZM43.57 68.563L43.5435 68.525L43.5432 68.5252L43.57 68.563ZM43.5104 68.6375L43.4681 68.6187L43.4678 68.6192L43.5104 68.6375ZM43.5015 68.8216L43.457 68.8346L43.4573 68.8357L43.5015 68.8216ZM43.5358 68.8886L43.4987 68.9164L43.5358 68.8886ZM43.5902 68.9356L43.5683 68.9764L43.5687 68.9766L43.5902 68.9356ZM43.6639 68.9675C43.6308 68.9675 43.603 68.9616 43.5797 68.9508L43.541 69.0351C43.5783 69.0522 43.6196 69.0602 43.6639 69.0602V68.9675ZM43.5802 68.9511C43.5554 68.9393 43.5347 68.9237 43.5177 68.9043L43.448 68.9654C43.4737 68.9947 43.5047 69.0178 43.5404 69.0348L43.5802 68.9511ZM43.5183 68.905C43.5013 68.8848 43.4879 68.861 43.4782 68.8331L43.3906 68.8636C43.4038 68.9014 43.4226 68.9352 43.4474 68.9646L43.5183 68.905ZM43.4784 68.8337C43.4691 68.806 43.4644 68.776 43.4644 68.7433H43.3717C43.3717 68.7852 43.3778 68.8252 43.3904 68.863L43.4784 68.8337ZM43.4644 68.7433C43.4644 68.6981 43.4729 68.6594 43.4888 68.6263L43.4053 68.5861C43.3825 68.6335 43.3717 68.6862 43.3717 68.7433H43.4644ZM43.4887 68.6265C43.505 68.5932 43.5276 68.5678 43.5569 68.5492L43.5072 68.471C43.4629 68.4991 43.4289 68.5378 43.4054 68.5859L43.4887 68.6265ZM43.5572 68.549C43.5853 68.5307 43.6202 68.5206 43.6639 68.5206V68.428C43.6053 68.428 43.5523 68.4417 43.5068 68.4712L43.5572 68.549ZM43.6639 68.5206C43.6965 68.5206 43.724 68.5265 43.7474 68.5373L43.7861 68.453C43.7489 68.436 43.7079 68.428 43.6639 68.428V68.5206ZM43.7477 68.5374C43.7725 68.5486 43.7931 68.564 43.8099 68.5835L43.8801 68.5231C43.8542 68.4929 43.8226 68.4695 43.7858 68.4529L43.7477 68.5374ZM43.8099 68.5835C43.8272 68.6037 43.8404 68.627 43.8496 68.6538L43.9373 68.6241C43.9246 68.5864 43.9055 68.5526 43.8801 68.5231L43.8099 68.5835ZM43.8498 68.6544C43.8593 68.6814 43.8642 68.7109 43.8642 68.7433H43.9569C43.9569 68.7013 43.9505 68.6612 43.9371 68.6235L43.8498 68.6544ZM43.8642 68.7433C43.8642 68.7758 43.8593 68.8056 43.8497 68.8331L43.9372 68.8636C43.9505 68.8256 43.9569 68.7854 43.9569 68.7433H43.8642ZM43.8495 68.8337C43.8404 68.8611 43.8271 68.8846 43.8099 68.9046L43.8801 68.9651C43.9056 68.9354 43.9247 68.9012 43.9374 68.863L43.8495 68.8337ZM43.8102 68.9043C43.7931 68.9237 43.7724 68.9393 43.7476 68.9511L43.7874 69.0348C43.8232 69.0178 43.8542 68.9947 43.8798 68.9654L43.8102 68.9043ZM43.7482 68.9508C43.7248 68.9616 43.6971 68.9675 43.6639 68.9675V69.0602C43.7083 69.0602 43.7496 69.0522 43.7868 69.0351L43.7482 68.9508ZM43.6639 68.9991C43.7098 68.9991 43.7517 68.9879 43.7869 68.9629L43.7332 68.8874C43.7167 68.8991 43.6946 68.9064 43.6639 68.9064V68.9991ZM43.7869 68.9629C43.8204 68.9391 43.845 68.9071 43.861 68.8683L43.7753 68.8329C43.7655 68.8568 43.7514 68.8744 43.7332 68.8874L43.7869 68.9629ZM43.8609 68.8686C43.877 68.8303 43.8846 68.7883 43.8846 68.7433H43.792C43.792 68.7778 43.7862 68.8073 43.7755 68.8326L43.8609 68.8686ZM43.8846 68.7433C43.8846 68.7118 43.88 68.6812 43.8705 68.6517L43.7822 68.6799C43.7887 68.7001 43.792 68.7211 43.792 68.7433H43.8846ZM43.8705 68.6517C43.861 68.6221 43.8472 68.5951 43.8288 68.5712L43.7554 68.6277C43.7668 68.6426 43.7758 68.6599 43.7822 68.6799L43.8705 68.6517ZM43.8292 68.5717C43.8102 68.5463 43.7865 68.5261 43.7584 68.5115L43.7155 68.5936C43.7312 68.6018 43.7442 68.6129 43.755 68.6273L43.8292 68.5717ZM43.7588 68.5117C43.7299 68.4962 43.6979 68.4891 43.6639 68.4891V68.5818C43.6846 68.5818 43.7013 68.586 43.7151 68.5934L43.7588 68.5117ZM43.6639 68.4891C43.6194 68.4891 43.5786 68.5005 43.5435 68.525L43.5966 68.601C43.6141 68.5887 43.6359 68.5818 43.6639 68.5818V68.4891ZM43.5432 68.5252C43.51 68.5488 43.4851 68.5804 43.4681 68.6187L43.5528 68.6563C43.5636 68.632 43.5784 68.6139 43.5969 68.6007L43.5432 68.5252ZM43.4678 68.6192C43.4516 68.6571 43.444 68.6987 43.444 68.7433H43.5366C43.5366 68.7094 43.5424 68.6805 43.553 68.6558L43.4678 68.6192ZM43.444 68.7433C43.444 68.7745 43.4483 68.805 43.457 68.8346L43.5459 68.8085C43.5397 68.7875 43.5366 68.7658 43.5366 68.7433H43.444ZM43.4573 68.8357C43.4668 68.8652 43.4805 68.8922 43.4987 68.9164L43.5728 68.8608C43.5612 68.8453 43.5521 68.8276 43.5456 68.8074L43.4573 68.8357ZM43.4987 68.9164C43.5175 68.9416 43.5408 68.9617 43.5683 68.9764L43.612 68.8947C43.5968 68.8866 43.5838 68.8754 43.5728 68.8608L43.4987 68.9164ZM43.5687 68.9766C43.5979 68.9919 43.6299 68.9991 43.6639 68.9991V68.9064C43.6433 68.9064 43.6262 68.9021 43.6116 68.8945L43.5687 68.9766ZM44.0147 69.0049H43.9684V69.0512H44.0147V69.0049ZM44.0147 68.4832V68.4369H43.9684V68.4832H44.0147ZM44.0855 68.4832H44.1319V68.4369H44.0855V68.4832ZM44.0855 68.7061H44.0392V68.7524H44.0855V68.7061ZM44.3426 68.7061V68.7524H44.389V68.7061H44.3426ZM44.3426 68.4832V68.4369H44.2963V68.4832H44.3426ZM44.4134 68.4832H44.4597V68.4369H44.4134V68.4832ZM44.4134 69.0049V69.0512H44.4597V69.0049H44.4134ZM44.3426 69.0049H44.2963V69.0512H44.3426V69.0049ZM44.3426 68.7672H44.389V68.7208H44.3426V68.7672ZM44.0855 68.7672V68.7208H44.0392V68.7672H44.0855ZM44.0855 69.0049V69.0512H44.1319V69.0049H44.0855ZM44.0611 69.0049V68.4832H43.9684V69.0049H44.0611ZM44.0147 68.5296H44.0855V68.4369H44.0147V68.5296ZM44.0392 68.4832V68.7061H44.1319V68.4832H44.0392ZM44.0855 68.7524H44.3426V68.6597H44.0855V68.7524ZM44.389 68.7061V68.4832H44.2963V68.7061H44.389ZM44.3426 68.5296H44.4134V68.4369H44.3426V68.5296ZM44.3671 68.4832V69.0049H44.4597V68.4832H44.3671ZM44.4134 68.9585H44.3426V69.0512H44.4134V68.9585ZM44.389 69.0049V68.7672H44.2963V69.0049H44.389ZM44.3426 68.7208H44.0855V68.8135H44.3426V68.7208ZM44.0392 68.7672V69.0049H44.1319V68.7672H44.0392ZM44.0855 68.9585H44.0147V69.0512H44.0855V68.9585ZM44.5474 69.0049H44.5011V69.0512H44.5474V69.0049ZM44.5474 68.4832V68.4369H44.5011V68.4832H44.5474ZM44.6413 68.4832L44.6823 68.4615L44.6692 68.4369H44.6413V68.4832ZM44.8716 68.9169L44.8307 68.9387L44.9179 69.1031V68.9169H44.8716ZM44.8716 68.4832V68.4369H44.8252V68.4832H44.8716ZM44.9387 68.4832H44.985V68.4369H44.9387V68.4832ZM44.9387 69.0049V69.0512H44.985V69.0049H44.9387ZM44.8462 69.0049L44.8054 69.0268L44.8186 69.0512H44.8462V69.0049ZM44.6145 68.5742L44.6553 68.5522L44.5681 68.3902V68.5742H44.6145ZM44.6145 69.0049V69.0512H44.6608V69.0049H44.6145ZM44.5938 69.0049V68.4832H44.5011V69.0049H44.5938ZM44.5474 68.5296H44.6413V68.4369H44.5474V68.5296ZM44.6004 68.505L44.8307 68.9387L44.9125 68.8952L44.6823 68.4615L44.6004 68.505ZM44.9179 68.9169V68.4832H44.8252V68.9169H44.9179ZM44.8716 68.5296H44.9387V68.4369H44.8716V68.5296ZM44.8923 68.4832V69.0049H44.985V68.4832H44.8923ZM44.9387 68.9585H44.8462V69.0512H44.9387V68.9585ZM44.8871 68.9829L44.6553 68.5522L44.5737 68.5961L44.8054 69.0268L44.8871 68.9829ZM44.5681 68.5742V69.0049H44.6608V68.5742H44.5681ZM44.6145 68.9585H44.5474V69.0512H44.6145V68.9585ZM45.3589 69.0086L45.3556 69.0548L45.3556 69.0548L45.3589 69.0086ZM45.2963 69.0034H45.2499V69.0455L45.2919 69.0495L45.2963 69.0034ZM45.2963 68.4847L45.2914 68.4386L45.2499 68.4431V68.4847H45.2963ZM45.3648 68.4795L45.3669 68.5258L45.3679 68.5258L45.3648 68.4795ZM45.5571 68.4981L45.5387 68.5407L45.539 68.5408L45.5571 68.4981ZM45.6376 68.5555L45.6024 68.5857L45.6027 68.5861L45.6376 68.5555ZM45.6845 68.6405L45.6402 68.6541L45.6405 68.6549L45.6845 68.6405ZM45.6845 68.8462L45.6404 68.8319L45.6845 68.8462ZM45.6361 68.9319L45.6013 68.9012L45.6012 68.9013L45.6361 68.9319ZM45.5534 68.99L45.5712 69.0327L45.5715 69.0326L45.5534 68.99ZM45.5452 68.9229L45.5209 68.8834L45.5452 68.9229ZM45.6078 68.8506L45.6502 68.8691L45.6504 68.8689L45.6078 68.8506ZM45.6078 68.6427L45.5652 68.661L45.6078 68.6427ZM45.5459 68.5675L45.5194 68.6055L45.5199 68.6058L45.5459 68.5675ZM45.3998 68.5399L45.4018 68.5862L45.4037 68.5861L45.3998 68.5399ZM45.3671 68.5421L45.3624 68.496L45.3207 68.5002V68.5421H45.3671ZM45.3671 68.9453H45.3207V68.9855L45.3605 68.9911L45.3671 68.9453ZM45.3998 68.9482L45.4019 68.9019L45.3998 68.9482ZM45.4334 68.9645C45.4058 68.9645 45.3821 68.9638 45.3621 68.9624L45.3556 69.0548C45.3783 69.0564 45.4043 69.0572 45.4334 69.0572V68.9645ZM45.3622 68.9624C45.3417 68.9609 45.3212 68.9592 45.3007 68.9573L45.2919 69.0495C45.3131 69.0515 45.3343 69.0533 45.3556 69.0548L45.3622 68.9624ZM45.3426 69.0034V68.4847H45.2499V69.0034H45.3426ZM45.3012 68.5308C45.3236 68.5284 45.3455 68.5268 45.3669 68.5258L45.3628 68.4332C45.3394 68.4343 45.3156 68.4361 45.2914 68.4386L45.3012 68.5308ZM45.3679 68.5258C45.389 68.5244 45.4135 68.5236 45.4416 68.5236V68.4309C45.412 68.4309 45.3854 68.4317 45.3617 68.4333L45.3679 68.5258ZM45.4416 68.5236C45.4816 68.5236 45.5136 68.5299 45.5387 68.5407L45.5754 68.4556C45.536 68.4386 45.4909 68.4309 45.4416 68.4309V68.5236ZM45.539 68.5408C45.5659 68.5522 45.5867 68.5674 45.6024 68.5857L45.6728 68.5254C45.6467 68.495 45.6138 68.4719 45.5752 68.4555L45.539 68.5408ZM45.6027 68.5861C45.6196 68.6053 45.6321 68.6278 45.6402 68.6541L45.7288 68.6269C45.717 68.5886 45.6983 68.5544 45.6724 68.525L45.6027 68.5861ZM45.6405 68.6549C45.6492 68.6816 45.6538 68.711 45.6538 68.7433H45.7465C45.7465 68.7021 45.7407 68.6629 45.7285 68.626L45.6405 68.6549ZM45.6538 68.7433C45.6538 68.7751 45.6493 68.8045 45.6404 68.8319L45.7286 68.8604C45.7406 68.8232 45.7465 68.7841 45.7465 68.7433H45.6538ZM45.6404 68.8319C45.6319 68.8583 45.6188 68.8813 45.6013 68.9012L45.6709 68.9625C45.697 68.9327 45.7163 68.8986 45.7286 68.8604L45.6404 68.8319ZM45.6012 68.9013C45.585 68.9198 45.5634 68.9353 45.5352 68.9474L45.5715 69.0326C45.6108 69.0158 45.6444 68.9926 45.6709 68.9624L45.6012 68.9013ZM45.5355 68.9472C45.5093 68.9582 45.4757 68.9645 45.4334 68.9645V69.0572C45.4845 69.0572 45.5309 69.0496 45.5712 69.0327L45.5355 68.9472ZM45.4356 68.9953C45.486 68.9953 45.5317 68.9856 45.5694 68.9624L45.5209 68.8834C45.502 68.895 45.4746 68.9026 45.4356 68.9026V68.9953ZM45.5694 68.9624C45.6059 68.94 45.6331 68.9085 45.6502 68.8691L45.5653 68.8321C45.5556 68.8543 45.541 68.8711 45.5209 68.8834L45.5694 68.9624ZM45.6504 68.8689C45.6666 68.8309 45.6742 68.7887 45.6742 68.7433H45.5815C45.5815 68.7784 45.5757 68.8078 45.5652 68.8324L45.6504 68.8689ZM45.6742 68.7433C45.6742 68.7016 45.6664 68.6618 45.6504 68.6245L45.5652 68.661C45.576 68.6862 45.5815 68.7135 45.5815 68.7433H45.6742ZM45.6504 68.6245C45.6335 68.5851 45.6072 68.553 45.5719 68.5291L45.5199 68.6058C45.5403 68.6196 45.5552 68.6377 45.5652 68.661L45.6504 68.6245ZM45.5724 68.5294C45.5349 68.5033 45.4894 68.492 45.4393 68.492V68.5847C45.4757 68.5847 45.5013 68.5928 45.5194 68.6055L45.5724 68.5294ZM45.4393 68.492C45.4239 68.492 45.4094 68.4926 45.396 68.4937L45.4037 68.5861C45.4141 68.5852 45.426 68.5847 45.4393 68.5847V68.492ZM45.3979 68.4936C45.3853 68.4941 45.3734 68.4949 45.3624 68.496L45.3717 68.5882C45.3806 68.5873 45.3906 68.5866 45.4018 68.5862L45.3979 68.4936ZM45.3207 68.5421V68.9453H45.4134V68.5421H45.3207ZM45.3605 68.9911C45.3726 68.9929 45.385 68.994 45.3978 68.9945L45.4019 68.9019C45.3918 68.9015 45.3824 68.9006 45.3736 68.8994L45.3605 68.9911ZM45.3978 68.9945C45.41 68.9951 45.4226 68.9953 45.4356 68.9953V68.9026C45.4238 68.9026 45.4126 68.9024 45.4019 68.9019L45.3978 68.9945ZM45.9167 68.993L45.8968 69.0348L45.8974 69.0351L45.9167 68.993ZM45.8392 68.9348L45.8038 68.9646L45.8044 68.9654L45.8392 68.9348ZM45.7908 68.8484L45.7468 68.863L45.747 68.8636L45.7908 68.8484ZM45.8035 68.6062L45.7618 68.5859L45.7617 68.5861L45.8035 68.6062ZM45.8884 68.5101L45.9133 68.5492L45.9136 68.549L45.8884 68.5101ZM46.1232 68.4952L46.1038 68.5373L46.1041 68.5374L46.1232 68.4952ZM46.2014 68.5533L46.1663 68.5835V68.5835L46.2014 68.5533ZM46.2499 68.639L46.206 68.6538L46.2062 68.6544L46.2499 68.639ZM46.2499 68.8484L46.2061 68.8331L46.2059 68.8337L46.2499 68.8484ZM46.2014 68.9348L46.2362 68.9654L46.2366 68.9651L46.2014 68.9348ZM46.1239 68.993L46.1432 69.0351L46.1438 69.0348L46.1239 68.993ZM46.1165 68.9251L46.0896 68.8874L46.1165 68.9251ZM46.1746 68.8506L46.1319 68.8326L46.1317 68.8329L46.1746 68.8506ZM46.1828 68.6658L46.2269 68.6517V68.6517L46.1828 68.6658ZM46.1485 68.5995L46.1114 68.6273L46.1118 68.6277L46.1485 68.5995ZM46.0934 68.5525L46.0715 68.5934L46.0719 68.5936L46.0934 68.5525ZM45.9264 68.563L45.8999 68.525L45.8996 68.5252L45.9264 68.563ZM45.8668 68.6375L45.8245 68.6187L45.8242 68.6192L45.8668 68.6375ZM45.8579 68.8216L45.8134 68.8346L45.8137 68.8357L45.8579 68.8216ZM45.8922 68.8886L45.8551 68.9164L45.8922 68.8886ZM45.9466 68.9356L45.9247 68.9764L45.9251 68.9766L45.9466 68.9356ZM46.0203 68.9675C45.9872 68.9675 45.9594 68.9616 45.9361 68.9508L45.8974 69.0351C45.9347 69.0522 45.976 69.0602 46.0203 69.0602V68.9675ZM45.9366 68.9511C45.9118 68.9393 45.8911 68.9237 45.8741 68.9043L45.8044 68.9654C45.8301 68.9947 45.8611 69.0178 45.8968 69.0348L45.9366 68.9511ZM45.8747 68.905C45.8577 68.8848 45.8443 68.861 45.8346 68.8331L45.747 68.8636C45.7602 68.9014 45.779 68.9352 45.8038 68.9646L45.8747 68.905ZM45.8348 68.8337C45.8255 68.806 45.8208 68.776 45.8208 68.7433H45.7281C45.7281 68.7852 45.7342 68.8252 45.7468 68.863L45.8348 68.8337ZM45.8208 68.7433C45.8208 68.6981 45.8293 68.6594 45.8452 68.6263L45.7617 68.5861C45.7389 68.6335 45.7281 68.6862 45.7281 68.7433H45.8208ZM45.8451 68.6265C45.8614 68.5932 45.884 68.5678 45.9133 68.5492L45.8636 68.471C45.8193 68.4991 45.7853 68.5378 45.7618 68.5859L45.8451 68.6265ZM45.9136 68.549C45.9417 68.5307 45.9766 68.5206 46.0203 68.5206V68.428C45.9617 68.428 45.9087 68.4417 45.8632 68.4712L45.9136 68.549ZM46.0203 68.5206C46.0529 68.5206 46.0804 68.5265 46.1038 68.5373L46.1425 68.453C46.1053 68.436 46.0643 68.428 46.0203 68.428V68.5206ZM46.1041 68.5374C46.1289 68.5486 46.1495 68.564 46.1663 68.5835L46.2366 68.5231C46.2106 68.4929 46.179 68.4695 46.1422 68.4529L46.1041 68.5374ZM46.1663 68.5835C46.1836 68.6037 46.1969 68.627 46.206 68.6538L46.2937 68.6241C46.281 68.5864 46.2619 68.5526 46.2366 68.5231L46.1663 68.5835ZM46.2062 68.6544C46.2157 68.6814 46.2206 68.7109 46.2206 68.7433H46.3133C46.3133 68.7013 46.3069 68.6612 46.2935 68.6235L46.2062 68.6544ZM46.2206 68.7433C46.2206 68.7758 46.2157 68.8056 46.2061 68.8331L46.2936 68.8636C46.3069 68.8256 46.3133 68.7854 46.3133 68.7433H46.2206ZM46.2059 68.8337C46.1968 68.8611 46.1835 68.8846 46.1663 68.9046L46.2366 68.9651C46.2621 68.9354 46.2811 68.9012 46.2938 68.863L46.2059 68.8337ZM46.1666 68.9043C46.1495 68.9237 46.1288 68.9393 46.104 68.9511L46.1438 69.0348C46.1796 69.0178 46.2106 68.9947 46.2362 68.9654L46.1666 68.9043ZM46.1046 68.9508C46.0812 68.9616 46.0535 68.9675 46.0203 68.9675V69.0602C46.0647 69.0602 46.106 69.0522 46.1432 69.0351L46.1046 68.9508ZM46.0203 68.9991C46.0662 68.9991 46.1081 68.9879 46.1433 68.9629L46.0896 68.8874C46.0731 68.8991 46.051 68.9064 46.0203 68.9064V68.9991ZM46.1433 68.9629C46.1768 68.9391 46.2014 68.9071 46.2174 68.8683L46.1317 68.8329C46.1219 68.8568 46.1078 68.8744 46.0896 68.8874L46.1433 68.9629ZM46.2173 68.8686C46.2334 68.8303 46.2411 68.7883 46.2411 68.7433H46.1484C46.1484 68.7778 46.1426 68.8073 46.1319 68.8326L46.2173 68.8686ZM46.2411 68.7433C46.2411 68.7118 46.2364 68.6812 46.2269 68.6517L46.1386 68.6799C46.1451 68.7001 46.1484 68.7211 46.1484 68.7433H46.2411ZM46.2269 68.6517C46.2175 68.6221 46.2036 68.5951 46.1852 68.5712L46.1118 68.6277C46.1232 68.6426 46.1322 68.6599 46.1386 68.6799L46.2269 68.6517ZM46.1856 68.5717C46.1666 68.5463 46.1429 68.5261 46.1148 68.5115L46.0719 68.5936C46.0876 68.6018 46.1006 68.6129 46.1114 68.6273L46.1856 68.5717ZM46.1152 68.5117C46.0863 68.4962 46.0543 68.4891 46.0203 68.4891V68.5818C46.041 68.5818 46.0577 68.586 46.0715 68.5934L46.1152 68.5117ZM46.0203 68.4891C45.9759 68.4891 45.935 68.5005 45.8999 68.525L45.953 68.601C45.9705 68.5887 45.9923 68.5818 46.0203 68.5818V68.4891ZM45.8996 68.5252C45.8664 68.5488 45.8415 68.5804 45.8245 68.6187L45.9092 68.6563C45.92 68.632 45.9348 68.6139 45.9533 68.6007L45.8996 68.5252ZM45.8242 68.6192C45.808 68.6571 45.8004 68.6987 45.8004 68.7433H45.893C45.893 68.7094 45.8988 68.6805 45.9094 68.6558L45.8242 68.6192ZM45.8004 68.7433C45.8004 68.7745 45.8047 68.805 45.8134 68.8346L45.9023 68.8085C45.8962 68.7875 45.893 68.7658 45.893 68.7433H45.8004ZM45.8137 68.8357C45.8232 68.8652 45.8369 68.8922 45.8551 68.9164L45.9292 68.8608C45.9176 68.8453 45.9085 68.8276 45.902 68.8074L45.8137 68.8357ZM45.8551 68.9164C45.8739 68.9416 45.8972 68.9617 45.9247 68.9764L45.9684 68.8947C45.9532 68.8866 45.9402 68.8754 45.9292 68.8608L45.8551 68.9164ZM45.9251 68.9766C45.9543 68.9919 45.9863 68.9991 46.0203 68.9991V68.9064C45.9997 68.9064 45.9826 68.9021 45.968 68.8945L45.9251 68.9766ZM46.3711 69.0049H46.3248V69.0512H46.3711V69.0049ZM46.3711 68.4832V68.4369H46.3248V68.4832H46.3711ZM46.6841 68.4832H46.7305V68.4369H46.6841V68.4832ZM46.6841 68.5443V68.5907H46.7305V68.5443H46.6841ZM46.4419 68.5443V68.498H46.3956V68.5443H46.4419ZM46.4419 68.7031H46.3956V68.7494H46.4419V68.7031ZM46.6506 68.7031H46.6969V68.6567H46.6506V68.7031ZM46.6506 68.7627V68.809H46.6969V68.7627H46.6506ZM46.4419 68.7627V68.7163H46.3956V68.7627H46.4419ZM46.4419 68.9438H46.3956V68.9901H46.4419V68.9438ZM46.6841 68.9438H46.7305V68.8974H46.6841V68.9438ZM46.6841 69.0049V69.0512H46.7305V69.0049H46.6841ZM46.4175 69.0049V68.4832H46.3248V69.0049H46.4175ZM46.3711 68.5296H46.6841V68.4369H46.3711V68.5296ZM46.6378 68.4832V68.5443H46.7305V68.4832H46.6378ZM46.6841 68.498H46.4419V68.5907H46.6841V68.498ZM46.3956 68.5443V68.7031H46.4883V68.5443H46.3956ZM46.4419 68.7494H46.6506V68.6567H46.4419V68.7494ZM46.6042 68.7031V68.7627H46.6969V68.7031H46.6042ZM46.6506 68.7163H46.4419V68.809H46.6506V68.7163ZM46.3956 68.7627V68.9438H46.4883V68.7627H46.3956ZM46.4419 68.9901H46.6841V68.8974H46.4419V68.9901ZM46.6378 68.9438V69.0049H46.7305V68.9438H46.6378ZM46.6841 68.9585H46.3711V69.0512H46.6841V68.9585Z" fill="#3C4B51"/>
<path d="M43.1395 69.4455H43.3379L43.3312 69.4847H43.1777L43.16 69.5866H43.2915L43.2849 69.6248H43.1533L43.1328 69.7411H43.2858L43.2791 69.7803H43.0806L43.1395 69.4455ZM43.4135 69.6516L43.3408 69.5541L43.3781 69.5263L43.4412 69.6248L43.5283 69.5292L43.5579 69.5569L43.4628 69.654L43.5393 69.7583L43.5034 69.7846L43.4355 69.6813L43.3394 69.7831L43.3112 69.7559L43.4135 69.6516ZM43.6814 69.786C43.6603 69.786 43.6417 69.7815 43.6254 69.7726C43.6095 69.7634 43.5969 69.7503 43.5876 69.7334C43.5787 69.7162 43.5743 69.6959 43.5743 69.6727C43.5743 69.6462 43.5797 69.6218 43.5905 69.5995C43.6017 69.5772 43.6173 69.5593 43.6374 69.5459C43.6578 69.5325 43.6815 69.5258 43.7086 69.5258C43.7271 69.5258 43.7428 69.5293 43.7555 69.5364C43.7686 69.5434 43.7786 69.5525 43.7856 69.5636C43.7927 69.5748 43.7962 69.5867 43.7962 69.5995C43.7962 69.617 43.792 69.6315 43.7837 69.643C43.7754 69.6545 43.7648 69.6634 43.7517 69.6698C43.7386 69.6759 43.7244 69.6802 43.7091 69.6827C43.6941 69.6853 43.6798 69.6865 43.6661 69.6865C43.6575 69.6865 43.6489 69.6862 43.6403 69.6856C43.632 69.6846 43.6246 69.6837 43.6183 69.6827C43.6208 69.7038 43.6283 69.7199 43.6407 69.731C43.6532 69.7422 43.6691 69.7478 43.6886 69.7478C43.7045 69.7478 43.7187 69.7457 43.7311 69.7415C43.7436 69.7374 43.7541 69.7332 43.7627 69.7291L43.7665 69.7674C43.7569 69.7718 43.7448 69.7761 43.7302 69.7803C43.7155 69.7841 43.6992 69.786 43.6814 69.786ZM43.7053 69.5622C43.6903 69.5622 43.6768 69.566 43.6646 69.5737C43.6525 69.581 43.6425 69.5912 43.6345 69.6043C43.6269 69.617 43.6218 69.6317 43.6192 69.6483C43.6265 69.6495 43.6339 69.6507 43.6412 69.6516C43.6489 69.6523 43.6572 69.6526 43.6661 69.6526C43.6929 69.6526 43.7141 69.6489 43.7297 69.6416C43.7453 69.6339 43.7531 69.621 43.7531 69.6028C43.7531 69.5917 43.7487 69.5821 43.7397 69.5741C43.7311 69.5662 43.7196 69.5622 43.7053 69.5622ZM44.0102 69.5818C44.0023 69.5767 43.9936 69.5725 43.9844 69.5694C43.9752 69.5659 43.965 69.5641 43.9538 69.5641C43.9363 69.5641 43.9208 69.5687 43.9074 69.578C43.8943 69.5872 43.8841 69.5998 43.8768 69.6158C43.8695 69.6314 43.8658 69.6491 43.8658 69.6688C43.8658 69.6931 43.8718 69.7124 43.884 69.7267C43.8964 69.7407 43.913 69.7478 43.9337 69.7478C43.9458 69.7478 43.9565 69.7463 43.9657 69.7434C43.975 69.7406 43.9834 69.7372 43.9911 69.7334L43.9964 69.7712C43.9884 69.7747 43.9787 69.778 43.9672 69.7812C43.956 69.7844 43.9425 69.786 43.9265 69.786C43.9058 69.786 43.8875 69.7814 43.8715 69.7721C43.8559 69.7629 43.8436 69.75 43.8347 69.7334C43.8261 69.7165 43.8218 69.6969 43.8218 69.6746C43.8218 69.6478 43.8272 69.6232 43.8381 69.6009C43.8492 69.5783 43.8648 69.5601 43.8849 69.5464C43.9053 69.5327 43.9294 69.5258 43.9571 69.5258C43.9721 69.5258 43.9854 69.5278 43.9968 69.5316C44.0086 69.5351 44.019 69.5395 44.0279 69.545L44.0102 69.5818ZM44.1145 69.786C44.1018 69.786 44.09 69.7831 44.0791 69.7774C44.0686 69.7717 44.0602 69.7637 44.0538 69.7535C44.0474 69.743 44.0442 69.7305 44.0442 69.7162C44.0442 69.712 44.0444 69.7079 44.0447 69.7038C44.045 69.6993 44.0455 69.6947 44.0461 69.6899L44.0734 69.5316H44.1164L44.0887 69.6889C44.0884 69.6921 44.0881 69.695 44.0877 69.6975C44.0874 69.6998 44.0873 69.7023 44.0873 69.7052C44.0873 69.7195 44.0914 69.7302 44.0997 69.7372C44.108 69.7442 44.1177 69.7478 44.1289 69.7478C44.141 69.7478 44.1528 69.7441 44.1643 69.7368C44.1761 69.7291 44.1864 69.7183 44.1954 69.7042C44.2043 69.6902 44.2105 69.6733 44.214 69.6535L44.2355 69.5316H44.2786L44.247 69.7128C44.2467 69.7144 44.2464 69.7163 44.246 69.7186C44.246 69.7205 44.246 69.7226 44.246 69.7248C44.246 69.7337 44.2486 69.7401 44.2537 69.7439C44.2588 69.7474 44.2655 69.7492 44.2738 69.7492L44.259 69.7827C44.2417 69.7827 44.2285 69.7785 44.2193 69.7702C44.2103 69.7616 44.2059 69.7484 44.2059 69.7305V69.7262C44.1826 69.7661 44.1521 69.786 44.1145 69.786ZM44.325 69.5407H44.369L44.392 69.4622H44.425L44.4111 69.5407H44.48L44.4737 69.578H44.4044L44.3843 69.6942C44.3837 69.6977 44.3832 69.701 44.3829 69.7042C44.3826 69.7071 44.3824 69.7098 44.3824 69.7124C44.3824 69.7235 44.3857 69.7323 44.3924 69.7387C44.3991 69.7447 44.4079 69.7478 44.4187 69.7478C44.428 69.7478 44.4358 69.7465 44.4422 69.7439C44.4486 69.7411 44.4543 69.7382 44.4594 69.7353L44.4647 69.7726C44.4586 69.7761 44.451 69.7792 44.4417 69.7817C44.4328 69.7846 44.4227 69.786 44.4116 69.786C44.3998 69.786 44.3883 69.7836 44.3771 69.7788C44.3663 69.7741 44.3574 69.7666 44.3504 69.7564C44.3433 69.7458 44.3398 69.7323 44.3398 69.7157C44.3398 69.7087 44.3405 69.7009 44.3417 69.6923L44.3614 69.578H44.3188L44.325 69.5407ZM44.5783 69.489C44.5694 69.489 44.5625 69.4865 44.5577 69.4814C44.5533 69.4759 44.551 69.4697 44.551 69.4627C44.551 69.4525 44.5542 69.4444 44.5606 69.4383C44.567 69.4319 44.575 69.4288 44.5845 69.4288C44.5935 69.4288 44.6002 69.4315 44.6046 69.4369C44.6094 69.442 44.6118 69.448 44.6118 69.4551C44.6118 69.4649 44.6086 69.4731 44.6022 69.4794C44.5958 69.4858 44.5879 69.489 44.5783 69.489ZM44.5463 69.7803H44.5032L44.5467 69.5316H44.5898L44.5463 69.7803ZM44.6256 69.5373L44.6662 69.5268L44.7155 69.7324L44.8346 69.5268L44.8695 69.5474L44.7299 69.7803H44.6854L44.6256 69.5373ZM44.9761 69.786C44.955 69.786 44.9364 69.7815 44.9201 69.7726C44.9042 69.7634 44.8916 69.7503 44.8823 69.7334C44.8734 69.7162 44.8689 69.6959 44.8689 69.6727C44.8689 69.6462 44.8743 69.6218 44.8852 69.5995C44.8963 69.5772 44.912 69.5593 44.9321 69.5459C44.9525 69.5325 44.9762 69.5258 45.0033 69.5258C45.0218 69.5258 45.0374 69.5293 45.0502 69.5364C45.0633 69.5434 45.0733 69.5525 45.0803 69.5636C45.0873 69.5748 45.0908 69.5867 45.0908 69.5995C45.0908 69.617 45.0867 69.6315 45.0784 69.643C45.0701 69.6545 45.0594 69.6634 45.0464 69.6698C45.0333 69.6759 45.0191 69.6802 45.0038 69.6827C44.9888 69.6853 44.9745 69.6865 44.9608 69.6865C44.9521 69.6865 44.9435 69.6862 44.9349 69.6856C44.9266 69.6846 44.9193 69.6837 44.9129 69.6827C44.9155 69.7038 44.923 69.7199 44.9354 69.731C44.9478 69.7422 44.9638 69.7478 44.9832 69.7478C44.9992 69.7478 45.0134 69.7457 45.0258 69.7415C45.0382 69.7374 45.0488 69.7332 45.0574 69.7291L45.0612 69.7674C45.0516 69.7718 45.0395 69.7761 45.0248 69.7803C45.0102 69.7841 44.9939 69.786 44.9761 69.786ZM45 69.5622C44.985 69.5622 44.9714 69.566 44.9593 69.5737C44.9472 69.581 44.9372 69.5912 44.9292 69.6043C44.9215 69.617 44.9164 69.6317 44.9139 69.6483C44.9212 69.6495 44.9285 69.6507 44.9359 69.6516C44.9435 69.6523 44.9518 69.6526 44.9608 69.6526C44.9875 69.6526 45.0087 69.6489 45.0244 69.6416C45.04 69.6339 45.0478 69.621 45.0478 69.6028C45.0478 69.5917 45.0433 69.5821 45.0344 69.5741C45.0258 69.5662 45.0143 69.5622 45 69.5622Z" fill="#7EAFB2"/>
<path d="M43.0782 70.0377C43.0782 70.0068 43.0849 69.9797 43.0983 69.9564C43.112 69.9328 43.1309 69.9145 43.1548 69.9014C43.1787 69.888 43.2059 69.8813 43.2365 69.8813C43.2554 69.8813 43.2718 69.8832 43.2858 69.887C43.3002 69.8909 43.312 69.8947 43.3212 69.8985L43.2911 70.0683C43.2908 70.0699 43.2904 70.0718 43.2901 70.074C43.2901 70.076 43.2901 70.078 43.2901 70.0803C43.2901 70.0892 43.2927 70.0956 43.2978 70.0994C43.3029 70.1029 43.3096 70.1047 43.3179 70.1047L43.303 70.1381C43.2858 70.1381 43.2726 70.134 43.2633 70.1257C43.2544 70.1171 43.2499 70.1039 43.2499 70.086C43.241 70.1013 43.2297 70.1144 43.216 70.1252C43.2026 70.1361 43.1868 70.1415 43.1686 70.1415C43.153 70.1415 43.1383 70.1373 43.1246 70.129C43.1109 70.1204 43.0998 70.1085 43.0912 70.0932C43.0825 70.0776 43.0782 70.0591 43.0782 70.0377ZM43.2739 69.9239C43.2678 69.922 43.2614 69.9205 43.2547 69.9196C43.2483 69.9183 43.2405 69.9177 43.2313 69.9177C43.2093 69.9177 43.1902 69.9226 43.1739 69.9325C43.1576 69.9424 43.1449 69.9561 43.1356 69.9736C43.1267 69.9908 43.1222 70.0104 43.1222 70.0324C43.1222 70.0477 43.125 70.0607 43.1304 70.0712C43.1361 70.0817 43.1434 70.0897 43.1524 70.0951C43.1613 70.1005 43.1705 70.1032 43.1801 70.1032C43.1932 70.1032 43.2051 70.0988 43.216 70.0898C43.2268 70.0809 43.2361 70.0685 43.2437 70.0525C43.2517 70.0366 43.2574 70.0184 43.2609 69.998L43.2739 69.9239ZM43.5474 69.9373C43.5394 69.9322 43.5308 69.928 43.5216 69.9248C43.5123 69.9213 43.5021 69.9196 43.4909 69.9196C43.4734 69.9196 43.4579 69.9242 43.4446 69.9334C43.4315 69.9427 43.4213 69.9553 43.4139 69.9712C43.4066 69.9868 43.4029 70.0045 43.4029 70.0243C43.4029 70.0485 43.409 70.0678 43.4211 70.0822C43.4336 70.0962 43.4501 70.1032 43.4709 70.1032C43.483 70.1032 43.4937 70.1018 43.5029 70.0989C43.5121 70.096 43.5206 70.0927 43.5282 70.0889L43.5335 70.1267C43.5255 70.1302 43.5158 70.1335 43.5043 70.1367C43.4932 70.1399 43.4796 70.1415 43.4637 70.1415C43.443 70.1415 43.4246 70.1369 43.4087 70.1276C43.3931 70.1184 43.3808 70.1055 43.3719 70.0889C43.3632 70.072 43.3589 70.0524 43.3589 70.03C43.3589 70.0033 43.3644 69.9787 43.3752 69.9564C43.3864 69.9338 43.402 69.9156 43.4221 69.9019C43.4425 69.8882 43.4666 69.8813 43.4943 69.8813C43.5093 69.8813 43.5225 69.8832 43.534 69.887C43.5458 69.8906 43.5561 69.895 43.5651 69.9004L43.5474 69.9373ZM43.7604 69.9373C43.7524 69.9322 43.7438 69.928 43.7345 69.9248C43.7253 69.9213 43.7151 69.9196 43.7039 69.9196C43.6864 69.9196 43.6709 69.9242 43.6575 69.9334C43.6445 69.9427 43.6343 69.9553 43.6269 69.9712C43.6196 69.9868 43.6159 70.0045 43.6159 70.0243C43.6159 70.0485 43.622 70.0678 43.6341 70.0822C43.6465 70.0962 43.6631 70.1032 43.6838 70.1032C43.6959 70.1032 43.7066 70.1018 43.7159 70.0989C43.7251 70.096 43.7336 70.0927 43.7412 70.0889L43.7465 70.1267C43.7385 70.1302 43.7288 70.1335 43.7173 70.1367C43.7062 70.1399 43.6926 70.1415 43.6767 70.1415C43.6559 70.1415 43.6376 70.1369 43.6217 70.1276C43.606 70.1184 43.5938 70.1055 43.5848 70.0889C43.5762 70.072 43.5719 70.0524 43.5719 70.03C43.5719 70.0033 43.5773 69.9787 43.5882 69.9564C43.5993 69.9338 43.615 69.9156 43.635 69.9019C43.6555 69.8882 43.6795 69.8813 43.7073 69.8813C43.7223 69.8813 43.7355 69.8832 43.747 69.887C43.7588 69.8906 43.7691 69.895 43.778 69.9004L43.7604 69.9373ZM43.9002 70.1415C43.8766 70.1415 43.8562 70.1367 43.8389 70.1271C43.8217 70.1176 43.8083 70.1043 43.7988 70.0874C43.7895 70.0702 43.7849 70.0508 43.7849 70.0291C43.7849 70.0014 43.7905 69.9763 43.8016 69.954C43.8131 69.9317 43.8291 69.914 43.8495 69.9009C43.8699 69.8878 43.8939 69.8813 43.9217 69.8813C43.9453 69.8813 43.9657 69.8861 43.9829 69.8957C44.0001 69.9052 44.0133 69.9185 44.0226 69.9354C44.0322 69.9522 44.0369 69.9717 44.0369 69.9937C44.0369 70.0211 44.0314 70.0461 44.0202 70.0688C44.009 70.0911 43.9931 70.1088 43.9724 70.1219C43.952 70.1349 43.9279 70.1415 43.9002 70.1415ZM43.9016 70.1032C43.9207 70.1032 43.937 70.0986 43.9504 70.0894C43.9641 70.0798 43.9746 70.067 43.9819 70.0511C43.9893 70.0351 43.9929 70.0173 43.9929 69.9975C43.9929 69.9829 43.9901 69.9698 43.9843 69.9583C43.9786 69.9465 43.9703 69.9371 43.9595 69.9301C43.9486 69.9231 43.9355 69.9196 43.9202 69.9196C43.9014 69.9196 43.8852 69.9244 43.8715 69.9339C43.8577 69.9432 43.8472 69.9558 43.8399 69.9717C43.8326 69.9876 43.8289 70.0055 43.8289 70.0253C43.8289 70.0396 43.8318 70.0527 43.8375 70.0645C43.8432 70.0763 43.8515 70.0857 43.8624 70.0927C43.8732 70.0997 43.8863 70.1032 43.9016 70.1032ZM44.1472 70.1415C44.1345 70.1415 44.1227 70.1386 44.1118 70.1329C44.1013 70.1271 44.0929 70.1192 44.0865 70.109C44.0801 70.0984 44.0769 70.086 44.0769 70.0717C44.0769 70.0675 44.0771 70.0634 44.0774 70.0592C44.0777 70.0548 44.0782 70.0501 44.0788 70.0454L44.1061 69.887H44.1491L44.1214 70.0444C44.1211 70.0476 44.1208 70.0505 44.1204 70.053C44.1201 70.0552 44.12 70.0578 44.12 70.0607C44.12 70.075 44.1241 70.0857 44.1324 70.0927C44.1407 70.0997 44.1504 70.1032 44.1616 70.1032C44.1737 70.1032 44.1855 70.0996 44.197 70.0922C44.2088 70.0846 44.2191 70.0737 44.228 70.0597C44.237 70.0457 44.2432 70.0288 44.2467 70.009L44.2682 69.887H44.3113L44.2797 70.0683C44.2794 70.0699 44.2791 70.0718 44.2787 70.074C44.2787 70.076 44.2787 70.078 44.2787 70.0803C44.2787 70.0892 44.2813 70.0956 44.2864 70.0994C44.2915 70.1029 44.2982 70.1047 44.3065 70.1047L44.2917 70.1381C44.2744 70.1381 44.2612 70.134 44.252 70.1257C44.243 70.1171 44.2386 70.1039 44.2386 70.086V70.0817C44.2153 70.1216 44.1848 70.1415 44.1472 70.1415ZM44.5055 69.9191C44.4943 69.9191 44.4822 69.9232 44.4691 69.9315C44.4561 69.9398 44.444 69.9527 44.4328 69.9703C44.422 69.9875 44.4141 70.0096 44.4094 70.0367L44.3921 70.1357H44.3491L44.3926 69.887H44.4342L44.4237 69.9444C44.4336 69.9253 44.4468 69.91 44.4634 69.8985C44.4803 69.887 44.498 69.8813 44.5165 69.8813C44.5382 69.8813 44.5555 69.888 44.5686 69.9014C44.5817 69.9145 44.5882 69.9306 44.5882 69.9497C44.5882 69.9577 44.5873 69.9677 44.5854 69.9798L44.5581 70.1357H44.5151L44.5414 69.987C44.543 69.9794 44.5439 69.9738 44.5442 69.9703C44.5445 69.9664 44.5447 69.9629 44.5447 69.9597C44.5447 69.9473 44.541 69.9374 44.5337 69.9301C44.5267 69.9228 44.5173 69.9191 44.5055 69.9191ZM44.6393 69.8961H44.6833L44.7063 69.8177H44.7393L44.7254 69.8961H44.7943L44.7881 69.9334H44.7187L44.6986 70.0497C44.698 70.0532 44.6975 70.0565 44.6972 70.0597C44.6969 70.0626 44.6967 70.0653 44.6967 70.0678C44.6967 70.079 44.7001 70.0878 44.7068 70.0941C44.7135 70.1002 44.7222 70.1032 44.7331 70.1032C44.7423 70.1032 44.7501 70.1019 44.7565 70.0994C44.7629 70.0965 44.7686 70.0937 44.7737 70.0908L44.779 70.1281C44.7729 70.1316 44.7653 70.1346 44.756 70.1372C44.7471 70.14 44.7371 70.1415 44.7259 70.1415C44.7141 70.1415 44.7026 70.1391 44.6915 70.1343C44.6806 70.1295 44.6717 70.122 44.6647 70.1118C44.6577 70.1013 44.6542 70.0878 44.6542 70.0712C44.6542 70.0642 44.6548 70.0564 44.6561 70.0477L44.6757 69.9334H44.6331L44.6393 69.8961Z" fill="#7EAFB2"/>
<path d="M42.7226 66.9189H40.0495C39.986 66.9189 39.9346 66.9704 39.9346 67.0339V70.1444C39.9346 70.2079 39.986 70.2594 40.0495 70.2594H42.7226C42.7861 70.2594 42.8375 70.2079 42.8375 70.1444V67.0339C42.8375 66.9704 42.7861 66.9189 42.7226 66.9189Z" fill="#7EAFB2"/>
<path d="M40.5312 70.2591H41.9772C41.9385 69.9925 41.8383 69.7386 41.6843 69.5176C41.5468 69.5637 41.4029 69.5875 41.2579 69.588C41.1141 69.5879 40.9713 69.5641 40.8353 69.5176C40.7006 69.7497 40.5983 69.9992 40.5312 70.2591Z" fill="#676F7B"/>
<path d="M40.3057 70.2596H40.5318C40.5988 69.9998 40.7011 69.7503 40.8358 69.5181L40.7728 69.4922C40.5715 69.7173 40.4132 69.9774 40.3057 70.2596Z" fill="#555A60"/>
<path d="M41.7587 69.499L41.6846 69.5287C41.8386 69.7497 41.9388 70.0036 41.9775 70.2702H42.2296C42.1146 69.997 41.9527 69.7461 41.7513 69.5287L41.7587 69.499Z" fill="#555A60"/>
<path d="M41.3327 69.5996H41.1659L41.088 69.6404L41.0361 69.6886L41.1585 70.2632H41.3476L41.4736 69.6812L41.4032 69.6404L41.3327 69.5996Z" fill="#FBFEFD"/>
<path d="M41.3989 69.5918C41.352 69.5956 41.3049 69.5956 41.258 69.5918H41.1245V69.6363L41.1876 69.7883L41.043 70.2554H41.4767L41.3359 69.7883L41.3989 69.6363V69.5918Z" fill="#AA1E1B"/>
<path d="M41.014 69.5769L40.9213 69.5547L40.7656 69.7512L40.9473 69.8476L40.7916 69.981L40.9695 70.2591H41.1586L41.014 69.5769Z" fill="#555A60"/>
<path d="M41.5886 69.5586L41.496 69.5771L41.3477 70.2593H41.5367L41.7184 69.9812L41.559 69.8478L41.7406 69.7514L41.5886 69.5586Z" fill="#555A60"/>
<path d="M41.0098 69.5771L41.0505 69.7662L41.2545 69.5994C41.1724 69.5993 41.0905 69.5918 41.0098 69.5771Z" fill="#E5E6E7"/>
<path d="M41.4961 69.5771C41.4179 69.5922 41.3384 69.5997 41.2588 69.5994L41.459 69.7625L41.4961 69.5771Z" fill="#E5E6E7"/>
<path d="M41.2585 69.6031C41.0376 69.5893 40.8256 69.511 40.6488 69.3778C40.472 69.2446 40.3381 69.0625 40.2638 68.854C40.1895 68.6455 40.1781 68.4198 40.2309 68.2049C40.2836 67.9899 40.3984 67.7952 40.5608 67.6448C40.7232 67.4944 40.9261 67.395 41.1445 67.3589C41.3629 67.3228 41.587 67.3516 41.7892 67.4416C41.9914 67.5317 42.1627 67.6792 42.2819 67.8657C42.4011 68.0522 42.4629 68.2696 42.4597 68.4909C42.4452 68.7967 42.3113 69.0847 42.0866 69.2927C41.8619 69.5007 41.5645 69.6122 41.2585 69.6031Z" fill="#F2D4C2"/>
<path d="M41.3024 68.8981C41.3139 68.8998 41.3247 68.9045 41.3338 68.9116C41.3429 68.9188 41.35 68.9282 41.3543 68.9389L41.3803 69.0167C41.4619 69.2466 41.5545 69.2651 41.7955 69.2577C41.8852 69.2589 41.9744 69.2438 42.0588 69.2132C42.0809 69.2035 42.1005 69.1886 42.116 69.17C42.1314 69.1513 42.1423 69.1293 42.1477 69.1057C42.1477 69.1057 42.1848 68.8795 42.1885 68.8684C42.2551 68.8471 42.3233 68.831 42.3924 68.8202V68.7646C42.3924 68.7646 41.9661 68.735 41.7807 68.7275C41.62 68.7316 41.4604 68.7565 41.3061 68.8017C41.256 68.8122 41.2043 68.8122 41.1541 68.8017C41.0271 68.7614 40.8944 68.7414 40.7611 68.7424C40.5758 68.7424 40.1494 68.7794 40.1494 68.7794V68.8351C40.2185 68.8458 40.2867 68.8619 40.3533 68.8833L40.3941 69.1205C40.3996 69.1441 40.4104 69.1662 40.4259 69.1848C40.4413 69.2035 40.4609 69.2183 40.4831 69.228C40.5674 69.2587 40.6566 69.2738 40.7463 69.2725C40.8434 69.285 40.9421 69.2709 41.0318 69.2318C41.0939 69.1793 41.139 69.1096 41.1616 69.0316L41.1949 68.9277C41.1983 68.9171 41.2046 68.9076 41.2131 68.9004C41.2217 68.8932 41.2321 68.8885 41.2431 68.887L41.3024 68.8981ZM42.1181 69.0019C42.1181 69.1391 42.081 69.1613 42.018 69.191C41.864 69.234 41.7011 69.234 41.5471 69.191C41.5167 69.174 41.4904 69.1506 41.4699 69.1224C41.4494 69.0943 41.4353 69.062 41.4285 69.0278C41.384 68.8907 41.3988 68.8239 41.4841 68.8017C41.5724 68.7779 41.6633 68.7654 41.7548 68.7646C41.8622 68.7547 41.9705 68.7661 42.0736 68.798C42.1107 68.8202 42.1366 68.8647 42.1181 69.0019ZM40.4683 68.798C40.5713 68.7658 40.6797 68.7544 40.7871 68.7646C40.8773 68.7656 40.967 68.7781 41.054 68.8017C41.143 68.8239 41.1541 68.8907 41.1134 69.0278C41.1065 69.062 41.0924 69.0943 41.0719 69.1224C41.0514 69.1506 41.0251 69.174 40.9947 69.191C40.8407 69.234 40.6779 69.234 40.5239 69.191C40.4608 69.1613 40.4386 69.1391 40.4201 69.0019C40.4015 68.8647 40.4312 68.8202 40.4534 68.798H40.4683Z" fill="#23211D"/>
<path d="M42.7853 68.079C42.6098 68.0542 42.4511 67.9609 42.3441 67.8195C42.2626 67.712 42.0587 67.5006 42.0587 67.5006C41.8794 67.3601 41.6613 67.278 41.4339 67.2654C41.2065 67.2528 40.9807 67.3103 40.787 67.4302C40.6767 67.4206 40.566 67.4419 40.4671 67.4917C40.3683 67.5415 40.2852 67.6177 40.2272 67.712C40.0721 68.0391 40.0007 68.3996 40.0196 68.7612H40.0641C40.0914 68.858 40.13 68.9513 40.179 69.0392L40.2198 68.6944C40.4862 68.5609 40.7155 68.3635 40.8871 68.1198C41.4877 68.7019 41.9993 68.6907 42.3256 68.5869L42.396 68.9169C42.4106 68.8831 42.423 68.8484 42.4331 68.8131L42.4554 68.7426C42.4712 68.6694 42.4811 68.595 42.485 68.5202C42.5473 68.4901 42.6058 68.4527 42.6593 68.409C42.4443 68.3571 42.4554 68.32 42.4554 68.32C42.5925 68.2903 42.7853 68.079 42.7853 68.079Z" fill="#464642"/>
<path d="M40.8576 69.1174C40.8965 69.1174 40.928 69.0859 40.928 69.047C40.928 69.0081 40.8965 68.9766 40.8576 68.9766C40.8186 68.9766 40.7871 69.0081 40.7871 69.047C40.7871 69.0859 40.8186 69.1174 40.8576 69.1174Z" fill="#301E1B"/>
<path d="M40.9073 69.0513C40.9073 69.0574 40.9049 69.0633 40.9006 69.0676C40.8963 69.0719 40.8904 69.0743 40.8843 69.0743C40.8782 69.0743 40.8724 69.0719 40.8681 69.0676C40.8638 69.0633 40.8613 69.0574 40.8613 69.0513C40.8613 69.0452 40.8638 69.0394 40.8681 69.0351C40.8724 69.0307 40.8782 69.0283 40.8843 69.0283C40.8904 69.0283 40.8963 69.0307 40.9006 69.0351C40.9049 69.0394 40.9073 69.0452 40.9073 69.0513Z" fill="white"/>
<path d="M41.7551 69.047C41.7551 69.0657 41.7477 69.0836 41.7345 69.0968C41.7213 69.11 41.7034 69.1174 41.6847 69.1174C41.666 69.1174 41.6481 69.11 41.6349 69.0968C41.6217 69.0836 41.6143 69.0657 41.6143 69.047C41.6143 69.0283 41.6217 69.0104 41.6349 68.9972C41.6481 68.984 41.666 68.9766 41.6847 68.9766C41.7034 68.9766 41.7213 68.984 41.7345 68.9972C41.7477 69.0104 41.7551 69.0283 41.7551 69.047Z" fill="#301E1B"/>
<path d="M41.7345 69.0508C41.7345 69.0569 41.7321 69.0628 41.7277 69.0671C41.7234 69.0714 41.7176 69.0738 41.7115 69.0738C41.7054 69.0738 41.6995 69.0714 41.6952 69.0671C41.6909 69.0628 41.6885 69.0569 41.6885 69.0508C41.6885 69.0447 41.6909 69.0389 41.6952 69.0346C41.6995 69.0303 41.7054 69.0278 41.7115 69.0278C41.7147 69.0271 41.7179 69.0272 41.7211 69.0281C41.7242 69.029 41.7271 69.0307 41.7294 69.033C41.7317 69.0353 41.7333 69.0381 41.7342 69.0412C41.7351 69.0444 41.7352 69.0477 41.7345 69.0508Z" fill="white"/>
<path d="M40.7173 68.9731C40.7106 68.9734 40.704 68.9713 40.6986 68.9672C40.6932 68.9632 40.6893 68.9574 40.6877 68.9509C40.6865 68.947 40.6862 68.9429 40.6868 68.9389C40.6873 68.9349 40.6887 68.931 40.6908 68.9275C40.6928 68.9241 40.6956 68.9211 40.6989 68.9187C40.7022 68.9164 40.7059 68.9147 40.7099 68.9138L40.8471 68.873C40.8549 68.873 40.8625 68.8762 40.868 68.8817C40.8736 68.8873 40.8767 68.8948 40.8767 68.9027C40.8767 68.9106 40.8736 68.9181 40.868 68.9237C40.8625 68.9292 40.8549 68.9324 40.8471 68.9324L40.7099 68.9731H40.7173Z" fill="#464642"/>
<path d="M41.8371 68.9723L41.7 68.9315C41.696 68.9308 41.6923 68.9292 41.6891 68.9268C41.6859 68.9243 41.6832 68.9212 41.6814 68.9176C41.6797 68.914 41.6787 68.9101 41.6787 68.9061C41.6787 68.902 41.6796 68.8981 41.6814 68.8945C41.6823 68.8905 41.6839 68.8868 41.6863 68.8835C41.6887 68.8802 41.6917 68.8774 41.6952 68.8753C41.6986 68.8732 41.7025 68.8719 41.7065 68.8714C41.7105 68.8708 41.7146 68.8711 41.7185 68.8722L41.8557 68.913C41.8596 68.9137 41.8634 68.9154 41.8666 68.9178C41.8698 68.9202 41.8724 68.9233 41.8742 68.9269C41.876 68.9305 41.8769 68.9345 41.8769 68.9385C41.8769 68.9425 41.876 68.9465 41.8742 68.9501C41.874 68.9544 41.8728 68.9585 41.8706 68.9622C41.8684 68.9659 41.8653 68.9689 41.8616 68.9711C41.858 68.9733 41.8538 68.9746 41.8495 68.9748C41.8453 68.975 41.841 68.9742 41.8371 68.9723Z" fill="#464642"/>
<path d="M41.1729 69.2988C41.1729 69.3244 41.183 69.3489 41.2011 69.367C41.2192 69.3851 41.2437 69.3952 41.2692 69.3952C41.2948 69.3952 41.3193 69.3851 41.3374 69.367C41.3555 69.3489 41.3656 69.3244 41.3656 69.2988H41.1729Z" fill="#917B73"/>
<path d="M35.0263 59.5108C48.184 59.5108 58.8505 49.5017 58.8505 37.1548C58.8505 24.8079 48.184 14.7988 35.0263 14.7988C21.8686 14.7988 11.2021 24.8079 11.2021 37.1548C11.2021 49.5017 21.8686 59.5108 35.0263 59.5108Z" fill="#F2D4C2"/>
<path d="M35.942 45.5711C36.159 45.6026 36.3637 45.6913 36.5351 45.8282C36.7065 45.965 36.8383 46.145 36.9171 46.3497L37.4658 47.9143C39.06 52.4485 40.9211 52.8489 45.6704 52.708C47.4563 52.6905 49.2278 52.3851 50.9164 51.8034C51.3543 51.619 51.7414 51.3322 52.0453 50.967C52.3492 50.6018 52.5609 50.169 52.6626 49.705C52.6626 49.705 53.4041 45.1893 53.4412 44.9631C53.4783 44.737 57.5194 43.9918 57.5194 43.9918V42.9092C57.5194 42.9092 49.0256 42.3308 45.3886 42.2011C40.7654 42.0416 37.7957 43.4468 35.9717 43.6544C34.9715 43.738 33.9645 43.6285 33.0057 43.3318C30.465 42.5399 27.8142 42.1582 25.1533 42.2011C21.5163 42.3308 13.0225 42.9092 13.0225 42.9092V43.9918C13.0225 43.9918 17.0747 44.7332 17.1007 44.9631C17.1266 45.193 17.8755 49.705 17.8755 49.705C17.9776 50.1694 18.1899 50.6025 18.4945 50.9677C18.799 51.3329 19.1869 51.6195 19.6255 51.8034C21.3171 52.3891 23.0925 52.6971 24.8826 52.7154C26.7846 52.771 29.2092 52.797 30.5365 51.8664C31.8638 50.9358 32.5385 49.4862 33.0872 47.9217L33.6359 46.3571C33.7147 46.1524 33.8465 45.9724 34.0179 45.8356C34.1893 45.6987 34.394 45.61 34.611 45.5785C35.0519 45.5105 35.5004 45.508 35.942 45.5711ZM52.1139 47.588C51.8025 50.3093 51.3539 50.8024 50.0711 51.3251C48.7884 51.8479 43.2049 52.5226 40.7654 51.3659C40.7654 51.3659 39.212 50.8024 38.3815 48.0959C37.551 45.3895 37.8328 44.1215 39.5382 43.6284C41.2796 43.1769 43.0674 42.9281 44.8659 42.8869C47.6872 42.8462 50.427 43.0983 51.1685 43.5654C51.91 44.0325 52.4254 44.8741 52.1139 47.5954V47.588ZM19.377 43.5543C20.1371 43.0908 22.8732 42.8387 25.6797 42.8795C27.4795 42.9204 29.2685 43.1692 31.0111 43.621C32.7165 44.1141 32.9983 45.3821 32.1678 48.0885C31.3373 50.795 29.7839 51.3585 29.7839 51.3585C27.3444 52.5152 21.7609 51.8405 20.4782 51.3177C19.1954 50.795 18.7431 50.3019 18.4353 47.5806C18.1276 44.8593 18.6133 44.0288 19.377 43.5617V43.5543Z" fill="#23211D"/>
<path d="M65.3161 29.325C61.768 29.1137 58.2052 26.3591 56.5702 24.1902C54.9352 22.0213 50.9348 17.8875 50.9348 17.8875C38.285 8.2481 26.2987 16.0894 25.7241 16.4898C22.1797 16.4045 17.386 17.3054 14.6017 22.051C9.78198 30.2741 10.5235 42.8647 10.5235 42.8647C10.5235 42.8647 10.846 42.7905 11.417 42.6052C11.9249 44.5361 12.6946 46.3884 13.7045 48.1107L14.5127 41.3261C17.9606 39.6392 23.1029 36.2802 27.689 29.9071C39.6122 41.441 49.8745 41.2112 56.1809 39.1758L57.5934 45.7417C57.8851 45.068 58.1424 44.38 58.3646 43.6803L58.7613 42.2826C59.1168 40.8371 59.3205 39.3585 59.3693 37.8707C60.6106 37.2683 61.7767 36.5217 62.8432 35.6463C58.5574 34.6267 58.765 33.8704 58.765 33.8704C61.4826 33.5033 65.3161 29.325 65.3161 29.325Z" fill="#464642"/>
<path d="M28.4975 48.4885C28.4975 48.7688 28.4144 49.0428 28.2586 49.2757C28.1028 49.5087 27.8814 49.6902 27.6224 49.7973C27.3634 49.9044 27.0784 49.9322 26.8036 49.8773C26.5288 49.8223 26.2765 49.6871 26.0785 49.4886C25.8806 49.2902 25.746 49.0375 25.6918 48.7625C25.6376 48.4876 25.6661 48.2027 25.7739 47.944C25.8817 47.6853 26.0638 47.4643 26.2972 47.3092C26.5306 47.154 26.8047 47.0715 27.085 47.0723C27.46 47.0733 27.8192 47.2229 28.084 47.4884C28.3488 47.7539 28.4975 48.1136 28.4975 48.4885Z" fill="#301E1B"/>
<path d="M28.0562 48.5554C28.0562 48.6427 28.0303 48.728 27.9819 48.8006C27.9334 48.8731 27.8645 48.9297 27.7839 48.9631C27.7032 48.9964 27.6145 49.0052 27.529 48.9882C27.4434 48.9711 27.3648 48.9291 27.3031 48.8674C27.2414 48.8057 27.1993 48.7271 27.1823 48.6415C27.1653 48.5559 27.174 48.4672 27.2074 48.3866C27.2408 48.306 27.2974 48.2371 27.3699 48.1886C27.4425 48.1401 27.5278 48.1143 27.615 48.1143C27.732 48.1143 27.8443 48.1608 27.927 48.2435C28.0097 48.3262 28.0562 48.4384 28.0562 48.5554Z" fill="white"/>
<path d="M43.4827 49.9048C44.2648 49.9048 44.8989 49.2707 44.8989 48.4885C44.8989 47.7063 44.2648 47.0723 43.4827 47.0723C42.7005 47.0723 42.0664 47.7063 42.0664 48.4885C42.0664 49.2707 42.7005 49.9048 43.4827 49.9048Z" fill="#301E1B"/>
<path d="M44.4546 48.5554C44.4546 48.6427 44.4288 48.728 44.3803 48.8006C44.3318 48.8731 44.2629 48.9297 44.1823 48.9631C44.1017 48.9964 44.013 49.0052 43.9274 48.9882C43.8418 48.9711 43.7632 48.9291 43.7015 48.8674C43.6398 48.8057 43.5978 48.7271 43.5807 48.6415C43.5637 48.5559 43.5725 48.4672 43.6058 48.3866C43.6392 48.306 43.6958 48.2371 43.7683 48.1886C43.8409 48.1401 43.9262 48.1143 44.0135 48.1143C44.1305 48.1143 44.2427 48.1608 44.3254 48.2435C44.4082 48.3262 44.4546 48.4384 44.4546 48.5554Z" fill="white"/>
<path d="M24.3006 47.0545C24.156 47.0558 24.0157 47.0045 23.906 46.9102C23.7963 46.8159 23.7246 46.685 23.7042 46.5417C23.6838 46.3985 23.7161 46.2527 23.7951 46.1316C23.8742 46.0104 23.9945 45.922 24.1338 45.8829L26.8662 45.0821C26.9422 45.0573 27.0225 45.0481 27.1022 45.0549C27.1818 45.0618 27.2593 45.0845 27.33 45.1219C27.4007 45.1593 27.4632 45.2105 27.5137 45.2725C27.5643 45.3344 27.6018 45.4059 27.6242 45.4827C27.6466 45.5595 27.6533 45.64 27.6439 45.7194C27.6346 45.7988 27.6094 45.8756 27.5698 45.9451C27.5302 46.0145 27.4771 46.0754 27.4135 46.1239C27.35 46.1725 27.2773 46.2078 27.1999 46.2277L24.4712 47.0285C24.416 47.0459 24.3585 47.0547 24.3006 47.0545Z" fill="#464642"/>
<path d="M46.4566 47.0543C46.3999 47.0548 46.3436 47.046 46.2897 47.0284L43.5573 46.2275C43.4821 46.2054 43.412 46.1686 43.351 46.1194C43.29 46.0701 43.2392 46.0094 43.2017 45.9405C43.1642 45.8716 43.1406 45.7961 43.1323 45.7181C43.124 45.6401 43.1311 45.5613 43.1532 45.4861C43.1754 45.4108 43.2121 45.3407 43.2614 45.2797C43.3106 45.2187 43.3714 45.168 43.4403 45.1304C43.5091 45.0929 43.5847 45.0693 43.6627 45.061C43.7407 45.0527 43.8195 45.0598 43.8947 45.0819L46.6271 45.8828C46.7668 45.9219 46.8874 46.0106 46.9664 46.1322C47.0454 46.2538 47.0775 46.4 47.0566 46.5435C47.0357 46.687 46.9633 46.818 46.8529 46.912C46.7425 47.006 46.6016 47.0566 46.4566 47.0543Z" fill="#464642"/>
<path d="M33.3359 53.6426C33.4081 54.0946 33.6391 54.506 33.9874 54.803C34.3356 55.1 34.7783 55.2632 35.236 55.2632C35.6937 55.2632 36.1364 55.1 36.4847 54.803C36.8329 54.506 37.0639 54.0946 37.1361 53.6426H33.3359Z" fill="#917B73"/>
</g>
<defs>
<clipPath id="clip0_8_4666">
<rect width="76" height="76" rx="38" fill="white"/>
</clipPath>
</defs>
</svg>
