<svg width="126" height="29" viewBox="0 0 126 29" fill="none" xmlns="http://www.w3.org/2000/svg">
<g clip-path="url(#clip0_285_3357)">
<mask id="mask0_285_3357" style="mask-type:luminance" maskUnits="userSpaceOnUse" x="0" y="0" width="126" height="29">
<path d="M126 0.202148H0V28.4836H126V0.202148Z" fill="white"/>
</mask>
<g mask="url(#mask0_285_3357)">
<path d="M106.813 14.0572V7.01582H112.295V13.7744C112.295 16.2598 113.848 18.0401 116.052 18.0401C118.256 18.0401 119.809 16.2598 119.809 13.7744V9.28945L125.264 3.26465H125.291V14.0585C125.291 19.3133 121.476 23.0147 116.052 23.0147C110.628 23.0147 106.813 19.3121 106.813 14.0572Z" fill="#2E44D0"/>
<path d="M0.708496 19.8524L3.76076 16.2071C5.73788 17.7607 7.88568 18.5804 10.1743 18.5804C11.6692 18.5804 12.4628 18.0721 12.4628 17.225C12.4628 16.2919 11.7851 16.1511 9.09911 15.5294C4.88948 14.5689 1.64037 13.4663 1.64037 9.42488C1.64037 5.55411 4.69139 3.04004 9.2972 3.04004C12.6609 3.04004 15.2871 3.94326 17.4337 5.66748L14.7003 9.54572C12.8864 8.2401 10.9093 7.58978 9.15766 7.58978C7.82962 7.58978 7.1793 8.12673 7.1793 8.86177C7.1793 9.84971 7.85703 10.1612 10.6265 10.7542C15.1463 11.7147 17.9768 12.9294 17.9768 16.6307C17.9768 20.7282 14.8411 23.1302 9.98115 23.1302C6.4779 23.1252 3.16775 22.0276 0.708496 19.8524Z" fill="#2E44D0"/>
<path d="M20.5146 3.80435C20.5146 2.33553 21.7605 1.03613 23.3402 1.03613C24.0709 1.04707 24.7687 1.34223 25.2855 1.85902C25.8023 2.37581 26.0975 3.07358 26.1084 3.80435C26.1084 5.33048 24.8626 6.62988 23.3402 6.62988C22.5914 6.6279 21.8739 6.32958 21.3444 5.80012C20.8149 5.27066 20.5166 4.55312 20.5146 3.80435ZM20.5707 8.18342H26.0237V22.7907H20.5707V8.18342Z" fill="#2E44D0"/>
<path d="M44.7561 22.7908H38.6516L35.9681 17.9595L34.7808 19.4283V22.792H29.3291V3.04199H34.7821V13.3263L38.5395 8.1835H44.644L39.5361 14.4849L44.7561 22.7908Z" fill="#2E44D0"/>
<path d="M85.0274 15.4738C85.0274 19.965 82.258 23.1306 78.3311 23.1306C77.4511 23.1432 76.5787 22.9654 75.7739 22.6093C74.969 22.2532 74.2506 21.7272 73.668 21.0675V27.6505H68.2163V8.18324H73.668V9.90746C74.2506 9.24775 74.969 8.72181 75.7739 8.36572C76.5787 8.00962 77.4511 7.83177 78.3311 7.84438C82.258 7.84438 85.0274 11.0088 85.0274 15.4738ZM79.8286 15.4738C79.8286 13.6649 78.5006 12.3592 76.6069 12.3592C74.8839 12.3592 73.668 13.6586 73.668 15.4738C73.668 17.3101 74.8839 18.6095 76.6069 18.6095C78.5006 18.6095 79.8286 17.3101 79.8286 15.4738Z" fill="#2E44D0"/>
<path d="M87.7957 3.38086H93.2773V11.0414L99.8029 3.38086H106.269L99.0965 11.4899L106.838 22.7908H100.289L95.2868 15.4404L93.2761 17.6443V22.7858H87.7944L87.7957 3.38086Z" fill="#2E44D0"/>
<path d="M59.6549 24.9334L56.0707 25.7196C55.7538 25.7893 55.4259 25.7928 55.1076 25.73C54.7893 25.6672 54.4873 25.5394 54.2206 25.3545L46.7557 20.1869C46.4275 19.9597 46.1624 19.653 45.985 19.2954C45.8077 18.9379 45.7239 18.5412 45.7416 18.1425L46.0331 10.8656C46.0531 10.4128 46.2032 9.97535 46.4655 9.60568C46.7278 9.23601 47.0911 8.94981 47.5119 8.78135L55.4116 6.41429C55.7679 6.27114 56.1537 6.21708 56.5356 6.25681C56.9175 6.29654 57.2839 6.42885 57.603 6.64228L64.5336 11.2668C64.8553 11.4816 65.1193 11.7722 65.3022 12.1131C65.4852 12.454 65.5814 12.8346 65.5825 13.2215L65.6174 23.7873C65.6181 23.9838 65.5779 24.1782 65.4994 24.3583C65.4208 24.5384 65.3056 24.7002 65.1611 24.8333C65.0166 24.9664 64.846 25.068 64.6601 25.1316C64.4742 25.1952 64.2771 25.2193 64.0813 25.2025L60.3625 24.8873C60.1257 24.8675 59.8872 24.883 59.6549 24.9334Z" fill="#2E44D0"/>
<path d="M62.2303 12.4632L55.0157 14.3669C54.6684 14.4583 54.3622 14.6646 54.1469 14.952C53.9316 15.2395 53.8198 15.5913 53.8297 15.9503L54.0128 22.5532C54.0198 22.7999 54.0839 23.0416 54.2002 23.2593C54.3165 23.477 54.4818 23.6647 54.6831 23.8076C54.8843 23.9505 55.116 24.0447 55.3599 24.0828C55.6038 24.1209 55.8532 24.1017 56.0884 24.027L62.8619 21.8804C63.1738 21.7815 63.4476 21.5888 63.646 21.3287C63.8445 21.0685 63.9578 20.7535 63.9707 20.4265L64.2286 14.0728C64.2396 13.8233 64.1918 13.5746 64.089 13.347C63.9862 13.1193 63.8313 12.9191 63.6367 12.7624C63.4422 12.6057 63.2135 12.497 62.9692 12.445C62.7249 12.393 62.4718 12.3993 62.2303 12.4632ZM61.8291 17.1799L60.9683 18.3012C60.9441 18.3331 60.928 18.3703 60.9212 18.4098C60.9145 18.4493 60.9174 18.4898 60.9296 18.5279L61.3719 19.8871C61.3853 19.9307 61.3865 19.9772 61.3753 20.0214C61.3642 20.0656 61.3411 20.1059 61.3085 20.1379C61.276 20.1699 61.2353 20.1924 61.1909 20.2029C61.1465 20.2133 61.1001 20.2114 61.0567 20.1973L59.7175 19.7276C59.6796 19.7145 59.639 19.7107 59.5993 19.7165C59.5597 19.7224 59.522 19.7377 59.4895 19.7613L58.3446 20.5985C58.3072 20.6247 58.2634 20.6402 58.2178 20.6432C58.1722 20.6462 58.1267 20.6367 58.0862 20.6156C58.0457 20.5945 58.0118 20.5627 57.9882 20.5237C57.9645 20.4846 57.952 20.4398 57.9521 20.3941L57.9845 18.9752C57.9852 18.9352 57.9763 18.8957 57.9585 18.8599C57.9407 18.8241 57.9146 18.7932 57.8824 18.7696L56.7325 17.9386C56.6961 17.9112 56.6679 17.8742 56.651 17.8318C56.6341 17.7895 56.6292 17.7433 56.6368 17.6983C56.6444 17.6533 56.6642 17.6113 56.694 17.5768C56.7238 17.5423 56.7626 17.5166 56.806 17.5026L58.1652 17.0952C58.2035 17.0836 58.2384 17.0629 58.267 17.035C58.2957 17.007 58.3171 16.9725 58.3296 16.9345L58.7644 15.584C58.7793 15.5409 58.8057 15.5028 58.8408 15.4737C58.8759 15.4445 58.9183 15.4256 58.9634 15.4189C59.0085 15.4123 59.0546 15.4181 59.0966 15.4358C59.1386 15.4534 59.175 15.4823 59.2017 15.5192L60.009 16.6853C60.032 16.7181 60.0626 16.7448 60.0982 16.7633C60.1338 16.7817 60.1732 16.7913 60.2133 16.7912H61.631C61.6756 16.7927 61.7189 16.8061 61.7565 16.83C61.7941 16.8539 61.8246 16.8874 61.8448 16.9271C61.865 16.9668 61.8742 17.0112 61.8715 17.0557C61.8687 17.1001 61.8541 17.143 61.8291 17.1799Z" fill="#4B8AFF"/>
</g>
</g>
<defs>
<clipPath id="clip0_285_3357">
<rect width="126" height="28.2814" fill="white" transform="translate(0 0.203125)"/>
</clipPath>
</defs>
</svg>
