<svg id="Layer_1" data-name="Layer 1" xmlns="http://www.w3.org/2000/svg" xmlns:xlink="http://www.w3.org/1999/xlink" viewBox="0 0 1011.38 227.01"><defs><style>.cls-1{fill:none;}.cls-2{clip-path:url(#clip-path);}.cls-3{fill:#fff;}.cls-4{fill:#2e44d0;}</style><clipPath id="clip-path"><rect class="cls-1" width="1011.38" height="227.01"/></clipPath></defs><g class="cls-2"><path class="cls-3" d="M857.37,111.21V54.69h44v54.25c0,19.95,12.47,34.24,30.16,34.24s30.16-14.29,30.16-34.24v-36l43.78-48.36h.22v86.64c0,42.18-30.62,71.89-74.16,71.89S857.37,153.39,857.37,111.21Z"/><path class="cls-3" d="M5.69,157.73l24.5-29.26c15.87,12.47,33.11,19.05,51.48,19.05,12,0,18.37-4.08,18.37-10.88,0-7.49-5.44-8.62-27-13.61-33.79-7.71-59.87-16.56-59.87-49,0-31.07,24.49-51.25,61.46-51.25,27,0,48.08,7.25,65.31,21.09L118,75C103.44,64.52,87.57,59.3,73.51,59.3c-10.66,0-15.88,4.31-15.88,10.21,0,7.93,5.44,10.43,27.67,15.19,36.28,7.71,59,17.46,59,47.17,0,32.89-25.17,52.17-64.18,52.17C52,184,25.43,175.19,5.69,157.73Z"/><path class="cls-3" d="M164.67,28.91c0-11.79,10-22.22,22.68-22.22a22.56,22.56,0,0,1,22.22,22.22c0,12.25-10,22.68-22.22,22.68A22.74,22.74,0,0,1,164.67,28.91Zm.45,35.15h43.77V181.31H165.12Z"/><path class="cls-3" d="M359.25,181.31h-49l-21.54-38.78-9.53,11.79v27H235.42V22.79h43.77v82.55l30.16-41.28h49l-41,50.58Z"/><path class="cls-3" d="M682.5,122.58c0,36.05-22.23,61.46-53.75,61.46a49,49,0,0,1-37.43-16.56v52.84H547.56V64.06h43.76V77.9a49,49,0,0,1,37.43-16.56C660.27,61.34,682.5,86.74,682.5,122.58Zm-41.73,0c0-14.52-10.66-25-25.86-25-13.83,0-23.59,10.43-23.59,25,0,14.74,9.76,25.17,23.59,25.17C630.11,147.75,640.77,137.32,640.77,122.58Z"/><path class="cls-3" d="M704.72,25.51h44V87L801.1,25.51H853L795.43,90.6l62.14,90.71H805l-40.15-59L748.71,140v41.27h-44Z"/><path class="cls-3" d="M478.84,198.51l-28.77,6.31a18.93,18.93,0,0,1-14.85-2.93L375.3,160.41A18.94,18.94,0,0,1,367.16,144l2.34-58.41a18.92,18.92,0,0,1,11.87-16.73l63.41-19a18.94,18.94,0,0,1,17.59,1.83L518,88.81a18.93,18.93,0,0,1,8.42,15.69l.28,84.81a11.36,11.36,0,0,1-12.33,11.36l-29.85-2.53A19.21,19.21,0,0,0,478.84,198.51Z"/><path class="cls-4" d="M499.51,98.41,441.6,113.69a12.78,12.78,0,0,0-9.52,12.71l1.47,53a12.79,12.79,0,0,0,16.66,11.83L504.58,174a12.77,12.77,0,0,0,8.9-11.67l2.07-51A12.78,12.78,0,0,0,499.51,98.41Zm-3.22,37.86-6.91,9a2,2,0,0,0-.31,1.82L492.62,158a2,2,0,0,1-2.53,2.49l-10.75-3.77a2,2,0,0,0-1.83.27l-9.19,6.72a2,2,0,0,1-3.15-1.64l.26-11.39a2,2,0,0,0-.82-1.65l-9.23-6.67a2,2,0,0,1,.59-3.5l10.91-3.27a2,2,0,0,0,1.32-1.29l3.49-10.84a2,2,0,0,1,3.51-.52l6.48,9.36a2,2,0,0,0,1.64.85l11.38,0A2,2,0,0,1,496.29,136.27Z"/></g></svg>