<svg width="127" height="29" viewBox="0 0 127 29" fill="none" xmlns="http://www.w3.org/2000/svg">
<mask id="mask0_235_2883" style="mask-type:luminance" maskUnits="userSpaceOnUse" x="0" y="0" width="127" height="29">
<path d="M127 0.177734H0V28.9577H127V0.177734Z" fill="white"/>
</mask>
<g mask="url(#mask0_235_2883)">
<path d="M108.696 14.2797V7.11417H114.274V13.9919C114.274 16.5211 115.855 18.3328 118.098 18.3328C120.34 18.3328 121.921 16.5211 121.921 13.9919V9.42788L127.472 3.29688H127.5V14.281C127.5 19.6285 123.618 23.3951 118.098 23.3951C112.578 23.3951 108.696 19.6272 108.696 14.2797Z" fill="white"/>
<path d="M0.721191 20.1761L3.82726 16.4666C5.83924 18.0475 8.02489 18.8817 10.3538 18.8817C11.8752 18.8817 12.6827 18.3645 12.6827 17.5024C12.6827 16.5528 11.9931 16.4095 9.25972 15.7769C4.97587 14.7995 1.66949 13.6775 1.66949 9.56478C1.66949 5.62577 4.7743 3.06738 9.46129 3.06738C12.8843 3.06738 15.5568 3.98653 17.7412 5.74114L14.9597 9.68775C13.1138 8.35911 11.1018 7.69733 9.3193 7.69733C7.96785 7.69733 7.30606 8.24375 7.30606 8.99174C7.30606 9.99709 7.99574 10.314 10.814 10.9175C15.4135 11.895 18.2939 13.1311 18.2939 16.8976C18.2939 21.0674 15.1029 23.5117 10.1573 23.5117C6.5923 23.5066 3.2238 22.3897 0.721191 20.1761Z" fill="white"/>
<path d="M20.876 3.84534C20.876 2.35062 22.1438 1.02832 23.7513 1.02832C24.495 1.03945 25.205 1.33981 25.7309 1.86571C26.2568 2.39161 26.5572 3.10168 26.5683 3.84534C26.5683 5.39837 25.3005 6.72067 23.7513 6.72067C22.9893 6.71866 22.2592 6.41508 21.7204 5.87629C21.1816 5.33749 20.878 4.60731 20.876 3.84534ZM20.933 8.3016H26.4821V23.1664H20.933V8.3016Z" fill="white"/>
<path d="M45.5447 23.1653H39.3325L36.6017 18.2488L35.3935 19.7435V23.1665H29.8457V3.06836H35.3948V13.5339L39.2184 8.3005H45.4306L40.2327 14.713L45.5447 23.1653Z" fill="white"/>
<path d="M86.5259 15.7206C86.5259 20.291 83.7077 23.5124 79.7116 23.5124C78.816 23.5252 77.9283 23.3442 77.1092 22.9819C76.2902 22.6195 75.5591 22.0843 74.9663 21.413V28.1119H69.4185V8.30153H74.9663V10.0561C75.5591 9.3848 76.2902 8.8496 77.1092 8.48722C77.9283 8.12485 78.816 7.94387 79.7116 7.95669C83.7077 7.95669 86.5259 11.1769 86.5259 15.7206ZM81.2355 15.7206C81.2355 13.8798 79.884 12.5511 77.957 12.5511C76.2036 12.5511 74.9663 13.8734 74.9663 15.7206C74.9663 17.5893 76.2036 18.9116 77.957 18.9116C79.884 18.9116 81.2355 17.5893 81.2355 15.7206Z" fill="white"/>
<path d="M89.3431 3.41406H94.9213V11.2097L101.562 3.41406H108.142L100.843 11.6661L108.721 23.1661H102.056L96.9662 15.6862L94.92 17.9289V23.1611H89.3418L89.3431 3.41406Z" fill="white"/>
<path d="M60.7064 25.3469L57.059 26.1469C56.7365 26.2178 56.4028 26.2214 56.0789 26.1575C55.7549 26.0936 55.4477 25.9635 55.1763 25.7754L47.5797 20.5166C47.2458 20.2854 46.976 19.9733 46.7955 19.6095C46.615 19.2456 46.5298 18.8419 46.5478 18.4362L46.8444 11.0311C46.8648 10.5703 47.0176 10.1251 47.2845 9.74892C47.5514 9.37274 47.9211 9.08149 48.3493 8.91006L56.3883 6.50127C56.7508 6.3556 57.1434 6.30059 57.5321 6.34102C57.9207 6.38145 58.2935 6.51609 58.6183 6.73328L65.671 11.4393C65.9985 11.6579 66.2671 11.9536 66.4532 12.3005C66.6394 12.6474 66.7374 13.0348 66.7385 13.4284L66.774 24.1805C66.7747 24.3805 66.7338 24.5784 66.6539 24.7616C66.5739 24.9449 66.4567 25.1095 66.3097 25.245C66.1626 25.3804 65.989 25.4838 65.7998 25.5485C65.6106 25.6132 65.41 25.6378 65.2108 25.6207L61.4265 25.3C61.1854 25.2798 60.9427 25.2956 60.7064 25.3469Z" fill="white"/>
<path d="M63.3266 12.6556L55.9849 14.5928C55.6315 14.6858 55.3199 14.8957 55.1008 15.1882C54.8817 15.4808 54.7679 15.8388 54.778 16.2041L54.9643 22.9234C54.9714 23.1744 55.0367 23.4204 55.155 23.642C55.2734 23.8635 55.4416 24.0545 55.6464 24.2C55.8512 24.3454 56.087 24.4412 56.3351 24.48C56.5833 24.5187 56.8371 24.4993 57.0765 24.4232L63.9694 22.2388C64.2868 22.1381 64.5654 21.9421 64.7673 21.6773C64.9692 21.4125 65.0846 21.092 65.0977 20.7593L65.3602 14.2936C65.3714 14.0396 65.3228 13.7866 65.2181 13.5549C65.1135 13.3232 64.9558 13.1194 64.7579 12.96C64.5599 12.8005 64.3272 12.6899 64.0786 12.637C63.8299 12.5841 63.5724 12.5905 63.3266 12.6556ZM62.9184 17.4554L62.0424 18.5964C62.0178 18.6289 62.0013 18.6668 61.9945 18.707C61.9877 18.7471 61.9906 18.7884 62.0031 18.8272L62.4531 20.2103C62.4668 20.2547 62.468 20.302 62.4566 20.347C62.4452 20.392 62.4217 20.433 62.3886 20.4656C62.3555 20.4981 62.3141 20.521 62.269 20.5316C62.2238 20.5423 62.1765 20.5403 62.1324 20.526L60.7695 20.048C60.7309 20.0346 60.6897 20.0308 60.6493 20.0367C60.6089 20.0427 60.5706 20.0583 60.5375 20.0823L59.3724 20.9342C59.3344 20.9609 59.2898 20.9767 59.2434 20.9798C59.197 20.9828 59.1507 20.9731 59.1095 20.9517C59.0683 20.9302 59.0338 20.8978 59.0097 20.8581C58.9857 20.8184 58.973 20.7728 58.9731 20.7263L59.006 19.2823C59.0067 19.2416 58.9977 19.2014 58.9796 19.165C58.9615 19.1286 58.9349 19.0971 58.9021 19.0731L57.7319 18.2275C57.6948 18.1995 57.6662 18.162 57.649 18.1188C57.6318 18.0757 57.6268 18.0287 57.6346 17.9829C57.6423 17.9371 57.6624 17.8944 57.6928 17.8593C57.7231 17.8241 57.7625 17.798 57.8067 17.7838L59.1898 17.3692C59.2288 17.3574 59.2644 17.3364 59.2935 17.3079C59.3226 17.2794 59.3445 17.2444 59.3572 17.2057L59.7997 15.8314C59.8148 15.7875 59.8417 15.7487 59.8774 15.7191C59.9131 15.6894 59.9563 15.6702 60.0021 15.6634C60.048 15.6566 60.0949 15.6625 60.1377 15.6805C60.1804 15.6985 60.2174 15.7279 60.2446 15.7655L61.0662 16.9521C61.0896 16.9855 61.1207 17.0127 61.1569 17.0314C61.1931 17.0502 61.2333 17.0599 61.2741 17.0599H62.7168C62.7621 17.0614 62.8062 17.075 62.8445 17.0993C62.8827 17.1236 62.9138 17.1578 62.9343 17.1982C62.9549 17.2385 62.9643 17.2837 62.9615 17.329C62.9587 17.3742 62.9438 17.4179 62.9184 17.4554Z" fill="#2E44D0"/>
</g>
</svg>
