<svg width="208" height="47" viewBox="0 0 208 47" fill="none" xmlns="http://www.w3.org/2000/svg">
<g clip-path="url(#clip0_270_2865)">
<mask id="mask0_270_2865" style="mask-type:luminance" maskUnits="userSpaceOnUse" x="0" y="0" width="208" height="47">
<path d="M208 0H0V46.6868H208V0Z" fill="white"/>
</mask>
<g mask="url(#mask0_270_2865)">
<path d="M176.326 22.871V11.2471H185.375V22.4041C185.375 26.507 187.94 29.4459 191.578 29.4459C195.216 29.4459 197.781 26.507 197.781 22.4041V15.0004L206.784 5.05469H206.83V22.873C206.83 31.5478 200.532 37.6579 191.578 37.6579C182.623 37.6579 176.326 31.5457 176.326 22.871Z" fill="#2E44D0"/>
<path d="M1.16992 32.4383L6.20858 26.4207C9.4724 28.9853 13.018 30.3385 16.7959 30.3385C19.2639 30.3385 20.5739 29.4995 20.5739 28.101C20.5739 26.5606 19.4551 26.3282 15.0211 25.3019C8.07186 23.7163 2.70826 21.8962 2.70826 15.2246C2.70826 8.83478 7.74486 4.68457 15.3481 4.68457C20.9009 4.68457 25.2362 6.1756 28.7797 9.02193L24.2675 15.4241C21.2731 13.2688 18.0093 12.1953 15.1178 12.1953C12.9254 12.1953 11.8519 13.0817 11.8519 14.295C11.8519 15.9259 12.9707 16.4401 17.5425 17.419C25.0038 19.0046 29.6764 21.0098 29.6764 27.12C29.6764 33.8841 24.4999 37.8492 16.4772 37.8492C10.694 37.841 5.22964 36.0291 1.16992 32.4383Z" fill="#2E44D0"/>
<path d="M33.8657 5.94573C33.8657 3.52101 35.9223 1.37598 38.5301 1.37598C39.7364 1.39402 40.8883 1.88127 41.7414 2.73439C42.5945 3.5875 43.0818 4.73938 43.0998 5.94573C43.0998 8.46506 41.0432 10.6101 38.5301 10.6101C37.294 10.6068 36.1095 10.1144 35.2355 9.24034C34.3614 8.3663 33.869 7.1818 33.8657 5.94573ZM33.9583 13.1747H42.96V37.2883H33.9583V13.1747Z" fill="#2E44D0"/>
<path d="M73.8828 37.2887H63.8055L59.3756 29.3132L57.4157 31.7379V37.2907H48.416V4.6875H57.4177V21.6647L63.6204 13.1751H73.6978L65.2657 23.5773L73.8828 37.2887Z" fill="#2E44D0"/>
<path d="M140.363 25.2099C140.363 32.6239 135.791 37.8497 129.308 37.8497C127.856 37.8705 126.415 37.5769 125.087 36.9891C123.758 36.4013 122.572 35.533 121.611 34.444V45.3111H112.611V13.1747H121.611V16.021C122.572 14.932 123.758 14.0638 125.087 13.4759C126.415 12.8881 127.856 12.5945 129.308 12.6153C135.791 12.6153 140.363 17.839 140.363 25.2099ZM131.78 25.2099C131.78 22.2237 129.588 20.0684 126.462 20.0684C123.618 20.0684 121.611 22.2134 121.611 25.2099C121.611 28.2413 123.618 30.3863 126.462 30.3863C129.588 30.3863 131.78 28.2413 131.78 25.2099Z" fill="#2E44D0"/>
<path d="M144.932 5.24609H153.981V17.8921L164.754 5.24609H175.427L163.588 18.6325L176.367 37.2879H165.556L157.299 25.1539L153.979 28.7921V37.2796H144.93L144.932 5.24609Z" fill="#2E44D0"/>
<path d="M98.4777 40.8258L92.5609 42.1235C92.0378 42.2386 91.4965 42.2444 90.971 42.1408C90.4455 42.0371 89.9471 41.8261 89.5069 41.5209L77.1837 32.9902C76.6421 32.6151 76.2043 32.1088 75.9116 31.5186C75.6188 30.9284 75.4805 30.2735 75.5097 29.6153L75.9909 17.6027C76.0239 16.8552 76.2718 16.1331 76.7047 15.5228C77.1377 14.9126 77.7375 14.4401 78.4321 14.162L91.473 10.2545C92.0611 10.0182 92.698 9.92896 93.3284 9.99454C93.9588 10.0601 94.5637 10.2786 95.0905 10.6309L106.531 18.265C107.063 18.6195 107.498 19.0993 107.8 19.662C108.102 20.2248 108.261 20.8531 108.263 21.4918L108.321 38.9337C108.322 39.2581 108.255 39.5791 108.126 39.8764C107.996 40.1737 107.806 40.4407 107.567 40.6605C107.329 40.8803 107.047 41.048 106.74 41.1529C106.433 41.2578 106.108 41.2977 105.785 41.27L99.6459 40.7497C99.2549 40.7169 98.8612 40.7426 98.4777 40.8258Z" fill="#2E44D0"/>
<path d="M102.729 20.239L90.8192 23.3815C90.2459 23.5325 89.7405 23.8729 89.385 24.3474C89.0296 24.822 88.845 25.4027 88.8613 25.9954L89.1637 36.8954C89.1751 37.3027 89.281 37.7017 89.473 38.0611C89.665 38.4205 89.9379 38.7303 90.2701 38.9663C90.6023 39.2022 90.9848 39.3577 91.3874 39.4205C91.79 39.4833 92.2017 39.4518 92.59 39.3283L103.772 35.7848C104.287 35.6215 104.739 35.3035 105.066 34.874C105.394 34.4445 105.581 33.9245 105.602 33.3848L106.028 22.8961C106.046 22.4842 105.967 22.0737 105.797 21.6979C105.628 21.3221 105.372 20.9915 105.051 20.7328C104.73 20.4741 104.352 20.2947 103.949 20.2089C103.545 20.1231 103.128 20.1334 102.729 20.239ZM102.067 28.0253L100.646 29.8762C100.606 29.9289 100.579 29.9904 100.568 30.0556C100.557 30.1207 100.562 30.1876 100.582 30.2505L101.312 32.4943C101.334 32.5662 101.336 32.6429 101.318 32.7159C101.299 32.789 101.261 32.8555 101.207 32.9083C101.154 32.9612 101.087 32.9982 101.013 33.0155C100.94 33.0328 100.863 33.0296 100.792 33.0063L98.5808 32.231C98.5183 32.2093 98.4514 32.203 98.3858 32.2126C98.3203 32.2223 98.2581 32.2477 98.2045 32.2865L96.3145 33.6686C96.2528 33.7119 96.1804 33.7375 96.1052 33.7425C96.03 33.7475 95.9549 33.7317 95.888 33.6969C95.8211 33.6621 95.7651 33.6096 95.7261 33.5451C95.6871 33.4806 95.6665 33.4067 95.6666 33.3313L95.7201 30.9888C95.7212 30.9229 95.7065 30.8576 95.6772 30.7986C95.6478 30.7395 95.6047 30.6884 95.5515 30.6495L93.6532 29.2777C93.5931 29.2324 93.5466 29.1714 93.5187 29.1015C93.4909 29.0315 93.4828 28.9552 93.4953 28.881C93.5078 28.8067 93.5405 28.7373 93.5897 28.6804C93.639 28.6234 93.7029 28.5811 93.7746 28.5579L96.0183 27.8854C96.0815 27.8663 96.1392 27.8321 96.1865 27.786C96.2337 27.7398 96.2692 27.6829 96.2898 27.6201L97.0075 25.3908C97.0321 25.3196 97.0757 25.2566 97.1337 25.2086C97.1916 25.1605 97.2616 25.1293 97.336 25.1182C97.4104 25.1072 97.4865 25.1168 97.5559 25.146C97.6252 25.1752 97.6852 25.2229 97.7294 25.2838L99.0621 27.2088C99.1001 27.2629 99.1506 27.307 99.2093 27.3375C99.268 27.3679 99.3332 27.3837 99.3993 27.3836H101.74C101.813 27.386 101.885 27.4081 101.947 27.4476C102.009 27.4871 102.059 27.5424 102.093 27.6079C102.126 27.6735 102.141 27.7467 102.137 27.8201C102.132 27.8935 102.108 27.9644 102.067 28.0253Z" fill="#4B8AFF"/>
</g>
</g>
<defs>
<clipPath id="clip0_270_2865">
<rect width="208" height="46.6868" fill="white"/>
</clipPath>
</defs>
</svg>
