<svg width="210" height="209" viewBox="0 0 210 209" fill="none" xmlns="http://www.w3.org/2000/svg">
<g clip-path="url(#clip0_79_3449)">
<rect x="0.5" width="209" height="209" rx="104.5" fill="white"/>
<path d="M176.253 160.117C175.956 153.193 170.795 140.204 170.655 140.276L163.214 105.189L126.354 106.448L118.937 143.735C116.361 148.733 114.35 154.091 113.36 159.609C112.859 162.408 112.774 165.357 113.963 168.006C115.108 170.554 117.199 172.561 119.382 174.233C119.577 174.383 119.872 174.12 119.701 173.923C117.99 171.941 115.966 170.078 114.914 167.625C113.604 164.577 114.085 161.167 114.82 158.039C115.629 154.623 116.72 151.28 118.079 148.044L116.979 153.571C114.866 164.185 118.769 174.974 126.788 181.641C127.425 182.171 128.618 173.732 129.457 171.688C129.476 175.074 130.236 178.367 131.836 181.377C132.197 183.603 132.596 185.374 133.095 185.601C136.917 187.344 141.07 188.243 145.27 188.236C145.56 188.236 146.457 179.527 146.744 179.519C147.854 179.487 148.334 188.098 149.403 187.944C153.604 187.342 157.615 185.797 161.133 183.423C161.212 183.358 161.276 183.276 161.319 183.183C164.206 180.545 164.927 176.605 165.043 172.744C165.704 175.377 166.371 178.912 166.885 178.315C168.304 176.669 169.537 174.871 170.561 172.954C175.913 171.794 176.437 164.523 176.253 160.117ZM130.134 171.733C130.635 172.914 131.038 175.981 131.462 178.94C130.63 176.626 130.182 174.191 130.134 171.733ZM161.855 181.19C162.544 177.551 163.105 170.754 163.827 170.113C163.967 169.985 164.121 170.105 164.275 170.393C164.215 174.251 163.756 177.848 161.855 181.19ZM171.441 171.138C173.992 165.474 174.666 159.144 173.367 153.07L170.914 141.505C173.059 146.567 174.398 151.935 174.881 157.412C175.325 162.482 175.318 167.814 171.441 171.138Z" fill="#5E3C3B"/>
<path d="M163.865 215.394L147.792 207.609C147.47 206.805 143.332 207.138 143.174 207.62L127.797 216.437C126.763 207.001 124.578 195.095 131.983 181.242C135.943 173.839 136.871 171.012 135.964 168.787C135.183 166.871 132.262 164.704 131.949 162.448C131.638 160.209 132.772 157.613 133.659 155.218C133.852 154.695 131.024 152.105 128.18 147.026C128.698 146.703 130.023 146.246 130.632 146.094C134.625 145.086 138.189 143.981 140.626 142.621L149.21 142.493C151.597 143.692 155.272 144.706 159.317 145.666C159.889 145.806 160.716 146.051 161.307 146.185C160.071 151.164 158.622 154.039 158.845 154.421C163.192 161.87 157.692 166.127 156.054 168.415C155.297 170.654 155.101 174.813 159.413 181.414C167.316 193.518 165.109 212.498 163.865 215.394Z" fill="#FFE2D3"/>
<path d="M144.95 146.726H144.544C141.763 146.726 140.672 145.169 140.672 142.388L139.51 133.234H149.988L149.071 142.388C149.073 145.169 147.736 146.726 144.95 146.726Z" fill="#FFE2D3"/>
<path d="M149.988 133.236L149.487 138.26C148.453 139.036 146.768 139.832 145.105 139.825C143.044 139.817 141.959 139.295 140.139 138.113L139.512 133.236H149.988Z" fill="#FFAA95"/>
<path d="M174.442 120.952C173.174 124.264 169.484 126.509 166.691 125.762C163.897 125.014 163.409 121.671 164.326 118.245C165.242 114.819 167.793 112.026 170.587 112.773C173.38 113.521 176.158 116.485 174.442 120.952Z" fill="#FFE2D3"/>
<path d="M171.751 120.559C170.988 122.072 169.012 123.569 167.717 122.915C166.421 122.262 166.291 119.705 167.053 118.191C167.816 116.677 170.061 115.382 171.358 116.037C172.655 116.692 172.519 119.046 171.751 120.559Z" fill="#FFAA95"/>
<path d="M117.492 120.952C118.761 124.264 122.45 126.509 125.245 125.762C128.039 125.014 128.526 121.671 127.61 118.245C126.693 114.819 124.142 112.026 121.347 112.773C118.553 113.521 115.782 116.485 117.492 120.952Z" fill="#FFE2D3"/>
<path d="M120.18 120.559C120.943 122.072 122.917 123.569 124.215 122.915C125.512 122.262 125.641 119.705 124.878 118.191C124.115 116.677 121.871 115.382 120.573 116.037C119.276 116.692 119.422 119.046 120.18 120.559Z" fill="#FFAA95"/>
<path d="M170.56 110.397C170.56 113.985 170.104 117.302 169.244 120.298C168.052 124.467 166.072 128.019 163.444 130.828C160.085 134.419 154.753 135.857 150.009 137.65C148.305 138.294 146.481 138.702 145.069 138.711C143.06 138.722 141.52 138.189 139.406 137.252C135.851 135.677 131.989 134.491 129.409 132.059C126.533 129.347 124.381 125.819 122.985 121.678C121.712 117.9 121.064 113.621 121.064 108.989C121.064 92.1554 130.761 79.8389 146.736 79.8389C162.71 79.8389 170.56 93.5604 170.56 110.397Z" fill="#FFE2D3"/>
<path d="M136.803 124.803C136.802 126.728 136.037 128.575 134.675 129.936C133.314 131.298 131.468 132.063 129.542 132.063C129.498 132.063 129.454 132.063 129.402 132.063C126.527 129.351 124.374 125.823 122.978 121.682C123.687 120.196 124.881 118.994 126.363 118.275C127.845 117.557 129.528 117.363 131.135 117.726C132.741 118.09 134.177 118.988 135.206 120.275C136.234 121.562 136.795 123.16 136.796 124.807L136.803 124.803Z" fill="#FFC9C2"/>
<path d="M169.246 120.299C168.054 124.468 166.073 128.019 163.445 130.828C163.226 130.848 163.002 130.86 162.776 130.86C161.486 130.86 160.218 130.516 159.105 129.863C157.992 129.211 157.072 128.273 156.442 127.147C155.811 126.021 155.492 124.747 155.517 123.457C155.542 122.166 155.911 120.906 156.585 119.805C157.259 118.705 158.215 117.804 159.353 117.195C160.491 116.587 161.77 116.292 163.06 116.342C164.35 116.393 165.603 116.786 166.69 117.481C167.777 118.176 168.659 119.149 169.246 120.299Z" fill="#FFC9C2"/>
<path d="M146.734 79.8389C130.764 79.8389 121.064 92.154 121.064 108.989C121.064 110.536 121.794 111.228 121.936 112.688C122.751 112.211 122.916 112.548 123.73 112.085C123.854 112.015 123.954 111.525 124.066 111.539C125.082 110.813 125.981 109.696 126.927 108.88C129.698 106.484 131.685 103.142 133.475 99.9951C134.47 98.243 135.399 96.4545 136.292 94.6478C137.028 93.1574 137.6 91.3059 138.559 89.9652C139.149 90.8413 139.448 92.0924 139.862 93.0818C140.326 94.1902 140.815 95.2901 141.349 96.3663C144.813 103.33 150.8 108.243 157.875 111.293C159.925 112.185 162.067 112.846 164.262 113.263C166.12 113.61 167.996 113.665 169.873 113.837L170.409 113.887C170.508 112.754 170.564 111.591 170.564 110.396C170.56 93.5604 162.706 79.8389 146.734 79.8389Z" fill="#FFAA95"/>
<path d="M140.973 111.928C140.59 112.488 139.145 111.184 137.063 111.184C134.981 111.184 133.744 112.42 133.5 112.136C133.257 111.851 135.108 109.436 137.19 109.436C139.273 109.436 142.112 110.27 140.973 111.928Z" fill="#713020"/>
<path d="M151.29 111.817C151.673 112.377 153.118 111.073 155.2 111.073C157.282 111.073 158.519 112.31 158.764 112.024C159.009 111.739 157.155 109.326 155.073 109.326C152.99 109.326 150.152 110.156 151.29 111.817Z" fill="#713020"/>
<path d="M148.235 122.063C147.868 122.028 147.48 122.116 147.115 122.149C146.664 122.189 146.213 122.218 145.76 122.237C144.855 122.274 143.95 122.268 143.044 122.22C142.996 122.217 142.947 122.228 142.904 122.251C142.734 122.246 142.566 122.297 142.428 122.396C142.289 122.495 142.186 122.637 142.136 122.799C141.745 124.001 142.696 125.509 143.769 125.986C145.409 126.715 147.678 126.39 148.649 124.761C149.072 124.052 149.489 122.184 148.235 122.063Z" fill="white"/>
<path d="M148.235 121.923C147.895 121.915 147.554 121.94 147.218 121.999C146.864 122.039 146.506 122.059 146.15 122.078C145.439 122.117 144.728 122.13 144.016 122.115C143.813 122.115 143.612 122.105 143.409 122.096L143.119 122.084C143.023 122.073 142.927 122.089 142.839 122.129L142.911 122.11C142.771 122.106 142.632 122.134 142.506 122.192C142.379 122.25 142.267 122.337 142.179 122.445C142.014 122.671 141.923 122.941 141.917 123.22C141.89 123.76 142.023 124.295 142.299 124.76C142.557 125.227 142.922 125.626 143.365 125.924C143.783 126.182 144.249 126.353 144.735 126.426C145.714 126.612 146.728 126.454 147.603 125.977C148.035 125.73 148.404 125.388 148.683 124.977C148.88 124.669 149.022 124.329 149.103 123.973C149.268 123.301 149.321 122.28 148.527 121.99C148.431 121.957 148.332 121.935 148.231 121.927C148.194 121.927 148.159 121.942 148.132 121.968C148.106 121.994 148.091 122.03 148.091 122.067C148.091 122.104 148.106 122.14 148.132 122.166C148.159 122.192 148.194 122.207 148.231 122.207H148.277H148.297C148.325 122.207 148.354 122.218 148.382 122.227C148.408 122.233 148.432 122.241 148.457 122.25L148.489 122.263L148.51 122.273C148.553 122.295 148.595 122.321 148.634 122.35L148.65 122.364L148.674 122.385C148.692 122.402 148.708 122.418 148.725 122.437C148.731 122.445 148.738 122.453 148.745 122.46L148.757 122.477C148.771 122.498 148.785 122.516 148.798 122.537C148.823 122.579 148.844 122.622 148.862 122.666C148.853 122.644 148.862 122.666 148.862 122.673L148.875 122.709C148.883 122.735 148.89 122.76 148.897 122.785C148.911 122.835 148.922 122.885 148.93 122.936V122.971C148.93 122.979 148.93 122.987 148.93 122.995C148.93 122.995 148.93 122.971 148.93 122.987C148.93 123.002 148.93 123.043 148.937 123.07C148.937 123.126 148.937 123.182 148.937 123.237C148.935 123.351 148.926 123.465 148.91 123.578C148.91 123.588 148.91 123.618 148.91 123.592C148.91 123.608 148.91 123.622 148.91 123.637C148.91 123.653 148.9 123.696 148.895 123.725C148.883 123.783 148.871 123.839 148.857 123.895C148.83 124.003 148.799 124.11 148.763 124.217L148.708 124.365C148.699 124.387 148.69 124.411 148.681 124.434C148.676 124.444 148.672 124.453 148.667 124.463C148.667 124.47 148.657 124.488 148.667 124.463L148.657 124.483C148.618 124.568 148.575 124.65 148.527 124.73C148.379 124.973 148.196 125.192 147.984 125.38C147.562 125.745 147.055 125.999 146.51 126.12C145.959 126.246 145.388 126.262 144.831 126.167C144.548 126.118 144.27 126.041 144.002 125.938C143.743 125.837 143.502 125.695 143.287 125.518C142.812 125.121 142.466 124.591 142.292 123.997C142.209 123.714 142.186 123.417 142.225 123.125C142.241 122.978 142.285 122.835 142.355 122.705C142.427 122.586 142.536 122.492 142.666 122.439C142.726 122.416 142.79 122.402 142.855 122.397C142.902 122.398 142.949 122.391 142.995 122.376C143.026 122.37 143.059 122.37 143.091 122.376C143.309 122.386 143.528 122.396 143.746 122.402C144.183 122.414 144.619 122.418 145.056 122.411C145.924 122.4 146.791 122.343 147.653 122.239C147.849 122.211 148.048 122.203 148.245 122.217C148.282 122.217 148.318 122.202 148.344 122.176C148.37 122.15 148.385 122.114 148.385 122.077C148.387 122.057 148.385 122.036 148.378 122.017C148.372 121.997 148.361 121.98 148.346 121.965C148.332 121.95 148.315 121.939 148.296 121.932C148.276 121.924 148.256 121.921 148.235 121.923Z" fill="#FFAA95"/>
<path d="M176.379 101.522C175.766 82.3807 158.945 66.8636 139.596 70.6519C132.396 72.0612 126.034 75.8844 121.683 81.8237C119.154 85.2719 117.065 89.0336 115.895 93.1592C114.564 96.007 113.687 99.0456 113.296 102.165C112.885 105.481 112.49 111.894 116.344 113.549C116.425 113.744 116.505 113.938 116.592 114.131C116.854 114.709 117.159 115.266 117.503 115.799C118.39 114.289 119.657 113.121 121.64 112.712C122.386 116.974 123.407 120.913 125.46 124.778C125.544 124.936 125.683 124.808 125.641 124.656C125.035 122.436 124.742 120.154 124.411 117.838C124.234 116.61 124.111 115.374 124.052 114.134C124.008 113.178 123.726 111.65 124.181 110.767C124.401 110.337 125.092 110.106 125.161 109.579C127.629 107.572 129.639 105 131.307 102.205C133.497 98.5344 135.705 94.8091 137.413 90.8781C136.93 96.0084 137.059 101.171 139.497 105.88C139.518 105.922 139.586 105.897 139.565 105.852C137.326 100.758 137.291 95.3423 137.807 89.9447C138.079 89.2785 138.338 88.6082 138.579 87.9295C138.753 95.4109 139.558 103.315 143.65 109.66C143.726 109.778 143.916 109.668 143.861 109.542C141.054 103.134 139.835 96.5598 139.284 89.7473C140.403 94.2158 142.242 98.5176 145.426 101.886C147.697 104.288 150.538 106.199 153.649 107.285C155.079 107.785 156.49 108.994 157.861 109.685C159.502 110.522 161.2 111.241 162.943 111.836C163.761 112.116 165.882 112.676 167.947 113.174C168.346 115.721 168.864 118.482 168.478 121.07C168.417 121.474 168.497 121.46 168.65 121.07C169.598 118.72 170.393 116.312 171.029 113.86C171.514 113.958 171.933 114.032 172.246 114.074C172.305 114.097 172.368 114.104 172.43 114.095C172.693 114.123 172.849 114.119 172.868 114.072C172.932 113.888 172.995 113.7 173.057 113.513C175.776 110.389 176.505 105.477 176.379 101.522ZM114.174 100.607C114.368 99.5507 114.619 98.5057 114.925 97.4765C114.739 98.582 114.592 99.6904 114.493 100.795C114.281 103 114.332 105.222 114.644 107.415C114.9 109.149 115.33 110.853 115.929 112.501C113.116 109.281 113.417 104.751 114.174 100.607ZM137.618 88.8727C135.836 93.2683 133.346 97.3701 130.82 101.374C129.383 103.673 127.646 105.77 125.655 107.61L137.789 87.5236C137.73 87.9733 137.674 88.423 137.618 88.8727ZM138.02 87.8455C138.054 87.553 138.089 87.2591 138.125 86.9666L138.545 86.2823C138.545 86.3173 138.545 86.3523 138.545 86.3859C138.373 86.8771 138.202 87.3627 138.02 87.8455ZM141.799 94.6804C144.507 99.6123 148.374 103.811 153.067 106.916C147.889 104.773 144.208 100.05 141.796 94.6804H141.799ZM175.026 107.517C174.782 108.457 174.449 109.371 174.031 110.246C174.979 106.666 175.462 102.978 175.468 99.2747C175.521 99.731 175.567 100.19 175.599 100.652C175.769 102.956 175.574 105.273 175.023 107.517H175.026Z" fill="#6B4442"/>
<path d="M144.357 118.847C144.406 119.109 144.525 119.352 144.701 119.551C144.878 119.75 145.105 119.898 145.359 119.978C145.563 120.039 145.777 120.056 145.988 120.028C146.198 120.001 146.401 119.929 146.582 119.817C146.763 119.705 146.918 119.557 147.038 119.381C147.158 119.205 147.239 119.006 147.276 118.797C147.289 118.746 147.281 118.692 147.255 118.646C147.229 118.6 147.187 118.566 147.136 118.551C147.085 118.537 147.03 118.544 146.984 118.57C146.938 118.597 146.904 118.64 146.89 118.69C146.859 118.89 146.776 119.077 146.648 119.233C146.521 119.389 146.354 119.508 146.165 119.578C146.017 119.633 145.858 119.655 145.7 119.641C145.542 119.627 145.389 119.578 145.253 119.498C145.116 119.417 145 119.307 144.911 119.176C144.823 119.044 144.765 118.895 144.742 118.738C144.727 118.687 144.693 118.644 144.647 118.618C144.601 118.591 144.547 118.584 144.495 118.598C144.445 118.613 144.402 118.647 144.376 118.692C144.35 118.738 144.342 118.792 144.355 118.843L144.357 118.847Z" fill="#FFAA95"/>
<path d="M138.941 73.911C138.069 77.2137 137.581 80.7235 138.208 84.1129C138.222 84.1933 138.266 84.2652 138.332 84.3138C138.398 84.3623 138.479 84.3839 138.56 84.3741C138.641 84.3642 138.716 84.3237 138.768 84.2608C138.82 84.1979 138.846 84.1174 138.84 84.036C138.84 80.6199 138.885 77.3508 139.68 74.0117C139.797 73.5401 139.061 73.4534 138.941 73.911Z" fill="#5E3C3B"/>
<path d="M136.761 118.299C137.533 118.299 138.159 117.673 138.159 116.9C138.159 116.128 137.533 115.502 136.761 115.502C135.989 115.502 135.363 116.128 135.363 116.9C135.363 117.673 135.989 118.299 136.761 118.299Z" fill="white"/>
<path d="M137.823 114.675C136.945 114.675 136.17 115.182 135.694 115.956C135.778 115.914 135.871 115.892 135.966 115.893C136.74 115.893 136.738 117.094 135.966 117.094C135.824 117.097 135.686 117.047 135.58 116.953C135.474 116.859 135.408 116.728 135.395 116.587C135.264 116.959 135.198 117.351 135.199 117.746C135.199 119.442 136.374 120.817 137.823 120.817C139.271 120.817 140.445 119.442 140.445 117.746C140.445 116.05 139.271 114.675 137.823 114.675Z" fill="#713020"/>
<path d="M155.327 119.162C156.099 119.162 156.725 118.536 156.725 117.764C156.725 116.992 156.099 116.366 155.327 116.366C154.555 116.366 153.929 116.992 153.929 117.764C153.929 118.536 154.555 119.162 155.327 119.162Z" fill="white"/>
<path d="M154.235 115.497C155.114 115.497 155.89 116.003 156.365 116.778C156.279 116.735 156.183 116.713 156.086 116.716C155.312 116.716 155.313 117.915 156.086 117.915C156.227 117.919 156.365 117.868 156.472 117.774C156.578 117.68 156.645 117.549 156.658 117.408C156.787 117.781 156.853 118.173 156.852 118.567C156.852 120.264 155.678 121.639 154.229 121.639C152.779 121.639 151.606 120.264 151.606 118.567C151.606 116.869 152.787 115.497 154.235 115.497Z" fill="#713020"/>
<path d="M156.894 294.419C157.479 298.886 145.485 300.403 146.299 293.476L148.048 286.416C147.581 276.48 146.239 258.438 146.659 250.629L147.533 205.535L164.606 213.676C163.859 222.6 158.378 237.035 156.101 248.988C158.17 266.327 156.631 275.845 154.875 286.941L156.894 294.419Z" fill="#FFE2D3"/>
<path d="M133.068 294.044C132.483 298.511 145.015 300.515 144.2 293.587L142.451 286.59C142.918 276.654 142.785 258.461 142.366 250.657L143.765 205.665L127.629 215.461C128.366 224.619 130.542 238.118 133.055 250.205C129.836 262.079 134.75 276.837 135.976 286.765L133.068 294.044Z" fill="#FFE2D3"/>
<path d="M162.54 224.261C163.561 220.312 164.351 216.681 164.603 213.677L147.529 205.538L147.166 224.261H162.54Z" fill="#FFAA95"/>
<path d="M143.188 224.26L143.767 205.666L127.632 215.462C127.843 218.083 128.172 221.06 128.593 224.26H143.188Z" fill="#FFAA95"/>
<path d="M121.903 209.909C122.183 210.549 122.91 210.42 122.986 209.729L123.467 207.564L123.768 204.256L124.989 185.265L133.366 156.208L134.012 155.642C134.2 155.478 132.193 151.427 132.04 151.084C131.458 149.74 130.973 148.226 130.245 146.958C129.852 146.272 129.622 146.454 128.854 146.702C126.665 147.409 125.284 149.821 124.693 151.936L118.838 182.184C118.586 183.089 118.147 185.947 118.218 186.884L119.198 202.049L117.779 205.952C117.599 206.398 117.173 207.926 117.219 208.406L117.7 211.715C117.829 212.241 118.362 212.196 118.422 211.775V208.993L118.842 212.911C118.963 213.152 119.624 213.632 119.925 212.851L120.166 209.061L120.513 212.267C120.526 212.385 120.582 212.494 120.669 212.573C120.757 212.653 120.871 212.697 120.989 212.699C121.108 212.7 121.223 212.658 121.312 212.58C121.401 212.502 121.459 212.395 121.475 212.277L121.428 209.182L121.91 207.015L121.903 209.909Z" fill="#FFE2D3"/>
<path d="M169.067 209.806C168.794 210.446 168.059 210.317 167.984 209.626L167.504 207.461L167.203 204.153L165.981 185.162L159.155 157.571L157.093 155.508L160.966 146.28C161.105 145.959 163.443 147.295 163.645 147.45C165.034 148.511 165.817 150.186 166.278 151.833L172.132 182.088C172.385 182.993 172.831 185.851 172.753 186.788L171.773 201.953L173.192 205.856C173.373 206.301 173.8 207.83 173.752 208.31L173.271 211.619C173.142 212.145 172.609 212.1 172.549 211.679V208.897L172.129 212.815C172.009 213.056 171.348 213.537 171.047 212.756L170.806 208.965L170.458 212.171C170.447 212.29 170.392 212.4 170.304 212.481C170.216 212.561 170.102 212.607 169.983 212.608C169.864 212.61 169.748 212.567 169.659 212.488C169.569 212.41 169.512 212.301 169.498 212.183L169.543 209.086L169.061 206.921L169.067 209.806Z" fill="#FFE2D3"/>
<path d="M143.423 116.136C143.423 116.356 143.415 116.577 143.397 116.797C143.39 116.9 143.378 117.005 143.367 117.11L143.359 117.181C143.349 117.271 143.374 117.076 143.359 117.165L143.334 117.331C143.265 117.751 143.165 118.166 143.034 118.571C142.97 118.771 142.894 118.968 142.819 119.163C142.81 119.185 142.8 119.206 142.792 119.227C142.842 119.107 142.809 119.187 142.792 119.213L142.735 119.339C142.69 119.439 142.644 119.535 142.595 119.632C142.407 120.002 142.193 120.358 141.954 120.697C141.896 120.778 141.836 120.856 141.777 120.936C141.719 121.016 141.842 120.858 141.787 120.924L141.745 120.978L141.643 121.103C141.512 121.26 141.374 121.414 141.232 121.563C141.089 121.712 140.935 121.86 140.77 122.007C140.701 122.068 140.63 122.128 140.561 122.187L140.438 122.288C140.4 122.319 140.298 122.394 140.396 122.322C140.061 122.577 139.708 122.808 139.34 123.013C139.156 123.114 138.97 123.206 138.78 123.293L138.653 123.35C138.641 123.35 138.57 123.388 138.64 123.357C138.71 123.326 138.622 123.357 138.604 123.371C138.503 123.412 138.402 123.451 138.3 123.489C137.901 123.633 137.492 123.747 137.077 123.83C136.975 123.851 136.872 123.869 136.77 123.886L136.63 123.907C136.601 123.907 136.513 123.92 136.647 123.907L136.551 123.918C136.334 123.944 136.115 123.96 135.897 123.967C135.457 123.984 135.017 123.967 134.58 123.916L134.509 123.907H134.548L134.383 123.882C134.272 123.864 134.163 123.844 134.054 123.822C133.845 123.78 133.634 123.729 133.434 123.672C133.234 123.615 133.03 123.549 132.832 123.476C132.737 123.441 132.643 123.405 132.552 123.367L132.488 123.34C132.506 123.34 132.604 123.391 132.503 123.34C132.454 123.318 132.404 123.297 132.355 123.273C131.978 123.1 131.614 122.898 131.266 122.67C131.094 122.557 130.926 122.436 130.761 122.312C130.855 122.383 130.761 122.312 130.72 122.278C130.68 122.245 130.649 122.221 130.614 122.191C130.532 122.123 130.45 122.051 130.371 121.981C130.064 121.707 129.778 121.41 129.514 121.093L129.413 120.968C129.38 120.926 129.331 120.862 129.394 120.946C129.329 120.859 129.265 120.774 129.203 120.687C129.085 120.517 128.972 120.344 128.865 120.166C128.758 119.989 128.657 119.808 128.564 119.622C128.518 119.532 128.474 119.443 128.432 119.351L128.365 119.211C128.365 119.198 128.329 119.127 128.365 119.197C128.402 119.267 128.355 119.174 128.351 119.16C128.188 118.762 128.057 118.352 127.957 117.934C127.908 117.726 127.866 117.514 127.832 117.305L127.811 117.165C127.8 117.095 127.811 117.2 127.811 117.205L127.798 117.11C127.786 116.997 127.776 116.885 127.768 116.771C127.733 116.332 127.733 115.891 127.768 115.452C127.776 115.347 127.787 115.242 127.798 115.138C127.798 115.114 127.798 115.091 127.808 115.067C127.808 115.067 127.791 115.177 127.808 115.107C127.825 115.037 127.826 114.98 127.836 114.917C127.871 114.706 127.915 114.497 127.965 114.289C128.066 113.879 128.197 113.477 128.357 113.087C128.4 112.977 128.32 113.165 128.368 113.059L128.435 112.91C128.48 112.812 128.528 112.716 128.575 112.619C128.668 112.433 128.769 112.251 128.877 112.075C128.985 111.899 129.099 111.725 129.219 111.557C129.276 111.476 129.335 111.396 129.395 111.316C129.332 111.399 129.381 111.336 129.415 111.294L129.531 111.154C129.795 110.838 130.082 110.541 130.39 110.267C130.463 110.201 130.539 110.137 130.616 110.072L130.74 109.971C130.757 109.957 130.776 109.943 130.793 109.928C130.858 109.874 130.712 109.988 130.781 109.938C130.947 109.816 131.114 109.694 131.287 109.581C131.636 109.355 132 109.154 132.377 108.981C132.426 108.958 132.477 108.939 132.526 108.915C132.575 108.891 132.494 108.927 132.489 108.93L132.554 108.904C132.655 108.863 132.755 108.823 132.859 108.786C133.056 108.713 133.258 108.646 133.461 108.592C133.664 108.537 133.88 108.485 134.082 108.443C134.183 108.424 134.285 108.405 134.387 108.389C134.442 108.379 134.498 108.372 134.552 108.364H134.513L134.608 108.352C135.046 108.302 135.486 108.285 135.926 108.303C136.145 108.312 136.362 108.329 136.58 108.355H136.619C136.541 108.345 136.619 108.355 136.635 108.355L136.774 108.378C136.885 108.394 136.994 108.415 137.103 108.436C137.526 108.523 137.942 108.641 138.347 108.79C138.443 108.825 138.536 108.863 138.627 108.901C138.718 108.939 138.548 108.865 138.654 108.913C138.711 108.939 138.767 108.962 138.823 108.989C139.012 109.077 139.198 109.171 139.383 109.269C139.568 109.367 139.741 109.477 139.915 109.591C139.997 109.645 140.08 109.703 140.161 109.76L140.273 109.84L140.328 109.882C140.328 109.882 140.445 109.971 140.377 109.918L140.442 109.97L140.566 110.072C140.648 110.141 140.728 110.212 140.808 110.282C140.96 110.422 141.109 110.562 141.251 110.713C141.394 110.864 141.531 111.015 141.663 111.174C141.691 111.21 141.72 111.245 141.749 111.281L141.805 111.353C141.805 111.353 141.742 111.267 141.782 111.322C141.845 111.409 141.91 111.494 141.972 111.581C142.21 111.921 142.422 112.277 142.609 112.647C142.654 112.737 142.697 112.828 142.739 112.919C142.758 112.961 142.777 113.004 142.796 113.046C142.841 113.147 142.796 113.046 142.796 113.031C142.807 113.06 142.82 113.088 142.831 113.117C142.91 113.312 142.982 113.509 143.045 113.709C143.176 114.115 143.275 114.531 143.341 114.952C143.35 115.007 143.357 115.063 143.366 115.119C143.35 115.009 143.366 115.093 143.366 115.149C143.377 115.254 143.388 115.358 143.395 115.463C143.413 115.683 143.42 115.902 143.422 116.123C143.418 116.205 143.431 116.286 143.459 116.362C143.487 116.438 143.531 116.508 143.587 116.567C143.643 116.625 143.71 116.672 143.785 116.704C143.86 116.736 143.94 116.753 144.021 116.753C144.103 116.753 144.183 116.736 144.258 116.704C144.333 116.672 144.4 116.625 144.456 116.567C144.512 116.508 144.556 116.438 144.584 116.362C144.612 116.286 144.625 116.205 144.621 116.123C144.621 114.26 144.044 112.442 142.971 110.919C141.894 109.416 140.389 108.272 138.653 107.637C136.459 106.844 134.044 106.929 131.912 107.875C129.78 108.822 128.096 110.556 127.214 112.715C126.331 114.875 126.318 117.292 127.176 119.46C128.035 121.629 129.699 123.382 131.82 124.352C133.578 125.147 135.54 125.369 137.431 124.986C139.222 124.612 140.857 123.703 142.12 122.379C143.383 121.056 144.215 119.38 144.505 117.573C144.58 117.096 144.619 116.614 144.623 116.13C144.626 116.049 144.614 115.968 144.586 115.892C144.557 115.816 144.514 115.746 144.458 115.687C144.401 115.628 144.334 115.582 144.259 115.55C144.185 115.518 144.104 115.501 144.023 115.501C143.942 115.501 143.861 115.518 143.786 115.55C143.712 115.582 143.644 115.628 143.588 115.687C143.532 115.746 143.489 115.816 143.46 115.892C143.432 115.968 143.419 116.049 143.423 116.13V116.136Z" fill="#231F20"/>
<path d="M164.089 116.136C164.089 116.356 164.081 116.577 164.064 116.797C164.056 116.9 164.046 117.005 164.033 117.11L164.025 117.181C164.015 117.271 164.04 117.076 164.025 117.165L164 117.331C163.931 117.751 163.831 118.166 163.7 118.571C163.636 118.771 163.56 118.968 163.485 119.163C163.476 119.185 163.466 119.206 163.458 119.227C163.508 119.107 163.475 119.187 163.458 119.213L163.401 119.339C163.356 119.439 163.31 119.535 163.261 119.632C163.073 120.002 162.859 120.358 162.62 120.697C162.562 120.778 162.502 120.856 162.443 120.936C162.385 121.016 162.508 120.858 162.453 120.924L162.411 120.978L162.309 121.103C162.178 121.26 162.04 121.414 161.898 121.563C161.755 121.712 161.601 121.86 161.436 122.007C161.367 122.068 161.296 122.128 161.227 122.187L161.104 122.288C161.066 122.319 160.964 122.394 161.064 122.322C160.728 122.577 160.374 122.808 160.006 123.013C159.824 123.114 159.638 123.206 159.446 123.293L159.32 123.35C159.307 123.35 159.236 123.388 159.306 123.357C159.376 123.326 159.289 123.357 159.269 123.371C159.169 123.412 159.068 123.451 158.966 123.489C158.567 123.633 158.158 123.747 157.743 123.83C157.641 123.851 157.54 123.869 157.438 123.886L157.298 123.907C157.268 123.907 157.18 123.92 157.314 123.907L157.219 123.918C157.001 123.944 156.783 123.96 156.564 123.967C156.125 123.984 155.684 123.967 155.247 123.916L155.176 123.907H155.217L155.05 123.882C154.941 123.864 154.83 123.844 154.721 123.822C154.513 123.78 154.301 123.729 154.101 123.672C153.901 123.615 153.697 123.549 153.5 123.476C153.404 123.441 153.311 123.405 153.22 123.367L153.155 123.34C153.174 123.34 153.271 123.391 153.171 123.34C153.122 123.318 153.071 123.297 153.022 123.273C152.645 123.099 152.281 122.898 151.934 122.67C151.761 122.557 151.594 122.436 151.428 122.312C151.522 122.383 151.428 122.312 151.388 122.278C151.347 122.245 151.316 122.221 151.281 122.191C151.199 122.123 151.118 122.051 151.039 121.981C150.732 121.707 150.445 121.41 150.182 121.093L150.081 120.968C150.047 120.926 150 120.862 150.061 120.946C149.997 120.859 149.932 120.774 149.871 120.687C149.751 120.517 149.639 120.344 149.532 120.166C149.424 119.989 149.325 119.807 149.231 119.622C149.185 119.532 149.142 119.443 149.1 119.351C149.077 119.302 149.055 119.253 149.034 119.211C149.034 119.198 148.996 119.127 149.034 119.197C149.072 119.267 149.026 119.174 149.02 119.16C148.858 118.762 148.726 118.352 148.625 117.934C148.576 117.726 148.534 117.514 148.501 117.305L148.48 117.165C148.469 117.095 148.48 117.2 148.48 117.205C148.48 117.173 148.471 117.141 148.469 117.11C148.455 116.997 148.445 116.885 148.436 116.771C148.402 116.332 148.402 115.891 148.436 115.452C148.445 115.347 148.456 115.242 148.469 115.138L148.477 115.067C148.477 115.067 148.46 115.177 148.477 115.107C148.494 115.037 148.495 114.98 148.506 114.917C148.54 114.706 148.583 114.497 148.634 114.289C148.735 113.879 148.866 113.477 149.026 113.087C149.069 112.977 148.989 113.165 149.038 113.059C149.059 113.01 149.082 112.959 149.104 112.91C149.149 112.812 149.196 112.716 149.244 112.619C149.337 112.433 149.438 112.251 149.546 112.075C149.654 111.899 149.767 111.725 149.888 111.557C149.945 111.476 150.004 111.396 150.064 111.316C150.002 111.399 150.05 111.336 150.084 111.294L150.2 111.154C150.464 110.838 150.751 110.541 151.059 110.267C151.133 110.201 151.207 110.137 151.284 110.072L151.409 109.971C151.426 109.957 151.445 109.943 151.462 109.928C151.528 109.874 151.381 109.988 151.449 109.938C151.617 109.816 151.782 109.694 151.956 109.581C152.304 109.355 152.669 109.154 153.046 108.981C153.095 108.958 153.146 108.939 153.195 108.915C153.244 108.891 153.162 108.927 153.158 108.93L153.223 108.904C153.323 108.863 153.425 108.823 153.528 108.786C153.725 108.713 153.926 108.646 154.129 108.592C154.332 108.537 154.549 108.485 154.751 108.443C154.851 108.424 154.954 108.405 155.056 108.389C155.11 108.379 155.166 108.372 155.222 108.364C155.278 108.355 155.186 108.364 155.182 108.364L155.277 108.352C155.714 108.302 156.155 108.285 156.595 108.303C156.813 108.312 157.032 108.329 157.249 108.355H157.288C157.21 108.345 157.288 108.355 157.303 108.355L157.443 108.378C157.552 108.394 157.662 108.415 157.771 108.436C158.194 108.522 158.61 108.641 159.015 108.79C159.11 108.825 159.204 108.863 159.295 108.901C159.386 108.939 159.216 108.865 159.323 108.913L159.491 108.989C159.68 109.077 159.866 109.171 160.05 109.269C160.235 109.367 160.407 109.477 160.581 109.591C160.663 109.645 160.746 109.703 160.827 109.76L160.939 109.84L160.994 109.882L161.043 109.918L161.108 109.97L161.232 110.072C161.314 110.141 161.395 110.212 161.474 110.282C161.628 110.422 161.775 110.562 161.917 110.713C162.06 110.864 162.197 111.015 162.329 111.174L162.415 111.281L162.471 111.353C162.471 111.353 162.408 111.267 162.448 111.322C162.511 111.409 162.576 111.494 162.638 111.581C162.876 111.92 163.089 112.277 163.275 112.647C163.321 112.737 163.364 112.828 163.405 112.919C163.424 112.961 163.443 113.004 163.462 113.046C163.507 113.147 163.462 113.046 163.462 113.031C163.473 113.06 163.486 113.088 163.497 113.117C163.577 113.312 163.648 113.509 163.713 113.709C163.842 114.116 163.94 114.531 164.007 114.952C164.016 115.007 164.023 115.063 164.032 115.119C164.016 115.009 164.032 115.093 164.032 115.149C164.044 115.254 164.054 115.358 164.063 115.463C164.079 115.683 164.086 115.902 164.088 116.123C164.084 116.205 164.096 116.286 164.125 116.362C164.153 116.438 164.197 116.508 164.253 116.567C164.309 116.625 164.376 116.672 164.451 116.704C164.526 116.736 164.606 116.753 164.687 116.753C164.769 116.753 164.849 116.736 164.924 116.704C164.999 116.672 165.066 116.625 165.122 116.567C165.178 116.508 165.222 116.438 165.25 116.362C165.278 116.286 165.291 116.205 165.287 116.123C165.287 114.26 164.711 112.442 163.637 110.919C162.56 109.416 161.054 108.272 159.317 107.637C157.124 106.844 154.708 106.929 152.576 107.875C150.444 108.822 148.761 110.556 147.878 112.715C146.996 114.875 146.982 117.292 147.841 119.46C148.7 121.629 150.364 123.382 152.485 124.352C154.242 125.147 156.204 125.369 158.094 124.986C159.885 124.612 161.521 123.703 162.785 122.38C164.048 121.056 164.881 119.38 165.171 117.573C165.246 117.096 165.285 116.614 165.288 116.13C165.292 116.049 165.28 115.968 165.251 115.892C165.223 115.816 165.18 115.746 165.123 115.687C165.067 115.628 165 115.582 164.925 115.55C164.851 115.518 164.77 115.501 164.689 115.501C164.608 115.501 164.527 115.518 164.452 115.55C164.378 115.582 164.31 115.628 164.254 115.687C164.198 115.746 164.155 115.816 164.126 115.892C164.098 115.968 164.085 116.049 164.089 116.13V116.136Z" fill="#231F20"/>
<path d="M144.311 117.699C144.369 117.66 144.429 117.624 144.491 117.592C144.502 117.592 144.568 117.543 144.581 117.55L144.53 117.571L144.588 117.549C144.737 117.494 144.89 117.45 145.045 117.417C145.12 117.402 145.194 117.389 145.268 117.377C145.422 117.35 145.128 117.389 145.29 117.377L145.406 117.365C145.576 117.349 145.747 117.342 145.917 117.342C146.088 117.342 146.235 117.342 146.393 117.361L146.525 117.374C146.546 117.374 146.665 117.4 146.571 117.374C146.477 117.347 146.593 117.374 146.614 117.382C146.635 117.391 146.694 117.396 146.733 117.403C146.864 117.429 146.994 117.463 147.121 117.505L147.198 117.533C147.266 117.553 147.068 117.466 147.152 117.514C147.199 117.54 147.247 117.563 147.291 117.592C147.429 117.671 147.593 117.693 147.746 117.653C147.9 117.613 148.032 117.513 148.113 117.377C148.189 117.238 148.209 117.076 148.169 116.923C148.129 116.771 148.032 116.639 147.897 116.557C147.338 116.197 146.561 116.137 145.916 116.137C145.173 116.137 144.34 116.247 143.703 116.662C143.566 116.742 143.466 116.874 143.425 117.028C143.385 117.182 143.407 117.345 143.488 117.483C143.568 117.62 143.7 117.72 143.854 117.761C144.008 117.801 144.172 117.779 144.309 117.699H144.311Z" fill="#231F20"/>
<path d="M162.992 113.685C162.616 112.54 161.885 111.545 160.904 110.845C160.649 110.66 160.225 110.793 160.084 111.061C160.008 111.199 159.987 111.361 160.027 111.514C160.068 111.667 160.165 111.799 160.3 111.882L160.375 111.937C160.418 111.972 160.462 112.007 160.504 112.043C160.599 112.126 160.691 112.209 160.784 112.299C160.876 112.389 160.957 112.478 161.038 112.579C161.078 112.624 161.115 112.67 161.152 112.719L161.202 112.786C161.345 112.984 161.473 113.192 161.586 113.409C161.616 113.466 161.646 113.526 161.674 113.585C161.688 113.616 161.7 113.645 161.714 113.675C161.751 113.754 161.714 113.655 161.7 113.641C161.734 113.668 161.758 113.781 161.773 113.824C161.796 113.887 161.817 113.949 161.838 114.012C161.882 114.163 161.984 114.29 162.122 114.367C162.259 114.443 162.421 114.462 162.573 114.421C162.724 114.379 162.854 114.279 162.933 114.143C163.011 114.007 163.034 113.845 162.995 113.693L162.992 113.685Z" fill="white"/>
<path d="M162.807 114.921C162.034 114.921 162.033 116.121 162.807 116.121C163.581 116.121 163.581 114.921 162.807 114.921Z" fill="white"/>
<path d="M130.524 112.17C130.385 112.094 130.223 112.073 130.07 112.113C129.917 112.154 129.785 112.251 129.702 112.386C129.217 113.181 128.914 114.074 128.813 115C128.814 115.158 128.877 115.309 128.988 115.42C129.044 115.476 129.11 115.52 129.183 115.55C129.256 115.58 129.334 115.596 129.413 115.596C129.492 115.596 129.57 115.58 129.643 115.55C129.716 115.52 129.782 115.476 129.838 115.42C129.941 115.303 130.003 115.156 130.013 115V114.971V114.96C130.021 114.906 130.03 114.853 130.039 114.8C130.056 114.706 130.076 114.614 130.097 114.52C130.142 114.331 130.197 114.144 130.262 113.96C130.284 113.862 130.32 113.768 130.37 113.68C130.337 113.754 130.33 113.771 130.349 113.731C130.349 113.711 130.364 113.693 130.372 113.675C130.395 113.626 130.417 113.577 130.441 113.528C130.529 113.345 130.626 113.168 130.734 112.996C130.814 112.858 130.837 112.695 130.798 112.54C130.758 112.386 130.66 112.253 130.524 112.17Z" fill="white"/>
<path d="M130.826 157.99C130.393 159.755 130.509 161.61 131.157 163.308C132.707 167.299 134.733 169.506 134.904 170.445C135.805 175.401 135.282 174.249 131.125 181.55C122.275 197.124 126.62 214.017 127.655 223.453L163.373 223.324C164.617 220.422 169.543 196.657 159.964 181.211C158.666 179.12 156.861 176.883 156.557 174.362C156.077 170.399 159.575 166.98 160.556 163.216C161.051 161.311 161.524 159.308 161.078 157.345C160.851 156.346 159.579 153.566 159.65 153.482C159.877 153.203 161.909 149.931 164.019 147.619C162.141 146.079 159.726 145.706 159.152 145.57C155.109 144.61 151.896 143.776 149.42 142.491L140.432 142.8C137.469 144.028 134.341 144.429 130.384 146.078C129.804 146.319 128.34 146.607 127.823 146.932L131.656 154.51L130.826 157.99Z" fill="white"/>
<path d="M156.566 174.364C156.491 173.718 156.512 173.065 156.629 172.425L156.056 172.505C153.029 172.928 149.981 173.192 146.926 173.295C143.914 173.395 140.898 173.248 137.91 172.855C137.007 172.73 136.11 172.578 135.217 172.397C135.55 175.25 134.627 175.406 131.134 181.551C122.283 197.126 126.629 214.018 127.663 223.455L163.381 223.326C164.625 220.424 169.551 196.658 159.972 181.213C158.673 179.122 156.868 176.884 156.566 174.364Z" fill="#231F20"/>
<path d="M150.11 143.009C146.726 143.878 143.281 143.908 139.781 143.179L139.866 140.101C143.132 140.812 146.516 140.783 149.769 140.015L150.11 143.009Z" fill="white"/>
<g style="mix-blend-mode:multiply" opacity="0.37">
<path d="M130.826 157.99C130.393 159.755 130.509 161.61 131.157 163.308C132.707 167.299 134.733 169.506 134.904 170.445C135.805 175.401 135.282 174.249 131.134 181.55C128.273 186.588 126.795 191.753 126.135 196.766C128.234 195.673 161.644 195.068 165.231 197.046C164.503 191.546 162.93 185.979 159.97 181.207C158.673 179.116 156.868 176.878 156.564 174.358C156.084 170.395 159.581 166.976 160.562 163.211C161.058 161.307 161.531 159.304 161.084 157.341C160.858 156.34 159.586 153.562 159.657 153.478C159.884 153.198 161.916 149.926 164.026 147.615C162.148 146.075 159.733 145.702 159.159 145.566C155.621 144.726 152.721 143.983 150.391 142.952C150.361 143.169 146.779 168.645 144.883 172.931C144.389 174.05 138.726 143.647 139.742 143.184C136.779 144.411 134.348 144.429 130.39 146.078C129.811 146.319 128.347 146.607 127.829 146.932L131.656 154.51L130.826 157.99Z" fill="#D1D3D4"/>
</g>
<g style="mix-blend-mode:multiply" opacity="0.78">
<path d="M156.61 174.681C155.606 174.688 154.6 174.692 153.593 174.691C151.067 174.691 148.541 174.674 146.017 174.639C143.598 174.61 141.173 174.519 138.761 174.335C137.585 174.246 136.409 174.131 135.24 173.979C135.018 175.606 133.858 176.755 131.134 181.551C128.273 186.589 126.795 191.754 126.135 196.767C128.234 195.674 161.644 195.07 165.231 197.047C164.503 191.547 162.93 185.98 159.97 181.208C158.728 179.21 157.02 177.073 156.61 174.681Z" fill="#3F3B3C"/>
</g>
<path d="M165.539 194.468L147.276 194.223L145.185 176.856L144.656 194.223L125.33 194.878C126.729 187.578 130.031 179.624 134.278 174.691L130.876 167.264L127.394 181.8L125.474 200.39L125.565 201.584L125.106 202.961C122.384 202.071 120.726 201.756 117.945 202.502L117.394 200.757L118.128 199.931L118.383 180.862L124.209 152.917L125.691 148.474L128.856 146.104L139.162 143.392C139.162 154.183 141.903 165.627 144.772 174.373C145.052 175.202 144.565 175.733 145.013 174.566C148.617 165.19 153.653 145.458 150.331 142.488L159.862 145.315L164.629 147.572L166.728 151.911L173.131 178.525L173.175 199.797L173.839 200.387L173.396 202.085C171.104 201.58 168.638 201.605 166.016 202.085L165.631 200.393L166.237 199.649L164.138 178.418L161.358 166.818L157.816 175.477C161.01 179.974 165.686 187.126 165.539 194.468Z" fill="#231F20"/>
<g style="mix-blend-mode:multiply" opacity="0.78">
<path d="M145.262 175.869C139.764 166.57 138.038 160.943 136.037 152.142L137.513 150.149L134.854 149.337L137.068 143.839L139.793 141.768L139.475 142.933L138.861 143.535C138.382 152.392 143.411 167.279 145.262 175.869Z" fill="#231F20"/>
</g>
<path d="M145.449 176.238C140.338 166.758 138.265 161.044 136.264 152.243L137.82 150.021L135.08 149.2L137.006 143.794L139.821 141.684L139.788 143.056L139.263 143.529C138.783 152.391 143.597 167.648 145.449 176.238Z" fill="#231F20"/>
<g style="mix-blend-mode:multiply" opacity="0.78">
<path d="M139.261 143.554C139.261 143.547 139.261 143.541 139.261 143.534L139.786 143.061L139.82 141.69L139 142.317C139.072 142.644 139.263 143.463 139.261 143.554Z" fill="#231F20"/>
</g>
<g style="mix-blend-mode:multiply" opacity="0.78">
<path d="M144.607 175.634C150.105 166.335 151.832 160.706 153.832 151.905L152.357 149.912L155.016 149.101L152.799 143.604L150.028 141.549L150.392 142.698L151.007 143.301C151.488 152.156 146.458 167.043 144.607 175.634Z" fill="#231F20"/>
</g>
<path d="M144.422 176.003C149.532 166.523 151.606 160.808 153.606 152.007L152.051 149.786L154.791 148.97L152.865 143.564L149.926 141.455L150.076 142.825L150.602 143.3C151.088 152.155 146.274 167.412 144.422 176.003Z" fill="#231F20"/>
<g style="mix-blend-mode:multiply" opacity="0.78">
<path d="M150.285 143.021L150.082 142.825L149.935 141.456L150.656 141.971C150.556 142.283 150.285 143.028 150.285 143.021Z" fill="#231F20"/>
</g>
<g style="mix-blend-mode:multiply" opacity="0.78">
<path d="M147.398 175.401L147.751 175.101C147.968 174.9 148.267 174.603 148.624 174.23C149.339 173.477 150.284 172.41 151.412 171.308C152.54 170.205 153.639 169.278 154.457 168.615C155.274 167.952 155.804 167.546 155.804 167.546C155.569 168.076 155.293 168.587 154.977 169.074C154.24 170.246 153.369 171.329 152.383 172.301C151.39 173.281 150.265 174.117 149.041 174.785C148.661 174.986 148.265 175.155 147.857 175.29C147.557 175.37 147.398 175.401 147.398 175.401Z" fill="#3F3B3C"/>
</g>
<g style="mix-blend-mode:multiply" opacity="0.78">
<path d="M154.273 175.33C154.043 175.497 153.802 175.647 153.551 175.779C152.348 176.438 150.984 176.744 149.615 176.664C149.333 176.65 149.052 176.617 148.775 176.564C148.775 176.564 149.087 176.464 149.582 176.325C150.078 176.187 150.754 176.002 151.501 175.835C152.248 175.669 152.938 175.546 153.446 175.459C153.954 175.372 154.273 175.33 154.273 175.33Z" fill="#3F3B3C"/>
</g>
<g style="mix-blend-mode:multiply" opacity="0.78">
<path d="M144.636 176.976C144.477 176.959 144.319 176.931 144.163 176.894C143.742 176.788 143.328 176.656 142.923 176.498C141.609 175.989 140.356 175.331 139.191 174.538C138.025 173.743 136.954 172.815 136.002 171.773C135.711 171.45 135.44 171.11 135.189 170.756C135.021 170.491 134.939 170.346 134.939 170.346L135.341 170.595L136.445 171.222C137.379 171.741 138.658 172.459 139.989 173.368C141.32 174.278 142.457 175.207 143.279 175.887L144.258 176.696C144.493 176.877 144.636 176.976 144.636 176.976Z" fill="#3F3B3C"/>
</g>
<g style="mix-blend-mode:multiply" opacity="0.78">
<path d="M140.233 175.851C140.082 175.864 139.931 175.864 139.781 175.851C139.422 175.827 139.067 175.763 138.721 175.662C138.375 175.56 138.042 175.415 137.732 175.23C137.601 175.153 137.479 175.063 137.367 174.961L137.801 175.062C138.066 175.12 138.43 175.202 138.825 175.315C139.163 175.418 139.497 175.538 139.823 175.675L140.233 175.851Z" fill="#3F3B3C"/>
</g>
<g style="mix-blend-mode:multiply" opacity="0.78">
<path d="M146.442 175.651C146.442 175.823 146.391 175.991 146.295 176.134C146.2 176.277 146.064 176.389 145.905 176.455C145.746 176.521 145.571 176.538 145.402 176.504C145.233 176.471 145.078 176.388 144.956 176.266C144.834 176.144 144.751 175.989 144.718 175.821C144.684 175.652 144.702 175.477 144.767 175.318C144.833 175.159 144.945 175.023 145.088 174.927C145.231 174.831 145.399 174.78 145.572 174.78C145.802 174.78 146.024 174.872 146.187 175.035C146.35 175.198 146.442 175.42 146.442 175.651Z" fill="#231F20"/>
</g>
<path d="M146.333 175.65C146.333 175.801 146.289 175.949 146.205 176.075C146.121 176.2 146.002 176.298 145.863 176.356C145.723 176.414 145.57 176.429 145.422 176.4C145.274 176.371 145.138 176.298 145.031 176.191C144.924 176.084 144.852 175.948 144.822 175.8C144.793 175.652 144.808 175.499 144.866 175.359C144.924 175.22 145.022 175.101 145.147 175.017C145.273 174.933 145.421 174.889 145.572 174.889C145.774 174.889 145.967 174.969 146.11 175.112C146.253 175.255 146.333 175.449 146.333 175.65Z" fill="#58595B"/>
<path d="M146.333 175.676C146.333 175.827 146.288 175.975 146.204 176.1C146.121 176.226 146.001 176.323 145.862 176.381C145.722 176.439 145.569 176.454 145.421 176.424C145.273 176.395 145.137 176.322 145.031 176.215C144.924 176.108 144.851 175.972 144.822 175.824C144.793 175.676 144.808 175.523 144.866 175.383C144.924 175.244 145.022 175.125 145.148 175.041C145.273 174.958 145.421 174.913 145.572 174.914C145.672 174.914 145.771 174.933 145.863 174.972C145.956 175.01 146.04 175.066 146.111 175.137C146.181 175.208 146.237 175.292 146.275 175.385C146.314 175.477 146.333 175.576 146.333 175.676Z" fill="#231F20"/>
<g style="mix-blend-mode:multiply" opacity="0.78">
<path d="M145.585 175.572C145.651 175.572 145.704 175.518 145.704 175.452C145.704 175.386 145.651 175.333 145.585 175.333C145.519 175.333 145.465 175.386 145.465 175.452C145.465 175.518 145.519 175.572 145.585 175.572Z" fill="#231F20"/>
</g>
<g style="mix-blend-mode:multiply" opacity="0.78">
<path d="M145.585 175.99C145.561 175.99 145.537 175.983 145.517 175.97C145.497 175.957 145.481 175.938 145.472 175.916C145.463 175.894 145.46 175.87 145.465 175.846C145.469 175.823 145.481 175.801 145.498 175.784C145.515 175.767 145.536 175.755 145.56 175.751C145.584 175.746 145.608 175.749 145.63 175.758C145.652 175.767 145.671 175.783 145.684 175.803C145.697 175.823 145.704 175.847 145.704 175.871C145.704 175.902 145.691 175.933 145.669 175.955C145.647 175.977 145.616 175.99 145.585 175.99Z" fill="#231F20"/>
</g>
<g style="mix-blend-mode:multiply" opacity="0.78">
<path d="M132.682 170.813L132.376 170.363C132.1 169.951 131.846 169.524 131.614 169.086C130.838 167.632 130.281 166.071 129.96 164.455C129.792 163.562 129.699 162.657 129.68 161.748C129.669 161.008 129.716 160.267 129.82 159.533C129.857 159.221 129.918 158.941 129.969 158.694C130.019 158.446 130.068 158.24 130.117 158.071L130.267 157.547C130.267 157.547 130.258 157.746 130.244 158.09C130.233 158.264 130.226 158.477 130.227 158.723C130.229 158.969 130.216 159.248 130.227 159.563C130.227 160.178 130.289 160.907 130.367 161.711C130.446 162.514 130.588 163.39 130.762 164.302C131.069 165.867 131.478 167.41 131.987 168.921C132.184 169.506 132.355 169.98 132.483 170.303L132.682 170.813Z" fill="#3F3B3C"/>
</g>
<g style="mix-blend-mode:multiply" opacity="0.78">
<path d="M158.144 174.419C158.144 174.419 158.449 173.091 158.844 171.546C159.369 169.989 159.889 167.863 160.573 165.529C161.126 163.518 161.364 161.434 161.282 159.35C161.256 158.707 161.196 158.066 161.102 157.429L160.991 156.721C160.991 156.721 161.101 156.952 161.27 157.385C161.507 158.002 161.695 158.636 161.83 159.282C162.28 161.447 162.212 163.688 161.631 165.823C161.291 166.975 160.859 168.098 160.34 169.181C159.874 170.172 159.625 171.232 159.229 171.955C158.572 173.536 158.144 174.419 158.144 174.419Z" fill="#3F3B3C"/>
</g>
<g style="mix-blend-mode:multiply" opacity="0.78">
<path d="M129.919 157.252C129.919 157.252 129.219 155.927 128.495 154.239C127.772 152.552 127.321 151.119 127.321 151.119C128.506 153.013 129.383 155.083 129.919 157.252Z" fill="#3F3B3C"/>
</g>
<g style="mix-blend-mode:multiply" opacity="0.78">
<path d="M162.023 156.898C162.023 156.898 162.124 156.489 162.326 155.843C162.527 155.196 162.825 154.312 163.195 153.354C163.942 151.448 164.594 149.906 164.594 149.906C164.594 149.906 164.537 150.326 164.386 150.985C164.185 151.846 163.925 152.691 163.608 153.515C163.235 154.48 162.831 155.322 162.527 155.927C162.224 156.531 162.023 156.898 162.023 156.898Z" fill="#3F3B3C"/>
</g>
<path d="M104.859 206.4C104.578 206.724 104.261 207.014 103.914 207.265C102.566 208.231 98.9419 207.048 100.486 205.736C100.715 205.54 100.674 203.916 100.625 203.098C100.595 202.629 100.305 202.938 100.305 202.938C98.3122 207.402 98.3682 202.56 98.3458 201.557L98.6676 200.111L97.9917 195.825L106.458 195.914L105.928 201.332C106.006 203.173 106.152 204.927 104.859 206.4Z" fill="#FFCEAB"/>
<path d="M98.469 200.968H105.955L106.45 195.914L97.9834 195.825L98.6593 200.111L98.469 200.968Z" fill="#F1836D"/>
<path d="M73.1941 105.414H62.4688V119.249H73.1941V105.414Z" fill="#FFCEAB"/>
<path d="M73.1941 105.414V114.064C69.6806 115.008 65.9793 115.002 62.4688 114.047V105.414H73.1941Z" fill="#F1836D"/>
<path d="M50.7885 93.1047C50.7885 97.3199 48.8292 101.501 44.9626 101.501C41.0959 101.501 36.7954 97.3213 36.7954 93.1047C36.7954 88.8882 39.9274 85.4722 43.7926 85.4722C47.6579 85.4722 50.7885 88.8854 50.7885 93.1047Z" fill="#FFCEAB"/>
<path d="M45.0831 98.737C43.4318 98.737 40.353 95.2846 40.353 93.2792C40.353 91.2738 41.6965 89.6406 43.3492 89.6406C45.002 89.6406 46.3454 91.2696 46.3454 93.2792C46.3454 95.2888 46.7359 98.737 45.0831 98.737Z" fill="#F1836D"/>
<path d="M84.8721 92.8034C84.8721 97.0185 86.8313 101.2 90.698 101.2C94.5646 101.2 98.8651 97.0199 98.8651 92.8034C98.8651 88.5869 95.7331 85.1694 91.8679 85.1694C88.0026 85.1694 84.8721 88.5869 84.8721 92.8034Z" fill="#FFCEAB"/>
<path d="M90.5779 98.4362C92.2306 98.4362 95.3094 94.9838 95.3094 92.9784C95.3094 90.973 93.9645 89.3398 92.3132 89.3398C90.6619 89.3398 89.3156 90.9702 89.3156 92.9784C89.3156 94.9866 88.9251 98.4362 90.5779 98.4362Z" fill="#F1836D"/>
<path d="M92.2806 85.1376C92.2806 102.516 83.4375 113.535 67.8617 113.297C52.2117 113.058 43.6191 102.012 43.6191 84.6338C43.6191 83.7186 43.6471 82.8122 43.7031 81.9147C44.7135 65.8043 54.6412 53.1113 67.8617 53.1113C81.3104 53.1113 91.5123 66.7125 92.24 83.2497C92.2671 83.8748 92.2806 84.5041 92.2806 85.1376Z" fill="#FFCEAB"/>
<path d="M53.2428 63.5846C53.9999 63.5398 58.4977 65.3815 61.0629 65.7061C66.6523 66.417 71.959 66.4982 77.5889 66.2575C79.7049 66.1679 82.3093 65.4458 84.3371 66.2575C86.085 66.9572 87.0534 69.6064 88.3017 70.9792C89.2436 72.0321 90.1044 73.1549 90.8767 74.3379C87.5796 62.0928 78.7925 53.1069 67.8614 53.1069C55.7968 53.1069 47.4995 65.3185 45.1904 79.4165C46.2582 75.6912 52.1121 63.6517 53.2428 63.5846Z" fill="#F1836D"/>
<path d="M61.9199 94.936H74.9879V95.3447C74.9879 97.0776 74.2995 98.7395 73.0742 99.9649C71.8488 101.19 70.1868 101.879 68.4539 101.879C66.721 101.879 65.059 101.19 63.8337 99.9649C62.6083 98.7395 61.9199 97.0776 61.9199 95.3447V94.936Z" fill="white"/>
<path d="M58.2604 87.8492C58.9398 87.8492 59.4905 87.2089 59.4905 86.419C59.4905 85.6291 58.9398 84.9888 58.2604 84.9888C57.581 84.9888 57.0303 85.6291 57.0303 86.419C57.0303 87.2089 57.581 87.8492 58.2604 87.8492Z" fill="white"/>
<path d="M80.8318 80.4534C80.6023 81.293 79.2099 80.0699 76.6153 80.0699C74.0207 80.0699 72.8046 82.449 72.4757 80.3764C72.3358 79.5115 74.1747 77.8462 76.7692 77.8462C79.3638 77.8462 81.0627 79.6095 80.8318 80.4534Z" fill="#563231"/>
<path d="M55.5681 80.8703C55.799 81.71 57.1914 80.4869 59.7846 80.4869C62.3778 80.4869 63.5967 82.866 63.9255 80.7934C64.0655 79.9285 62.2252 78.2632 59.632 78.2632C57.0389 78.2632 55.3385 80.0265 55.5681 80.8703Z" fill="#563231"/>
<path d="M77.2741 87.8092C77.9534 87.8092 78.5042 87.1689 78.5042 86.379C78.5042 85.5891 77.9534 84.9487 77.2741 84.9487C76.5947 84.9487 76.0439 85.5891 76.0439 86.379C76.0439 87.1689 76.5947 87.8092 77.2741 87.8092Z" fill="white"/>
<path d="M78.1614 86.4355C77.4337 86.4355 77.3917 85.3733 78.0326 85.2474C77.5624 84.4441 76.8837 83.9375 76.1252 83.9375C74.7075 83.9375 73.5586 85.705 73.5586 87.8867C73.5586 90.0685 74.7075 91.836 76.1252 91.836C77.5428 91.836 78.6932 90.0685 78.6932 87.8867C78.6948 87.364 78.626 86.8434 78.4888 86.3389C78.3919 86.4035 78.2778 86.4371 78.1614 86.4355Z" fill="#563231"/>
<path d="M59.4723 83.7827C58.6326 83.7827 57.8825 84.4111 57.4151 85.3767C58.1064 85.4578 58.0798 86.569 57.3353 86.569C57.2303 86.5702 57.1268 86.5431 57.0358 86.4906C56.9483 86.8986 56.9042 87.3147 56.9043 87.7319C56.9043 89.9137 58.0546 91.6826 59.4723 91.6826C60.8899 91.6826 62.0403 89.9137 62.0403 87.7319C62.0403 85.5502 60.8899 83.7827 59.4723 83.7827Z" fill="#563231"/>
<path d="M99.5059 64.2044C99.5059 64.1638 99.4961 64.1218 99.4906 64.0812C99.2643 62.4571 98.8043 60.8742 98.1247 59.3819C96.9282 56.7789 94.8052 54.4363 91.9322 53.7477C90.3648 53.3727 88.7134 53.4986 87.2664 54.2361C87.2558 54.2429 87.2459 54.2509 87.237 54.2599C87.195 54.1102 87.1531 53.959 87.1069 53.8121C87.0789 51.6877 86.6185 49.5004 85.2064 47.8603C83.4417 45.8115 80.5575 45.2377 77.9727 45.3525C76.3885 45.4224 74.8254 45.7177 73.265 45.985C72.778 46.0676 72.2854 46.1431 71.7998 46.2187C62.0974 46.9506 53.0612 46.1376 45.027 43L44.449 49.2359C44.449 51.636 44.9011 53.7519 45.7197 55.5838C45.3455 55.7693 44.9816 55.9748 44.6296 56.1996C42.2631 57.2491 40.2087 58.9984 38.5126 60.9283C36.6513 63.0414 35.0924 65.6864 35.3527 68.5972C35.3537 68.6109 35.3589 68.6239 35.3677 68.6345C35.3765 68.645 35.3884 68.6525 35.4016 68.656C34.3213 71.2534 35.7921 75.1536 35.9236 76.9127L38.2397 78.6116C38.7995 82.5441 40.2101 84.306 40.7111 86.0287L42.8649 85.5291L45.3307 89.0613C45.2817 88.0341 41.7285 75.5511 52.4762 62.3123C56.2338 64.1022 60.3719 64.7809 64.4905 65.093C68.533 65.3913 72.5895 65.4511 76.639 65.2721C79.5233 65.149 82.7126 65.1322 85.4975 64.2701C94.3406 76.5489 90.9176 88.7002 90.73 89.5791L93.6073 85.5291C94.7338 85.8524 94.9675 85.5963 95.8338 86.4919C96.9156 84.9525 97.6909 83.3082 98.2576 79.3771L100.777 75.8379C100.971 73.2112 101.461 68.2837 99.5059 64.2044ZM35.5024 68.4223C35.6661 65.6346 37.0488 63.1352 38.889 61.0878C39.9814 59.8545 41.2116 58.7506 42.5556 57.7977L42.4366 57.9041C40.1318 59.8115 37.2867 64.2212 35.5024 68.4223ZM77.7418 45.8535C79.7822 45.7471 81.838 45.9934 83.5887 47.1256C85.4415 48.3319 86.2938 50.2995 86.5961 52.3805C85.1127 48.7517 82.4397 46.1795 77.7418 45.8535ZM94.5211 56.8601C92.5927 55.2675 90.3088 53.8821 87.6639 54.4349C90.215 53.3629 93.2014 54.2557 95.1663 56.1016C96.9967 57.8201 98.1303 60.195 98.7083 62.63C97.3774 60.1334 95.8884 57.988 94.5211 56.8601Z" fill="#563231"/>
<path d="M104.186 285.214C93.41 286.893 91.5235 286.149 84.1289 284.85L80.5463 242.896L70.4437 199.301L68.9421 199.087L62.9819 288.153L45.598 288.585L45.02 182.367L47.2157 170.369L89.9268 171.595L101.593 244.588L104.186 285.214Z" fill="#231F20"/>
<path d="M56.4659 190.262C61.0995 191.009 65.4224 191.814 70.1231 191.801C75.0067 191.791 79.8825 191.413 84.7095 190.672C87.2803 190.276 89.8623 189.785 92.4232 189.179L89.9266 171.592L47.0715 170.51L44.9961 184.586C47.4787 187.546 52.7994 189.671 56.4659 190.262Z" fill="#110F10"/>
<path d="M57.6502 157.177C61.4945 157.358 65.3471 157.523 69.1886 157.492C73.0716 157.448 76.9492 157.19 80.804 156.721C82.738 156.493 84.6665 156.223 86.5907 155.928L84.0997 125.036L73.9775 116.998H59.2512L49.3683 127.575L48.1592 157.253C51.3023 156.898 54.4693 157.028 57.6502 157.177Z" fill="#FFCEAB"/>
<path d="M93.4634 184.93C85.6349 186.535 78.7861 187.178 71.6573 187.132C70.9282 187.132 69.7513 179.706 69.0152 179.686C68.2175 179.667 67.8592 187.048 67.0559 187.011C60.424 186.714 55.0529 183.878 47.4847 180.803C49.4957 175.485 49.6469 169.626 48.0893 161.837C47.7996 160.391 41.4069 135.597 41.1075 131.315C40.8038 126.992 42.6328 124.34 47.0859 121.576C49.0969 120.328 62.0459 116.569 62.2167 116.997L65.3962 125.019L68.6387 125.886L71.2095 124.939L73.5088 116.997C73.8978 116.055 85.9484 119.131 87.1631 119.608C96.3309 123.204 100.212 132.545 102.224 141.514C103.254 146.108 103.829 150.778 104.613 155.417C106.182 164.617 107.078 173.919 107.296 183.249C107.416 188.79 107.537 194.332 107.658 199.873L96.8823 199.939L94.3521 168.478L88.4828 138.602L93.4634 184.93Z" fill="#F2F5FD"/>
<path opacity="0.35" d="M107.29 183.249C107.073 173.919 106.176 164.617 104.607 155.417C103.823 150.778 103.248 146.108 102.218 141.514C100.206 132.547 96.3252 123.203 87.1532 119.608C86.1288 119.207 77.3977 116.949 74.4547 116.825C74.7136 118.02 74.9375 119.222 75.0956 120.438C75.5322 123.774 75.6666 127.204 75.633 130.566C75.6204 133.885 75.2525 137.194 74.5358 140.435C73.784 143.776 72.7359 147.044 71.4039 150.2C70.9239 151.328 70.525 152.488 70.0324 153.61C69.558 154.692 69.0094 155.817 68.1432 156.644C68.0775 156.708 67.9983 156.756 67.9116 156.785C67.8249 156.813 67.7329 156.822 67.6423 156.81C67.5517 156.799 67.4649 156.767 67.3883 156.717C67.3118 156.667 67.2474 156.601 67.1999 156.523C65.6536 153.794 64.5802 150.809 63.574 147.846C61.7911 142.584 60.901 136.968 60.7037 131.428C60.5372 126.81 61.7547 122.346 62.5412 117.83L62.2137 117.002C62.043 116.574 49.0939 120.333 47.0829 121.581C42.6299 124.345 40.8008 126.997 41.1045 131.32C41.404 135.602 47.7967 160.396 48.0863 161.842C49.6439 169.631 49.4858 175.488 47.4818 180.809C55.05 183.887 60.421 186.72 67.053 187.017C67.8619 187.053 68.2201 179.672 69.0122 179.692C69.7483 179.712 70.9253 187.133 71.6544 187.137C78.7831 187.183 85.632 186.541 93.4605 184.936L88.4771 138.614L94.3464 168.491L96.8765 199.952L107.652 199.886C107.532 194.336 107.411 188.79 107.29 183.249Z" fill="#C2CADD"/>
<path d="M70.7756 130.645L65.4507 130.586L64.1982 125.368L72.0771 125.239L70.7756 130.645Z" fill="#F6931E"/>
<path d="M68.1383 125.254L63.1115 129.417L57.4731 117.793L62.4566 115.623C62.5321 118.927 65.2037 122.148 68.1383 125.254Z" fill="white"/>
<path d="M68.1387 125.254L73.2452 129.339L78.4526 117.693L73.5237 115.83L73.1585 115.638L73.22 116.36C73.0591 119.163 70.5359 122.693 68.1387 125.254Z" fill="white"/>
<path d="M74.2936 165.258L67.6365 175.867L62.229 165.258L65.4939 129.882L70.6019 129.785L74.2936 165.258Z" fill="#F6931E"/>
<g style="mix-blend-mode:multiply" opacity="0.37">
<path d="M70.7242 131.035L70.6752 130.602L65.4539 130.576L65.4287 131.035L67.6216 131.238L67.9743 138.622L68.229 131.305L70.7242 131.035Z" fill="#FF761D"/>
</g>
<path d="M48.0008 121.033C44.8452 122.103 42.1434 124.207 40.3332 127.004L22.6639 154.319C21.5542 156.051 20.9803 158.071 21.0141 160.128C21.048 162.184 21.6881 164.185 22.8542 165.88L40.5054 191.53C40.5054 191.53 49.5612 182.434 49.1819 181.314C48.888 180.43 41.04 167.243 37.7485 161.722C37.3185 161.002 37.0987 160.176 37.1138 159.337C37.1288 158.498 37.3783 157.681 37.8338 156.976L56.6564 127.868L51.3035 119.891L48.0008 121.033Z" fill="#F2F5FD"/>
<path d="M48.6281 185.799L46.6437 196.96L42.1851 189.873L46.6283 184.911L48.6281 185.799Z" fill="#FFCEAB"/>
<path d="M107.294 183.424C107.111 174.203 106.242 165.01 104.693 155.919C103.864 151.113 103.286 146.273 102.218 141.505C100.205 132.548 97.7145 123.755 87.1529 119.609C85.9382 119.132 75.2576 116.25 74.6544 116.214C74.6544 116.214 76.3338 120.672 76.9551 125.537C77.4981 129.818 77.8158 134.894 76.6459 139.047L68.6452 165.396C64.5281 155.576 55.0287 134.65 58.586 127.938L60.4809 116.25C60.1492 116.408 49.0866 120.328 47.0756 121.577C42.6226 124.34 40.7935 126.992 41.0972 131.315C41.3967 135.598 46.639 163.013 46.6334 163.572C46.5984 166.868 44.9835 169.568 43.9926 172.603C44.5916 173.8 47.6592 179.686 49.0978 181.643C49.2224 181.814 47.3317 184.162 47.5584 184.232C54.2408 186.36 63.3092 189.504 67.9903 189.69C68.3625 189.706 68.9223 183.961 69.0049 183.878C69.0343 183.849 70.3736 189.987 70.8368 189.966C74.7846 189.783 85.9214 187.336 93.971 185.686L88.4698 138.595L94.339 168.472L96.8692 199.933L107.645 199.867L107.294 183.424Z" fill="#231F20"/>
<path d="M47.568 184.232C48.1277 184.413 48.4314 184.434 49.0276 184.627C49.6983 183.75 50.2872 182.813 50.7867 181.828C48.6427 178.469 46.7997 174.627 44.4374 171.369C44.2835 171.777 44.1337 172.189 43.9966 172.609C44.5955 173.805 47.6631 179.691 49.1017 181.649C49.2277 181.808 47.3357 184.158 47.568 184.232Z" fill="#110F10"/>
<path d="M48.0008 121.034C44.8452 122.103 42.1434 124.208 40.3332 127.005L22.6639 154.319C21.5542 156.051 20.9803 158.072 21.0141 160.128C21.048 162.185 21.6881 164.186 22.8542 165.88L40.5054 191.531C40.5054 191.531 49.8327 182.269 49.7977 182.044C49.7473 181.722 41.0456 167.249 37.7541 161.734C37.3241 161.013 37.1043 160.187 37.1194 159.349C37.1344 158.51 37.3839 157.692 37.8394 156.988L56.6619 127.88L51.3091 119.903L48.0008 121.034Z" fill="#231F20"/>
<path d="M66.2065 90.844C66.3663 91.2272 66.6349 91.5551 66.979 91.7872C67.3406 92.0202 67.7638 92.1392 68.1938 92.1287C68.617 92.125 69.0263 91.9769 69.3539 91.7088C69.5027 91.5781 69.6327 91.4274 69.7401 91.261C69.8669 91.1009 69.9507 90.9111 69.9837 90.7096C69.9837 90.6187 69.8745 90.5249 69.7933 90.6019C69.6758 90.711 69.6016 90.8608 69.4868 90.9755C69.37 91.0868 69.2381 91.181 69.095 91.2554C68.8191 91.4212 68.5099 91.524 68.1896 91.5563C67.8693 91.564 67.5527 91.4866 67.2722 91.332C66.9917 91.1773 66.7572 90.951 66.5928 90.676C66.4682 90.4423 66.0918 90.5893 66.2065 90.8384V90.844Z" fill="#F1836D"/>
<path d="M68.6698 165.54C62.0448 157.339 56.7423 147.662 51.9492 135.884L55.6941 132.348L52.0556 130.268L56.4624 117.806L60.1835 114.558L62.452 113.83L62.4087 115.592L60.7293 116.408L58.3979 132.244C61.094 143.554 64.5253 154.676 68.6698 165.54Z" fill="#110F10"/>
<path d="M68.5405 165.681C75.1641 157.48 78.7761 147.831 83.5692 136.059L79.8256 132.522L83.4642 130.441L79.0573 117.986L75.3348 114.737L73.1685 114.013L73.1531 115.637L74.7862 116.588L77.1191 132.424C74.5973 142.973 72.0181 153.483 68.5405 165.681Z" fill="#110F10"/>
<g style="mix-blend-mode:multiply" opacity="0.78">
<path d="M71.3028 167.214C71.8373 166.68 71.8373 165.813 71.3028 165.279C70.7683 164.744 69.9017 164.744 69.3672 165.279C68.8327 165.813 68.8327 166.68 69.3672 167.214C69.9017 167.749 70.7683 167.749 71.3028 167.214Z" fill="#231F20"/>
</g>
<path d="M70.3366 167.445C70.9982 167.445 71.5345 166.908 71.5345 166.247C71.5345 165.585 70.9982 165.049 70.3366 165.049C69.675 165.049 69.1387 165.585 69.1387 166.247C69.1387 166.908 69.675 167.445 70.3366 167.445Z" fill="#58595B"/>
<path d="M70.3366 167.482C70.9982 167.482 71.5345 166.945 71.5345 166.284C71.5345 165.622 70.9982 165.086 70.3366 165.086C69.675 165.086 69.1387 165.622 69.1387 166.284C69.1387 166.945 69.675 167.482 70.3366 167.482Z" fill="#231F20"/>
<g style="mix-blend-mode:multiply" opacity="0.78">
<path d="M70.3599 166.119C70.3228 166.119 70.2865 166.108 70.2557 166.087C70.2249 166.066 70.2008 166.037 70.1866 166.003C70.1724 165.969 70.1687 165.931 70.176 165.895C70.1832 165.858 70.2011 165.825 70.2273 165.799C70.2535 165.772 70.2869 165.754 70.3233 165.747C70.3597 165.74 70.3974 165.744 70.4317 165.758C70.4659 165.772 70.4952 165.796 70.5158 165.827C70.5364 165.858 70.5474 165.894 70.5474 165.931C70.5474 165.981 70.5277 166.029 70.4925 166.064C70.4573 166.099 70.4096 166.119 70.3599 166.119Z" fill="#231F20"/>
</g>
<g style="mix-blend-mode:multiply" opacity="0.78">
<path d="M70.3599 166.777C70.3228 166.777 70.2865 166.766 70.2557 166.745C70.2249 166.725 70.2008 166.695 70.1866 166.661C70.1724 166.627 70.1687 166.589 70.176 166.553C70.1832 166.516 70.2011 166.483 70.2273 166.457C70.2535 166.431 70.2869 166.413 70.3233 166.405C70.3597 166.398 70.3974 166.402 70.4317 166.416C70.4659 166.43 70.4952 166.454 70.5158 166.485C70.5364 166.516 70.5474 166.552 70.5474 166.589C70.5474 166.639 70.5277 166.687 70.4925 166.722C70.4573 166.757 70.4096 166.777 70.3599 166.777Z" fill="#231F20"/>
</g>
<path d="M68.6888 165.447C68.0367 168.204 69.0093 184.269 69.0163 184.233C69.2696 182.71 68.7826 165.054 68.6888 165.447Z" fill="#110F10"/>
<path d="M60.4237 172.236C58.4071 170.998 56.2408 170.015 54.1682 168.877C52.0956 167.74 50.0623 166.498 48.082 165.201C47.5335 164.841 47.0213 165.698 47.5531 166.066C49.53 167.431 51.5583 168.717 53.6378 169.926C55.695 171.119 57.7942 172.32 60.0557 173.08C60.5525 173.244 60.859 172.506 60.4237 172.236Z" fill="#110F10"/>
<path d="M53.4445 171.328C52.0311 170.021 50.6456 168.684 49.3287 167.279C49.0852 167.02 48.6934 167.397 48.9313 167.66C50.2133 169.095 51.5678 170.463 52.9897 171.759C53.2864 172.028 53.7412 171.602 53.4445 171.328Z" fill="#110F10"/>
<path d="M42.8889 138.845C42.6093 136.991 42.4341 135.122 42.3641 133.247C42.3417 132.657 41.4279 132.639 41.4391 133.238C41.4753 135.137 41.6155 137.033 41.8589 138.917C42.101 140.813 42.4103 142.738 43.0652 144.54C43.0932 144.649 43.1635 144.743 43.2606 144.8C43.3577 144.857 43.4737 144.874 43.583 144.846C43.6923 144.818 43.786 144.748 43.8435 144.651C43.901 144.553 43.9175 144.438 43.8895 144.328C43.6026 142.484 43.1702 140.677 42.8889 138.845Z" fill="#110F10"/>
<path d="M35.571 158.072C33.518 156.754 31.006 156.082 28.5976 155.833C28.0714 155.78 27.9301 156.684 28.4576 156.765C29.6063 156.94 30.7347 157.228 31.8261 157.626C32.5493 157.9 33.2551 158.217 33.9393 158.578C33.5838 158.729 33.2198 158.859 32.8491 158.967C32.1018 159.186 31.3335 159.284 30.5806 159.47C30.0278 159.61 30.1818 160.349 30.6925 160.405C31.5224 160.498 32.4013 160.314 33.1962 160.083C34.0075 159.834 34.7937 159.51 35.5444 159.114C35.967 158.906 35.9405 158.31 35.571 158.072Z" fill="#110F10"/>
<path d="M35.3866 159.515C35.3014 159.464 35.1996 159.448 35.103 159.472C35.0064 159.495 34.9229 159.555 34.8702 159.639C34.5942 160.135 34.2895 160.615 33.9578 161.075C33.6275 161.531 33.3001 161.992 32.9544 162.438C32.917 162.497 32.9031 162.568 32.9156 162.637C32.928 162.706 32.9658 162.768 33.0216 162.81C33.0758 162.854 33.1438 162.876 33.2131 162.874C33.2824 162.871 33.3486 162.844 33.3994 162.796C33.8365 162.4 34.233 161.961 34.5833 161.487C34.922 161.02 35.2327 160.533 35.514 160.03C35.5636 159.944 35.578 159.843 35.5543 159.747C35.5305 159.65 35.4704 159.567 35.3866 159.515Z" fill="#110F10"/>
<path d="M93.9627 132.772C92.5632 134.021 91.2225 135.326 89.8721 136.624C91.2827 133.248 92.2245 129.652 93.2112 126.137C93.3959 125.478 92.3883 125.19 92.1896 125.844C91.6214 127.717 91.028 129.583 90.4095 131.442C89.7895 133.301 89.15 135.144 88.6616 137.04C88.5342 137.54 89.3053 137.94 89.5348 137.423C89.5656 137.355 89.5936 137.284 89.623 137.214C89.6462 137.267 89.6818 137.314 89.7269 137.35C89.772 137.386 89.8253 137.411 89.8821 137.423C89.9389 137.435 89.9977 137.432 90.0535 137.416C90.1092 137.4 90.1603 137.371 90.2024 137.331C91.6102 135.971 93.0264 134.623 94.3853 133.215C94.4415 133.159 94.4734 133.082 94.4742 133.003C94.475 132.923 94.4447 132.846 94.3896 132.788C94.3346 132.73 94.2592 132.696 94.1795 132.693C94.0997 132.69 94.0219 132.718 93.9627 132.772Z" fill="#110F10"/>
<path d="M81.2837 155.165C79.1285 157.545 77.0014 159.96 74.8756 162.371C74.6153 162.665 75.0379 163.11 75.2954 162.815C77.4184 160.397 79.5399 157.978 81.6349 155.538C81.849 155.29 81.5062 154.919 81.2837 155.165Z" fill="#110F10"/>
<path d="M107.256 200.302L97.5015 200.277L97.4512 199.773L107.254 199.802L107.256 200.302Z" fill="#F2F5FD"/>
<path d="M41.0161 190.931C41.1184 191.124 41.2444 191.303 41.3912 191.464L48.2302 184.561L47.8538 184.043L41.0161 190.931Z" fill="#F2F5FD"/>
<g style="mix-blend-mode:multiply" opacity="0.37">
<path d="M68.4383 125.481C68.3412 125.402 68.2393 125.33 68.1332 125.265C68.0724 125.317 68.0073 125.364 67.9387 125.405C67.2697 125.875 65.1804 127.644 64.8459 127.988C64.7311 128.105 67.8127 125.84 68.129 125.538C68.1528 125.516 71.2707 128.086 71.4471 127.925C71.5017 127.878 68.4551 125.493 68.4383 125.481Z" fill="#FF761D"/>
</g>
<path d="M50.6095 60.065C50.0729 59.6135 49.5765 59.1163 49.1261 58.5788C48.6964 58.0638 48.2192 57.5992 47.826 57.0464C47.0299 55.9299 46.4224 54.6903 46.0277 53.3771C45.0593 50.1947 45.2524 46.7591 45.738 43.5082C45.801 43.0884 45.1782 42.8756 45.0775 43.3179C44.2868 46.7395 44.0461 50.3725 45.1362 53.7619C45.5818 55.1674 46.255 56.4902 47.1291 57.6776C47.5489 58.2513 48.0149 58.8265 48.5943 59.2477C49.1785 59.6701 49.8132 60.018 50.4835 60.2833C50.5111 60.2898 50.54 60.2873 50.566 60.2761C50.5919 60.2649 50.6136 60.2456 50.6278 60.221C50.6419 60.1965 50.6478 60.1681 50.6445 60.14C50.6412 60.1119 50.6289 60.0856 50.6095 60.065Z" fill="#422828"/>
<path d="M87.324 55.7178C87.1764 56.4914 86.9106 57.2376 86.5361 57.9303C86.3526 58.2683 86.1499 58.5954 85.9288 58.91C85.7006 59.243 85.4613 59.5803 85.208 59.8896C85.0751 60.0533 85.236 60.3612 85.4501 60.2184C85.8112 59.9893 86.137 59.7088 86.4172 59.3858C86.7001 59.05 86.9443 58.6834 87.1449 58.2928C87.537 57.5096 87.7692 56.6561 87.8278 55.7822C87.853 55.5023 87.3772 55.4267 87.324 55.7178Z" fill="#422828"/>
<path d="M86.0338 64.165C85.7763 63.7452 85.1158 64.1091 85.3663 64.5345C89.1014 70.8698 92.9121 77.9314 91.3923 85.5429C91.3831 85.5849 91.3902 85.6289 91.4122 85.6658C91.4342 85.7027 91.4694 85.7299 91.5107 85.7418C91.552 85.7538 91.5963 85.7495 91.6346 85.73C91.6729 85.7105 91.7023 85.6771 91.7169 85.6367C94.1366 78.0195 89.9145 70.4541 86.0338 64.165Z" fill="#422828"/>
<path d="M52.6452 62.192C48.5868 66.4239 46.1364 72.0315 45.063 77.7496C44.7555 79.3731 44.5911 81.0205 44.5718 82.6728C44.5718 82.701 44.583 82.7281 44.6029 82.748C44.6229 82.768 44.6499 82.7792 44.6781 82.7792C44.7063 82.7792 44.7334 82.768 44.7533 82.748C44.7733 82.7281 44.7845 82.701 44.7845 82.6728C44.9734 79.8152 45.4366 76.9421 46.3365 74.2188C47.2363 71.4955 48.5476 68.9093 50.0646 66.5023C50.9513 65.1194 51.9201 63.7908 52.9656 62.5236C53.1462 62.3025 52.8579 61.9723 52.6452 62.192Z" fill="#422828"/>
<path d="M200.61 168.477C199.251 168.673 198.171 169.89 197.983 171.435C197.794 169.896 196.714 168.673 195.355 168.477C196.714 168.283 197.794 167.065 197.983 165.52C198.171 167.065 199.248 168.283 200.61 168.477Z" fill="white"/>
<path d="M191.822 159.157C190.463 159.351 189.383 160.57 189.194 162.114C189.005 160.574 187.926 159.351 186.565 159.157C187.926 158.962 189.005 157.743 189.194 156.2C189.383 157.738 190.463 158.962 191.822 159.157Z" fill="white"/>
<path d="M193.12 178.615C191.441 178.855 190.108 180.36 189.876 182.267C189.644 180.36 188.31 178.855 186.631 178.615C188.31 178.375 189.644 176.871 189.876 174.963C190.108 176.871 191.442 178.375 193.12 178.615Z" fill="white"/>
<path d="M8.78418 106.494C10.1444 106.3 11.2248 105.082 11.4123 103.537C11.6013 105.076 12.6802 106.3 14.0405 106.494C12.6802 106.69 11.6013 107.908 11.4123 109.453C11.2192 107.908 10.1388 106.69 8.78418 106.494Z" fill="white"/>
<path d="M17.5684 115.816C18.9272 115.621 20.0076 114.402 20.1951 112.859C20.384 114.398 21.4644 115.621 22.8247 115.816C21.4644 116.01 20.384 117.228 20.1951 118.773C20.0076 117.228 18.9272 116.01 17.5684 115.816Z" fill="white"/>
<path d="M16.2686 96.3567C17.9479 96.1174 19.2802 94.613 19.5125 92.7056C19.7462 94.613 21.0784 96.1174 22.7578 96.3567C21.0784 96.5974 19.7462 98.1018 19.5125 100.009C19.2802 98.1018 17.9479 96.5974 16.2686 96.3567Z" fill="white"/>
</g>
<defs>
<clipPath id="clip0_79_3449">
<rect x="0.5" width="209" height="209" rx="104.5" fill="white"/>
</clipPath>
</defs>
</svg>
