<svg width="100" height="100" viewBox="0 0 100 100" fill="none" xmlns="http://www.w3.org/2000/svg">
<g clip-path="url(#clip0_79_3669)">
<rect width="100" height="100" rx="50" fill="#FDFFA8"/>
<path d="M69.6453 34.5321C56.0168 35.8055 56.2725 47.5313 58.2834 56.1351C59.545 61.6947 60.4384 67.3314 60.9579 73.0085C60.9579 73.0085 75.3288 75.688 87.1873 72.0252C87.1873 72.0252 93.5788 49.2816 88.8049 40.6777C84.031 32.0739 71.4595 31.8084 69.6453 34.5321Z" fill="#5B4852"/>
<path d="M103.677 100.133H44.9303C44.9303 100.133 47.6737 89.5574 51.5675 83.2938C55.4614 77.0302 69.7585 74.8965 69.7585 74.8965L74.2915 75.6536L78.8196 74.8965C78.8196 74.8965 93.1315 77.0253 97.0106 83.2938C100.89 89.5623 103.677 100.133 103.677 100.133Z" fill="#D66572"/>
<path d="M69.2372 74.8965L62.7622 76.1109C62.7622 76.1109 64.2371 83.4512 70.191 87.1189L74.2176 82.2024V76.8877L69.2372 74.8965Z" fill="white"/>
<path d="M78.9228 74.8965L85.4125 76.1109C85.4125 76.1109 83.9032 83.4512 78.0034 87.1385L73.9768 82.222V76.8877L78.9228 74.8965Z" fill="white"/>
<path d="M74.1931 80.4916C73.6079 80.4948 73.0279 80.382 72.4866 80.1595C71.9453 79.9371 71.4535 79.6094 71.0397 79.1956C70.6258 78.7818 70.2982 78.29 70.0758 77.7487C69.8533 77.2074 69.7405 76.6273 69.7437 76.0421V67.5366H78.6475V76.0421C78.6462 77.2226 78.1763 78.3544 77.3411 79.1886C76.5059 80.0229 75.3736 80.4916 74.1931 80.4916Z" fill="#F1B69A"/>
<path d="M78.6474 66.5537V71.775C78.6474 71.775 77.1725 74.3758 74.1931 74.3758C71.8184 74.3758 69.7437 72.1192 69.7437 72.1192V66.5537H78.6474Z" fill="#150A08"/>
<path d="M61.7446 57.4186C59.3355 53.7607 56.543 56.1108 56.543 58.6821C56.543 62.4088 60.5892 65.6193 62.9 62.9447C65.2107 60.2702 61.7446 57.4186 61.7446 57.4186Z" fill="#F1B69A"/>
<path d="M61.2186 59.1149C59.7191 56.3174 57.6492 58.9281 58.4408 59.9655" stroke="#E07E61" stroke-width="0.491648" stroke-miterlimit="10" stroke-linecap="round"/>
<path d="M85.7861 57.4186C88.1903 53.7607 90.9828 56.1108 90.9828 58.6821C90.9828 62.4088 86.9415 65.6193 84.6307 62.9447C82.32 60.2702 85.7861 57.4186 85.7861 57.4186Z" fill="#F1B69A"/>
<path d="M86.3124 59.1149C87.7873 56.3174 89.8768 58.9281 89.0902 59.9655" stroke="#E07E61" stroke-width="0.491648" stroke-miterlimit="10" stroke-linecap="round"/>
<path d="M73.7507 71.7745C64.2422 71.7745 58.6178 61.3811 60.84 50.7074C62.6738 41.9167 84.8521 41.9216 86.6859 50.7074C88.9082 61.3811 83.269 71.7794 73.7507 71.7745Z" fill="#F1B69A"/>
<g style="mix-blend-mode:multiply" opacity="0.5">
<path d="M72.4871 61.0815C73.4704 61.5732 75.6729 60.5161 75.7172 61.0815C75.7614 61.6469 74.5471 62.1533 74.1046 62.1533C73.6621 62.1533 72.4871 61.0815 72.4871 61.0815Z" fill="#F1B69A"/>
</g>
<path d="M72.5215 58.2246C71.1351 61.2237 73.2098 61.8087 73.7654 61.8776" stroke="#E07E61" stroke-width="0.491648" stroke-miterlimit="10" stroke-linecap="round"/>
<path d="M70.0044 50.0491C69.4095 48.7217 65.9286 49.3313 65.432 50.2753C64.9355 51.2192 66.5726 51.4847 67.7821 51.4257C68.9916 51.3667 70.3829 50.8947 70.0044 50.0491Z" fill="#150A08"/>
<path d="M77.5118 50.0491C78.1067 48.7217 81.5876 49.3313 82.0792 50.2753C82.5709 51.2192 80.9435 51.4847 79.7341 51.4257C78.5246 51.3667 77.148 50.8947 77.5118 50.0491Z" fill="#150A08"/>
<path d="M67.4869 55.1816C67.4917 55.37 67.5521 55.5529 67.6603 55.7073C67.7685 55.8617 67.9199 55.9808 68.0955 56.0496C68.271 56.1184 68.463 56.1339 68.6473 56.0942C68.8316 56.0544 69.0001 55.9613 69.1318 55.8263C69.2634 55.6913 69.3523 55.5204 69.3873 55.3351C69.4224 55.1499 69.402 54.9584 69.3288 54.7846C69.2555 54.6109 69.1327 54.4626 68.9756 54.3583C68.8185 54.254 68.6342 54.1983 68.4456 54.1983C68.3174 54.1975 68.1904 54.2227 68.0722 54.2721C67.9539 54.3216 67.8468 54.3944 67.7573 54.4862C67.6678 54.578 67.5978 54.6869 67.5513 54.8063C67.5049 54.9258 67.4829 55.0534 67.4869 55.1816Z" fill="#150A08"/>
<path d="M80.0387 55.1815C80.0339 55.3703 79.9734 55.5533 79.865 55.7078C79.7565 55.8623 79.6048 55.9813 79.429 56.05C79.2532 56.1187 79.061 56.1339 78.8765 56.0938C78.6921 56.0536 78.5236 55.96 78.3921 55.8245C78.2607 55.689 78.1722 55.5177 78.1377 55.3321C78.1032 55.1465 78.1243 54.9549 78.1983 54.7812C78.2723 54.6076 78.3959 54.4596 78.5536 54.3559C78.7113 54.2522 78.8961 54.1973 79.0849 54.1983C79.2127 54.1982 79.3392 54.2238 79.4568 54.2736C79.5745 54.3233 79.681 54.3962 79.77 54.488C79.8589 54.5797 79.9286 54.6883 79.9747 54.8075C80.0209 54.9266 80.0427 55.0538 80.0387 55.1815Z" fill="#150A08"/>
<path d="M70.4271 63.7556C74.0948 64.4587 77.0054 63.8736 78.1853 62.9346" stroke="#150A08" stroke-width="0.491648" stroke-miterlimit="10" stroke-linecap="round"/>
<g style="mix-blend-mode:multiply" opacity="0.5">
<path d="M72.8902 65.5652C74.2226 65.5652 76.1302 64.8769 76.4252 65.5652C76.7201 66.2535 75.0928 67.6301 74.0849 67.5318C73.077 67.4335 71.371 65.5603 72.8902 65.5652Z" fill="#F1B69A"/>
</g>
<path d="M62.0592 43.6867C60.127 46.0269 59.6599 52.266 59.6599 52.266H64.0847L66.2677 45.3485V51.9316C67.9016 52.315 69.5874 52.4279 71.2579 52.266L72.8262 47.0053L75.2009 51.9218C75.2009 51.9218 78.4409 52.8117 80.3632 51.9218L79.7437 47.0053L82.1036 51.9218C82.1036 51.9218 85.8549 52.4134 87.7084 51.381C87.7084 51.381 89.208 45.3386 82.905 42.1872C76.6021 39.0357 65.7367 39.2225 62.0592 43.6867Z" fill="#5B4852"/>
<path d="M43.803 57.0149C44.1078 52.8113 47.3084 41.115 40.4057 41.9115C39.5109 35.8199 33.8078 32.7373 28.3062 33.0175C13.3994 33.7845 11.0985 47.4032 13.4289 57.0149C17.2097 67.0937 36.6544 59.2175 43.803 57.0149Z" fill="#D76A40"/>
<path d="M61.699 102.434H-4C-4 102.434 -2.00883 91.4157 2.50942 85.0735C7.02766 78.7312 23.783 76.4106 23.783 76.4106L28.8519 77.1924L33.9159 76.4106C33.9159 76.4106 50.6811 78.7263 55.1994 85.0735C59.7176 91.4207 61.699 102.434 61.699 102.434Z" fill="#5B4850"/>
<path d="M19.8893 76.8819C22.7977 76.219 25.7887 75.9936 28.7636 76.2133C31.7384 75.9936 34.7294 76.219 37.6378 76.8819C38.0606 80.879 36.4136 85.9135 28.8471 85.9381C21.1873 85.9627 19.4567 80.9331 19.8893 76.8819Z" fill="white"/>
<path d="M28.7388 81.9954C28.1557 81.9986 27.5777 81.8865 27.038 81.6656C26.4983 81.4447 26.0076 81.1193 25.5941 80.7081C25.1806 80.2969 24.8525 79.808 24.6286 79.2695C24.4047 78.7311 24.2894 78.1537 24.2894 77.5705V69.0552H33.1932V77.5705C33.1854 78.7468 32.7126 79.8722 31.8781 80.7012C31.0436 81.5301 29.9151 81.9954 28.7388 81.9954Z" fill="#F1B69A"/>
<path d="M33.1932 68.5586V73.775C33.1932 73.775 31.7182 76.3758 28.7388 76.3758C26.3642 76.3758 24.2894 74.1241 24.2894 74.1241V68.5586H33.1932Z" fill="#150A08"/>
<path d="M16.2903 58.932C13.8812 55.2742 11.0886 57.6242 11.0886 60.2005C11.0886 63.9272 15.1349 67.1376 17.4456 64.4631C19.7564 61.7885 16.2903 58.932 16.2903 58.932Z" fill="#F1B69A"/>
<path d="M15.7642 60.623C14.2647 57.8206 12.1949 60.4361 12.9864 61.4735" stroke="#E07E61" stroke-width="0.491648" stroke-miterlimit="10" stroke-linecap="round"/>
<path d="M40.3318 58.932C42.7359 55.2742 45.5285 57.6242 45.5285 60.2005C45.5285 63.9272 41.4871 67.1376 39.1764 64.4631C36.8657 61.7885 40.3318 58.932 40.3318 58.932Z" fill="#F1B69A"/>
<path d="M40.858 60.623C42.333 57.8206 44.4225 60.4361 43.6358 61.4735" stroke="#E07E61" stroke-width="0.491648" stroke-miterlimit="10" stroke-linecap="round"/>
<path d="M28.2965 73.2933C18.788 73.2933 13.1635 62.895 15.3858 52.2262C17.2196 43.4306 39.3979 43.4355 41.2317 52.2262C43.454 62.895 37.8148 73.2933 28.2965 73.2933Z" fill="#F1B69A"/>
<path d="M42.333 55.7216C42.333 55.7216 42.2101 65.2989 38.6358 69.7778C35.0615 74.2567 28.7389 74.5468 28.7389 74.5468C28.7389 74.5468 21.6542 74.2567 18.0849 69.7778C14.5155 65.2989 14.3877 55.7216 14.3877 55.7216L14.8793 54.7383C15.2382 57.3047 16.9197 63.9567 18.9404 65.4316C22.2442 64.3254 24.7221 64.1976 28.498 64.1976C31.6512 64.2331 34.7977 64.496 37.9131 64.9842C39.5355 63.5535 41.5021 57.0785 41.8462 54.7383L42.333 55.7216Z" fill="#D76A40"/>
<g style="mix-blend-mode:multiply" opacity="0.5">
<path d="M27.0328 62.6099C28.0161 63.1015 30.2187 62.0396 30.263 62.6099C30.3072 63.1802 29.0928 63.6817 28.6504 63.6817C28.2079 63.6817 27.0328 62.6099 27.0328 62.6099Z" fill="#F1B69A"/>
</g>
<path d="M27.0672 59.7437C25.6807 62.7427 27.7555 63.3228 28.3111 63.3966" stroke="#E07E61" stroke-width="0.491648" stroke-miterlimit="10" stroke-linecap="round"/>
<path d="M24.8499 65.4512C28.4881 65.8396 30.9217 65.4512 32.6523 65.5003C32.6523 65.5003 30.4694 68.578 27.9079 67.9586C25.3464 67.3391 24.8499 65.4512 24.8499 65.4512Z" fill="white"/>
<path d="M24.55 51.5671C23.9551 50.2396 20.4742 50.8443 19.9777 51.7883C19.4811 52.7323 21.1183 53.0027 22.3278 52.9387C23.5372 52.8748 24.9286 52.4127 24.55 51.5671Z" fill="#D76A40"/>
<path d="M32.0574 51.5671C32.6523 50.2396 36.1332 50.8443 36.6248 51.7883C37.1165 52.7323 35.499 52.9879 34.2944 52.9387C33.0899 52.8896 31.6936 52.4127 32.0574 51.5671Z" fill="#D76A40"/>
<g style="mix-blend-mode:multiply" opacity="0.5">
<path d="M27.3671 68.8635C28.6995 68.8635 30.6071 68.1752 30.9021 68.8635C31.1971 69.5518 29.5746 70.9285 28.5619 70.8301C27.5491 70.7318 25.8479 68.8586 27.3671 68.8635Z" fill="#F1B69A"/>
</g>
<path d="M22.0327 56.6804C22.0327 56.87 22.0889 57.0554 22.1943 57.213C22.2996 57.3707 22.4494 57.4936 22.6246 57.5661C22.7997 57.6387 22.9925 57.6577 23.1785 57.6207C23.3644 57.5837 23.5353 57.4924 23.6694 57.3583C23.8034 57.2242 23.8947 57.0534 23.9317 56.8674C23.9687 56.6815 23.9497 56.4887 23.8772 56.3135C23.8046 56.1383 23.6817 55.9886 23.5241 55.8833C23.3664 55.7779 23.1811 55.7217 22.9914 55.7217C22.7372 55.7217 22.4933 55.8227 22.3135 56.0025C22.1337 56.1823 22.0327 56.4261 22.0327 56.6804Z" fill="#150A08"/>
<path d="M33.631 57.6391C34.1604 57.6391 34.5897 57.2099 34.5897 56.6804C34.5897 56.1509 34.1604 55.7217 33.631 55.7217C33.1015 55.7217 32.6722 56.1509 32.6722 56.6804C32.6722 57.2099 33.1015 57.6391 33.631 57.6391Z" fill="#150A08"/>
<path d="M21.025 45.8003L23.2374 45.2644C23.2374 45.2644 20.3564 49.8957 26.502 50.7807C32.6476 51.6657 39.0538 47.5112 33.9455 45.3726L35.804 45.2496L31.3349 41.8081L21.025 45.8003Z" fill="#D76A40"/>
</g>
<defs>
<clipPath id="clip0_79_3669">
<rect width="100" height="100" rx="50" fill="white"/>
</clipPath>
</defs>
</svg>
