<svg width="100" height="100" viewBox="0 0 100 100" fill="none" xmlns="http://www.w3.org/2000/svg">
<g clip-path="url(#clip0_79_3666)">
<rect width="100" height="100" rx="50" fill="#6A9DFF"/>
<path fill-rule="evenodd" clip-rule="evenodd" d="M70.8731 40.3732V69.262C62.2268 84.2415 38.7391 74.5173 46.3229 56.7759C50.7496 46.4187 54.1176 25.4283 70.8731 30.6145V40.3732Z" fill="#210000"/>
<path fill-rule="evenodd" clip-rule="evenodd" d="M70.8729 40.3732V69.262C79.5231 84.2415 103.007 74.5173 95.4232 56.7759C90.9965 46.4187 87.6285 25.4283 70.8729 30.6145V40.3732Z" fill="#210000"/>
<path fill-rule="evenodd" clip-rule="evenodd" d="M55.8859 57.6013C55.8169 56.8724 52.8402 56.0132 51.8467 58.3953C50.8531 60.7775 52.6407 64.1493 56.0164 64.414C59.392 64.6786 58.3985 64.0841 58.3985 64.0841L55.8859 57.6013Z" fill="#E4AE7C"/>
<path fill-rule="evenodd" clip-rule="evenodd" d="M85.9331 57.6013C85.9983 56.8724 88.9789 56.0132 89.9686 58.3953C90.9583 60.7775 89.1745 64.1493 85.8027 64.414C82.4309 64.6786 83.4206 64.0841 83.4206 64.0841L85.9331 57.6013Z" fill="#E4AE7C"/>
<path fill-rule="evenodd" clip-rule="evenodd" d="M70.873 102.712H43.6375C43.3192 88.7876 54.033 80.7051 63.2317 77.6901C63.9797 73.8042 63.7879 68.7676 63.7879 68.7676H77.9427C77.9427 68.7676 77.7509 73.8042 78.4989 77.6901C87.7053 80.7051 98.4115 88.7876 98.0931 102.712H70.873Z" fill="#E4AE7C"/>
<path fill-rule="evenodd" clip-rule="evenodd" d="M78.0002 73.1451C75.1155 79.4552 66.9794 80.138 63.7303 73.3906C63.7956 72.2398 63.8147 71.1465 63.8186 70.3218H77.9273C77.9311 71.0966 77.9465 72.071 78.0002 73.1451Z" fill="#D67F54"/>
<path fill-rule="evenodd" clip-rule="evenodd" d="M70.873 73.643C53.3157 74.065 44.4508 30.7683 70.873 31.8769C97.2952 30.7683 88.4303 74.065 70.873 73.643Z" fill="#E4AE7C"/>
<path fill-rule="evenodd" clip-rule="evenodd" d="M64.9733 53.5469C65.2251 53.7293 65.4171 53.9823 65.5252 54.2739C65.6332 54.5654 65.6524 54.8825 65.5803 55.185C65.5082 55.4874 65.3481 55.7618 65.1202 55.9733C64.8923 56.1848 64.6068 56.3239 64.2997 56.3732C63.9927 56.4225 63.678 56.3797 63.3953 56.2502C63.1126 56.1207 62.8747 55.9103 62.7115 55.6456C62.5484 55.3809 62.4674 55.0737 62.4787 54.763C62.4901 54.4523 62.5933 54.1519 62.7753 53.8998C62.896 53.7317 63.0487 53.5892 63.2247 53.4804C63.4008 53.3716 63.5965 53.2987 63.8008 53.2659C64.0051 53.2331 64.2139 53.2411 64.4151 53.2893C64.6163 53.3375 64.806 53.425 64.9733 53.5469Z" fill="#20201E"/>
<path fill-rule="evenodd" clip-rule="evenodd" d="M76.8688 53.5467C76.6176 53.7295 76.4261 53.9826 76.3186 54.2741C76.2111 54.5657 76.1923 54.8825 76.2647 55.1847C76.3371 55.4868 76.4973 55.7608 76.7252 55.972C76.9531 56.1832 77.2385 56.3221 77.5453 56.3713C77.8521 56.4205 78.1666 56.3777 78.4491 56.2483C78.7316 56.1189 78.9694 55.9087 79.1326 55.6443C79.2958 55.3799 79.377 55.0731 79.366 54.7626C79.3549 54.452 79.2522 54.1517 79.0707 53.8996C78.9496 53.7314 78.7965 53.5888 78.6202 53.48C78.4438 53.3711 78.2477 53.2982 78.0431 53.2654C77.8385 53.2326 77.6294 53.2406 77.4279 53.2889C77.2264 53.3371 77.0364 53.4247 76.8688 53.5467Z" fill="#20201E"/>
<path fill-rule="evenodd" clip-rule="evenodd" d="M63.0363 59.254C63.9301 59.9445 63.9684 60.9495 63.1207 61.5057C62.2729 62.0619 60.8613 61.9507 59.9637 61.264C59.066 60.5774 59.0277 59.5685 59.8754 59.0123C60.7232 58.4561 62.1387 58.5673 63.0363 59.254Z" fill="#DA9077"/>
<path fill-rule="evenodd" clip-rule="evenodd" d="M78.8097 59.254C77.9121 59.9445 77.8737 60.9495 78.7215 61.5057C79.5692 62.0619 80.9847 61.9507 81.8785 61.264C82.7723 60.5774 82.8145 59.5685 81.9667 59.0123C81.119 58.4561 79.6958 58.5673 78.8097 59.254Z" fill="#DA9077"/>
<path fill-rule="evenodd" clip-rule="evenodd" d="M65.6599 49.2773L65.4834 49.2044C64.8506 48.9746 64.1756 48.8848 63.5047 48.9411C62.8339 48.9974 62.1832 49.1985 61.5976 49.5305C61.3137 49.7146 60.2051 50.6122 60.5197 50.9421C60.6501 50.9766 61.7548 50.4127 62.0771 50.3092C62.546 50.1633 63.0362 50.0971 63.5271 50.1135C63.982 50.1258 64.4313 50.218 64.8543 50.3859C64.8922 50.3993 64.9293 50.4146 64.9655 50.4319C65.89 50.8807 65.8095 51.1723 66.4386 50.7388C67.4206 50.2209 66.4117 49.6647 65.6599 49.2773Z" fill="#3F2716"/>
<path fill-rule="evenodd" clip-rule="evenodd" d="M76.0861 49.2777L76.2626 49.2048C76.8953 48.9748 77.5704 48.8848 78.2413 48.9411C78.9122 48.9974 79.5629 49.1986 80.1484 49.5308C80.4323 49.715 81.5409 50.6126 81.2263 50.9425C81.0959 50.977 79.9911 50.4131 79.6689 50.3095C79.1999 50.1636 78.7098 50.0975 78.2189 50.1139C77.764 50.1262 77.3147 50.2184 76.8917 50.3863C76.8538 50.3996 76.8167 50.415 76.7804 50.4323C75.856 50.8811 75.9365 51.1726 75.3074 50.7392C74.3254 50.2213 75.3343 49.6651 76.0861 49.2777Z" fill="#3F2716"/>
<path fill-rule="evenodd" clip-rule="evenodd" d="M75.4454 63.4237C75.4734 63.3853 75.5145 63.3586 75.561 63.3489C75.6075 63.3391 75.6559 63.3469 75.697 63.3707C75.738 63.3946 75.7687 63.4328 75.7832 63.478C75.7977 63.5233 75.7949 63.5723 75.7753 63.6155C75.3611 64.2843 74.7404 64.8001 74.0069 65.0847C73.1036 65.4411 72.1393 65.617 71.1683 65.6026C70.2023 65.6222 69.2422 65.4474 68.345 65.0885C67.6071 64.8046 66.9821 64.2873 66.5651 63.6155C66.5522 63.5943 66.5438 63.5706 66.5403 63.546C66.5368 63.5214 66.5383 63.4963 66.5448 63.4723C66.5512 63.4482 66.5625 63.4258 66.5778 63.4062C66.5932 63.3867 66.6124 63.3705 66.6342 63.3585C66.6775 63.333 66.7292 63.3256 66.778 63.3378C66.8267 63.35 66.8688 63.3808 66.895 63.4237C67.2711 64.0245 67.8326 64.4864 68.4946 64.7395C69.3483 65.0789 70.2614 65.2432 71.1798 65.2228C72.0982 65.2382 73.0106 65.0727 73.865 64.7356C74.5191 64.4795 75.0733 64.0195 75.4454 63.4237Z" fill="#4E2C0B"/>
<path fill-rule="evenodd" clip-rule="evenodd" d="M70.0482 67.8891C70.0263 67.8768 70.0071 67.8602 69.9916 67.8403C69.9762 67.8204 69.965 67.7976 69.9585 67.7733C69.9521 67.7489 69.9506 67.7236 69.9542 67.6986C69.9577 67.6737 69.9662 67.6498 69.9792 67.6282C70.0048 67.5847 70.0466 67.553 70.0954 67.5401C70.1443 67.5272 70.1962 67.534 70.24 67.5592C70.5241 67.7155 70.8441 67.7948 71.1683 67.7893C71.4872 67.7951 71.802 67.7171 72.0813 67.563C72.1025 67.5502 72.126 67.5416 72.1504 67.5378C72.1749 67.5341 72.1998 67.5352 72.2239 67.541C72.2479 67.5469 72.2706 67.5575 72.2905 67.5721C72.3105 67.5867 72.3274 67.6052 72.3402 67.6263C72.3531 67.6475 72.3616 67.6709 72.3654 67.6954C72.3692 67.7199 72.3681 67.7448 72.3622 67.7689C72.3563 67.7929 72.3458 67.8156 72.3312 67.8355C72.3165 67.8555 72.2981 67.8724 72.2769 67.8852C71.9402 68.0795 71.5571 68.1789 71.1683 68.1729C70.7767 68.177 70.3907 68.0792 70.0482 67.8891Z" fill="#D67F54"/>
<path fill-rule="evenodd" clip-rule="evenodd" d="M70.7312 61C70.6804 61 70.6316 60.9798 70.5956 60.9438C70.5596 60.9078 70.5394 60.8591 70.5394 60.8082C70.5394 60.7573 70.5596 60.7085 70.5956 60.6726C70.6316 60.6366 70.6804 60.6164 70.7312 60.6164C71.2068 60.6274 71.6825 60.6031 72.1544 60.5435C72.4996 60.4821 72.7566 60.3901 72.7566 60.2328C72.7566 59.6842 72.2004 56.2817 72.2004 56.2702C72.1926 56.2204 72.2048 56.1696 72.2342 56.1286C72.2636 56.0877 72.308 56.06 72.3577 56.0516C72.3821 56.0478 72.4071 56.0488 72.4311 56.0546C72.4551 56.0605 72.4778 56.071 72.4977 56.0856C72.5177 56.1002 72.5346 56.1186 72.5474 56.1398C72.5602 56.1609 72.5688 56.1844 72.5725 56.2088C72.5725 56.2088 73.1364 59.6612 73.1364 60.2328C73.1364 60.6164 72.7528 60.8274 72.2157 60.9156C71.7239 60.9823 71.2275 61.0106 70.7312 61Z" fill="#D67F54"/>
<path fill-rule="evenodd" clip-rule="evenodd" d="M88.9021 60.2745C88.9021 60.3253 88.8819 60.3741 88.8459 60.4101C88.8099 60.4461 88.7611 60.4663 88.7103 60.4663C88.6594 60.4663 88.6106 60.4461 88.5746 60.4101C88.5387 60.3741 88.5185 60.3253 88.5185 60.2745C88.5604 59.8726 88.4687 59.4682 88.2576 59.1237C88.2152 59.0694 88.161 59.0254 88.0993 58.9949C88.0376 58.9644 87.9698 58.9481 87.9009 58.9472C87.7175 58.9535 87.539 59.0078 87.383 59.1045C86.8052 59.4736 86.352 60.0083 86.0826 60.6389C85.9548 60.9255 85.8459 61.2203 85.7566 61.5212C86.0126 61.3341 86.3263 61.2431 86.6427 61.2641C86.7905 61.2758 86.9324 61.3276 87.0531 61.4138C87.1771 61.4998 87.2678 61.6257 87.3101 61.7705C87.345 61.9514 87.3393 62.1377 87.2936 62.3161C87.2478 62.4945 87.1631 62.6606 87.0455 62.8024C87.0316 62.823 87.0138 62.8407 86.9931 62.8545C86.9724 62.8683 86.9492 62.8779 86.9248 62.8827C86.8755 62.8924 86.8244 62.8821 86.7827 62.8542C86.741 62.8262 86.7121 62.7828 86.7024 62.7335C86.6927 62.6842 86.7029 62.6331 86.7309 62.5914C86.8146 62.4948 86.8769 62.3817 86.9139 62.2595C86.951 62.1372 86.9618 62.0085 86.9457 61.8817C86.9273 61.8163 86.8866 61.7593 86.8306 61.7206C86.7648 61.6754 86.6879 61.6489 86.6081 61.6439C86.4558 61.6372 86.3038 61.6643 86.1632 61.7233C86.0226 61.7824 85.8968 61.8718 85.7949 61.9853C85.7444 62.0433 85.6775 62.0847 85.6031 62.1042C85.5728 62.115 85.5403 62.1186 85.5083 62.1146C85.4763 62.1106 85.4457 62.0993 85.4189 62.0814C85.3921 62.0635 85.3698 62.0396 85.3538 62.0116C85.3379 61.9836 85.3287 61.9523 85.3269 61.9201C85.3139 61.8465 85.3139 61.7712 85.3269 61.6976C85.4163 61.2825 85.5514 60.8785 85.7297 60.4931C86.0343 59.7881 86.5434 59.1908 87.1912 58.7784C87.4058 58.6459 87.6525 58.5743 87.9047 58.5713C88.0289 58.5718 88.1513 58.6004 88.2629 58.6549C88.3745 58.7093 88.4723 58.7883 88.5492 58.8858C88.8175 59.2968 88.9416 59.7853 88.9021 60.2745Z" fill="#D67F54"/>
<path fill-rule="evenodd" clip-rule="evenodd" d="M53.2275 60.2746C53.2275 60.3255 53.2073 60.3743 53.1713 60.4102C53.1354 60.4462 53.0866 60.4664 53.0357 60.4664C52.9849 60.4664 52.9361 60.4462 52.9001 60.4102C52.8641 60.3743 52.8439 60.3255 52.8439 60.2746C52.8029 59.7882 52.9258 59.3021 53.193 58.8937C53.2688 58.796 53.3659 58.7169 53.477 58.6623C53.588 58.6078 53.7099 58.5794 53.8336 58.5791C54.0859 58.5815 54.3327 58.6531 54.5471 58.7862C55.1949 59.1986 55.7041 59.796 56.0086 60.5009C56.1869 60.8863 56.322 61.2903 56.4114 61.7054C56.4244 61.779 56.4244 61.8543 56.4114 61.9279C56.4097 61.9601 56.4005 61.9914 56.3845 62.0194C56.3685 62.0474 56.3463 62.0713 56.3194 62.0892C56.2926 62.1071 56.262 62.1184 56.23 62.1224C56.198 62.1264 56.1656 62.1228 56.1352 62.112C56.0608 62.0925 55.994 62.0511 55.9434 61.9931C55.8415 61.8797 55.7157 61.7902 55.5751 61.7312C55.4345 61.6721 55.2825 61.645 55.1302 61.6517C55.0504 61.6567 54.9735 61.6832 54.9077 61.7284C54.8517 61.7671 54.811 61.8241 54.7926 61.8895C54.7765 62.0163 54.7874 62.145 54.8244 62.2673C54.8614 62.3895 54.9238 62.5027 55.0074 62.5992C55.0354 62.6409 55.0457 62.692 55.0359 62.7413C55.0262 62.7906 54.9973 62.834 54.9556 62.862C54.9139 62.8899 54.8628 62.9002 54.8135 62.8905C54.7643 62.8808 54.7208 62.8519 54.6929 62.8102C54.5753 62.6684 54.4905 62.5024 54.4448 62.3239C54.399 62.1455 54.3933 61.9592 54.4282 61.7783C54.4706 61.6335 54.5613 61.5076 54.6852 61.4216C54.8059 61.3354 54.9478 61.2836 55.0956 61.272C55.412 61.2509 55.7257 61.3419 55.9818 61.529C55.8924 61.2281 55.7835 60.9334 55.6557 60.6467C55.3863 60.0161 54.9332 59.4814 54.3553 59.1123C54.1994 59.0156 54.0208 58.9613 53.8374 58.955C53.7686 58.9559 53.7008 58.9722 53.639 59.0027C53.5773 59.0332 53.5232 59.0773 53.4807 59.1315C53.2739 59.4747 53.185 59.8761 53.2275 60.2746Z" fill="#D67F54"/>
<path fill-rule="evenodd" clip-rule="evenodd" d="M70.4472 40.374C77.3788 40.374 84.1992 42.104 83.9959 45.5909C83.4358 56.7153 87.4712 60.954 79.0091 75.7801C80.7966 75.4464 83.5624 75.0359 85.1658 73.7777C91.0042 69.2014 94.7366 64.4486 92.5769 54.4214C90.191 43.343 87.0301 25.6515 70.8269 30.6153L70.7195 30.5884L70.3359 40.374H70.4472Z" fill="#311600"/>
<path fill-rule="evenodd" clip-rule="evenodd" d="M71.1876 40.374C64.2598 40.374 57.4548 42.104 57.6926 45.5909C58.3639 56.7153 54.3745 60.954 62.9747 75.7801C61.1795 75.4464 58.4099 75.0359 56.795 73.7777C50.9106 69.2014 47.1321 64.4486 49.1921 54.4214C51.4668 43.343 54.4512 25.6515 70.7004 30.6153L70.8078 30.5884L71.295 40.374H71.1876Z" fill="#311600"/>
<path fill-rule="evenodd" clip-rule="evenodd" d="M87.456 52.2993C87.2259 47.7191 85.6109 33.0542 70.8731 33.0542C54.3208 33.0542 53.1777 50.1243 54.8579 52.2993C55.9281 52.798 59.2654 49.1269 71.1608 49.1269C83.2825 49.1346 87.4752 52.6829 87.456 52.2993Z" fill="#452807"/>
<path fill-rule="evenodd" clip-rule="evenodd" d="M54.4204 91.3004C53.7223 88.9988 53.6225 85.1283 53.6532 82.6195C44.5658 82.4162 38.1559 95.4049 41.2477 102.712H100.514C103.605 95.424 97.1954 82.4162 88.108 82.6195C88.1272 85.1283 88.0236 89.0141 87.3408 91.3004C85.7182 96.6055 56.0277 96.6055 54.4204 91.3004Z" fill="#7E9493"/>
<path fill-rule="evenodd" clip-rule="evenodd" d="M47.884 87.0074C47.8684 87.0271 47.8489 87.0435 47.8268 87.0556C47.8048 87.0676 47.7805 87.0751 47.7554 87.0776C47.7304 87.0801 47.7051 87.0776 47.6811 87.0701C47.657 87.0627 47.6347 87.0505 47.6155 87.0343C47.5765 87.0021 47.5519 86.9558 47.5469 86.9055C47.5418 86.8552 47.5568 86.805 47.5886 86.7657C48.3428 85.8722 49.3193 85.1935 50.4196 84.7979C51.8005 84.2877 53.1355 84.2723 53.6687 84.5524C53.6907 84.564 53.7103 84.58 53.7261 84.5993C53.742 84.6186 53.7538 84.6409 53.7609 84.6648C53.7681 84.6887 53.7704 84.7138 53.7677 84.7386C53.765 84.7635 53.7575 84.7875 53.7454 84.8094C53.7344 84.8317 53.7191 84.8515 53.7003 84.8677C53.6815 84.8839 53.6596 84.8961 53.636 84.9036C53.6123 84.9111 53.5874 84.9138 53.5627 84.9115C53.538 84.9091 53.514 84.9018 53.4922 84.8899C53.0357 84.6483 51.8312 84.6828 50.55 85.1546C49.514 85.5273 48.5945 86.1664 47.884 87.0074Z" fill="#5D706E"/>
<path fill-rule="evenodd" clip-rule="evenodd" d="M48.8928 89.0751C48.8606 89.1141 48.8143 89.1387 48.7641 89.1438C48.7138 89.1488 48.6635 89.1338 48.6243 89.102C48.5853 89.0698 48.5607 89.0235 48.5556 88.9733C48.5506 88.923 48.5656 88.8727 48.5974 88.8335C49.2202 88.0697 50.0229 87.4726 50.9335 87.0958C51.8242 86.7107 52.8018 86.5716 53.7645 86.693C53.8142 86.7023 53.8583 86.7309 53.8871 86.7726C53.9158 86.8143 53.9269 86.8657 53.9179 86.9155C53.9138 86.94 53.9048 86.9634 53.8915 86.9844C53.8782 87.0054 53.8609 87.0235 53.8406 87.0378C53.8203 87.0521 53.7973 87.0622 53.7731 87.0675C53.7488 87.0728 53.7237 87.0733 53.6993 87.0689C52.8073 86.9583 51.9021 87.0909 51.0793 87.4525C50.2276 87.8045 49.4764 88.3619 48.8928 89.0751Z" fill="#5D706E"/>
<path fill-rule="evenodd" clip-rule="evenodd" d="M94.1574 86.7657C94.1892 86.805 94.2043 86.8552 94.1992 86.9055C94.1942 86.9558 94.1695 87.0021 94.1306 87.0342C94.0913 87.066 94.0411 87.0811 93.9908 87.076C93.9405 87.071 93.8943 87.0463 93.8621 87.0074C93.1515 86.1664 92.232 85.5273 91.1961 85.1546C89.9149 84.6828 88.7142 84.6483 88.2539 84.8899C88.2321 84.9018 88.2081 84.9091 88.1834 84.9115C88.1587 84.9138 88.1338 84.9111 88.1101 84.9036C88.0865 84.8961 88.0646 84.8839 88.0458 84.8677C88.027 84.8515 88.0116 84.8317 88.0007 84.8094C87.9886 84.7875 87.981 84.7635 87.9784 84.7386C87.9757 84.7138 87.978 84.6887 87.9852 84.6648C87.9923 84.6409 88.0041 84.6186 88.02 84.5993C88.0358 84.58 88.0553 84.564 88.0774 84.5524C88.6106 84.2723 89.9455 84.2877 91.3265 84.7979C92.4268 85.1935 93.4033 85.8722 94.1574 86.7657Z" fill="#5D706E"/>
<path fill-rule="evenodd" clip-rule="evenodd" d="M93.1484 88.8344C93.1642 88.8535 93.1762 88.8756 93.1835 88.8994C93.1908 88.9231 93.1934 88.9481 93.1911 88.9728C93.1888 88.9976 93.1816 89.0217 93.17 89.0436C93.1584 89.0656 93.1426 89.0851 93.1234 89.101C93.1043 89.1168 93.0822 89.1288 93.0584 89.1361C93.0347 89.1435 93.0097 89.146 92.985 89.1437C92.9602 89.1414 92.9361 89.1342 92.9142 89.1226C92.8922 89.111 92.8727 89.0952 92.8568 89.076C92.2715 88.3621 91.5192 87.8035 90.6665 87.4496C89.8437 87.088 88.9384 86.9554 88.0465 87.066C88.0221 87.0704 87.997 87.0699 87.9727 87.0646C87.9485 87.0592 87.9255 87.0491 87.9052 87.0349C87.8849 87.0206 87.8676 87.0024 87.8543 86.9814C87.841 86.9605 87.832 86.937 87.8279 86.9126C87.8189 86.8627 87.83 86.8114 87.8587 86.7697C87.8875 86.728 87.9315 86.6994 87.9813 86.6901C88.944 86.5687 89.9216 86.7078 90.8123 87.0928C91.7233 87.4707 92.526 88.0692 93.1484 88.8344Z" fill="#5D706E"/>
<path fill-rule="evenodd" clip-rule="evenodd" d="M51.0181 94.8332C51.0181 94.7579 51.048 94.6857 51.1012 94.6325C51.1544 94.5792 51.2267 94.5493 51.3019 94.5493C51.3772 94.5493 51.4494 94.5792 51.5027 94.6325C51.5559 94.6857 51.5858 94.7579 51.5858 94.8332L51.5168 102.712C51.5086 102.782 51.475 102.847 51.4223 102.894C51.3696 102.941 51.3015 102.967 51.231 102.967C51.1604 102.967 51.0923 102.941 51.0396 102.894C50.9869 102.847 50.9533 102.782 50.9452 102.712L51.0181 94.8332Z" fill="#5D706E"/>
<path fill-rule="evenodd" clip-rule="evenodd" d="M90.2294 94.8331C90.2248 94.7928 90.2287 94.7519 90.2409 94.7132C90.2531 94.6745 90.2734 94.6389 90.3004 94.6086C90.3274 94.5782 90.3605 94.554 90.3975 94.5374C90.4345 94.5208 90.4746 94.5122 90.5152 94.5122C90.5558 94.5122 90.5959 94.5208 90.633 94.5374C90.67 94.554 90.7031 94.5782 90.7301 94.6086C90.7571 94.6389 90.7773 94.6745 90.7896 94.7132C90.8018 94.7519 90.8057 94.7928 90.801 94.8331L90.7281 102.712C90.7287 102.749 90.7217 102.786 90.7075 102.821C90.6934 102.855 90.6724 102.887 90.6459 102.913C90.6194 102.939 90.5879 102.959 90.5532 102.973C90.5186 102.987 90.4815 102.993 90.4443 102.992C90.369 102.992 90.2968 102.962 90.2435 102.909C90.1903 102.856 90.1604 102.784 90.1604 102.708L90.2294 94.8331Z" fill="#5D706E"/>
<path fill-rule="evenodd" clip-rule="evenodd" d="M59.7795 49.3117C59.7805 49.3365 59.7765 49.3613 59.7677 49.3845C59.7589 49.4077 59.7455 49.429 59.7283 49.4469C59.7111 49.4648 59.6905 49.479 59.6676 49.4888C59.6448 49.4985 59.6202 49.5035 59.5954 49.5035C59.5448 49.5035 59.4961 49.484 59.4597 49.4489C59.4232 49.4139 59.4017 49.3661 59.3997 49.3155C59.3575 45.89 59.4688 43.1127 60.2091 40.7728C60.9495 38.4329 62.3342 36.5072 64.8123 34.85C64.8331 34.8333 64.8571 34.8211 64.8829 34.8142C64.9087 34.8073 64.9356 34.8058 64.962 34.8099C64.9883 34.814 65.0136 34.8235 65.036 34.8379C65.0585 34.8523 65.0777 34.8712 65.0925 34.8935C65.1072 34.9157 65.1172 34.9408 65.1217 34.9671C65.1262 34.9934 65.1251 35.0204 65.1186 35.0462C65.1121 35.0721 65.1002 35.0964 65.0838 35.1174C65.0674 35.1384 65.0468 35.1558 65.0233 35.1684C62.6143 36.7719 61.2793 38.6208 60.562 40.8879C59.8447 43.1549 59.7488 45.9245 59.7795 49.3117Z" fill="#5E422E"/>
<path fill-rule="evenodd" clip-rule="evenodd" d="M65.729 48.5061C65.729 48.557 65.7088 48.6058 65.6728 48.6417C65.6368 48.6777 65.588 48.6979 65.5372 48.6979C65.4863 48.6979 65.4375 48.6777 65.4016 48.6417C65.3656 48.6058 65.3454 48.557 65.3454 48.5061C65.3185 45.0844 65.3914 42.311 65.8939 39.9787C66.3054 37.7325 67.3983 35.6673 69.0241 34.0637C69.0614 34.0365 69.1073 34.0236 69.1533 34.0275C69.1994 34.0315 69.2424 34.0519 69.2746 34.085C69.3068 34.1181 69.326 34.1617 69.3286 34.2079C69.3312 34.254 69.317 34.2995 69.2888 34.336C67.7174 35.8891 66.6632 37.889 66.2699 40.0631C65.775 42.3647 65.7021 45.1151 65.729 48.5061Z" fill="#5E422E"/>
<path fill-rule="evenodd" clip-rule="evenodd" d="M82.3465 49.3152C82.3446 49.3651 82.3236 49.4124 82.288 49.4473C82.2523 49.4823 82.2047 49.5023 82.1547 49.5032C82.1297 49.5032 82.105 49.4982 82.0819 49.4885C82.0589 49.4789 82.038 49.4647 82.0205 49.4468C82.003 49.4289 81.9892 49.4078 81.98 49.3845C81.9707 49.3613 81.9663 49.3364 81.9668 49.3114C82.009 45.9242 81.9016 43.1738 81.1766 40.8723C80.4516 38.5707 79.1205 36.7562 76.7115 35.1528C76.688 35.1402 76.6673 35.1228 76.6509 35.1018C76.6345 35.0807 76.6227 35.0565 76.6162 35.0306C76.6096 35.0047 76.6086 34.9778 76.6131 34.9515C76.6176 34.9252 76.6275 34.9001 76.6423 34.8778C76.657 34.8556 76.6762 34.8367 76.6987 34.8223C76.7212 34.8079 76.7464 34.7983 76.7728 34.7943C76.7992 34.7902 76.8261 34.7916 76.8519 34.7985C76.8776 34.8055 76.9017 34.8177 76.9225 34.8344C79.412 36.4916 80.793 38.398 81.5256 40.7572C82.2583 43.1163 82.3811 45.8897 82.3465 49.3152Z" fill="#5E422E"/>
<path fill-rule="evenodd" clip-rule="evenodd" d="M76.397 48.5097C76.397 48.5606 76.3768 48.6094 76.3408 48.6453C76.3049 48.6813 76.2561 48.7015 76.2052 48.7015C76.1543 48.7015 76.1056 48.6813 76.0696 48.6453C76.0336 48.6094 76.0134 48.5606 76.0134 48.5097C76.0441 45.1187 75.9674 42.3721 75.4764 40.0706C75.0776 37.8978 74.0211 35.9 72.4498 34.3473C72.4276 34.3311 72.4091 34.3103 72.3956 34.2864C72.3822 34.2625 72.374 34.2359 72.3717 34.2085C72.3693 34.1812 72.3729 34.1536 72.3822 34.1278C72.3914 34.1019 72.4061 34.0783 72.4252 34.0586C72.4444 34.0389 72.4675 34.0236 72.4931 34.0136C72.5187 34.0036 72.5461 33.9992 72.5736 34.0008C72.601 34.0023 72.6278 34.0098 72.6521 34.0225C72.6764 34.0353 72.6977 34.0532 72.7145 34.0749C74.3429 35.6757 75.4408 37.7377 75.86 39.9823C76.351 42.3261 76.4277 45.088 76.397 48.5097Z" fill="#5E422E"/>
<path fill-rule="evenodd" clip-rule="evenodd" d="M12.8584 56.3083C12.7932 55.5833 9.8165 54.7202 8.82298 57.1024C7.82946 59.4845 9.61702 62.8564 12.9927 63.1249C16.3683 63.3934 15.3748 62.795 15.3748 62.795L12.8584 56.3083Z" fill="#E4AE7C"/>
<path fill-rule="evenodd" clip-rule="evenodd" d="M42.8982 56.3083C42.9634 55.5833 45.9439 54.7202 46.9336 57.1024C47.9233 59.4845 46.1396 62.8564 42.7639 63.1249C39.3882 63.3934 40.3818 62.795 40.3818 62.795L42.8982 56.3083Z" fill="#E4AE7C"/>
<path fill-rule="evenodd" clip-rule="evenodd" d="M27.838 102.712H0.602591C0.28804 88.7876 11.0019 80.7051 20.2006 77.6901C20.9486 73.8042 20.7568 68.7676 20.7568 68.7676H34.9116C34.9116 68.7676 34.7198 73.8042 35.4678 77.6901C44.6741 80.7051 55.3765 88.7876 55.062 102.712H27.838Z" fill="#E4AE7C"/>
<path fill-rule="evenodd" clip-rule="evenodd" d="M34.9154 68.7676C34.9154 68.7676 34.8771 69.7649 34.9154 71.2149C32.2302 77.9701 23.8832 78.7296 20.7837 71.495C20.8182 69.8954 20.7837 68.7676 20.7837 68.7676H34.9154Z" fill="#D67F54"/>
<path fill-rule="evenodd" clip-rule="evenodd" d="M55.9871 102.115C56.3093 88.3664 45.518 80.9086 36.0853 77.8052C32.1113 86.628 23.5033 86.4093 19.6635 77.7822C10.2155 80.851 -0.651162 88.3089 -0.32894 102.118L55.9871 102.115Z" fill="#81261C"/>
<path fill-rule="evenodd" clip-rule="evenodd" d="M46.5308 83.3714C46.2853 83.1757 46.0359 82.9878 45.7866 82.7998H32.3108C32.0322 83.0075 31.7414 83.1984 31.44 83.3714H46.5308ZM24.3281 83.3714C24.0267 83.1984 23.736 83.0075 23.4574 82.7998H9.88951C9.63634 82.9878 9.39083 83.1834 9.12231 83.3714H24.3281Z" fill="#6C1A0D"/>
<path fill-rule="evenodd" clip-rule="evenodd" d="M51.7322 88.7415L51.3064 88.1699H4.3694C4.22363 88.3579 4.0817 88.5535 3.9436 88.7415H51.7322Z" fill="#6C1A0D"/>
<path fill-rule="evenodd" clip-rule="evenodd" d="M54.6055 94.1116C54.5326 93.9198 54.4597 93.728 54.383 93.54H1.28921C1.21632 93.728 1.1396 93.9236 1.07056 94.1116H54.6055Z" fill="#6C1A0D"/>
<path fill-rule="evenodd" clip-rule="evenodd" d="M55.8637 99.5096C55.8407 99.3178 55.8215 99.126 55.7946 98.938H-0.118574C-0.145426 99.126 -0.168442 99.3216 -0.187622 99.5096H55.8637Z" fill="#6C1A0D"/>
<path fill-rule="evenodd" clip-rule="evenodd" d="M3.83242 88.8989C3.63679 89.179 3.44883 89.459 3.26086 89.7467V102.712H3.83242V88.8989Z" fill="#6C1A0D"/>
<path fill-rule="evenodd" clip-rule="evenodd" d="M9.21817 83.3022C9.02253 83.4518 8.83457 83.6053 8.64661 83.7626V102.712H9.21817V83.3022Z" fill="#6C1A0D"/>
<path fill-rule="evenodd" clip-rule="evenodd" d="M14.5999 79.8848L14.0283 80.1801V102.713H14.5999V79.8848Z" fill="#6C1A0D"/>
<path fill-rule="evenodd" clip-rule="evenodd" d="M19.9818 78.4535C19.8744 78.2349 19.767 78.0124 19.6635 77.7822L19.4103 77.8666V102.712H19.9818V78.4535Z" fill="#6C1A0D"/>
<path fill-rule="evenodd" clip-rule="evenodd" d="M52.4113 89.7467C52.2272 89.459 52.0277 89.179 51.8397 88.8989V102.708H52.4113V89.7467Z" fill="#6C1A0D"/>
<path fill-rule="evenodd" clip-rule="evenodd" d="M47.0294 83.7547C46.8415 83.5975 46.6458 83.444 46.4579 83.2944V102.704H47.0294V83.7547Z" fill="#6C1A0D"/>
<path fill-rule="evenodd" clip-rule="evenodd" d="M41.6476 80.184C41.4558 80.0804 41.264 79.9807 41.076 79.8848V102.713H41.6476V80.184Z" fill="#6C1A0D"/>
<path fill-rule="evenodd" clip-rule="evenodd" d="M36.2581 77.867L36.0816 77.8057C35.9537 78.0844 35.8259 78.3568 35.698 78.6227V102.713H36.2581V77.867Z" fill="#6C1A0D"/>
<path fill-rule="evenodd" clip-rule="evenodd" d="M34.5972 80.4175C30.8072 85.6959 24.8653 85.5923 21.1444 80.3945L19.7634 80.9277L23.3884 87.9322V102.712H32.2726V87.9322L35.8937 80.9277L34.5972 80.4175Z" fill="#261D1B"/>
<path fill-rule="evenodd" clip-rule="evenodd" d="M27.8381 72.3546C10.2808 72.7765 1.41202 29.476 27.8381 30.5885C54.2603 29.476 45.3953 72.7765 27.8381 72.3546Z" fill="#E4AE7C"/>
<path fill-rule="evenodd" clip-rule="evenodd" d="M21.9382 51.456C22.19 51.6385 22.3821 51.8915 22.4901 52.183C22.5982 52.4746 22.6174 52.7917 22.5453 53.0941C22.4732 53.3966 22.3131 53.6709 22.0852 53.8824C21.8572 54.0939 21.5717 54.2331 21.2647 54.2824C20.9577 54.3317 20.643 54.2889 20.3603 54.1594C20.0776 54.0299 19.8396 53.8195 19.6765 53.5547C19.5134 53.29 19.4323 52.9829 19.4437 52.6722C19.455 52.3614 19.5582 52.061 19.7402 51.8089C19.8609 51.6409 20.0137 51.4984 20.1897 51.3896C20.3657 51.2808 20.5615 51.2079 20.7658 51.1751C20.9701 51.1423 21.1789 51.1502 21.3801 51.1985C21.5813 51.2467 21.771 51.3342 21.9382 51.456Z" fill="#20201E"/>
<path fill-rule="evenodd" clip-rule="evenodd" d="M33.8335 51.456C33.5817 51.6385 33.3896 51.8915 33.2816 52.183C33.1736 52.4746 33.1544 52.7917 33.2264 53.0941C33.2985 53.3966 33.4586 53.6709 33.6866 53.8824C33.9145 54.0939 34.2 54.2331 34.507 54.2824C34.814 54.3317 35.1288 54.2889 35.4114 54.1594C35.6941 54.0299 35.9321 53.8195 36.0952 53.5547C36.2584 53.29 36.3394 52.9829 36.328 52.6722C36.3167 52.3614 36.2135 52.061 36.0315 51.8089C35.9108 51.6409 35.758 51.4984 35.582 51.3896C35.406 51.2808 35.2102 51.2079 35.0059 51.1751C34.8016 51.1423 34.5929 51.1502 34.3916 51.1985C34.1904 51.2467 34.0007 51.3342 33.8335 51.456Z" fill="#20201E"/>
<path fill-rule="evenodd" clip-rule="evenodd" d="M19.9973 57.1641C20.8949 57.8546 20.9333 58.8596 20.0855 59.4159C19.2377 59.9721 17.8261 59.8608 16.9285 59.1742C16.0309 58.4875 15.9925 57.4787 16.8403 56.9225C17.688 56.3663 19.1035 56.4775 19.9973 57.1641Z" fill="#DA9077"/>
<path fill-rule="evenodd" clip-rule="evenodd" d="M35.7747 57.1641C34.8771 57.8546 34.8387 58.8596 35.6865 59.4159C36.5342 59.9721 37.9497 59.8608 38.8435 59.1742C39.7373 58.4875 39.7794 57.4787 38.9317 56.9225C38.0839 56.3663 36.6723 56.4775 35.7747 57.1641Z" fill="#DA9077"/>
<path fill-rule="evenodd" clip-rule="evenodd" d="M22.625 47.1868L22.4485 47.1139C21.8065 46.8773 21.1195 46.7882 20.4384 46.8531C19.7775 46.9076 19.1368 47.1081 18.5626 47.44C18.2788 47.6241 17.1702 48.5217 17.4847 48.8516C17.6152 48.8862 18.7161 48.3223 19.0421 48.2187C19.5111 48.0728 20.0013 48.0067 20.4921 48.0231C20.9471 48.0357 21.3963 48.1279 21.8194 48.2954C21.8573 48.3088 21.8944 48.3242 21.9306 48.3415C22.8551 48.7903 22.7707 49.0818 23.4037 48.6483C24.3665 48.1305 23.3768 47.5743 22.625 47.1868Z" fill="#3F2716"/>
<path fill-rule="evenodd" clip-rule="evenodd" d="M33.0473 47.1864L33.2276 47.1135C33.8682 46.8768 34.5539 46.7877 35.2338 46.8526C35.8961 46.9066 36.5381 47.1071 37.1134 47.4395C37.3973 47.6237 38.502 48.5213 38.1913 48.8512C38.0609 48.8857 36.9561 48.3218 36.6339 48.2183C36.1649 48.0724 35.6748 48.0062 35.1839 48.0226C34.7289 48.0345 34.2796 48.1267 33.8567 48.295C33.8188 48.3084 33.7817 48.3237 33.7454 48.341C32.8171 48.7898 32.9015 49.0813 32.2724 48.6479C31.2981 48.13 32.2993 47.5738 33.0473 47.1864Z" fill="#3F2716"/>
<path fill-rule="evenodd" clip-rule="evenodd" d="M23.2847 60.8393C24.8983 60.8188 26.512 60.8086 28.1257 60.8086C29.7393 60.8086 31.353 60.8188 32.9667 60.8393C32.9667 63.3787 30.4656 64.2917 28.1333 64.2917C25.7857 64.284 23.2847 63.3787 23.2847 60.8393Z" fill="white"/>
<path fill-rule="evenodd" clip-rule="evenodd" d="M27.0132 65.7992C26.9913 65.7869 26.972 65.7703 26.9566 65.7504C26.9412 65.7305 26.9299 65.7077 26.9235 65.6834C26.9171 65.6591 26.9156 65.6337 26.9191 65.6088C26.9227 65.5839 26.9312 65.5599 26.9442 65.5384C26.9698 65.4948 27.0115 65.4632 27.0604 65.4502C27.1092 65.4373 27.1612 65.4442 27.205 65.4693C27.4891 65.6256 27.8091 65.705 28.1333 65.6995C28.4522 65.7053 28.767 65.6272 29.0463 65.4732C29.089 65.4472 29.1403 65.4393 29.1888 65.4512C29.2374 65.4631 29.2793 65.4937 29.3052 65.5365C29.3311 65.5792 29.3391 65.6305 29.3272 65.679C29.3153 65.7276 29.2846 65.7695 29.2419 65.7954C28.9049 65.9891 28.522 66.0885 28.1333 66.0831C27.7417 66.0872 27.3557 65.9893 27.0132 65.7992Z" fill="#D67F54"/>
<path fill-rule="evenodd" clip-rule="evenodd" d="M27.6922 57.3559C27.6413 57.3559 27.5925 57.3357 27.5565 57.2998C27.5206 57.2638 27.5004 57.215 27.5004 57.1641C27.5004 57.1133 27.5206 57.0645 27.5565 57.0285C27.5925 56.9925 27.6413 56.9723 27.6922 56.9723C28.169 56.9836 28.646 56.9592 29.1191 56.8995C29.4644 56.8381 29.7214 56.746 29.7214 56.5887C29.7214 56.0402 29.1652 52.6338 29.1652 52.6262C29.1574 52.5764 29.1695 52.5255 29.199 52.4846C29.2284 52.4437 29.2728 52.416 29.3225 52.4075C29.3469 52.4037 29.3718 52.4048 29.3959 52.4106C29.4199 52.4164 29.4425 52.427 29.4625 52.4416C29.4825 52.4562 29.4993 52.4746 29.5122 52.4957C29.525 52.5169 29.5335 52.5404 29.5373 52.5648C29.5373 52.5648 30.1012 56.0172 30.1012 56.5887C30.1012 56.9723 29.7176 57.1833 29.1805 57.2715C28.6874 57.3384 28.1897 57.3666 27.6922 57.3559Z" fill="#D67F54"/>
<path fill-rule="evenodd" clip-rule="evenodd" d="M45.8479 58.986C45.8479 59.0369 45.8277 59.0857 45.7917 59.1217C45.7557 59.1576 45.7069 59.1778 45.6561 59.1778C45.6052 59.1778 45.5564 59.1576 45.5205 59.1217C45.4845 59.0857 45.4643 59.0369 45.4643 58.986C45.5042 58.5843 45.4127 58.1805 45.2034 57.8352C45.1615 57.7804 45.1076 57.7359 45.0457 57.7053C44.9838 57.6747 44.9157 57.6588 44.8467 57.6588C44.6633 57.6651 44.4848 57.7193 44.3288 57.8161C43.751 58.1852 43.2978 58.7199 43.0284 59.3504C42.9006 59.6371 42.7917 59.9318 42.7024 60.2327C42.9584 60.0457 43.2721 59.9547 43.5885 59.9757C43.7362 59.988 43.878 60.0396 43.9989 60.1253C44.1229 60.2113 44.2136 60.3373 44.2559 60.4821C44.2897 60.663 44.2835 60.849 44.2378 61.0273C44.1921 61.2055 44.1079 61.3716 43.9913 61.5139C43.9604 61.5493 43.9176 61.5721 43.8711 61.578C43.8245 61.584 43.7774 61.5726 43.7386 61.5462C43.6999 61.5197 43.6721 61.4799 43.6607 61.4344C43.6493 61.3889 43.655 61.3407 43.6767 61.2991C43.7608 61.2028 43.8234 61.0898 43.8605 60.9674C43.8975 60.8451 43.9081 60.7162 43.8915 60.5895C43.8718 60.5257 43.8313 60.4703 43.7765 60.4322C43.7076 60.3873 43.6283 60.3609 43.5463 60.3555C43.3948 60.3511 43.2442 60.3794 43.1045 60.4383C42.9649 60.4972 42.8395 60.5854 42.7369 60.6969C42.6858 60.7569 42.6175 60.7998 42.5413 60.8196C42.5111 60.8297 42.4791 60.8327 42.4476 60.8284C42.4161 60.8241 42.386 60.8125 42.3597 60.7947C42.3333 60.7769 42.3115 60.7533 42.2957 60.7257C42.28 60.6981 42.2708 60.6672 42.2689 60.6355C42.2559 60.5632 42.2559 60.4892 42.2689 60.4169C42.3583 60.0017 42.4934 59.5978 42.6717 59.2124C42.9762 58.5074 43.4854 57.9101 44.1332 57.4977C44.3476 57.3646 44.5944 57.2929 44.8467 57.2905C44.9704 57.2908 45.0923 57.3193 45.2033 57.3738C45.3143 57.4283 45.4115 57.5074 45.4873 57.6051C45.7591 58.0119 45.8861 58.4983 45.8479 58.986Z" fill="#D67F54"/>
<path fill-rule="evenodd" clip-rule="evenodd" d="M10.2 58.986C10.2 59.0369 10.1798 59.0857 10.1438 59.1217C10.1079 59.1576 10.0591 59.1778 10.0082 59.1778C9.95735 59.1778 9.90856 59.1576 9.87259 59.1217C9.83662 59.0857 9.81642 59.0369 9.81642 58.986C9.77572 58.5002 9.89712 58.0146 10.1617 57.6051C10.2385 57.5075 10.3363 57.4286 10.4479 57.3741C10.5595 57.3196 10.6819 57.2911 10.8061 57.2905C11.0572 57.293 11.3027 57.3647 11.5158 57.4977C12.1659 57.9084 12.6767 58.5061 12.9811 59.2124C13.151 59.5992 13.2796 60.003 13.3647 60.4168C13.3758 60.4893 13.3758 60.563 13.3647 60.6355C13.363 60.6677 13.3538 60.699 13.3378 60.727C13.3218 60.755 13.2996 60.7789 13.2728 60.7968C13.2459 60.8147 13.2153 60.826 13.1833 60.83C13.1513 60.834 13.1189 60.8304 13.0885 60.8196C13.0143 60.7976 12.9478 60.7551 12.8967 60.6969C12.7937 60.5849 12.6677 60.4964 12.5273 60.4375C12.387 60.3785 12.2356 60.3506 12.0835 60.3555C12.0027 60.3641 11.9252 60.3917 11.8572 60.436C11.8044 60.4753 11.7654 60.5304 11.7459 60.5933C11.7283 60.7201 11.7384 60.8492 11.7755 60.9717C11.8126 61.0942 11.8758 61.2072 11.9607 61.303C11.9885 61.3452 11.9984 61.3968 11.9884 61.4464C11.9783 61.4959 11.9491 61.5395 11.907 61.5676C11.8649 61.5948 11.814 61.6048 11.7647 61.5955C11.7155 61.5862 11.6717 61.5584 11.6423 61.5178C11.5261 61.3753 11.4425 61.2091 11.3974 61.0308C11.3524 60.8525 11.3469 60.6665 11.3815 60.4859C11.4239 60.3411 11.5146 60.2152 11.6385 60.1292C11.7588 60.0423 11.9009 59.9905 12.049 59.9795C12.3653 59.9585 12.679 60.0495 12.9351 60.2366C12.8457 59.9357 12.7368 59.6409 12.609 59.3543C12.3397 58.7237 11.8865 58.189 11.3086 57.8199C11.1513 57.723 10.9715 57.6688 10.7869 57.6626C10.7184 57.6626 10.6509 57.6786 10.5896 57.7092C10.5284 57.7398 10.4751 57.7843 10.434 57.8391C10.2331 58.1857 10.1509 58.5884 10.2 58.986Z" fill="#D67F54"/>
<path fill-rule="evenodd" clip-rule="evenodd" d="M27.9685 37.8228C27.9685 46.2619 34.0408 44.6547 37.6965 46.6455C40.4354 48.1339 40.0403 48.3065 40.796 51.3446C41.4865 54.1372 41.7396 58.5141 42.1041 60.0139C47.6164 46.3655 49.9103 39.9824 42.4416 33.983C37.9765 30.3963 34.7927 23.2768 27.9493 28.954C18.812 24.2856 17.9758 30.4193 13.4953 33.983C7.34626 38.8738 6.79771 43.7379 8.53924 48.8474C9.30644 51.0569 13.7217 59.6342 14.1359 60.877C14.6998 55.1768 14.3392 50.2015 16.1306 48.249C17.7801 46.4576 21.2939 46.2082 23.1773 45.0268C26.5108 42.9515 27.9685 40.2932 27.9685 37.8228Z" fill="#4E2C0B"/>
<path fill-rule="evenodd" clip-rule="evenodd" d="M41.9045 58.8713V58.8905V58.9749V59.0363V59.1782V59.2664V59.3585V59.4429C41.9045 59.4429 42.0119 59.5119 41.9045 58.8713ZM41.9045 58.8713C41.6283 56.9035 41.356 53.6007 40.7959 51.3375C40.0287 48.2994 40.4354 48.1268 37.6965 46.6384C34.0408 44.6552 27.9684 46.274 27.9684 37.8157C27.9684 40.286 26.5108 42.9444 23.1773 45.0311C21.2938 46.2126 17.7801 46.4619 16.1306 48.2533C14.3392 50.2059 14.6998 55.1811 14.1359 60.8814C13.7216 59.6385 9.29105 51.0613 8.5392 48.8518C7.85249 46.9946 7.57763 45.0103 7.73364 43.0364C8.56989 43.6655 10.5684 44.0453 11.4584 44.2256C13.3764 44.6092 15.4631 44.1028 17.454 43.2896C21.8884 41.4752 25.3139 40.5699 26.7217 36.7416C28.1295 32.9133 28.1334 32.7368 28.1334 32.7368C28.1334 32.7368 28.4364 39.9907 36.2925 42.0045C39.5147 42.8293 42.1424 43.4545 44.0834 43.4622C45.1366 43.3076 46.1747 43.0638 47.1867 42.7334C48.372 48.8709 45.2035 52.3463 42.1385 59.9377C42.1231 59.9641 42.1115 59.9925 42.104 60.0221C42.104 59.9761 42.0848 59.9301 42.0733 59.8802V59.8112C42.0715 59.7843 42.0715 59.7574 42.0733 59.7306V59.6462L41.9045 58.8713Z" fill="#452813"/>
<path fill-rule="evenodd" clip-rule="evenodd" d="M20.6301 73.9233L23.3958 87.9323C22.7974 87.0462 21.1748 84.9441 19.6481 84.9441C18.6776 84.9441 15.0027 86.935 15.0449 86.7125C15.9732 78.9408 17.9526 75.7378 20.6301 73.9233Z" fill="#632421"/>
<path fill-rule="evenodd" clip-rule="evenodd" d="M34.9728 73.9233L32.207 87.9323C32.8054 87.0462 34.4281 84.9441 35.9548 84.9441C36.9253 84.9441 40.6002 86.935 40.558 86.7125C39.6297 78.9408 37.6503 75.7378 34.9728 73.9233Z" fill="#632421"/>
<path fill-rule="evenodd" clip-rule="evenodd" d="M7.98292 94.8332C7.98292 94.7579 8.01283 94.6857 8.06606 94.6325C8.1193 94.5792 8.1915 94.5493 8.26678 94.5493C8.34242 94.5503 8.41461 94.5811 8.46774 94.6349C8.52087 94.6888 8.55065 94.7614 8.55064 94.837L8.48159 102.716C8.47346 102.786 8.43985 102.851 8.38716 102.898C8.33447 102.945 8.26638 102.971 8.19582 102.971C8.12526 102.971 8.05716 102.945 8.00447 102.898C7.95178 102.851 7.91817 102.786 7.91003 102.716L7.98292 94.8332Z" fill="#581200"/>
<path fill-rule="evenodd" clip-rule="evenodd" d="M47.1945 94.8332C47.1955 94.7575 47.2263 94.6853 47.2801 94.6322C47.334 94.5791 47.4066 94.5493 47.4822 94.5493C47.5197 94.5493 47.5567 94.5568 47.5912 94.5713C47.6257 94.5859 47.6569 94.6072 47.683 94.634C47.7091 94.6609 47.7296 94.6926 47.7432 94.7275C47.7568 94.7624 47.7633 94.7996 47.7623 94.837L47.6932 102.716C47.6932 102.791 47.6633 102.864 47.6101 102.917C47.5568 102.97 47.4846 103 47.4094 103C47.3341 103 47.2619 102.97 47.2086 102.917C47.1554 102.864 47.1255 102.791 47.1255 102.716L47.1945 94.8332Z" fill="#581200"/>
<path fill-rule="evenodd" clip-rule="evenodd" d="M25.3255 33.4615C25.33 33.437 25.3395 33.4136 25.3532 33.3928C25.3669 33.3719 25.3846 33.354 25.4053 33.3401C25.426 33.3262 25.4493 33.3165 25.4738 33.3117C25.4983 33.3068 25.5235 33.3069 25.5479 33.3119C25.5977 33.3213 25.6418 33.3499 25.6705 33.3916C25.6992 33.4332 25.7103 33.4846 25.7014 33.5344C25.4188 35.2372 24.7524 36.8533 23.7527 38.2603C22.6479 39.7372 20.9793 41.0184 18.4207 41.8393C13.3342 43.4658 11.4776 43.0553 11.4737 43.0515C11.4492 43.0469 11.4258 43.0375 11.405 43.0238C11.3841 43.01 11.3662 42.9923 11.3523 42.9716C11.3384 42.9509 11.3287 42.9276 11.3239 42.9031C11.319 42.8786 11.3191 42.8534 11.3241 42.829C11.3343 42.7799 11.3633 42.7368 11.4049 42.7089C11.4465 42.6809 11.4973 42.6703 11.5466 42.6794C11.5466 42.6794 13.315 43.063 18.3018 41.4787C20.7798 40.6847 22.3871 39.4495 23.4458 38.0263C24.4128 36.6683 25.0558 35.1067 25.3255 33.4615Z" fill="#5E422E"/>
<path fill-rule="evenodd" clip-rule="evenodd" d="M11.0746 41.0871C11.0636 41.1094 11.0483 41.1292 11.0296 41.1455C11.0109 41.1618 10.9891 41.1742 10.9656 41.182C10.9421 41.1899 10.9172 41.193 10.8925 41.1912C10.8677 41.1894 10.8436 41.1827 10.8214 41.1715C10.7772 41.1485 10.7437 41.1093 10.728 41.062C10.7122 41.0148 10.7155 40.9632 10.737 40.9183C11.343 39.7894 12.2113 38.8225 13.2688 38.0989C14.4399 37.2732 15.701 36.5834 17.028 36.0428C18.4934 35.4175 19.1762 33.9867 19.7976 32.6902C20.304 31.6314 20.7681 30.6571 21.5929 30.2083C23.4571 29.1956 26.3648 31.1174 26.3725 31.1213C26.4145 31.1494 26.4438 31.193 26.4538 31.2425C26.4639 31.2921 26.4539 31.3436 26.4262 31.3859C26.4126 31.4066 26.3951 31.4244 26.3746 31.4383C26.3542 31.4522 26.3311 31.462 26.3069 31.467C26.2827 31.4719 26.2577 31.4721 26.2334 31.4674C26.2091 31.4627 26.186 31.4533 26.1653 31.4396C26.1653 31.4396 23.438 29.6406 21.777 30.542C21.0597 30.9256 20.6262 31.8501 20.139 32.8436C19.4907 34.2015 18.7734 35.7014 17.1776 36.3804C15.8773 36.9114 14.6407 37.587 13.4913 38.3943C12.4834 39.0874 11.655 40.0104 11.0746 41.0871Z" fill="#5E422E"/>
<path fill-rule="evenodd" clip-rule="evenodd" d="M30.1626 33.5339C30.1529 33.4831 30.1639 33.4304 30.193 33.3876C30.2222 33.3448 30.2671 33.3153 30.318 33.3057C30.3688 33.296 30.4215 33.307 30.4643 33.3361C30.5071 33.3652 30.5365 33.4102 30.5462 33.461C30.8159 35.1068 31.4574 36.6693 32.422 38.0297C33.4846 39.449 35.1072 40.6842 37.5661 41.4821C42.5452 43.0932 44.3135 42.6827 44.3135 42.6789C44.3628 42.6698 44.4137 42.6804 44.4553 42.7084C44.4968 42.7363 44.5258 42.7794 44.536 42.8285C44.541 42.8529 44.5411 42.8781 44.5363 42.9026C44.5315 42.9271 44.5218 42.9504 44.5079 42.9711C44.4939 42.9918 44.476 43.0095 44.4552 43.0233C44.4343 43.037 44.411 43.0464 44.3864 43.051C44.3864 43.051 42.526 43.4653 37.4433 41.8388C34.8809 41.0179 33.2237 39.7367 32.1113 38.2598C31.11 36.8537 30.4435 35.2372 30.1626 33.5339Z" fill="#5E422E"/>
<path fill-rule="evenodd" clip-rule="evenodd" d="M45.1229 40.9185C45.1347 40.9405 45.1418 40.9647 45.1439 40.9896C45.1459 41.0145 45.1429 41.0395 45.1351 41.0632C45.1272 41.0869 45.1145 41.1087 45.0979 41.1273C45.0814 41.146 45.0611 41.1611 45.0385 41.1717C45.0164 41.1829 44.9923 41.1895 44.9675 41.1914C44.9428 41.1932 44.9179 41.1901 44.8944 41.1822C44.8708 41.1744 44.8491 41.1619 44.8304 41.1456C44.8117 41.1294 44.7964 41.1095 44.7854 41.0873C44.205 40.0126 43.3765 39.092 42.3687 38.4021C41.2206 37.5948 39.9853 36.9193 38.6862 36.3882C37.0866 35.7092 36.3846 34.2094 35.721 32.8514C35.2415 31.8464 34.8003 30.9334 34.0868 30.5499C32.422 29.6484 29.7061 31.4436 29.6985 31.4475C29.6777 31.4642 29.6536 31.4764 29.6279 31.4833C29.6021 31.4903 29.5752 31.4917 29.5488 31.4876C29.5224 31.4836 29.4972 31.474 29.4747 31.4596C29.4522 31.4452 29.433 31.4263 29.4183 31.404C29.4035 31.3818 29.3936 31.3567 29.3891 31.3304C29.3846 31.3041 29.3856 31.2772 29.3922 31.2513C29.3987 31.2254 29.4105 31.2012 29.4269 31.1801C29.4433 31.1591 29.464 31.1417 29.4875 31.1291C29.4875 31.1291 32.4028 29.2111 34.2671 30.2161C35.0919 30.6649 35.556 31.6393 36.0624 32.698C36.6838 33.9946 37.3666 35.4254 38.8358 36.0506C40.1611 36.5921 41.421 37.2819 42.5912 38.1067C43.6478 38.828 44.5161 39.7922 45.1229 40.9185Z" fill="#5E422E"/>
</g>
<defs>
<clipPath id="clip0_79_3666">
<rect width="100" height="100" rx="50" fill="white"/>
</clipPath>
</defs>
</svg>
