<svg width="542" height="542" viewBox="0 0 542 542" fill="none" xmlns="http://www.w3.org/2000/svg">
<g clip-path="url(#clip0_78_3310)">
<rect width="542" height="542" rx="271" fill="#FFCECE"/>
<path d="M270.062 320.54C270.062 320.54 209.646 327.25 186.142 317.577C179.169 314.71 163.004 290.332 153.402 275.061C148.903 267.901 145.837 262.746 145.837 262.746L165.819 221.805L205.308 286.238L269.85 297.466L270.062 320.54Z" fill="#162739"/>
<path d="M186.143 317.577C179.169 314.711 163.005 290.332 153.402 275.061C155.086 263.383 162.818 212.942 167.6 237.867L168.243 241.042C173.931 269.662 186.143 317.577 186.143 317.577Z" fill="#0B1821"/>
<path d="M80.9225 262.592C80.9225 262.592 78.0881 267.913 73.9554 275.33C65.8442 289.907 52.7456 312.608 46.4019 318.939C44.7437 320.604 41.3437 323.04 36.8704 325.938C15.5641 339.757 -30.2747 363.981 -30.2747 363.981L-43.0842 342.591L16.9267 297.974L60.9467 221.657L80.9225 262.592Z" fill="#162739"/>
<path d="M73.9554 275.331C65.8442 289.908 52.7456 312.609 46.4019 318.939C44.7437 320.604 41.3437 323.04 36.8704 325.939C36.8704 325.939 53.5232 292.164 58.2665 248.529L73.9554 275.331Z" fill="#0B1821"/>
<path d="M168.313 361.102L167.6 387.351L159.791 674.622H123.676L115.764 424.359L115.687 421.859L115.417 424.333L88.7123 674.622H50.8816L63.2862 401.157L64.6294 371.559L65.285 357.085L106.766 351.931L168.313 361.102Z" fill="#071116"/>
<path d="M99.7158 415.187C99.7158 415.187 109.749 430.522 131.524 420.328C131.524 420.348 116.195 424.93 99.7158 415.187Z" fill="#020607"/>
<path d="M167.6 387.351C167.6 387.351 140.966 418.002 63.2864 401.156L64.6296 371.591C78.2553 368.018 91.2576 365.807 91.2576 365.807L167.6 387.351Z" fill="#020607"/>
<path d="M166.925 383.372C166.925 383.372 117.32 392.646 58.2537 383.372C58.2537 383.372 66.2491 222.543 70.581 218.931C72.2842 217.517 79.1871 215.763 86.964 214.156C90.2483 213.481 93.6805 212.825 96.9455 212.228C105.667 210.659 113.155 209.528 113.155 209.528C113.155 209.528 118.997 210.409 126.369 211.694L130.303 212.401C133.279 212.948 136.37 213.532 139.339 214.143C147.11 215.75 154.026 217.504 155.729 218.918C160.074 222.543 166.925 383.372 166.925 383.372Z" fill="#F1FDFF"/>
<path d="M135.978 213.545L147.316 320.88L146.03 397.055C146.03 397.055 160.665 402.795 184.201 397.055L165.922 221.926C156.267 218.078 146.229 215.268 135.978 213.545Z" fill="#162739"/>
<path d="M96.4827 397.088C96.4827 397.088 66.1012 402.827 42.5583 397.088L60.8759 221.959C60.8759 221.959 80.5304 212.415 96.502 212.415L102.479 322.648L96.4827 397.088Z" fill="#162739"/>
<path d="M130.56 182.708V214.279C130.561 216.087 130.205 217.878 129.514 219.549C128.822 221.22 127.808 222.738 126.53 224.017C125.251 225.297 123.733 226.311 122.063 227.003C120.392 227.696 118.601 228.052 116.793 228.052C113.143 228.047 109.645 226.594 107.066 224.011C104.487 221.429 103.039 217.928 103.039 214.279V182.708H130.56Z" fill="#F7B289"/>
<path d="M130.56 200.929C130.56 200.929 126.562 209.876 103.013 210.056V182.708H109.44L128.722 196.276L130.56 200.929Z" fill="#E58353"/>
<path d="M159.45 135.089C159.45 135.089 169.592 203.474 126.704 200.916C83.8147 198.358 91.6944 132.145 91.6944 132.145L114.28 123.79L147.701 123.7L159.45 135.089Z" fill="#F7B289"/>
<path d="M151.288 168.35C151.288 170.458 149.887 172.168 148.171 172.168C146.455 172.168 145.054 170.458 145.054 168.35C145.054 166.242 146.448 164.532 148.171 164.532C149.893 164.532 151.288 166.242 151.288 168.35Z" fill="#191919"/>
<path d="M152.04 161.113C151.836 161.113 151.637 161.053 151.468 160.939C150.483 160.304 149.336 159.966 148.164 159.966C146.992 159.966 145.845 160.304 144.861 160.939C144.748 161.021 144.619 161.079 144.483 161.111C144.347 161.142 144.207 161.145 144.069 161.12C143.932 161.095 143.801 161.043 143.685 160.966C143.568 160.89 143.468 160.79 143.391 160.674C143.314 160.558 143.261 160.427 143.236 160.29C143.21 160.153 143.213 160.012 143.243 159.876C143.274 159.74 143.331 159.611 143.413 159.498C143.494 159.385 143.597 159.289 143.717 159.217C145.036 158.345 146.583 157.88 148.164 157.88C149.746 157.88 151.292 158.345 152.612 159.217C152.797 159.34 152.937 159.519 153.012 159.728C153.087 159.937 153.093 160.164 153.029 160.377C152.965 160.59 152.834 160.776 152.656 160.908C152.478 161.041 152.262 161.113 152.04 161.113Z" fill="#191919"/>
<path d="M126.234 167.861C126.234 169.969 124.833 171.679 123.117 171.679C121.401 171.679 120 169.969 120 167.861C120 165.753 121.395 164.043 123.117 164.043C124.84 164.043 126.234 165.753 126.234 167.861Z" fill="#191919"/>
<path d="M126.986 160.624C126.783 160.624 126.584 160.564 126.414 160.451C125.43 159.815 124.283 159.477 123.111 159.477C121.939 159.477 120.792 159.815 119.807 160.451C119.579 160.589 119.306 160.634 119.045 160.576C118.784 160.517 118.556 160.361 118.409 160.138C118.261 159.916 118.205 159.645 118.252 159.382C118.3 159.119 118.447 158.885 118.663 158.728C119.982 157.856 121.529 157.391 123.111 157.391C124.692 157.391 126.239 157.856 127.558 158.728C127.743 158.851 127.883 159.03 127.958 159.239C128.034 159.448 128.04 159.676 127.975 159.888C127.911 160.101 127.781 160.287 127.602 160.42C127.424 160.552 127.208 160.624 126.986 160.624Z" fill="#191919"/>
<path d="M135.509 170.972C135.509 170.972 140.529 182.431 133.787 182.001C133.787 182.001 145.413 184.057 135.509 170.972Z" fill="#E58353"/>
<path d="M134.108 191.294C133.761 191.323 133.413 191.323 133.066 191.294C131.891 191.169 130.779 190.695 129.874 189.934C128.969 189.172 128.313 188.158 127.989 187.02C127.948 186.897 127.932 186.766 127.942 186.637C127.952 186.507 127.989 186.381 128.049 186.266C128.11 186.15 128.193 186.049 128.294 185.966C128.395 185.884 128.511 185.823 128.636 185.787C128.761 185.751 128.892 185.741 129.021 185.757C129.15 185.773 129.275 185.815 129.387 185.88C129.5 185.945 129.598 186.033 129.676 186.137C129.754 186.241 129.809 186.36 129.84 186.487C130.064 187.254 130.51 187.937 131.123 188.45C131.735 188.963 132.486 189.282 133.28 189.368C134.074 189.454 134.876 189.303 135.584 188.933C136.292 188.563 136.874 187.991 137.257 187.29C137.378 187.07 137.58 186.907 137.821 186.835C138.061 186.762 138.32 186.788 138.542 186.905C138.761 187.027 138.924 187.229 138.997 187.468C139.07 187.708 139.048 187.967 138.935 188.19C138.755 188.55 136.839 191.114 134.108 191.294Z" fill="#191919"/>
<path d="M95.3777 167.598C106.555 164.532 109.254 145.276 109.254 145.276C109.254 145.276 138.909 157.301 158.178 146.967C177.447 136.632 164.213 106.829 148.164 112.542C128.022 119.722 106.452 111.662 101.284 123.732C101.284 123.732 83.7123 124.6 84.7471 138.091C85.7819 151.581 87.498 169.757 95.3777 167.598Z" fill="#191919"/>
<path d="M97.4928 171.15C100.696 168.22 100.028 162.278 96.0026 157.878C91.9768 153.479 86.117 152.288 82.9143 155.218C79.7116 158.149 80.3787 164.091 84.4045 168.491C88.4302 172.89 94.2901 174.081 97.4928 171.15Z" fill="#F7B289"/>
<path d="M96.3417 164.641C94.9727 161.472 91.5791 156.285 84.1814 156.819C84.1814 156.819 90.8207 157.23 93.1024 165.733C93.2018 166.108 93.4244 166.439 93.7345 166.672C94.0446 166.905 94.4242 167.028 94.812 167.019C95.0908 167.012 95.3635 166.937 95.6065 166.8C95.8495 166.663 96.0554 166.469 96.2062 166.235C96.3571 166 96.4483 165.732 96.4719 165.455C96.4955 165.177 96.4508 164.897 96.3417 164.641Z" fill="#E58353"/>
<path d="M170.106 301.072L236.075 286.881L292.487 301.888L214.621 314.91L170.106 301.072Z" fill="#686868"/>
<path d="M292.487 301.888L214.621 314.91L231.608 239.878H309.474L292.487 301.888Z" fill="#BFC1C1"/>
<path d="M170.106 301.072V305.289L214.621 319.448L292.487 304.903V301.889L214.621 314.91L170.106 301.072Z" fill="#444444"/>
<path d="M293.638 301.136C299.249 308.533 273.469 328.13 267.852 320.7C262.234 313.27 263.462 302.922 270.577 297.517C277.692 292.112 288.02 293.738 293.638 301.136Z" fill="#F7B289"/>
<path d="M468.83 233.924C468.83 233.924 503.286 269.781 509.289 326.54L462.467 320.948L449.529 246.92L468.83 233.924Z" fill="#132936"/>
<path d="M467.821 239.425L479.409 287.674L449.529 291.537L450.789 242.806L467.821 239.425Z" fill="#081219"/>
<path d="M480.642 700.09L447.548 700.842C447.548 700.842 441.809 696.002 439.592 680.751C437.374 665.499 427.226 672.903 423.568 663.307C420.175 654.354 424.211 647.014 430.375 645.035C420.213 564.052 423.164 562.663 419.5 506.29C416.203 455.515 421.428 405.537 421.428 405.537L463.764 431.754C463.764 431.754 455.531 508.797 453.744 567.587C451.957 626.376 447.632 666.527 459.786 678.777C462.773 681.792 466.079 684.473 469.645 686.773C476.072 690.918 480.032 692.275 480.642 700.09Z" fill="#F7B289"/>
<path d="M326.781 701.947L359.881 702.462C359.881 702.462 365.582 697.577 367.684 682.312C369.786 667.048 379.999 674.374 383.585 664.747C386.914 655.748 386.522 648.518 380.371 646.59C388.92 608.5 395.51 569.998 400.116 531.234C406.897 473.132 411.563 407.407 411.563 407.407L362.073 433.817C362.073 433.817 366.746 510.77 362.009 569.373C357.76 621.961 359.599 668.127 347.535 680.435C344.573 683.471 341.289 686.174 337.74 688.495C331.287 692.744 327.334 694.151 326.781 701.947Z" fill="#F7B289"/>
<path d="M360.653 486.16C427.715 505.236 470.815 486.16 470.815 486.16C470.815 486.16 467.023 471.05 470.494 414.973C472.493 382.624 464.819 362.321 457.961 350.932C452.935 342.576 448.32 339.009 448.32 339.009L375.693 337.184L368.732 337.004C368.732 337.004 368.661 337.705 368.526 338.971V339.151C367.594 347.994 363.982 382.213 361.456 405.222C358.59 431.818 360.653 486.16 360.653 486.16Z" fill="#071116"/>
<path d="M368.372 339.009L368.52 339.15C370.165 340.629 387.017 353.933 457.961 350.931C452.935 342.576 448.32 339.009 448.32 339.009L375.693 337.184L368.526 338.97L368.372 339.009Z" fill="#020607"/>
<path d="M433.152 160.743C436.873 152.857 445.826 149.817 452.221 152.896C457.08 155.255 460.082 161.013 459.51 167.196C464.568 164.529 470.59 164.985 474.652 168.315C479.755 172.492 480.983 180.526 476.895 186.825C487.031 185.829 493.998 192.667 493.722 198.041C493.51 202.154 488.998 206.396 482.795 207.855C486.247 213.279 485.193 220.105 481.118 223.563C476.22 227.702 467.409 226.603 463.167 219.912C462.962 222.259 461.976 224.469 460.365 226.187C458.755 227.906 456.613 229.033 454.285 229.389C451.957 229.745 449.577 229.308 447.526 228.149C445.476 226.99 443.874 225.176 442.979 222.997C441.24 225.168 438.883 226.759 436.22 227.561C433.556 228.362 430.712 228.335 428.064 227.485C425.417 226.634 423.09 224.999 421.391 222.796C419.693 220.593 418.704 217.927 418.555 215.15C410.38 203.414 408.915 188.728 414.911 177.011C420.355 166.444 429.964 162.029 433.152 160.743Z" fill="#191919"/>
<path d="M389.119 169.099C383.675 156.636 372.247 152.484 366.681 155.64C362.536 157.986 360.73 164.921 361.919 172.184C354.142 170.172 347.457 175.346 347.052 180.597C346.737 184.704 350.227 189.37 355.748 190.971C353.769 191.364 351.987 192.431 350.706 193.991C349.426 195.551 348.726 197.507 348.726 199.525C348.726 201.543 349.426 203.499 350.706 205.059C351.987 206.619 353.769 207.687 355.748 208.08C353.293 211.493 352.683 215.632 354.341 218.17C356.668 221.731 363.885 222.83 369.49 217.894C369.306 219.904 369.91 221.906 371.175 223.479C372.441 225.051 374.267 226.07 376.27 226.32C378.272 226.57 380.294 226.032 381.907 224.82C383.52 223.608 384.599 221.815 384.915 219.822C388.244 222.978 392.943 223.974 396.696 222.348C401.632 220.201 404.338 213.781 402.024 207.765C400.474 194.115 396.077 180.943 389.119 169.099Z" fill="#191919"/>
<path d="M374.947 129.989C374.947 129.989 381.233 115.297 396.761 116.235C399.62 113.961 403.04 112.5 406.66 112.007C410.279 111.514 413.965 112.007 417.328 113.433C417.328 113.433 432.754 113.362 435.472 122.778C435.472 122.778 446.81 124.938 446.399 136.989C446.399 136.989 451.18 141.738 446.399 151.701C441.617 161.663 374.947 129.989 374.947 129.989Z" fill="#191919"/>
<path d="M366.238 144.489C372.621 133.087 390.469 128.1 391.947 127.701C395.951 126.634 413.118 122.058 428.82 133.139C440.614 141.494 444.49 153.616 445.769 160.776C446.188 158.644 446.403 156.476 446.411 154.303C446.411 133.968 428.139 117.488 405.592 117.488C386.812 117.495 371.001 128.922 366.238 144.489Z" fill="#EC9824"/>
<path d="M400.373 191.086L400.591 222.438L413.349 239.856L427.624 222.477L427.283 191.086H400.373Z" fill="#F7B289"/>
<path d="M400.373 208.883C400.373 208.883 404.28 217.631 427.283 217.804V191.086H421.023L402.198 204.346L400.373 208.883Z" fill="#E58353"/>
<path d="M372.151 139.039C372.151 139.039 362.253 211.21 404.139 208.877C447.748 206.448 433.107 139.148 433.107 139.148L416.28 128.036L386.22 135.221L372.151 139.039Z" fill="#F7B289"/>
<path d="M365.255 160.043C365.313 160.106 365.377 160.162 365.448 160.21C368.018 162.293 373.012 160.994 375.84 158.237C379.343 154.824 378.771 149.933 378.688 149.297C382.473 153.018 388.007 153.738 391.902 151.315C396.035 148.744 396.485 143.769 396.53 143.191C397.249 143.834 400.521 146.469 404.885 146.006C409.641 145.505 413.774 141.507 414.956 136.115C414.671 137.529 414.688 138.988 415.009 140.395C415.329 141.803 415.944 143.126 416.814 144.277C418.273 146.081 420.321 147.315 422.598 147.761C421.348 148.763 420.533 150.209 420.322 151.798C420.111 153.386 420.52 154.995 421.464 156.289C422.408 157.584 423.816 158.465 425.393 158.748C426.97 159.032 428.595 158.697 429.932 157.813C429.34 159.909 429.484 162.146 430.341 164.149C431.198 166.152 432.716 167.8 434.641 168.82C436.567 169.839 438.783 170.168 440.922 169.751C443.06 169.334 444.991 168.196 446.392 166.528C446.313 164.609 446.098 162.697 445.749 160.808C444.464 153.642 440.607 141.488 428.801 133.171C413.099 122.09 395.932 126.667 391.928 127.734C390.449 128.132 372.601 133.12 366.219 144.521C365.096 146.479 364.371 148.639 364.085 150.878C363.911 152.388 362.652 157.665 365.255 160.043Z" fill="#191919"/>
<path d="M444.903 177.755C448.838 173.455 449.491 167.648 446.361 164.784C443.232 161.921 437.505 163.085 433.571 167.385C429.636 171.685 428.983 177.492 432.113 180.356C435.242 183.219 440.969 182.055 444.903 177.755Z" fill="#F7B289"/>
<path d="M433.248 173.99C434.585 170.898 437.902 165.801 445.132 166.354C445.132 166.354 438.641 166.753 436.41 175.063C436.32 175.435 436.105 175.766 435.801 175.999C435.497 176.233 435.123 176.356 434.739 176.348C434.463 176.343 434.192 176.269 433.951 176.134C433.71 175.998 433.506 175.804 433.359 175.57C433.211 175.337 433.123 175.07 433.104 174.794C433.085 174.518 433.134 174.242 433.248 173.99Z" fill="#E58353"/>
<path d="M384.279 176.368C385.961 176.368 387.325 174.699 387.325 172.64C387.325 170.581 385.961 168.912 384.279 168.912C382.596 168.912 381.232 170.581 381.232 172.64C381.232 174.699 382.596 176.368 384.279 176.368Z" fill="#191919"/>
<path d="M380.5 165.563C380.699 165.564 380.894 165.506 381.059 165.396C382.018 164.78 383.133 164.453 384.273 164.453C385.412 164.453 386.528 164.78 387.486 165.396C387.71 165.544 387.983 165.598 388.245 165.545C388.508 165.492 388.739 165.336 388.887 165.113C389.036 164.89 389.089 164.617 389.036 164.354C388.983 164.091 388.828 163.86 388.605 163.712C387.317 162.861 385.807 162.407 384.263 162.407C382.719 162.407 381.209 162.861 379.921 163.712C379.811 163.785 379.716 163.88 379.641 163.99C379.567 164.1 379.515 164.224 379.489 164.354C379.463 164.484 379.463 164.618 379.488 164.748C379.514 164.879 379.565 165.003 379.639 165.113C379.732 165.255 379.86 165.371 380.011 165.45C380.161 165.529 380.33 165.568 380.5 165.563Z" fill="#191919"/>
<path d="M405.708 172.164C405.708 174.221 407.07 175.892 408.754 175.892C410.438 175.892 411.801 174.221 411.801 172.164C411.801 170.108 410.438 168.437 408.754 168.437C407.07 168.437 405.708 170.101 405.708 172.164Z" fill="#191919"/>
<path d="M404.975 165.088C405.172 165.089 405.364 165.031 405.528 164.92C406.487 164.306 407.602 163.979 408.741 163.979C409.88 163.979 410.996 164.306 411.955 164.92C412.178 165.069 412.451 165.122 412.714 165.069C412.977 165.016 413.208 164.861 413.356 164.638C413.504 164.414 413.558 164.141 413.505 163.878C413.452 163.616 413.297 163.385 413.073 163.236C411.784 162.385 410.273 161.932 408.728 161.932C407.184 161.932 405.673 162.385 404.384 163.236C404.202 163.356 404.064 163.532 403.99 163.737C403.917 163.942 403.911 164.165 403.975 164.373C404.038 164.582 404.168 164.764 404.343 164.892C404.519 165.021 404.731 165.09 404.949 165.088H404.975Z" fill="#191919"/>
<path d="M396.645 175.199C396.645 175.199 391.741 186.395 398.329 185.977C398.329 185.977 386.972 187.982 396.645 175.199Z" fill="#E58353"/>
<path d="M394.074 191.794C394.074 193.466 394.739 195.07 395.921 196.252C397.103 197.434 398.707 198.099 400.379 198.099C402.052 198.099 403.655 197.434 404.838 196.252C406.02 195.07 406.684 193.466 406.684 191.794C406.684 190.058 403.574 190.849 400.444 190.836C397.314 190.823 394.074 190.039 394.074 191.794Z" fill="#191919"/>
<path d="M449.362 339.895C414.179 346.187 368.835 339.895 368.835 339.895L362.684 231.918C364.709 230.433 367.974 228.923 371.875 227.47C373.385 226.898 374.999 226.339 376.663 225.793C383.123 223.672 390.495 221.731 396.723 220.214H396.78H396.909C404.757 218.286 410.76 217.097 410.76 217.097C410.76 217.097 416.21 218.382 423.756 220.31C431.687 222.309 441.919 225.002 450.557 227.579C459.671 230.311 467.024 232.92 468.039 234.508C468.611 235.299 449.362 339.895 449.362 339.895Z" fill="#FDFEFF"/>
<path d="M450.582 227.535C445.318 238.777 429.7 246.92 411.241 246.92C392.782 246.92 377.119 238.751 371.875 227.484C373.385 226.912 374.998 226.353 376.663 225.806C383.122 223.685 390.494 221.744 396.722 220.228H396.78H396.909C404.756 218.299 410.759 217.11 410.759 217.11C410.759 217.11 416.209 218.396 423.755 220.324C431.712 222.265 441.95 224.958 450.582 227.535Z" fill="#F7B289"/>
<path d="M435.787 223.383C435.787 223.383 424.938 244.342 422.129 292.045C419.32 339.748 435.992 371.28 435.992 371.28C435.992 371.28 471.985 376.89 490.707 360.996C490.707 360.996 462.344 334.419 455.358 307.29L468.855 233.93C468.855 233.93 452.401 226.031 435.787 223.383Z" fill="#132936"/>
<path d="M385.828 371.279C385.828 371.279 349.836 376.897 331.113 360.996C331.113 360.996 359.477 334.413 366.463 307.283L364.49 277.416L363.204 257.775L361.475 231.699C361.475 231.699 376.11 223.73 392.725 221.082C392.725 221.082 396.864 244.342 399.672 292.044C402.481 339.747 385.828 371.279 385.828 371.279Z" fill="#132936"/>
<path d="M444.975 253.66L415.625 337.236L479.918 359.814L509.268 276.238L444.975 253.66Z" fill="#EC9824"/>
<path d="M449.961 268.542L443.983 285.564L490.089 301.756L496.066 284.734L449.961 268.542Z" fill="white"/>
<path d="M444.997 253.745L449.323 251.239L507.277 269.37L509.289 276.331L444.997 253.745Z" fill="white"/>
<path d="M446.411 303.248C446.411 303.248 441.469 290.587 438.461 289.224C435.453 287.862 432.535 296.236 432.535 296.236C432.535 296.236 430.272 292.946 427.097 293.023C422.341 293.119 413.992 309.624 421.274 314.579C428.556 319.535 441.083 321.373 441.083 321.373L450.788 306.97L446.411 303.248Z" fill="#F7B289"/>
<path d="M500.984 312.675C500.984 312.675 517.56 324.598 505.76 339.997C493.856 355.539 437.49 321.693 437.49 321.693L446.809 302.411L500.984 312.675Z" fill="#132936"/>
<path d="M343.512 349.568L337.188 336.11L356.379 337.299C356.379 337.299 369.343 334.239 372.897 337.671C375.847 340.525 366.733 344.947 366.733 344.947C366.733 344.947 373.701 361.908 362.986 369.37C349.573 378.728 343.512 349.568 343.512 349.568Z" fill="#F7B289"/>
<path d="M339.841 300.536L357.625 336.625L343.524 351.369C343.524 351.369 308.907 327.209 309.711 297.528C310.514 267.847 361.495 231.7 361.495 231.7L367.986 249.054L374.947 267.641L339.841 300.536Z" fill="#132936"/>
<path d="M364.515 277.416L339.841 300.535L363.224 257.774L364.515 277.416Z" fill="#081219"/>
</g>
<defs>
<clipPath id="clip0_78_3310">
<rect width="542" height="542" rx="271" fill="white"/>
</clipPath>
</defs>
</svg>
